<svg id="Layer_1" data-name="Layer 1" xmlns="http://www.w3.org/2000/svg" xmlns:xlink="http://www.w3.org/1999/xlink" viewBox="0 0 100 100"><defs><style>.cls-1{fill:#8dd5e8;}.cls-2{fill:#1b3764;}.cls-3{fill:url(#radial-gradient);}.cls-4{fill:#0a85c3;}.cls-5{fill:#5ab0d9;}.cls-6{fill:#e11b65;}.cls-7{fill:#ea6294;}</style><radialGradient id="radial-gradient" cx="14.57" cy="411.13" r="4.79" gradientTransform="matrix(1, 0, 0, -3.01, 0, 1291.43)" gradientUnits="userSpaceOnUse"><stop offset="0.71" stop-color="#3e547c"/><stop offset="1" stop-color="#1b3764"/></radialGradient></defs><g id="Layer_2" data-name="Layer 2"><g id="brand"><polygon class="cls-1" points="42.41 54.52 32.22 50.43 31.32 50.52 31.51 52.5 42.41 54.52"/><path class="cls-1" d="M59.53,61.38,42.41,54.52l-10.9-2-.19-2-8.74.85,1.1,11.17,6.12-.61a13.11,13.11,0,0,1,5.13.52L53.06,68a14.51,14.51,0,0,0,12.15-1.68L86.62,52.52a2.61,2.61,0,0,0,.44-4Z"/><path class="cls-1" d="M84.15,47.91,64.09,56.62a11,11,0,0,1-6.38.72L42.42,54.52l11.71,6.72a7.74,7.74,0,0,0,7.33.19l25.61-13A2.62,2.62,0,0,0,84.15,47.91Z"/><ellipse class="cls-2" cx="5.83" cy="54" rx="4.78" ry="14.41"/><rect class="cls-2" x="5.83" y="39.59" width="8.62" height="28.82"/><ellipse class="cls-3" cx="14.44" cy="54" rx="4.78" ry="14.41"/><polygon class="cls-1" points="39.96 54.47 26.89 48.65 25.72 48.72 25.88 51.31 39.96 54.47"/><path class="cls-1" d="M61.9,64.24,40,54.47,25.88,51.31l-.16-2.59-11.4.69L15.19,64l8-.48a17,17,0,0,1,6.65.91l23.32,8.15A18.86,18.86,0,0,0,69,71L97.57,54a3.42,3.42,0,0,0,1.67-3.14,3.39,3.39,0,0,0-.9-2.1Z"/><path class="cls-1" d="M94.59,47.93,68.06,58.25a14.35,14.35,0,0,1-8.35.65L40,54.47l14.9,9.32a10.06,10.06,0,0,0,9.52.61l34-15.59A3.41,3.41,0,0,0,94.59,47.93Z"/><polygon class="cls-4" points="39.73 56.35 27.04 49.77 25.87 49.77 25.87 52.36 39.73 56.35"/><rect class="cls-5" x="14.44" y="44.22" width="11.43" height="5.54"/><path class="cls-4" d="M61.05,67.42,39.73,56.35l-13.86-4V49.77H14.44V64.38h8A17.15,17.15,0,0,1,29,65.7l22.79,9.53a18.9,18.9,0,0,0,15.95-.64l29.5-15.21a3.43,3.43,0,0,0,1.08-5.19Z"/><path class="cls-5" d="M94.66,53.09l-27.1,8.73a14.3,14.3,0,0,1-8.37.14L39.73,56.35l14.32,10.2a10,10,0,0,0,9.47,1.18L98.35,54.19A3.42,3.42,0,0,0,94.66,53.09Z"/><path class="cls-6" d="M72.66,34.13l0-.82a3.25,3.25,0,0,0-5.36-2.58l-2.08,1.78a4.83,4.83,0,0,1-6.27,0l-2.07-1.78a3.25,3.25,0,0,0-5.36,2.58l0,.82a2.45,2.45,0,0,1-.84,1.95,1.33,1.33,0,0,1-.19.14l9.11,12.27a3.19,3.19,0,0,0,4.45.64,3,3,0,0,0,.65-.64l9.06-12.18a2.26,2.26,0,0,1-.31-.23A2.49,2.49,0,0,1,72.66,34.13Z"/><path class="cls-7" d="M74.58,35.28a7.59,7.59,0,0,0-11.67-9.64,1,1,0,0,1-1.39,0h0a7.59,7.59,0,0,0-11.67,9.64h0l.7.94.18-.14a2.45,2.45,0,0,0,.84-1.95l0-.82a3.26,3.26,0,0,1,3.12-3.38,3.22,3.22,0,0,1,2.26.8L59,32.51a4.85,4.85,0,0,0,6.28,0l2.08-1.78a3.24,3.24,0,0,1,5.35,2.58l0,.82a2.49,2.49,0,0,0,.85,1.95,1.7,1.7,0,0,0,.3.23l.77-1Z"/><path class="cls-5" d="M14.44,44.22c-1.29,0-2.41,2.26-3,5.55H17.4C16.86,46.48,15.74,44.22,14.44,44.22Z"/><path class="cls-4" d="M11.48,49.77a28.63,28.63,0,0,0-.36,4.53c0,5.57,1.49,10.08,3.32,10.08s3.3-4.51,3.3-10.08a27.48,27.48,0,0,0-.35-4.53Z"/><path class="cls-5" d="M70.16,58.53h0a3,3,0,0,0-1.62-2.43L51.06,47a42.92,42.92,0,0,0-9.69-3.87h0a20.05,20.05,0,0,0-14.2.34,18.44,18.44,0,0,0-4.93,3.21A36,36,0,0,1,35.09,48C39,49.2,40,50.28,50.19,55.65c9.11,4.82,13,6.45,16.82,5A9.31,9.31,0,0,0,70.16,58.53Z"/><path class="cls-4" d="M70.16,58.53C60.07,62,50.93,52.8,35.47,46.85c-1.43-.55-3.11-1.15-5-1.74a9,9,0,0,0-8.22,1.55l-1.8,1.45a7.6,7.6,0,0,1-4.86,1.66h0L24,53,60.74,63.79a8,8,0,0,0,9-3.34,3,3,0,0,0,.46-1.92Z"/></g></g></svg>