<svg id="Layer_1" data-name="Layer 1" xmlns="http://www.w3.org/2000/svg" viewBox="0 0 100 100"><defs><style>.cls-1{fill:#8dd5e8;}.cls-2{fill:#5ab0d9;}.cls-3{fill:#e11b65;}.cls-4{fill:#ea6294;}.cls-5{fill:#1b3764;}.cls-6{fill:none;stroke:#1b3764;stroke-miterlimit:10;stroke-width:10px;}</style></defs><g id="Layer_2" data-name="Layer 2"><g id="brand"><path class="cls-1" d="M4.27,61.61h0C1.93,63,1.1,67.52,2.4,72.31s4.35,8.2,7.08,8.24h0l84-4.06L75.94,17.7Z"/><path class="cls-2" d="M2.15,71.24c.07.36.16.71.25,1.07,1.32,4.78,4.35,8.21,7.08,8.24h0l82.84-3.89L83.78,41.34Z"/><path class="cls-3" d="M77.75,19.44C72.3,21,70.48,32.05,73.18,45.24l21.09-7.73C89.78,25.77,83,18,77.75,19.44Z"/><path class="cls-4" d="M73.18,45.24c.31,1.53.68,3.09,1.12,4.66C78.46,65,86.78,76,92.86,74.28S100.51,59,96.35,43.83c-.6-2.22-1.3-4.32-2.06-6.32Z"/><path class="cls-5" d="M97.24,43.57c.74,2.66,1.34,5.37,1.82,8.1.22,1.37.44,2.74.59,4.12s.27,2.78.32,4.19a33.38,33.38,0,0,1-.64,8.57c-.09.36-.17.73-.28,1.09l-.16.55-.2.55c-.12.37-.3.73-.45,1.1a6.67,6.67,0,0,1-.58,1.08A8.52,8.52,0,0,1,96,75a7.2,7.2,0,0,1-2.54,1.47,7.4,7.4,0,0,1-3,.3,9.55,9.55,0,0,1-1.4-.25c-.43-.12-.85-.27-1.27-.43s-.78-.36-1.17-.55a8,8,0,0,1-1.07-.64l-.51-.34-.49-.35c-.33-.24-.63-.49-.93-.74a26.72,26.72,0,0,1-3.21-3.26,40,40,0,0,1-2.63-3.57A51.69,51.69,0,0,1,73.7,59c-.57-1.33-1.09-2.66-1.57-4s-.89-2.73-1.28-4.12-.71-2.77-1-4.18-.52-2.82-.7-4.25a50.16,50.16,0,0,1-.41-8.66,38.29,38.29,0,0,1,.44-4.41,25.93,25.93,0,0,1,1.09-4.44c.13-.37.25-.74.42-1.11l.23-.55.27-.56c.16-.36.39-.73.59-1.09a8.55,8.55,0,0,1,.73-1.08,10.63,10.63,0,0,1,.87-1,8.59,8.59,0,0,1,1.07-.93,7,7,0,0,1,5.63-1.31,8.67,8.67,0,0,1,2.48.9c.37.2.72.41,1.06.64s.66.46.95.71l.45.37.42.39c.28.26.54.53.8.79a33.47,33.47,0,0,1,4.94,7c.68,1.24,1.27,2.5,1.87,3.76s1.09,2.56,1.61,3.85Q96.15,39.57,97.24,43.57Zm-1.83.5c-.38-1.29-.77-2.58-1.21-3.85s-1-2.53-1.48-3.75a45.58,45.58,0,0,0-3.8-7,31.39,31.39,0,0,0-2.36-3.17,21.52,21.52,0,0,0-2.7-2.7c-.25-.2-.48-.4-.73-.57l-.36-.24-.38-.24a7.94,7.94,0,0,0-.75-.42,3,3,0,0,0-.75-.32,4.26,4.26,0,0,0-1.41-.32,2.74,2.74,0,0,0-1.13.18,2.94,2.94,0,0,0-.89.63,4.63,4.63,0,0,0-.41.49,4.56,4.56,0,0,0-.38.59,6,6,0,0,0-.34.67,4.16,4.16,0,0,0-.28.75l-.13.4-.11.41c-.08.27-.14.55-.21.84a30.09,30.09,0,0,0-.46,7.34c0,1.27.17,2.54.32,3.81s.35,2.53.55,3.8c.45,2.53,1,5.07,1.71,7.57s1.49,5,2.41,7.38c.48,1.2,1,2.4,1.48,3.56s1.08,2.32,1.69,3.43a29.41,29.41,0,0,0,4.14,6.1c.2.21.4.43.6.62l.32.3.32.27c.2.19.42.33.63.5a3.82,3.82,0,0,0,.64.41c.2.11.41.22.63.32a5.8,5.8,0,0,0,.59.19,2.92,2.92,0,0,0,1.1.09,2.73,2.73,0,0,0,1.06-.43,4.25,4.25,0,0,0,1-1,6.57,6.57,0,0,0,.48-.66,3.25,3.25,0,0,0,.43-.75l.2-.4.19-.41A9,9,0,0,0,96,67.6a21.75,21.75,0,0,0,1-3.71,32.14,32.14,0,0,0,.4-3.92A45.41,45.41,0,0,0,97,52c-.17-1.34-.39-2.66-.66-4S95.75,45.38,95.41,44.07Z"/><path class="cls-5" d="M10.19,80.64a3,3,0,0,1-1.71.51,4.83,4.83,0,0,1-1.8-.37,8.55,8.55,0,0,1-2.91-2A14.6,14.6,0,0,1,.29,66.07a8.36,8.36,0,0,1,1.45-3.23A4.73,4.73,0,0,1,3.1,61.6a3,3,0,0,1,1.73-.44.17.17,0,0,1,.15.18.17.17,0,0,1-.06.12h0A3.76,3.76,0,0,0,3.6,63.78a10.64,10.64,0,0,0-.18,2.64A26,26,0,0,0,6.29,76.85,10.27,10.27,0,0,0,7.8,79a3.76,3.76,0,0,0,2.31,1.32h0a.18.18,0,0,1,.15.19h0A.18.18,0,0,1,10.19,80.64Z"/><path class="cls-6" d="M36,75.42l-1,5.7A1.78,1.78,0,0,0,37,83.31l15.27-.75a3.38,3.38,0,0,0,3-2.53l1.23-5.71"/><ellipse class="cls-5" cx="56.41" cy="74.33" rx="0.76" ry="1.63" transform="translate(-29.98 109.58) rotate(-75)"/><ellipse class="cls-5" cx="36.04" cy="75.42" rx="0.76" ry="1.63" transform="translate(-46.13 90.71) rotate(-75)"/></g></g></svg>