<svg id="Layer_1" data-name="Layer 1" xmlns="http://www.w3.org/2000/svg" viewBox="0 0 100 100"><defs><style>.cls-1{fill:#1b3764;}.cls-2{fill:#3e547c;}</style></defs><path class="cls-1" d="M31.68,18.11H16.15a8.22,8.22,0,0,0-8.22,8.23h0a8.23,8.23,0,0,0,8.22,8.23h26Z"/><path class="cls-2" d="M31.68,18.11h52.2a8.22,8.22,0,0,1,8.22,8.23h0a8.23,8.23,0,0,1-8.22,8.23H42.12Z"/><path class="cls-1" d="M46.41,41.33H16.15a8.22,8.22,0,0,0-8.22,8.23h0a8.22,8.22,0,0,0,8.22,8.22h40.7Z"/><path class="cls-2" d="M46.41,41.33H83.88a8.22,8.22,0,0,1,8.22,8.23h0a8.22,8.22,0,0,1-8.22,8.22h-27Z"/><path class="cls-1" d="M61.71,65.43H16.12A8.23,8.23,0,0,0,7.9,73.66h0a8.22,8.22,0,0,0,8.22,8.23h56Z"/><path class="cls-2" d="M61.71,65.43H83.85a8.23,8.23,0,0,1,8.22,8.23h0a8.22,8.22,0,0,1-8.22,8.23H72.15Z"/></svg>