<svg xmlns="http://www.w3.org/2000/svg" viewBox="0 0 1530.98 108.66"><defs><style>.cls-1{fill:#fff;}.cls-2{fill:none;stroke:#8cd5e8;stroke-linecap:round;stroke-linejoin:round;stroke-width:5px;}</style></defs><g id="Layer_2" data-name="Layer 2"><g id="education"><path class="cls-1" d="M980,70.41,968.7,91.25a33.23,33.23,0,0,1-29.22,17.41H12.87A12.85,12.85,0,0,1,1.15,90.52l22.58-50A60,60,0,0,1,78.41,5.2h1011A124.47,124.47,0,0,0,980,70.41Z"/><path class="cls-1" d="M1178,70.41l11.28,20.84a33.22,33.22,0,0,0,29.22,17.41H1531V5.2H1068.49A124.47,124.47,0,0,1,1178,70.41Z"/><path class="cls-2" d="M248.29,66.51l3.54-13.39A68,68,0,0,1,317.59,2.5h0"/><path class="cls-2" d="M489.71,66.51l3.54-13.39A68,68,0,0,1,559,2.5h0"/><path class="cls-2" d="M723.2,66.51l3.55-13.39A68,68,0,0,1,792.51,2.5h0"/></g></g></svg>