<svg xmlns="http://www.w3.org/2000/svg" viewBox="0 0 243.64 167.64"><defs><style>.cls-1{fill:#0084c3;}.cls-2{fill:#eb6194;}</style></defs><g id="Layer_2" data-name="Layer 2"><g id="awareness"><path class="cls-1" d="M20.94,97.54v5a31.26,31.26,0,0,1,16.56,5.63l-5,7.25a33.93,33.93,0,0,0-11.55-3v12.62q18,6.88,18,18.88,0,8.5-5.82,13.16-4.74,3.84-12.17,4v5.63H16.56v-5.63Q8.77,160.37,0,154.91C.6,154,1.55,152.7,2.86,151c1-1.31,1.79-2.35,2.33-3.13.6.48,2.33,1.07,5.19,1.79a29.18,29.18,0,0,0,6.18,1.08V134.77q-8.41-3.3-11.95-7.2a13.9,13.9,0,0,1-3.54-9.71,13.67,13.67,0,0,1,4.17-10.29q4.15-4,11.32-4.84V97.54Zm-4.38,15q-3.31,1.33-3.31,5.28,0,3.23,3.31,5.37Zm4.38,38q5.55-.45,5.55-6.09,0-4.74-5.55-7.61Z"/><path class="cls-1" d="M98.29,49v8.58q14.56.47,28.35,9.66l-8.58,12.41q-11.34-4.74-19.77-5.06V96.23q30.81,11.8,30.8,32.33,0,14.56-10,22.53Q111,157.67,98.29,158v9.65H90.78V158q-13.32-1.38-28.35-10.73c1-1.53,2.66-3.78,4.91-6.74q2.59-3.37,4-5.37c1,.82,4,1.84,8.89,3.07a50.61,50.61,0,0,0,10.57,1.84V112.78q-14.4-5.67-20.45-12.34T64.27,83.82q0-10.72,7.13-17.62t19.38-8.28V49ZM90.78,74.78q-5.67,2.3-5.67,9,0,5.52,5.67,9.19Zm7.51,65.12q9.51-.77,9.5-10.42,0-8.11-9.5-13Z"/><path class="cls-2" d="M200.32,0V12.07q20.48.64,39.87,13.58L228.12,43.11q-15.94-6.69-27.8-7.12V66.38Q243.64,83,243.64,111.86q0,20.48-14,31.68-11.43,9.27-29.31,9.7v13.57H189.76V153.24q-18.75-2-39.87-15.09,2.15-3.22,6.89-9.48,3.67-4.74,5.61-7.54,2.15,1.73,12.5,4.3T189.76,128V89.66q-20.26-8-28.77-17.35t-8.52-23.38q0-15.09,10-24.79T189.76,12.5V0ZM189.76,36.21q-8,3.23-8,12.72,0,7.76,8,12.92Zm10.56,91.59q13.37-1.06,13.36-14.65,0-11.41-13.36-18.32Z"/></g></g></svg>