<svg xmlns="http://www.w3.org/2000/svg" viewBox="0 0 270.21 99.24"><defs><style>.cls-1{fill:#eb6194;}.cls-2{fill:#fff;}.cls-3{fill:#1c3664;}.cls-4{fill:#0084c3;}.cls-5{fill:#c5445c;}</style></defs><g id="Layer_2" data-name="Layer 2"><g id="awareness"><circle class="cls-1" cx="17.93" cy="10.74" r="10.74"/><path class="cls-1" d="M29.08,24.83H6.77A6.77,6.77,0,0,0,0,31.6V64.44a7.2,7.2,0,0,0,.08,1c.48,3.1,5.14,2.65,5.14-.49V36.15a1,1,0,1,1,2,0V67.6h21.5V36.15a1,1,0,0,1,2,0V64.67c0,3.26,4.92,3.55,5.17.3,0-.17,0-.35,0-.53V31.6A6.78,6.78,0,0,0,29.08,24.83Z"/><path class="cls-1" d="M23.59,56.47H12.27a5.09,5.09,0,0,0-5.08,5.08V94.17a5.08,5.08,0,0,0,5.08,5.07h.36a4.49,4.49,0,0,0,4.49-4.48V69.27a1,1,0,0,1,2,0V94.76a4.49,4.49,0,0,0,4.49,4.48h0a5.07,5.07,0,0,0,5.07-5.07V61.55A5.08,5.08,0,0,0,23.59,56.47Z"/><path class="cls-2" d="M21,7.51v2a2,2,0,0,1-2.17,2h-.73v.27a.79.79,0,0,1-.79.79h-.6a.78.78,0,0,1-.79-.79V10.47a.79.79,0,0,1,.79-.79h1.39A.71.71,0,0,0,18.82,9V8a.71.71,0,0,0-.71-.72H16.8V8.39H15.64a.78.78,0,0,1-.79-.79V6.18a.79.79,0,0,1,.79-.79h3.1A2.21,2.21,0,0,1,21,7.51Zm-3.69,8.57h-.6a.77.77,0,0,1-.79-.79v-1a.79.79,0,0,1,.79-.79h.6a.79.79,0,0,1,.79.79v1A.78.78,0,0,1,17.32,16.08Z"/><path class="cls-3" d="M19.36,56.8a1.32,1.32,0,0,0,1.14.35c.44-.15.53-.69.92-1.66a8,8,0,0,1,.92-1.9c.86-1.19,1.84-1.09,2.91-2.56.44-.62.41-.82.35-.91-.19-.3-1.11,0-1.44.08-1.93.58-5.43,2.53-5.41,5A2.12,2.12,0,0,0,19.36,56.8Z"/><circle class="cls-4" cx="76.52" cy="10.74" r="10.74"/><path class="cls-4" d="M87.67,24.83H65.36a6.77,6.77,0,0,0-6.77,6.77V64.44a7.2,7.2,0,0,0,.08,1c.48,3.1,5.13,2.65,5.13-.49V36.15a1,1,0,0,1,2,0V67.6h21.5V36.15a1,1,0,1,1,2,0V64.67c0,3.26,4.91,3.55,5.16.3a4.61,4.61,0,0,0,0-.53V31.6A6.77,6.77,0,0,0,87.67,24.83Z"/><path class="cls-4" d="M82.17,56.47H70.86a5.08,5.08,0,0,0-5.08,5.08V94.17a5.07,5.07,0,0,0,5.08,5.07h.36a4.49,4.49,0,0,0,4.49-4.48V69.27a1,1,0,0,1,2,0V94.76a4.49,4.49,0,0,0,4.48,4.48h0a5.07,5.07,0,0,0,5.08-5.07V61.55A5.08,5.08,0,0,0,82.17,56.47Z"/><path class="cls-5" d="M78,56.8a1.3,1.3,0,0,0,1.13.35c.45-.15.54-.69.93-1.66a8.45,8.45,0,0,1,.91-1.9c.87-1.19,1.84-1.09,2.91-2.56.45-.62.42-.82.36-.91-.19-.3-1.11,0-1.44.08-1.94.58-5.43,2.53-5.41,5A2.12,2.12,0,0,0,78,56.8Z"/><circle class="cls-4" cx="135.1" cy="10.74" r="10.74"/><path class="cls-4" d="M146.26,24.83H124a6.77,6.77,0,0,0-6.77,6.77V64.44a6,6,0,0,0,.08,1c.48,3.1,5.13,2.65,5.13-.49V36.15a1,1,0,0,1,2,0V67.6h21.5V36.15a1,1,0,1,1,2,0V64.67c0,3.26,4.91,3.55,5.16.3,0-.17,0-.35,0-.53V31.6A6.77,6.77,0,0,0,146.26,24.83Z"/><path class="cls-4" d="M140.76,56.47H129.45a5.08,5.08,0,0,0-5.08,5.08V94.17a5.07,5.07,0,0,0,5.08,5.07h.36a4.49,4.49,0,0,0,4.49-4.48V69.27a1,1,0,0,1,2,0V94.76a4.49,4.49,0,0,0,4.49,4.48h0a5.07,5.07,0,0,0,5.08-5.07V61.55A5.08,5.08,0,0,0,140.76,56.47Z"/><path class="cls-5" d="M136.53,56.8a1.32,1.32,0,0,0,1.14.35c.45-.15.54-.69.93-1.66a8.45,8.45,0,0,1,.91-1.9c.87-1.19,1.84-1.09,2.91-2.56.45-.62.41-.82.36-.91-.2-.3-1.12,0-1.45.08-1.93.58-5.43,2.53-5.4,5A2.14,2.14,0,0,0,136.53,56.8Z"/><circle class="cls-4" cx="193.69" cy="10.74" r="10.74"/><path class="cls-4" d="M204.85,24.83H182.54a6.78,6.78,0,0,0-6.78,6.77V64.44a7.2,7.2,0,0,0,.08,1c.49,3.1,5.14,2.65,5.14-.49V36.15a1,1,0,0,1,2,0V67.6h21.5V36.15a1,1,0,1,1,2,0V64.67c0,3.26,4.92,3.55,5.17.3,0-.17,0-.35,0-.53V31.6A6.77,6.77,0,0,0,204.85,24.83Z"/><path class="cls-4" d="M199.35,56.47H188A5.08,5.08,0,0,0,183,61.55V94.17A5.07,5.07,0,0,0,188,99.24h.37a4.48,4.48,0,0,0,4.48-4.48V69.27a1,1,0,0,1,2,0V94.76a4.49,4.49,0,0,0,4.49,4.48h0a5.08,5.08,0,0,0,5.08-5.07V61.55A5.09,5.09,0,0,0,199.35,56.47Z"/><path class="cls-5" d="M195.12,56.8a1.32,1.32,0,0,0,1.14.35c.44-.15.53-.69.92-1.66a8.87,8.87,0,0,1,.92-1.9C199,52.4,199.94,52.5,201,51c.45-.62.41-.82.35-.91-.19-.3-1.11,0-1.44.08-1.93.58-5.43,2.53-5.41,5A2.16,2.16,0,0,0,195.12,56.8Z"/><circle class="cls-4" cx="252.28" cy="10.74" r="10.74"/><path class="cls-4" d="M263.43,24.83H241.12a6.77,6.77,0,0,0-6.77,6.77V64.44a7.2,7.2,0,0,0,.08,1c.48,3.1,5.14,2.65,5.14-.49V36.15a1,1,0,1,1,2,0V67.6H263V36.15a1,1,0,0,1,2,0V64.67c0,3.26,4.92,3.55,5.17.3,0-.17,0-.35,0-.53V31.6A6.78,6.78,0,0,0,263.43,24.83Z"/><path class="cls-4" d="M257.94,56.47H246.62a5.09,5.09,0,0,0-5.08,5.08V94.17a5.08,5.08,0,0,0,5.08,5.07H247a4.49,4.49,0,0,0,4.48-4.48V69.27a1,1,0,0,1,2,0V94.76a4.49,4.49,0,0,0,4.49,4.48h0A5.07,5.07,0,0,0,263,94.17V61.55A5.08,5.08,0,0,0,257.94,56.47Z"/></g></g></svg>