<?xml version="1.0" encoding="UTF-8"?>
<svg id="Layer_2" data-name="Layer 2" xmlns="http://www.w3.org/2000/svg" viewBox="0 0 2163.82 1521.64">
  <defs>
    <style>
      .cls-1 {
        fill: #fff;
      }

      .cls-2 {
        fill: #ffb419;
      }

      .cls-3 {
        fill: #4b6496;
      }

      .cls-4 {
        fill: #ffe7b3;
      }

      .cls-5 {
        fill: #f6921e;
      }
    </style>
  </defs>
  <g id="data4">
    <g>
      <path class="cls-3" d="M2163.82,0C1211.4,0,1089.87,68.59,813.74,560.7c-27.92,49.76-201.56,31.27-201.56,31.27,0,0-12.63,85.76,3.19,83.07C1045.15,602.03,260.34,1467.49,0,1521.64H2163.82V0Z"/>
      <g>
        <g>
          <g>
            <path class="cls-3" d="M304.46,434.11c0-12.83,.03-25.66-.04-38.49,0-1.7,.58-3.03,1.48-4.3,.95-1.34,3.86-1.91,5.31-1.22,1.25,.6,2.58,1.02,3.84,1.6,1.03,.48,2,1.09,3,1.63,.53,.29,1.07,.58,1.61,.86,1.24,.65,2.48,1.31,3.74,1.92,.64,.31,1.35,.48,2,.79,1,.47,1.98,.98,2.97,1.49,.62,.32,1.2,.72,1.83,1.01,1.53,.73,3.09,1.38,4.61,2.12,2.17,1.06,4.3,2.18,6.46,3.26,1.33,.66,2.68,1.29,4.01,1.95,2.15,1.07,4.3,2.15,6.42,3.26,1.48,.77,2.89,1.65,4.38,2.41,1.06,.54,2.22,.9,3.28,1.43,1.08,.54,2.1,1.19,3.16,1.78,.48,.27,.98,.52,1.49,.74,1.12,.49,2.29,.88,3.38,1.43,1.48,.74,2.88,1.63,4.35,2.39,1.1,.57,2.4,.84,3.37,1.57,2.13,1.62,4.55,1.29,6.82,1.04,8.24-.91,16.49-.23,24.72-.49,3.13-.1,6.28,.17,9.38-.12,11.39-1.07,22.81-.13,34.2-.75,1.45-.08,2.9-.34,4.34-.29,2.52,.09,5.04,.27,7.54,.6,1.16,.15,2.26,.71,3.38,1.12,1.12,.41,2.25,.79,3.31,1.32,1.39,.7,2.76,1.46,4.06,2.31,2.18,1.43,3.92,3.34,5.65,5.27,2.06,2.31,4.17,4.57,6.21,6.9,1.89,2.16,3.7,4.4,5.57,6.58,1.1,1.29,2.24,2.54,3.37,3.8,1.41,1.58,2.93,3.07,4.2,4.74,1.1,1.46,1.95,3.12,2.87,4.71,.64,1.09,1.25,2.19,1.8,3.33,.3,.61,.5,1.3,.63,1.97,.3,1.49,.57,2.99,.77,4.5,.22,1.57,.5,3.15,.47,4.73-.03,1.75-.2,3.54-.62,5.23-.5,1.96-.97,3.91-1.24,5.92-.17,1.28-.75,2.49-1.03,3.76-.17,.75-.41,1.5,.27,2.3,.51,.6,.6,1.57,.86,2.38,.38,1.19,.79,2.38,1.11,3.58,.14,.53,.12,1.1,.12,1.66,.02,1.18,.15,2.39-.03,3.54-.25,1.61-.83,3.17-1.1,4.78-.21,1.26-.78,2.33-1.36,3.41-.49,.92-.97,1.88-1.6,2.7-.89,1.14-1.94,2.16-2.88,3.27-.15,.18-.07,.57-.05,.85,0,.1,.15,.2,.25,.29,1.63,1.5,1.66,1.53,3.21-.01,2.12-2.11,4.15-4.32,6.31-6.39,1.44-1.38,2.93-2.77,4.61-3.81,1.52-.94,3.36-1.38,5.02-2.11,3.01-1.32,6.18-1.41,9.35-1.16,1.65,.13,3.28,.65,4.88,1.12,1.31,.38,2.65,.79,3.82,1.45,1.66,.94,3.28,2.02,4.71,3.27,1.32,1.15,2.45,2.54,3.51,3.94,.75,.99,1.31,2.14,1.86,3.27,.61,1.24,1.11,2.53,1.66,3.8,.04,.09,.1,.18,.12,.28,.73,3.09,1.05,6.22,.62,9.36-.23,1.71-.58,3.48-1.28,5.03-1.39,3.04-2.94,5.96-5.52,8.32-3.43,3.14-6.55,6.62-9.83,9.92-1.93,1.94-3.95,3.79-5.88,5.73-3.3,3.33-6.54,6.73-9.84,10.06-3.42,3.44-6.88,6.85-10.33,10.25-.89,.88-1.74,1.86-2.78,2.52-1.02,.64-2.15,.94-3.53,.7-2.02-.36-3.07-1.82-4.36-3.04-1.96-1.84-3.86-3.75-5.74-5.66-2.03-2.06-3.99-4.18-6.02-6.22-2.67-2.69-5.4-5.32-8.08-7.99-2.1-2.09-4.17-4.2-6.27-6.29-2.73-2.71-5.49-5.38-8.19-8.12-1.55-1.57-3.01-3.24-4.48-4.88-.22-.24-.21-.67-.42-.93-.5-.6-1.04-1.03-1.97-.88-2.1,.34-4.27,.37-6.33,.86-3.14,.74-6.28,1.41-9.5,1.1-1.46-.14-2.92-.63-4.29-1.17-2.28-.9-4.53-2.04-7.02-1.28-1.48,.45-2.93,.61-4.43,.62-1.67,0-3.35,.08-5-.12-1.07-.13-2.1-.66-3.11-1.08-.99-.41-2.02-.79-2.9-1.39-1.28-.87-2.53-1.83-3.6-2.93-1.15-1.19-2.05-2.61-3.1-3.91-.18-.22-.53-.34-.82-.41-.3-.07-.62,0-.93-.02-2.68-.22-5.38-.37-8.05-.72-1.3-.17-2.56-.71-3.83-1.07-.13-.04-.27-.07-.41-.07-1.56-.04-2.94-.69-4.37-1.21-1.4-.51-2.84-.9-4.21-1.47-1.26-.52-2.46-1.2-3.69-1.8-.49-.24-.98-.5-1.48-.71-2.33-.95-4.39-2.34-6.38-3.84-1.79-1.35-3.69-2.57-5.36-4.05-1.98-1.76-3.82-3.71-5.63-5.65-1.92-2.05-3.77-4.17-5.58-6.32-1.22-1.44-2.34-2.96-3.45-4.49-.73-1-1.78-1.4-2.87-1.8-.72-.27-1.42-.57-2.12-.88-1.27-.57-2.53-1.14-3.78-1.74-1.25-.6-2.47-1.26-3.73-1.85-.65-.3-1.34-.49-2.01-.74-.55-.21-1.1-.43-1.63-.68-1.68-.82-3.32-1.69-5.02-2.47-1.21-.56-2.5-.94-3.72-1.49-1.14-.51-2.22-1.18-3.35-1.71-1.16-.54-2.39-.94-3.55-1.47-1.22-.55-2.39-1.2-3.59-1.78-.57-.27-1.15-.5-1.73-.75-1.66-.72-3.37-1.33-4.95-2.2-.74-.41-1.27-1.19-1.75-2.02-.79-1.39-.51-2.78-.51-4.17-.04-12.41-.02-24.82-.02-37.24Zm188.12,46.25c.34-1.56,.64-2.88,.91-4.2,.17-.84,.38-1.68,.44-2.53,.07-1,.11-2.02-.05-3-.23-1.39-.61-2.76-1.03-4.11-.39-1.24-.75-2.54-1.43-3.63-.98-1.59-2.16-3.07-3.38-4.49-2.22-2.56-4.58-5.01-6.81-7.57-2.12-2.43-4.11-4.97-6.22-7.41-1.85-2.15-3.69-4.32-5.71-6.3-1.41-1.39-3.05-2.59-4.73-3.65-1.06-.66-2.36-1.06-3.6-1.29-1.82-.35-3.69-.59-5.54-.6-2.31-.02-4.63,.24-6.95,.35-10.7,.51-21.41-.11-32.12,.63-11.41,.78-22.89-.35-34.31,.69-1.97,.18-3.96,.06-5.94,.06-.35,0-.73,.05-1.03-.08-1.25-.54-2.47-1.15-3.71-1.72-1.59-.74-3.21-1.44-4.78-2.23-1.9-.95-3.76-2-5.65-2.98-1.72-.89-3.45-1.77-5.19-2.62-.65-.32-1.35-.52-2.01-.79-.53-.22-1.07-.44-1.58-.71-1.08-.59-2.12-1.25-3.21-1.81-1.06-.54-2.19-.94-3.25-1.48-1.48-.76-2.9-1.63-4.38-2.37-1.98-.98-4.01-1.86-6.01-2.82-1.71-.82-3.39-1.69-5.08-2.53-.5-.25-1.01-.47-1.51-.72-1.63-.83-3.25-1.69-4.88-2.52-.57-.29-1.18-.52-1.75-.82-1.04-.54-2.05-1.14-3.09-1.67-1.28-.65-2.58-1.25-3.99-1.93-.03,.48-.1,.97-.1,1.47,0,21.28,0,42.56-.02,63.83,0,1.03,.52,1.44,1.36,1.73,.73,.25,1.47,.52,2.17,.85,1.66,.77,3.29,1.6,4.94,2.38,.54,.26,1.09,.48,1.64,.7,.7,.27,1.43,.46,2.1,.77,1.28,.59,2.53,1.24,3.79,1.85,1.23,.6,2.46,1.19,3.69,1.77,.58,.28,1.16,.56,1.76,.79,.75,.28,1.55,.45,2.27,.79,1.15,.53,2.23,1.22,3.38,1.74,1.72,.77,3.47,1.43,5.21,2.15,.54,.22,1.06,.47,1.58,.73,.73,.36,1.44,.76,2.17,1.12,1.17,.58,2.51,.94,3.47,1.76,1.31,1.11,2.36,2.53,3.47,3.86,2.18,2.61,4.35,5.24,6.49,7.89,2.25,2.79,4.75,5.3,7.67,7.38,1.33,.95,2.66,1.9,4.01,2.81,1.21,.81,2.41,1.64,3.68,2.33,1.08,.59,2.26,1.01,3.4,1.49,1.92,.81,3.81,1.72,5.78,2.39,1.7,.58,3.47,.95,5.24,1.28,1.69,.32,3.41,.57,5.12,.65,3.18,.16,6.37,.19,9.51-.53,1.38-.32,2.79-.48,4.17-.77,.71-.15,1.42-.36,2.09-.64,1.36-.57,2.7-1.2,4.04-1.84,1.17-.55,2.33-1.13,3.49-1.71,1.01-.5,2.01-1.02,3.02-1.52,.7-.35,1.42-.67,2.13-1.01,1.12-.55,2.24-1.12,3.36-1.67,1.03-.5,2.1-.9,3.08-1.48,.9-.53,1.74-1.18,2.84-1.12,2.22,.11,4.43-.19,6.67,.51,1.69,.54,3.57,.06,5.39,.63,1.74,.55,3.67,.5,5.52,.72,1.67,.2,3.34,.43,5.02,.62,2.37,.27,4.75,.51,7.12,.76,2.61,.27,5.22,.54,7.83,.81,.07,0,.14,.02,.21,.03,2.18,.36,4.36,.79,6.55,1.07,1.25,.16,2.46-.11,3.72-.46,1.45-.4,2.73-1.01,3.87-1.88,1.45-1.09,2.87-2.27,3.46-4.13,.32-1,.92-1.96,1.05-2.97,.35-2.76-.26-5.3-1.72-7.76-1.12-1.89-2.7-3.13-4.48-4.1-1.34-.73-2.95-.99-4.47-1.34-1.51-.35-3.05-.54-4.57-.8-.24-.04-.48-.07-.72-.13-1.34-.36-2.66-.79-4.02-1.08-1.55-.33-3.12-.52-4.69-.78-.1-.02-.2-.06-.3-.08-1.31-.37-2.61-.8-3.94-1.08-1.54-.32-3.11-.51-4.66-.76-.1-.02-.19-.07-.29-.1-1.35-.36-2.69-.77-4.06-1.06-1.64-.35-3.31-.59-4.96-.88-.14-.02-.27-.08-.4-.12-1.3-.35-2.58-.77-3.89-1.03-1.63-.32-3.28-.51-4.92-.75-.07-.01-.14-.03-.2-.05-1.26-.37-2.5-.78-3.77-1.1-1.29-.32-2.64-.43-3.89-.85-1.52-.51-2.69-1.74-3.07-3.18-.34-1.28-.57-2.82,.48-4.13,.88-1.09,1.64-2.16,3.2-2.43,.83-.14,1.57-.22,2.4-.02,1.23,.3,2.48,.5,3.73,.71,1.53,.27,3.07,.51,4.6,.77,.1,.02,.19,.07,.29,.1,.67,.19,1.33,.38,2,.57,.06-.11,.13-.22,.19-.33-.32-.91-.6-1.83-.95-2.73-.31-.78-.71-1.52-1.02-2.3-.33-.83-.48-1.75-.9-2.52-.81-1.5-.51-4.49,.62-5.74,.82-.91,1.89-1.21,2.97-1.68,1.51-.65,2.61,.08,3.68,.62,2.16,1.08,2.52,3.45,3.37,5.44,.32,.76,.46,1.59,.78,2.36,.55,1.33,1.21,2.61,1.75,3.95,.56,1.4,.99,2.86,1.56,4.26,.5,1.22,1.4,1.86,2.84,1.9,1.32,.04,2.63,.42,3.94,.68,.17,.03,.32,.38,.44,.36,.34-.05,.9-.15,.96-.35,.32-1.15,.48-2.34,.76-3.5,.24-.99,.48-2,.93-2.9,.31-.61,.92-1.11,1.49-1.54,1.21-.89,2.64-.66,4.03-.72,1.45-.07,4.07,2.64,3.95,3.99-.19,2.12-.45,4.22-.71,6.33-.02,.19-.23,.36-.51,.78,1.22,.28,2.28,.52,3.33,.76,.3,.07,.61,.13,.91,.2,1.6,.36,3.2,.68,4.79,1.09,1.18,.31,2.33,.76,3.5,1.12,.95,.3,1.9,.56,2.82,.83Zm-27.09,39.01c-.35-.03-.94-.12-1.53-.1-.36,.01-.88,.08-1.03,.32-1.09,1.64-1.76,3.49-1.94,5.41-.14,1.6-.13,3.2,.41,4.87,.61,1.9,1.36,3.62,2.61,5.11,1.08,1.29,2.29,2.47,3.47,3.68,1.57,1.61,3.14,3.22,4.74,4.81,1.89,1.88,3.8,3.73,5.69,5.61,1.59,1.59,3.14,3.22,4.74,4.81,1.88,1.88,3.81,3.72,5.69,5.61,1.59,1.59,3.15,3.22,4.73,4.82,1.47,1.49,2.92,3.01,4.47,4.42,.39,.35,.74,1.19,1.52,.78,.37-.2,.64-.61,.95-.92,1.57-1.61,3.13-3.25,4.72-4.84,1.88-1.88,3.82-3.71,5.7-5.59,1.59-1.59,3.13-3.25,4.72-4.84,1.88-1.88,3.82-3.7,5.71-5.58,2.03-2.02,4.02-4.08,6.02-6.13,2.47-2.54,5.24-4.77,7.33-7.71,1.32-1.85,1.97-3.85,2.28-5.97,.35-2.34-.05-4.65-1.23-6.75-.61-1.1-1.28-2.16-1.99-3.2-.61-.9-1.6-1.39-2.42-2.06-1.8-1.46-3.85-2.09-6.01-2.28-1.54-.13-3.13,.3-4.7,.43-1.93,.16-3.48,1.26-4.87,2.35-1.98,1.56-3.65,3.53-5.45,5.32-1.22,1.21-2.46,2.42-3.68,3.64-1.15,1.15-2.45,2.2-3.42,3.49-1.57,2.1-5.67,2.34-7.35,.58-2.57-2.69-5.23-5.3-7.86-7.94-.64-.64-1.38-.96-2.32-.66-.63,.2-1.29,.43-1.94,.46-1.47,.07-2.9-.05-4.36-.46-1.6-.46-3.33-.48-5.01-.66-2.71-.29-5.43-.54-8.38-.84Zm-15.07,8.51c.03-.23,.08-.4,.06-.56-.29-2.29,.44-4.48,.67-6.72,.02-.16,.11-.31,.16-.47,.23-.81,.45-1.63,.69-2.5-2.75-.3-5.19-.58-7.64-.83-.59-.06-1.29,.13-1.75-.13-1.18-.68-2.43-.38-3.65-.48-.26-.02-.55,.06-.78,.18-1.05,.55-2.1,1.08-3.1,1.7-.79,.5-1.73,.98-2.18,1.73-.97,1.62-1.6,3.28-.87,5.39,.61,1.76,1.65,3.02,3.04,3.93,1.55,1.02,3.43,.9,5.22,.57,1.71-.32,3.4-.78,5.11-1.09,1.65-.3,3.32-.48,5.01-.71Zm-35.2-1c2.09,1.54,4.31,1.01,6.54,.98,0-1.15,.14-2.23-.82-2.9-1.91,.64-3.75,1.26-5.71,1.92Z"/>
            <path class="cls-3" d="M617.37,633.36c0,12.1-.01,24.2,.01,36.29,0,1.89-.63,3.42-2.14,4.5-.99,.71-2.1,1.11-3.41,1.1-7.93-.05-15.85-.02-23.78-.03-1.89,0-3.64,.51-5.38,1.18-.72,.28-1.51,.39-2.27,.57-1.24,.29-2.5,.55-3.73,.88-1.24,.33-2.45,.76-3.69,1.11-.88,.25-1.77,.47-2.66,.68-1.19,.28-2.4,.5-3.58,.82-1.24,.33-2.46,.76-3.68,1.14-.13,.04-.26,.08-.4,.11-1.3,.25-2.61,.43-3.89,.76-1.05,.27-2.06,.71-3.09,1.08-.07,.02-.13,.04-.2,.05-1.26,.25-2.53,.45-3.77,.77-1.21,.31-2.38,.75-3.57,1.1-.85,.25-1.72,.46-2.59,.66-1.26,.3-2.54,.54-3.79,.89-1.16,.32-2.28,.74-3.42,1.12-.07,.02-.13,.05-.2,.06-1.26,.24-2.54,.43-3.79,.73-1.1,.26-2.18,.64-3.26,.97-.13,.04-.24,.14-.38,.17-1.29,.29-2.6,.52-3.88,.87-1.18,.32-2.32,.76-3.48,1.13-.2,.06-.41,.05-.61,.11-1.42,.39-2.83,.79-4.25,1.19-.07,.02-.13,.04-.2,.05-1.33,.24-2.66,.43-3.97,.74-1.1,.26-2.16,.67-3.23,1.01-.13,.04-.25,.12-.38,.15-2.44,.5-4.9,.93-7.33,1.5-5.25,1.24-10.55,.62-15.83,.48-1.54-.04-3.06-.69-4.59-1.06-1.26-.3-2.53-.53-3.76-.91-.93-.29-1.8-.78-2.71-1.14-.7-.27-1.44-.44-2.13-.73-1.03-.44-2.06-.92-3.05-1.43-1.15-.6-2.28-1.26-3.41-1.9-.8-.46-1.61-.92-2.39-1.43-.76-.5-1.44-1.12-2.21-1.61-1.22-.78-2.5-1.47-3.73-2.25-1.57-.99-3.12-2.02-4.67-3.04-1.97-1.29-3.9-2.62-5.9-3.87-1.57-.98-3.23-1.82-4.79-2.81-1.51-.96-2.91-2.06-4.4-3.05-1.7-1.13-3.42-2.22-5.17-3.28-1.57-.95-3.22-1.77-4.76-2.76-1.48-.95-2.84-2.08-4.31-3.05-1.16-.76-2.42-1.36-3.6-2.1-1.21-.75-2.35-1.6-3.56-2.36-.91-.57-1.89-1.03-2.79-1.61-1.45-.92-2.86-1.9-4.3-2.82-.94-.61-1.92-1.16-2.87-1.76-.77-.48-1.52-1-2.29-1.5-.91-.59-1.84-1.16-2.74-1.77-.9-.6-1.75-1.27-2.66-1.84-1.1-.7-2.27-1.29-3.36-2-1.92-1.24-3.79-2.55-5.72-3.78-.87-.56-1.84-.97-2.74-1.5-.79-.46-1.52-1-2.29-1.49-.95-.61-1.93-1.18-2.88-1.8-1.07-.69-2.11-1.43-3.18-2.12-1.27-.82-2.61-1.54-3.82-2.43-1.33-.98-2.71-1.96-3.78-3.2-1.47-1.69-2.71-3.59-3.94-5.47-.44-.67-.52-1.57-.77-2.36-.37-1.19-.76-2.37-1.12-3.56-.08-.26-.08-.55-.08-.83-.01-1.29-.03-2.57-.02-3.86,.02-1.94,.41-3.8,1.19-5.58,.69-1.57,1.2-3.24,2.1-4.68,.96-1.53,2.16-2.96,3.48-4.21,1.32-1.25,2.84-2.35,4.42-3.25,1.2-.69,2.61-1.07,3.97-1.42,1.71-.44,3.47-.73,5.21-1.02,.45-.07,.94,.13,1.41,.2,2.1,.3,4.24,.47,6.3,.95,1.6,.38,3.11,1.16,4.67,1.74,.63,.24,1.28,.43,1.92,.63,1.65,.49,3.32,.94,4.95,1.48,.97,.32,1.89,.8,2.86,1.13,.95,.32,1.94,.5,2.89,.81,.98,.32,1.94,.75,2.91,1.11,.66,.25,1.33,.48,2.01,.68,1.65,.5,3.32,.95,4.95,1.48,.97,.32,1.89,.8,2.86,1.13,.95,.32,1.94,.51,2.89,.82,.98,.32,1.94,.74,2.91,1.1,.66,.25,1.33,.48,2.01,.68,1.65,.5,3.31,.97,4.96,1.47,.28,.09,.54,.29,.82,.35,.48,.11,1,.26,1.45,.16,.21-.05,.32-.65,.44-1.01,.36-1.11,.59-2.27,1.07-3.31,.68-1.47,1.45-2.92,2.37-4.24,.78-1.11,1.79-2.07,2.77-3.01,1.18-1.12,2.59-1.91,3.98-2.77,3.36-2.08,6.97-2.6,10.79-2.59,12.27,.03,24.54,.01,36.82,.01,3.55,0,7.09-.08,10.64,.04,1.41,.05,2.31-.6,3.26-1.39,1.55-1.29,3.11-2.56,4.71-3.78,1.05-.8,2.16-1.53,3.29-2.23,.96-.59,1.98-1.09,2.98-1.63,1.14-.61,2.28-1.23,3.43-1.81,.51-.25,1.05-.43,1.59-.62,.91-.31,1.83-.59,2.73-.91,1.01-.37,2-.81,3.02-1.15,.8-.27,1.64-.45,2.47-.64,1.1-.25,2.19-.51,3.3-.68,4.82-.73,9.66-.91,14.52-.6,1.65,.11,3.3,.33,4.93,.63,1.84,.34,3.67,.73,5.46,1.26,1.59,.47,3.12,1.15,4.67,1.76,1.64,.65,3.3,1.27,4.89,2.02,1.18,.55,2.26,1.3,3.39,1.95,1.13,.66,2.32,1.24,3.4,1.98,1.82,1.27,3.57,2.63,5.34,3.97,.19,.15,.29,.41,.46,.6,.97,1.12,2.22,1.26,3.63,1.24,6.99-.06,13.98,0,20.96-.05,1.95-.01,3.63,.42,4.79,2.08,.62,.89,1.06,1.83,1.06,3-.04,10.71-.02,21.41-.02,32.12,0,1.49,0,2.99,0,4.48Zm-10.47-31.24h-1.42c-6.29,0-12.59,.05-18.88-.05-1.08-.02-2.31-.39-3.2-1-1.6-1.1-2.98-2.51-4.47-3.77-1.13-.96-2.25-1.95-3.46-2.8-.91-.64-1.96-1.06-2.94-1.6-1.11-.6-2.19-1.27-3.33-1.82-1.07-.51-2.19-.9-3.29-1.35-.97-.39-1.9-.88-2.9-1.17-1.21-.35-2.47-.53-3.7-.78-1.77-.36-3.53-.89-5.33-1.05-4.37-.39-8.72-.12-13.05,.57-.14,.02-.27,.06-.4,.09-1.27,.37-2.55,.73-3.82,1.1-.73,.21-1.45,.45-2.17,.67-.82,.25-1.69,.4-2.46,.75-1.14,.52-2.2,1.22-3.34,1.75-1.92,.9-3.61,2.14-5.39,3.25-2.34,1.45-4.18,3.44-6.23,5.19-1.53,1.3-3.16,2.03-5.22,2.02-16.58-.03-33.17-.02-49.75-.01-1.11,0-2.23,0-3.33,.12-1.43,.14-2.68,.82-3.8,1.68-1.4,1.08-2.82,2.18-3.39,4-.32,1.05-.95,2.04-1.07,3.1-.24,2.13,.07,4.16,1.12,6.18,1.3,2.52,3.28,4.11,5.76,5.05,1.41,.54,3.04,.68,4.57,.69,16.79,.05,33.58,.04,50.38,.02,2.44,0,4.38,.58,5.39,3.14,.64,1.62,.69,3.57-.32,4.79-1.44,1.73-3.24,2.54-5.52,2.53-15.02-.04-30.04-.02-45.06-.02-4.13,0-8.29,.23-12.28-1.19-1.3-.46-2.71-.74-3.84-1.46-1.57-.99-3.02-2.23-4.34-3.54-1.19-1.17-2.09-2.62-3.2-3.87-.91-1.02-.87-2.75-2.47-3.22-.57-.17-1.15-.32-1.72-.53-.95-.34-1.87-.76-2.82-1.07-1.64-.53-3.3-.98-4.95-1.49-.67-.2-1.34-.43-2-.67-.98-.36-1.94-.76-2.93-1.1-.97-.33-1.97-.57-2.94-.89-.98-.33-1.93-.76-2.92-1.08-1.61-.52-3.24-.98-4.85-1.47-.67-.21-1.34-.43-2-.67-.98-.36-1.94-.77-2.93-1.1-.97-.33-1.97-.57-2.94-.89-.95-.32-1.87-.76-2.83-1.06-1.64-.53-3.3-.98-4.95-1.49-.7-.21-1.4-.45-2.09-.7-.91-.34-1.8-.75-2.73-1.06-.97-.33-1.96-.6-2.95-.85-1.35-.34-2.74-.97-4.06-.86-2.31,.19-4.68,.62-6.49,2.3-1.13,1.05-2.4,2.01-2.91,3.58-.23,.71-.42,1.45-.76,2.1-.93,1.81-.55,3.73-.29,5.55,.18,1.23,.96,2.43,1.69,3.5,.7,1.04,1.55,2.05,2.54,2.79,1.43,1.07,3.07,1.88,4.59,2.84,1.28,.81,2.51,1.7,3.79,2.51,1.49,.95,3.02,1.85,4.51,2.8,1.57,1,3.11,2.05,4.68,3.03,1.5,.94,3.05,1.8,4.55,2.74,.9,.57,1.71,1.28,2.61,1.84,1.49,.94,3.04,1.79,4.52,2.74,1.94,1.24,3.82,2.56,5.75,3.8,1.13,.73,2.35,1.33,3.47,2.07,1.47,.98,2.85,2.1,4.34,3.04,1.56,1,3.22,1.83,4.8,2.8,1.28,.79,2.5,1.69,3.76,2.51,1.54,1.01,3.1,1.99,4.66,2.97,1.25,.78,2.52,1.52,3.76,2.32,.81,.52,1.56,1.14,2.35,1.68,.71,.48,1.45,.93,2.2,1.37,.94,.56,1.92,1.05,2.84,1.64,1.48,.96,2.92,1.99,4.4,2.96,1.21,.79,2.46,1.52,3.68,2.3,1.16,.74,2.29,1.52,3.46,2.27,.95,.6,1.92,1.17,2.87,1.76,.82,.51,1.61,1.06,2.43,1.56,.88,.54,1.8,1,2.67,1.56,1.21,.77,2.37,1.64,3.59,2.39,1.18,.73,2.42,1.38,3.64,2.05,1.13,.61,2.23,1.3,3.42,1.76,1.6,.61,3.28,1.03,4.92,1.52,2.1,.62,4.21,1.24,6.43,1.22,4.03-.04,8.09,.51,12.08-.63,2.23-.63,4.54-1.01,6.81-1.51,.09-.02,.17-.11,.27-.14,1.18-.35,2.36-.74,3.56-1.03,1.24-.3,2.51-.45,3.75-.75,1.5-.36,2.98-.82,4.47-1.23,.17-.05,.33-.09,.5-.14,1.3-.38,2.59-.78,3.9-1.12,1.21-.32,2.45-.56,3.67-.86,.75-.18,1.51-.37,2.25-.6,1.2-.36,2.37-.81,3.58-1.13,1.27-.33,2.57-.54,3.85-.82,.86-.19,1.71-.4,2.55-.65,1.98-.59,3.95-1.26,5.94-1.81,1.2-.33,2.45-.5,3.68-.74,.13-.03,.26-.08,.4-.12,1.17-.36,2.34-.76,3.52-1.07,1.21-.32,2.44-.53,3.66-.81,.86-.2,1.7-.44,2.55-.67,1.37-.38,2.74-.78,4.11-1.15,1.11-.29,2.24-.53,3.36-.81,.82-.2,1.65-.4,2.46-.64,1.23-.36,2.44-.81,3.68-1.14,1.23-.33,2.49-.54,3.73-.82,.8-.18,1.63-.29,2.37-.61,1.85-.79,3.75-1.22,5.77-1.21,6.19,.02,12.38,0,18.56,0,.4,0,.8,0,1.25,0v-62.69Z"/>
            <path class="cls-3" d="M492.58,480.36c-.92-.27-1.88-.53-2.82-.83-1.17-.36-2.32-.81-3.5-1.12-1.58-.41-3.19-.73-4.79-1.09-.3-.07-.61-.13-.91-.2-1.05-.24-2.1-.48-3.33-.76,.28-.41,.49-.58,.51-.78,.26-2.11,.53-4.22,.71-6.33,.12-1.35-2.5-4.06-3.95-3.99-1.39,.06-2.82-.17-4.03,.72-.57,.42-1.19,.92-1.49,1.54-.45,.9-.68,1.91-.93,2.9-.29,1.16-.45,2.35-.76,3.5-.05,.2-.62,.3-.96,.35-.13,.02-.28-.33-.44-.36-1.31-.26-2.62-.64-3.94-.68-1.44-.04-2.33-.68-2.84-1.9-.58-1.4-1-2.86-1.56-4.26-.54-1.33-1.2-2.62-1.75-3.95-.32-.76-.45-1.6-.78-2.36-.85-1.99-1.21-4.36-3.37-5.44-1.07-.53-2.17-1.26-3.68-.62-1.08,.46-2.15,.76-2.97,1.68-1.13,1.25-1.42,4.24-.62,5.74,.42,.78,.58,1.69,.9,2.52,.31,.78,.71,1.52,1.02,2.3,.35,.9,.64,1.82,.95,2.73-.06,.11-.13,.22-.19,.33-.67-.19-1.33-.38-2-.57-.1-.03-.19-.08-.29-.1-1.53-.26-3.07-.5-4.6-.77-1.25-.22-2.5-.41-3.73-.71-.82-.2-1.57-.12-2.4,.02-1.56,.26-2.32,1.33-3.2,2.43-1.06,1.31-.82,2.85-.48,4.13,.38,1.44,1.56,2.67,3.07,3.18,1.25,.42,2.6,.53,3.89,.85,1.27,.32,2.51,.73,3.77,1.1,.07,.02,.13,.04,.2,.05,1.64,.24,3.29,.43,4.92,.75,1.31,.26,2.59,.68,3.89,1.03,.13,.04,.26,.09,.4,.12,1.65,.29,3.32,.53,4.96,.88,1.37,.29,2.71,.7,4.06,1.06,.1,.03,.19,.08,.29,.1,1.55,.25,3.12,.44,4.66,.76,1.33,.28,2.63,.71,3.94,1.08,.1,.03,.2,.07,.3,.08,1.56,.25,3.14,.45,4.69,.78,1.35,.28,2.68,.72,4.02,1.08,.23,.06,.48,.09,.72,.13,1.53,.26,3.07,.45,4.57,.8,1.52,.35,3.13,.62,4.47,1.34,1.78,.96,3.36,2.2,4.48,4.1,1.46,2.46,2.07,5,1.72,7.76-.13,1.02-.73,1.97-1.05,2.97-.59,1.86-2.01,3.03-3.46,4.13-1.15,.86-2.42,1.48-3.87,1.88-1.25,.35-2.47,.62-3.72,.46-2.19-.28-4.37-.71-6.55-1.07-.07-.01-.14-.03-.21-.03-2.61-.27-5.22-.54-7.83-.81-2.37-.25-4.75-.49-7.12-.76-1.67-.19-3.34-.42-5.02-.62-1.85-.22-3.78-.17-5.52-.72-1.82-.58-3.7-.1-5.39-.63-2.23-.71-4.44-.4-6.67-.51-1.1-.06-1.94,.59-2.84,1.12-.98,.58-2.05,.98-3.08,1.48-1.12,.55-2.24,1.12-3.36,1.67-.7,.35-1.42,.66-2.13,1.01-1.01,.5-2.01,1.02-3.02,1.52-1.16,.58-2.32,1.16-3.49,1.71-1.34,.63-2.68,1.26-4.04,1.84-.67,.28-1.38,.49-2.09,.64-1.38,.29-2.79,.45-4.17,.77-3.14,.72-6.33,.69-9.51,.53-1.71-.09-3.43-.34-5.12-.65-1.77-.33-3.54-.71-5.24-1.28-1.97-.67-3.86-1.58-5.78-2.39-1.14-.48-2.32-.9-3.4-1.49-1.27-.69-2.48-1.52-3.68-2.33-1.36-.91-2.68-1.87-4.01-2.81-2.93-2.08-5.43-4.59-7.67-7.38-2.14-2.65-4.31-5.28-6.49-7.89-1.11-1.33-2.16-2.76-3.47-3.86-.96-.81-2.3-1.18-3.47-1.76-.73-.36-1.44-.75-2.17-1.12-.52-.26-1.04-.51-1.58-.73-1.74-.72-3.49-1.39-5.21-2.15-1.16-.52-2.23-1.21-3.38-1.74-.72-.34-1.52-.5-2.27-.79-.6-.23-1.18-.51-1.76-.79-1.23-.59-2.46-1.18-3.69-1.77-1.27-.62-2.51-1.27-3.79-1.85-.68-.31-1.41-.51-2.1-.77-.55-.21-1.11-.44-1.64-.7-1.65-.79-3.28-1.61-4.94-2.38-.7-.33-1.44-.59-2.17-.85-.84-.29-1.36-.7-1.36-1.73,.02-21.28,.02-42.56,.02-63.83,0-.5,.06-.99,.1-1.47,1.41,.68,2.71,1.28,3.99,1.93,1.05,.53,2.06,1.13,3.09,1.67,.57,.3,1.18,.53,1.75,.82,1.63,.83,3.25,1.68,4.88,2.52,.5,.25,1.01,.48,1.51,.72,1.7,.84,3.38,1.71,5.08,2.53,1.99,.96,4.03,1.83,6.01,2.82,1.49,.74,2.9,1.62,4.38,2.37,1.06,.54,2.19,.94,3.25,1.48,1.09,.56,2.13,1.22,3.21,1.81,.51,.28,1.04,.49,1.58,.71,.67,.28,1.37,.48,2.01,.79,1.74,.85,3.47,1.73,5.19,2.62,1.89,.98,3.75,2.02,5.65,2.98,1.57,.79,3.19,1.48,4.78,2.23,1.24,.58,2.46,1.18,3.71,1.72,.3,.13,.69,.08,1.03,.08,1.98,0,3.98,.12,5.94-.06,11.43-1.04,22.9,.09,34.31-.69,10.71-.73,21.42-.12,32.12-.63,2.32-.11,4.63-.37,6.95-.35,1.85,.02,3.72,.26,5.54,.6,1.24,.24,2.54,.63,3.6,1.29,1.68,1.06,3.32,2.26,4.73,3.65,2.02,1.98,3.86,4.16,5.71,6.3,2.11,2.44,4.1,4.98,6.22,7.41,2.23,2.56,4.59,5,6.81,7.57,1.23,1.41,2.4,2.9,3.38,4.49,.67,1.09,1.04,2.39,1.43,3.63,.42,1.35,.8,2.72,1.03,4.11,.16,.98,.12,2,.05,3-.06,.85-.27,1.69-.44,2.53-.27,1.32-.57,2.63-.91,4.2Z"/>
            <path class="cls-2" d="M465.49,519.37c2.95,.29,5.67,.55,8.38,.84,1.68,.18,3.41,.2,5.01,.66,1.46,.42,2.9,.53,4.36,.46,.65-.03,1.31-.26,1.94-.46,.94-.3,1.68,.03,2.32,.66,2.63,2.63,5.29,5.24,7.86,7.94,1.68,1.76,5.78,1.52,7.35-.58,.97-1.29,2.26-2.34,3.42-3.49,1.22-1.22,2.45-2.42,3.68-3.64,1.8-1.79,3.47-3.75,5.45-5.32,1.39-1.09,2.94-2.19,4.87-2.35,1.57-.13,3.16-.56,4.7-.43,2.16,.19,4.21,.82,6.01,2.28,.82,.67,1.8,1.16,2.42,2.06,.71,1.04,1.38,2.1,1.99,3.2,1.17,2.1,1.57,4.41,1.23,6.75-.31,2.12-.96,4.12-2.28,5.97-2.1,2.94-4.86,5.17-7.33,7.71-2,2.05-3.99,4.1-6.02,6.13-1.88,1.88-3.82,3.7-5.71,5.58-1.6,1.59-3.13,3.25-4.72,4.84-1.88,1.88-3.82,3.71-5.7,5.59-1.6,1.59-3.15,3.23-4.72,4.84-.31,.32-.57,.73-.95,.92-.78,.41-1.13-.43-1.52-.78-1.55-1.41-2.99-2.93-4.47-4.42-1.58-1.6-3.14-3.23-4.73-4.82-1.88-1.88-3.8-3.73-5.69-5.61-1.59-1.59-3.14-3.22-4.74-4.81-1.88-1.88-3.8-3.73-5.69-5.61-1.59-1.59-3.17-3.19-4.74-4.81-1.17-1.21-2.38-2.39-3.47-3.68-1.26-1.49-2.01-3.22-2.61-5.11-.53-1.67-.55-3.27-.41-4.87,.17-1.92,.85-3.78,1.94-5.41,.16-.24,.68-.31,1.03-.32,.59-.02,1.18,.07,1.53,.1Z"/>
            <path class="cls-3" d="M450.42,527.88c-1.69,.23-3.36,.41-5.01,.71-1.71,.31-3.4,.77-5.11,1.09-1.79,.33-3.67,.45-5.22-.57-1.39-.91-2.43-2.16-3.04-3.93-.73-2.11-.1-3.76,.87-5.39,.45-.75,1.39-1.23,2.18-1.73,1-.63,2.06-1.16,3.1-1.7,.23-.12,.52-.2,.78-.18,1.22,.09,2.47-.2,3.65,.48,.46,.26,1.16,.07,1.75,.13,2.45,.26,4.89,.53,7.64,.83-.24,.87-.46,1.68-.69,2.5-.04,.16-.14,.31-.16,.47-.24,2.24-.96,4.43-.67,6.72,.02,.16-.03,.33-.06,.56Z"/>
            <path class="cls-3" d="M415.23,526.88c1.96-.66,3.81-1.28,5.71-1.92,.96,.66,.82,1.74,.82,2.9-2.23,.04-4.44,.57-6.54-.98Z"/>
            <path class="cls-3" d="M606.9,602.12v62.69c-.44,0-.85,0-1.25,0-6.19,0-12.38,.01-18.56,0-2.02,0-3.92,.42-5.77,1.21-.74,.32-1.58,.43-2.37,.61-1.24,.28-2.5,.5-3.73,.82-1.24,.33-2.45,.77-3.68,1.14-.81,.24-1.64,.44-2.46,.64-1.12,.27-2.25,.51-3.36,.81-1.38,.36-2.74,.77-4.11,1.15-.85,.23-1.7,.47-2.55,.67-1.22,.28-2.45,.5-3.66,.81-1.19,.31-2.35,.71-3.52,1.07-.13,.04-.26,.09-.4,.12-1.23,.24-2.48,.41-3.68,.74-2,.55-3.96,1.22-5.94,1.81-.84,.25-1.69,.46-2.55,.65-1.28,.29-2.58,.49-3.85,.82-1.21,.32-2.38,.76-3.58,1.13-.74,.23-1.5,.42-2.25,.6-1.22,.29-2.45,.54-3.67,.86-1.31,.34-2.6,.75-3.9,1.12-.17,.05-.33,.09-.5,.14-1.49,.42-2.97,.87-4.47,1.23-1.24,.3-2.51,.45-3.75,.75-1.2,.29-2.37,.68-3.56,1.03-.09,.03-.17,.12-.27,.14-2.27,.5-4.58,.88-6.81,1.51-4,1.13-8.05,.58-12.08,.63-2.22,.02-4.33-.6-6.43-1.22-1.65-.48-3.32-.91-4.92-1.52-1.19-.45-2.29-1.14-3.42-1.76-1.22-.66-2.46-1.32-3.64-2.05-1.22-.75-2.38-1.62-3.59-2.39-.87-.55-1.79-1.02-2.67-1.56-.82-.5-1.62-1.05-2.43-1.56-.95-.6-1.93-1.16-2.87-1.76-1.16-.74-2.3-1.52-3.46-2.27-1.22-.78-2.47-1.51-3.68-2.3-1.48-.97-2.91-2-4.4-2.96-.92-.59-1.9-1.08-2.84-1.64-.74-.44-1.48-.89-2.2-1.37-.8-.54-1.55-1.16-2.35-1.68-1.24-.8-2.51-1.54-3.76-2.32-1.56-.98-3.12-1.97-4.66-2.97-1.26-.82-2.48-1.73-3.76-2.51-1.58-.97-3.24-1.8-4.8-2.8-1.49-.95-2.87-2.07-4.34-3.04-1.12-.74-2.34-1.34-3.47-2.07-1.93-1.24-3.82-2.56-5.75-3.8-1.48-.95-3.03-1.79-4.52-2.74-.9-.57-1.71-1.28-2.61-1.84-1.5-.95-3.05-1.8-4.55-2.74-1.58-.99-3.11-2.04-4.68-3.03-1.49-.95-3.02-1.84-4.51-2.8-1.28-.82-2.51-1.71-3.79-2.51-1.52-.96-3.16-1.76-4.59-2.84-.99-.74-1.84-1.75-2.54-2.79-.72-1.07-1.51-2.27-1.69-3.5-.26-1.81-.65-3.73,.29-5.55,.34-.66,.53-1.39,.76-2.1,.51-1.57,1.78-2.53,2.91-3.58,1.82-1.68,4.19-2.11,6.49-2.3,1.32-.11,2.71,.52,4.06,.86,.99,.25,1.98,.52,2.95,.85,.92,.31,1.81,.72,2.73,1.06,.69,.26,1.39,.49,2.09,.7,1.65,.5,3.31,.96,4.95,1.49,.96,.31,1.87,.74,2.83,1.06,.97,.33,1.97,.57,2.94,.89,.99,.34,1.95,.75,2.93,1.1,.66,.24,1.33,.46,2,.67,1.62,.49,3.24,.95,4.85,1.47,.99,.32,1.94,.75,2.92,1.08,.97,.33,1.97,.56,2.94,.89,.99,.33,1.95,.74,2.93,1.1,.66,.24,1.33,.47,2,.67,1.65,.5,3.31,.96,4.95,1.49,.96,.31,1.88,.73,2.82,1.07,.56,.2,1.14,.36,1.72,.53,1.6,.47,1.56,2.21,2.47,3.22,1.11,1.25,2.02,2.7,3.2,3.87,1.33,1.31,2.77,2.55,4.34,3.54,1.13,.72,2.55,1,3.84,1.46,3.99,1.42,8.15,1.19,12.28,1.19,15.02,0,30.04-.02,45.06,.02,2.29,0,4.08-.8,5.52-2.53,1.01-1.21,.96-3.16,.32-4.79-1.01-2.56-2.95-3.14-5.39-3.14-16.79,.02-33.58,.03-50.38-.02-1.53,0-3.16-.15-4.57-.69-2.48-.95-4.46-2.53-5.76-5.05-1.04-2.02-1.36-4.05-1.12-6.18,.12-1.06,.74-2.05,1.07-3.1,.57-1.82,1.98-2.92,3.39-4,1.11-.86,2.36-1.54,3.8-1.68,1.1-.11,2.22-.12,3.33-.12,16.58,0,33.17-.02,49.75,.01,2.05,0,3.69-.72,5.22-2.02,2.06-1.75,3.89-3.74,6.23-5.19,1.78-1.11,3.47-2.35,5.39-3.25,1.14-.53,2.19-1.24,3.34-1.75,.78-.35,1.64-.5,2.46-.75,.73-.22,1.44-.46,2.17-.67,1.27-.38,2.54-.74,3.82-1.1,.13-.04,.27-.07,.4-.09,4.33-.68,8.69-.96,13.05-.57,1.79,.16,3.55,.69,5.33,1.05,1.24,.25,2.49,.44,3.7,.78,1,.29,1.93,.77,2.9,1.17,1.1,.45,2.22,.83,3.29,1.35,1.14,.55,2.22,1.22,3.33,1.82,.98,.53,2.04,.96,2.94,1.6,1.21,.85,2.32,1.85,3.46,2.8,1.49,1.26,2.87,2.67,4.47,3.77,.89,.61,2.12,.99,3.2,1,6.29,.09,12.58,.05,18.88,.05h1.42Z"/>
          </g>
          <path class="cls-2" d="M546.2,520.34c-.02-.1-.08-.19-.12-.28-.55-1.27-1.05-2.56-1.66-3.8-.55-1.13-1.11-2.28-1.86-3.27-1.06-1.4-2.19-2.79-3.51-3.94-1.44-1.25-3.06-2.32-4.71-3.27-1.17-.67-2.51-1.07-3.82-1.45-1.6-.47-3.23-.99-4.88-1.12-3.17-.25-6.34-.15-9.35,1.16-1.66,.73-3.5,1.16-5.02,2.11-1.68,1.04-3.17,2.43-4.61,3.81-2.16,2.07-4.19,4.28-6.31,6.39-1.55,1.54-1.58,1.51-3.21,.01-.09-.09-.24-.19-.25-.29-.02-.27-.08-.62,.03-.81-1.75,.47-3.58,.53-5.37,.43-1.03-.12-2.06-.27-3.09-.43,.36,.06,.19,.07-.54,.02-5.59,.62-11.65,.27-17.19-1.22-5.86-.16-11.89-.54-17.6-2.01-.08,.64-.2,1.13-.37,1.64-.13,1.25-.47,2.44-.97,3.56,.08,0,.15,.02,.23,.03-.24,.87-.46,1.68-.69,2.5-.04,.16-.14,.31-.16,.47-.24,2.24-.96,4.43-.67,6.72,.02,.16-.03,.33-.06,.56-.11,.02-.23,.03-.34,.04-.02,.25-.05,.49-.09,.73,.4,1.2,.63,2.46,.63,3.77,0,.32-.02,.63-.05,.94,.46,1.27,.93,2.53,1.44,3.77,.15,.27,.29,.55,.42,.83,.06,.09,.13,.17,.19,.27,.71,0,1.18,.37,1.61,.89,.21,.25,.2,.69,.42,.93,1.47,1.65,2.93,3.31,4.48,4.88,2.7,2.74,5.47,5.41,8.19,8.12,2.1,2.09,4.17,4.2,6.27,6.29,2.69,2.67,5.41,5.3,8.08,7.99,2.04,2.05,4,4.17,6.02,6.22,1.89,1.91,3.78,3.82,5.74,5.66,1.29,1.21,2.34,2.68,4.36,3.04,1.38,.24,2.52-.06,3.53-.7,1.04-.66,1.89-1.64,2.78-2.52,3.45-3.41,6.91-6.81,10.33-10.25,3.3-3.33,6.54-6.73,9.84-10.06,1.93-1.94,3.95-3.79,5.88-5.73,3.28-3.3,6.4-6.79,9.83-9.92,2.58-2.36,4.13-5.28,5.52-8.32,.71-1.55,1.05-3.32,1.28-5.03,.43-3.14,.11-6.28-.62-9.36Zm-9.73,7.6c-.31,2.12-.96,4.12-2.28,5.97-2.1,2.94-4.86,5.17-7.33,7.71-2,2.05-3.99,4.1-6.02,6.13-1.88,1.88-3.82,3.7-5.71,5.58-1.6,1.59-3.13,3.25-4.72,4.84-1.88,1.88-3.82,3.71-5.7,5.59-1.6,1.59-3.15,3.23-4.72,4.84-.31,.32-.57,.73-.94,.92-.78,.41-1.13-.43-1.52-.78-1.55-1.41-2.99-2.93-4.47-4.42-1.58-1.6-3.14-3.23-4.73-4.82-1.88-1.88-3.81-3.73-5.69-5.61-1.59-1.59-3.14-3.22-4.74-4.81-1.88-1.88-3.8-3.73-5.68-5.61-1.59-1.59-3.17-3.19-4.74-4.81-1.17-1.21-2.38-2.39-3.47-3.68-1.26-1.49-2.01-3.22-2.61-5.11-.53-1.66-.55-3.27-.41-4.87,.17-1.92,.85-3.78,1.94-5.41,.16-.24,.68-.31,1.03-.32,.59-.02,1.18,.07,1.53,.1,2.95,.29,5.67,.55,8.38,.84,1.68,.18,3.41,.2,5.01,.66,1.46,.42,2.9,.53,4.36,.46,.65-.03,1.31-.26,1.94-.46,.94-.3,1.68,.03,2.32,.66,2.63,2.63,5.29,5.24,7.86,7.94,1.68,1.76,5.78,1.52,7.35-.58,.97-1.29,2.26-2.34,3.42-3.49,1.22-1.22,2.45-2.42,3.68-3.64,1.8-1.79,3.47-3.75,5.45-5.32,1.39-1.09,2.94-2.19,4.87-2.35,1.57-.13,3.16-.56,4.7-.43,2.16,.19,4.21,.82,6.01,2.28,.82,.67,1.8,1.16,2.42,2.06,.71,1.04,1.38,2.1,1.99,3.2,1.17,2.1,1.57,4.41,1.23,6.75Z"/>
        </g>
        <path class="cls-3" d="M131.06,277.86c-.74,7.3-20.54,43.39-20.89,50.72-1.12,23.14-9.73,64.06-11.24,87.1,37.63,10.22,208.4,62.41,208.4,62.41,21.21-25.9,13.74-81.64,3.89-87.98"/>
      </g>
      <g>
        <rect class="cls-2" x="720.68" y="1165.97" width="478.47" height="119" rx="25.46" ry="25.46"/>
        <g>
          <circle class="cls-4" cx="649.47" cy="1225.47" r="81.21"/>
          <path class="cls-3" d="M649.47,1154.26c39.33,0,71.21,31.88,71.21,71.21s-31.88,71.21-71.21,71.21-71.21-31.88-71.21-71.21,31.88-71.21,71.21-71.21m0-20c-50.29,0-91.21,40.92-91.21,91.21s40.92,91.21,91.21,91.21,91.21-40.92,91.21-91.21-40.92-91.21-91.21-91.21h0Z"/>
        </g>
        <path class="cls-5" d="M637.04,1189.9c-5.53,0-10,4.47-10,10v1.11h-12.22c-5.53,0-10,4.47-10,10v40.01c0,5.53,4.47,10,10,10h68.9c5.53,0,10-4.47,10-10v-40.01c0-5.53-4.47-10-10-10h-12.22v-1.11c0-5.53-4.47-10-10-10h-24.45Zm34.45,17.78h12.22c1.85,0,3.33,1.49,3.33,3.33v5.56h-7.78c-1.85,0-3.33,1.49-3.33,3.33s1.49,3.33,3.33,3.33h7.78v6.67h-7.78c-1.85,0-3.33,1.49-3.33,3.33s1.49,3.33,3.33,3.33h7.78v14.45c0,1.85-1.49,3.33-3.33,3.33h-12.22v-46.68Zm-56.68,0h12.22v46.68h-12.22c-1.83,0-3.33-1.49-3.33-3.33v-14.45h7.78c1.85,0,3.33-1.49,3.33-3.33s-1.49-3.33-3.33-3.33h-7.78v-6.67h7.78c1.85,0,3.33-1.49,3.33-3.33s-1.49-3.33-3.33-3.33h-7.78v-5.56c0-1.85,1.49-3.33,3.33-3.33Zm18.89-7.78c0-1.85,1.49-3.33,3.33-3.33h24.45c1.85,0,3.33,1.49,3.33,3.33v54.46h-8.89v-8.89c0-3.68-2.99-6.67-6.67-6.67s-6.67,2.99-6.67,6.67v8.89h-8.89v-54.46Zm12.22,3.33v3.33h-3.33c-1.22,0-2.22,1-2.22,2.22v2.22c0,1.22,1,2.22,2.22,2.22h3.33v3.33c0,1.22,1,2.22,2.22,2.22h2.22c1.22,0,2.22-1,2.22-2.22v-3.33h3.33c1.22,0,2.22-1,2.22-2.22v-2.22c0-1.22-1-2.22-2.22-2.22h-3.33v-3.33c0-1.22-1-2.22-2.22-2.22h-2.22c-1.22,0-2.22,1-2.22,2.22Z"/>
        <g>
          <path class="cls-1" d="M786.57,1256.75c-1.29,0-2.28-.37-2.98-1.09-.7-.73-1.05-1.74-1.05-3.03v-52.21c0-1.35,.36-2.37,1.09-3.07,.73-.7,1.71-1.05,2.94-1.05s2.09,.21,2.73,.63c.64,.42,1.25,1.16,1.81,2.23l22.03,41.12h-2.61l21.95-41.12c.56-1.06,1.15-1.81,1.77-2.23,.62-.42,1.51-.63,2.69-.63s2.19,.35,2.86,1.05c.67,.7,1.01,1.72,1.01,3.07v52.21c0,1.29-.32,2.3-.97,3.03-.65,.73-1.61,1.09-2.9,1.09s-2.27-.37-2.94-1.09c-.67-.73-1.01-1.74-1.01-3.03v-43.39h1.85l-19.51,36.07c-.45,.84-.93,1.46-1.43,1.85-.5,.39-1.21,.59-2.1,.59s-1.63-.21-2.19-.63c-.56-.42-1.07-1.02-1.51-1.81l-19.68-36.16h2.02v43.47c0,1.29-.32,2.3-.97,3.03-.65,.73-1.61,1.09-2.9,1.09Z"/>
          <path class="cls-1" d="M859.47,1256.16c-1.51,0-2.68-.41-3.49-1.22-.81-.81-1.22-1.98-1.22-3.49v-49.86c0-1.51,.41-2.68,1.22-3.49,.81-.81,1.98-1.22,3.49-1.22h30.69c1.18,0,2.07,.29,2.69,.88,.62,.59,.92,1.44,.92,2.56,0,1.18-.31,2.08-.92,2.69-.62,.62-1.51,.92-2.69,.92h-26.99v18.58h25.14c1.23,0,2.14,.31,2.73,.92,.59,.62,.88,1.49,.88,2.61,0,1.18-.29,2.06-.88,2.65-.59,.59-1.5,.88-2.73,.88h-25.14v19.51h26.99c1.18,0,2.07,.31,2.69,.92,.62,.62,.92,1.49,.92,2.61,0,1.18-.31,2.06-.92,2.65-.62,.59-1.51,.88-2.69,.88h-30.69Z"/>
          <path class="cls-1" d="M908.99,1256.16c-1.51,0-2.68-.41-3.49-1.22-.81-.81-1.22-1.98-1.22-3.49v-49.86c0-1.51,.41-2.68,1.22-3.49,.81-.81,1.98-1.22,3.49-1.22h16.23c9.75,0,17.28,2.54,22.58,7.61,5.3,5.07,7.95,12.4,7.95,21.99,0,4.76-.67,9-2.02,12.7-1.34,3.7-3.32,6.8-5.93,9.29-2.61,2.5-5.79,4.4-9.54,5.72-3.76,1.32-8.1,1.98-13.03,1.98h-16.23Zm4.04-7.32h11.69c3.7,0,6.91-.46,9.63-1.39,2.72-.92,5-2.31,6.85-4.16,1.85-1.85,3.22-4.18,4.12-6.98,.9-2.8,1.35-6.08,1.35-9.84,0-7.46-1.84-13.03-5.51-16.73-3.67-3.7-9.15-5.55-16.44-5.55h-11.69v44.65Z"/>
          <path class="cls-1" d="M971.8,1256.75c-1.4,0-2.48-.39-3.24-1.18-.76-.78-1.14-1.88-1.14-3.28v-51.54c0-1.46,.38-2.56,1.14-3.32,.76-.76,1.83-1.13,3.24-1.13s2.48,.38,3.24,1.13,1.14,1.86,1.14,3.32v51.54c0,1.4-.37,2.5-1.09,3.28s-1.82,1.18-3.28,1.18Z"/>
          <path class="cls-1" d="M1016.53,1256.92c-6,0-11.13-1.23-15.39-3.7-4.26-2.47-7.53-5.98-9.8-10.55-2.27-4.57-3.41-9.96-3.41-16.19,0-4.65,.64-8.84,1.93-12.57,1.29-3.73,3.15-6.92,5.59-9.59,2.44-2.66,5.44-4.69,9-6.1,3.56-1.4,7.58-2.1,12.07-2.1,3.31,0,6.49,.45,9.54,1.35,3.05,.9,5.7,2.19,7.95,3.87,.95,.62,1.58,1.36,1.89,2.23,.31,.87,.36,1.7,.17,2.48-.2,.79-.58,1.44-1.13,1.98-.56,.53-1.28,.83-2.14,.88s-1.81-.25-2.82-.92c-1.85-1.4-3.9-2.44-6.14-3.11-2.24-.67-4.6-1.01-7.06-1.01-4.26,0-7.85,.88-10.76,2.65-2.92,1.77-5.13,4.33-6.64,7.69-1.51,3.36-2.27,7.46-2.27,12.28s.76,8.93,2.27,12.32c1.51,3.39,3.73,5.97,6.64,7.74,2.91,1.77,6.5,2.65,10.76,2.65,2.47,0,4.83-.35,7.11-1.05,2.27-.7,4.41-1.75,6.43-3.15,1.01-.62,1.92-.9,2.73-.84,.81,.06,1.5,.34,2.06,.84,.56,.5,.94,1.13,1.13,1.89s.17,1.54-.08,2.35c-.25,.81-.8,1.5-1.64,2.06-2.3,1.85-5.02,3.25-8.16,4.2-3.14,.95-6.42,1.43-9.84,1.43Z"/>
          <path class="cls-1" d="M1045.12,1256.75c-1.12,0-2.02-.25-2.69-.76-.67-.5-1.07-1.18-1.18-2.02s.06-1.79,.5-2.86l22.79-51.12c.56-1.35,1.27-2.3,2.14-2.86,.87-.56,1.83-.84,2.9-.84,1.01,0,1.95,.28,2.82,.84s1.58,1.51,2.14,2.86l22.79,51.12c.5,1.07,.7,2.03,.59,2.9-.11,.87-.48,1.54-1.09,2.02-.62,.48-1.49,.71-2.61,.71-1.23,0-2.21-.31-2.94-.92-.73-.62-1.37-1.57-1.93-2.86l-5.89-13.62,3.95,2.35h-35.82l3.87-2.35-5.8,13.62c-.56,1.35-1.18,2.31-1.85,2.9-.67,.59-1.57,.88-2.69,.88Zm24.3-50.2l-12.7,30.1-2.1-2.02h29.68l-1.93,2.02-12.78-30.1h-.17Z"/>
          <path class="cls-1" d="M1111.8,1256.16c-1.4,0-2.5-.39-3.28-1.18-.79-.79-1.18-1.88-1.18-3.28v-50.7c0-1.46,.38-2.56,1.14-3.32,.76-.76,1.83-1.13,3.24-1.13s2.48,.38,3.24,1.13,1.14,1.86,1.14,3.32v47.67h26.07c1.23,0,2.19,.32,2.86,.97,.67,.65,1.01,1.56,1.01,2.73s-.34,2.1-1.01,2.78-1.63,1.01-2.86,1.01h-30.35Z"/>
        </g>
      </g>
      <g>
        <rect class="cls-2" x="951.6" y="756.41" width="315.06" height="119" rx="25.46" ry="25.46"/>
        <g>
          <circle class="cls-4" cx="880.39" cy="815.91" r="81.21"/>
          <path class="cls-3" d="M880.39,744.7c39.33,0,71.21,31.88,71.21,71.21s-31.88,71.21-71.21,71.21-71.21-31.88-71.21-71.21,31.88-71.21,71.21-71.21m0-20c-50.29,0-91.21,40.92-91.21,91.21s40.92,91.21,91.21,91.21,91.21-40.92,91.21-91.21-40.92-91.21-91.21-91.21h0Z"/>
        </g>
        <g>
          <path class="cls-1" d="M1017.99,846.61c-1.51,0-2.68-.41-3.49-1.22-.81-.81-1.22-1.98-1.22-3.49v-49.86c0-1.51,.41-2.68,1.22-3.49,.81-.81,1.98-1.22,3.49-1.22h20.01c4.09,0,7.58,.62,10.47,1.85,2.89,1.23,5.1,3,6.64,5.3,1.54,2.3,2.31,5.07,2.31,8.32,0,3.59-1.07,6.61-3.2,9.08-2.13,2.47-5.02,4.12-8.66,4.96v-1.26c4.15,.56,7.4,2.12,9.75,4.67,2.35,2.55,3.53,5.87,3.53,9.96,0,5.27-1.74,9.32-5.21,12.15-3.48,2.83-8.35,4.25-14.63,4.25h-21.02Zm3.7-33.38h14.97c4.04,0,7.09-.81,9.17-2.44,2.07-1.62,3.11-4.01,3.11-7.15s-1.04-5.52-3.11-7.15c-2.07-1.62-5.13-2.44-9.17-2.44h-14.97v19.17Zm0,26.65h16.31c4.2,0,7.31-.83,9.33-2.48,2.02-1.65,3.03-4.16,3.03-7.53s-1.01-5.86-3.03-7.48c-2.02-1.62-5.13-2.44-9.33-2.44h-16.31v19.93Z"/>
          <path class="cls-1" d="M1074.99,847.2c-1.4,0-2.48-.39-3.24-1.18-.76-.78-1.14-1.88-1.14-3.28v-51.54c0-1.46,.38-2.56,1.14-3.32,.76-.76,1.83-1.13,3.24-1.13s2.48,.38,3.24,1.13,1.14,1.86,1.14,3.32v51.54c0,1.4-.37,2.5-1.09,3.28s-1.82,1.18-3.28,1.18Z"/>
          <path class="cls-1" d="M1097.61,846.61c-1.4,0-2.5-.39-3.28-1.18-.79-.79-1.18-1.88-1.18-3.28v-50.7c0-1.46,.38-2.56,1.14-3.32,.76-.76,1.83-1.13,3.24-1.13s2.48,.38,3.24,1.13,1.14,1.86,1.14,3.32v47.67h26.07c1.23,0,2.19,.32,2.86,.97,.67,.65,1.01,1.56,1.01,2.73s-.34,2.1-1.01,2.78-1.63,1.01-2.86,1.01h-30.35Z"/>
          <path class="cls-1" d="M1144.02,846.61c-1.4,0-2.5-.39-3.28-1.18-.79-.79-1.18-1.88-1.18-3.28v-50.7c0-1.46,.38-2.56,1.14-3.32,.76-.76,1.83-1.13,3.24-1.13s2.48,.38,3.24,1.13,1.14,1.86,1.14,3.32v47.67h26.07c1.23,0,2.19,.32,2.86,.97,.67,.65,1.01,1.56,1.01,2.73s-.34,2.1-1.01,2.78-1.63,1.01-2.86,1.01h-30.35Z"/>
          <path class="cls-1" d="M1204.39,847.36c-2.58,0-5.1-.2-7.57-.59-2.47-.39-4.79-.99-6.98-1.81-2.19-.81-4.15-1.81-5.89-2.99-.84-.62-1.42-1.32-1.72-2.1-.31-.78-.39-1.56-.25-2.31,.14-.76,.46-1.42,.97-1.98,.5-.56,1.12-.91,1.85-1.05,.73-.14,1.54,.1,2.44,.71,2.52,1.63,5.18,2.82,7.99,3.57,2.8,.76,5.86,1.13,9.17,1.13,4.76,0,8.28-.85,10.55-2.56,2.27-1.71,3.41-3.94,3.41-6.68,0-2.24-.81-4.02-2.44-5.34-1.63-1.32-4.34-2.37-8.16-3.15l-9-1.85c-5.33-1.12-9.29-2.97-11.9-5.55-2.61-2.58-3.91-6.05-3.91-10.43,0-2.63,.55-5.04,1.64-7.23s2.62-4.08,4.58-5.68c1.96-1.6,4.32-2.82,7.06-3.66,2.75-.84,5.75-1.26,9-1.26,3.47,0,6.74,.45,9.79,1.35,3.05,.9,5.79,2.27,8.2,4.12,.73,.5,1.22,1.13,1.47,1.89s.31,1.5,.17,2.23c-.14,.73-.46,1.34-.97,1.85s-1.15,.8-1.93,.88c-.79,.08-1.65-.18-2.61-.8-2.19-1.46-4.42-2.51-6.68-3.15-2.27-.64-4.78-.97-7.53-.97s-5.14,.42-7.19,1.26c-2.05,.84-3.62,2.02-4.71,3.53-1.09,1.51-1.64,3.31-1.64,5.38,0,2.35,.76,4.23,2.27,5.63,1.51,1.4,4.04,2.47,7.57,3.2l8.91,1.85c5.6,1.18,9.78,3,12.53,5.47,2.75,2.47,4.12,5.75,4.12,9.84,0,2.64-.53,5-1.6,7.11-1.07,2.1-2.58,3.91-4.54,5.42s-4.33,2.68-7.1,3.49c-2.77,.81-5.9,1.22-9.38,1.22Z"/>
        </g>
        <path class="cls-5" d="M858.78,772.59c-5.96,0-10.8,4.85-10.8,10.8v64.83c0,5.96,4.85,10.8,10.8,10.8h43.22c5.96,0,10.8-4.85,10.8-10.8v-48.62h-21.61c-2.99,0-5.4-2.41-5.4-5.4v-21.61h-27.01Zm32.41,0v21.61h21.61l-21.61-21.61Zm-29.71,10.8h10.8c1.49,0,2.7,1.22,2.7,2.7s-1.22,2.7-2.7,2.7h-10.8c-1.49,0-2.7-1.22-2.7-2.7s1.22-2.7,2.7-2.7Zm0,10.8h10.8c1.49,0,2.7,1.22,2.7,2.7s-1.22,2.7-2.7,2.7h-10.8c-1.49,0-2.7-1.22-2.7-2.7s1.22-2.7,2.7-2.7Zm2.7,16.21h32.41c2.99,0,5.4,2.41,5.4,5.4v10.8c0,2.99-2.41,5.4-5.4,5.4h-32.41c-2.99,0-5.4-2.41-5.4-5.4v-10.8c0-2.99,2.41-5.4,5.4-5.4Zm0,5.4v10.8h32.41v-10.8h-32.41Zm24.31,27.01h10.8c1.49,0,2.7,1.22,2.7,2.7s-1.22,2.7-2.7,2.7h-10.8c-1.49,0-2.7-1.22-2.7-2.7s1.22-2.7,2.7-2.7Z"/>
      </g>
      <g>
        <rect class="cls-2" x="836.04" y="961.19" width="427.86" height="119" rx="25.46" ry="25.46"/>
        <g>
          <circle class="cls-4" cx="764.83" cy="1020.69" r="81.21"/>
          <path class="cls-3" d="M764.83,949.48c39.33,0,71.21,31.88,71.21,71.21s-31.88,71.21-71.21,71.21-71.21-31.88-71.21-71.21,31.88-71.21,71.21-71.21m0-20c-50.29,0-91.21,40.92-91.21,91.21s40.92,91.21,91.21,91.21,91.21-40.92,91.21-91.21-40.92-91.21-91.21-91.21h0Z"/>
        </g>
        <g>
          <path class="cls-1" d="M916.55,1051.97c-1.4,0-2.48-.39-3.24-1.18s-1.14-1.88-1.14-3.28v-48.09h-17.83c-1.18,0-2.1-.32-2.77-.97-.67-.64-1.01-1.56-1.01-2.73s.34-2.07,1.01-2.69c.67-.62,1.6-.92,2.77-.92h44.31c1.23,0,2.19,.31,2.86,.92,.67,.62,1.01,1.51,1.01,2.69s-.34,2.09-1.01,2.73c-.67,.64-1.63,.97-2.86,.97h-17.83v48.09c0,1.4-.35,2.5-1.05,3.28-.7,.78-1.78,1.18-3.24,1.18Z"/>
          <path class="cls-1" d="M953.46,1051.97c-1.4,0-2.48-.39-3.24-1.18-.76-.78-1.14-1.88-1.14-3.28v-50.95c0-1.46,.39-2.56,1.18-3.32,.78-.76,1.88-1.14,3.28-1.14h20.1c6.39,0,11.32,1.51,14.8,4.54,3.48,3.03,5.21,7.31,5.21,12.86,0,3.59-.79,6.67-2.35,9.25-1.57,2.58-3.86,4.54-6.85,5.89-3,1.35-6.6,2.02-10.8,2.02l.76-1.18h2.19c2.24,0,4.19,.56,5.84,1.68,1.65,1.12,3.15,2.92,4.5,5.38l7.23,13.45c.56,1.01,.83,1.98,.8,2.9-.03,.92-.37,1.67-1.01,2.23-.65,.56-1.56,.84-2.73,.84s-2.23-.27-2.98-.8-1.44-1.33-2.06-2.4l-8.83-16.31c-1.18-2.19-2.52-3.66-4.04-4.41s-3.5-1.13-5.97-1.13h-9.5v20.6c0,1.4-.37,2.5-1.09,3.28s-1.82,1.18-3.28,1.18Zm4.37-31.62h14.38c4.26,0,7.48-.9,9.67-2.69,2.19-1.79,3.28-4.46,3.28-7.99s-1.09-6.11-3.28-7.9c-2.19-1.79-5.41-2.69-9.67-2.69h-14.38v21.27Z"/>
          <path class="cls-1" d="M1004.67,1051.97c-1.12,0-2.02-.25-2.69-.76-.67-.5-1.07-1.18-1.18-2.02s.06-1.79,.5-2.86l22.79-51.12c.56-1.35,1.27-2.3,2.14-2.86,.87-.56,1.83-.84,2.9-.84,1.01,0,1.95,.28,2.82,.84s1.58,1.51,2.14,2.86l22.79,51.12c.5,1.07,.7,2.03,.59,2.9-.11,.87-.48,1.54-1.09,2.02-.62,.48-1.49,.71-2.61,.71-1.23,0-2.21-.31-2.94-.92-.73-.62-1.37-1.57-1.93-2.86l-5.89-13.62,3.95,2.35h-35.82l3.87-2.35-5.8,13.62c-.56,1.35-1.18,2.31-1.85,2.9-.67,.59-1.57,.88-2.69,.88Zm24.3-50.2l-12.7,30.1-2.1-2.02h29.68l-1.93,2.02-12.78-30.1h-.17Z"/>
          <path class="cls-1" d="M1084.63,1051.97c-1.23,0-2.26-.29-3.07-.88-.81-.59-1.47-1.47-1.98-2.65l-22.62-51.21c-.45-1.18-.56-2.19-.34-3.03,.22-.84,.69-1.5,1.39-1.98,.7-.48,1.56-.71,2.56-.71,1.29,0,2.27,.28,2.94,.84s1.23,1.4,1.68,2.52l21.19,49.1h-3.11l21.02-49.19c.5-1.06,1.11-1.88,1.81-2.44,.7-.56,1.67-.84,2.9-.84,1.01,0,1.84,.24,2.48,.71,.64,.48,1.05,1.14,1.22,1.98,.17,.84,0,1.85-.5,3.03l-22.53,51.21c-.5,1.18-1.15,2.06-1.93,2.65-.79,.59-1.82,.88-3.11,.88Z"/>
          <path class="cls-1" d="M1125.66,1051.38c-1.51,0-2.68-.41-3.49-1.22-.81-.81-1.22-1.98-1.22-3.49v-49.86c0-1.51,.41-2.68,1.22-3.49,.81-.81,1.98-1.22,3.49-1.22h30.69c1.18,0,2.07,.29,2.69,.88,.62,.59,.92,1.44,.92,2.56,0,1.18-.31,2.08-.92,2.69-.62,.62-1.51,.92-2.69,.92h-26.99v18.58h25.14c1.23,0,2.14,.31,2.73,.92,.59,.62,.88,1.49,.88,2.61,0,1.18-.29,2.06-.88,2.65-.59,.59-1.5,.88-2.73,.88h-25.14v19.51h26.99c1.18,0,2.07,.31,2.69,.92,.62,.62,.92,1.49,.92,2.61,0,1.18-.31,2.06-.92,2.65-.62,.59-1.51,.88-2.69,.88h-30.69Z"/>
          <path class="cls-1" d="M1174.93,1051.38c-1.4,0-2.5-.39-3.28-1.18-.79-.79-1.18-1.88-1.18-3.28v-50.7c0-1.46,.38-2.56,1.14-3.32,.76-.76,1.83-1.13,3.24-1.13s2.48,.38,3.24,1.13,1.14,1.86,1.14,3.32v47.67h26.07c1.23,0,2.19,.32,2.86,.97,.67,.65,1.01,1.56,1.01,2.73s-.34,2.1-1.01,2.78-1.63,1.01-2.86,1.01h-30.35Z"/>
        </g>
        <path class="cls-5" d="M745.71,997.9l-4.13,11.81h46.5l-4.13-11.81c-.71-2.03-2.63-3.39-4.78-3.39h-28.68c-2.15,0-4.07,1.36-4.78,3.39Zm-15.13,12.57l5.57-15.91c2.14-6.09,7.88-10.18,14.34-10.18h28.68c6.46,0,12.2,4.08,14.34,10.18l5.57,15.91c3.67,1.52,6.27,5.14,6.27,9.37v30.39c0,2.8-2.26,5.06-5.06,5.06h-5.06c-2.8,0-5.06-2.26-5.06-5.06v-7.6h-50.65v7.6c0,2.8-2.26,5.06-5.06,5.06h-5.06c-2.8,0-5.06-2.26-5.06-5.06v-30.39c0-4.23,2.6-7.85,6.27-9.37Zm13.99,14.44c0-2.8-2.27-5.06-5.06-5.06s-5.06,2.27-5.06,5.06,2.27,5.06,5.06,5.06,5.06-2.27,5.06-5.06Zm45.58,5.06c2.8,0,5.06-2.27,5.06-5.06s-2.27-5.06-5.06-5.06-5.06,2.27-5.06,5.06,2.27,5.06,5.06,5.06Z"/>
      </g>
      <g>
        <rect class="cls-2" x="1071.74" y="551.64" width="338.9" height="119" rx="25.46" ry="25.46"/>
        <g>
          <circle class="cls-4" cx="995.84" cy="611.14" r="81.21"/>
          <path class="cls-3" d="M995.84,539.93c39.33,0,71.21,31.88,71.21,71.21s-31.88,71.21-71.21,71.21-71.21-31.88-71.21-71.21,31.88-71.21,71.21-71.21m0-20c-50.29,0-91.21,40.92-91.21,91.21s40.92,91.21,91.21,91.21,91.21-40.92,91.21-91.21-40.92-91.21-91.21-91.21h0Z"/>
        </g>
        <g>
          <path class="cls-1" d="M1133.36,642.42c-1.46,0-2.59-.39-3.41-1.18-.81-.78-1.22-1.93-1.22-3.45v-50.53c0-1.51,.41-2.68,1.22-3.49,.81-.81,1.98-1.22,3.49-1.22h29.93c1.23,0,2.14,.29,2.73,.88,.59,.59,.88,1.44,.88,2.56,0,1.18-.29,2.08-.88,2.69-.59,.62-1.5,.92-2.73,.92h-25.9v18.92h24.22c1.12,0,2,.29,2.65,.88,.64,.59,.97,1.44,.97,2.56,0,1.18-.32,2.08-.97,2.69-.65,.62-1.53,.92-2.65,.92h-24.22v22.2c0,3.08-1.38,4.62-4.12,4.62Z"/>
          <path class="cls-1" d="M1199.78,642.59c-5.61,0-10.5-1.25-14.67-3.74-4.18-2.49-7.4-6.02-9.67-10.59-2.27-4.57-3.41-9.93-3.41-16.1,0-4.65,.64-8.84,1.93-12.57,1.29-3.73,3.14-6.92,5.55-9.59,2.41-2.66,5.32-4.69,8.74-6.1,3.42-1.4,7.26-2.1,11.52-2.1,5.66,0,10.57,1.23,14.71,3.7,4.15,2.47,7.36,5.97,9.63,10.51,2.27,4.54,3.41,9.89,3.41,16.06,0,4.65-.65,8.86-1.93,12.61-1.29,3.76-3.15,6.98-5.59,9.67s-5.37,4.74-8.79,6.14c-3.42,1.4-7.23,2.1-11.44,2.1Zm0-7.57c3.92,0,7.27-.9,10.05-2.69s4.9-4.4,6.39-7.82c1.48-3.42,2.23-7.54,2.23-12.36,0-7.23-1.63-12.84-4.88-16.82-3.25-3.98-7.85-5.97-13.79-5.97-3.92,0-7.27,.88-10.05,2.65-2.77,1.77-4.91,4.36-6.39,7.78-1.49,3.42-2.23,7.54-2.23,12.36,0,7.18,1.64,12.78,4.92,16.82,3.28,4.04,7.86,6.05,13.75,6.05Z"/>
          <path class="cls-1" d="M1264.94,642.59c-5.61,0-10.5-1.25-14.67-3.74-4.18-2.49-7.4-6.02-9.67-10.59-2.27-4.57-3.41-9.93-3.41-16.1,0-4.65,.64-8.84,1.93-12.57,1.29-3.73,3.14-6.92,5.55-9.59,2.41-2.66,5.32-4.69,8.74-6.1,3.42-1.4,7.26-2.1,11.52-2.1,5.66,0,10.57,1.23,14.71,3.7,4.15,2.47,7.36,5.97,9.63,10.51,2.27,4.54,3.41,9.89,3.41,16.06,0,4.65-.65,8.86-1.93,12.61-1.29,3.76-3.15,6.98-5.59,9.67s-5.37,4.74-8.79,6.14c-3.42,1.4-7.23,2.1-11.44,2.1Zm0-7.57c3.92,0,7.27-.9,10.05-2.69s4.9-4.4,6.39-7.82c1.48-3.42,2.23-7.54,2.23-12.36,0-7.23-1.63-12.84-4.88-16.82-3.25-3.98-7.85-5.97-13.79-5.97-3.92,0-7.27,.88-10.05,2.65-2.77,1.77-4.91,4.36-6.39,7.78-1.49,3.42-2.23,7.54-2.23,12.36,0,7.18,1.64,12.78,4.92,16.82,3.28,4.04,7.86,6.05,13.75,6.05Z"/>
          <path class="cls-1" d="M1309.09,641.83c-1.51,0-2.68-.41-3.49-1.22-.81-.81-1.22-1.98-1.22-3.49v-49.86c0-1.51,.41-2.68,1.22-3.49,.81-.81,1.98-1.22,3.49-1.22h16.23c9.75,0,17.28,2.54,22.58,7.61,5.3,5.07,7.95,12.4,7.95,21.99,0,4.76-.67,9-2.02,12.7-1.34,3.7-3.32,6.8-5.93,9.29-2.61,2.5-5.79,4.4-9.54,5.72-3.76,1.32-8.1,1.98-13.03,1.98h-16.23Zm4.04-7.32h11.69c3.7,0,6.91-.46,9.63-1.39,2.72-.92,5-2.31,6.85-4.16,1.85-1.85,3.22-4.18,4.12-6.98,.9-2.8,1.35-6.08,1.35-9.84,0-7.46-1.84-13.03-5.51-16.73-3.67-3.7-9.15-5.55-16.44-5.55h-11.69v44.65Z"/>
        </g>
        <path class="cls-5" d="M955.46,601.04c0-5.57,4.53-10.09,10.09-10.09h.25c1.17-5.76,6.26-10.09,12.37-10.09,2.37,0,4.57,.65,6.45,1.77,2.1-4.04,6.34-6.81,11.21-6.81s9.12,2.78,11.21,6.81c1.88-1.12,4.09-1.77,6.45-1.77,6.1,0,11.2,4.34,12.37,10.09h.25c5.57,0,10.09,4.53,10.09,10.09,0,1.85-.49,3.56-1.36,5.05h-78.04c-.87-1.48-1.36-3.2-1.36-5.05Zm0,14.42c0-2.38,1.94-4.32,4.32-4.32h72.11c2.38,0,4.32,1.94,4.32,4.32,0,11.12-7,20.61-16.83,24.31l-.28,2.29c-.32,2.52-2.46,4.42-5.02,4.42h-36.51c-2.54,0-4.7-1.89-5.02-4.42l-.28-2.27c-9.81-3.71-16.81-13.2-16.81-24.32Z"/>
      </g>
      <path class="cls-5" d="M1953.03,360.61v91.49c0,1.85-.2,3.66-.58,5.4-2.47,11.47-12.67,20.07-24.88,20.07h-835.05c-14.06,0-25.46-11.4-25.46-25.47v-91.49c0-14.06,11.4-25.46,25.46-25.46h835.05c14.06,0,25.46,11.4,25.46,25.46Z"/>
      <g>
        <path class="cls-1" d="M1131.2,436.48c-2.64,0-4.64-.69-6.01-2.06-1.37-1.37-2.06-3.38-2.06-6.01v-43.13c0-2.63,.69-4.64,2.06-6.01s3.38-2.06,6.01-2.06h16.4c10.31,0,18.29,2.58,23.92,7.74s8.45,12.44,8.45,21.86c0,4.76-.71,8.97-2.14,12.61-1.43,3.64-3.52,6.74-6.26,9.29-2.75,2.55-6.12,4.49-10.13,5.8-4.01,1.32-8.62,1.98-13.83,1.98h-16.4Zm7.4-12.53h8.07c2.97,0,5.54-.36,7.69-1.09,2.16-.73,3.95-1.79,5.38-3.2,1.43-1.4,2.49-3.17,3.2-5.3,.7-2.13,1.05-4.65,1.05-7.57,0-5.77-1.43-10.06-4.29-12.87-2.86-2.8-7.2-4.2-13.03-4.2h-8.07v34.22Z"/>
        <path class="cls-1" d="M1217.8,437.49c-6,0-11.25-1.29-15.77-3.87-4.51-2.58-8.04-6.17-10.59-10.76-2.55-4.6-3.83-9.95-3.83-16.06,0-4.65,.71-8.84,2.14-12.57,1.43-3.73,3.49-6.92,6.18-9.59,2.69-2.66,5.89-4.74,9.59-6.22,3.7-1.48,7.79-2.23,12.28-2.23,6,0,11.27,1.28,15.81,3.83,4.54,2.55,8.06,6.11,10.55,10.68,2.49,4.57,3.74,9.94,3.74,16.1,0,4.6-.71,8.77-2.14,12.53-1.43,3.76-3.48,6.98-6.14,9.67-2.66,2.69-5.84,4.78-9.54,6.26-3.7,1.48-7.79,2.23-12.28,2.23Zm0-13.03c2.97,0,5.49-.7,7.57-2.1,2.07-1.4,3.67-3.42,4.79-6.05,1.12-2.63,1.68-5.8,1.68-9.5,0-5.49-1.23-9.8-3.7-12.91-2.47-3.11-5.92-4.67-10.34-4.67-2.92,0-5.42,.69-7.53,2.06-2.1,1.37-3.73,3.38-4.88,6.01-1.15,2.64-1.72,5.8-1.72,9.5,0,5.55,1.26,9.88,3.78,12.99s5.97,4.67,10.34,4.67Z"/>
        <path class="cls-1" d="M1264.3,437.32c-2.35,0-4.15-.65-5.38-1.93-1.23-1.29-1.85-3.11-1.85-5.47v-45.91c0-2.41,.62-4.29,1.85-5.63,1.23-1.35,2.89-2.02,4.96-2.02,1.74,0,3.11,.35,4.12,1.05,1.01,.7,2.13,1.84,3.36,3.41l26.65,33.3h-2.35v-30.44c0-2.3,.6-4.09,1.81-5.38,1.2-1.29,2.98-1.93,5.34-1.93s4.15,.65,5.38,1.93c1.23,1.29,1.85,3.08,1.85,5.38v46.58c0,2.07-.58,3.77-1.72,5.09-1.15,1.32-2.68,1.98-4.58,1.98s-3.41-.35-4.5-1.05c-1.09-.7-2.29-1.84-3.57-3.41l-26.57-33.38h2.35v30.44c0,2.35-.6,4.18-1.81,5.47-1.21,1.29-2.98,1.93-5.34,1.93Z"/>
        <path class="cls-1" d="M1323.58,437.32c-1.74,0-3.2-.42-4.37-1.26-1.18-.84-1.91-1.98-2.19-3.41-.28-1.43-.03-3.04,.76-4.83l20.94-45.07c1.01-2.19,2.24-3.8,3.7-4.83,1.46-1.04,3.17-1.56,5.13-1.56s3.57,.52,5,1.56c1.43,1.04,2.65,2.65,3.66,4.83l21.02,45.07c.84,1.79,1.13,3.42,.88,4.88-.25,1.46-.94,2.59-2.06,3.41-1.12,.81-2.55,1.22-4.29,1.22-2.13,0-3.81-.53-5.04-1.6-1.23-1.06-2.33-2.72-3.28-4.96l-4.54-10.59,5.97,4.37h-34.73l5.89-4.37-4.54,10.59c-.95,2.3-1.96,3.97-3.03,5-1.07,1.04-2.69,1.56-4.88,1.56Zm23.79-43.97l-9.75,23.29-2.35-4.04h24.47l-2.44,4.04-9.75-23.29h-.17Z"/>
        <path class="cls-1" d="M1400.09,437.32c-2.52,0-4.46-.7-5.8-2.1-1.34-1.4-2.02-3.33-2.02-5.8v-39.6h-13.2c-2.07,0-3.66-.56-4.75-1.68-1.09-1.12-1.64-2.69-1.64-4.71s.55-3.56,1.64-4.62c1.09-1.06,2.68-1.6,4.75-1.6h41.87c2.13,0,3.73,.53,4.79,1.6,1.06,1.07,1.6,2.61,1.6,4.62s-.53,3.66-1.6,4.75c-1.07,1.09-2.66,1.64-4.79,1.64h-13.2v39.6c0,2.47-.65,4.4-1.93,5.8-1.29,1.4-3.2,2.1-5.72,2.1Z"/>
        <path class="cls-1" d="M1440.28,437.32c-2.52,0-4.46-.7-5.8-2.1-1.35-1.4-2.02-3.36-2.02-5.89v-44.98c0-2.52,.67-4.48,2.02-5.89,1.34-1.4,3.28-2.1,5.8-2.1s4.29,.7,5.63,2.1c1.35,1.4,2.02,3.36,2.02,5.89v44.98c0,2.52-.66,4.49-1.98,5.89-1.32,1.4-3.21,2.1-5.68,2.1Z"/>
        <path class="cls-1" d="M1487.29,437.49c-6,0-11.25-1.29-15.77-3.87-4.51-2.58-8.04-6.17-10.59-10.76-2.55-4.6-3.83-9.95-3.83-16.06,0-4.65,.71-8.84,2.14-12.57,1.43-3.73,3.49-6.92,6.18-9.59,2.69-2.66,5.89-4.74,9.59-6.22,3.7-1.48,7.79-2.23,12.28-2.23,6,0,11.27,1.28,15.81,3.83,4.54,2.55,8.06,6.11,10.55,10.68,2.49,4.57,3.74,9.94,3.74,16.1,0,4.6-.71,8.77-2.14,12.53-1.43,3.76-3.48,6.98-6.14,9.67-2.66,2.69-5.84,4.78-9.54,6.26-3.7,1.48-7.79,2.23-12.28,2.23Zm0-13.03c2.97,0,5.49-.7,7.57-2.1,2.07-1.4,3.67-3.42,4.79-6.05,1.12-2.63,1.68-5.8,1.68-9.5,0-5.49-1.23-9.8-3.7-12.91-2.47-3.11-5.92-4.67-10.34-4.67-2.92,0-5.42,.69-7.53,2.06-2.1,1.37-3.73,3.38-4.88,6.01-1.15,2.64-1.72,5.8-1.72,9.5,0,5.55,1.26,9.88,3.78,12.99s5.97,4.67,10.34,4.67Z"/>
        <path class="cls-1" d="M1533.78,437.32c-2.35,0-4.15-.65-5.38-1.93-1.23-1.29-1.85-3.11-1.85-5.47v-45.91c0-2.41,.62-4.29,1.85-5.63,1.23-1.35,2.89-2.02,4.96-2.02,1.74,0,3.11,.35,4.12,1.05,1.01,.7,2.13,1.84,3.36,3.41l26.65,33.3h-2.35v-30.44c0-2.3,.6-4.09,1.81-5.38,1.2-1.29,2.98-1.93,5.34-1.93s4.15,.65,5.38,1.93c1.23,1.29,1.85,3.08,1.85,5.38v46.58c0,2.07-.58,3.77-1.72,5.09-1.15,1.32-2.68,1.98-4.58,1.98s-3.41-.35-4.5-1.05c-1.09-.7-2.29-1.84-3.57-3.41l-26.57-33.38h2.35v30.44c0,2.35-.6,4.18-1.81,5.47-1.21,1.29-2.98,1.93-5.34,1.93Z"/>
        <path class="cls-1" d="M1622.15,437.32c-2.47,0-4.39-.7-5.76-2.1-1.37-1.4-2.06-3.39-2.06-5.97v-43.97c0-2.63,.69-4.64,2.06-6.01s3.38-2.06,6.01-2.06h28.08c1.96,0,3.45,.5,4.46,1.51s1.51,2.47,1.51,4.37-.5,3.46-1.51,4.5-2.5,1.56-4.46,1.56h-20.68v11.94h18.75c2.02,0,3.52,.5,4.5,1.51,.98,1.01,1.47,2.47,1.47,4.37s-.49,3.45-1.47,4.46c-.98,1.01-2.48,1.51-4.5,1.51h-18.75v16.31c0,5.38-2.55,8.07-7.65,8.07Z"/>
        <path class="cls-1" d="M1689.25,437.49c-4.32,0-8.14-.56-11.48-1.68-3.34-1.12-6.12-2.76-8.37-4.92-2.24-2.16-3.94-4.88-5.09-8.16-1.15-3.28-1.72-7.13-1.72-11.56v-26.91c0-2.58,.67-4.54,2.02-5.89s3.28-2.02,5.8-2.02,4.29,.67,5.63,2.02c1.35,1.34,2.02,3.31,2.02,5.89v27.07c0,4.37,.95,7.65,2.86,9.84,1.9,2.19,4.68,3.28,8.32,3.28s6.35-1.09,8.28-3.28c1.93-2.19,2.9-5.47,2.9-9.84v-27.07c0-2.58,.66-4.54,1.98-5.89,1.32-1.35,3.18-2.02,5.59-2.02s4.27,.67,5.59,2.02c1.32,1.34,1.98,3.31,1.98,5.89v26.91c0,5.83-1,10.71-2.98,14.63-1.99,3.92-4.93,6.85-8.83,8.79-3.9,1.93-8.73,2.9-14.5,2.9Z"/>
        <path class="cls-1" d="M1733.14,437.32c-2.35,0-4.15-.65-5.38-1.93-1.23-1.29-1.85-3.11-1.85-5.47v-45.91c0-2.41,.62-4.29,1.85-5.63,1.23-1.35,2.89-2.02,4.96-2.02,1.74,0,3.11,.35,4.12,1.05,1.01,.7,2.13,1.84,3.36,3.41l26.65,33.3h-2.35v-30.44c0-2.3,.6-4.09,1.81-5.38,1.2-1.29,2.98-1.93,5.34-1.93s4.15,.65,5.38,1.93c1.23,1.29,1.85,3.08,1.85,5.38v46.58c0,2.07-.58,3.77-1.72,5.09-1.15,1.32-2.68,1.98-4.58,1.98s-3.41-.35-4.5-1.05c-1.09-.7-2.29-1.84-3.57-3.41l-26.57-33.38h2.35v30.44c0,2.35-.6,4.18-1.81,5.47-1.21,1.29-2.98,1.93-5.34,1.93Z"/>
        <path class="cls-1" d="M1797.71,436.48c-2.64,0-4.64-.69-6.01-2.06-1.37-1.37-2.06-3.38-2.06-6.01v-43.13c0-2.63,.69-4.64,2.06-6.01s3.38-2.06,6.01-2.06h16.4c10.31,0,18.29,2.58,23.92,7.74s8.45,12.44,8.45,21.86c0,4.76-.71,8.97-2.14,12.61-1.43,3.64-3.52,6.74-6.26,9.29-2.75,2.55-6.12,4.49-10.13,5.8-4.01,1.32-8.62,1.98-13.83,1.98h-16.4Zm7.4-12.53h8.07c2.97,0,5.54-.36,7.69-1.09,2.16-.73,3.95-1.79,5.38-3.2,1.43-1.4,2.49-3.17,3.2-5.3,.7-2.13,1.05-4.65,1.05-7.57,0-5.77-1.43-10.06-4.29-12.87-2.86-2.8-7.2-4.2-13.03-4.2h-8.07v34.22Z"/>
        <path class="cls-1" d="M1877.84,437.49c-2.3,0-4.65-.17-7.06-.5-2.41-.34-4.72-.81-6.94-1.43-2.21-.62-4.19-1.35-5.93-2.19-1.51-.73-2.58-1.71-3.2-2.94-.62-1.23-.84-2.51-.67-3.83,.17-1.32,.64-2.49,1.43-3.53,.78-1.04,1.82-1.74,3.11-2.1,1.29-.36,2.75-.18,4.37,.55,2.13,1.01,4.54,1.81,7.23,2.4,2.69,.59,5.24,.88,7.65,.88,3.64,0,6.21-.52,7.69-1.56,1.48-1.04,2.23-2.26,2.23-3.66,0-1.29-.52-2.33-1.56-3.11-1.04-.78-2.87-1.46-5.51-2.02l-9.84-2.1c-5.44-1.18-9.46-3.15-12.07-5.93s-3.91-6.38-3.91-10.8c0-2.97,.62-5.63,1.85-7.99,1.23-2.35,2.94-4.37,5.13-6.05,2.19-1.68,4.82-3,7.9-3.95,3.08-.95,6.47-1.43,10.17-1.43,2.91,0,5.87,.34,8.87,1.01,3,.67,5.59,1.65,7.78,2.94,1.29,.67,2.23,1.61,2.82,2.82,.59,1.21,.81,2.43,.67,3.66-.14,1.23-.59,2.33-1.34,3.28-.76,.95-1.77,1.58-3.03,1.89-1.26,.31-2.76,.1-4.5-.63-1.68-.73-3.53-1.29-5.55-1.68-2.02-.39-3.98-.59-5.89-.59-2.07,0-3.84,.25-5.3,.76-1.46,.5-2.56,1.21-3.32,2.1-.76,.9-1.14,1.93-1.14,3.11s.5,2.17,1.51,2.99c1.01,.81,2.8,1.47,5.38,1.98l9.75,2.1c5.44,1.18,9.5,3.12,12.19,5.84,2.69,2.72,4.04,6.24,4.04,10.55,0,2.92-.59,5.54-1.77,7.86-1.18,2.33-2.87,4.34-5.09,6.05-2.22,1.71-4.85,3.01-7.9,3.91-3.06,.9-6.49,1.34-10.3,1.34Z"/>
      </g>
      <g>
        <path class="cls-1" d="M1896.91,524.72c-2.21,0-4-1.79-4-4v-9c0-2.21,1.79-4,4-4s4,1.79,4,4v9c0,2.21-1.79,4-4,4Z"/>
        <path class="cls-1" d="M1896.91,1196.05c-2.21,0-4-1.79-4-4v-17.98c0-2.21,1.79-4,4-4s4,1.79,4,4v17.98c0,2.21-1.79,4-4,4Zm0-47.95c-2.21,0-4-1.79-4-4v-17.98c0-2.21,1.79-4,4-4s4,1.79,4,4v17.98c0,2.21-1.79,4-4,4Zm0-47.95c-2.21,0-4-1.79-4-4v-17.98c0-2.21,1.79-4,4-4s4,1.79,4,4v17.98c0,2.21-1.79,4-4,4Zm0-47.95c-2.21,0-4-1.79-4-4v-17.98c0-2.21,1.79-4,4-4s4,1.79,4,4v17.98c0,2.21-1.79,4-4,4Zm0-47.95c-2.21,0-4-1.79-4-4v-17.98c0-2.21,1.79-4,4-4s4,1.79,4,4v17.98c0,2.21-1.79,4-4,4Zm0-47.95c-2.21,0-4-1.79-4-4v-17.98c0-2.21,1.79-4,4-4s4,1.79,4,4v17.98c0,2.21-1.79,4-4,4Zm0-47.95c-2.21,0-4-1.79-4-4v-17.98c0-2.21,1.79-4,4-4s4,1.79,4,4v17.98c0,2.21-1.79,4-4,4Zm0-47.95c-2.21,0-4-1.79-4-4v-17.98c0-2.21,1.79-4,4-4s4,1.79,4,4v17.98c0,2.21-1.79,4-4,4Zm0-47.95c-2.21,0-4-1.79-4-4v-17.98c0-2.21,1.79-4,4-4s4,1.79,4,4v17.98c0,2.21-1.79,4-4,4Zm0-47.95c-2.21,0-4-1.79-4-4v-17.98c0-2.21,1.79-4,4-4s4,1.79,4,4v17.98c0,2.21-1.79,4-4,4Zm0-47.95c-2.21,0-4-1.79-4-4v-17.98c0-2.21,1.79-4,4-4s4,1.79,4,4v17.98c0,2.21-1.79,4-4,4Zm0-47.95c-2.21,0-4-1.79-4-4v-17.98c0-2.21,1.79-4,4-4s4,1.79,4,4v17.98c0,2.21-1.79,4-4,4Zm0-47.95c-2.21,0-4-1.79-4-4v-17.98c0-2.21,1.79-4,4-4s4,1.79,4,4v17.98c0,2.21-1.79,4-4,4Zm0-47.95c-2.21,0-4-1.79-4-4v-17.98c0-2.21,1.79-4,4-4s4,1.79,4,4v17.98c0,2.21-1.79,4-4,4Z"/>
        <path class="cls-1" d="M1900.91,1235.02h-13c-2.21,0-4-1.79-4-4s1.79-4,4-4h5v-5c0-2.21,1.79-4,4-4s4,1.79,4,4v13Z"/>
        <path class="cls-1" d="M1858.66,1235.02h-17.55c-2.21,0-4-1.79-4-4s1.79-4,4-4h17.55c2.21,0,4,1.79,4,4s-1.79,4-4,4Zm-46.8,0h-17.55c-2.21,0-4-1.79-4-4s1.79-4,4-4h17.55c2.21,0,4,1.79,4,4s-1.79,4-4,4Zm-46.8,0h-17.55c-2.21,0-4-1.79-4-4s1.79-4,4-4h17.55c2.21,0,4,1.79,4,4s-1.79,4-4,4Zm-46.8,0h-17.55c-2.21,0-4-1.79-4-4s1.79-4,4-4h17.55c2.21,0,4,1.79,4,4s-1.79,4-4,4Zm-46.8,0h-17.55c-2.21,0-4-1.79-4-4s1.79-4,4-4h17.55c2.21,0,4,1.79,4,4s-1.79,4-4,4Zm-46.8,0h-17.55c-2.21,0-4-1.79-4-4s1.79-4,4-4h17.55c2.21,0,4,1.79,4,4s-1.79,4-4,4Zm-46.81,0h-17.55c-2.21,0-4-1.79-4-4s1.79-4,4-4h17.55c2.21,0,4,1.79,4,4s-1.79,4-4,4Zm-46.8,0h-17.55c-2.21,0-4-1.79-4-4s1.79-4,4-4h17.55c2.21,0,4,1.79,4,4s-1.79,4-4,4Zm-46.8,0h-17.55c-2.21,0-4-1.79-4-4s1.79-4,4-4h17.55c2.21,0,4,1.79,4,4s-1.79,4-4,4Zm-46.8,0h-17.55c-2.21,0-4-1.79-4-4s1.79-4,4-4h17.55c2.21,0,4,1.79,4,4s-1.79,4-4,4Zm-46.8,0h-17.55c-2.21,0-4-1.79-4-4s1.79-4,4-4h17.55c2.21,0,4,1.79,4,4s-1.79,4-4,4Zm-46.8,0h-17.55c-2.21,0-4-1.79-4-4s1.79-4,4-4h17.55c2.21,0,4,1.79,4,4s-1.79,4-4,4Zm-46.8,0h-17.55c-2.21,0-4-1.79-4-4s1.79-4,4-4h17.55c2.21,0,4,1.79,4,4s-1.79,4-4,4Z"/>
        <path class="cls-1" d="M1250.2,1235.02h-9c-2.21,0-4-1.79-4-4s1.79-4,4-4h9c2.21,0,4,1.79,4,4s-1.79,4-4,4Z"/>
      </g>
      <g>
        <path class="cls-1" d="M1818.02,524.72c-2.2,0-3.99-1.78-4-3.99l-.03-9c0-2.21,1.78-4.01,3.99-4.01h.01c2.2,0,3.99,1.78,4,3.99l.03,9c0,2.21-1.78,4.01-3.99,4.01h-.01Z"/>
        <path class="cls-1" d="M1819.47,986c-2.2,0-3.99-1.78-4-3.99l-.05-17.3c0-2.21,1.78-4.01,3.99-4.01h.01c2.2,0,3.99,1.78,4,3.99l.05,17.3c0,2.21-1.78,4.01-3.99,4.01h-.01Zm-.15-46.13c-2.2,0-3.99-1.78-4-3.99l-.05-17.3c0-2.21,1.78-4.01,3.99-4.01h.01c2.2,0,3.99,1.78,4,3.99l.05,17.3c0,2.21-1.78,4.01-3.99,4.01h-.01Zm-.15-46.13c-2.2,0-3.99-1.78-4-3.99l-.05-17.3c0-2.21,1.78-4.01,3.99-4.01h.01c2.2,0,3.99,1.78,4,3.99l.05,17.3c0,2.21-1.78,4.01-3.99,4.01h-.01Zm-.15-46.13c-2.2,0-3.99-1.78-4-3.99l-.05-17.3c0-2.21,1.78-4.01,3.99-4.01h.01c2.2,0,3.99,1.78,4,3.99l.05,17.3c0,2.21-1.78,4.01-3.99,4.01h-.01Zm-.15-46.13c-2.2,0-3.99-1.78-4-3.99l-.05-17.3c0-2.21,1.78-4.01,3.99-4.01h.01c2.2,0,3.99,1.78,4,3.99l.05,17.3c0,2.21-1.78,4.01-3.99,4.01h-.01Zm-.15-46.13c-2.2,0-3.99-1.78-4-3.99l-.05-17.3c0-2.21,1.78-4.01,3.99-4.01h.01c2.2,0,3.99,1.78,4,3.99l.05,17.3c0,2.21-1.78,4.01-3.99,4.01h-.01Zm-.15-46.13c-2.2,0-3.99-1.78-4-3.99l-.05-17.3c0-2.21,1.78-4.01,3.99-4.01h.01c2.2,0,3.99,1.78,4,3.99l.05,17.3c0,2.21-1.78,4.01-3.99,4.01h-.01Zm-.15-46.13c-2.2,0-3.99-1.78-4-3.99l-.05-17.3c0-2.21,1.78-4.01,3.99-4.01h.01c2.2,0,3.99,1.78,4,3.99l.05,17.3c0,2.21-1.78,4.01-3.99,4.01h-.01Zm-.15-46.13c-2.2,0-3.99-1.78-4-3.99l-.06-17.3c0-2.21,1.78-4.01,3.99-4.01h.01c2.2,0,3.99,1.78,4,3.99l.06,17.3c0,2.21-1.78,4.01-3.99,4.01h-.01Zm-.15-46.13c-2.2,0-3.99-1.78-4-3.99l-.05-17.3c0-2.21,1.78-4.01,3.99-4.01h.01c2.2,0,3.99,1.78,4,3.99l.05,17.3c0,2.21-1.78,4.01-3.99,4.01h-.01Z"/>
        <path class="cls-1" d="M1823.61,1023.83h-13.01c-2.21,0-4-1.79-4-4s1.79-4,4-4h4.99l-.02-4.99c0-2.21,1.78-4.01,3.99-4.01h.01c2.2,0,3.99,1.78,4,3.99l.04,13.01Z"/>
        <path class="cls-1" d="M1781.5,1023.83h-17.46c-2.21,0-4-1.79-4-4s1.79-4,4-4h17.46c2.21,0,4,1.79,4,4s-1.79,4-4,4Zm-46.55,0h-17.46c-2.21,0-4-1.79-4-4s1.79-4,4-4h17.46c2.21,0,4,1.79,4,4s-1.79,4-4,4Zm-46.55,0h-17.46c-2.21,0-4-1.79-4-4s1.79-4,4-4h17.46c2.21,0,4,1.79,4,4s-1.79,4-4,4Zm-46.55,0h-17.46c-2.21,0-4-1.79-4-4s1.79-4,4-4h17.46c2.21,0,4,1.79,4,4s-1.79,4-4,4Zm-46.55,0h-17.46c-2.21,0-4-1.79-4-4s1.79-4,4-4h17.46c2.21,0,4,1.79,4,4s-1.79,4-4,4Zm-46.55,0h-17.46c-2.21,0-4-1.79-4-4s1.79-4,4-4h17.46c2.21,0,4,1.79,4,4s-1.79,4-4,4Zm-46.55,0h-17.46c-2.21,0-4-1.79-4-4s1.79-4,4-4h17.46c2.21,0,4,1.79,4,4s-1.79,4-4,4Zm-46.55,0h-17.46c-2.21,0-4-1.79-4-4s1.79-4,4-4h17.46c2.21,0,4,1.79,4,4s-1.79,4-4,4Zm-46.55,0h-17.46c-2.21,0-4-1.79-4-4s1.79-4,4-4h17.46c2.21,0,4,1.79,4,4s-1.79,4-4,4Zm-46.55,0h-17.46c-2.21,0-4-1.79-4-4s1.79-4,4-4h17.46c2.21,0,4,1.79,4,4s-1.79,4-4,4Z"/>
        <path class="cls-1" d="M1316.03,1023.83h-9c-2.21,0-4-1.79-4-4s1.79-4,4-4h9c2.21,0,4,1.79,4,4s-1.79,4-4,4Z"/>
      </g>
      <g>
        <path class="cls-1" d="M1745.79,524.72c-2.21,0-4-1.79-4-4v-9c0-2.21,1.79-4,4-4s4,1.79,4,4v9c0,2.21-1.79,4-4,4Z"/>
        <path class="cls-1" d="M1745.79,782.03c-2.21,0-4-1.79-4-4v-19.3c0-2.21,1.79-4,4-4s4,1.79,4,4v19.3c0,2.21-1.79,4-4,4Zm0-51.46c-2.21,0-4-1.79-4-4v-19.3c0-2.21,1.79-4,4-4s4,1.79,4,4v19.3c0,2.21-1.79,4-4,4Zm0-51.46c-2.21,0-4-1.79-4-4v-19.3c0-2.21,1.79-4,4-4s4,1.79,4,4v19.3c0,2.21-1.79,4-4,4Zm0-51.46c-2.21,0-4-1.79-4-4v-19.3c0-2.21,1.79-4,4-4s4,1.79,4,4v19.3c0,2.21-1.79,4-4,4Zm0-51.46c-2.21,0-4-1.79-4-4v-19.3c0-2.21,1.79-4,4-4s4,1.79,4,4v19.3c0,2.21-1.79,4-4,4Z"/>
        <path class="cls-1" d="M1749.79,823.19h-13c-2.21,0-4-1.79-4-4s1.79-4,4-4h5v-5c0-2.21,1.79-4,4-4s4,1.79,4,4v13Z"/>
        <path class="cls-1" d="M1706.3,823.19h-18.29c-2.21,0-4-1.79-4-4s1.79-4,4-4h18.29c2.21,0,4,1.79,4,4s-1.79,4-4,4Zm-48.78,0h-18.29c-2.21,0-4-1.79-4-4s1.79-4,4-4h18.29c2.21,0,4,1.79,4,4s-1.79,4-4,4Zm-48.78,0h-18.29c-2.21,0-4-1.79-4-4s1.79-4,4-4h18.29c2.21,0,4,1.79,4,4s-1.79,4-4,4Zm-48.78,0h-18.29c-2.21,0-4-1.79-4-4s1.79-4,4-4h18.29c2.21,0,4,1.79,4,4s-1.79,4-4,4Zm-48.78,0h-18.29c-2.21,0-4-1.79-4-4s1.79-4,4-4h18.29c2.21,0,4,1.79,4,4s-1.79,4-4,4Zm-48.78,0h-18.29c-2.21,0-4-1.79-4-4s1.79-4,4-4h18.29c2.21,0,4,1.79,4,4s-1.79,4-4,4Zm-48.78,0h-18.29c-2.21,0-4-1.79-4-4s1.79-4,4-4h18.29c2.21,0,4,1.79,4,4s-1.79,4-4,4Zm-48.78,0h-18.29c-2.21,0-4-1.79-4-4s1.79-4,4-4h18.29c2.21,0,4,1.79,4,4s-1.79,4-4,4Z"/>
        <path class="cls-1" d="M1316.03,823.19h-9c-2.21,0-4-1.79-4-4s1.79-4,4-4h9c2.21,0,4,1.79,4,4s-1.79,4-4,4Z"/>
      </g>
      <g>
        <path class="cls-1" d="M1673.56,524.72c-2.21,0-4-1.79-4-3.99l-.02-9c0-2.21,1.78-4,3.99-4.01h0c2.21,0,4,1.79,4,3.99l.02,9c0,2.21-1.78,4-3.99,4.01h0Z"/>
        <path class="cls-1" d="M1673.67,574.82c-2.21,0-4-1.79-4-3.99l-.04-18.79c0-2.21,1.78-4,3.99-4.01h0c2.21,0,4,1.79,4,3.99l.04,18.79c0,2.21-1.78,4-3.99,4.01h0Z"/>
        <path class="cls-1" d="M1677.76,615.14h-13.01c-2.21,0-4-1.79-4-4s1.79-4,4-4h4.99v-4.99c-.01-2.21,1.77-4,3.98-4.01h0c2.21,0,4,1.79,4,3.99l.03,13.01Z"/>
        <path class="cls-1" d="M1637.07,615.14h-16.61c-2.21,0-4-1.79-4-4s1.79-4,4-4h16.61c2.21,0,4,1.79,4,4s-1.79,4-4,4Zm-44.28,0h-16.61c-2.21,0-4-1.79-4-4s1.79-4,4-4h16.61c2.21,0,4,1.79,4,4s-1.79,4-4,4Zm-44.28,0h-16.61c-2.21,0-4-1.79-4-4s1.79-4,4-4h16.61c2.21,0,4,1.79,4,4s-1.79,4-4,4Zm-44.28,0h-16.61c-2.21,0-4-1.79-4-4s1.79-4,4-4h16.61c2.21,0,4,1.79,4,4s-1.79,4-4,4Z"/>
        <path class="cls-1" d="M1459.94,615.14h-9c-2.21,0-4-1.79-4-4s1.79-4,4-4h9c2.21,0,4,1.79,4,4s-1.79,4-4,4Z"/>
      </g>
      <circle class="cls-1" cx="1673.75" cy="511.72" r="14.55"/>
      <circle class="cls-1" cx="1745.79" cy="511.72" r="14.55"/>
      <circle class="cls-1" cx="1819.6" cy="511.72" r="14.55"/>
      <circle class="cls-1" cx="1896.91" cy="511.72" r="14.55"/>
      <g>
        <path class="cls-1" d="M1456.37,627.32c-.84,0-1.69-.26-2.41-.81l-16.02-12.12c-1.76-1.33-2.11-3.84-.78-5.6,1.33-1.76,3.84-2.11,5.6-.78l16.02,12.12c1.76,1.33,2.11,3.84,.78,5.6-.79,1.04-1.98,1.59-3.19,1.59Z"/>
        <path class="cls-1" d="M1440.36,615.08c-1.21,0-2.41-.55-3.19-1.59-1.33-1.76-.99-4.27,.78-5.6l16.02-12.12c1.76-1.33,4.27-.99,5.6,.78,1.33,1.76,.99,4.27-.78,5.6l-16.02,12.12c-.72,.55-1.57,.81-2.41,.81Z"/>
      </g>
      <g>
        <path class="cls-1" d="M1313.04,835.37c-.84,0-1.69-.26-2.41-.81l-16.02-12.12c-1.76-1.33-2.11-3.84-.78-5.6,1.33-1.76,3.84-2.11,5.6-.78l16.02,12.12c1.76,1.33,2.11,3.84,.78,5.6-.79,1.04-1.98,1.59-3.19,1.59Z"/>
        <path class="cls-1" d="M1297.02,823.13c-1.21,0-2.41-.55-3.19-1.59-1.33-1.76-.99-4.27,.78-5.6l16.02-12.12c1.76-1.33,4.27-.99,5.6,.78,1.33,1.76,.99,4.27-.78,5.6l-16.02,12.12c-.72,.55-1.57,.81-2.41,.81Z"/>
      </g>
      <g>
        <path class="cls-1" d="M1312.75,1036.01c-.84,0-1.69-.26-2.41-.81l-16.02-12.12c-1.76-1.33-2.11-3.84-.78-5.6,1.33-1.76,3.84-2.11,5.6-.78l16.02,12.12c1.76,1.33,2.11,3.84,.78,5.6-.79,1.04-1.98,1.59-3.19,1.59Z"/>
        <path class="cls-1" d="M1296.74,1023.78c-1.21,0-2.41-.55-3.19-1.59-1.33-1.76-.99-4.27,.78-5.6l16.02-12.12c1.76-1.33,4.27-.99,5.6,.78,1.33,1.76,.99,4.27-.78,5.6l-16.02,12.12c-.72,.55-1.57,.81-2.41,.81Z"/>
      </g>
      <g>
        <path class="cls-1" d="M1246.96,1247.2c-.84,0-1.69-.26-2.41-.81l-16.02-12.12c-1.76-1.33-2.11-3.84-.78-5.6,1.33-1.76,3.84-2.11,5.6-.78l16.02,12.12c1.76,1.33,2.11,3.84,.78,5.6-.79,1.04-1.98,1.59-3.19,1.59Z"/>
        <path class="cls-1" d="M1230.95,1234.97c-1.21,0-2.41-.55-3.19-1.59-1.33-1.76-.99-4.27,.78-5.6l16.02-12.12c1.76-1.33,4.27-.99,5.6,.78,1.33,1.76,.99,4.27-.78,5.6l-16.02,12.12c-.72,.55-1.57,.81-2.41,.81Z"/>
      </g>
    </g>
  </g>
</svg>