<?xml version="1.0" encoding="UTF-8"?>
<svg id="Layer_2" data-name="Layer 2" xmlns="http://www.w3.org/2000/svg" viewBox="0 0 876.28 899.67">
  <defs>
    <style>
      .cls-1 {
        fill: #ffe3a6;
      }

      .cls-2 {
        fill: #ffb419;
      }

      .cls-3 {
        fill: #4b6496;
      }
    </style>
  </defs>
  <g id="data3">
    <g>
      <circle class="cls-1" cx="477.94" cy="501.32" r="398.34"/>
      <path class="cls-3" d="M513.57,488.52l283.16-99.16c11.81-4.13,24.74,2.49,28.11,14.54,14.91,53.28,17.38,109.39,7.07,163.95-36.69,194.15-226.63,323.72-420.78,287.03-194.15-36.69-323.72-226.63-287.03-420.78,35.24-186.49,211.9-313.4,397.85-290.6,12.49,1.53,21.1,13.29,18.76,25.65l-55.7,294.79c-3.11,16.46,12.76,30.11,28.57,24.58Z"/>
      <g>
        <path class="cls-3" d="M558.01,302.9c0-2.29,.4-4.41,1.21-6.34,.81-1.94,1.9-3.68,3.29-5.23,1.39-1.55,3.03-2.91,4.92-4.07s3.91-2.13,6.08-2.91c-1.58-.9-3.06-1.94-4.43-3.12-1.37-1.18-2.57-2.5-3.58-3.97-1.02-1.47-1.82-3.1-2.4-4.89-.58-1.79-.87-3.74-.87-5.84,0-3.2,.61-6.04,1.82-8.55,1.21-2.5,2.9-4.6,5.06-6.3,2.16-1.7,4.73-2.99,7.7-3.87,2.97-.89,6.21-1.33,9.73-1.33s6.74,.43,9.66,1.28c2.92,.86,5.44,2.13,7.55,3.83,2.11,1.7,3.75,3.8,4.92,6.32,1.16,2.52,1.74,5.44,1.74,8.77,0,1.78-.27,3.53-.82,5.28-.55,1.74-1.3,3.4-2.25,4.96-.95,1.57-2.08,3.03-3.39,4.38-1.31,1.36-2.74,2.55-4.29,3.58,2.55,1.1,4.82,2.24,6.8,3.41,1.99,1.18,3.64,2.48,4.96,3.9,1.32,1.42,2.33,3,3.03,4.75,.69,1.74,1.04,3.73,1.04,5.96,0,3.84-.79,7.26-2.37,10.24-1.58,2.99-3.7,5.51-6.37,7.58-2.66,2.07-5.72,3.64-9.18,4.72-3.45,1.08-7.07,1.62-10.85,1.62-3.52,0-7-.54-10.44-1.62-3.44-1.08-6.51-2.65-9.23-4.72-2.71-2.07-4.9-4.6-6.56-7.6-1.66-3-2.49-6.41-2.49-10.22Zm11.48-.58c0,2.26,.47,4.29,1.4,6.1,.94,1.81,2.19,3.34,3.75,4.6,1.57,1.26,3.37,2.23,5.42,2.91,2.05,.68,4.19,1.02,6.42,1.02,2.36,0,4.62-.27,6.8-.8,2.18-.53,4.11-1.36,5.79-2.49,1.68-1.13,3.03-2.56,4.04-4.29,1.02-1.73,1.53-3.78,1.53-6.17,0-1.13-.3-2.18-.9-3.15-.6-.97-1.4-1.86-2.42-2.69-1.02-.82-2.2-1.59-3.54-2.3-1.34-.71-2.76-1.36-4.26-1.96-1.5-.6-3.04-1.15-4.6-1.65-1.57-.5-3.08-.98-4.53-1.43-1.94,.39-3.81,.91-5.62,1.57-1.81,.66-3.4,1.49-4.77,2.49-1.37,1-2.47,2.18-3.29,3.53s-1.23,2.92-1.23,4.7Zm18.06-22.03c1.65-.42,3.2-1.07,4.65-1.96,1.45-.89,2.71-1.94,3.78-3.15s1.9-2.55,2.52-4.02c.61-1.47,.92-2.98,.92-4.53,0-1.9-.37-3.51-1.11-4.82-.74-1.31-1.71-2.37-2.91-3.2-1.19-.82-2.57-1.42-4.12-1.79-1.55-.37-3.12-.56-4.7-.56s-3.12,.16-4.72,.48c-1.6,.32-3.03,.87-4.31,1.65-1.28,.77-2.32,1.82-3.12,3.15-.81,1.32-1.21,3-1.21,5.04,0,1.58,.42,3.06,1.26,4.43,.84,1.37,1.94,2.62,3.29,3.75,1.36,1.13,2.89,2.15,4.6,3.07,1.71,.92,3.44,1.74,5.18,2.45Z"/>
        <path class="cls-3" d="M622.25,310.65c-.68,0-1.38-.09-2.11-.27-.73-.18-1.39-.48-1.99-.9-.6-.42-1.09-.98-1.48-1.7-.39-.71-.58-1.58-.58-2.61,0-1.19,.23-2.17,.68-2.93,.45-.76,1.03-1.36,1.74-1.79,.71-.44,1.49-.74,2.35-.92,.86-.18,1.69-.28,2.49-.31,2.07-2.23,4.02-4.7,5.86-7.43,1.84-2.73,3.47-5.63,4.89-8.72,1.42-3.08,2.58-6.29,3.49-9.61,.9-3.33,1.48-6.68,1.74-10.07,.03-.61,.06-1.32,.1-2.13,.03-.81,.06-1.74,.07-2.81,.02-1.07,.02-2.28,.02-3.66v-4.72c0-.9,.18-1.69,.53-2.37,.36-.68,.8-1.24,1.33-1.7,.53-.45,1.13-.79,1.79-1.02,.66-.23,1.31-.34,1.96-.34,1.16,0,2.11,.19,2.83,.56,.73,.37,1.29,.94,1.7,1.72,.4,.77,.69,1.75,.85,2.93,.16,1.18,.24,2.58,.24,4.19,0,2.74-.22,5.6-.65,8.57-.44,2.97-1.03,5.94-1.77,8.91-.74,2.97-1.6,5.88-2.57,8.72-.97,2.84-1.99,5.5-3.08,7.97-1.08,2.47-2.19,4.69-3.32,6.66-1.13,1.97-2.21,3.55-3.24,4.75,4.04,0,8.14-.02,12.3-.07,4.16-.05,8.36-.1,12.59-.17-.03-3.81-.05-7.73-.05-11.77v-11.91c0-.87,.16-1.65,.48-2.32,.32-.68,.75-1.24,1.28-1.7,.53-.45,1.11-.79,1.74-1.02,.63-.23,1.27-.34,1.91-.34s1.25,.11,1.91,.34c.66,.23,1.25,.57,1.77,1.02,.52,.45,.94,1.02,1.28,1.7s.51,1.45,.51,2.32v3.75c0,1.34,0,2.7,.02,4.07,.02,1.37,.02,2.72,.02,4.04v11.67h3.27c1.08,0,2.17-.02,3.27-.05,.87,0,1.65,.16,2.32,.48,.68,.32,1.25,.73,1.72,1.23,.47,.5,.83,1.06,1.09,1.67,.26,.61,.39,1.19,.39,1.74,0,.52-.09,1.08-.27,1.7-.18,.61-.46,1.18-.85,1.7-.39,.52-.89,.95-1.5,1.31-.61,.36-1.36,.53-2.23,.53-1.07,0-2.2,0-3.41-.02-1.21-.02-2.48-.02-3.8-.02,.03,3.23,.05,6.52,.05,9.88v9.44c0,.87-.18,1.61-.53,2.23-.36,.61-.8,1.13-1.33,1.55-.53,.42-1.11,.73-1.74,.92s-1.23,.29-1.82,.29c-.55,0-1.15-.1-1.79-.29-.65-.19-1.23-.5-1.77-.92-.53-.42-.98-.94-1.33-1.55-.36-.61-.53-1.36-.53-2.23v-10.07c0-1.55,0-3.08-.02-4.6-.02-1.52-.02-3.1-.02-4.75h-18.38c-2.02,0-3.95,0-5.79,.02-1.84,.02-3.54,.03-5.11,.05-1.57,.02-2.9,.04-4,.07h.1c-.55,.26-1.12,.46-1.72,.61-.6,.15-1.16,.26-1.69,.34-.53,.08-1.01,.13-1.43,.15-.42,.02-.69,.02-.82,.02Z"/>
        <path class="cls-3" d="M706.84,292.44c-1.38,0-2.78-.17-4.2-.5-1.42-.33-2.79-.82-4.11-1.44-1.32-.63-2.56-1.4-3.72-2.31-1.16-.91-2.17-1.96-3.04-3.15-.86-1.19-1.54-2.5-2.04-3.94-.49-1.44-.74-3.01-.74-4.68,0-2.1,.39-4.2,1.17-6.3,.78-2.1,1.87-3.98,3.28-5.65s3.09-3.02,5.05-4.07c1.96-1.05,4.14-1.57,6.54-1.57,.94,0,1.9,.07,2.89,.22,.99,.15,1.91,.58,2.78,1.3,.12-.02,.25-.04,.39-.06,.14-.01,.25-.02,.35-.02,.39,0,.75,.06,1.07,.19,1.6,.64,3.03,1.48,4.28,2.52,1.25,1.04,2.3,2.2,3.17,3.5,.86,1.3,1.52,2.68,1.96,4.17,.44,1.48,.67,3,.67,4.56,0,2.2-.38,4.33-1.15,6.41-.77,2.07-1.85,3.91-3.24,5.52-1.4,1.6-3.05,2.89-4.98,3.87s-4.05,1.46-6.37,1.46Zm-.48-8.07c1.21,0,2.3-.29,3.26-.87s1.78-1.33,2.44-2.24c.67-.91,1.17-1.91,1.52-3,.35-1.09,.52-2.15,.52-3.18,0-.86-.15-1.72-.44-2.56-.3-.84-.7-1.62-1.22-2.35s-1.13-1.36-1.83-1.91c-.7-.54-1.46-.95-2.28-1.22-.1,.02-.28,.04-.56,.04-.35,0-.62,0-.83-.02-.21-.01-.4-.03-.57-.06-.12-.02-.23-.04-.31-.04h-.2c-1.23,0-2.36,.25-3.39,.76-1.02,.51-1.9,1.2-2.63,2.09-.73,.89-1.3,1.93-1.7,3.13-.41,1.2-.61,2.49-.61,3.87,0,1.16,.25,2.21,.76,3.15,.51,.94,1.17,1.73,2,2.39,.83,.65,1.77,1.15,2.83,1.5,1.06,.35,2.15,.52,3.26,.52Zm6.26,32.4c0-.57,.12-1.09,.35-1.57,.23-.48,.49-.89,.76-1.24,.02-.05,.07-.14,.13-.26,.06-.12,.19-.4,.37-.83,.19-.43,.46-1.09,.81-1.98,.36-.89,.85-2.14,1.48-3.74,.63-1.6,1.41-3.62,2.35-6.05,.94-2.43,2.09-5.41,3.44-8.94,1.36-3.53,2.94-7.67,4.76-12.42s3.92-10.24,6.31-16.46v.04c.2-.76,.43-1.54,.69-2.31,.26-.78,.58-1.48,.96-2.09,.38-.62,.85-1.12,1.41-1.52,.56-.39,1.24-.59,2.06-.59,.49,0,.99,.09,1.5,.26,.51,.17,.96,.43,1.35,.78,.39,.35,.72,.78,.96,1.3,.25,.52,.37,1.11,.37,1.78,0,.35-.04,.72-.11,1.13-.07,.41-.17,.81-.28,1.2-.11,.4-.22,.76-.33,1.09-.11,.33-.22,.59-.31,.76l-20.33,52.4v-.04c-.12,.49-.27,.97-.43,1.43-.16,.46-.38,.87-.65,1.24-.27,.37-.63,.67-1.07,.89-.44,.22-1.01,.33-1.7,.33-.86,0-1.6-.14-2.22-.41-.62-.27-1.12-.62-1.52-1.06-.4-.43-.68-.92-.85-1.46-.17-.54-.26-1.09-.26-1.63Zm20.52-12.48c0-1.38,.17-2.78,.52-4.2,.35-1.42,.85-2.78,1.52-4.07,.67-1.3,1.47-2.51,2.43-3.63,.95-1.12,2.02-2.1,3.2-2.94,1.18-.84,2.48-1.5,3.89-1.98,1.41-.48,2.91-.72,4.52-.72,.47,0,.95,.01,1.44,.04,.49,.03,.98,.09,1.46,.19,.48,.1,.96,.25,1.43,.46,.47,.21,.93,.5,1.37,.87,.25-.05,.48-.07,.7-.07,.39,0,.75,.05,1.07,.15,1.58,.64,3,1.48,4.26,2.52,1.26,1.04,2.31,2.2,3.17,3.5,.85,1.3,1.51,2.69,1.96,4.18,.46,1.49,.69,3.02,.69,4.57,0,2.2-.38,4.33-1.15,6.39-.77,2.06-1.84,3.9-3.22,5.52-1.38,1.62-3.04,2.91-4.96,3.89-1.93,.97-4.05,1.46-6.37,1.46-2.1,0-4.22-.35-6.35-1.06-2.14-.7-4.06-1.73-5.78-3.09-1.72-1.36-3.11-3.04-4.18-5.04-1.07-2-1.61-4.31-1.61-6.92Zm8.55,.44c0,1.16,.25,2.21,.74,3.15,.49,.94,1.15,1.73,1.98,2.39,.83,.65,1.77,1.15,2.83,1.5,1.06,.35,2.16,.52,3.3,.52,1.21,0,2.3-.29,3.26-.87,.96-.58,1.78-1.32,2.44-2.22,.67-.9,1.17-1.9,1.52-3,.35-1.1,.52-2.15,.52-3.17,0-.86-.15-1.72-.44-2.57s-.7-1.64-1.22-2.37c-.52-.73-1.13-1.36-1.83-1.91s-1.45-.95-2.24-1.22c-.1,.05-.2,.07-.3,.07h-.33c-.32,0-.58-.01-.78-.04-.2-.02-.4-.05-.59-.07-.12-.02-.23-.04-.31-.04h-.28c-1.23,0-2.36,.26-3.37,.78-1.01,.52-1.88,1.22-2.59,2.11-.72,.89-1.28,1.93-1.68,3.13-.41,1.2-.61,2.48-.61,3.83Z"/>
        <path class="cls-3" d="M563.36,367.63c0-.27,.01-.54,.04-.8,.02-.26,.05-.5,.07-.72v-15.56c0-1.03,0-2.05,0-3.05,0-1,0-2.02,0-3.06-.06-.17-.12-.41-.18-.72-.06-.31-.08-.6-.08-.87s.04-.52,.12-.78c.08-.26,.2-.49,.37-.7,.17-.2,.37-.37,.62-.49,.25-.12,.53-.19,.85-.19,.52,0,1.05,.03,1.58,.09,.53,.06,1.13,.09,1.8,.09,.56,0,1.11-.03,1.67-.08,.56-.06,1.15-.09,1.78-.1,1.87,0,3.56,.19,5.08,.56,1.52,.37,2.81,.95,3.88,1.73,1.07,.78,1.9,1.77,2.48,2.98,.58,1.21,.87,2.65,.87,4.32,0,1.59-.22,2.99-.66,4.23-.44,1.23-1,2.31-1.69,3.22s-1.46,1.68-2.3,2.29c-.85,.61-1.67,1.08-2.48,1.4,.11,.67,.29,1.3,.53,1.89,.24,.59,.55,1.11,.93,1.55,.38,.45,.82,.8,1.33,1.06,.51,.26,1.08,.39,1.71,.39,.47,0,.9-.07,1.29-.22,.39-.15,.73-.44,1.01-.87,.17-.25,.38-.47,.63-.66,.25-.19,.56-.29,.95-.29,.67,0,1.19,.19,1.56,.56,.37,.37,.56,.84,.56,1.41,0,.53-.15,1.04-.46,1.52-.3,.48-.73,.91-1.28,1.27-.55,.37-1.22,.66-2,.87-.78,.22-1.65,.32-2.6,.32-.88,0-1.67-.13-2.39-.38-.71-.25-1.35-.59-1.91-1.02-.56-.43-1.06-.92-1.5-1.47-.43-.55-.81-1.13-1.11-1.73-.31-.6-.56-1.2-.76-1.79-.2-.59-.35-1.15-.46-1.67h-1.36c-.26,0-.52,0-.77,0-.25,0-.46,0-.62,0-.36-.01-.8-.02-1.33-.03-.53,0-1.01,0-1.44,0v2.71c.02,.58,.1,1.15,.22,1.7,.12,.55,.19,1.12,.19,1.7,0,.36-.07,.66-.21,.91-.14,.25-.32,.46-.55,.62-.22,.17-.46,.29-.72,.36-.26,.07-.51,.11-.74,.11-.37,0-.71-.06-1.02-.19-.31-.13-.58-.31-.8-.54-.22-.23-.4-.5-.53-.82-.13-.32-.2-.67-.2-1.05Zm4.35-9.51c.32,.01,.7,.02,1.13,.04,.43,.01,.85,.03,1.24,.04,.4,.01,.75,.02,1.06,.03,.31,0,.51,0,.59,0,1.67,0,3.04-.23,4.11-.69,1.07-.46,1.91-1.06,2.52-1.82,.61-.75,1.02-1.62,1.25-2.6,.23-.98,.34-1.98,.34-3.01,0-.9-.14-1.67-.43-2.29-.28-.63-.66-1.14-1.13-1.55-.47-.41-1-.73-1.6-.97-.59-.24-1.2-.41-1.81-.52-.61-.11-1.21-.18-1.8-.2-.59-.02-1.11-.04-1.55-.04-.63,0-1.27,0-1.92,.03-.65,.02-1.35,.03-2.11,.05-.02,.47-.04,.9-.05,1.28,0,.38-.01,.76-.02,1.12,0,.37,0,.74,0,1.11v1.27c0,.84,0,1.62,0,2.35,0,.72,.02,1.43,.03,2.12,.01,.69,.03,1.38,.05,2.07,.02,.69,.05,1.42,.08,2.17Zm8.71,3.57s-.02,0-.02,.02l.02-.02Z"/>
        <path class="cls-3" d="M591.87,367.59c0-.21,.03-.43,.08-.67s.11-.45,.18-.65l.17-.59-.43-22.21c0-.61,.07-1.08,.21-1.41,.14-.33,.32-.58,.55-.74,.22-.16,.48-.25,.77-.28,.29-.02,.59-.04,.88-.04h9.79c.22-.02,.47-.06,.75-.1,.28-.04,.47-.07,.59-.07,.47,0,.85,.04,1.14,.13,.29,.09,.52,.21,.69,.38,.17,.17,.28,.37,.33,.62,.06,.25,.08,.54,.08,.87,0,.47-.06,.85-.18,1.13-.12,.29-.28,.5-.48,.66-.2,.16-.44,.26-.72,.31-.27,.05-.56,.07-.87,.07-.14,0-.32,0-.54,0s-.46-.02-.71-.05h-2.91c-.74,0-1.33,0-1.76,0-.44,0-.77,0-1,0h-2.33v5.89c.07,0,.16,0,.27,0,.1,0,.27,0,.49,0h8.43c.14,0,.29,0,.46-.02,.17-.01,.35-.03,.52-.06,.22-.02,.48-.05,.78-.07,.3-.02,.62-.04,.97-.04s.63,.07,.89,.2c.26,.14,.48,.31,.66,.51,.18,.2,.32,.42,.41,.66,.09,.24,.14,.46,.14,.67,0,.67-.22,1.16-.66,1.47-.44,.31-1.01,.46-1.7,.46l-11.66,.02v11.13c1.23,0,2.46,.02,3.7,.06,1.24,.04,2.53,.06,3.88,.06,.37,0,.71-.02,1.02-.06,.31-.04,.61-.08,.89-.13,.26-.04,.52-.07,.79-.1,.27-.03,.56-.05,.88-.05,.37,0,.72,.03,1.03,.08,.32,.06,.59,.16,.83,.3,.24,.14,.42,.33,.56,.58,.14,.24,.2,.55,.2,.92,0,.55-.09,.97-.28,1.26s-.44,.52-.75,.66c-.32,.14-.68,.23-1.08,.26-.4,.03-.82,.05-1.25,.05h-12.5c-.32,0-.62-.04-.88-.11-.27-.07-.5-.19-.7-.36-.2-.17-.35-.38-.46-.65-.11-.27-.17-.59-.17-.97Z"/>
        <path class="cls-3" d="M614.22,355.65c0-1.78,.2-3.4,.59-4.84s.93-2.73,1.61-3.85c.68-1.13,1.48-2.1,2.4-2.92,.92-.82,1.91-1.49,2.97-2.02,1.06-.53,2.18-.93,3.33-1.18,1.16-.25,2.31-.38,3.46-.38,1.05,0,2.09,.1,3.1,.29,1.02,.19,2.02,.46,3.01,.81,.3,.11,.6,.22,.9,.32,.3,.11,.58,.24,.82,.4,.24,.16,.44,.37,.59,.61,.15,.25,.22,.56,.22,.95,0,.45-.07,.81-.21,1.11-.14,.29-.32,.52-.55,.7-.22,.17-.47,.3-.73,.37-.27,.07-.52,.11-.77,.11-.17,0-.36-.03-.56-.08-.2-.06-.4-.13-.61-.21-.21-.09-.42-.19-.61-.31-.2-.12-.38-.23-.54-.34-.45-.19-.86-.32-1.25-.42-.39-.09-.76-.16-1.12-.2-.36-.04-.71-.07-1.06-.07-.35,0-.69,0-1.04,0-.78,0-1.56,.09-2.34,.27-.78,.18-1.53,.46-2.26,.84s-1.4,.85-2.03,1.42-1.18,1.25-1.64,2.03c-.46,.79-.83,1.68-1.1,2.68-.27,1-.4,2.12-.4,3.36,0,2.06,.29,3.79,.88,5.21,.59,1.42,1.36,2.57,2.3,3.45,.95,.88,2.02,1.51,3.2,1.9s2.39,.59,3.6,.59c.56,0,1.11-.03,1.64-.1,.54-.07,1.04-.15,1.5-.26,.46-.1,.88-.22,1.24-.35,.36-.13,.63-.26,.82-.4,.37-.32,.7-.57,.98-.73,.28-.17,.61-.25,.98-.25,.28,0,.55,.03,.81,.09,.25,.06,.47,.17,.66,.32,.19,.16,.33,.36,.45,.6,.11,.25,.17,.56,.17,.93,0,.52-.18,.99-.53,1.42-.35,.43-.92,.83-1.7,1.2v-.02c-.26,.15-.64,.32-1.14,.5s-1.07,.36-1.69,.51c-.63,.15-1.28,.28-1.98,.39-.69,.1-1.37,.16-2.04,.16-1.52,0-2.93-.18-4.23-.55-1.29-.37-2.47-.87-3.53-1.52-1.06-.65-2-1.43-2.81-2.33-.82-.9-1.5-1.89-2.06-2.97-.56-1.08-.98-2.23-1.26-3.45-.28-1.22-.43-2.47-.43-3.76Z"/>
        <path class="cls-3" d="M640.51,355.33c0-2.2,.31-4.22,.94-6.04,.63-1.82,1.51-3.39,2.66-4.7,1.15-1.31,2.53-2.33,4.14-3.06,1.62-.72,3.41-1.09,5.38-1.09,2.08,0,3.92,.36,5.51,1.09,1.59,.72,2.93,1.74,4.01,3.06,1.08,1.31,1.9,2.88,2.46,4.7,.56,1.82,.84,3.83,.84,6.04s-.3,4.05-.91,5.86c-.61,1.81-1.47,3.39-2.6,4.73-1.13,1.34-2.49,2.39-4.09,3.16-1.6,.77-3.39,1.15-5.37,1.15-1.31,0-2.54-.17-3.7-.52s-2.21-.84-3.17-1.49c-.96-.64-1.82-1.41-2.57-2.31-.76-.9-1.4-1.9-1.92-3-.53-1.1-.93-2.29-1.2-3.57-.27-1.28-.41-2.61-.41-4.01Zm4.23,0c0,.93,.09,1.85,.26,2.76,.17,.91,.43,1.78,.77,2.6,.34,.82,.76,1.59,1.26,2.28,.5,.7,1.08,1.31,1.73,1.82,.65,.51,1.37,.92,2.17,1.21,.8,.29,1.66,.44,2.59,.44,.98,0,1.87-.15,2.67-.44,.8-.29,1.53-.69,2.17-1.21,.64-.51,1.2-1.12,1.68-1.82,.48-.7,.87-1.46,1.19-2.28,.32-.82,.55-1.69,.71-2.6,.15-.91,.23-1.83,.23-2.76,0-1.49-.17-2.89-.52-4.23-.35-1.33-.88-2.5-1.59-3.52-.71-1.02-1.61-1.82-2.69-2.41-1.08-.59-2.37-.89-3.85-.89-1.4,0-2.64,.27-3.73,.8-1.09,.53-2.01,1.28-2.76,2.25-.75,.97-1.32,2.13-1.71,3.48s-.59,2.86-.59,4.52Z"/>
        <path class="cls-3" d="M678.12,368.35c-.46-1.28-.95-2.63-1.49-4.05-.53-1.42-1.08-2.85-1.63-4.29-.56-1.44-1.11-2.84-1.64-4.21-.54-1.37-1.04-2.63-1.5-3.78-.43-1.08-.85-2.11-1.24-3.09s-.74-1.88-1.04-2.68c-.3-.8-.56-1.5-.77-2.08s-.35-1.02-.41-1.3c-.09-.33-.09-.64,0-.93,.08-.28,.22-.54,.41-.75,.19-.22,.43-.38,.71-.5,.28-.12,.59-.18,.92-.18,.89,0,1.51,.4,1.86,1.19,.17,.43,.43,1.08,.77,1.93,.34,.85,.73,1.85,1.17,2.99,.44,1.14,.92,2.38,1.44,3.72s1.05,2.71,1.59,4.11c.54,1.4,1.07,2.8,1.59,4.19,.52,1.39,1.01,2.7,1.47,3.93,.48-1.26,.97-2.54,1.46-3.84,.49-1.29,.97-2.57,1.44-3.82,.47-1.25,.92-2.46,1.36-3.62,.43-1.16,.83-2.25,1.2-3.26,.37-1.01,.7-1.92,.99-2.74,.3-.82,.54-1.5,.72-2.06,.01-.27,.07-.57,.19-.89,.11-.32,.27-.62,.47-.9,.2-.28,.45-.51,.75-.71s.64-.29,1.04-.29c.28,0,.56,.06,.84,.17,.27,.11,.51,.26,.72,.45,.21,.19,.38,.42,.51,.7s.2,.56,.2,.87c0,.26-.04,.52-.11,.78-.07,.26-.16,.51-.27,.75-.11,.24-.22,.46-.33,.67-.12,.2-.22,.37-.31,.51l-.02,.04c-.58,1.34-1.11,2.59-1.6,3.77-.48,1.18-.94,2.32-1.37,3.42-.43,1.1-.85,2.18-1.24,3.22-.39,1.05-.78,2.11-1.18,3.19-.46,1.25-.97,2.62-1.53,4.1-.56,1.48-1.17,3.04-1.81,4.69,.02,.1,.04,.2,.06,.32,.01,.11,.02,.22,.02,.32,0,.38-.06,.69-.2,.93-.13,.24-.3,.42-.52,.56-.22,.14-.47,.23-.75,.28-.28,.05-.58,.07-.87,.07-.36,0-.65-.06-.88-.17-.23-.11-.42-.26-.57-.45-.15-.19-.27-.39-.35-.61-.09-.22-.17-.45-.24-.67Z"/>
        <path class="cls-3" d="M696.16,367.59c0-.21,.03-.43,.08-.67s.11-.45,.18-.65l.17-.59-.43-22.21c0-.61,.07-1.08,.21-1.41,.14-.33,.32-.58,.55-.74,.22-.16,.48-.25,.77-.28,.29-.02,.59-.04,.88-.04h9.79c.22-.02,.47-.06,.75-.1,.28-.04,.47-.07,.59-.07,.47,0,.85,.04,1.14,.13,.29,.09,.52,.21,.69,.38,.17,.17,.28,.37,.33,.62,.06,.25,.08,.54,.08,.87,0,.47-.06,.85-.18,1.13-.12,.29-.28,.5-.48,.66-.2,.16-.44,.26-.72,.31-.27,.05-.56,.07-.87,.07-.14,0-.32,0-.54,0s-.46-.02-.71-.05h-2.91c-.74,0-1.33,0-1.76,0-.44,0-.77,0-1,0h-2.33v5.89c.07,0,.16,0,.27,0,.1,0,.27,0,.49,0h8.43c.14,0,.29,0,.46-.02,.17-.01,.35-.03,.52-.06,.22-.02,.48-.05,.78-.07,.3-.02,.62-.04,.97-.04s.63,.07,.89,.2c.26,.14,.48,.31,.66,.51,.18,.2,.32,.42,.41,.66,.09,.24,.14,.46,.14,.67,0,.67-.22,1.16-.66,1.47-.44,.31-1.01,.46-1.7,.46l-11.66,.02v11.13c1.23,0,2.46,.02,3.7,.06,1.24,.04,2.53,.06,3.88,.06,.37,0,.71-.02,1.02-.06,.31-.04,.61-.08,.89-.13,.26-.04,.52-.07,.79-.1,.27-.03,.56-.05,.88-.05,.37,0,.72,.03,1.03,.08,.32,.06,.59,.16,.83,.3,.24,.14,.42,.33,.56,.58,.14,.24,.2,.55,.2,.92,0,.55-.09,.97-.28,1.26s-.44,.52-.75,.66c-.32,.14-.68,.23-1.08,.26-.4,.03-.82,.05-1.25,.05h-12.5c-.32,0-.62-.04-.88-.11-.27-.07-.5-.19-.7-.36-.2-.17-.35-.38-.46-.65-.11-.27-.17-.59-.17-.97Z"/>
        <path class="cls-3" d="M719.35,367.63c0-.27,.01-.54,.04-.8,.02-.26,.05-.5,.07-.72v-15.56c0-1.03,0-2.05,0-3.05,0-1,0-2.02,0-3.06-.06-.17-.12-.41-.18-.72-.06-.31-.08-.6-.08-.87s.04-.52,.12-.78c.08-.26,.2-.49,.37-.7,.17-.2,.37-.37,.62-.49,.25-.12,.53-.19,.85-.19,.52,0,1.05,.03,1.58,.09,.53,.06,1.13,.09,1.8,.09,.56,0,1.11-.03,1.67-.08,.56-.06,1.15-.09,1.78-.1,1.87,0,3.56,.19,5.08,.56,1.52,.37,2.81,.95,3.88,1.73,1.07,.78,1.9,1.77,2.48,2.98,.58,1.21,.87,2.65,.87,4.32,0,1.59-.22,2.99-.66,4.23-.44,1.23-1,2.31-1.69,3.22s-1.46,1.68-2.3,2.29c-.85,.61-1.67,1.08-2.48,1.4,.11,.67,.29,1.3,.53,1.89,.24,.59,.55,1.11,.93,1.55,.38,.45,.82,.8,1.33,1.06,.51,.26,1.08,.39,1.71,.39,.47,0,.9-.07,1.29-.22,.39-.15,.73-.44,1.01-.87,.17-.25,.38-.47,.63-.66,.25-.19,.56-.29,.95-.29,.67,0,1.19,.19,1.56,.56,.37,.37,.56,.84,.56,1.41,0,.53-.15,1.04-.46,1.52-.3,.48-.73,.91-1.28,1.27-.55,.37-1.22,.66-2,.87-.78,.22-1.65,.32-2.6,.32-.88,0-1.67-.13-2.39-.38-.71-.25-1.35-.59-1.91-1.02-.56-.43-1.06-.92-1.5-1.47-.43-.55-.81-1.13-1.11-1.73-.31-.6-.56-1.2-.76-1.79-.2-.59-.35-1.15-.46-1.67h-1.36c-.26,0-.52,0-.77,0-.25,0-.46,0-.62,0-.36-.01-.8-.02-1.33-.03-.53,0-1.01,0-1.44,0v2.71c.02,.58,.1,1.15,.22,1.7,.12,.55,.19,1.12,.19,1.7,0,.36-.07,.66-.21,.91-.14,.25-.32,.46-.55,.62-.22,.17-.46,.29-.72,.36-.26,.07-.51,.11-.74,.11-.37,0-.71-.06-1.02-.19-.31-.13-.58-.31-.8-.54-.22-.23-.4-.5-.53-.82-.13-.32-.2-.67-.2-1.05Zm4.35-9.51c.32,.01,.7,.02,1.13,.04,.43,.01,.85,.03,1.24,.04,.4,.01,.75,.02,1.06,.03,.31,0,.51,0,.59,0,1.67,0,3.04-.23,4.11-.69,1.07-.46,1.91-1.06,2.52-1.82,.61-.75,1.02-1.62,1.25-2.6,.23-.98,.34-1.98,.34-3.01,0-.9-.14-1.67-.43-2.29-.28-.63-.66-1.14-1.13-1.55-.47-.41-1-.73-1.6-.97-.59-.24-1.2-.41-1.81-.52-.61-.11-1.21-.18-1.8-.2-.59-.02-1.11-.04-1.55-.04-.63,0-1.27,0-1.92,.03-.65,.02-1.35,.03-2.11,.05-.02,.47-.04,.9-.05,1.28,0,.38-.01,.76-.02,1.12,0,.37,0,.74,0,1.11v1.27c0,.84,0,1.62,0,2.35,0,.72,.02,1.43,.03,2.12,.01,.69,.03,1.38,.05,2.07,.02,.69,.05,1.42,.08,2.17Zm8.71,3.57s-.02,0-.02,.02l.02-.02Z"/>
        <path class="cls-3" d="M752.29,368.41c0-.45,0-.85,.02-1.2,.01-.35,.03-.72,.05-1.1,.02-.38,.04-.8,.06-1.25,.02-.46,.03-1.02,.04-1.69,0-.67,0-1.47,0-2.41,0-.94-.02-2.08-.05-3.42-.9-1.52-1.73-2.89-2.47-4.1-.74-1.21-1.43-2.31-2.06-3.3-.63-.99-1.22-1.9-1.77-2.72-.55-.82-1.09-1.61-1.61-2.35-.32-.47-.59-.89-.8-1.26-.21-.37-.32-.71-.32-1,0-.71,.21-1.24,.64-1.6,.43-.36,.99-.54,1.68-.54,.27,0,.52,.08,.75,.24,.23,.16,.44,.37,.63,.62,.19,.25,.37,.54,.53,.85,.16,.32,.3,.63,.43,.94,.41,.82,.85,1.61,1.32,2.38,.47,.77,.96,1.53,1.46,2.28,.5,.75,1.01,1.5,1.53,2.27,.52,.76,1.03,1.54,1.52,2.33l.59,.98,.58-.98c1.39-2.14,2.58-4.02,3.59-5.65,1.01-1.62,1.76-2.91,2.26-3.86h-.02c.12-.32,.25-.63,.39-.92,.14-.29,.29-.54,.46-.76,.17-.22,.37-.39,.59-.52,.22-.13,.49-.2,.8-.2,.27,0,.54,.03,.82,.08,.27,.06,.52,.16,.73,.32,.22,.16,.39,.38,.53,.66,.14,.28,.2,.64,.2,1.09,0,.22-.06,.53-.19,.92-.12,.39-.41,.8-.85,1.22-.76,1.18-1.51,2.35-2.27,3.52-.76,1.17-1.48,2.3-2.16,3.38s-1.33,2.11-1.92,3.08c-.59,.97-1.1,1.85-1.52,2.63-.07,.72-.11,1.52-.1,2.4,0,.88,.03,1.8,.07,2.76,.04,.96,.09,1.93,.14,2.93,.05,.99,.07,1.95,.07,2.88,0,.25-.03,.49-.1,.72-.07,.24-.18,.44-.34,.61-.16,.17-.38,.31-.67,.42-.28,.11-.64,.16-1.06,.16-.33,0-.63-.05-.9-.15-.27-.1-.5-.23-.7-.4-.2-.17-.35-.36-.45-.58-.11-.22-.16-.46-.16-.71Z"/>
      </g>
      <g>
        <circle class="cls-1" cx="53.27" cy="53.27" r="53.27"/>
        <path class="cls-2" d="M477.44,788.01c-70.49,0-137.51-25.39-190.34-72.44-57.06-50.83-90.93-121.04-95.36-197.71-4.31-74.62,20.16-146.91,68.92-203.54,48.63-56.49,116.21-91.44,190.29-98.4,3.06-.29,5.32-2.87,5.15-5.89-.09-1.54-.78-2.94-1.95-3.94-1.14-.98-2.58-1.45-4.06-1.31-54.56,5.08-106.42,24.95-149.96,57.48-22.37,16.71-54.27,14.28-74.21-5.66l-74.98-74.98c-15.79-15.79-36.78-24.48-59.1-24.48h-8.21c-19.49,0-35.34-15.85-35.34-35.34V21.16c0-2.76,2.24-5,5-5s5,2.24,5,5V121.81c0,13.97,11.37,25.34,25.34,25.34h8.21c25,0,48.5,9.73,66.17,27.41l74.98,74.98c16.45,16.45,42.74,18.47,61.15,4.71,45.02-33.63,98.62-54.18,155.02-59.43,4.2-.39,8.29,.92,11.51,3.68,3.2,2.75,5.17,6.74,5.41,10.95,.49,8.42-5.75,15.63-14.2,16.42-148.91,13.99-258.79,141.99-250.16,291.4,4.28,74,36.96,141.77,92.03,190.82,50.97,45.4,115.67,69.91,183.7,69.91,5.47,0,10.95-.16,16.45-.48,152.3-8.8,269.04-139.87,260.24-292.17-.16-2.76,1.95-5.12,4.7-5.28,2.72-.15,5.12,1.95,5.28,4.7,4.42,76.44-21.2,150.03-72.13,207.21-50.93,57.18-121.08,91.1-197.52,95.52-5.69,.33-11.39,.49-17.04,.49Z"/>
        <path class="cls-2" d="M82.44,58.27H24.11c-2.76,0-5-2.24-5-5s2.24-5,5-5h58.33c2.76,0,5,2.24,5,5s-2.24,5-5,5Z"/>
      </g>
    </g>
  </g>
</svg>