<?xml version="1.0" encoding="UTF-8"?>
<svg id="Layer_2" data-name="Layer 2" xmlns="http://www.w3.org/2000/svg" xmlns:xlink="http://www.w3.org/1999/xlink" viewBox="0 0 1905.08 1008.64">
  <defs>
    <style>
      .cls-1 {
        fill: url(#linear-gradient-2);
      }

      .cls-2 {
        fill: #fbcc19;
      }

      .cls-3 {
        fill: #ffe3a6;
      }

      .cls-4 {
        fill: #ffb419;
      }

      .cls-5 {
        fill: #4b6496;
      }

      .cls-6 {
        fill: url(#linear-gradient);
      }
    </style>
    <linearGradient id="linear-gradient" x1="1102.36" y1="1003.94" x2="985.29" y2="570.62" gradientUnits="userSpaceOnUse">
      <stop offset="0" stop-color="#ffe3a6"/>
      <stop offset=".17" stop-color="#fee3a6" stop-opacity=".99"/>
      <stop offset=".3" stop-color="#fee3a6" stop-opacity=".95"/>
      <stop offset=".42" stop-color="#fee4a6" stop-opacity=".89"/>
      <stop offset=".53" stop-color="#fee5a7" stop-opacity=".8"/>
      <stop offset=".64" stop-color="#fee6a7" stop-opacity=".68"/>
      <stop offset=".74" stop-color="#fee7a8" stop-opacity=".53"/>
      <stop offset=".84" stop-color="#fee9a9" stop-opacity=".36"/>
      <stop offset=".93" stop-color="#feebaa" stop-opacity=".17"/>
      <stop offset="1" stop-color="#feedac" stop-opacity="0"/>
    </linearGradient>
    <linearGradient id="linear-gradient-2" x1="-71.85" y1="288.71" x2="210.94" y2="398.18" xlink:href="#linear-gradient"/>
  </defs>
  <g id="data1">
    <g>
      <path class="cls-6" d="M59.37,794.84L1899.15,301.78v461.38c0,18.01-14.61,32.61-32.62,32.58l-1807.16-.9Z"/>
      <path class="cls-5" d="M438.99,798.7c-1.64,0-2.96-1.33-2.96-2.96v-32.85c0-1.64,1.33-2.96,2.96-2.96s2.96,1.33,2.96,2.96v32.85c0,1.64-1.33,2.96-2.96,2.96Z"/>
      <path class="cls-5" d="M619.08,798.7c-1.64,0-2.96-1.33-2.96-2.96v-32.85c0-1.64,1.33-2.96,2.96-2.96s2.96,1.33,2.96,2.96v32.85c0,1.64-1.33,2.96-2.96,2.96Z"/>
      <path class="cls-1" d="M59.37,795.74L376.24,5.93H91.06c-18.01,0-32.61,14.61-32.58,32.62l.9,757.18Z"/>
      <path class="cls-5" d="M799.17,798.7c-1.64,0-2.96-1.33-2.96-2.96v-32.85c0-1.64,1.33-2.96,2.96-2.96s2.96,1.33,2.96,2.96v32.85c0,1.64-1.33,2.96-2.96,2.96Z"/>
      <path class="cls-5" d="M979.26,798.7c-1.64,0-2.96-1.33-2.96-2.96v-32.85c0-1.64,1.33-2.96,2.96-2.96s2.96,1.33,2.96,2.96v32.85c0,1.64-1.33,2.96-2.96,2.96Z"/>
      <g>
        <path class="cls-5" d="M92.22,206.35H59.37c-1.64,0-2.96-1.33-2.96-2.96s1.33-2.96,2.96-2.96h32.85c1.64,0,2.96,1.33,2.96,2.96s-1.33,2.96-2.96,2.96Z"/>
        <path class="cls-5" d="M92.22,403.1H59.37c-1.64,0-2.96-1.33-2.96-2.96s1.33-2.96,2.96-2.96h32.85c1.64,0,2.96,1.33,2.96,2.96s-1.33,2.96-2.96,2.96Z"/>
        <path class="cls-5" d="M92.22,599.86H59.37c-1.64,0-2.96-1.33-2.96-2.96s1.33-2.96,2.96-2.96h32.85c1.64,0,2.96,1.33,2.96,2.96s-1.33,2.96-2.96,2.96Z"/>
      </g>
      <path class="cls-5" d="M1159.35,798.7c-1.64,0-2.96-1.33-2.96-2.96v-32.85c0-1.64,1.33-2.96,2.96-2.96s2.96,1.33,2.96,2.96v32.85c0,1.64-1.33,2.96-2.96,2.96Z"/>
      <path class="cls-5" d="M1339.44,798.7c-1.64,0-2.96-1.33-2.96-2.96v-32.85c0-1.64,1.33-2.96,2.96-2.96s2.96,1.33,2.96,2.96v32.85c0,1.64-1.33,2.96-2.96,2.96Z"/>
      <path class="cls-5" d="M1519.53,798.7c-1.64,0-2.96-1.33-2.96-2.96v-32.85c0-1.64,1.33-2.96,2.96-2.96s2.96,1.33,2.96,2.96v32.85c0,1.64-1.33,2.96-2.96,2.96Z"/>
      <g>
        <path class="cls-5" d="M207.21,910.72c0-.35,.05-.69,.15-1.05s.28-.71,.54-1.06c.18-.31,.44-.79,.75-1.43s.68-1.39,1.08-2.25c.4-.86,.83-1.81,1.29-2.83s.93-2.06,1.4-3.13,.95-2.13,1.42-3.19,.92-2.06,1.34-3c.42-.93,.81-1.78,1.15-2.54,.35-.76,.64-1.37,.88-1.83,.03-.24,.1-.47,.19-.71,.1-.23,.23-.44,.39-.63,.16-.19,.36-.34,.58-.45,.23-.11,.49-.17,.79-.17,.39,0,.71,.05,.95,.16,.24,.11,.44,.26,.6,.45,.16,.19,.28,.41,.38,.66,.1,.25,.19,.51,.29,.79,.09,.25,.17,.48,.24,.71s.15,.39,.21,.51c.72,1.45,1.43,2.91,2.12,4.38,.69,1.47,1.37,2.96,2.04,4.48,.68,1.52,1.36,3.06,2.05,4.61,.69,1.56,1.41,3.14,2.16,4.75l.31,.45c.09,.12,.19,.26,.31,.43,.12,.17,.23,.35,.33,.54,.1,.19,.19,.4,.26,.62,.07,.22,.11,.43,.11,.65,0,.65-.18,1.11-.55,1.39-.37,.28-.82,.41-1.35,.41-.29,0-.56-.05-.8-.14s-.46-.22-.64-.37c-.18-.16-.33-.34-.44-.55-.11-.21-.18-.43-.21-.67-.3-.66-.58-1.28-.84-1.86-.26-.58-.51-1.14-.75-1.68-.24-.54-.48-1.07-.71-1.58s-.45-1.03-.68-1.55c-.17,0-.42,0-.73,0s-.67-.02-1.05-.04c-.62,0-1.24,0-1.87-.02s-1.28-.02-1.94-.02-1.34,0-2.04,0-1.44,.02-2.21,.06c-.12,.01-.23,.02-.34,.02-.11,0-.22,0-.34,0-.3,.74-.59,1.44-.86,2.1-.27,.67-.51,1.28-.73,1.84-.22,.56-.41,1.06-.58,1.5-.17,.44-.29,.79-.38,1.06v-.02c-.06,.24-.14,.47-.22,.7-.08,.23-.2,.43-.35,.61s-.36,.32-.62,.44c-.27,.11-.61,.17-1.05,.17-.58,0-1.07-.15-1.45-.44s-.58-.72-.58-1.28Zm8.29-10.21h.88c.36,0,.83,0,1.41,0,.58,0,1.29,.01,2.13,.02,.84,0,1.86,.01,3.06,.02-.5-1.08-1.06-2.3-1.69-3.66s-1.37-2.94-2.22-4.74c-.25,.55-.51,1.16-.79,1.82-.28,.66-.58,1.35-.88,2.06-.31,.71-.62,1.45-.94,2.21-.32,.76-.64,1.51-.96,2.27Z"/>
        <path class="cls-5" d="M235.42,910.63c0-.35,.02-.69,.07-1.05,.05-.35,.08-.72,.09-1.09l-.06-18.65c-.06-.15-.12-.36-.17-.63-.05-.27-.07-.52-.07-.76,0-.22,.04-.43,.11-.65,.08-.22,.19-.41,.33-.58,.15-.17,.33-.3,.54-.41s.46-.15,.75-.15c.48,0,.95,.02,1.43,.07,.48,.05,.97,.07,1.49,.07,.41,0,.82-.02,1.24-.07,.42-.05,.86-.07,1.32-.07,1.52,0,2.95,.21,4.26,.63,1.32,.42,2.46,1.04,3.42,1.86,.96,.82,1.72,1.82,2.27,3.01,.55,1.19,.83,2.55,.83,4.07s-.18,2.71-.55,3.79c-.37,1.08-.87,2-1.5,2.76s-1.37,1.4-2.22,1.89c-.85,.49-1.76,.88-2.74,1.16-.98,.28-1.99,.48-3.04,.58-1.05,.11-2.09,.16-3.11,.16-.11,0-.2,0-.28,0-.08,0-.15,0-.21,0s-.13,0-.2,0c-.07,0-.15,0-.25,0v.9c0,.22,0,.4,0,.54,0,.14,0,.26,0,.36v.34c0,.35,.04,.69,.11,1.04,.07,.35,.11,.71,.11,1.1,0,.29-.06,.54-.19,.74-.13,.2-.29,.36-.49,.49-.19,.12-.41,.22-.63,.28s-.44,.09-.63,.09c-.26,0-.51-.04-.76-.12-.25-.08-.46-.2-.65-.36-.18-.16-.33-.35-.45-.57-.11-.22-.17-.48-.17-.77Zm3.76-7.57c.22,.01,.44,.02,.67,.03s.45,.02,.66,.03c.21,.01,.39,.02,.55,.02,.16,0,.29,0,.37,0,1.2,0,2.23-.1,3.1-.29s1.6-.46,2.2-.79,1.08-.73,1.44-1.18c.37-.45,.65-.93,.84-1.46,.19-.52,.32-1.07,.39-1.64s.1-1.13,.1-1.69c0-.9-.13-1.67-.38-2.33-.25-.65-.59-1.2-1-1.65-.41-.44-.88-.8-1.4-1.07-.52-.27-1.06-.48-1.61-.62s-1.08-.24-1.6-.29c-.52-.05-.97-.07-1.36-.07-.5,0-1,0-1.5,.02-.5,.02-1.04,.03-1.61,.04,.02,1.42,.04,2.66,.05,3.74s.02,2.03,.02,2.85,.01,1.55,.02,2.16c0,.62,.01,1.17,.02,1.65,0,.49,.01,.93,.02,1.33,0,.4,0,.79,0,1.18Z"/>
        <path class="cls-5" d="M258.29,910.17c0-.24,.01-.47,.03-.7,.02-.23,.04-.44,.06-.63v-13.58c0-.9,0-1.79,0-2.66s0-1.76,0-2.67c-.05-.15-.11-.36-.15-.63-.05-.27-.07-.52-.07-.76s.03-.45,.11-.68c.07-.23,.18-.43,.32-.61,.15-.18,.33-.32,.54-.43s.46-.16,.75-.16c.45,0,.91,.03,1.38,.08s.99,.08,1.57,.08c.49,0,.97-.02,1.46-.07,.49-.05,1-.08,1.56-.09,1.63,0,3.11,.16,4.43,.49s2.45,.83,3.39,1.51,1.66,1.55,2.16,2.6c.51,1.05,.76,2.31,.76,3.77,0,1.38-.19,2.61-.58,3.69-.38,1.08-.88,2.01-1.48,2.81-.6,.8-1.27,1.47-2.01,2-.74,.54-1.46,.94-2.16,1.22,.1,.58,.25,1.13,.46,1.65s.48,.96,.81,1.35c.33,.39,.72,.7,1.16,.92,.44,.23,.94,.34,1.49,.34,.41,0,.79-.06,1.13-.19,.34-.13,.64-.38,.88-.76,.15-.22,.33-.41,.55-.58,.22-.17,.49-.25,.83-.25,.58,0,1.04,.16,1.36,.49s.49,.74,.49,1.23c0,.46-.13,.91-.4,1.33-.26,.42-.64,.79-1.12,1.11-.48,.32-1.06,.57-1.74,.76-.68,.19-1.44,.28-2.27,.28-.77,0-1.46-.11-2.08-.33s-1.18-.52-1.67-.89c-.49-.37-.93-.8-1.31-1.28-.38-.48-.7-.98-.97-1.51-.27-.52-.49-1.05-.66-1.56-.17-.52-.31-1-.41-1.46h-1.18c-.23,0-.45,0-.67,0-.22,0-.4,0-.54,0-.31-.01-.7-.02-1.16-.02-.46,0-.88,0-1.26,0v2.37c.02,.51,.09,1,.19,1.48,.11,.48,.16,.98,.16,1.48,0,.31-.06,.58-.19,.79-.12,.22-.28,.4-.48,.54-.19,.15-.41,.25-.63,.32-.23,.06-.44,.1-.65,.1-.32,0-.62-.06-.89-.17-.27-.11-.5-.27-.7-.47-.19-.2-.35-.44-.46-.71-.11-.28-.17-.58-.17-.92Zm3.79-8.3c.28,.01,.61,.02,.99,.03s.74,.02,1.09,.03c.35,.01,.65,.02,.92,.02,.27,0,.44,0,.52,0,1.46,0,2.66-.2,3.59-.6,.94-.4,1.67-.93,2.2-1.59,.53-.66,.89-1.42,1.09-2.27,.2-.85,.3-1.73,.3-2.63,0-.79-.12-1.46-.37-2s-.58-1-.99-1.35c-.41-.36-.88-.64-1.39-.84-.52-.21-1.05-.36-1.58-.45-.54-.1-1.06-.16-1.57-.18-.51-.02-.96-.03-1.35-.03-.55,0-1.11,0-1.68,.02-.57,.02-1.18,.03-1.84,.04-.02,.41-.04,.78-.04,1.12s-.01,.66-.02,.98c0,.32,0,.64,0,.97v1.11c0,.73,0,1.42,0,2.05,0,.63,.01,1.25,.02,1.85,.01,.6,.02,1.2,.04,1.81s.04,1.24,.07,1.9Zm7.6,3.11s-.02,0-.02,.02l.02-.02Z"/>
        <path class="cls-5" d="M284.88,910.67c0-.55,.04-1.09,.12-1.63s.12-1.1,.12-1.71c0-2.76-.02-5.53-.07-8.32-.05-2.79-.07-5.65-.07-8.59,0-.3-.03-.61-.1-.92-.06-.31-.1-.64-.1-1,0-.28,.04-.55,.11-.79,.08-.25,.21-.47,.39-.66,.18-.19,.44-.34,.76-.45,.32-.11,.73-.16,1.22-.16s.87,.18,1.15,.55c.28,.37,.42,.86,.42,1.47,0,.18-.02,.37-.05,.54-.03,.18-.06,.36-.1,.56-.02,.93-.04,1.93-.05,3s-.02,2.3-.02,3.68c0,1.23,0,2.49,.02,3.78,.01,1.29,.03,2.52,.05,3.71,.02,1.19,.05,2.3,.09,3.33,.04,1.03,.08,1.92,.14,2.67v-.02c.02,.16,.04,.32,.06,.46,.02,.15,.02,.29,.02,.45,0,.26-.03,.5-.09,.72-.06,.22-.16,.41-.3,.58-.14,.16-.34,.29-.58,.37-.25,.09-.56,.13-.92,.13-.43,0-.79-.04-1.08-.11-.29-.08-.51-.19-.68-.34-.17-.15-.29-.34-.36-.56s-.11-.47-.11-.75Z"/>
        <path class="cls-5" d="M296.53,910.17c0-.31,.05-.62,.14-.93,.09-.31,.14-.63,.14-.98l-.24-19.36c.01-.82,.15-1.43,.43-1.82,.28-.39,.75-.59,1.42-.59,.37,0,.68,.03,.92,.1,.25,.06,.45,.18,.6,.34,.15,.16,.26,.37,.32,.63,.06,.26,.09,.58,.09,.97v2.43c0,.67,0,1.47,0,2.39,0,.92,0,1.91,0,2.96v9.55c0,.95,0,1.78,.02,2.5,1.26,0,2.33,0,3.2,0,.87,0,1.59-.02,2.15-.04,.3-.02,.61-.06,.91-.11,.3-.05,.63-.07,.97-.07,.71,0,1.26,.16,1.63,.49s.56,.8,.56,1.43c0,.42-.08,.76-.24,1.01s-.38,.45-.64,.58c-.27,.13-.56,.22-.89,.27-.33,.04-.66,.06-1,.06h-8.61c-.27,0-.52-.02-.75-.07s-.42-.14-.58-.27c-.16-.13-.29-.31-.38-.54s-.14-.54-.14-.92Z"/>
        <path class="cls-5" d="M212.52,951.92c0-.27,.05-.5,.16-.71,.11-.2,.25-.38,.43-.54,.18-.16,.38-.31,.61-.45,.23-.13,.46-.27,.71-.41h-.02c.69-.45,1.49-.98,2.4-1.58,.91-.6,1.85-1.26,2.82-1.99,.97-.72,1.93-1.5,2.87-2.34,.94-.84,1.78-1.72,2.52-2.66,.74-.93,1.34-1.92,1.79-2.94,.45-1.03,.68-2.09,.68-3.19,0-.75-.15-1.42-.46-2.01-.31-.59-.71-1.1-1.22-1.52s-1.08-.74-1.72-.96-1.29-.33-1.95-.33c-.78,0-1.51,.11-2.2,.34-.69,.23-1.29,.55-1.81,.98-.52,.43-.94,.96-1.26,1.59-.32,.63-.5,1.35-.54,2.17,.04,.08,.09,.15,.13,.23,.04,.08,.11,.18,.19,.3,.15,.24,.27,.46,.36,.67,.09,.21,.13,.51,.13,.91,0,.24-.06,.45-.17,.65-.11,.19-.26,.36-.44,.5-.18,.14-.37,.25-.58,.32-.21,.08-.42,.11-.62,.11-.51,0-.93-.14-1.27-.43s-.61-.63-.82-1.04c-.21-.41-.35-.83-.44-1.26-.09-.44-.13-.81-.13-1.13,0-.91,.13-1.74,.39-2.51,.26-.76,.61-1.45,1.06-2.05,.45-.61,.98-1.14,1.58-1.6,.61-.46,1.26-.84,1.96-1.14s1.44-.53,2.21-.68,1.53-.23,2.29-.23c1.25,0,2.43,.19,3.54,.56,1.11,.37,2.07,.91,2.89,1.61,.82,.7,1.47,1.55,1.95,2.57,.48,1.02,.71,2.16,.71,3.44,0,1.06-.18,2.11-.54,3.14-.36,1.03-.83,2.03-1.43,2.99-.59,.96-1.28,1.89-2.06,2.77-.78,.89-1.58,1.72-2.42,2.49-.83,.77-1.67,1.48-2.5,2.12-.84,.64-1.62,1.2-2.34,1.68,.29,0,.65,0,1.07,0s.85-.01,1.29-.02c.44,0,.85,0,1.23,0h.92c.81,0,1.63-.01,2.45-.03,.82-.02,1.71-.03,2.66-.03,.35,0,.68-.04,1.01-.11,.32-.08,.68-.11,1.05-.11,.22,0,.42,.05,.61,.14,.19,.09,.36,.22,.5,.4s.26,.38,.34,.61c.08,.23,.12,.48,.12,.75,0,.35-.05,.63-.16,.85-.11,.22-.25,.4-.41,.53-.17,.13-.35,.22-.55,.28-.2,.05-.4,.08-.59,.08-.49,0-.98-.03-1.48-.09-.5-.06-1.02-.09-1.57-.11h-14.01c-.27,0-.52-.04-.75-.12s-.44-.19-.61-.33-.31-.3-.41-.49-.15-.39-.15-.61Z"/>
        <path class="cls-5" d="M246.67,953.97c-1.58,0-2.97-.36-4.17-1.08-1.2-.72-2.2-1.69-3.01-2.93s-1.41-2.67-1.82-4.31c-.41-1.64-.62-3.39-.62-5.25,0-1.97,.22-3.77,.67-5.42,.45-1.64,1.09-3.06,1.93-4.24,.84-1.18,1.85-2.1,3.03-2.76s2.51-.98,3.98-.98,2.88,.33,4.05,.98,2.17,1.57,2.98,2.76,1.42,2.6,1.83,4.24c.42,1.64,.62,3.45,.62,5.42,0,1.86-.2,3.61-.61,5.25-.41,1.64-1.01,3.08-1.8,4.31s-1.78,2.21-2.97,2.93-2.55,1.08-4.11,1.08Zm.08-3.34c.69,0,1.31-.13,1.86-.41s1.04-.65,1.47-1.13c.43-.48,.79-1.05,1.09-1.7,.3-.65,.55-1.36,.75-2.12,.19-.76,.34-1.55,.43-2.38,.09-.83,.14-1.66,.14-2.51,0-1.34-.11-2.62-.34-3.83s-.58-2.29-1.05-3.21c-.47-.92-1.07-1.66-1.79-2.21s-1.58-.82-2.56-.82-1.86,.24-2.61,.73c-.75,.49-1.37,1.17-1.88,2.06-.51,.89-.89,1.95-1.14,3.19-.25,1.24-.38,2.6-.38,4.09,0,.83,.05,1.67,.15,2.5,.1,.83,.26,1.63,.47,2.38,.21,.76,.48,1.46,.8,2.12,.32,.65,.71,1.22,1.15,1.7,.44,.48,.95,.86,1.52,1.13s1.21,.41,1.91,.41Z"/>
        <path class="cls-5" d="M260.92,951.92c0-.27,.05-.5,.16-.71,.11-.2,.25-.38,.43-.54,.18-.16,.38-.31,.61-.45,.23-.13,.46-.27,.71-.41h-.02c.69-.45,1.49-.98,2.4-1.58,.91-.6,1.85-1.26,2.82-1.99,.97-.72,1.93-1.5,2.87-2.34,.94-.84,1.78-1.72,2.52-2.66,.74-.93,1.34-1.92,1.79-2.94,.45-1.03,.68-2.09,.68-3.19,0-.75-.15-1.42-.46-2.01-.31-.59-.71-1.1-1.22-1.52s-1.08-.74-1.72-.96-1.29-.33-1.95-.33c-.78,0-1.51,.11-2.2,.34-.69,.23-1.29,.55-1.81,.98-.52,.43-.94,.96-1.26,1.59-.32,.63-.5,1.35-.54,2.17,.04,.08,.09,.15,.13,.23,.04,.08,.11,.18,.19,.3,.15,.24,.27,.46,.36,.67,.09,.21,.13,.51,.13,.91,0,.24-.06,.45-.17,.65-.11,.19-.26,.36-.44,.5-.18,.14-.37,.25-.58,.32-.21,.08-.42,.11-.62,.11-.51,0-.93-.14-1.27-.43s-.61-.63-.82-1.04c-.21-.41-.35-.83-.44-1.26-.09-.44-.13-.81-.13-1.13,0-.91,.13-1.74,.39-2.51,.26-.76,.61-1.45,1.06-2.05,.45-.61,.98-1.14,1.58-1.6,.61-.46,1.26-.84,1.96-1.14s1.44-.53,2.21-.68,1.53-.23,2.29-.23c1.25,0,2.43,.19,3.54,.56,1.11,.37,2.07,.91,2.89,1.61,.82,.7,1.47,1.55,1.95,2.57,.48,1.02,.71,2.16,.71,3.44,0,1.06-.18,2.11-.54,3.14-.36,1.03-.83,2.03-1.43,2.99-.59,.96-1.28,1.89-2.06,2.77-.78,.89-1.58,1.72-2.42,2.49-.83,.77-1.67,1.48-2.5,2.12-.84,.64-1.62,1.2-2.34,1.68,.29,0,.65,0,1.07,0s.85-.01,1.29-.02c.44,0,.85,0,1.23,0h.92c.81,0,1.63-.01,2.45-.03,.82-.02,1.71-.03,2.66-.03,.35,0,.68-.04,1.01-.11,.32-.08,.68-.11,1.05-.11,.22,0,.42,.05,.61,.14,.19,.09,.36,.22,.5,.4s.26,.38,.34,.61c.08,.23,.12,.48,.12,.75,0,.35-.05,.63-.16,.85-.11,.22-.25,.4-.41,.53-.17,.13-.35,.22-.55,.28-.2,.05-.4,.08-.59,.08-.49,0-.98-.03-1.48-.09-.5-.06-1.02-.09-1.57-.11h-14.01c-.27,0-.52-.04-.75-.12s-.44-.19-.61-.33-.31-.3-.41-.49-.15-.39-.15-.61Z"/>
        <path class="cls-5" d="M295.07,953.97c-1.58,0-2.97-.36-4.17-1.08-1.2-.72-2.2-1.69-3.01-2.93s-1.41-2.67-1.82-4.31c-.41-1.64-.62-3.39-.62-5.25,0-1.97,.22-3.77,.67-5.42,.45-1.64,1.09-3.06,1.93-4.24,.84-1.18,1.85-2.1,3.03-2.76s2.51-.98,3.98-.98,2.88,.33,4.05,.98,2.17,1.57,2.98,2.76,1.42,2.6,1.83,4.24c.42,1.64,.62,3.45,.62,5.42,0,1.86-.2,3.61-.61,5.25-.41,1.64-1.01,3.08-1.8,4.31s-1.78,2.21-2.97,2.93-2.55,1.08-4.11,1.08Zm.08-3.34c.69,0,1.31-.13,1.86-.41s1.04-.65,1.47-1.13c.43-.48,.79-1.05,1.09-1.7,.3-.65,.55-1.36,.75-2.12,.19-.76,.34-1.55,.43-2.38,.09-.83,.14-1.66,.14-2.51,0-1.34-.11-2.62-.34-3.83s-.58-2.29-1.05-3.21c-.47-.92-1.07-1.66-1.79-2.21s-1.58-.82-2.56-.82-1.86,.24-2.61,.73c-.75,.49-1.37,1.17-1.88,2.06-.51,.89-.89,1.95-1.14,3.19-.25,1.24-.38,2.6-.38,4.09,0,.83,.05,1.67,.15,2.5,.1,.83,.26,1.63,.47,2.38,.21,.76,.48,1.46,.8,2.12,.32,.65,.71,1.22,1.15,1.7,.44,.48,.95,.86,1.52,1.13s1.21,.41,1.91,.41Z"/>
      </g>
      <g>
        <path class="cls-5" d="M1662.01,930.47c0-.42,.03-.78,.09-1.07s.1-.43,.11-.41c.02-1.09,.04-2.2,.05-3.33,.01-1.12,.02-2.31,.02-3.57v-2.58c0-.93,0-1.87-.02-2.82-.01-.95-.04-1.88-.07-2.8-.03-.92-.07-1.77-.12-2.55-.04-.23-.07-.44-.09-.62-.02-.19-.03-.38-.03-.59,0-.49,.11-.88,.32-1.17s.55-.48,1.02-.59c.2-.17,.42-.29,.67-.35s.48-.1,.71-.1,.46,.07,.66,.21c.2,.14,.37,.31,.52,.5,.15,.19,.28,.39,.38,.59,.1,.21,.17,.37,.21,.5,.31,.46,.69,.99,1.12,1.58,.44,.59,.91,1.23,1.43,1.9,.52,.68,1.07,1.38,1.65,2.12,.58,.74,1.17,1.48,1.77,2.24,.6,.75,1.19,1.5,1.78,2.25,.59,.75,1.15,1.47,1.69,2.16,.53,.69,1.03,1.35,1.49,1.96s.86,1.17,1.19,1.66c0-2.15,0-4-.02-5.55-.02-1.55-.03-2.87-.05-3.96-.02-1.09-.04-1.99-.08-2.69s-.06-1.29-.08-1.75c-.02-.46-.04-.84-.05-1.14-.02-.3-.02-.58-.02-.85,0-.4,.04-.73,.13-.99,.08-.26,.21-.45,.36-.59,.16-.14,.35-.24,.58-.29,.23-.05,.5-.08,.8-.08,.39,0,.7,.08,.92,.24,.22,.16,.39,.36,.5,.61s.19,.52,.21,.83c.03,.31,.04,.6,.04,.9v17.27c0,.36,.02,.73,.06,1.09s.06,.75,.06,1.17-.03,.71-.09,.97c-.06,.26-.16,.46-.29,.62s-.31,.27-.53,.34-.47,.1-.78,.1c-.56,0-1.01-.14-1.35-.42-.34-.28-.57-.62-.71-1.02-.95-1.3-1.92-2.59-2.9-3.86s-1.96-2.54-2.96-3.81c-.99-1.27-1.99-2.55-3-3.84s-2-2.6-3-3.94l-.9-1.42c0,1.54,.02,2.9,.03,4.1,0,1.2,.02,2.27,.03,3.21,0,.94,.02,1.77,.03,2.48,.01,.72,.02,1.36,.02,1.93,0,.57,0,1.08,.01,1.55s0,.92,0,1.36c0,.26,.03,.54,.05,.84,.02,.3,.04,.58,.04,.87,0,.26-.02,.51-.07,.75-.04,.24-.13,.45-.26,.63-.13,.18-.31,.32-.55,.43-.24,.11-.54,.16-.93,.16-.51,0-.94-.13-1.29-.38-.35-.25-.53-.59-.53-1.02Z"/>
        <path class="cls-5" d="M1687.08,919.8c0-1.79,.25-3.42,.76-4.89,.51-1.48,1.22-2.75,2.15-3.81,.93-1.06,2.05-1.89,3.36-2.48,1.31-.59,2.76-.88,4.36-.88,1.69,0,3.17,.29,4.46,.88,1.29,.59,2.37,1.41,3.25,2.48,.88,1.06,1.54,2.33,1.99,3.81,.45,1.48,.68,3.11,.68,4.89s-.25,3.28-.74,4.75c-.49,1.47-1.2,2.75-2.11,3.83s-2.02,1.94-3.31,2.56c-1.29,.62-2.75,.93-4.35,.93-1.06,0-2.06-.14-3-.42-.93-.28-1.79-.68-2.57-1.2-.78-.52-1.47-1.15-2.09-1.87s-1.13-1.54-1.56-2.43c-.43-.89-.75-1.86-.97-2.89-.22-1.03-.33-2.12-.33-3.25Zm3.43,0c0,.75,.07,1.5,.21,2.24,.14,.74,.35,1.44,.62,2.11,.28,.67,.62,1.29,1.02,1.85s.87,1.06,1.4,1.48c.53,.42,1.11,.74,1.76,.98,.65,.24,1.35,.35,2.1,.35,.79,0,1.52-.12,2.17-.35,.65-.24,1.24-.56,1.76-.98,.52-.42,.98-.91,1.36-1.48,.39-.57,.71-1.18,.96-1.85,.26-.67,.45-1.37,.57-2.11,.12-.74,.19-1.48,.19-2.24,0-1.21-.14-2.35-.42-3.43-.28-1.08-.71-2.03-1.29-2.85s-1.3-1.48-2.18-1.96c-.88-.48-1.92-.72-3.12-.72-1.13,0-2.14,.22-3.03,.65-.88,.43-1.63,1.04-2.24,1.82s-1.07,1.72-1.38,2.82c-.32,1.1-.47,2.32-.47,3.67Z"/>
        <path class="cls-5" d="M1718.39,929.93c-.38-1.04-.78-2.14-1.19-3.28-.41-1.14-.83-2.29-1.26-3.44s-.85-2.29-1.26-3.41c-.42-1.12-.81-2.2-1.19-3.21s-.73-1.96-1.06-2.84-.62-1.64-.87-2.29c-.13-.33-.25-.67-.35-1.02-.11-.35-.16-.68-.16-.99,0-1.09,.61-1.64,1.84-1.64,.14,0,.28,.01,.41,.04,.13,.03,.27,.09,.41,.19,.14,.1,.27,.24,.39,.43,.12,.19,.25,.44,.37,.78,.78,2.19,1.47,4.12,2.06,5.8,.59,1.68,1.12,3.17,1.57,4.47,.46,1.31,.85,2.46,1.19,3.46,.34,1,.64,1.92,.91,2.76,.28-.82,.55-1.6,.8-2.33s.5-1.45,.74-2.16c.24-.71,.49-1.42,.74-2.12,.25-.71,.52-1.45,.81-2.22-.08-.15-.17-.37-.28-.65-.1-.28-.22-.59-.34-.93-.12-.34-.25-.7-.38-1.07-.13-.37-.26-.73-.38-1.08-.13-.35-.24-.66-.35-.93-.1-.28-.2-.49-.28-.65-.18-.32-.34-.65-.47-.98-.13-.33-.2-.63-.2-.89,0-.65,.14-1.12,.41-1.39,.27-.28,.74-.41,1.4-.41,.22,0,.42,.05,.59,.15s.35,.29,.52,.58c.17,.29,.36,.68,.56,1.18,.21,.5,.46,1.15,.76,1.96,.07,.17,.14,.39,.2,.66,.06,.27,.13,.5,.2,.68,.1-.21,.2-.46,.31-.75,.11-.29,.21-.59,.32-.91,.1-.32,.21-.63,.3-.96,.09-.32,.18-.62,.26-.9,.04-.19,.1-.39,.17-.6s.18-.4,.32-.58c.13-.17,.31-.32,.53-.44,.22-.12,.49-.17,.84-.17,.51,0,.92,.16,1.22,.49,.3,.33,.45,.76,.45,1.3,0,.28-.06,.57-.18,.88-.12,.31-.26,.62-.42,.93-.43,.88-.83,1.74-1.19,2.56-.36,.82-.72,1.69-1.07,2.59,.23,.6,.46,1.21,.68,1.82,.23,.61,.47,1.28,.72,2,.26,.72,.54,1.53,.85,2.41,.31,.88,.67,1.9,1.07,3.04,.46-1.31,.9-2.63,1.33-3.94,.42-1.31,.85-2.62,1.27-3.93,.43-1.31,.86-2.62,1.3-3.92s.91-2.6,1.42-3.89h0c.06-.29,.14-.58,.23-.86,.1-.28,.22-.53,.37-.74s.34-.38,.56-.5c.23-.12,.5-.19,.82-.19,.57,0,1.01,.15,1.3,.44s.44,.69,.44,1.2c0,.18-.01,.35-.03,.5-.02,.15-.05,.3-.08,.44s-.08,.3-.14,.45c-.06,.16-.13,.33-.21,.52-.62,1.56-1.2,3.06-1.74,4.51-.54,1.45-1.07,2.92-1.6,4.4s-1.06,3.01-1.6,4.6-1.13,3.29-1.76,5.12c.02,.05,.03,.09,.02,.12-.01,.03-.02,.07-.02,.12,0,.22-.04,.43-.13,.62-.08,.2-.21,.37-.38,.52-.17,.15-.38,.27-.63,.35-.26,.09-.55,.13-.9,.13-.27,0-.49-.04-.66-.13-.17-.08-.31-.2-.41-.33-.11-.13-.19-.29-.26-.46-.07-.17-.12-.34-.16-.51h0c-.22-.69-.44-1.33-.66-1.9s-.45-1.18-.68-1.8c-.36-1-.73-2.05-1.09-3.14s-.74-2.15-1.12-3.17c-.21,.59-.44,1.28-.69,2.06-.25,.78-.52,1.6-.8,2.46-.28,.86-.57,1.72-.87,2.6-.3,.87-.6,1.7-.89,2.48,.02,.09,.03,.18,.03,.27v.18c0,.23-.05,.43-.16,.6s-.25,.31-.42,.43c-.18,.12-.38,.2-.61,.26s-.47,.09-.71,.09c-.34,0-.62-.07-.83-.2-.21-.13-.38-.3-.5-.5s-.22-.41-.28-.64c-.06-.23-.11-.43-.14-.61Z"/>
      </g>
      <path class="cls-5" d="M1699.63,1008.64c-23.97,0-46.6-9.44-63.74-26.57-17.13-17.14-26.57-39.77-26.57-63.74,0-37.78,24.01-71.91,59.74-84.92,16.33-5.95,27.3-21.37,27.3-38.37v-32.16c0-1.64,1.33-2.96,2.96-2.96s2.96,1.33,2.96,2.96v32.16c0,19.49-12.54,37.15-31.2,43.94-33.4,12.16-55.84,44.05-55.84,79.35,0,46.53,37.85,84.38,84.38,84.38s84.38-37.85,84.38-84.38c0-37.51-25.2-70.88-61.28-81.15-1.58-.45-2.49-2.09-2.04-3.66,.45-1.57,2.09-2.49,3.66-2.04,38.61,10.99,65.58,46.71,65.58,86.86,0,23.97-9.44,46.6-26.57,63.74-17.14,17.13-39.77,26.57-63.74,26.57Z"/>
      <path class="cls-3" d="M28.07,796.94h30.37v30.37c0,12.22-9.92,22.14-22.14,22.14h-8.23c-12.22,0-22.14-9.92-22.14-22.14v-8.23c0-12.22,9.92-22.14,22.14-22.14Z"/>
      <path class="cls-5" d="M258.89,1008.64c-23.97,0-46.6-9.44-63.73-26.57-17.14-17.14-26.57-39.77-26.57-63.74,0-37.78,24.01-71.91,59.74-84.92,16.33-5.95,27.3-21.37,27.3-38.37v-32.16c0-1.64,1.33-2.96,2.96-2.96s2.96,1.33,2.96,2.96v32.16c0,19.49-12.54,37.15-31.2,43.94-33.4,12.16-55.84,44.05-55.84,79.35,0,46.53,37.85,84.38,84.38,84.38s84.38-37.85,84.38-84.38c0-37.51-25.2-70.88-61.28-81.15-1.57-.45-2.49-2.09-2.04-3.66,.45-1.57,2.09-2.49,3.66-2.04,38.62,10.99,65.58,46.71,65.58,86.86,0,23.97-9.44,46.6-26.57,63.74-17.14,17.13-39.77,26.57-63.74,26.57Z"/>
      <path class="cls-4" d="M32.63,855.37c-17.99,0-32.63-14.64-32.63-32.63v-.31c0-17.99,14.64-32.63,32.63-32.63h20.77l.04-754.23C53.44,15.96,69.4,0,89.02,0h36.06c3.28,0,5.93,2.66,5.93,5.93s-2.65,5.93-5.93,5.93h-36.06c-13.08,0-23.72,10.64-23.72,23.72l-.04,754.23H1869.5c13.08,0,23.72-10.64,23.72-23.72v-36.06c0-3.28,2.65-5.93,5.93-5.93s5.93,2.65,5.93,5.93v36.06c0,19.62-15.96,35.58-35.58,35.58H65.26v21.08c0,17.99-14.64,32.63-32.63,32.63Zm0-53.7c-11.45,0-20.77,9.32-20.77,20.77v.31c0,11.45,9.32,20.77,20.77,20.77s20.77-9.32,20.77-20.77v-21.08s-20.77,0-20.77,0Z"/>
      <path class="cls-2" d="M1899.15,598.09H120.67c-.65,0-1.19-.53-1.19-1.19s.53-1.19,1.19-1.19H1899.15c.65,0,1.19,.53,1.19,1.19s-.53,1.19-1.19,1.19Z"/>
      <path class="cls-2" d="M1899.15,402.02H120.67c-.65,0-1.19-.53-1.19-1.19s.53-1.19,1.19-1.19H1899.15c.65,0,1.19,.53,1.19,1.19s-.53,1.19-1.19,1.19Z"/>
      <path class="cls-2" d="M1899.15,204.57H120.67c-.65,0-1.19-.53-1.19-1.19s.53-1.19,1.19-1.19H1899.15c.65,0,1.19,.53,1.19,1.19s-.53,1.19-1.19,1.19Z"/>
      <g>
        <circle class="cls-5" cx="258.89" cy="679.89" r="33.59"/>
        <path class="cls-3" d="M258.89,719.41c-21.79,0-39.52-17.73-39.52-39.52s17.73-39.52,39.52-39.52,39.52,17.73,39.52,39.52-17.73,39.52-39.52,39.52Zm0-67.19c-15.25,0-27.66,12.41-27.66,27.66s12.41,27.66,27.66,27.66,27.66-12.41,27.66-27.66-12.41-27.66-27.66-27.66Z"/>
      </g>
      <g>
        <circle class="cls-5" cx="1699.63" cy="158.18" r="64.66"/>
        <path class="cls-3" d="M1699.63,228.77c-38.92,0-70.59-31.66-70.59-70.59s31.67-70.59,70.59-70.59,70.59,31.66,70.59,70.59-31.67,70.59-70.59,70.59Zm0-129.31c-32.38,0-58.73,26.35-58.73,58.73s26.35,58.73,58.73,58.73,58.73-26.35,58.73-58.73-26.35-58.73-58.73-58.73Z"/>
      </g>
      <path class="cls-5" d="M258.93,685.82l-.07-11.86c161.83-.98,320.07-21.22,470.33-60.16,234.54-60.77,408.21-153.68,695.95-307.59,91.68-49.04,183.02-100.56,271.46-153.12l6.06,10.19c-88.6,52.65-180.09,104.26-271.93,153.38-143.77,76.9-257.32,137.65-366.98,188.18-118.31,54.52-220.57,91.67-331.59,120.43-151.2,39.18-310.42,59.55-473.23,60.54Z"/>
      <path class="cls-5" d="M258.89,460.53c-35.74,0-64.72,27.71-64.72,61.89v157.46c0-34.18,28.98-61.89,64.72-61.89s64.72,27.71,64.72,61.89v-157.46c0-34.18-28.98-61.89-64.72-61.89h0Z"/>
      <path class="cls-5" d="M320.79,682.86c-1.64,0-2.96-1.33-2.96-2.96,0-32.49-26.44-58.93-58.93-58.93s-58.93,26.43-58.93,58.93c0,1.64-1.33,2.96-2.96,2.96s-2.96-1.33-2.96-2.96c0-35.76,29.1-64.86,64.86-64.86s64.86,29.1,64.86,64.86c0,1.64-1.33,2.96-2.96,2.96Z"/>
      <path class="cls-5" d="M1700.16,393.29c48.15,0,87.19-37.37,87.19-83.46V161.92c0,46.1-39.04,83.46-87.19,83.46-31,0-58.22-15.48-73.68-38.81l-13.51,7.36v95.89c0,46.1,39.04,83.46,87.19,83.46h0Z"/>
      <path class="cls-5" d="M1699.77,248.95c-30.11,0-59.59-14.94-76.86-42.2-.88-1.38-.46-3.21,.92-4.09,1.38-.87,3.21-.46,4.09,.92,25.03,39.53,77.55,51.34,117.09,26.31,19.15-12.12,32.44-30.98,37.41-53.1,4.97-22.12,1.03-44.84-11.1-63.99-.88-1.38-.46-3.21,.92-4.09,1.38-.88,3.21-.46,4.09,.92,12.97,20.49,17.19,44.8,11.87,68.47-5.32,23.66-19.53,43.84-40.02,56.81-15.03,9.52-31.82,14.06-48.42,14.06Z"/>
      <path class="cls-3" d="M235.53,555.11c0-1.08,.05-2.24,.16-3.47,.11-1.23,.36-2.35,.75-3.36,.39-1.01,.95-1.86,1.68-2.53,.73-.67,1.7-1.01,2.92-1.01,.51,0,1.05,.07,1.62,.2,.57,.14,1.09,.37,1.58,.71s.88,.8,1.2,1.38c.31,.58,.47,1.32,.47,2.21,0,1.08-.14,2.15-.43,3.2s-.43,2.16-.43,3.32c0,1.54,.44,3.01,1.32,4.42,.88,1.41,2.07,2.63,3.59,3.69,1.51,1.05,3.3,1.89,5.35,2.51,2.05,.62,4.24,.93,6.57,.93,1.97,0,3.89-.26,5.76-.79,1.86-.53,3.52-1.32,4.97-2.37,1.45-1.05,2.61-2.37,3.49-3.95,.88-1.58,1.32-3.41,1.32-5.49s-.35-3.91-1.05-5.39c-.7-1.49-1.64-2.69-2.82-3.61-1.18-.92-2.53-1.59-4.05-2.01-1.53-.42-3.12-.63-4.76-.63-.57,0-1.12,.05-1.66,.16-.54,.11-1.08,.22-1.62,.34-.54,.12-1.09,.24-1.64,.34-.55,.11-1.13,.16-1.72,.16-.76,0-1.41-.13-1.95-.39-.54-.26-.98-.59-1.32-1.01s-.58-.91-.73-1.46c-.15-.55-.22-1.13-.22-1.72,0-.24,.06-.55,.18-.91,.12-.36,.28-.74,.47-1.13,.19-.39,.4-.77,.63-1.13s.45-.66,.67-.87c.7-.7,1.47-1.55,2.31-2.55,.84-1,1.7-2.08,2.59-3.24s1.79-2.36,2.7-3.61,1.76-2.44,2.57-3.59c.81-1.15,1.56-2.22,2.25-3.22,.69-1,1.26-1.84,1.72-2.51h-25.05c-.81,0-1.53-.12-2.17-.37-.64-.24-1.16-.56-1.58-.95s-.74-.84-.95-1.36c-.22-.51-.32-1.05-.32-1.62,0-.49,.09-.99,.26-1.5,.18-.51,.45-.99,.83-1.42,.38-.43,.85-.78,1.42-1.05,.57-.27,1.24-.41,2.03-.41h34.41c1.38,0,2.48,.33,3.3,.97,.82,.65,1.24,1.61,1.24,2.88s-.38,2.38-1.13,3.32c-.35,.43-.89,1.13-1.6,2.11-.72,.97-1.53,2.08-2.45,3.32-.92,1.24-1.92,2.58-3,4.01-1.08,1.43-2.16,2.84-3.24,4.22-1.08,1.38-2.13,2.66-3.14,3.85-1.01,1.19-1.93,2.17-2.74,2.96,2.92-.22,5.66,.07,8.23,.85,2.57,.78,4.8,1.99,6.71,3.61,1.9,1.62,3.41,3.63,4.52,6.02,1.11,2.39,1.66,5.09,1.66,8.09,0,3.41-.68,6.42-2.05,9.06-1.36,2.63-3.22,4.85-5.55,6.65-2.34,1.8-5.04,3.17-8.11,4.11-3.07,.95-6.3,1.42-9.71,1.42-2.3,0-4.54-.21-6.73-.63s-4.26-1.03-6.2-1.82c-1.95-.8-3.73-1.78-5.35-2.96-1.62-1.18-3.02-2.51-4.2-4.01-1.18-1.5-2.09-3.17-2.76-5.01-.66-1.84-.99-3.82-.99-5.96Z"/>
      <g>
        <path class="cls-5" d="M575.22,602.77l38.56-7.04,8.34,15.23-8.35,4.65-5.07-9.23-14.11,2.58,1.92,10.5,12.6-2.3,1.72,9.41-12.68,2.32,1.96,10.75,10.84-1.98,1.72,9.41-28.39,5.18-1.72-9.41,6.89-1.26-5.51-30.67-6.97,1.27-1.72-9.41Z"/>
        <path class="cls-5" d="M622.78,645.38l-1.99-9.35,8.27-1.76,5.69-33.08-6.51,1.39-1.99-9.35,20.04-4.27,23.94,36.54,7.35-1.57,1.99,9.35-22.13,4.72-1.99-9.35,4.09-.87-4.02-6.56-16.12,3.44-.99,7.63,4.59-.98,1.99,9.35-22.21,4.74Zm17.66-28.12l11.27-2.4-9-14.76-2.28,17.16Z"/>
        <path class="cls-5" d="M670.38,583.88l23.16-5.95,17.27,25.72,1.42-30.51,23.65-6.07,2.38,9.26-6.7,1.72,7.75,30.19,6.7-1.72,2.38,9.26-22.66,5.82-2.38-9.26,5.29-1.36-8.28-32.25-.36,11.99-1.99,26.6-6.95,1.78-16.55-23.26-5.48-8.29,8.09,31.51,5.46-1.4,2.38,9.26-22.08,5.67-2.38-9.26,6.7-1.72-7.75-30.19-6.7,1.72-2.38-9.26Z"/>
        <path class="cls-5" d="M740.88,565.34l26.07-7.59,2.67,9.18-7.79,2.27,8.72,29.92,7.79-2.27,2.67,9.18-26.15,7.62-2.67-9.18,7.87-2.29-8.71-29.92-7.79,2.27-2.67-9.18Z"/>
        <path class="cls-5" d="M772.51,556.14l25.64-8.11,2.88,9.12-8.06,2.55,9.4,29.71,12.05-3.81,.33-8.88,9.58,.28-.43,15.63-36.23,11.46-2.88-9.12,7.25-2.29-9.4-29.72-7.25,2.29-2.88-9.12Z"/>
        <path class="cls-5" d="M817.18,541.86l25.71-8.75,3.08,9.05-7.68,2.61,10.04,29.5,7.68-2.61,3.08,9.05-25.79,8.77-3.08-9.05,7.76-2.64-10.04-29.51-7.68,2.61-3.08-9.05Z"/>
        <path class="cls-5" d="M848.57,531.21l36.67-13.35,10.38,13.03-7.45,5.98-6.15-7.66-13.32,4.85,3.59,9.87,13.08-4.76,3.24,8.91-13.08,4.76,3.83,10.51,15.48-5.64-.05-8.88,9.51-.1,.24,15.63-38.83,14.14-3.27-8.99,6.5-2.37-10.58-29.31-6.5,2.37-3.27-8.99Z"/>
        <path class="cls-5" d="M934.74,554.74c-3.98,1.55-7.51,2.59-10.6,3.13-3.09,.53-5.86,.79-8.32,.77l-5.84-10.74,7.87-4.26,3.03,5.42c1.74-.07,3.46-.29,5.14-.68,1.68-.38,3.27-.86,4.75-1.44,2.02-.79,3.78-1.75,5.29-2.89,1.51-1.14,2.58-2.38,3.22-3.73,.63-1.35,.67-2.74,.12-4.17-.58-1.48-1.58-2.57-3.02-3.27-1.43-.69-3.93-.68-7.5,.04l-6.05,1.17c-5.18,.98-9.52,.83-13.01-.47-3.5-1.29-6-3.88-7.51-7.75-1.28-3.29-1.44-6.34-.46-9.17,.98-2.82,2.74-5.31,5.29-7.47,2.55-2.16,5.5-3.89,8.84-5.19,1.7-.66,3.44-1.2,5.23-1.63,1.79-.42,3.6-.73,5.42-.92,1.82-.19,3.61-.23,5.36-.12l6.4,11.71-8.62,4.46-3.92-7c-1.26,.06-2.49,.23-3.71,.48-1.21,.26-2.38,.61-3.49,1.04-3.02,1.18-5.18,2.62-6.47,4.31-1.29,1.7-1.62,3.37-.98,5.01,.68,1.75,1.82,2.86,3.41,3.34,1.59,.48,4.07,.4,7.42-.24l5.86-1.19c5.67-1.29,10.05-1.22,13.15,.23,3.1,1.45,5.39,4.06,6.85,7.82,1.28,3.29,1.72,6.2,1.3,8.75-.41,2.54-1.38,4.77-2.9,6.67-1.52,1.91-3.32,3.51-5.41,4.81-2.09,1.3-4.14,2.35-6.16,3.13Z"/>
        <path class="cls-5" d="M958.44,489.11l36.1-15.26,11.45,13.05-7.14,6.35-6.96-7.91-13.21,5.58,4.15,9.83,11.8-4.99,3.72,8.81-11.88,5.02,4.25,10.07,10.15-4.29,3.72,8.81-26.58,11.23-3.72-8.81,6.45-2.73-12.05-28.74-6.53,2.76-3.72-8.81Z"/>
        <path class="cls-5" d="M1026.11,457.9c4.57-2.04,9.04-2.89,13.4-2.56,4.36,.33,8.33,1.88,11.93,4.64,3.6,2.76,6.59,6.82,8.98,12.17,2.36,5.3,3.38,10.24,3.05,14.81-.33,4.57-1.82,8.58-4.45,12.03-2.64,3.45-6.25,6.2-10.82,8.23-4.52,2.02-8.96,2.86-13.32,2.52s-8.34-1.9-11.96-4.72c-3.62-2.81-6.61-6.87-8.98-12.17-2.39-5.35-3.4-10.29-3.05-14.81,.35-4.52,1.85-8.5,4.49-11.96,2.64-3.45,6.22-6.18,10.74-8.2Zm3.83,8.39c-4.26,1.9-6.85,4.69-7.77,8.37-.92,3.68-.18,8.2,2.21,13.55,2.39,5.36,5.26,8.94,8.62,10.74,3.36,1.81,7.17,1.76,11.43-.14,4.26-1.9,6.86-4.71,7.79-8.43,.93-3.72,.2-8.25-2.19-13.61-2.39-5.35-5.26-8.92-8.6-10.7-3.35-1.78-7.18-1.71-11.5,.22Z"/>
        <path class="cls-5" d="M1110.9,456.39c2.78,5.93,3.36,11.14,1.76,15.63-1.6,4.49-5.4,8.14-11.38,10.94-6.03,2.83-11.31,3.43-15.84,1.81s-8.18-5.39-10.96-11.32l-9.6-20.49-6.26,2.93-4.06-8.66,20.49-9.6,4.06,8.66-4.25,1.99,10.22,21.8c1.45,3.09,3.19,4.96,5.22,5.61,2.03,.65,4.42,.34,7.15-.94,2.68-1.26,4.36-2.94,5.04-5.05,.68-2.11,.24-4.81-1.3-8.11l-9.85-21.03-4.25,1.99-4.06-8.66,20.57-9.64,4.06,8.66-6.34,2.97,9.6,20.49Z"/>
        <path class="cls-5" d="M1108.12,422.09l20.85-10.22,30.48,23.76-11.09-22.62-5.67,2.78-4.21-8.59,21.39-10.49,4.21,8.59-7.05,3.46,17.93,36.57-11.35,5.56-36.44-27.59,13.76,28.06,6.44-3.16,4.21,8.59-21.39,10.49-4.21-8.59,6.36-3.12-13.72-27.98-6.29,3.08-4.21-8.59Z"/>
        <path class="cls-5" d="M1185.41,383.69c7.61-3.88,14.59-4.85,20.94-2.91,6.35,1.94,11.39,6.56,15.12,13.86,3.44,6.75,4.05,13.08,1.83,19-2.22,5.92-7.03,10.77-14.44,14.55l-21.6,11.01-4.34-8.52,6.16-3.14-14.16-27.77-6.16,3.14-4.34-8.52,21-10.7Zm17.74,36.67c4.82-2.46,7.93-5.41,9.33-8.88,1.4-3.46,1.01-7.32-1.16-11.58-2.48-4.87-5.54-7.96-9.18-9.27-3.64-1.31-7.76-.79-12.38,1.57l-5.02,2.56,14.16,27.77,4.26-2.17Z"/>
      </g>
      <g>
        <path class="cls-3" d="M1653.6,339.64c0-.78,.17-1.56,.5-2.32,.34-.76,.66-1.43,.97-2.02,.49-1.25,.99-2.58,1.48-3.98,.49-1.4,1.02-2.95,1.58-4.65,.56-1.7,1.16-3.58,1.8-5.65,.64-2.06,1.34-4.37,2.12-6.92,.77-2.55,1.63-5.39,2.57-8.5,.94-3.11,1.98-6.58,3.12-10.38h-2.1c-.77,0-1.75,0-2.92,.02-1.18,.01-2.63,.02-4.37,.02h-6.47c-1.05,.09-1.88,.16-2.49,.22-.61,.06-1.08,.1-1.41,.12-.34,.02-.57,.03-.69,.03h-.29c-1.28,0-2.3-.31-3.07-.92-.77-.62-1.16-1.63-1.16-3.04,0-.81,.15-1.45,.45-1.93,.3-.48,.72-.85,1.24-1.09,.53-.25,1.13-.41,1.8-.49,.67-.08,1.38-.12,2.12-.12h23.93c.4,0,.83,.07,1.28,.22,.45,.15,.87,.38,1.26,.71,.39,.33,.72,.75,.97,1.26,.26,.52,.39,1.15,.39,1.92,0,.4-.03,.83-.1,1.29-.07,.46-.18,.92-.34,1.39-.4,1.1-.83,2.33-1.28,3.7-.45,1.37-.95,2.92-1.5,4.67-.55,1.75-1.17,3.73-1.85,5.93-.68,2.21-1.45,4.72-2.3,7.53-.85,2.81-1.8,5.97-2.84,9.46-1.04,3.5-2.21,7.39-3.51,11.7-.05,.72-.14,1.44-.29,2.17-.15,.73-.39,1.39-.74,1.98-.35,.59-.82,1.08-1.41,1.45-.59,.37-1.35,.55-2.27,.55-.47,0-.96-.09-1.46-.27-.5-.18-.96-.44-1.36-.79-.4-.35-.73-.79-.99-1.33-.26-.54-.39-1.18-.39-1.92Z"/>
        <path class="cls-3" d="M1704.45,343.9c-3.27,0-6.15-.75-8.64-2.23-2.49-1.49-4.57-3.51-6.23-6.07-1.67-2.55-2.93-5.53-3.78-8.94-.85-3.41-1.28-7.04-1.28-10.89,0-4.08,.46-7.82,1.39-11.23s2.26-6.34,4-8.79c1.74-2.45,3.83-4.36,6.28-5.71,2.45-1.36,5.2-2.03,8.25-2.03s5.96,.68,8.4,2.03c2.44,1.36,4.5,3.26,6.17,5.71,1.67,2.45,2.93,5.38,3.8,8.79,.86,3.41,1.29,7.15,1.29,11.23,0,3.85-.42,7.48-1.26,10.89-.84,3.41-2.08,6.39-3.73,8.94-1.65,2.55-3.7,4.58-6.15,6.07-2.45,1.49-5.29,2.23-8.52,2.23Zm.17-6.92c1.43,0,2.72-.28,3.87-.84,1.14-.56,2.16-1.34,3.04-2.34,.88-1,1.64-2.17,2.27-3.53,.63-1.36,1.14-2.82,1.55-4.39,.4-1.57,.7-3.21,.89-4.92,.19-1.71,.29-3.44,.29-5.19,0-2.78-.24-5.43-.71-7.95-.47-2.52-1.19-4.74-2.17-6.65-.97-1.92-2.21-3.44-3.71-4.57-1.5-1.13-3.27-1.7-5.31-1.7s-3.86,.5-5.41,1.51c-1.55,1.01-2.85,2.43-3.9,4.27-1.05,1.84-1.84,4.04-2.37,6.6-.53,2.57-.79,5.39-.79,8.49,0,1.73,.11,3.45,.32,5.18,.21,1.73,.54,3.37,.97,4.94,.44,1.57,.99,3.03,1.66,4.39s1.47,2.53,2.39,3.53,1.97,1.78,3.16,2.34c1.19,.56,2.51,.84,3.97,.84Z"/>
        <path class="cls-3" d="M1745.29,330.86v-2.71c0-.95,.01-1.93,.03-2.94,0-.36,0-.76,.02-1.19,.01-.44,.02-1.01,.02-1.73l-8.7-.1c-.4,0-.8-.06-1.19-.17-.39-.11-.75-.32-1.06-.64-.31-.31-.57-.74-.77-1.29-.2-.55-.3-1.26-.3-2.13,0-.69,.11-1.24,.34-1.63,.22-.39,.55-.69,.97-.89,.42-.2,.93-.33,1.51-.39,.58-.06,1.23-.08,1.95-.08l7.33,.03,.1-9.04c0-.4,.03-.8,.1-1.19,.07-.39,.24-.74,.5-1.06,.27-.31,.67-.57,1.19-.77s1.25-.3,2.17-.3c.67,0,1.22,.12,1.65,.35s.77,.57,1.03,.99c.26,.43,.43,.94,.52,1.53,.09,.59,.13,1.26,.13,2v2.42c-.02,.94-.03,1.83-.03,2.67v2.4h6.18l2.39-.37c.29,0,.64,.06,1.04,.17,.4,.11,.79,.31,1.16,.6,.37,.29,.68,.68,.92,1.18,.25,.49,.37,1.12,.37,1.88,0,1.21-.3,2.17-.89,2.89-.59,.72-1.4,1.08-2.4,1.08h-2.62c-.92,0-1.88-.01-2.89-.03-.38,0-.82,0-1.31-.02-.49-.01-1.15-.02-1.98-.02-.02,1.55-.03,2.77-.02,3.66,.01,.9,.02,1.64,.02,2.22l.44,2.42c0,.31-.06,.67-.19,1.06-.12,.39-.33,.76-.62,1.11-.29,.35-.69,.64-1.19,.89s-1.14,.37-1.9,.37c-1.21,0-2.18-.29-2.91-.87-.73-.58-1.09-1.37-1.09-2.35Z"/>
      </g>
    </g>
  </g>
</svg>