<svg xmlns="http://www.w3.org/2000/svg" viewBox="0 0 128.89 128.91"><defs><style>.cls-1{fill:#8cd5e8;}</style></defs><g id="Layer_2" data-name="Layer 2"><g id="management"><g id="QR"><circle class="cls-1" cx="48.99" cy="2.59" r="2.57"/><circle class="cls-1" cx="74.78" cy="2.59" r="2.57"/><circle class="cls-1" cx="43.83" cy="7.73" r="2.57"/><circle class="cls-1" cx="48.99" cy="7.73" r="2.57"/><circle class="cls-1" cx="64.46" cy="7.73" r="2.57"/><circle class="cls-1" cx="69.62" cy="7.73" r="2.57"/><circle class="cls-1" cx="74.78" cy="7.73" r="2.57"/><circle class="cls-1" cx="79.92" cy="7.73" r="2.57"/><circle class="cls-1" cx="85.08" cy="7.73" r="2.57"/><circle class="cls-1" cx="48.99" cy="12.89" r="2.57"/><circle class="cls-1" cx="59.3" cy="12.89" r="2.57"/><circle class="cls-1" cx="85.08" cy="12.89" r="2.57"/><circle class="cls-1" cx="43.83" cy="18.05" r="2.57"/><circle class="cls-1" cx="48.99" cy="18.05" r="2.57"/><circle class="cls-1" cx="74.78" cy="18.05" r="2.57"/><circle class="cls-1" cx="79.92" cy="18.05" r="2.57"/><circle class="cls-1" cx="85.08" cy="18.05" r="2.57"/><circle class="cls-1" cx="64.46" cy="23.21" r="2.57"/><circle class="cls-1" cx="74.78" cy="23.21" r="2.57"/><circle class="cls-1" cx="43.83" cy="28.37" r="2.57"/><circle class="cls-1" cx="54.14" cy="28.37" r="2.57"/><circle class="cls-1" cx="64.46" cy="28.37" r="2.57"/><circle class="cls-1" cx="69.62" cy="28.37" r="2.57"/><circle class="cls-1" cx="74.78" cy="28.37" r="2.57"/><circle class="cls-1" cx="79.92" cy="28.37" r="2.57"/><circle class="cls-1" cx="85.08" cy="28.37" r="2.57"/><circle class="cls-1" cx="43.83" cy="33.51" r="2.57"/><circle class="cls-1" cx="54.14" cy="33.51" r="2.57"/><circle class="cls-1" cx="64.46" cy="33.51" r="2.57"/><circle class="cls-1" cx="74.78" cy="33.51" r="2.57"/><circle class="cls-1" cx="85.08" cy="33.51" r="2.57"/><circle class="cls-1" cx="59.3" cy="38.67" r="2.57"/><circle class="cls-1" cx="74.78" cy="38.67" r="2.57"/><circle class="cls-1" cx="85.08" cy="38.67" r="2.57"/><circle class="cls-1" cx="2.59" cy="43.83" r="2.57"/><circle class="cls-1" cx="7.73" cy="43.83" r="2.57"/><circle class="cls-1" cx="12.89" cy="43.83" r="2.57"/><circle class="cls-1" cx="18.05" cy="43.83" r="2.57"/><circle class="cls-1" cx="23.21" cy="43.83" r="2.57"/><circle class="cls-1" cx="33.51" cy="43.83" r="2.57"/><circle class="cls-1" cx="38.67" cy="43.83" r="2.57"/><circle class="cls-1" cx="43.83" cy="43.83" r="2.57"/><circle class="cls-1" cx="48.99" cy="43.83" r="2.57"/><circle class="cls-1" cx="54.14" cy="43.83" r="2.57"/><circle class="cls-1" cx="64.46" cy="43.83" r="2.57"/><circle class="cls-1" cx="69.62" cy="43.83" r="2.57"/><circle class="cls-1" cx="79.92" cy="43.83" r="2.57"/><circle class="cls-1" cx="90.24" cy="43.83" r="2.57"/><circle class="cls-1" cx="100.54" cy="43.83" r="2.57"/><circle class="cls-1" cx="110.86" cy="43.83" r="2.57"/><circle class="cls-1" cx="121.18" cy="43.83" r="2.57"/><circle class="cls-1" cx="2.59" cy="48.99" r="2.57"/><circle class="cls-1" cx="7.73" cy="48.99" r="2.57"/><circle class="cls-1" cx="18.05" cy="48.99" r="2.57"/><circle class="cls-1" cx="38.67" cy="48.99" r="2.57"/><circle class="cls-1" cx="48.99" cy="48.99" r="2.57"/><circle class="cls-1" cx="85.08" cy="48.99" r="2.57"/><circle class="cls-1" cx="90.24" cy="48.99" r="2.57"/><circle class="cls-1" cx="100.54" cy="48.99" r="2.57"/><circle class="cls-1" cx="105.7" cy="48.99" r="2.57"/><circle class="cls-1" cx="126.32" cy="48.99" r="2.57"/><circle class="cls-1" cx="12.89" cy="54.14" r="2.57"/><circle class="cls-1" cx="33.51" cy="54.14" r="2.57"/><circle class="cls-1" cx="48.99" cy="54.14" r="2.57"/><circle class="cls-1" cx="64.46" cy="54.14" r="2.57"/><circle class="cls-1" cx="69.62" cy="54.14" r="2.57"/><circle class="cls-1" cx="74.78" cy="54.14" r="2.57"/><circle class="cls-1" cx="90.24" cy="54.14" r="2.57"/><circle class="cls-1" cx="95.4" cy="54.14" r="2.57"/><circle class="cls-1" cx="105.7" cy="54.14" r="2.57"/><circle class="cls-1" cx="116.02" cy="54.14" r="2.57"/><circle class="cls-1" cx="7.73" cy="59.3" r="2.57"/><circle class="cls-1" cx="12.89" cy="59.3" r="2.57"/><circle class="cls-1" cx="23.21" cy="59.3" r="2.57"/><circle class="cls-1" cx="38.67" cy="59.3" r="2.57"/><circle class="cls-1" cx="48.99" cy="59.3" r="2.57"/><circle class="cls-1" cx="54.14" cy="59.3" r="2.57"/><circle class="cls-1" cx="59.3" cy="59.3" r="2.57"/><circle class="cls-1" cx="74.78" cy="59.3" r="2.57"/><circle class="cls-1" cx="85.08" cy="59.3" r="2.57"/><circle class="cls-1" cx="90.24" cy="59.3" r="2.57"/><circle class="cls-1" cx="12.89" cy="64.46" r="2.57"/><circle class="cls-1" cx="18.05" cy="64.46" r="2.57"/><circle class="cls-1" cx="23.21" cy="64.46" r="2.57"/><circle class="cls-1" cx="28.37" cy="64.46" r="2.57"/><circle class="cls-1" cx="33.51" cy="64.46" r="2.57"/><circle class="cls-1" cx="38.67" cy="64.46" r="2.57"/><circle class="cls-1" cx="43.83" cy="64.46" r="2.57"/><circle class="cls-1" cx="48.99" cy="64.46" r="2.57"/><circle class="cls-1" cx="69.62" cy="64.46" r="2.57"/><circle class="cls-1" cx="74.78" cy="64.46" r="2.57"/><circle class="cls-1" cx="79.92" cy="64.46" r="2.57"/><circle class="cls-1" cx="85.08" cy="64.46" r="2.57"/><circle class="cls-1" cx="90.24" cy="64.46" r="2.57"/><circle class="cls-1" cx="95.4" cy="64.46" r="2.57"/><circle class="cls-1" cx="100.54" cy="64.46" r="2.57"/><circle class="cls-1" cx="105.7" cy="64.46" r="2.57"/><circle class="cls-1" cx="110.86" cy="64.46" r="2.57"/><circle class="cls-1" cx="121.18" cy="64.46" r="2.57"/><circle class="cls-1" cx="126.32" cy="64.46" r="2.57"/><circle class="cls-1" cx="2.59" cy="69.62" r="2.57"/><circle class="cls-1" cx="18.05" cy="69.62" r="2.57"/><circle class="cls-1" cx="23.21" cy="69.62" r="2.57"/><circle class="cls-1" cx="28.37" cy="69.62" r="2.57"/><circle class="cls-1" cx="43.83" cy="69.62" r="2.57"/><circle class="cls-1" cx="48.99" cy="69.62" r="2.57"/><circle class="cls-1" cx="54.14" cy="69.62" r="2.57"/><circle class="cls-1" cx="59.3" cy="69.62" r="2.57"/><circle class="cls-1" cx="85.08" cy="69.62" r="2.57"/><circle class="cls-1" cx="90.24" cy="69.62" r="2.57"/><circle class="cls-1" cx="95.4" cy="69.62" r="2.57"/><circle class="cls-1" cx="100.54" cy="69.62" r="2.57"/><circle class="cls-1" cx="105.7" cy="69.62" r="2.57"/><circle class="cls-1" cx="126.32" cy="69.62" r="2.57"/><circle class="cls-1" cx="2.59" cy="74.78" r="2.57"/><circle class="cls-1" cx="18.05" cy="74.78" r="2.57"/><circle class="cls-1" cx="23.21" cy="74.78" r="2.57"/><circle class="cls-1" cx="28.37" cy="74.78" r="2.57"/><circle class="cls-1" cx="33.51" cy="74.78" r="2.57"/><circle class="cls-1" cx="38.67" cy="74.78" r="2.57"/><circle class="cls-1" cx="43.83" cy="74.78" r="2.57"/><circle class="cls-1" cx="59.3" cy="74.78" r="2.57"/><circle class="cls-1" cx="64.46" cy="74.78" r="2.57"/><circle class="cls-1" cx="69.62" cy="74.78" r="2.57"/><circle class="cls-1" cx="74.78" cy="74.78" r="2.57"/><circle class="cls-1" cx="90.24" cy="74.78" r="2.57"/><circle class="cls-1" cx="95.4" cy="74.78" r="2.57"/><circle class="cls-1" cx="105.7" cy="74.78" r="2.57"/><circle class="cls-1" cx="116.02" cy="74.78" r="2.57"/><circle class="cls-1" cx="121.18" cy="74.78" r="2.57"/><circle class="cls-1" cx="2.59" cy="79.92" r="2.57"/><circle class="cls-1" cx="23.21" cy="79.92" r="2.57"/><circle class="cls-1" cx="28.37" cy="79.92" r="2.57"/><circle class="cls-1" cx="43.83" cy="79.92" r="2.57"/><circle class="cls-1" cx="54.14" cy="79.92" r="2.57"/><circle class="cls-1" cx="59.3" cy="79.92" r="2.57"/><circle class="cls-1" cx="64.46" cy="79.92" r="2.57"/><circle class="cls-1" cx="85.08" cy="79.92" r="2.57"/><circle class="cls-1" cx="90.24" cy="79.92" r="2.57"/><circle class="cls-1" cx="121.18" cy="79.92" r="2.57"/><circle class="cls-1" cx="126.32" cy="79.92" r="2.57"/><circle class="cls-1" cx="2.59" cy="85.08" r="2.57"/><circle class="cls-1" cx="12.89" cy="85.08" r="2.57"/><circle class="cls-1" cx="18.05" cy="85.08" r="2.57"/><circle class="cls-1" cx="28.37" cy="85.08" r="2.57"/><circle class="cls-1" cx="33.51" cy="85.08" r="2.57"/><circle class="cls-1" cx="38.67" cy="85.08" r="2.57"/><circle class="cls-1" cx="48.99" cy="85.08" r="2.57"/><circle class="cls-1" cx="54.14" cy="85.08" r="2.57"/><circle class="cls-1" cx="74.78" cy="85.08" r="2.57"/><circle class="cls-1" cx="79.92" cy="85.08" r="2.57"/><circle class="cls-1" cx="85.08" cy="85.08" r="2.57"/><circle class="cls-1" cx="90.24" cy="85.08" r="2.57"/><circle class="cls-1" cx="95.4" cy="85.08" r="2.57"/><circle class="cls-1" cx="100.54" cy="85.08" r="2.57"/><circle class="cls-1" cx="105.7" cy="85.08" r="2.57"/><circle class="cls-1" cx="110.86" cy="85.08" r="2.57"/><circle class="cls-1" cx="126.32" cy="85.08" r="2.57"/><circle class="cls-1" cx="43.83" cy="90.24" r="2.57"/><circle class="cls-1" cx="54.14" cy="90.24" r="2.57"/><circle class="cls-1" cx="59.3" cy="90.24" r="2.57"/><circle class="cls-1" cx="74.78" cy="90.24" r="2.57"/><circle class="cls-1" cx="85.08" cy="90.24" r="2.57"/><circle class="cls-1" cx="105.7" cy="90.24" r="2.57"/><circle class="cls-1" cx="126.32" cy="90.24" r="2.57"/><circle class="cls-1" cx="43.83" cy="95.4" r="2.57"/><circle class="cls-1" cx="48.99" cy="95.4" r="2.57"/><circle class="cls-1" cx="54.14" cy="95.4" r="2.57"/><circle class="cls-1" cx="64.46" cy="95.4" r="2.57"/><circle class="cls-1" cx="69.62" cy="95.4" r="2.57"/><circle class="cls-1" cx="79.92" cy="95.4" r="2.57"/><circle class="cls-1" cx="85.08" cy="95.4" r="2.57"/><circle class="cls-1" cx="95.4" cy="95.4" r="2.57"/><circle class="cls-1" cx="105.7" cy="95.4" r="2.57"/><circle class="cls-1" cx="116.02" cy="95.4" r="2.57"/><circle class="cls-1" cx="121.18" cy="95.4" r="2.57"/><circle class="cls-1" cx="126.32" cy="95.4" r="2.57"/><circle class="cls-1" cx="59.3" cy="100.54" r="2.57"/><circle class="cls-1" cx="69.62" cy="100.54" r="2.57"/><circle class="cls-1" cx="79.92" cy="100.54" r="2.57"/><circle class="cls-1" cx="85.08" cy="100.54" r="2.57"/><circle class="cls-1" cx="105.7" cy="100.54" r="2.57"/><circle class="cls-1" cx="110.86" cy="100.54" r="2.57"/><circle class="cls-1" cx="43.83" cy="105.7" r="2.57"/><circle class="cls-1" cx="48.99" cy="105.7" r="2.57"/><circle class="cls-1" cx="54.14" cy="105.7" r="2.57"/><circle class="cls-1" cx="64.46" cy="105.7" r="2.57"/><circle class="cls-1" cx="69.62" cy="105.7" r="2.57"/><circle class="cls-1" cx="74.78" cy="105.7" r="2.57"/><circle class="cls-1" cx="85.08" cy="105.7" r="2.57"/><circle class="cls-1" cx="90.24" cy="105.7" r="2.57"/><circle class="cls-1" cx="95.4" cy="105.7" r="2.57"/><circle class="cls-1" cx="100.54" cy="105.7" r="2.57"/><circle class="cls-1" cx="105.7" cy="105.7" r="2.57"/><circle class="cls-1" cx="110.86" cy="105.7" r="2.57"/><circle class="cls-1" cx="43.83" cy="110.86" r="2.57"/><circle class="cls-1" cx="48.99" cy="110.86" r="2.57"/><circle class="cls-1" cx="59.3" cy="110.86" r="2.57"/><circle class="cls-1" cx="64.46" cy="110.86" r="2.57"/><circle class="cls-1" cx="79.92" cy="110.86" r="2.57"/><circle class="cls-1" cx="85.08" cy="110.86" r="2.57"/><circle class="cls-1" cx="95.4" cy="110.86" r="2.57"/><circle class="cls-1" cx="105.7" cy="110.86" r="2.57"/><circle class="cls-1" cx="121.18" cy="110.86" r="2.57"/><circle class="cls-1" cx="126.32" cy="110.86" r="2.57"/><circle class="cls-1" cx="43.83" cy="116.02" r="2.57"/><circle class="cls-1" cx="48.99" cy="116.02" r="2.57"/><circle class="cls-1" cx="69.62" cy="116.02" r="2.57"/><circle class="cls-1" cx="74.78" cy="116.02" r="2.57"/><circle class="cls-1" cx="95.4" cy="116.02" r="2.57"/><circle class="cls-1" cx="105.7" cy="116.02" r="2.57"/><circle class="cls-1" cx="116.02" cy="116.02" r="2.57"/><circle class="cls-1" cx="126.32" cy="116.02" r="2.57"/><circle class="cls-1" cx="43.83" cy="121.18" r="2.57"/><circle class="cls-1" cx="48.99" cy="121.18" r="2.57"/><circle class="cls-1" cx="59.3" cy="121.18" r="2.57"/><circle class="cls-1" cx="69.62" cy="121.18" r="2.57"/><circle class="cls-1" cx="79.92" cy="121.18" r="2.57"/><circle class="cls-1" cx="90.24" cy="121.18" r="2.57"/><circle class="cls-1" cx="95.4" cy="121.18" r="2.57"/><circle class="cls-1" cx="100.54" cy="121.18" r="2.57"/><circle class="cls-1" cx="105.7" cy="121.18" r="2.57"/><circle class="cls-1" cx="110.86" cy="121.18" r="2.57"/><circle class="cls-1" cx="121.18" cy="121.18" r="2.57"/><circle class="cls-1" cx="43.83" cy="126.32" r="2.57"/><circle class="cls-1" cx="48.99" cy="126.32" r="2.57"/><circle class="cls-1" cx="54.14" cy="126.32" r="2.57"/><circle class="cls-1" cx="69.62" cy="126.32" r="2.57"/><circle class="cls-1" cx="74.78" cy="126.32" r="2.57"/><circle class="cls-1" cx="85.08" cy="126.32" r="2.57"/><circle class="cls-1" cx="116.02" cy="126.32" r="2.57"/><circle class="cls-1" cx="121.18" cy="126.32" r="2.57"/><circle class="cls-1" cx="126.32" cy="126.32" r="2.57"/><path class="cls-1" d="M25.18,0H10.91A10.93,10.93,0,0,0,0,10.91V25.18A10.93,10.93,0,0,0,10.91,36.1H25.18a10.89,10.89,0,0,0,10.9-10.9V10.91A10.9,10.9,0,0,0,25.18,0Zm5.76,23.16a7.78,7.78,0,0,1-7.78,7.78H13a7.78,7.78,0,0,1-7.79-7.78V13A7.79,7.79,0,0,1,13,5.16H23.14A7.78,7.78,0,0,1,30.92,13V23.16Z"/><path class="cls-1" d="M25.78,21.11a4.67,4.67,0,0,1-4.67,4.67H15a4.67,4.67,0,0,1-4.67-4.67V15A4.67,4.67,0,0,1,15,10.32h6.12A4.67,4.67,0,0,1,25.78,15v6.12Z"/><path class="cls-1" d="M118,0H103.74A10.93,10.93,0,0,0,92.81,10.91V25.18a10.9,10.9,0,0,0,10.91,10.9H118a10.89,10.89,0,0,0,10.9-10.9V10.91A10.89,10.89,0,0,0,118,0Zm5.74,23.16A7.78,7.78,0,0,1,116,30.94H105.78A7.78,7.78,0,0,1,98,23.16V13a7.79,7.79,0,0,1,7.79-7.79H116A7.79,7.79,0,0,1,123.75,13Z"/><path class="cls-1" d="M118.59,21.11a4.67,4.67,0,0,1-4.67,4.67H107.8a4.67,4.67,0,0,1-4.67-4.67V15a4.67,4.67,0,0,1,4.67-4.67h6.12A4.67,4.67,0,0,1,118.59,15v6.12Z"/><path class="cls-1" d="M25.18,92.81H10.91A10.93,10.93,0,0,0,0,103.74V118a10.92,10.92,0,0,0,10.91,10.9H25.18A10.89,10.89,0,0,0,36.08,118V103.74A10.9,10.9,0,0,0,25.18,92.81ZM30.94,116a7.78,7.78,0,0,1-7.78,7.78H13A7.78,7.78,0,0,1,5.16,116V105.78A7.79,7.79,0,0,1,13,98H23.14a7.78,7.78,0,0,1,7.78,7.79V116Z"/><path class="cls-1" d="M25.78,113.92a4.67,4.67,0,0,1-4.67,4.67H15a4.67,4.67,0,0,1-4.67-4.67V107.8A4.67,4.67,0,0,1,15,103.13h6.12a4.67,4.67,0,0,1,4.67,4.67v6.12Z"/></g></g></g></svg>