<?xml version="1.0" encoding="UTF-8"?>
<svg id="Layer_2" data-name="Layer 2" xmlns="http://www.w3.org/2000/svg" viewBox="0 0 1964.38 587.75">
  <defs>
    <style>
      .cls-1 {
        fill: #ffe3a6;
      }

      .cls-2 {
        fill: #ffb419;
      }
    </style>
  </defs>
  <g id="Layer_1-2" data-name="Layer 1">
    <g>
      <path class="cls-2" d="M20.51,155.08c14.89-9.67,30.31-18.51,46-26.57,31.04-15.92,63.52-28.86,97-38.65,16.44-4.87,32.93-8.87,49.38-12.21s32.85-6,49.15-8c8.14-1,16.28-1.81,24.36-2.49,4.05-.38,8.08-.66,12.11-.94s8.06-.53,12.06-.7c8-.41,16-.67,23.95-.83s15.85-.14,23.71,0c15.72,.26,31.29,.89,46.67,2,7.68,.57,15.35,1.18,22.94,2,3.81,.36,7.6,.76,11.38,1.19,3.77,.43,7.57,.83,11.31,1.33,15.06,1.84,29.9,4.13,44.61,6.62,7.36,1.24,14.65,2.63,21.93,4s14.5,2.89,21.68,4.44c57.52,12.37,112.55,28.6,165.87,46.7,13.33,4.54,26.57,9.16,39.7,13.86,13.13,4.71,26.21,9.38,39.17,14.25s25.86,9.73,38.69,14.62l19.2,7.34,19.42,7.49,19.82,7.72c3.3,1.3,6.6,2.53,9.89,3.89l9.87,4.07,19.67,8.14,19.54,8.54,9.75,4.25,9.66,4.41c6.43,3,12.9,5.84,19.26,8.87l19,9,18.74,9.13,36.62,18,9,4.39,8.91,4.25c3,1.39,6,2.82,9,4.18l8.88,4,8.91,4,8.91,3.71c3,1.25,6,2.44,9,3.67s6,2.25,9,3.39c12,4.62,24.31,8.66,36.71,12.55l18.82,5.34c1.58,.44,3.14,.9,4.73,1.31l4.78,1.18,9.58,2.32c6.4,1.52,12.78,3.17,19.29,4.42l19.49,4,4.89,1,5,.9,10,1.81c6.65,1.22,13.3,2.35,19.93,3.49s13.27,2.24,19.91,3.27,13.25,2.09,19.89,3,13.26,1.83,19.89,2.69l10,1.19,10,1.09c13.28,1.41,26.56,2.55,39.86,3.29,26.56,1.61,53.19,1.7,79.76,.28l9.94-.68,5-.34,5-.46,9.92-.93,9.89-1.17,4.94-.59c1.65-.21,3.29-.47,4.93-.71l9.85-1.44c3.28-.52,6.54-1.12,9.81-1.67s6.55-1.12,9.79-1.81l9.75-2c3.26-.63,6.47-1.46,9.71-2.18s6.47-1.47,9.68-2.31l9.62-2.54,4.8-1.28,4.77-1.41,9.53-2.83c3.17-1,6.3-2.06,9.45-3.08s6.32-2,9.41-3.2c3.43-1.22,6.85-2.47,10.24-3.76l17,11-40.54,10.35c-139.41,42.14-268.16,28.74-379.57,17.13-179.42-18.69-204.47-59.43-403.44-106.9-245.42-58.55-616.95-5.07-828.56,150.4"/>
      <path class="cls-2" d="M1957.6,177.42s-1.83,1.85-23.57,19.72c-43.77,35.67-91.04,66.83-141.07,93-24.61,13-49.74,24.72-74.9,35.55-25.36,10.99-51.27,20.69-77.61,29.06-13.77,4.39-27.65,8.36-41.65,11.89l-28.66-7.81,48.94-10.62c33.15-10.03,65.43-22.74,96.52-38,57.32-28.1,136.24-69,244.52-194.43"/>
      <path class="cls-1" d="M1960.12,115.78c-105.09,130.13-187.25,166.31-244.57,194.41-21.51,10.56-43.6,19.9-66.15,28-7,2.5-12.32-6.36-6.85-11.34h0c21.37-8.08,42.21-17.53,62.38-28.27,23.49-12.33,46.16-26.16,67.88-41.39l4.05-2.84,4-2.91c2.65-2,5.32-3.88,7.92-5.9l7.82-6,7.68-6.17c10.15-8.33,20-16.91,29.53-25.89,2.4-2.21,4.7-4.53,7-6.81s4.68-4.52,6.93-6.87c4.51-4.7,9.05-9.35,13.37-14.18,8.79-9.54,17-19.54,25-29.62,7.8-10.25,15.41-20.55,22.3-31.31l5.2-8,5-8.16,2.47-4.06,1.23-2,1.17-2.07,4.6-8.31,2.28-4.14,2.16-4.22,4.29-8.41c1.46-2.77,2.75-5.64,4.09-8.48s2.63-5.69,3.93-8.53c.67-1.4,1.26-2.86,1.86-4.3l1.8-4.33,3.6-8.62c2.21-5.83,4.43-11.62,6.53-17.43l5.76-17.63"/>
      <path class="cls-1" d="M7.68,408.86s1.78-89.19,66.49-126.26c211.61-155.47,516.65-82.69,762.07-24.14,199,47.47,224,88.21,403.44,106.9,104.36,10.87,224,23.32,353.08-9.79,3.47-.91,7.01,1.17,7.92,4.63,.61,2.34-.13,4.83-1.92,6.46h0c-12.72,3.25-25.52,6.18-38.39,8.8-3.36,.75-6.76,1.32-10.14,2s-6.77,1.29-10.16,1.88c-6.79,1.09-13.57,2.34-20.39,3.27l-10.22,1.5-10.24,1.3-5.12,.66-5.13,.56-10.27,1.13c-54.79,5.54-110,6.09-164.75,4.89-13.71-.25-27.36-.71-41-1.06l-20.43-.59-10.19-.28-5.09-.15-5.19-.2-20.8-.79c-6.94-.16-13.91-.69-20.89-1.12l-10.49-.64-5.25-.3c-1.75-.13-3.5-.31-5.26-.46l-21.1-1.88c-14.07-1.65-28.27-3.11-42.39-5.43-3.53-.55-7.1-1-10.61-1.65l-10.55-1.9-10.58-1.86-10.45-2.09-10.46-2.12c-3.47-.72-6.86-1.5-10.3-2.25l-10.3-2.23-10.15-2.25-20.11-4.51-9.94-2.21-5-1.09-4.91-1-19.61-4.12-19.45-3.8c-6.48-1.23-13-2.29-19.4-3.44l-9.68-1.69-9.71-1.48-19.39-2.89-19.47-2.51-9.71-1.25c-3.23-.42-6.52-.72-9.77-1.09l-19.53-2.1-20-2.08-20.27-2-40.3-3.9c-26.75-2.53-53.28-5-79.58-6.9-52.57-4-104.15-6.76-154.08-7s-98.18,1.58-143.35,7.29c-11.3,1.36-22.4,3-33.26,4.9-2.73,.44-5.42,1-8.1,1.47s-5.39,1-8,1.53-5.33,1-7.94,1.63l-7.85,1.73c-20.07,4.54-39.84,10.33-59.19,17.33-18.11,6.58-35.69,14.52-52.6,23.75-8.23,4.52-16.23,9.31-24,14.37-7.75,5.12-15.24,10.54-22.71,16.24-29.82,23-58.14,51.52-83,83.57-25.25,32.4-46.27,67.89-62.56,105.6"/>
    </g>
  </g>
</svg>