<?xml version="1.0" encoding="UTF-8"?><svg id="Layer_2" xmlns="http://www.w3.org/2000/svg" viewBox="0 0 1531.1 711.15"><defs><style>.cls-1{fill:#fff;}.cls-2{fill:#ffe3a6;}.cls-3{fill:#ffb419;}</style></defs><g id="Layer_1-2"><g><path class="cls-1" d="m1531,237.4C1081.08,343.2-3.87,360.03,1.5,645.6v65.55h1529.6l-.1-473.75Z"/><path class="cls-3" d="m0,414c3.8-1.3,7.5-2.5,11.3-3.7l5.6-1.8c1.9-.6,3.7-1.1,5.6-1.6,1.9-.6,3.7-1.1,5.6-1.6,1.9-.5,3.7-1,5.6-1.5l11.2-2.9c7.4-1.8,14.9-3.5,22.2-5,7.4-1.5,14.7-2.9,22.1-4.2,14.7-2.5,29.3-4.6,43.8-6.4,29-3.4,57.6-5.6,85.8-7.2,14.2-.7,28.2-1.4,42.2-1.8l10.5-.4,10.5-.3,20.9-.7c55.5-1.6,110.2-3,164.6-5.9,27.2-1.5,54.3-3.3,81.3-5.4,13.5-1.1,27-2.3,40.5-3.6l40.4-3.7c32.1-3,64.2-6.1,96.3-9.4l31.8,15-74.8,2.3C325.4,395.2,133.7,436.2,3.1,507.4"/><path class="cls-3" d="m1531,237.4c-14.2,4.9-84.8,55.3-160.8,78.5-14,4.3-28.2,7.1-42.3,10.1s-28.1,5.5-42,7.8c-7,1.1-14,2.2-20.9,3.2s-13.9,2-20.8,2.9-13.9,1.8-20.8,2.6c-6.9.8-13.8,1.6-20.7,2.4-27.6,2.9-55.1,5.3-82.5,7.3-54.8,3.9-109.3,6.6-163.6,9.3-54.3,2.6-108.5,5.1-162.5,8.2-50.4,2.9-100.8,6.3-151,10.5l-49.3-13.7,89.5-2.6c389.2-33.8,786.8-56.6,847.8-244.8"/><path class="cls-2" d="m3.1,507.2c62.9-67.3,294.5-108.7,636.7-139.4,7.4-.7,9.9,9.6,3,12.4h0l-10.8.9c-13.5,1.2-26.9,2.4-40.3,3.8-13.4,1.3-26.9,2.7-40.3,4.3-26.8,3.2-53.5,7.3-80.1,12.1s-52.9,10.6-79.1,17.3c-26.2,6.7-52,14.3-77.6,22.8-25.5,8.6-50.6,18-75.1,28.4l-9.1,3.9-9.1,4c-6.1,2.6-12,5.4-18,8.2-11.9,5.7-23.6,11.4-35,17.4-22.9,12-44.7,24.8-64.9,38.2l-7.5,5.1c-2.5,1.7-4.8,3.5-7.3,5.2-1.2.9-2.4,1.7-3.6,2.6l-3.5,2.6c-2.3,1.7-4.7,3.4-6.9,5.2s-4.6,3.4-6.7,5.2l-6.5,5.3c-2.1,1.8-4.1,3.6-6.2,5.4-2.1,1.7-4,3.6-6,5.3-7.4,6.8-14.5,14-21.1,21.5-5.9,6.6-11.2,13.6-16,21-4.1,6.2-7.6,12.8-10.6,19.7"/><path class="cls-2" d="m1531,119.1c-58.6,180.8-427.7,209-801.8,240.9-8,.7-10.6-10.4-3.2-13.4h0c21.8-2.3,43.5-4.6,65.2-7.1,53.7-6.2,107.3-13.2,160.6-21.7s106.3-18.2,158.5-30.2c13-3,26-6.1,39-9.4s25.8-6.7,38.5-10.3c25.5-7.2,50.7-15,75.2-23.7,12.2-4.4,24.3-8.9,36.2-13.7,11.9-4.8,23.5-9.9,34.8-15.2,22.6-10.7,43.9-22.6,62.6-35.7,18.7-13.1,90.6-65.6,134.3-179.6"/></g></g></svg>