<?xml version="1.0" encoding="utf-8"?>
<!-- Generator: Adobe Illustrator 27.2.0, SVG Export Plug-In . SVG Version: 6.00 Build 0)  -->
<svg version="1.1" id="Layer_2_00000061468971988814057220000001135469792527389366_"
	 xmlns="http://www.w3.org/2000/svg" xmlns:xlink="http://www.w3.org/1999/xlink" x="0px" y="0px" viewBox="0 0 257.6 342.9"
	 style="enable-background:new 0 0 257.6 342.9;" xml:space="preserve">
<style type="text/css">
	.st0{fill:#F37728;}
</style>
<g>
	<path class="st0" d="M127.7,109c-33.7,0-61.1,27.4-61.1,61.1c0,33.7,27.4,61.1,61.1,61.1c33.7,0,61.1-27.4,61.1-61.1
		C188.8,136.4,161.4,109,127.7,109z M107.8,169.1v34c0,0.7-0.6,1.3-1.3,1.3h-3.7c-0.7,0-1.3-0.6-1.3-1.3v-34
		c-6.3-2.7-6.3-12.4-6.3-12.4c0-14.2,9.5-14.2,9.5-14.2s9.5,0,9.5,14.2C114.1,156.7,114.5,166,107.8,169.1z M131.5,202.6
		c0,1-0.8,1.8-1.8,1.8H127c-1,0-1.8-0.8-1.8-1.8v-33.5h-4.5c-1,0-1.8-0.8-1.8-1.8c0.5-15.1,6.5-31.5,12.6-31.5V202.6z M160.2,164.6
		c0,2.5-2,4.5-4.5,4.5h-1.9v33.7c0,0.9-0.7,1.6-1.6,1.6h-3.1c-0.9,0-1.6-0.7-1.6-1.6v-33.7h-1.9c-2.5,0-4.5-2-4.5-4.5v-20.5
		c0-0.9,0.7-1.6,1.6-1.6h0c0.9,0,1.6,0.7,1.6,1.6v13.8h2.1v-13.8c0-0.9,0.7-1.6,1.6-1.6h0c0.9,0,1.6,0.7,1.6,1.6v13.8h2.1v-13.8
		c0-0.9,0.7-1.6,1.6-1.6s1.6,0.7,1.6,1.6v13.8h2.1v-13.8c0-0.9,0.7-1.6,1.6-1.6c0.9,0,1.6,0.7,1.6,1.6V164.6z"/>
	<path class="st0" d="M127.7,86.8c-46,0-83.3,37.3-83.3,83.3c0,46,37.3,83.3,83.3,83.3s83.3-37.3,83.3-83.3
		C211,124.1,173.7,86.8,127.7,86.8z M127.7,237.1c-37,0-67.1-30.1-67.1-67.1c0-37,30.1-67.1,67.1-67.1s67.1,30.1,67.1,67.1
		C194.8,207.1,164.7,237.1,127.7,237.1z"/>
	<g>
		<path class="st0" d="M39.9,255.6l18.6-22.5l5.7,4.7l-7.3,8.8l7.5,6.2l7.3-8.8l5.7,4.7l-18.6,22.5l-5.7-4.7l7.3-8.8l-7.5-6.2
			l-7.3,8.8L39.9,255.6z"/>
		<path class="st0" d="M95.2,256.9l6.7,2.9L94.6,277c-0.9,2-2.1,3.6-3.6,4.7s-3.3,1.7-5.3,1.8c-2,0.1-4-0.3-6.1-1.2
			c-2.1-0.9-3.8-2.1-5.1-3.7c-1.3-1.5-2-3.2-2.3-5.1c-0.2-1.9,0.1-3.8,1-5.9l7.4-17.2l6.7,2.9L80.1,270c-0.4,0.8-0.5,1.6-0.5,2.4
			c0.1,0.8,0.3,1.5,0.8,2.1c0.4,0.6,1,1.1,1.8,1.4c0.8,0.3,1.5,0.5,2.3,0.3c0.8-0.1,1.4-0.4,2.1-0.9c0.6-0.5,1.1-1.2,1.5-2
			L95.2,256.9z"/>
		<path class="st0" d="M128.7,263.5l-3.4,29l-6.1-0.7l-8-16.4l-0.2,0l-1.8,15.2l-7.3-0.8l3.4-29l6.2,0.7l7.8,16.3l0.2,0l1.8-15.2
			L128.7,263.5z"/>
		<path class="st0" d="M151.3,269.7c-0.2-0.5-0.5-0.9-0.8-1.2c-0.3-0.3-0.7-0.6-1.1-0.8s-0.9-0.3-1.4-0.4c-0.5,0-1,0-1.6,0.1
			c-1.2,0.2-2.2,0.7-2.9,1.5s-1.2,1.8-1.4,3.1c-0.2,1.3-0.2,2.7,0.1,4.4c0.3,1.7,0.8,3.1,1.5,4.2s1.5,1.9,2.4,2.4
			c1,0.5,2.1,0.6,3.3,0.4c1.1-0.2,2-0.6,2.7-1c0.7-0.5,1.1-1.1,1.4-1.8s0.3-1.5,0.1-2.3l1.3-0.1l-6.1,1.2l-1-5.5l11.8-2.2l0.8,4
			c0.5,2.6,0.4,4.9-0.3,7c-0.7,2-1.8,3.7-3.4,5.1s-3.6,2.2-5.9,2.6c-2.6,0.5-5,0.3-7.2-0.5c-2.2-0.8-4-2.2-5.5-4.2
			c-1.5-2-2.6-4.5-3.1-7.5c-0.4-2.4-0.5-4.5-0.2-6.5c0.3-2,1-3.7,1.9-5.2c1-1.5,2.2-2.7,3.6-3.7s3.1-1.6,4.9-1.9
			c1.6-0.3,3.1-0.3,4.5-0.1s2.8,0.7,4,1.4c1.2,0.7,2.3,1.6,3.1,2.7c0.9,1.1,1.5,2.3,1.9,3.7L151.3,269.7z"/>
		<path class="st0" d="M173.7,283.3l-13.2-26l17.4-8.8l2.9,5.7l-10.9,5.5l2.3,4.5l10-5l2.9,5.7l-10,5l2.3,4.5l10.8-5.5l2.9,5.7
			L173.7,283.3z"/>
		<path class="st0" d="M200.6,268.2l-19.2-22l8.8-7.7c1.5-1.3,3.1-2.2,4.8-2.6c1.7-0.4,3.3-0.3,4.9,0.3c1.6,0.6,3.1,1.6,4.5,3.2
			c1.4,1.6,2.2,3.2,2.5,4.8c0.3,1.6,0.1,3.3-0.6,4.8c-0.7,1.6-1.8,3-3.4,4.4l-5.3,4.6l-4-4.6l4.1-3.6c0.7-0.6,1.1-1.1,1.4-1.7
			c0.3-0.6,0.4-1.2,0.3-1.8c-0.1-0.6-0.4-1.2-0.9-1.8c-0.5-0.6-1.1-1-1.7-1.2s-1.2-0.2-1.8,0c-0.6,0.2-1.3,0.6-1.9,1.2l-2,1.7
			l15,17.2L200.6,268.2z M203.7,247.6l13.9,5.7l-6,5.2l-13.8-5.8L203.7,247.6z"/>
	</g>
	<g>
		<path class="st0" d="M70.3,93.6L58.5,67l6.7-3l9.3,20.8l10-4.5l2.6,5.8L70.3,93.6z"/>
		<path class="st0" d="M91.4,54.7l7.8,28.1l-7.1,2l-7.8-28.1L91.4,54.7z"/>
		<path class="st0" d="M129.3,64.3c0.3,3.2-0.1,6-1.1,8.3c-1,2.3-2.4,4.1-4.3,5.4c-1.9,1.3-4.1,2.1-6.5,2.3
			c-2.5,0.2-4.7-0.2-6.8-1.2c-2.1-1-3.8-2.5-5.1-4.7c-1.4-2.1-2.2-4.8-2.4-8c-0.3-3.2,0.1-6,1-8.3c1-2.3,2.4-4.1,4.3-5.4
			s4.1-2.1,6.5-2.3c2.4-0.2,4.7,0.2,6.8,1.1s3.8,2.5,5.2,4.6C128.2,58.4,129.1,61.1,129.3,64.3z M121.8,64.9c-0.1-1.7-0.5-3.2-1-4.4
			s-1.2-2-2.1-2.6c-0.9-0.5-1.9-0.8-3.1-0.7s-2.2,0.5-3,1.2c-0.8,0.7-1.3,1.7-1.7,2.9c-0.3,1.2-0.4,2.7-0.3,4.5
			c0.1,1.7,0.5,3.2,1,4.4c0.5,1.2,1.2,2,2.1,2.6c0.9,0.5,1.9,0.8,3.1,0.7c1.2-0.1,2.2-0.5,3-1.2c0.8-0.7,1.3-1.7,1.7-2.9
			S121.9,66.7,121.8,64.9z"/>
		<path class="st0" d="M163.4,54.2L158.7,83l-6.1-1l-7.2-16.7l-0.2,0l-2.5,15.1l-7.3-1.2l4.7-28.8l6.2,1l7,16.6l0.2,0l2.5-15.1
			L163.4,54.2z"/>
		<path class="st0" d="M184.8,71.5c0.3-0.9,0.3-1.7-0.1-2.4c-0.3-0.7-1.1-1.3-2.2-1.8c-0.7-0.3-1.3-0.4-1.8-0.4
			c-0.5,0-0.9,0.1-1.3,0.3s-0.6,0.5-0.8,0.9c-0.2,0.3-0.2,0.6-0.2,0.9c0,0.3,0.1,0.6,0.3,0.9c0.2,0.3,0.5,0.7,0.8,1
			c0.4,0.3,0.8,0.7,1.4,1.1l1.9,1.3c1.3,0.9,2.3,1.8,3,2.7c0.8,0.9,1.3,1.9,1.7,2.8c0.3,1,0.5,1.9,0.4,2.9c-0.1,1-0.3,2-0.7,3
			c-0.7,1.8-1.8,3.1-3.1,4c-1.3,0.9-2.9,1.4-4.6,1.4c-1.8,0-3.7-0.4-5.8-1.3c-2.2-0.9-3.9-2-5.3-3.4c-1.3-1.4-2.2-2.9-2.5-4.8
			c-0.3-1.8,0-3.9,0.9-6.1l6.5,2.7c-0.3,0.8-0.4,1.6-0.3,2.3s0.4,1.3,0.9,1.9c0.5,0.5,1.2,1,2.1,1.4c0.7,0.3,1.4,0.5,1.9,0.5
			c0.6,0,1-0.1,1.4-0.3c0.4-0.2,0.7-0.6,0.9-1c0.2-0.4,0.2-0.8,0.1-1.2c-0.1-0.4-0.4-0.9-0.8-1.3c-0.4-0.5-1.1-1-1.9-1.6l-2.3-1.6
			c-2-1.4-3.4-3-4.2-4.8c-0.8-1.7-0.7-3.7,0.1-5.8c0.7-1.7,1.7-3,3.1-4c1.4-0.9,3-1.4,4.8-1.5c1.8-0.1,3.7,0.3,5.7,1.1
			c2,0.8,3.6,1.9,4.8,3.2c1.2,1.3,1.9,2.8,2.2,4.5c0.3,1.7,0,3.4-0.7,5.1L184.8,71.5z"/>
	</g>
</g>
</svg>
