<?xml version="1.0" encoding="utf-8"?>
<!-- Generator: Adobe Illustrator 25.4.1, SVG Export Plug-In . SVG Version: 6.00 Build 0)  -->
<svg version="1.1" id="Layer_1" xmlns="http://www.w3.org/2000/svg" xmlns:xlink="http://www.w3.org/1999/xlink" x="0px" y="0px"
	 viewBox="0 0 300.5 379.2" style="enable-background:new 0 0 300.5 379.2;" xml:space="preserve">
<style type="text/css">
	.st0{fill:#4D4D4D;}
	.st1{fill:#808080;}
	.st2{fill:#E6E6E6;}
	.st3{fill:#F2F2F2;}
	.st4{fill:#666666;}
	.st5{fill:#999999;}
</style>
<path class="st0" d="M74.2,58.3C71.5,68,64,75.7,54.3,78.7h-0.1c-15,4.6-30.8,6.5-46.4,5.4c-4-0.3-7.4,2.7-7.7,6.7
	c0,0.3,0,0.6,0,0.8c0.6,16,2.1,36.9,5.3,61.2c10.1,75.6,19.1,142.5,67.7,187.4c12.6,11.6,34.4,27.9,70,38c2.3,0.7,4.8,1,7.2,1V0
	C114.6,0,83.4,23.9,74.2,58.3z"/>
<path class="st1" d="M292.7,84.1c-15.7,1.1-31.4-0.7-46.4-5.3c-9.7-3-17.3-10.7-20.1-20.5C217,23.9,185.8,0,150.2,0v379.2
	c2.4,0,4.9-0.3,7.2-1c35.5-10,57.4-26.4,70-38c48.6-45,57.6-111.8,67.7-187.4c3.2-24.3,4.7-45.2,5.3-61.2c0.1-4-3-7.3-7-7.5
	C293.3,84,293,84.1,292.7,84.1z"/>
<path class="st2" d="M76.2,94.3L71.4,97c-3.1,1.8-6.4,3.2-9.9,4.3l-0.4,0.1c-10.6,3.3-21.6,5.4-32.7,6.2c-2.2,0.1-3.9,2-3.7,4.3l0,0
	c0.9,12.6,2.2,25.3,3.9,37.8c5.1,38,9.8,73.2,19.4,103.8c0.7,2.1,2.7,3.6,4.9,3.6l0,0c2.8,0,5.4,1.1,7.3,3.1L94,295.5
	c1.9,2,3,4.7,2.9,7.5l-1,22.5c-0.1,2,0.8,4,2.4,5.2c14.4,11,31.5,19.3,51.2,24.9c0.3,0.1,0.5,0.1,0.8,0.1V154.4
	C114.5,154.4,83.6,129.3,76.2,94.3z"/>
<path class="st3" d="M224.2,94.3L229,97c3.1,1.8,6.4,3.2,9.9,4.3l0.4,0.1c10.6,3.3,21.6,5.4,32.6,6.2c2.2,0.1,3.9,2,3.7,4.3l0,0
	c-0.9,12.6-2.2,25.3-3.9,37.8c-5.1,38-9.8,73.2-19.4,103.8c-0.7,2.1-2.7,3.6-4.9,3.6l0,0c-2.8,0-5.4,1.1-7.3,3.1l-33.8,35.3
	c-1.9,2-2.9,4.7-2.8,7.5l1,22.5c0.1,2-0.8,4-2.4,5.2c-14.4,11-31.5,19.3-51.1,24.9c-0.3,0.1-0.5,0.1-0.8,0.1V154.4
	C186,154.4,216.9,129.3,224.2,94.3z"/>
<path class="st4" d="M112.3,340l4.6,2.5h0.1c3.3,1.6,7.2,0.9,9.7-1.7l15.8-16.1c2-2.1,4.8-3.2,7.7-3.2l0,0v34.2l-15.8,8.3L112.3,340
	z"/>
<path class="st5" d="M188.1,340l-4.6,2.5h-0.1c-3.3,1.6-7.3,0.9-9.8-1.8l-15.5-16c-2-2.1-4.8-3.3-7.8-3.3H150v34.2l15.8,8.3
	L188.1,340z"/>
<path class="st2" d="M150.2,77.2V22.6C120.1,23,96,47.8,96.4,77.9c0.4,29.6,24.3,53.4,53.8,53.8V77.2z"/>
<path class="st3" d="M150.2,77.2v54.6c30.1,0.4,54.9-23.7,55.3-53.8s-23.7-55-53.8-55.4c-0.5,0-1,0-1.5,0V77.2z"/>
<path class="st1" d="M150.2,116.7c-21.8,0-39.5-17.7-39.5-39.5s17.7-39.5,39.5-39.5s39.5,17.7,39.5,39.5l0,0
	C189.7,99,172,116.7,150.2,116.7z M150.2,47.7c-16.3,0-29.5,13.2-29.5,29.5s13.2,29.5,29.5,29.5s29.5-13.2,29.5-29.5l0,0
	C179.7,60.9,166.5,47.7,150.2,47.7L150.2,47.7z"/>
<g>
	<g>
		<path class="st0" d="M90.2,183.3c2.8,0.2,5.6,0.4,8.3,0.5c0,5.3-0.1,10.7-0.1,16c-1.7,1.8-3.5,3.1-5.7,3.8c-2.1,0.8-4.5,1-7.1,0.6
			c-2.3-0.4-4.6-1.2-6.8-2.4c-2.2-1.2-4.1-2.8-5.8-4.7c-1.7-1.9-3.1-4.1-4.1-6.5c-1-2.4-1.5-5.1-1.5-7.9c0-2.9,0.5-5.4,1.5-7.6
			c1-2.2,2.4-4.1,4.2-5.7c1.8-1.6,3.7-2.8,6-3.6c2.2-0.9,4.5-1.3,6.9-1.3c1.8,0,3.5,0.3,5.1,0.9c1.6,0.6,2.9,1.4,4.1,2.6
			c0,3.5-0.1,7.1-0.1,10.6c-1.4-1.3-2.7-2.3-3.9-3c-1.2-0.7-2.9-1.1-4.9-1.1c-1.6-0.1-3,0.3-4.4,1.1c-1.3,0.8-2.4,1.9-3.3,3.3
			c-0.8,1.4-1.3,3-1.3,4.8c0,1.8,0.4,3.5,1.2,5c0.8,1.5,1.9,2.8,3.2,3.8c1.3,1,2.8,1.6,4.3,1.8c0.8,0.1,1.5,0.1,2.2,0
			c0.7-0.1,1.3-0.3,1.8-0.5C90.1,190.4,90.1,186.9,90.2,183.3z"/>
		<path class="st0" d="M122.4,164.5c2.4,0,4.6,0.5,6.8,1.5c2.2,1,4.1,2.4,5.8,4.3c1.7,1.9,3,4.2,4,7c1,2.8,1.5,5.9,1.5,9.4
			c0,3.5-0.5,6.6-1.5,9.4c-1,2.7-2.4,5-4.1,6.9c-1.7,1.9-3.7,3.2-5.9,4.1c-2.2,0.9-4.5,1.3-6.9,1.1c-2.4-0.1-4.7-0.8-6.9-1.9
			c-2.2-1.1-4.1-2.7-5.8-4.7c-1.7-2-3-4.3-4-7c-1-2.7-1.4-5.7-1.4-9c0-3.3,0.6-6.3,1.6-8.9c1-2.6,2.4-4.8,4.1-6.6
			c1.7-1.8,3.7-3.2,5.9-4.2C117.7,165,120,164.5,122.4,164.5z M122.3,175.4c-1.6,0-3,0.4-4.2,1.4c-1.2,0.9-2.2,2.2-2.9,3.8
			c-0.7,1.6-1.1,3.4-1.1,5.5c0,2.1,0.3,3.9,1,5.6c0.7,1.7,1.7,3,2.9,4c1.2,1,2.6,1.6,4.2,1.6c1.6,0.1,3-0.3,4.2-1.3
			c1.2-0.9,2.2-2.2,2.9-3.8c0.7-1.6,1.1-3.5,1.1-5.6c0-2.1-0.3-4-1-5.7c-0.7-1.7-1.7-3-2.9-4C125.3,175.9,123.9,175.5,122.3,175.4z"
			/>
		<path class="st1" d="M189.9,165.4c0,3.3,0.1,6.7,0.1,10c-3.4,0.1-6.9,0.2-10.3,0.2c0.1,10.3,0.2,20.7,0.2,31
			c-3.3,0.2-6.6,0.5-9.8,0.6c-0.1-10.5-0.1-21-0.2-31.5c-3.4,0-6.9,0.1-10.3,0.1c0-3.5,0-7,0-10.5
			C169.7,165.4,179.8,165.4,189.9,165.4z"/>
		<path class="st1" d="M210.5,164.5c2.4,0,4.6,0.4,6.8,1.3c2.2,0.9,4.1,2.1,5.8,3.6c1.7,1.6,3.1,3.5,4,5.7c1,2.2,1.5,4.8,1.5,7.6
			c0,2.9-0.5,5.5-1.5,7.9c-1,2.4-2.3,4.6-4,6.5c-1.7,1.9-3.6,3.5-5.7,4.7c-2.1,1.2-4.4,2-6.7,2.4c-2.3,0.4-4.6,0.2-6.8-0.4
			c-2.2-0.6-4.1-1.7-5.8-3.3c-1.7-1.6-3.1-3.7-4.1-6.2c-1-2.5-1.5-5.5-1.6-8.8c0-3.3,0.4-6.3,1.4-8.9c1-2.6,2.3-4.8,4-6.7
			c1.7-1.8,3.6-3.2,5.8-4.1C205.8,164.9,208.1,164.5,210.5,164.5z M210.5,174.4c-1.6,0.1-3,0.5-4.2,1.5c-1.2,0.9-2.2,2.2-2.9,3.8
			c-0.7,1.6-1,3.3-1,5.3c0,1.9,0.4,3.7,1.1,5.1c0.7,1.5,1.7,2.6,2.9,3.4c1.2,0.8,2.6,1,4.2,0.9c1.6-0.2,2.9-0.8,4.2-1.8
			c1.2-1,2.2-2.3,2.9-3.8c0.7-1.5,1-3.2,1-5c0-1.8-0.4-3.4-1.1-4.8c-0.7-1.4-1.7-2.5-2.9-3.3C213.5,174.8,212.1,174.4,210.5,174.4z"
			/>
		<path class="st0" d="M80.8,221.5c0,4.9-0.1,9.9-0.1,14.8c4.1,1.3,8.2,2.4,12.3,3.4c0-5.2,0.1-10.3,0.1-15.5
			c3.2,0.6,6.5,1.2,9.7,1.7c-0.1,13.4-0.2,26.9-0.4,40.3c-3.3-0.9-6.5-1.8-9.7-2.8c0-4.7,0.1-9.4,0.1-14c-4.1-1.1-8.3-2.4-12.3-3.8
			c0,4.5-0.1,8.9-0.1,13.4c-3.2-1.3-6.3-2.7-9.4-4.1c0-11.9,0.1-23.8,0.1-35.7C74.5,219.9,77.6,220.7,80.8,221.5z"/>
		<path class="st0" d="M128.2,227.8c2.4,0.2,4.7,0.8,6.9,1.9c2.2,1.1,4.2,2.6,5.9,4.6c1.7,1.9,3.1,4.3,4.1,7.1
			c1,2.8,1.5,5.9,1.5,9.4c0,3.5-0.5,6.7-1.5,9.4c-1,2.7-2.4,5-4.2,6.9c-1.8,1.8-3.8,3.2-6,4c-2.2,0.8-4.6,1.1-7,0.8
			c-2.4-0.3-4.7-1.1-7-2.4c-2.2-1.3-4.2-3.1-5.9-5.2c-1.7-2.2-3.1-4.7-4-7.5c-1-2.8-1.5-6-1.4-9.3c0-3.4,0.6-6.3,1.6-8.8
			c1-2.5,2.4-4.6,4.1-6.2c1.7-1.6,3.7-2.8,5.9-3.6C123.4,228,125.8,227.7,128.2,227.8z M128.1,238.8c-1.6-0.1-3,0.2-4.3,1.1
			c-1.2,0.8-2.2,2-3,3.6c-0.7,1.6-1.1,3.4-1.1,5.4c0,2.1,0.3,4,1.1,5.7c0.7,1.7,1.7,3.2,2.9,4.3c1.2,1.1,2.7,1.8,4.3,1.9
			c1.6,0.2,3-0.2,4.3-1.1c1.3-0.9,2.3-2.1,3-3.7c0.7-1.6,1.1-3.5,1.1-5.6c0-2.1-0.3-4-1-5.7c-0.7-1.7-1.7-3.1-2.9-4.1
			C131.1,239.5,129.7,239,128.1,238.8z"/>
		<path class="st1" d="M190.7,225.7c0.1,13.7,0.2,27.4,0.4,41.1c-3.3,0.8-6.6,1.5-9.9,2.2c-0.1-6.8-0.1-13.6-0.2-20.4
			c-2.4,3.6-4.8,7.1-7.2,10.7c-1,0.1-2,0.3-3,0.4c-2.5-3-4.9-6-7.3-9.1c0,6.9,0.1,13.9,0.1,20.8c-3.3,0.3-6.7,0.5-10,0.6
			c0-14.4,0-28.8-0.1-43.2c1.2,0,2.3-0.1,3.5-0.1c5.1,6,10.2,11.8,15.3,17.3c5-6.6,10-13.2,15-19.8
			C188.4,226,189.6,225.8,190.7,225.7z"/>
		<path class="st1" d="M223.5,233.4c0,2.5,0,5,0,7.5c-4.5,1.7-9,3.3-13.5,4.7c0,2.1,0,4.1,0,6.2c5.1-1.7,10.2-3.7,15.2-5.8
			c0,2.8,0,5.7,0,8.5c-8.1,3.9-16.4,7.1-24.8,9.7c-0.1-13.2-0.2-26.3-0.3-39.5c8.5-1.6,16.8-3.5,25.1-5.8c0,2.7,0,5.5,0,8.2
			c-5.1,1.7-10.2,3.1-15.3,4.5c0,2,0,4,0,6C214.5,236.3,219,234.9,223.5,233.4z"/>
	</g>
</g>
</svg>
