<svg xmlns="http://www.w3.org/2000/svg" viewBox="0 0 436.86 206.14"><defs><style>.cls-1{fill:#8cd5e8;}</style></defs><g id="Layer_2" data-name="Layer 2"><g id="awareness"><path class="cls-1" d="M383.92,206.14H0v-3H383.92a50.49,50.49,0,0,0,49.94-43.83L433.08,20.9v-.1A15.78,15.78,0,0,0,417.44,3H0V0H417.44a18.79,18.79,0,0,1,18.64,21.08l.78,138.42v.1A53.49,53.49,0,0,1,383.92,206.14Z"/><path class="cls-1" d="M313.51,17.33,310.3,28.18a12.56,12.56,0,0,1-12.05,9H53.12A36.12,36.12,0,0,1,17.94,9.26h0A8.75,8.75,0,0,0,9.41,2.49h324A20.72,20.72,0,0,0,313.51,17.33Z"/></g></g></svg>