<svg id="Layer_1" data-name="Layer 1" xmlns="http://www.w3.org/2000/svg" viewBox="0 0 1920 667.17"><defs><style>.cls-1{fill:#c8ebf4;}.cls-2{fill:#0084c3;}</style></defs><path class="cls-1" d="M1459.36,507.12q-25.35,0-50.48-1.18c-138.37-6.53-241.5-42.17-332.5-73.62C957.13,391.1,854.14,355.51,696,392.94c-49.34,11.68-92.3,27.11-133.85,42C486.36,462.21,408,490.37,294.9,494.71c-98,3.76-196.57-11.09-294.9-44.3V344.09c97.58,37.37,195,54.38,291.07,50.69,97.64-3.75,162.35-27,237.27-53.91C572.49,325,618.15,308.6,673,295.63c85.13-20.15,161.82-23.88,241.33-11.73,69.53,10.63,130.35,31.65,194.74,53.91,88.76,30.67,180.55,62.39,304.55,68.24,163.84,7.72,333.83-26.47,506.36-101.72l0,108.42c-80.58,32.48-160.89,56.73-239.9,72.39A1136.26,1136.26,0,0,1,1459.36,507.12Z"/><path class="cls-2" d="M1608.61,617.47c-155.49,0-257.53-27.32-356.63-53.84-94.65-25.33-184-49.26-324.88-49.89-125.69-.56-193.79,17.78-272.64,39-86.5,23.29-184.55,49.7-363.16,52.47A1974.54,1974.54,0,0,1,0,588.05V416.41a1766.64,1766.64,0,0,0,288.67,18.84c157.46-2.44,240.89-24.91,321.58-46.65,83.11-22.38,169-45.55,317.61-44.86,162.8.73,267.15,28.66,368.07,55.67,105.54,28.24,205.22,54.93,375.83,46.44A1425.34,1425.34,0,0,0,1920,411.29v174a1592.53,1592.53,0,0,1-239.79,30.4C1655.1,616.88,1631.28,617.47,1608.61,617.47Z"/></svg>