<svg xmlns="http://www.w3.org/2000/svg" viewBox="0 0 312.42 357.15"><defs><style>.cls-1{fill:#c7b299;}.cls-2{fill:#c69c6d;}.cls-3{fill:#b39574;}.cls-4{fill:#b7a48d;}.cls-5{fill:#b09373;}.cls-6{fill:#c2af97;}.cls-7{fill:#cfbba1;}.cls-8{fill:#8cd5e8;}.cls-9{fill:#5fbae6;}.cls-10{fill:#83c7d9;}.cls-11{fill:#66c8f7;}.cls-12{fill:#86ccde;}.cls-13{fill:#70abba;}.cls-14{fill:#78c9de;}.cls-15{fill:#3d537b;}</style></defs><g id="Layer_2" data-name="Layer 2"><g id="Layer_6" data-name="Layer 6"><rect class="cls-1" x="25.03" y="218.33" width="108.62" height="53.36"/><polygon class="cls-2" points="133.64 218.33 284.43 95.71 284.43 118.33 133.64 271.69 133.64 218.33"/><polygon class="cls-3" points="25.03 218.33 251.63 98.21 284.43 95.71 133.64 218.33 25.03 218.33"/><rect class="cls-4" x="37.7" y="170.17" width="118.29" height="44.82"/><polygon class="cls-5" points="155.98 170.17 279.53 89.27 279.53 97.48 155.98 214.99 155.98 170.17"/><polyline class="cls-6" points="155.98 170.17 279.53 89.27 264.27 89.27 37.7 170.17 155.98 170.17"/><rect class="cls-1" x="36.48" y="136.64" width="101.97" height="36.26"/><polygon class="cls-2" points="138.46 172.9 138.46 136.64 272.15 82.25 272.15 89.27 138.46 172.9"/><polygon class="cls-7" points="36.48 136.64 247.32 82.25 272.15 82.25 138.46 136.64 36.48 136.64"/><polygon class="cls-8" points="235.79 208.77 246.14 224.64 253.38 243.91 255.65 251.19 248.33 257.01 228.44 263.02 206.68 265.8 190.44 264.53 178.21 260.54 159.58 250.5 141.43 237.47 128.21 224.94 118.14 211.48 115.85 201.49 116.38 194.77 124.72 188.09 137.91 182.88 235.79 208.77"/><path class="cls-9" d="M130.53,194l-.8,5a20.49,20.49,0,0,0,.25,7.84h0a38.34,38.34,0,0,0,7.36,15.36l2.95,3.71,1.64,2.07a29.89,29.89,0,0,0,10.16,8.25l4.43,2.21,5.87-12.68Z" transform="translate(-0.85 -5.75)"/><path class="cls-10" d="M130.76,191.17l4.86-13.52A42.84,42.84,0,0,1,146,161.54l1.12-1.09a52.46,52.46,0,0,1,18.55-11.74l5.76-2.13A34.45,34.45,0,0,1,190,145.09l3.14.62a29.66,29.66,0,0,1,10.32,4.12l8.23,5.23a59.7,59.7,0,0,1,15.6,14.38l1.29,1.69a43.47,43.47,0,0,1,7.91,17.47l1,4.73a55.7,55.7,0,0,1,.9,6.29L239,207a57.34,57.34,0,0,1-1.74,19.48h0a16.51,16.51,0,0,1-7.91,10.16l-7.13,4-19,5-22.59-1.78-10.15-3.4.08-13L159.47,223a36.46,36.46,0,0,0-13.76-2.61h0a7.07,7.07,0,0,1-6.08-3.38l-5.32-8.72a26.3,26.3,0,0,1-3.34-8.68l-.62-3.29Z" transform="translate(-0.85 -5.75)"/><polygon class="cls-11" points="224.57 198.78 220.12 176.86 211.29 178.72 207.13 203.94 217.66 208.07 224.57 198.78"/><polygon class="cls-12" points="209.62 199.88 211.29 178.72 197.75 162.96 200.29 184.8 209.24 204.77 209.62 199.88"/><path class="cls-9" d="M170.34,228.48h.06l7.83-.55a1.84,1.84,0,0,0,.66-.07l10.37-3.26a1.74,1.74,0,0,0,1.12-1.09l3.14-9a1.61,1.61,0,0,0,.1-.58l-.15-16.94a1.7,1.7,0,0,0-.09-.54l-6-18.11a1.87,1.87,0,0,0-.15-.32L179,163.84a2,2,0,0,0-.25-.33l-8.13-8.44a1.07,1.07,0,0,0-.16-.14l-3.7-3a1.73,1.73,0,0,1,.49-3l7.76-2.87a1.74,1.74,0,0,1,1.55.18l12.31,8.09a1.75,1.75,0,0,1,.52.53l11.43,18.29a1.69,1.69,0,0,1,.2.43L205.46,189a1.05,1.05,0,0,1,0,.19l3.15,17.91a1.74,1.74,0,0,0,1.05,1.31l5.9,2.4a1.72,1.72,0,0,0,1.88-.37l5.06-5.05a1.71,1.71,0,0,0,.41-1.81l-2-21L209.1,163.89a2.38,2.38,0,0,0-.23-.45l-7-9.76a1.77,1.77,0,0,0-.58-.51l-9.88-7.79c-1.73-1,7.64,1.42,6.78,2.22h0a1.73,1.73,0,0,1,.69.31L217,161.26a1.87,1.87,0,0,1,.32.31l5.69,7.05a1.79,1.79,0,0,1,.32.61l5.79,20L232,200a1.7,1.7,0,0,0,.89,1.1l2.81,1.45a1.74,1.74,0,0,0,2.35-.79l.3-.62.64,7.73a51.66,51.66,0,0,1-1.57,17.64l-.16.62a19,19,0,0,1-8,11h0a37.47,37.47,0,0,1-11.81,5l-7,1.64a48.26,48.26,0,0,1-14.82,1.12l-8.53-.67a53.23,53.23,0,0,1-12.8-2.61l-3-1a1.75,1.75,0,0,1-1.15-1.28l-2.36-11C167.56,228.22,169.18,228.39,170.34,228.48Z" transform="translate(-0.85 -5.75)"/><path class="cls-13" d="M165.82,246l.52-6.6a22.06,22.06,0,0,1,2.27-8.18l1.91-3.79-.08,13Z" transform="translate(-0.85 -5.75)"/><path class="cls-14" d="M151.84,239.35l2.43,1.86a22.84,22.84,0,0,0,8.23,4l3.32.84.57-7.22a18.83,18.83,0,0,1,2-7l2.1-4.19a.16.16,0,0,0-.08-.22l-8.91-3.57a1.82,1.82,0,0,0-2.21.73l-2.64,4.25-2.38,4.58a30.47,30.47,0,0,0-1.89,4.49Z" transform="translate(-0.85 -5.75)"/><polygon class="cls-8" points="197.75 162.96 208.92 161.2 220.12 176.86 211.29 178.72 197.75 162.96"/><path class="cls-15" d="M20,15.91H15.53v7.72c0,1.14.38,1.72,1.13,1.72a5.45,5.45,0,0,0,2.58-.9l1.44,2.2a8.51,8.51,0,0,1-5.39,1.92q-4.12,0-4.12-4.53V15.91H9V12.44H11.2V9.66c1.15-.62,2.6-1.38,4.36-2.3v5.08H20Z" transform="translate(-0.85 -5.75)"/><path class="cls-15" d="M23.87,8.25l4.32-2.36v8.4a4.43,4.43,0,0,1,2.27-1.81A5.44,5.44,0,0,1,32.59,12a5.36,5.36,0,0,1,4.34,1.62q1.35,1.64,1.35,5.24V28H34V19q0-3.36-2.88-3.36a3.26,3.26,0,0,0-2.89,1.16V28H23.87Z" transform="translate(-0.85 -5.75)"/><path class="cls-15" d="M42.09,8.46a2.66,2.66,0,0,1,.77-1.9,2.47,2.47,0,0,1,1.84-.81,2.66,2.66,0,0,1,1.94.79,2.58,2.58,0,0,1,.81,1.92,2.62,2.62,0,0,1-.78,2,2.7,2.7,0,0,1-2,.75,2.5,2.5,0,0,1-1.87-.77A2.71,2.71,0,0,1,42.09,8.46Zm4.88,4V28H42.61V12.44Z" transform="translate(-0.85 -5.75)"/><path class="cls-15" d="M60.52,16.22a6.8,6.8,0,0,0-3.84-1.1Q55,15.12,55,16.53c0,.87.74,1.48,2.23,1.85A9.88,9.88,0,0,1,61,19.92a4.63,4.63,0,0,1,1.44,3.71,4.33,4.33,0,0,1-1.56,3.5,6.38,6.38,0,0,1-4.21,1.3,9.55,9.55,0,0,1-6.31-2.12L52,23.9a6.71,6.71,0,0,0,4.29,1.41,2.55,2.55,0,0,0,1.61-.48,1.53,1.53,0,0,0,.62-1.27c0-1-.82-1.59-2.44-1.89q-5.22-1-5.22-5.08a4.07,4.07,0,0,1,1.6-3.26,6.11,6.11,0,0,1,4-1.3,8.88,8.88,0,0,1,5.66,1.89Z" transform="translate(-0.85 -5.75)"/><path class="cls-15" d="M77.61,12.44,78,13.92a4.81,4.81,0,0,1,4-1.89,7.07,7.07,0,0,1,5.74,2.47,8.3,8.3,0,0,1,1.75,5.42A8.45,8.45,0,0,1,87,26.58a7.27,7.27,0,0,1-5,1.85A5.41,5.41,0,0,1,80,28.06a3.4,3.4,0,0,1-1.4-.86v6.93H74.35V12.44Zm1,6.08v4a2.85,2.85,0,0,0,.84,2.06,2.67,2.67,0,0,0,2,.85A3.07,3.07,0,0,0,84,23.94a6.3,6.3,0,0,0,1-3.67,6.79,6.79,0,0,0-.91-3.73,2.81,2.81,0,0,0-4.59-.37A3.38,3.38,0,0,0,78.61,18.52Z" transform="translate(-0.85 -5.75)"/><path class="cls-15" d="M99.92,12a7.15,7.15,0,0,1,6,2.71,8.65,8.65,0,0,1,1.79,5.53A7.85,7.85,0,0,1,105,26.44a7.61,7.61,0,0,1-10.81-.55,8.12,8.12,0,0,1-2.06-5.62,8.33,8.33,0,0,1,2.3-6.11A7.33,7.33,0,0,1,99.92,12Zm0,13.18q3.33,0,3.33-4.94c0-3.44-1.11-5.15-3.33-5.15s-3.33,1.71-3.33,5.15Q96.59,25.21,99.92,25.21Z" transform="translate(-0.85 -5.75)"/><path class="cls-15" d="M115.64,5.89V28h-4.33V8.15Z" transform="translate(-0.85 -5.75)"/><path class="cls-15" d="M124.63,5.89V28h-4.32V8.15Z" transform="translate(-0.85 -5.75)"/><path class="cls-15" d="M136.85,8.46a2.66,2.66,0,0,1,.77-1.9,2.45,2.45,0,0,1,1.84-.81,2.67,2.67,0,0,1,1.94.79,2.6,2.6,0,0,1,.8,1.92,2.65,2.65,0,0,1-.77,2,2.72,2.72,0,0,1-2,.75,2.48,2.48,0,0,1-1.87-.77A2.67,2.67,0,0,1,136.85,8.46Zm4.87,4V28h-4.36V12.44Z" transform="translate(-0.85 -5.75)"/><path class="cls-15" d="M155.28,16.22a6.81,6.81,0,0,0-3.85-1.1c-1.09,0-1.64.47-1.64,1.41s.74,1.48,2.23,1.85a9.75,9.75,0,0,1,3.77,1.54,4.63,4.63,0,0,1,1.44,3.71,4.33,4.33,0,0,1-1.56,3.5,6.34,6.34,0,0,1-4.2,1.3,9.58,9.58,0,0,1-6.32-2.12l1.58-2.41A6.71,6.71,0,0,0,151,25.31a2.58,2.58,0,0,0,1.62-.48,1.52,1.52,0,0,0,.61-1.27q0-1.44-2.43-1.89-5.22-1-5.22-5.08a4,4,0,0,1,1.6-3.26,6.08,6.08,0,0,1,4-1.3,8.91,8.91,0,0,1,5.67,1.89Z" transform="translate(-0.85 -5.75)"/><path class="cls-15" d="M182.18,26a7.92,7.92,0,0,1-5.76,2.4,8.14,8.14,0,0,1-6.32-2.54,8,8,0,0,1-2-5.59,8,8,0,0,1,2.61-6.18A7.86,7.86,0,0,1,176.21,12a7.71,7.71,0,0,1,5.8,2.26l-1.3,2.34a5.66,5.66,0,0,0-3.81-1.55,3.93,3.93,0,0,0-3.16,1.5,5.8,5.8,0,0,0-1.23,3.82A5.23,5.23,0,0,0,173.72,24a4,4,0,0,0,3.11,1.39,5.17,5.17,0,0,0,3.88-1.69Z" transform="translate(-0.85 -5.75)"/><path class="cls-15" d="M195.64,26.24a5.65,5.65,0,0,1-4.7,2.19c-2,0-3.37-.5-4.21-1.52s-1.25-2.73-1.25-5.13V12.44h4.25v8.2a6.34,6.34,0,0,0,.62,3.28,2.35,2.35,0,0,0,2.13.95,3.94,3.94,0,0,0,1.48-.35,1.83,1.83,0,0,0,1-.72V12.44h4.32V28h-3.22l-.38-1.78Z" transform="translate(-0.85 -5.75)"/><path class="cls-15" d="M207.61,12.44l.42,1.37a2.93,2.93,0,0,1,1.32-1.25,4.2,4.2,0,0,1,2-.53A4.88,4.88,0,0,1,216,15l-3.63,2a3.23,3.23,0,0,0-2.41-1.31,1.8,1.8,0,0,0-1.71,1.2V28h-4.26V12.44Z" transform="translate(-0.85 -5.75)"/><path class="cls-15" d="M221.93,12.44l.41,1.37a3,3,0,0,1,1.32-1.25,4.2,4.2,0,0,1,2-.53,4.89,4.89,0,0,1,4.6,2.92l-3.64,2a3.23,3.23,0,0,0-2.4-1.31,1.81,1.81,0,0,0-1.72,1.2V28h-4.26V12.44Z" transform="translate(-0.85 -5.75)"/><path class="cls-15" d="M246.12,21.64H235.41a3.84,3.84,0,0,0,1.29,2.62,3.92,3.92,0,0,0,2.73,1,9.59,9.59,0,0,0,4.67-1.37l1.09,2.3A8.94,8.94,0,0,1,239,28.43a8.3,8.3,0,0,1-6.21-2.26,7.94,7.94,0,0,1-2.13-5.87,8.22,8.22,0,0,1,2.4-6.07,7.35,7.35,0,0,1,5.49-2.2,7.06,7.06,0,0,1,5.77,2.5,8.31,8.31,0,0,1,1.78,5.53Zm-11-3.19h6.63c-.12-2.24-1.2-3.37-3.26-3.37S235.42,16.21,235.17,18.45Z" transform="translate(-0.85 -5.75)"/><path class="cls-15" d="M254,14A5.3,5.3,0,0,1,256,12.6a6.76,6.76,0,0,1,2.6-.57,5.24,5.24,0,0,1,4.28,1.61q1.32,1.62,1.32,5.22V28h-4.36V19q0-3.36-3-3.36a4.69,4.69,0,0,0-1.61.32,2.71,2.71,0,0,0-1.17.74V28h-4.32V12.44h3.67c.12.6.23,1.1.34,1.51Z" transform="translate(-0.85 -5.75)"/><path class="cls-15" d="M278.11,15.91h-4.46v7.72c0,1.14.37,1.72,1.13,1.72a5.46,5.46,0,0,0,2.57-.9l1.44,2.2a8.49,8.49,0,0,1-5.38,1.92q-4.12,0-4.12-4.53V15.91h-2.17V12.44h2.2V9.66c1.14-.62,2.6-1.38,4.36-2.3v5.08h4.43Z" transform="translate(-0.85 -5.75)"/><path class="cls-15" d="M286.31,5.89V28H282V8.15Z" transform="translate(-0.85 -5.75)"/><path class="cls-15" d="M305.25,12.44q-1.37,3.84-3.77,10.33c-1.17,3.23-2.08,5.73-2.75,7.52q-1.61,4.29-4.53,4.29a7.48,7.48,0,0,1-4.67-2c.46-.78.85-1.46,1.17-2.06a4.29,4.29,0,0,0,2.23.83c.94,0,1.78-1.13,2.51-3.37h-.83l-5.45-15.58h4.29c.25.76.64,1.94,1.16,3.54l.21.55c1,3,1.69,5.16,2.13,6.55l4-10.64Z" transform="translate(-0.85 -5.75)"/><path class="cls-15" d="M36.55,47.36a2.68,2.68,0,0,1,.77-1.91,2.47,2.47,0,0,1,1.84-.81,2.71,2.71,0,0,1,1.94.79,2.63,2.63,0,0,1,.8,1.93,2.58,2.58,0,0,1-.77,2,2.67,2.67,0,0,1-2,.76,2.45,2.45,0,0,1-1.87-.78A2.65,2.65,0,0,1,36.55,47.36Zm4.87,4V66.92H37.06V51.34Z" transform="translate(-0.85 -5.75)"/><path class="cls-15" d="M50.07,52.85a5.39,5.39,0,0,1,2.06-1.36,6.82,6.82,0,0,1,2.61-.56A5.19,5.19,0,0,1,59,52.54q1.32,1.6,1.32,5.21v9.17H56v-9q0-3.37-3-3.37a4.45,4.45,0,0,0-1.61.33,2.5,2.5,0,0,0-1.17.74V66.92H45.88V51.34h3.68c.11.59.22,1.1.34,1.51Z" transform="translate(-0.85 -5.75)"/><path class="cls-15" d="M84.18,66.92l-.61-1.65a4,4,0,0,1-1.79,1.48,5.85,5.85,0,0,1-2.54.58,6.67,6.67,0,0,1-5.59-2.44A8.08,8.08,0,0,1,72,59.68a9,9,0,0,1,2.6-6.94,6.68,6.68,0,0,1,4.71-1.81,6.14,6.14,0,0,1,4,1.3v-5l4.32-2.4V66.92ZM83.33,61V56.62a3.35,3.35,0,0,0-1.08-1.87,2.93,2.93,0,0,0-2-.74,3.29,3.29,0,0,0-2.78,1.38,6.06,6.06,0,0,0-1,3.7q0,5.11,3.33,5.12a3.35,3.35,0,0,0,2.3-1A3.7,3.7,0,0,0,83.33,61Z" transform="translate(-0.85 -5.75)"/><path class="cls-15" d="M106.73,60.54H96a4,4,0,0,0,4,3.67,9.51,9.51,0,0,0,4.67-1.38l1.1,2.3a8.94,8.94,0,0,1-6.18,2.2,8.26,8.26,0,0,1-6.21-2.27,7.9,7.9,0,0,1-2.13-5.86,8.24,8.24,0,0,1,2.4-6.08,7.38,7.38,0,0,1,5.49-2.19,7.06,7.06,0,0,1,5.77,2.5A8.31,8.31,0,0,1,106.73,59Zm-11-3.2h6.63c-.12-2.24-1.2-3.36-3.26-3.36S96,55.1,95.78,57.34Z" transform="translate(-0.85 -5.75)"/><path class="cls-15" d="M118,66.92h-3.36l-6.08-15.58h4.36l3.33,10.29,3.53-10.29h4.53L123.65,53l-.75,1.85C120.77,60.07,119.13,64.1,118,66.92Z" transform="translate(-0.85 -5.75)"/><path class="cls-15" d="M141.22,60.54h-10.7a4,4,0,0,0,4,3.67,9.51,9.51,0,0,0,4.67-1.38l1.1,2.3a8.94,8.94,0,0,1-6.18,2.2,8.26,8.26,0,0,1-6.21-2.27,7.9,7.9,0,0,1-2.13-5.86,8.24,8.24,0,0,1,2.4-6.08,7.38,7.38,0,0,1,5.49-2.19,7.05,7.05,0,0,1,5.77,2.5A8.31,8.31,0,0,1,141.22,59Zm-10.94-3.2h6.62c-.12-2.24-1.2-3.36-3.26-3.36S130.53,55.1,130.28,57.34Z" transform="translate(-0.85 -5.75)"/><path class="cls-15" d="M149.19,44.78V66.92h-4.33V47.05Z" transform="translate(-0.85 -5.75)"/><path class="cls-15" d="M160.58,50.93a7.15,7.15,0,0,1,6,2.71,8.65,8.65,0,0,1,1.79,5.52,7.92,7.92,0,0,1-2.65,6.18,7.61,7.61,0,0,1-10.81-.55,8.14,8.14,0,0,1-2.06-5.63,8.36,8.36,0,0,1,2.3-6.11A7.32,7.32,0,0,1,160.58,50.93Zm0,13.17c2.22,0,3.33-1.64,3.33-4.94S162.8,54,160.58,54s-3.33,1.72-3.33,5.15S158.36,64.1,160.58,64.1Z" transform="translate(-0.85 -5.75)"/><path class="cls-15" d="M175.23,51.34l.42,1.47a4.79,4.79,0,0,1,4-1.88,7.06,7.06,0,0,1,5.73,2.47,8.28,8.28,0,0,1,1.75,5.42,8.48,8.48,0,0,1-2.61,6.66,7.3,7.3,0,0,1-5,1.85,5.34,5.34,0,0,1-1.88-.38,3.28,3.28,0,0,1-1.41-.86V73H172V51.34Zm1,6.07v4a2.84,2.84,0,0,0,.84,2.06,2.69,2.69,0,0,0,2,.86,3.06,3.06,0,0,0,2.58-1.48,6.28,6.28,0,0,0,1-3.67,6.78,6.78,0,0,0-.91-3.72,2.81,2.81,0,0,0-4.58-.38A3.38,3.38,0,0,0,176.23,57.41Z" transform="translate(-0.85 -5.75)"/><path class="cls-15" d="M195,52.85a6.51,6.51,0,0,1,4.8-1.92,7.19,7.19,0,0,1,3.52.84A4.56,4.56,0,0,1,205.4,54a5.71,5.71,0,0,1,2.35-2.23,7.29,7.29,0,0,1,3.49-.85q5.49,0,5.49,6.65v9.34h-4.36V58.75a5.79,5.79,0,0,0-.67-3.24,2.58,2.58,0,0,0-2.25-.95,4.46,4.46,0,0,0-3.67,1.79V66.92h-4.33V58.27a4.45,4.45,0,0,0-.72-2.87,3.11,3.11,0,0,0-2.47-.84,6.21,6.21,0,0,0-1.94.31,2.17,2.17,0,0,0-1.18.76V66.92h-4.32V51.34h3.67l.31,1.51Z" transform="translate(-0.85 -5.75)"/><path class="cls-15" d="M235.64,60.54H224.93a4,4,0,0,0,4,3.67,9.48,9.48,0,0,0,4.67-1.38l1.1,2.3a8.94,8.94,0,0,1-6.18,2.2,8.29,8.29,0,0,1-6.21-2.27,7.9,7.9,0,0,1-2.13-5.86,8.21,8.21,0,0,1,2.41-6.08,7.38,7.38,0,0,1,5.49-2.19,7,7,0,0,1,5.76,2.5A8.32,8.32,0,0,1,235.64,59Zm-10.95-3.2h6.62Q231.15,54,228.05,54T224.69,57.34Z" transform="translate(-0.85 -5.75)"/><path class="cls-15" d="M243.46,52.85a5.39,5.39,0,0,1,2.06-1.36,6.82,6.82,0,0,1,2.61-.56,5.19,5.19,0,0,1,4.27,1.61q1.32,1.6,1.32,5.21v9.17h-4.36v-9q0-3.37-3-3.37a4.5,4.5,0,0,0-1.61.33,2.5,2.5,0,0,0-1.17.74V66.92h-4.33V51.34H243c.11.59.22,1.1.34,1.51Z" transform="translate(-0.85 -5.75)"/><path class="cls-15" d="M267.62,54.8h-4.46v7.73c0,1.14.38,1.71,1.13,1.71a5.53,5.53,0,0,0,2.58-.89l1.44,2.2a8.51,8.51,0,0,1-5.39,1.92c-2.74,0-4.12-1.51-4.12-4.53V54.8h-2.16V51.34h2.2V48.56q1.71-.93,4.36-2.3v5.08h4.42Z" transform="translate(-0.85 -5.75)"/><path class="cls-15" d="M276.55,65.13v.07a2.41,2.41,0,0,1-.69,1.79,2.56,2.56,0,0,1-4.39-1.89V65a2.45,2.45,0,0,1,.77-1.72,2.57,2.57,0,0,1,1.8-.65,2.47,2.47,0,0,1,1.82.69A2.4,2.4,0,0,1,276.55,65.13Zm-4.84-4.29V45.19H276V60.84Z" transform="translate(-0.85 -5.75)"/><path class="cls-15" d="M17.36,318.87A14.73,14.73,0,0,0,15.1,323a13.26,13.26,0,0,0-.87,4.52,15.26,15.26,0,0,0,1.58,6.72,11.73,11.73,0,0,0,.89,1.56c.32.48.53.72.64.72H14.86c-.12,0-.39-.31-.82-.92a12.71,12.71,0,0,1-1-1.72,14,14,0,0,1-1.45-6.36,13.08,13.08,0,0,1,.93-4.73,11.6,11.6,0,0,1,2.38-3.94Z" transform="translate(-0.85 -5.75)"/><path class="cls-15" d="M18.78,320.56a1.77,1.77,0,0,1,.5-1.25,1.63,1.63,0,0,1,1.21-.53,1.74,1.74,0,0,1,1.27.52,1.69,1.69,0,0,1,.53,1.26,1.71,1.71,0,0,1-.51,1.28,1.78,1.78,0,0,1-1.29.5,1.61,1.61,0,0,1-1.23-.51A1.78,1.78,0,0,1,18.78,320.56ZM22,323.17v10.22H19.12V323.17Z" transform="translate(-0.85 -5.75)"/><path class="cls-15" d="M27.64,324.16a3.52,3.52,0,0,1,1.35-.89,4.44,4.44,0,0,1,1.71-.37A3.43,3.43,0,0,1,33.51,324a5.43,5.43,0,0,1,.86,3.42v6H31.51v-5.9c0-1.47-.65-2.21-2-2.21a3,3,0,0,0-1.06.22,1.7,1.7,0,0,0-.77.48v7.41H24.9V323.17h2.41c.07.39.15.72.22,1Z" transform="translate(-0.85 -5.75)"/><path class="cls-15" d="M49.11,325.44H46.19v5.07c0,.75.24,1.12.74,1.12a3.6,3.6,0,0,0,1.69-.58l.94,1.44A5.55,5.55,0,0,1,46,333.75q-2.7,0-2.7-3v-5.34H41.91v-2.27h1.44v-1.82c.75-.41,1.7-.91,2.86-1.51v3.33h2.9Z" transform="translate(-0.85 -5.75)"/><path class="cls-15" d="M51.65,320.42l2.84-1.55v5.51A2.89,2.89,0,0,1,56,323.19a3.59,3.59,0,0,1,1.4-.31A3.5,3.5,0,0,1,60.22,324a5.35,5.35,0,0,1,.88,3.43v6H58.27v-5.9c0-1.47-.63-2.21-1.89-2.21a2.11,2.11,0,0,0-1.89.77v7.34H51.65Z" transform="translate(-0.85 -5.75)"/><path class="cls-15" d="M73.5,329.2h-7a2.64,2.64,0,0,0,2.63,2.41,6.28,6.28,0,0,0,3.07-.9l.72,1.51a5.88,5.88,0,0,1-4.06,1.44,5.46,5.46,0,0,1-4.07-1.49,5.2,5.2,0,0,1-1.39-3.85,5.4,5.4,0,0,1,1.57-4,4.85,4.85,0,0,1,3.6-1.44,4.63,4.63,0,0,1,3.78,1.64,5.46,5.46,0,0,1,1.17,3.63Zm-7.18-2.09h4.35c-.08-1.47-.79-2.21-2.14-2.21S66.49,325.64,66.32,327.11Z" transform="translate(-0.85 -5.75)"/><path class="cls-15" d="M84,324.16a4.27,4.27,0,0,1,3.15-1.26,4.7,4.7,0,0,1,2.31.55,3,3,0,0,1,1.38,1.47,3.82,3.82,0,0,1,1.54-1.46,4.82,4.82,0,0,1,2.29-.56c2.4,0,3.6,1.45,3.6,4.37v6.12H95.42V328A3.89,3.89,0,0,0,95,325.9a1.68,1.68,0,0,0-1.47-.62,2.93,2.93,0,0,0-2.41,1.18v6.93H88.26v-5.67a2.86,2.86,0,0,0-.47-1.88,2,2,0,0,0-1.62-.56,3.8,3.8,0,0,0-1.27.21,1.42,1.42,0,0,0-.78.49v7.41H81.29V323.17H83.7l.2,1Z" transform="translate(-0.85 -5.75)"/><path class="cls-15" d="M110.68,329.2h-7a2.62,2.62,0,0,0,2.63,2.41,6.27,6.27,0,0,0,3.06-.9l.72,1.51a5.87,5.87,0,0,1-4,1.44,5.45,5.45,0,0,1-4.07-1.49,5.16,5.16,0,0,1-1.4-3.85,5.4,5.4,0,0,1,1.57-4,4.86,4.86,0,0,1,3.61-1.44,4.63,4.63,0,0,1,3.78,1.64,5.46,5.46,0,0,1,1.17,3.63Zm-7.18-2.09h4.34c-.07-1.47-.79-2.21-2.14-2.21S103.66,325.64,103.5,327.11Z" transform="translate(-0.85 -5.75)"/><path class="cls-15" d="M121.3,333.39H119l-.22-1a4.74,4.74,0,0,1-3,1.24c-2.26,0-3.39-1.11-3.39-3.31a2.91,2.91,0,0,1,1.41-2.57,7.82,7.82,0,0,1,4.26-.94h.47v0a1.76,1.76,0,0,0-.41-1.33,2.28,2.28,0,0,0-1.46-.36,4.37,4.37,0,0,0-2.72.95c-.27-.5-.53-1-.77-1.46a8.8,8.8,0,0,1,2.24-1.34,6.77,6.77,0,0,1,2.29-.35q3.6,0,3.6,4.5Zm-2.86-4.82h-.34A4.18,4.18,0,0,0,116,329a1.36,1.36,0,0,0-.79,1.19c0,.93.41,1.4,1.22,1.4a2.06,2.06,0,0,0,1.3-.43,1.66,1.66,0,0,0,.68-1.08Z" transform="translate(-0.85 -5.75)"/><path class="cls-15" d="M127.1,324.16a3.52,3.52,0,0,1,1.35-.89,4.44,4.44,0,0,1,1.71-.37A3.39,3.39,0,0,1,133,324a5.36,5.36,0,0,1,.87,3.42v6H131v-5.9c0-1.47-.65-2.21-1.95-2.21a3,3,0,0,0-1.06.22,1.7,1.7,0,0,0-.77.48v7.41h-2.83V323.17h2.4c.08.39.15.72.23,1Z" transform="translate(-0.85 -5.75)"/><path class="cls-15" d="M142.94,325.44H140v5.07c0,.75.25,1.12.74,1.12a3.6,3.6,0,0,0,1.69-.58l.94,1.44a5.55,5.55,0,0,1-3.53,1.26q-2.7,0-2.7-3v-5.34h-1.42v-2.27h1.44v-1.82c.75-.41,1.71-.91,2.86-1.51v3.33h2.9Z" transform="translate(-0.85 -5.75)"/><path class="cls-15" d="M145,320.56a1.73,1.73,0,0,1,.5-1.25,1.63,1.63,0,0,1,1.21-.53,1.74,1.74,0,0,1,1.27.52,1.69,1.69,0,0,1,.53,1.26,1.71,1.71,0,0,1-.51,1.28,1.78,1.78,0,0,1-1.29.5,1.61,1.61,0,0,1-1.23-.51A1.78,1.78,0,0,1,145,320.56Zm3.19,2.61v10.22h-2.86V323.17Z" transform="translate(-0.85 -5.75)"/><path class="cls-15" d="M153.88,324.16A4.27,4.27,0,0,1,157,322.9a4.7,4.7,0,0,1,2.31.55,3,3,0,0,1,1.38,1.47,3.76,3.76,0,0,1,1.54-1.46,4.82,4.82,0,0,1,2.29-.56c2.4,0,3.6,1.45,3.6,4.37v6.12h-2.86V328a3.89,3.89,0,0,0-.44-2.13,1.68,1.68,0,0,0-1.47-.62,2.93,2.93,0,0,0-2.41,1.18v6.93h-2.84v-5.67a2.86,2.86,0,0,0-.47-1.88,2,2,0,0,0-1.62-.56,3.8,3.8,0,0,0-1.27.21,1.42,1.42,0,0,0-.78.49v7.41h-2.83V323.17h2.4l.21,1Z" transform="translate(-0.85 -5.75)"/><path class="cls-15" d="M180.54,329.2h-7a2.52,2.52,0,0,0,.85,1.72,2.56,2.56,0,0,0,1.79.69,6.27,6.27,0,0,0,3.06-.9l.72,1.51a5.87,5.87,0,0,1-4.05,1.44,5.48,5.48,0,0,1-4.08-1.49,5.2,5.2,0,0,1-1.39-3.85,5.4,5.4,0,0,1,1.57-4,4.85,4.85,0,0,1,3.6-1.44,4.63,4.63,0,0,1,3.78,1.64,5.46,5.46,0,0,1,1.17,3.63Zm-7.17-2.09h4.34c-.08-1.47-.79-2.21-2.14-2.21S173.53,325.64,173.37,327.11Z" transform="translate(-0.85 -5.75)"/><path class="cls-15" d="M182.77,335.75l-.72-1.33c.66-.25,1-.6,1-1q-1.08,0-1.08-1.29a1.47,1.47,0,0,1,.44-1.08,1.57,1.57,0,0,1,1.14-.42,1.4,1.4,0,0,1,1.14.55,2.1,2.1,0,0,1,.45,1.38,3.43,3.43,0,0,1-.66,2.09A2.8,2.8,0,0,1,182.77,335.75Z" transform="translate(-0.85 -5.75)"/><path class="cls-15" d="M200.86,332.08a5.19,5.19,0,0,1-3.78,1.58,5.35,5.35,0,0,1-4.14-1.67,5.67,5.67,0,0,1,.39-7.72A5.15,5.15,0,0,1,197,322.9a5.05,5.05,0,0,1,3.8,1.48l-.85,1.54a3.7,3.7,0,0,0-2.5-1,2.58,2.58,0,0,0-2.07,1,3.8,3.8,0,0,0-.81,2.51,3.37,3.37,0,0,0,.8,2.33,2.57,2.57,0,0,0,2,.91,3.44,3.44,0,0,0,2.55-1.1Z" transform="translate(-0.85 -5.75)"/><path class="cls-15" d="M205.86,318.87v14.52H203v-13Z" transform="translate(-0.85 -5.75)"/><path class="cls-15" d="M208.47,320.56a1.74,1.74,0,0,1,.51-1.25,1.59,1.59,0,0,1,1.2-.53,1.74,1.74,0,0,1,1.27.52,1.69,1.69,0,0,1,.53,1.26,1.71,1.71,0,0,1-.51,1.28,1.76,1.76,0,0,1-1.29.5,1.63,1.63,0,0,1-1.23-.51A1.78,1.78,0,0,1,208.47,320.56Zm3.19,2.61v10.22h-2.85V323.17Z" transform="translate(-0.85 -5.75)"/><path class="cls-15" d="M223.16,332.08a5.19,5.19,0,0,1-3.78,1.58,5.35,5.35,0,0,1-4.14-1.67,5.69,5.69,0,0,1,.38-7.72,5.17,5.17,0,0,1,3.63-1.37,5.05,5.05,0,0,1,3.8,1.48l-.85,1.54a3.7,3.7,0,0,0-2.5-1,2.58,2.58,0,0,0-2.07,1,3.8,3.8,0,0,0-.81,2.51,3.37,3.37,0,0,0,.8,2.33,2.57,2.57,0,0,0,2,.91,3.44,3.44,0,0,0,2.55-1.1Z" transform="translate(-0.85 -5.75)"/><path class="cls-15" d="M234.84,323.17,230,327.29q2.7,4.05,4.17,6.1H231q-1.89-3.24-2.86-4.86v4.86h-2.83v-13l2.83-1.49v6.78c.74-.59,1.72-1.42,2.95-2.48Z" transform="translate(-0.85 -5.75)"/><path class="cls-15" d="M248.27,325.44h-2.92v5.07c0,.75.25,1.12.74,1.12a3.6,3.6,0,0,0,1.69-.58l.94,1.44a5.55,5.55,0,0,1-3.53,1.26q-2.7,0-2.7-3v-5.34h-1.42v-2.27h1.44v-1.82c.75-.41,1.71-.91,2.86-1.51v3.33h2.9Z" transform="translate(-0.85 -5.75)"/><path class="cls-15" d="M250.82,320.42l2.83-1.55v5.51a2.92,2.92,0,0,1,1.49-1.19,3.55,3.55,0,0,1,1.39-.31,3.47,3.47,0,0,1,2.85,1.07,5.34,5.34,0,0,1,.89,3.43v6h-2.84v-5.9c0-1.47-.63-2.21-1.89-2.21a2.13,2.13,0,0,0-1.89.77v7.34h-2.83Z" transform="translate(-0.85 -5.75)"/><path class="cls-15" d="M262.77,320.56a1.73,1.73,0,0,1,.5-1.25,1.63,1.63,0,0,1,1.21-.53,1.74,1.74,0,0,1,1.27.52,1.69,1.69,0,0,1,.53,1.26,1.71,1.71,0,0,1-.51,1.28,1.78,1.78,0,0,1-1.29.5,1.61,1.61,0,0,1-1.23-.51A1.78,1.78,0,0,1,262.77,320.56Zm3.19,2.61v10.22H263.1V323.17Z" transform="translate(-0.85 -5.75)"/><path class="cls-15" d="M274.85,325.65a4.54,4.54,0,0,0-2.52-.73q-1.08,0-1.08.93c0,.57.49,1,1.46,1.21a6.3,6.3,0,0,1,2.48,1,3,3,0,0,1,.94,2.43,2.83,2.83,0,0,1-1,2.29,4.16,4.16,0,0,1-2.76.86,6.3,6.3,0,0,1-4.14-1.4l1-1.57a4.41,4.41,0,0,0,2.81.92,1.69,1.69,0,0,0,1.06-.32,1,1,0,0,0,.4-.83c0-.63-.53-1-1.6-1.24q-3.42-.64-3.42-3.33a2.67,2.67,0,0,1,1.05-2.14,4,4,0,0,1,2.62-.85,5.79,5.79,0,0,1,3.71,1.24Z" transform="translate(-0.85 -5.75)"/><path class="cls-15" d="M290.31,325.44h-2.93v5.07c0,.75.25,1.12.75,1.12a3.53,3.53,0,0,0,1.68-.58l.95,1.44a5.57,5.57,0,0,1-3.53,1.26q-2.7,0-2.7-3v-5.34h-1.42v-2.27h1.44v-1.82c.75-.41,1.7-.91,2.86-1.51v3.33h2.9Z" transform="translate(-0.85 -5.75)"/><path class="cls-15" d="M297,322.9a4.67,4.67,0,0,1,3.91,1.78,5.68,5.68,0,0,1,1.17,3.62,5.18,5.18,0,0,1-1.73,4.05,5,5,0,0,1-7.09-.36A5.31,5.31,0,0,1,292,328.3a5.45,5.45,0,0,1,1.51-4A4.79,4.79,0,0,1,297,322.9Zm0,8.64c1.45,0,2.18-1.08,2.18-3.24s-.73-3.38-2.18-3.38-2.19,1.13-2.19,3.38S295.58,331.54,297,331.54Z" transform="translate(-0.85 -5.75)"/><path class="cls-15" d="M8.82,358.89l-.4-1.08a2.68,2.68,0,0,1-1.17,1,4,4,0,0,1-1.67.38,4.39,4.39,0,0,1-3.67-1.6,5.33,5.33,0,0,1-1.06-3.42,5.91,5.91,0,0,1,1.72-4.54,4.34,4.34,0,0,1,3.08-1.2,4,4,0,0,1,2.61.86V346l2.83-1.57v14.47ZM8.26,355v-2.86a2.19,2.19,0,0,0-.71-1.23,1.91,1.91,0,0,0-1.29-.48,2.17,2.17,0,0,0-1.83.9,4,4,0,0,0-.67,2.43c0,2.23.73,3.35,2.18,3.35a2.19,2.19,0,0,0,1.51-.64A2.47,2.47,0,0,0,8.26,355Z" transform="translate(-0.85 -5.75)"/><path class="cls-15" d="M18.56,348.4a4.72,4.72,0,0,1,3.92,1.78,5.68,5.68,0,0,1,1.17,3.62,5.18,5.18,0,0,1-1.73,4.05,5,5,0,0,1-7.09-.36,5.31,5.31,0,0,1-1.35-3.69,5.43,5.43,0,0,1,1.51-4A4.78,4.78,0,0,1,18.56,348.4Zm0,8.64q2.19,0,2.19-3.24c0-2.25-.73-3.37-2.19-3.37s-2.18,1.12-2.18,3.37S17.11,357,18.56,357Z" transform="translate(-0.85 -5.75)"/><path class="cls-15" d="M30.85,358.89h-2.5l-3.51-10.22H27.7l1.87,6.78,1.51-6.78H34c.22,1.08.6,2.82,1.12,5.2l.34,1.58,1.93-6.78h2.93l-.5,1.42-.27.7c-1.29,3.63-2.25,6.33-2.9,8.1H34.09c-.18-.69-.4-1.58-.67-2.68-.42-1.71-.74-3-1-3.8-.18.69-.43,1.69-.74,3C31.34,357,31.05,358.17,30.85,358.89Z" transform="translate(-0.85 -5.75)"/><path class="cls-15" d="M44.89,349.66a3.64,3.64,0,0,1,1.35-.89A4.63,4.63,0,0,1,48,348.4a3.42,3.42,0,0,1,2.8,1.06,5.4,5.4,0,0,1,.87,3.42v6H48.76V353c0-1.47-.65-2.2-2-2.2a3,3,0,0,0-1,.21,1.7,1.7,0,0,0-.77.49v7.4H42.15V348.67h2.4c.08.39.15.72.23,1Z" transform="translate(-0.85 -5.75)"/><path class="cls-15" d="M57.4,344.37v14.52H54.57v-13Z" transform="translate(-0.85 -5.75)"/><path class="cls-15" d="M64.87,348.4a4.72,4.72,0,0,1,3.92,1.78A5.68,5.68,0,0,1,70,353.8a5.18,5.18,0,0,1-1.73,4.05,5,5,0,0,1-7.09-.36,5.31,5.31,0,0,1-1.35-3.69,5.43,5.43,0,0,1,1.51-4A4.78,4.78,0,0,1,64.87,348.4Zm0,8.64q2.19,0,2.19-3.24c0-2.25-.73-3.37-2.19-3.37s-2.18,1.12-2.18,3.37S63.42,357,64.87,357Z" transform="translate(-0.85 -5.75)"/><path class="cls-15" d="M80.58,358.89H78.31l-.23-1a4.66,4.66,0,0,1-3,1.24q-3.41,0-3.4-3.31a2.89,2.89,0,0,1,1.42-2.56,7.78,7.78,0,0,1,4.25-1h.47v0a1.73,1.73,0,0,0-.4-1.33,2.25,2.25,0,0,0-1.47-.36,4.38,4.38,0,0,0-2.72.94c-.27-.49-.52-1-.76-1.46a8.63,8.63,0,0,1,2.24-1.34A6.66,6.66,0,0,1,77,348.4q3.6,0,3.6,4.5Zm-2.86-4.82h-.34a4.18,4.18,0,0,0-2.07.45,1.35,1.35,0,0,0-.78,1.2c0,.93.4,1.39,1.21,1.39a2.08,2.08,0,0,0,1.31-.43,1.65,1.65,0,0,0,.67-1.08Z" transform="translate(-0.85 -5.75)"/><path class="cls-15" d="M90.93,358.89l-.4-1.08a2.68,2.68,0,0,1-1.17,1,4,4,0,0,1-1.67.38,4.39,4.39,0,0,1-3.67-1.6,5.33,5.33,0,0,1-1-3.42,5.9,5.9,0,0,1,1.71-4.54,4.34,4.34,0,0,1,3.08-1.2,4,4,0,0,1,2.61.86V346l2.83-1.57v14.47ZM90.37,355v-2.86a2.19,2.19,0,0,0-.71-1.23,1.91,1.91,0,0,0-1.29-.48,2.17,2.17,0,0,0-1.83.9,4,4,0,0,0-.67,2.43c0,2.23.73,3.35,2.18,3.35a2.19,2.19,0,0,0,1.51-.64A2.47,2.47,0,0,0,90.37,355Z" transform="translate(-0.85 -5.75)"/><path class="cls-15" d="M106.07,348.4a4.72,4.72,0,0,1,3.92,1.78,5.68,5.68,0,0,1,1.17,3.62,5.18,5.18,0,0,1-1.73,4.05,5,5,0,0,1-7.09-.36A5.31,5.31,0,0,1,101,353.8a5.43,5.43,0,0,1,1.51-4A4.78,4.78,0,0,1,106.07,348.4Zm0,8.64q2.19,0,2.19-3.24c0-2.25-.73-3.37-2.19-3.37s-2.18,1.12-2.18,3.37S104.62,357,106.07,357Z" transform="translate(-0.85 -5.75)"/><path class="cls-15" d="M120.21,357.72a3.71,3.71,0,0,1-3.09,1.44,3.34,3.34,0,0,1-2.75-1,5.36,5.36,0,0,1-.82-3.37v-6.12h2.79v5.38a4.15,4.15,0,0,0,.4,2.15,1.56,1.56,0,0,0,1.4.62,2.56,2.56,0,0,0,1-.23,1.21,1.21,0,0,0,.66-.47v-7.45h2.83v10.22h-2.11l-.25-1.17Z" transform="translate(-0.85 -5.75)"/><path class="cls-15" d="M128.06,348.67l.27.9a1.93,1.93,0,0,1,.87-.82,2.71,2.71,0,0,1,1.31-.35,3.21,3.21,0,0,1,3,1.92l-2.39,1.3a2.09,2.09,0,0,0-1.57-.85,1.19,1.19,0,0,0-1.13.78v7.34h-2.79V348.67Z" transform="translate(-0.85 -5.75)"/><path class="cls-15" d="M147.73,358.89l-.41-1.08a2.68,2.68,0,0,1-1.17,1,3.91,3.91,0,0,1-1.66.38,4.38,4.38,0,0,1-3.67-1.6,5.27,5.27,0,0,1-1.06-3.42,5.9,5.9,0,0,1,1.71-4.54,4.35,4.35,0,0,1,3.08-1.2,4,4,0,0,1,2.61.86V346l2.84-1.57v14.47Zm-.57-3.89v-2.86a2.14,2.14,0,0,0-.71-1.23,1.88,1.88,0,0,0-1.29-.48,2.16,2.16,0,0,0-1.82.9,4,4,0,0,0-.68,2.43c0,2.23.73,3.35,2.19,3.35a2.15,2.15,0,0,0,1.5-.64A2.37,2.37,0,0,0,147.16,355Z" transform="translate(-0.85 -5.75)"/><path class="cls-15" d="M152.61,346.06a1.75,1.75,0,0,1,.51-1.25,1.59,1.59,0,0,1,1.2-.53,1.78,1.78,0,0,1,1.27.52,1.72,1.72,0,0,1,.53,1.26,1.68,1.68,0,0,1-.51,1.28,1.73,1.73,0,0,1-1.29.5,1.63,1.63,0,0,1-1.23-.51A1.76,1.76,0,0,1,152.61,346.06Zm3.19,2.61v10.22H153V348.67Z" transform="translate(-0.85 -5.75)"/><path class="cls-15" d="M167,358.89h-2.28l-.22-1a4.69,4.69,0,0,1-3,1.24c-2.26,0-3.4-1.1-3.4-3.31a2.91,2.91,0,0,1,1.42-2.56,7.8,7.8,0,0,1,4.25-1h.48v0a1.73,1.73,0,0,0-.41-1.33,2.24,2.24,0,0,0-1.46-.36,4.36,4.36,0,0,0-2.72.94c-.27-.49-.53-1-.77-1.46a8.8,8.8,0,0,1,2.24-1.34,6.75,6.75,0,0,1,2.28-.35c2.4,0,3.61,1.5,3.61,4.5Zm-2.86-4.82h-.34a4.13,4.13,0,0,0-2.07.45,1.34,1.34,0,0,0-.79,1.2c0,.93.41,1.39,1.22,1.39a2.06,2.06,0,0,0,1.3-.43,1.66,1.66,0,0,0,.68-1.08Z" transform="translate(-0.85 -5.75)"/><path class="cls-15" d="M172.28,358.89H170V346l2.84-1.6v5.45a3.1,3.1,0,0,1,1.32-1.12,3.49,3.49,0,0,1,1.49-.32,4.36,4.36,0,0,1,3.55,1.55,5.59,5.59,0,0,1,1.13,3.65,5.67,5.67,0,0,1-1.67,4.43,4.67,4.67,0,0,1-3.21,1.15,3.57,3.57,0,0,1-2.93-1.28Zm.54-6.12v2.45a2,2,0,0,0,.68,1.4,2.11,2.11,0,0,0,1.45.56,2,2,0,0,0,1.71-.9,4.27,4.27,0,0,0,.63-2.48,4.46,4.46,0,0,0-.58-2.45,1.83,1.83,0,0,0-1.62-.9,2.18,2.18,0,0,0-1.61.68A2.25,2.25,0,0,0,172.82,352.77Z" transform="translate(-0.85 -5.75)"/><path class="cls-15" d="M192.1,354.7h-7a2.53,2.53,0,0,0,.84,1.72,2.58,2.58,0,0,0,1.79.69,6.22,6.22,0,0,0,3.06-.9l.72,1.51a5.87,5.87,0,0,1-4.05,1.44,5.45,5.45,0,0,1-4.07-1.49,5.19,5.19,0,0,1-1.4-3.84,5.41,5.41,0,0,1,1.58-4,4.82,4.82,0,0,1,3.6-1.44,4.61,4.61,0,0,1,3.78,1.65,5.43,5.43,0,0,1,1.17,3.62Zm-7.18-2.09h4.34c-.07-1.47-.78-2.2-2.13-2.2S185.09,351.14,184.92,352.61Z" transform="translate(-0.85 -5.75)"/><path class="cls-15" d="M200.88,351H198V356c0,.75.25,1.12.74,1.12a3.56,3.56,0,0,0,1.69-.58l1,1.44a5.6,5.6,0,0,1-3.54,1.26q-2.7,0-2.7-3V351h-1.41v-2.28h1.44v-1.82c.75-.41,1.7-.91,2.85-1.51v3.33h2.91Z" transform="translate(-0.85 -5.75)"/><path class="cls-15" d="M212.64,354.7h-7a2.5,2.5,0,0,0,.85,1.72,2.56,2.56,0,0,0,1.79.69,6.27,6.27,0,0,0,3.06-.9l.72,1.51a5.87,5.87,0,0,1-4,1.44,5.48,5.48,0,0,1-4.08-1.49,5.19,5.19,0,0,1-1.39-3.84,5.4,5.4,0,0,1,1.57-4,4.85,4.85,0,0,1,3.6-1.44,4.61,4.61,0,0,1,3.78,1.65,5.43,5.43,0,0,1,1.17,3.62Zm-7.17-2.09h4.34c-.08-1.47-.79-2.2-2.14-2.2S205.63,351.14,205.47,352.61Z" transform="translate(-0.85 -5.75)"/><path class="cls-15" d="M221,351.15a4.48,4.48,0,0,0-2.52-.72c-.72,0-1.08.31-1.08.92s.49,1,1.46,1.22a6.32,6.32,0,0,1,2.48,1,3,3,0,0,1,.94,2.43,2.83,2.83,0,0,1-1,2.29,4.16,4.16,0,0,1-2.76.86,6.3,6.3,0,0,1-4.14-1.4l1-1.57a4.43,4.43,0,0,0,2.81.92,1.67,1.67,0,0,0,1.06-.31,1,1,0,0,0,.4-.84q0-.94-1.59-1.23-3.42-.66-3.42-3.33a2.66,2.66,0,0,1,1-2.14,4,4,0,0,1,2.62-.86,5.87,5.87,0,0,1,3.72,1.24Z" transform="translate(-0.85 -5.75)"/><path class="cls-15" d="M236.45,351h-2.92V356c0,.75.24,1.12.74,1.12a3.6,3.6,0,0,0,1.69-.58l.94,1.44a5.55,5.55,0,0,1-3.53,1.26q-2.7,0-2.7-3V351h-1.42v-2.28h1.44v-1.82c.75-.41,1.7-.91,2.86-1.51v3.33h2.9Z" transform="translate(-0.85 -5.75)"/><path class="cls-15" d="M248.22,354.7h-7a2.53,2.53,0,0,0,.84,1.72,2.58,2.58,0,0,0,1.79.69,6.22,6.22,0,0,0,3.06-.9l.72,1.51a5.87,5.87,0,0,1-4.05,1.44,5.45,5.45,0,0,1-4.07-1.49,5.19,5.19,0,0,1-1.4-3.84,5.41,5.41,0,0,1,1.58-4,4.82,4.82,0,0,1,3.6-1.44,4.61,4.61,0,0,1,3.78,1.65,5.43,5.43,0,0,1,1.17,3.62ZM241,352.61h4.34c-.07-1.47-.78-2.2-2.13-2.2S241.21,351.14,241,352.61Z" transform="translate(-0.85 -5.75)"/><path class="cls-15" d="M256.57,351.15a4.53,4.53,0,0,0-2.52-.72c-.72,0-1.08.31-1.08.92s.48,1,1.46,1.22a6.32,6.32,0,0,1,2.48,1,3,3,0,0,1,.94,2.43,2.83,2.83,0,0,1-1,2.29,4.18,4.18,0,0,1-2.76.86,6.27,6.27,0,0,1-4.14-1.4l1-1.57a4.44,4.44,0,0,0,2.82.92,1.66,1.66,0,0,0,1.05-.31,1,1,0,0,0,.41-.84c0-.63-.53-1-1.6-1.23q-3.42-.66-3.42-3.33a2.65,2.65,0,0,1,1.05-2.14,4,4,0,0,1,2.62-.86,5.87,5.87,0,0,1,3.71,1.24Z" transform="translate(-0.85 -5.75)"/><path class="cls-15" d="M266.63,351H263.7V356c0,.75.25,1.12.74,1.12a3.56,3.56,0,0,0,1.69-.58l.95,1.44a5.6,5.6,0,0,1-3.54,1.26q-2.7,0-2.7-3V351h-1.41v-2.28h1.44v-1.82c.75-.41,1.7-.91,2.85-1.51v3.33h2.91Z" transform="translate(-0.85 -5.75)"/><path class="cls-15" d="M276.71,348.67l.27,1a3.15,3.15,0,0,1,2.65-1.24,4.62,4.62,0,0,1,3.76,1.62,5.4,5.4,0,0,1,1.15,3.56,5.54,5.54,0,0,1-1.71,4.36,4.78,4.78,0,0,1-3.31,1.22,3.42,3.42,0,0,1-1.24-.25,2.23,2.23,0,0,1-.92-.56v4.54h-2.79V348.67Zm.65,4v2.61a1.87,1.87,0,0,0,.55,1.35,1.77,1.77,0,0,0,1.29.56,2,2,0,0,0,1.69-1,4.11,4.11,0,0,0,.68-2.41,4.38,4.38,0,0,0-.6-2.44,1.84,1.84,0,0,0-3-.25A2.22,2.22,0,0,0,277.36,352.66Z" transform="translate(-0.85 -5.75)"/><path class="cls-15" d="M294.21,358.89l-.4-1.08a2.68,2.68,0,0,1-1.17,1,4,4,0,0,1-1.67.38,4.37,4.37,0,0,1-3.66-1.6,5.27,5.27,0,0,1-1.06-3.42A5.9,5.9,0,0,1,288,349.6a4.34,4.34,0,0,1,3.08-1.2,4,4,0,0,1,2.61.86V346l2.84-1.57v14.47Zm-.56-3.89v-2.86a2.14,2.14,0,0,0-.71-1.23,1.91,1.91,0,0,0-1.29-.48,2.15,2.15,0,0,0-1.82.9,4,4,0,0,0-.68,2.43c0,2.23.73,3.35,2.18,3.35a2.18,2.18,0,0,0,1.51-.64A2.37,2.37,0,0,0,293.65,355Z" transform="translate(-0.85 -5.75)"/><path class="cls-15" d="M298.76,351v-2.3h1.6v-1.35c0-2,.91-2.95,2.74-2.95a5.32,5.32,0,0,1,3.35,1.22l-1,1.48a3.06,3.06,0,0,0-1.53-.58c-.47,0-.7.38-.7,1.12v1.06H306V351h-2.79v7.92h-2.83V351Z" transform="translate(-0.85 -5.75)"/><path class="cls-15" d="M307.49,362c.13,0,.4-.32.79-1a15.46,15.46,0,0,0,1-2,15.18,15.18,0,0,0,1.28-6.07,13.18,13.18,0,0,0-.86-4.51,14.65,14.65,0,0,0-2.26-4.16H310a11.82,11.82,0,0,1,2.39,3.94,13.06,13.06,0,0,1,.92,4.73,14,14,0,0,1-1.75,7,14.28,14.28,0,0,1-.9,1.34q-.53.69-.66.69Z" transform="translate(-0.85 -5.75)"/></g></g></svg>