<svg id="Layer_1" data-name="Layer 1" xmlns="http://www.w3.org/2000/svg" viewBox="0 0 100 100"><defs><style>.cls-1,.cls-7{fill:none;}.cls-2{fill:#3e547c;}.cls-3{fill:#0a85c3;}.cls-4{fill:#8dd5e8;}.cls-5{fill:#c8eaf3;}.cls-6{fill:#5ab0d9;}.cls-7{stroke:#ea6294;stroke-linecap:round;stroke-miterlimit:10;stroke-width:3px;}.cls-8{fill:#e11b65;}</style></defs><g id="Layer_2" data-name="Layer 2"><g id="brand"><polygon class="cls-1" points="61.79 95.59 64.63 95.95 61.78 95.59 61.79 95.59"/><polygon class="cls-1" points="8.66 88.76 4.61 85.71 33.74 16.43 3.59 88.14 61.79 95.59 61.78 95.59 8.66 88.76"/><path class="cls-1" d="M94.78,24.24c3.91.5,6,3.56,4.58,6.83L74.2,90.93c-1.38,3.28-5.66,5.52-9.56,5l7.07.9,30.14-71.72Z"/><polygon class="cls-2" points="8.66 88.76 61.78 95.59 42.7 17.57 33.74 16.43 4.61 85.71 8.66 88.76"/><path class="cls-3" d="M74.2,90.93,99.37,31.07c1.38-3.27-.67-6.33-4.58-6.83L42.71,17.57l19.07,78,2.85.37h0C68.54,96.45,72.82,94.21,74.2,90.93Z"/><path class="cls-2" d="M6.48,76.22l-3-.38A2.59,2.59,0,0,0,.62,78.92l1.09,5.64a4.76,4.76,0,0,0,4.08,3.83l2.88.37Z"/><path class="cls-4" d="M38.93,62.51,2.78,71.73,4.87,84.15a1,1,0,0,0,.81.79L60.86,92,50.47,51.53Z"/><path class="cls-5" d="M60,42.44l-9.55,9.09L60.86,92l4,.49a5.71,5.71,0,0,0,6-3.47L95.08,31.45a7.34,7.34,0,0,0,.57-2.77V16.91Z"/><path class="cls-1" d="M96.94,18.5l2.48-5.93L39.87,4.94l52.49,6.72C96.26,12.16,98.31,15.22,96.94,18.5Z"/><path class="cls-1" d="M1.12,75.67l1.75-4.16-5.33,8L.59,78.29v-.17A6.9,6.9,0,0,1,1.12,75.67Z"/><path class="cls-1" d="M34,4.2l-2.69-.35L11.17,51.76,30.36,6.11A3.57,3.57,0,0,1,34,4.2Z"/><path class="cls-1" d="M92.47,29.14,71.77,78.36c-1.37,3.27-5.65,5.51-9.56,5L58,82.83h0l11.26,1.44Z"/><path class="cls-1" d="M8.47,76.5l-5-.66a2.66,2.66,0,0,0-1.85.47,2.63,2.63,0,0,0-1,1.81v.16l5.17-2.12L58,82.83h0Z"/><path class="cls-6" d="M.59,78.29h0v-.16A.43.43,0,0,1,.59,78.29Z"/><path class="cls-3" d="M.61,78.12a2.63,2.63,0,0,1,1-1.81,2.66,2.66,0,0,1,1.85-.47l5,.66,50.05,6.41L38.85,4.81,34,4.2a3.59,3.59,0,0,0-3.65,1.91L11.17,51.76,2.87,71.51h0L1.12,75.67A6.67,6.67,0,0,0,.61,78.12Z"/><path class="cls-6" d="M62.21,83.38c3.91.5,8.19-1.75,9.56-5l20.7-49.22L96.94,18.5c1.37-3.28-.68-6.34-4.58-6.84L39.87,4.94l-1-.13,19.68,78.1Z"/><line class="cls-7" x1="8.67" y1="81.32" x2="42.71" y2="85.68"/><path class="cls-8" d="M15.69,82.29,10.25,93.93a.65.65,0,0,0,.32.87.61.61,0,0,0,.56,0l3.25-1.54a1.48,1.48,0,0,1,2,.66l.92,1.74a.61.61,0,0,0,.81.26l0,0L21.18,94a1.49,1.49,0,0,1,2.06.44h0l1.49,2.23a.61.61,0,0,0,.83.16.53.53,0,0,0,.2-.22l6.3-12.22Z"/><path class="cls-1" d="M52.28,58.1l-.67-2.65-.34.8C50.82,57.31,51.3,57.81,52.28,58.1Z"/><path class="cls-1" d="M48.21,36.77l.37-.86c.33-.79-.5-1.06-1.85-1.24l-.37,0,.72,2.83A1.22,1.22,0,0,0,48.21,36.77Z"/><path class="cls-1" d="M44.21,37.21l1.36.17a7.41,7.41,0,0,0,1.49.08l-.7-2.81-1-.13Z"/><path class="cls-1" d="M44.86,40.49l-1.94-.25-1.26,2.95,2,.26c1.28.16,2.28.07,2.65-.79l.34-.81C47,40.93,46.09,40.64,44.86,40.49Z"/><polygon class="cls-1" points="39.56 22.06 39.91 17.31 36.39 21.67 39.56 22.06"/><path class="cls-5" d="M42.15,12.11c-.5-.06-1-.12-1.49-.16l3.93,15.6.1-15C43.9,12.36,43,12.23,42.15,12.11Z"/><path class="cls-4" d="M39.56,11.86l-13.33,15h0c.75.14,1.72.28,2.7.41s2,.22,2.75.28l2-2.53,5.56.72-.22,2.76c.75.14,1.74.29,2.73.41s2,.23,2.78.28V27.57L40.64,12Zm0,10.2-3.16-.39,3.51-4.36Z"/><path class="cls-4" d="M45.57,37.38l-1.36-.17,1.15-2.7,1,.12-1-3.82-3.85-.5-6.71,15.8,8.31,1c2.52.32,4.67.11,6.18-.79l-2.24-8.91A6.93,6.93,0,0,1,45.57,37.38Zm1.06,4.47-.34.81c-.37.86-1.38,1-2.66.79l-2-.26,1.25-2.95,2,.25C46.09,40.64,47,40.93,46.63,41.85Z"/><path class="cls-5" d="M51.21,44.21l.44-1c.82-1.94.09-3.11-1.71-3.77a4.42,4.42,0,0,0,3.85-2.63l.43-1c1.11-2.62-1-4-5.06-4.47l-3.76-.5,1,3.82.36,0c1.36.17,2.18.45,1.85,1.24l-.36.84a1.19,1.19,0,0,1-1.12.69l2.24,8.91A4.41,4.41,0,0,0,51.21,44.21Z"/><path class="cls-5" d="M57.79,62.14a16.78,16.78,0,0,0,1.09-3.53,35.87,35.87,0,0,1-4.52-.14,13.33,13.33,0,0,1-2.08-.37l1,4.1A37.21,37.21,0,0,0,57.79,62.14Z"/><path class="cls-4" d="M51.27,56.25l.34-.8-2-7.84a5.55,5.55,0,0,0-.89,1.45L45.5,56.64c-1.4,3.34,1.42,4.83,6.34,5.43.42.06.92.1,1.49.13l-1-4.1C51.3,57.81,50.82,57.31,51.27,56.25Z"/><path class="cls-5" d="M53.64,50.68c.58-1.37,1.83-1.49,3.47-1.32l1.06.11a29.8,29.8,0,0,1,4.18.86,18.32,18.32,0,0,0,1.49-3.54,31.33,31.33,0,0,0-5.07-1.08,23.11,23.11,0,0,0-2.63-.21c-2.87-.07-5.14.5-6.54,2.11l2,7.84Z"/><path class="cls-4" d="M55.16,71.85a18,18,0,0,0-1.29,2.82c-.1.3-.2.58-.26.83l.49.12c.91.22,1.85.42,2.75.58L55.79,72Z"/><path class="cls-5" d="M63.77,64.54c.31-.75,1.22-.68,2.55-.5A34.22,34.22,0,0,1,72,65.23a13.12,13.12,0,0,0,1.49-3.54,29.55,29.55,0,0,0-5.81-1.28c-4.34-.54-7.76.07-8.94,2.8L58,64.88c-1.05,2.48-.41,3.35.81,3.87l3.51,1.54c1.69.75,1.82.79,1.49,1.56l-.28.65c-.3.69-1.26.64-2.46.49a51.12,51.12,0,0,1-5.36-1l1.06,4.21c1,.18,2,.33,2.83.44h0c4.55.58,7.77-.11,8.91-2.79L69,72.7l.3-.72c1-2.43.45-3.25-.81-3.83l-3.47-1.61c-1.61-.76-1.8-.86-1.53-1.49Z"/></g></g></svg>