<svg id="Layer_1" data-name="Layer 1" xmlns="http://www.w3.org/2000/svg" viewBox="0 0 100 100"><defs><style>.cls-1{fill:#8dd5e8;}.cls-2{fill:#4b6596;}.cls-3{fill:#1b3764;}.cls-4{fill:#3e547c;}.cls-5{fill:#0a85c3;}</style></defs><polygon class="cls-1" points="42.24 54.53 32.02 50.43 31.12 50.52 31.32 52.51 42.24 54.53"/><path class="cls-2" d="M59.42,61.41,42.25,54.53l-10.93-2-.2-2-8.76.85,1.1,11.21L29.59,62a13,13,0,0,1,5.15.52l18.19,5.59A14.55,14.55,0,0,0,65.11,66.4L86.58,52.53A2.63,2.63,0,0,0,87,48.47Z"/><path class="cls-2" d="M84.11,47.91,64,56.64a11.05,11.05,0,0,1-6.4.72L42.26,54.53,54,61.27a7.76,7.76,0,0,0,7.35.2L87,48.47A2.6,2.6,0,0,0,84.11,47.91Z"/><ellipse class="cls-3" cx="5.55" cy="54.01" rx="4.8" ry="14.45"/><rect class="cls-3" x="5.55" y="39.56" width="8.64" height="28.91"/><ellipse class="cls-4" cx="14.19" cy="54.01" rx="4.8" ry="14.45"/><polygon class="cls-1" points="39.78 54.48 26.68 48.65 25.51 48.72 25.66 51.32 39.78 54.48"/><path class="cls-2" d="M61.79,64.28l-22-9.8L25.66,51.31l-.15-2.6-11.44.69L14.94,64l8-.48a17,17,0,0,1,6.67.92L53,72.63A18.92,18.92,0,0,0,68.94,71L97.57,54a3.44,3.44,0,0,0,1.67-3.15,3.39,3.39,0,0,0-.9-2.1Z"/><path class="cls-2" d="M94.57,47.92,68,58.28a14.34,14.34,0,0,1-8.37.64L39.78,54.48l14.95,9.35a10.07,10.07,0,0,0,9.55.61L98.34,48.8A3.44,3.44,0,0,0,94.57,47.92Z"/><polygon class="cls-5" points="39.56 56.37 26.83 49.77 25.66 49.77 25.66 52.37 39.56 56.37"/><rect class="cls-4" x="14.19" y="44.21" width="11.46" height="5.56"/><path class="cls-3" d="M60.94,67.47,39.56,56.37l-13.91-4v-2.6H14.19V64.42h8a17.16,17.16,0,0,1,6.6,1.32L51.68,75.3a18.92,18.92,0,0,0,16-.64L97.26,59.4a3.42,3.42,0,0,0,1.08-5.2Z"/><path class="cls-4" d="M94.64,53.1,67.46,61.86a14.36,14.36,0,0,1-8.39.13L39.56,56.37,53.92,66.6a10.06,10.06,0,0,0,9.49,1.18L98.34,54.21A3.41,3.41,0,0,0,94.64,53.1Z"/><path class="cls-4" d="M72.59,34.09l0-.83a3.26,3.26,0,0,0-5.38-2.59l-2.09,1.79a4.84,4.84,0,0,1-6.29,0l-2.07-1.79a3.26,3.26,0,0,0-5.38,2.59l0,.83A2.47,2.47,0,0,1,50.6,36a1.33,1.33,0,0,1-.19.14l9.14,12.3a3.19,3.19,0,0,0,4.46.65,2.86,2.86,0,0,0,.65-.65l9.08-12.21a2.37,2.37,0,0,1-.3-.23A2.44,2.44,0,0,1,72.59,34.09Z"/><path class="cls-2" d="M74.51,35.23a7.61,7.61,0,0,0-11.7-9.66,1,1,0,0,1-1.4,0h0a7.61,7.61,0,0,0-11.71,9.66h0l.7,1a1.33,1.33,0,0,0,.19-.14,2.47,2.47,0,0,0,.84-1.95l0-.83a3.26,3.26,0,0,1,5.4-2.59l2.08,1.79a4.85,4.85,0,0,0,6.3,0l2.08-1.79a3.25,3.25,0,0,1,5.37,2.59l0,.83A2.51,2.51,0,0,0,73.44,36a3.55,3.55,0,0,0,.31.23l.77-1Z"/><path class="cls-4" d="M14.19,44.21c-1.29,0-2.42,2.26-3,5.56h5.94C16.62,46.47,15.49,44.21,14.19,44.21Z"/><path class="cls-3" d="M11.22,49.77a27.6,27.6,0,0,0-.35,4.54c0,5.58,1.49,10.11,3.32,10.11s3.32-4.53,3.32-10.11a28.75,28.75,0,0,0-.36-4.54Z"/><path class="cls-4" d="M70.08,58.55h0a3,3,0,0,0-1.63-2.43L50.92,47a43.18,43.18,0,0,0-9.72-3.88h0A20.1,20.1,0,0,0,27,43.43,18.37,18.37,0,0,0,22,46.65,36.18,36.18,0,0,1,34.9,48c3.94,1.18,4.94,2.26,15.15,7.65,9.14,4.83,13.07,6.46,16.86,5A9.27,9.27,0,0,0,70.08,58.55Z"/><path class="cls-3" d="M70.08,58.55C60,62,50.79,52.81,35.28,46.84c-1.43-.55-3.11-1.15-5-1.74A9,9,0,0,0,22,46.65L20.21,48.1a7.59,7.59,0,0,1-4.88,1.67h0L23.81,53,60.63,63.83a8,8,0,0,0,9-3.35,3,3,0,0,0,.47-1.93Z"/></svg>