<svg id="Layer_1" data-name="Layer 1" xmlns="http://www.w3.org/2000/svg" viewBox="0 0 100 100"><defs><style>.cls-1{fill:#1b3764;}.cls-2,.cls-5{fill:none;}.cls-3{fill:#3e547c;}.cls-4{fill:#4b6596;}.cls-5{stroke:#1b3764;stroke-linecap:round;stroke-miterlimit:10;stroke-width:3px;}</style></defs><path class="cls-1" d="M6.55,76.12l-3-.38A2.59,2.59,0,0,0,.66,78a2.31,2.31,0,0,0,0,.83l1.08,5.64a4.77,4.77,0,0,0,4.08,3.83l2.89.37Z"/><polygon class="cls-2" points="61.82 95.47 64.66 95.84 61.81 95.47 61.82 95.47"/><polygon class="cls-2" points="8.73 88.65 4.68 85.6 33.79 16.36 3.66 88.03 61.82 95.47 61.81 95.47 8.73 88.65"/><path class="cls-2" d="M94.79,24.17c3.9.5,5.95,3.56,4.57,6.83L74.22,90.82c-1.38,3.27-5.66,5.52-9.56,5l7.07.9,30.12-71.67Z"/><polygon class="cls-1" points="8.73 88.65 61.81 95.47 42.74 17.51 33.79 16.36 4.68 85.6 8.73 88.65"/><path class="cls-1" d="M74.22,90.82,99.37,31c1.38-3.27-.67-6.33-4.57-6.83l-52-6.66,19.06,78,2.85.37h0C68.56,96.34,72.84,94.09,74.22,90.82Z"/><path class="cls-3" d="M39,62.42,2.85,71.63,4.93,84a1,1,0,0,0,.82.79l55.14,7.06L50.5,51.45Z"/><path class="cls-4" d="M60,42.36,50.5,51.45,60.89,91.88l4,.5a5.73,5.73,0,0,0,6-3.48L95.09,31.37a7.06,7.06,0,0,0,.56-2.76V16.84Z"/><path class="cls-2" d="M96.94,18.43l2.48-5.92L39.91,4.89,92.36,11.6C96.27,12.1,98.32,15.16,96.94,18.43Z"/><path class="cls-2" d="M34.06,4.14l-2.69-.35L11.24,51.68,30.41,6.06A3.58,3.58,0,0,1,34.06,4.14Z"/><path class="cls-2" d="M92.47,29.07,71.79,78.25c-1.37,3.27-5.65,5.52-9.55,5l-4.19-.55h0l11.26,1.44Z"/><path class="cls-2" d="M8.53,76.4l-5-.66a2.7,2.7,0,0,0-1.86.47A2.66,2.66,0,0,0,.69,78v.16l5.16-2.12,52.2,6.66h0Z"/><path class="cls-1" d="M.68,78a2.66,2.66,0,0,1,1-1.81,2.7,2.7,0,0,1,1.86-.47l5,.66,50,6.4-19.65-78-4.83-.62a3.61,3.61,0,0,0-3.65,1.92L11.24,51.68,2.94,71.41h0L1.19,75.57A6.63,6.63,0,0,0,.68,78Z"/><path class="cls-3" d="M62.24,83.28c3.9.49,8.18-1.75,9.55-5L92.47,29.07l4.47-10.64c1.38-3.27-.67-6.33-4.58-6.83L39.91,4.89l-1-.13,19.67,78Z"/><line class="cls-5" x1="8.73" y1="81.22" x2="42.75" y2="85.57"/><path class="cls-1" d="M15.75,82.18,10.32,93.82a.65.65,0,0,0,.32.87.66.66,0,0,0,.55,0l3.25-1.55a1.49,1.49,0,0,1,2,.66l.92,1.75a.59.59,0,0,0,.8.25l.05,0,3-1.91a1.5,1.5,0,0,1,2.06.45h0l1.49,2.23a.6.6,0,0,0,.83.16.47.47,0,0,0,.2-.22L32.1,84.27Z"/><path class="cls-2" d="M52.31,58l-.66-2.65-.35.8C50.85,57.22,51.34,57.72,52.31,58Z"/><path class="cls-2" d="M48.25,36.69l.36-.85c.34-.79-.49-1.07-1.84-1.24l-.37,0,.71,2.83A1.21,1.21,0,0,0,48.25,36.69Z"/><path class="cls-2" d="M44.24,37.13l1.36.18a7.48,7.48,0,0,0,1.49.07l-.69-2.81-1-.12Z"/><path class="cls-2" d="M44.9,40.41,43,40.16l-1.26,3,2,.26c1.27.16,2.28.07,2.65-.79l.34-.81C47.06,40.85,46.13,40.56,44.9,40.41Z"/><polygon class="cls-2" points="39.6 22 39.95 17.25 36.44 21.6 39.6 22"/><path class="cls-4" d="M42.19,12.05l-1.49-.16,3.93,15.59.1-15C43.94,12.3,43.07,12.17,42.19,12.05Z"/><path class="cls-3" d="M39.6,11.8l-13.31,15h0c.74.14,1.71.29,2.69.41s2,.22,2.75.28l2-2.52,5.55.72-.21,2.75c.75.14,1.73.29,2.72.41s2,.23,2.78.28V27.5L40.69,11.89Zm0,10.2-3.16-.4L40,17.25Z"/><path class="cls-3" d="M45.6,37.31l-1.36-.18,1.16-2.7,1,.13-1-3.83-3.85-.49L34.88,46l8.3,1a9.84,9.84,0,0,0,6.18-.79l-2.25-8.91A7.64,7.64,0,0,1,45.6,37.31Zm1.07,4.46-.35.81c-.36.86-1.37,1-2.65.79l-2-.26,1.25-3,1.94.25C46.13,40.56,47.06,40.85,46.67,41.77Z"/><path class="cls-4" d="M51.25,44.13l.43-1c.82-1.94.09-3.1-1.7-3.77a4.42,4.42,0,0,0,3.84-2.63l.43-1c1.11-2.61-1-4-5-4.47l-3.76-.49,1,3.81.36,0c1.36.17,2.18.44,1.84,1.23l-.35.84a1.2,1.2,0,0,1-1.13.69l2.25,8.91A4.55,4.55,0,0,0,51.25,44.13Z"/><path class="cls-4" d="M57.82,62.05a16.78,16.78,0,0,0,1.09-3.53,35.71,35.71,0,0,1-4.51-.14A13.45,13.45,0,0,1,52.31,58l1,4.09A37.21,37.21,0,0,0,57.82,62.05Z"/><path class="cls-3" d="M51.3,56.16l.35-.8-2-7.83A5.39,5.39,0,0,0,48.77,49l-3.23,7.57C44.14,59.89,47,61.37,51.87,62c.43.06.93.09,1.49.12l-1-4.09C51.34,57.72,50.85,57.22,51.3,56.16Z"/><path class="cls-4" d="M53.67,50.59c.58-1.36,1.83-1.49,3.48-1.32l1.05.12a29.77,29.77,0,0,1,4.18.85,18.23,18.23,0,0,0,1.49-3.53,31.59,31.59,0,0,0-5.07-1.09,25.64,25.64,0,0,0-2.63-.2c-2.87-.07-5.14.49-6.53,2.11l2,7.83Z"/><path class="cls-3" d="M55.19,71.75a18,18,0,0,0-1.29,2.82c-.1.3-.19.58-.26.83l.5.12c.91.22,1.84.41,2.74.58l-1.05-4.21Z"/><path class="cls-4" d="M63.79,64.44c.31-.74,1.22-.67,2.55-.49A34.19,34.19,0,0,1,72,65.13a13,13,0,0,0,1.49-3.54,30.27,30.27,0,0,0-5.81-1.27c-4.33-.54-7.75.07-8.93,2.8l-.71,1.66c-1,2.48-.41,3.36.81,3.87l3.5,1.54c1.7.75,1.83.79,1.49,1.56l-.28.64c-.29.7-1.26.64-2.45.5a53.88,53.88,0,0,1-5.36-1l1.06,4.21c1,.18,2,.33,2.83.44h0c4.54.58,7.77-.11,8.9-2.8l.5-1.15.3-.72c1-2.42.45-3.25-.8-3.82l-3.48-1.61c-1.6-.77-1.79-.87-1.53-1.49Z"/></svg>