<svg id="Layer_1" data-name="Layer 1" xmlns="http://www.w3.org/2000/svg" viewBox="0 0 100 100"><defs><style>.cls-1{fill:#4b6596;}.cls-2{fill:#3e547c;}.cls-3{fill:#1b3764;}.cls-4{fill:none;stroke:#1b3764;stroke-miterlimit:10;stroke-width:10px;}</style></defs><path class="cls-1" d="M4.47,61.38h0C2.13,62.8,1.3,67.29,2.6,72.06s4.34,8.19,7.07,8.22h0l83.81-4L76,17.56Z"/><path class="cls-2" d="M2.35,71c.07.36.16.71.26,1.06,1.31,4.77,4.33,8.19,7.06,8.23h0l82.67-3.88L83.81,41.16Z"/><path class="cls-2" d="M77.8,19.31c-5.44,1.5-7.26,12.57-4.56,25.74l21.05-7.71C89.8,25.62,83,17.88,77.8,19.31Z"/><path class="cls-1" d="M73.24,45.05q.47,2.3,1.11,4.65C78.51,64.81,86.8,75.7,92.88,74s7.63-15.28,3.48-30.39c-.61-2.21-1.3-4.3-2.06-6.3Z"/><path class="cls-3" d="M97.25,43.38c.73,2.66,1.34,5.36,1.81,8.09.22,1.36.44,2.73.59,4.11s.27,2.77.32,4.18a33.34,33.34,0,0,1-.64,8.56c-.08.36-.17.72-.28,1.08l-.16.55-.19.55c-.13.36-.3.73-.45,1.09a7.73,7.73,0,0,1-.59,1.09,8.39,8.39,0,0,1-1.67,2,7.22,7.22,0,0,1-2.53,1.46,7.43,7.43,0,0,1-3,.3,11.07,11.07,0,0,1-1.4-.24c-.43-.13-.85-.27-1.26-.44s-.79-.36-1.18-.55a8.47,8.47,0,0,1-1.06-.63l-.51-.34-.48-.35a10.07,10.07,0,0,1-.93-.74,27.37,27.37,0,0,1-3.21-3.25,37.89,37.89,0,0,1-2.62-3.56,50.62,50.62,0,0,1-4.09-7.65c-.57-1.32-1.1-2.66-1.57-4S71.3,52,70.91,50.61s-.71-2.77-1-4.17-.51-2.82-.7-4.25a49.88,49.88,0,0,1-.4-8.64,36.2,36.2,0,0,1,.43-4.4,26.78,26.78,0,0,1,1.09-4.43c.13-.37.25-.74.42-1.11l.23-.55.27-.55c.16-.36.39-.73.59-1.09a8.44,8.44,0,0,1,.72-1.08,12,12,0,0,1,.87-1,8.59,8.59,0,0,1,1.07-.93,7,7,0,0,1,5.62-1.3,8.49,8.49,0,0,1,2.48.9,11.37,11.37,0,0,1,1.06.63c.31.24.65.46,1,.71l.44.37.42.39c.28.26.54.53.8.79a33.1,33.1,0,0,1,4.93,7c.67,1.23,1.26,2.49,1.87,3.75s1.09,2.56,1.6,3.84Q96.16,39.39,97.25,43.38Zm-1.83.51C95,42.6,94.65,41.31,94.21,40s-.95-2.53-1.47-3.74a45.94,45.94,0,0,0-3.8-7,30.08,30.08,0,0,0-2.35-3.16,21.52,21.52,0,0,0-2.7-2.7c-.24-.19-.48-.39-.73-.56l-.35-.24-.38-.24c-.25-.17-.5-.28-.75-.43a3.4,3.4,0,0,0-.75-.31,4.26,4.26,0,0,0-1.4-.32,2.71,2.71,0,0,0-1.13.18,3,3,0,0,0-.9.63c-.14.15-.28.32-.41.49s-.26.38-.38.58-.22.45-.33.67a4.26,4.26,0,0,0-.28.76L76,25l-.11.41c-.08.27-.14.55-.21.84a30,30,0,0,0-.46,7.33c0,1.26.17,2.53.32,3.79s.35,2.53.55,3.8c.45,2.53,1,5.06,1.7,7.55s1.49,5,2.41,7.37c.48,1.19,1,2.39,1.47,3.55s1.09,2.31,1.69,3.42a29.34,29.34,0,0,0,4.14,6.09c.2.21.4.43.6.62l.31.29.32.27c.21.2.42.34.63.51a3.52,3.52,0,0,0,.64.4c.2.11.41.22.63.32a4.1,4.1,0,0,0,.59.2,2.88,2.88,0,0,0,1.09.08,2.71,2.71,0,0,0,1.06-.42,4.27,4.27,0,0,0,1-1,6.57,6.57,0,0,0,.48-.66A3.25,3.25,0,0,0,95.3,69l.2-.39.19-.42a8,8,0,0,0,.33-.86,20.51,20.51,0,0,0,1-3.7,32,32,0,0,0,.41-3.91,47.35,47.35,0,0,0-.35-8c-.18-1.33-.39-2.65-.66-4S95.75,45.19,95.42,43.89Z"/><path class="cls-3" d="M10.37,80.38a2.87,2.87,0,0,1-1.7.5,4.82,4.82,0,0,1-1.8-.36,8.55,8.55,0,0,1-2.9-2A14.58,14.58,0,0,1,.49,65.84a8.51,8.51,0,0,1,1.45-3.23A4.85,4.85,0,0,1,3.3,61.38,3,3,0,0,1,5,60.94a.18.18,0,0,1,.16.18.21.21,0,0,1-.07.12h0A3.77,3.77,0,0,0,3.8,63.55a10.61,10.61,0,0,0-.18,2.64A26,26,0,0,0,6.48,76.6,10.81,10.81,0,0,0,8,78.77a3.79,3.79,0,0,0,2.31,1.31h0a.17.17,0,0,1,.14.19h0A.16.16,0,0,1,10.37,80.38Z"/><path class="cls-4" d="M36.17,75.16l-1,5.7A1.77,1.77,0,0,0,37.09,83l15.23-.75a3.36,3.36,0,0,0,3-2.53l1.23-5.69"/><ellipse class="cls-3" cx="56.5" cy="74.08" rx="0.76" ry="1.63" transform="translate(-29.67 109.48) rotate(-75)"/><ellipse class="cls-3" cx="36.18" cy="75.17" rx="0.76" ry="1.63" transform="translate(-45.79 90.65) rotate(-75)"/></svg>