<?xml version="1.0" encoding="utf-8"?>
<!-- Generator: Adobe Illustrator 25.4.1, SVG Export Plug-In . SVG Version: 6.00 Build 0)  -->
<svg version="1.1" id="Layer_1" xmlns="http://www.w3.org/2000/svg" xmlns:xlink="http://www.w3.org/1999/xlink" x="0px" y="0px"
	 viewBox="0 0 1155 1155" style="enable-background:new 0 0 1155 1155;" xml:space="preserve">
<style type="text/css">
	.st0{fill:#8CD5E8;}
	.st1{fill:none;}
</style>
<g transform="translate(70,70)">
	<g transform="translate(385,0) scale(0.07,0.07)">
		<g transform="">
			<path class="st0" d="M43.1-1000c157.1,0,284.5,127.4,284.5,284.5C327.6-558.4,200.2-431,43.1-431
				c-157.1,0-284.5-127.4-284.5-284.5C-241.4-872.6-114-1000,43.1-1000z"/>
		</g>
	</g>
	<g transform="translate(525,0) scale(0.07,0.07)">
		<g transform="">
			<path class="st0" d="M319-1000c157.1,0,284.5,127.4,284.5,284.5C603.4-558.4,476.1-431,319-431C161.9-431,34.5-558.4,34.5-715.5
				C34.5-872.6,161.9-1000,319-1000z"/>
		</g>
	</g>
	<g transform="translate(665,0) scale(0.07,0.07)">
		<g transform="">
			<path class="st0" d="M594.8-1000c157.1,0,284.5,127.4,284.5,284.5c0,157.1-127.4,284.5-284.5,284.5
				c-157.1,0-284.5-127.4-284.5-284.5C310.3-872.6,437.7-1000,594.8-1000z"/>
		</g>
	</g>
	<g transform="translate(350,35) scale(0.07,0.07)">
		<g transform="">
			<path class="st0" d="M-25.9-931c157.1,0,284.5,127.4,284.5,284.5c0,157.1-127.4,284.5-284.5,284.5
				c-157.1,0-284.5-127.4-284.5-284.5C-310.3-803.7-183-931-25.9-931z"/>
		</g>
	</g>
	<g transform="translate(455,35) scale(0.07,0.07)">
		<g transform="">
			<path class="st0" d="M181-931c157.1,0,284.5,127.4,284.5,284.5c0,157.1-127.4,284.5-284.5,284.5
				c-157.1,0-284.5-127.4-284.5-284.5C-103.4-803.7,23.9-931,181-931z"/>
		</g>
	</g>
	<g transform="translate(525,35) scale(0.07,0.07)">
		<g transform="">
			<path class="st0" d="M319-931c157.1,0,284.5,127.4,284.5,284.5c0,157.1-127.4,284.5-284.5,284.5
				c-157.1,0-284.5-127.4-284.5-284.5C34.5-803.7,161.9-931,319-931z"/>
		</g>
	</g>
	<g transform="translate(560,35) scale(0.07,0.07)">
		<g transform="">
			<path class="st0" d="M387.9-931c157.1,0,284.5,127.4,284.5,284.5c0,157.1-127.4,284.5-284.5,284.5
				c-157.1,0-284.5-127.4-284.5-284.5C103.4-803.7,230.8-931,387.9-931z"/>
		</g>
	</g>
	<g transform="translate(700,35) scale(0.07,0.07)">
		<g transform="">
			<path class="st0" d="M663.8-931c157.1,0,284.5,127.4,284.5,284.5c0,157.1-127.4,284.5-284.5,284.5
				c-157.1,0-284.5-127.4-284.5-284.5C379.3-803.7,506.7-931,663.8-931z"/>
		</g>
	</g>
	<g transform="translate(315,70) scale(0.07,0.07)">
		<g transform="">
			<path class="st0" d="M-94.8-862.1c157.1,0,284.5,127.4,284.5,284.5c0,157.1-127.4,284.5-284.5,284.5
				c-157.1,0-284.5-127.4-284.5-284.5C-379.3-734.7-251.9-862.1-94.8-862.1z"/>
		</g>
	</g>
	<g transform="translate(350,70) scale(0.07,0.07)">
		<g transform="">
			<path class="st0" d="M-25.9-862.1c157.1,0,284.5,127.4,284.5,284.5c0,157.1-127.4,284.5-284.5,284.5
				c-157.1,0-284.5-127.4-284.5-284.5C-310.3-734.7-183-862.1-25.9-862.1z"/>
		</g>
	</g>
	<g transform="translate(385,70) scale(0.07,0.07)">
		<g transform="">
			<path class="st0" d="M43.1-862.1c157.1,0,284.5,127.4,284.5,284.5c0,157.1-127.4,284.5-284.5,284.5
				c-157.1,0-284.5-127.4-284.5-284.5C-241.4-734.7-114-862.1,43.1-862.1z"/>
		</g>
	</g>
	<g transform="translate(420,70) scale(0.07,0.07)">
		<g transform="">
			<path class="st0" d="M112.1-862.1c157.1,0,284.5,127.4,284.5,284.5c0,157.1-127.4,284.5-284.5,284.5
				c-157.1,0-284.5-127.4-284.5-284.5C-172.4-734.7-45-862.1,112.1-862.1z"/>
		</g>
	</g>
	<g transform="translate(560,70) scale(0.07,0.07)">
		<g transform="">
			<path class="st0" d="M387.9-862.1c157.1,0,284.5,127.4,284.5,284.5c0,157.1-127.4,284.5-284.5,284.5
				c-157.1,0-284.5-127.4-284.5-284.5C103.4-734.7,230.8-862.1,387.9-862.1z"/>
		</g>
	</g>
	<g transform="translate(595,70) scale(0.07,0.07)">
		<g transform="">
			<path class="st0" d="M456.9-862.1c157.1,0,284.5,127.4,284.5,284.5c0,157.1-127.4,284.5-284.5,284.5
				c-157.1,0-284.5-127.4-284.5-284.5C172.4-734.7,299.8-862.1,456.9-862.1z"/>
		</g>
	</g>
	<g transform="translate(630,70) scale(0.07,0.07)">
		<g transform="">
			<path class="st0" d="M525.9-862.1c157.1,0,284.5,127.4,284.5,284.5c0,157.1-127.4,284.5-284.5,284.5
				c-157.1,0-284.5-127.4-284.5-284.5C241.4-734.7,368.7-862.1,525.9-862.1z"/>
		</g>
	</g>
	<g transform="translate(665,70) scale(0.07,0.07)">
		<g transform="">
			<path class="st0" d="M594.8-862.1c157.1,0,284.5,127.4,284.5,284.5c0,157.1-127.4,284.5-284.5,284.5
				c-157.1,0-284.5-127.4-284.5-284.5C310.3-734.7,437.7-862.1,594.8-862.1z"/>
		</g>
	</g>
	<g transform="translate(700,70) scale(0.07,0.07)">
		<g transform="">
			<path class="st0" d="M663.8-862.1c157.1,0,284.5,127.4,284.5,284.5c0,157.1-127.4,284.5-284.5,284.5
				c-157.1,0-284.5-127.4-284.5-284.5C379.3-734.7,506.7-862.1,663.8-862.1z"/>
		</g>
	</g>
	<g transform="translate(350,105) scale(0.07,0.07)">
		<g transform="">
			<path class="st0" d="M-25.9-793.1c157.1,0,284.5,127.4,284.5,284.5c0,157.1-127.4,284.5-284.5,284.5
				c-157.1,0-284.5-127.4-284.5-284.5C-310.3-665.7-183-793.1-25.9-793.1z"/>
		</g>
	</g>
	<g transform="translate(385,105) scale(0.07,0.07)">
		<g transform="">
			<path class="st0" d="M43.1-793.1c157.1,0,284.5,127.4,284.5,284.5c0,157.1-127.4,284.5-284.5,284.5
				c-157.1,0-284.5-127.4-284.5-284.5C-241.4-665.7-114-793.1,43.1-793.1z"/>
		</g>
	</g>
	<g transform="translate(420,105) scale(0.07,0.07)">
		<g transform="">
			<path class="st0" d="M112.1-793.1c157.1,0,284.5,127.4,284.5,284.5c0,157.1-127.4,284.5-284.5,284.5
				c-157.1,0-284.5-127.4-284.5-284.5C-172.4-665.7-45-793.1,112.1-793.1z"/>
		</g>
	</g>
	<g transform="translate(490,105) scale(0.07,0.07)">
		<g transform="">
			<path class="st0" d="M250-793.1c157.1,0,284.5,127.4,284.5,284.5c0,157.1-127.4,284.5-284.5,284.5
				c-157.1,0-284.5-127.4-284.5-284.5C-34.5-665.7,92.9-793.1,250-793.1z"/>
		</g>
	</g>
	<g transform="translate(525,105) scale(0.07,0.07)">
		<g transform="">
			<path class="st0" d="M319-793.1c157.1,0,284.5,127.4,284.5,284.5c0,157.1-127.4,284.5-284.5,284.5
				c-157.1,0-284.5-127.4-284.5-284.5C34.5-665.7,161.9-793.1,319-793.1z"/>
		</g>
	</g>
	<g transform="translate(560,105) scale(0.07,0.07)">
		<g transform="">
			<path class="st0" d="M387.9-793.1c157.1,0,284.5,127.4,284.5,284.5c0,157.1-127.4,284.5-284.5,284.5
				c-157.1,0-284.5-127.4-284.5-284.5C103.4-665.7,230.8-793.1,387.9-793.1z"/>
		</g>
	</g>
	<g transform="translate(630,105) scale(0.07,0.07)">
		<g transform="">
			<path class="st0" d="M525.9-793.1c157.1,0,284.5,127.4,284.5,284.5c0,157.1-127.4,284.5-284.5,284.5
				c-157.1,0-284.5-127.4-284.5-284.5C241.4-665.7,368.7-793.1,525.9-793.1z"/>
		</g>
	</g>
	<g transform="translate(385,140) scale(0.07,0.07)">
		<g transform="">
			<path class="st0" d="M43.1-724.1c157.1,0,284.5,127.4,284.5,284.5c0,157.1-127.4,284.5-284.5,284.5
				c-157.1,0-284.5-127.4-284.5-284.5C-241.4-596.8-114-724.1,43.1-724.1z"/>
		</g>
	</g>
	<g transform="translate(455,140) scale(0.07,0.07)">
		<g transform="">
			<path class="st0" d="M181-724.1c157.1,0,284.5,127.4,284.5,284.5c0,157.1-127.4,284.5-284.5,284.5
				c-157.1,0-284.5-127.4-284.5-284.5C-103.4-596.8,23.9-724.1,181-724.1z"/>
		</g>
	</g>
	<g transform="translate(490,140) scale(0.07,0.07)">
		<g transform="">
			<path class="st0" d="M250-724.1c157.1,0,284.5,127.4,284.5,284.5c0,157.1-127.4,284.5-284.5,284.5
				c-157.1,0-284.5-127.4-284.5-284.5C-34.5-596.8,92.9-724.1,250-724.1z"/>
		</g>
	</g>
	<g transform="translate(560,140) scale(0.07,0.07)">
		<g transform="">
			<path class="st0" d="M387.9-724.1c157.1,0,284.5,127.4,284.5,284.5c0,157.1-127.4,284.5-284.5,284.5
				c-157.1,0-284.5-127.4-284.5-284.5C103.4-596.8,230.8-724.1,387.9-724.1z"/>
		</g>
	</g>
	<g transform="translate(630,140) scale(0.07,0.07)">
		<g transform="">
			<path class="st0" d="M525.9-724.1c157.1,0,284.5,127.4,284.5,284.5c0,157.1-127.4,284.5-284.5,284.5
				c-157.1,0-284.5-127.4-284.5-284.5C241.4-596.8,368.7-724.1,525.9-724.1z"/>
		</g>
	</g>
	<g transform="translate(280,175) scale(0.07,0.07)">
		<g transform="">
			<path class="st0" d="M-163.8-655.2c157.1,0,284.5,127.4,284.5,284.5c0,157.1-127.4,284.5-284.5,284.5
				c-157.1,0-284.5-127.4-284.5-284.5C-448.3-527.8-320.9-655.2-163.8-655.2z"/>
		</g>
	</g>
	<g transform="translate(315,175) scale(0.07,0.07)">
		<g transform="">
			<path class="st0" d="M-94.8-655.2c157.1,0,284.5,127.4,284.5,284.5c0,157.1-127.4,284.5-284.5,284.5
				c-157.1,0-284.5-127.4-284.5-284.5C-379.3-527.8-251.9-655.2-94.8-655.2z"/>
		</g>
	</g>
	<g transform="translate(350,175) scale(0.07,0.07)">
		<g transform="">
			<path class="st0" d="M-25.9-655.2c157.1,0,284.5,127.4,284.5,284.5c0,157.1-127.4,284.5-284.5,284.5
				c-157.1,0-284.5-127.4-284.5-284.5C-310.3-527.8-183-655.2-25.9-655.2z"/>
		</g>
	</g>
	<g transform="translate(420,175) scale(0.07,0.07)">
		<g transform="">
			<path class="st0" d="M112.1-655.2c157.1,0,284.5,127.4,284.5,284.5c0,157.1-127.4,284.5-284.5,284.5
				c-157.1,0-284.5-127.4-284.5-284.5C-172.4-527.8-45-655.2,112.1-655.2z"/>
		</g>
	</g>
	<g transform="translate(455,175) scale(0.07,0.07)">
		<g transform="">
			<path class="st0" d="M181-655.2c157.1,0,284.5,127.4,284.5,284.5c0,157.1-127.4,284.5-284.5,284.5
				c-157.1,0-284.5-127.4-284.5-284.5C-103.4-527.8,23.9-655.2,181-655.2z"/>
		</g>
	</g>
	<g transform="translate(525,175) scale(0.07,0.07)">
		<g transform="">
			<path class="st0" d="M319-655.2c157.1,0,284.5,127.4,284.5,284.5c0,157.1-127.4,284.5-284.5,284.5
				c-157.1,0-284.5-127.4-284.5-284.5C34.5-527.8,161.9-655.2,319-655.2z"/>
		</g>
	</g>
	<g transform="translate(595,175) scale(0.07,0.07)">
		<g transform="">
			<path class="st0" d="M456.9-655.2c157.1,0,284.5,127.4,284.5,284.5c0,157.1-127.4,284.5-284.5,284.5
				c-157.1,0-284.5-127.4-284.5-284.5C172.4-527.8,299.8-655.2,456.9-655.2z"/>
		</g>
	</g>
	<g transform="translate(630,175) scale(0.07,0.07)">
		<g transform="">
			<path class="st0" d="M525.9-655.2c157.1,0,284.5,127.4,284.5,284.5c0,157.1-127.4,284.5-284.5,284.5
				c-157.1,0-284.5-127.4-284.5-284.5C241.4-527.8,368.7-655.2,525.9-655.2z"/>
		</g>
	</g>
	<g transform="translate(665,175) scale(0.07,0.07)">
		<g transform="">
			<path class="st0" d="M594.8-655.2c157.1,0,284.5,127.4,284.5,284.5c0,157.1-127.4,284.5-284.5,284.5
				c-157.1,0-284.5-127.4-284.5-284.5C310.3-527.8,437.7-655.2,594.8-655.2z"/>
		</g>
	</g>
	<g transform="translate(700,175) scale(0.07,0.07)">
		<g transform="">
			<path class="st0" d="M663.8-655.2c157.1,0,284.5,127.4,284.5,284.5c0,157.1-127.4,284.5-284.5,284.5
				c-157.1,0-284.5-127.4-284.5-284.5C379.3-527.8,506.7-655.2,663.8-655.2z"/>
		</g>
	</g>
	<g transform="translate(280,210) scale(0.07,0.07)">
		<g transform="">
			<path class="st0" d="M-163.8-586.2c157.1,0,284.5,127.4,284.5,284.5c0,157.1-127.4,284.5-284.5,284.5
				c-157.1,0-284.5-127.4-284.5-284.5C-448.3-458.8-320.9-586.2-163.8-586.2z"/>
		</g>
	</g>
	<g transform="translate(350,210) scale(0.07,0.07)">
		<g transform="">
			<path class="st0" d="M-25.9-586.2c157.1,0,284.5,127.4,284.5,284.5c0,157.1-127.4,284.5-284.5,284.5
				c-157.1,0-284.5-127.4-284.5-284.5C-310.3-458.8-183-586.2-25.9-586.2z"/>
		</g>
	</g>
	<g transform="translate(420,210) scale(0.07,0.07)">
		<g transform="">
			<path class="st0" d="M112.1-586.2c157.1,0,284.5,127.4,284.5,284.5c0,157.1-127.4,284.5-284.5,284.5
				c-157.1,0-284.5-127.4-284.5-284.5C-172.4-458.8-45-586.2,112.1-586.2z"/>
		</g>
	</g>
	<g transform="translate(490,210) scale(0.07,0.07)">
		<g transform="">
			<path class="st0" d="M250-586.2c157.1,0,284.5,127.4,284.5,284.5c0,157.1-127.4,284.5-284.5,284.5
				C92.9-17.2-34.5-144.6-34.5-301.7C-34.5-458.8,92.9-586.2,250-586.2z"/>
		</g>
	</g>
	<g transform="translate(560,210) scale(0.07,0.07)">
		<g transform="">
			<path class="st0" d="M387.9-586.2c157.1,0,284.5,127.4,284.5,284.5c0,157.1-127.4,284.5-284.5,284.5
				c-157.1,0-284.5-127.4-284.5-284.5C103.4-458.8,230.8-586.2,387.9-586.2z"/>
		</g>
	</g>
	<g transform="translate(630,210) scale(0.07,0.07)">
		<g transform="">
			<path class="st0" d="M525.9-586.2c157.1,0,284.5,127.4,284.5,284.5c0,157.1-127.4,284.5-284.5,284.5
				c-157.1,0-284.5-127.4-284.5-284.5C241.4-458.8,368.7-586.2,525.9-586.2z"/>
		</g>
	</g>
	<g transform="translate(700,210) scale(0.07,0.07)">
		<g transform="">
			<path class="st0" d="M663.8-586.2c157.1,0,284.5,127.4,284.5,284.5c0,157.1-127.4,284.5-284.5,284.5
				c-157.1,0-284.5-127.4-284.5-284.5C379.3-458.8,506.7-586.2,663.8-586.2z"/>
		</g>
	</g>
	<g transform="translate(350,245) scale(0.07,0.07)">
		<g transform="">
			<path class="st0" d="M-25.9-517.2c157.1,0,284.5,127.4,284.5,284.5c0,157.1-127.4,284.5-284.5,284.5
				c-157.1,0-284.5-127.4-284.5-284.5C-310.3-389.9-183-517.2-25.9-517.2z"/>
		</g>
	</g>
	<g transform="translate(420,245) scale(0.07,0.07)">
		<g transform="">
			<path class="st0" d="M112.1-517.2c157.1,0,284.5,127.4,284.5,284.5c0,157.1-127.4,284.5-284.5,284.5
				C-45,51.7-172.4-75.6-172.4-232.8C-172.4-389.9-45-517.2,112.1-517.2z"/>
		</g>
	</g>
	<g transform="translate(490,245) scale(0.07,0.07)">
		<g transform="">
			<path class="st0" d="M250-517.2c157.1,0,284.5,127.4,284.5,284.5C534.5-75.6,407.1,51.7,250,51.7C92.9,51.7-34.5-75.6-34.5-232.8
				C-34.5-389.9,92.9-517.2,250-517.2z"/>
		</g>
	</g>
	<g transform="translate(560,245) scale(0.07,0.07)">
		<g transform="">
			<path class="st0" d="M387.9-517.2c157.1,0,284.5,127.4,284.5,284.5c0,157.1-127.4,284.5-284.5,284.5
				c-157.1,0-284.5-127.4-284.5-284.5C103.4-389.9,230.8-517.2,387.9-517.2z"/>
		</g>
	</g>
	<g transform="translate(595,245) scale(0.07,0.07)">
		<g transform="">
			<path class="st0" d="M456.9-517.2c157.1,0,284.5,127.4,284.5,284.5C741.4-75.6,614,51.7,456.9,51.7
				c-157.1,0-284.5-127.4-284.5-284.5C172.4-389.9,299.8-517.2,456.9-517.2z"/>
		</g>
	</g>
	<g transform="translate(630,245) scale(0.07,0.07)">
		<g transform="">
			<path class="st0" d="M525.9-517.2c157.1,0,284.5,127.4,284.5,284.5C810.3-75.6,683,51.7,525.9,51.7
				c-157.1,0-284.5-127.4-284.5-284.5C241.4-389.9,368.7-517.2,525.9-517.2z"/>
		</g>
	</g>
	<g transform="translate(665,245) scale(0.07,0.07)">
		<g transform="">
			<path class="st0" d="M594.8-517.2c157.1,0,284.5,127.4,284.5,284.5c0,157.1-127.4,284.5-284.5,284.5
				c-157.1,0-284.5-127.4-284.5-284.5C310.3-389.9,437.7-517.2,594.8-517.2z"/>
		</g>
	</g>
	<g transform="translate(700,245) scale(0.07,0.07)">
		<g transform="">
			<path class="st0" d="M663.8-517.2c157.1,0,284.5,127.4,284.5,284.5c0,157.1-127.4,284.5-284.5,284.5
				c-157.1,0-284.5-127.4-284.5-284.5C379.3-389.9,506.7-517.2,663.8-517.2z"/>
		</g>
	</g>
	<g transform="translate(0,280) scale(0.07,0.07)">
		<g transform="">
			<path class="st0" d="M-715.5-448.3c157.1,0,284.5,127.4,284.5,284.5c0,157.1-127.4,284.5-284.5,284.5
				c-157.1,0-284.5-127.4-284.5-284.5C-1000-320.9-872.6-448.3-715.5-448.3z"/>
		</g>
	</g>
	<g transform="translate(105,280) scale(0.07,0.07)">
		<g transform="">
			<path class="st0" d="M-508.6-448.3c157.1,0,284.5,127.4,284.5,284.5c0,157.1-127.4,284.5-284.5,284.5
				c-157.1,0-284.5-127.4-284.5-284.5C-793.1-320.9-665.7-448.3-508.6-448.3z"/>
		</g>
	</g>
	<g transform="translate(175,280) scale(0.07,0.07)">
		<g transform="">
			<path class="st0" d="M-370.7-448.3c157.1,0,284.5,127.4,284.5,284.5c0,157.1-127.4,284.5-284.5,284.5
				c-157.1,0-284.5-127.4-284.5-284.5C-655.2-320.9-527.8-448.3-370.7-448.3z"/>
		</g>
	</g>
	<g transform="translate(210,280) scale(0.07,0.07)">
		<g transform="">
			<path class="st0" d="M-301.7-448.3c157.1,0,284.5,127.4,284.5,284.5c0,157.1-127.4,284.5-284.5,284.5
				c-157.1,0-284.5-127.4-284.5-284.5C-586.2-320.9-458.8-448.3-301.7-448.3z"/>
		</g>
	</g>
	<g transform="translate(280,280) scale(0.07,0.07)">
		<g transform="">
			<path class="st0" d="M-163.8-448.3c157.1,0,284.5,127.4,284.5,284.5c0,157.1-127.4,284.5-284.5,284.5
				c-157.1,0-284.5-127.4-284.5-284.5C-448.3-320.9-320.9-448.3-163.8-448.3z"/>
		</g>
	</g>
	<g transform="translate(385,280) scale(0.07,0.07)">
		<g transform="">
			<path class="st0" d="M43.1-448.3c157.1,0,284.5,127.4,284.5,284.5c0,157.1-127.4,284.5-284.5,284.5
				c-157.1,0-284.5-127.4-284.5-284.5C-241.4-320.9-114-448.3,43.1-448.3z"/>
		</g>
	</g>
	<g transform="translate(420,280) scale(0.07,0.07)">
		<g transform="">
			<path class="st0" d="M112.1-448.3c157.1,0,284.5,127.4,284.5,284.5c0,157.1-127.4,284.5-284.5,284.5
				C-45,120.7-172.4-6.7-172.4-163.8C-172.4-320.9-45-448.3,112.1-448.3z"/>
		</g>
	</g>
	<g transform="translate(455,280) scale(0.07,0.07)">
		<g transform="">
			<path class="st0" d="M181-448.3c157.1,0,284.5,127.4,284.5,284.5c0,157.1-127.4,284.5-284.5,284.5
				c-157.1,0-284.5-127.4-284.5-284.5C-103.4-320.9,23.9-448.3,181-448.3z"/>
		</g>
	</g>
	<g transform="translate(490,280) scale(0.07,0.07)">
		<g transform="">
			<path class="st0" d="M250-448.3c157.1,0,284.5,127.4,284.5,284.5c0,157.1-127.4,284.5-284.5,284.5
				C92.9,120.7-34.5-6.7-34.5-163.8C-34.5-320.9,92.9-448.3,250-448.3z"/>
		</g>
	</g>
	<g transform="translate(630,280) scale(0.07,0.07)">
		<g transform="">
			<path class="st0" d="M525.9-448.3c157.1,0,284.5,127.4,284.5,284.5c0,157.1-127.4,284.5-284.5,284.5
				c-157.1,0-284.5-127.4-284.5-284.5C241.4-320.9,368.7-448.3,525.9-448.3z"/>
		</g>
	</g>
	<g transform="translate(665,280) scale(0.07,0.07)">
		<g transform="">
			<path class="st0" d="M594.8-448.3c157.1,0,284.5,127.4,284.5,284.5c0,157.1-127.4,284.5-284.5,284.5
				c-157.1,0-284.5-127.4-284.5-284.5C310.3-320.9,437.7-448.3,594.8-448.3z"/>
		</g>
	</g>
	<g transform="translate(735,280) scale(0.07,0.07)">
		<g transform="">
			<path class="st0" d="M732.8-448.3c157.1,0,284.5,127.4,284.5,284.5c0,157.1-127.4,284.5-284.5,284.5
				c-157.1,0-284.5-127.4-284.5-284.5C448.3-320.9,575.6-448.3,732.8-448.3z"/>
		</g>
	</g>
	<g transform="translate(805,280) scale(0.07,0.07)">
		<g transform="">
			<path class="st0" d="M870.7-448.3c157.1,0,284.5,127.4,284.5,284.5c0,157.1-127.4,284.5-284.5,284.5
				c-157.1,0-284.5-127.4-284.5-284.5C586.2-320.9,713.6-448.3,870.7-448.3z"/>
		</g>
	</g>
	<g transform="translate(70,315) scale(0.07,0.07)">
		<g transform="">
			<path class="st0" d="M-577.6-379.3c157.1,0,284.5,127.4,284.5,284.5c0,157.1-127.4,284.5-284.5,284.5
				c-157.1,0-284.5-127.4-284.5-284.5C-862.1-251.9-734.7-379.3-577.6-379.3z"/>
		</g>
	</g>
	<g transform="translate(315,315) scale(0.07,0.07)">
		<g transform="">
			<path class="st0" d="M-94.8-379.3c157.1,0,284.5,127.4,284.5,284.5c0,157.1-127.4,284.5-284.5,284.5
				c-157.1,0-284.5-127.4-284.5-284.5C-379.3-251.9-251.9-379.3-94.8-379.3z"/>
		</g>
	</g>
	<g transform="translate(350,315) scale(0.07,0.07)">
		<g transform="">
			<path class="st0" d="M-25.9-379.3c157.1,0,284.5,127.4,284.5,284.5c0,157.1-127.4,284.5-284.5,284.5
				c-157.1,0-284.5-127.4-284.5-284.5C-310.3-251.9-183-379.3-25.9-379.3z"/>
		</g>
	</g>
	<g transform="translate(420,315) scale(0.07,0.07)">
		<g transform="">
			<path class="st0" d="M112.1-379.3c157.1,0,284.5,127.4,284.5,284.5c0,157.1-127.4,284.5-284.5,284.5
				C-45,189.7-172.4,62.3-172.4-94.8C-172.4-251.9-45-379.3,112.1-379.3z"/>
		</g>
	</g>
	<g transform="translate(455,315) scale(0.07,0.07)">
		<g transform="">
			<path class="st0" d="M181-379.3c157.1,0,284.5,127.4,284.5,284.5c0,157.1-127.4,284.5-284.5,284.5
				c-157.1,0-284.5-127.4-284.5-284.5C-103.4-251.9,23.9-379.3,181-379.3z"/>
		</g>
	</g>
	<g transform="translate(490,315) scale(0.07,0.07)">
		<g transform="">
			<path class="st0" d="M250-379.3c157.1,0,284.5,127.4,284.5,284.5c0,157.1-127.4,284.5-284.5,284.5
				C92.9,189.7-34.5,62.3-34.5-94.8C-34.5-251.9,92.9-379.3,250-379.3z"/>
		</g>
	</g>
	<g transform="translate(735,315) scale(0.07,0.07)">
		<g transform="">
			<path class="st0" d="M732.8-379.3c157.1,0,284.5,127.4,284.5,284.5c0,157.1-127.4,284.5-284.5,284.5
				c-157.1,0-284.5-127.4-284.5-284.5C448.3-251.9,575.6-379.3,732.8-379.3z"/>
		</g>
	</g>
	<g transform="translate(770,315) scale(0.07,0.07)">
		<g transform="">
			<path class="st0" d="M801.7-379.3c157.1,0,284.5,127.4,284.5,284.5c0,157.1-127.4,284.5-284.5,284.5
				c-157.1,0-284.5-127.4-284.5-284.5C517.2-251.9,644.6-379.3,801.7-379.3z"/>
		</g>
	</g>
	<g transform="translate(875,315) scale(0.07,0.07)">
		<g transform="">
			<path class="st0" d="M1008.6-379.3c157.1,0,284.5,127.4,284.5,284.5c0,157.1-127.4,284.5-284.5,284.5
				c-157.1,0-284.5-127.4-284.5-284.5C724.1-251.9,851.5-379.3,1008.6-379.3z"/>
		</g>
	</g>
	<g transform="translate(980,315) scale(0.07,0.07)">
		<g transform="">
			<path class="st0" d="M1215.5-379.3c157.1,0,284.5,127.4,284.5,284.5c0,157.1-127.4,284.5-284.5,284.5
				C1058.4,189.7,931,62.3,931-94.8C931-251.9,1058.4-379.3,1215.5-379.3z"/>
		</g>
	</g>
	<g transform="translate(175,350) scale(0.07,0.07)">
		<g transform="">
			<path class="st0" d="M-370.7-310.3c157.1,0,284.5,127.4,284.5,284.5c0,157.1-127.4,284.5-284.5,284.5
				c-157.1,0-284.5-127.4-284.5-284.5C-655.2-183-527.8-310.3-370.7-310.3z"/>
		</g>
	</g>
	<g transform="translate(210,350) scale(0.07,0.07)">
		<g transform="">
			<path class="st0" d="M-301.7-310.3c157.1,0,284.5,127.4,284.5,284.5c0,157.1-127.4,284.5-284.5,284.5
				c-157.1,0-284.5-127.4-284.5-284.5C-586.2-183-458.8-310.3-301.7-310.3z"/>
		</g>
	</g>
	<g transform="translate(245,350) scale(0.07,0.07)">
		<g transform="">
			<path class="st0" d="M-232.8-310.3C-75.6-310.3,51.7-183,51.7-25.9c0,157.1-127.4,284.5-284.5,284.5
				c-157.1,0-284.5-127.4-284.5-284.5C-517.2-183-389.9-310.3-232.8-310.3z"/>
		</g>
	</g>
	<g transform="translate(315,350) scale(0.07,0.07)">
		<g transform="">
			<path class="st0" d="M-94.8-310.3c157.1,0,284.5,127.4,284.5,284.5c0,157.1-127.4,284.5-284.5,284.5
				c-157.1,0-284.5-127.4-284.5-284.5C-379.3-183-251.9-310.3-94.8-310.3z"/>
		</g>
	</g>
	<g transform="translate(385,350) scale(0.07,0.07)">
		<g transform="">
			<path class="st0" d="M43.1-310.3c157.1,0,284.5,127.4,284.5,284.5c0,157.1-127.4,284.5-284.5,284.5
				c-157.1,0-284.5-127.4-284.5-284.5C-241.4-183-114-310.3,43.1-310.3z"/>
		</g>
	</g>
	<g transform="translate(595,350) scale(0.07,0.07)">
		<g transform="">
			<path class="st0" d="M456.9-310.3C614-310.3,741.4-183,741.4-25.9c0,157.1-127.4,284.5-284.5,284.5
				c-157.1,0-284.5-127.4-284.5-284.5C172.4-183,299.8-310.3,456.9-310.3z"/>
		</g>
	</g>
	<g transform="translate(665,350) scale(0.07,0.07)">
		<g transform="">
			<path class="st0" d="M594.8-310.3c157.1,0,284.5,127.4,284.5,284.5c0,157.1-127.4,284.5-284.5,284.5
				c-157.1,0-284.5-127.4-284.5-284.5C310.3-183,437.7-310.3,594.8-310.3z"/>
		</g>
	</g>
	<g transform="translate(735,350) scale(0.07,0.07)">
		<g transform="">
			<path class="st0" d="M732.8-310.3c157.1,0,284.5,127.4,284.5,284.5c0,157.1-127.4,284.5-284.5,284.5
				c-157.1,0-284.5-127.4-284.5-284.5C448.3-183,575.6-310.3,732.8-310.3z"/>
		</g>
	</g>
	<g transform="translate(770,350) scale(0.07,0.07)">
		<g transform="">
			<path class="st0" d="M801.7-310.3c157.1,0,284.5,127.4,284.5,284.5c0,157.1-127.4,284.5-284.5,284.5
				c-157.1,0-284.5-127.4-284.5-284.5C517.2-183,644.6-310.3,801.7-310.3z"/>
		</g>
	</g>
	<g transform="translate(805,350) scale(0.07,0.07)">
		<g transform="">
			<path class="st0" d="M870.7-310.3c157.1,0,284.5,127.4,284.5,284.5c0,157.1-127.4,284.5-284.5,284.5
				c-157.1,0-284.5-127.4-284.5-284.5C586.2-183,713.6-310.3,870.7-310.3z"/>
		</g>
	</g>
	<g transform="translate(840,350) scale(0.07,0.07)">
		<g transform="">
			<path class="st0" d="M939.7-310.3c157.1,0,284.5,127.4,284.5,284.5c0,157.1-127.4,284.5-284.5,284.5
				c-157.1,0-284.5-127.4-284.5-284.5C655.2-183,782.5-310.3,939.7-310.3z"/>
		</g>
	</g>
	<g transform="translate(875,350) scale(0.07,0.07)">
		<g transform="">
			<path class="st0" d="M1008.6-310.3c157.1,0,284.5,127.4,284.5,284.5c0,157.1-127.4,284.5-284.5,284.5
				c-157.1,0-284.5-127.4-284.5-284.5C724.1-183,851.5-310.3,1008.6-310.3z"/>
		</g>
	</g>
	<g transform="translate(910,350) scale(0.07,0.07)">
		<g transform="">
			<path class="st0" d="M1077.6-310.3c157.1,0,284.5,127.4,284.5,284.5c0,157.1-127.4,284.5-284.5,284.5
				c-157.1,0-284.5-127.4-284.5-284.5C793.1-183,920.5-310.3,1077.6-310.3z"/>
		</g>
	</g>
	<g transform="translate(945,350) scale(0.07,0.07)">
		<g transform="">
			<path class="st0" d="M1146.6-310.3c157.1,0,284.5,127.4,284.5,284.5c0,157.1-127.4,284.5-284.5,284.5
				c-157.1,0-284.5-127.4-284.5-284.5C862.1-183,989.4-310.3,1146.6-310.3z"/>
		</g>
	</g>
	<g transform="translate(140,385) scale(0.07,0.07)">
		<g transform="">
			<path class="st0" d="M-439.7-241.4c157.1,0,284.5,127.4,284.5,284.5c0,157.1-127.4,284.5-284.5,284.5
				c-157.1,0-284.5-127.4-284.5-284.5C-724.1-114-596.8-241.4-439.7-241.4z"/>
		</g>
	</g>
	<g transform="translate(280,385) scale(0.07,0.07)">
		<g transform="">
			<path class="st0" d="M-163.8-241.4c157.1,0,284.5,127.4,284.5,284.5c0,157.1-127.4,284.5-284.5,284.5
				c-157.1,0-284.5-127.4-284.5-284.5C-448.3-114-320.9-241.4-163.8-241.4z"/>
		</g>
	</g>
	<g transform="translate(315,385) scale(0.07,0.07)">
		<g transform="">
			<path class="st0" d="M-94.8-241.4c157.1,0,284.5,127.4,284.5,284.5c0,157.1-127.4,284.5-284.5,284.5
				c-157.1,0-284.5-127.4-284.5-284.5C-379.3-114-251.9-241.4-94.8-241.4z"/>
		</g>
	</g>
	<g transform="translate(350,385) scale(0.07,0.07)">
		<g transform="">
			<path class="st0" d="M-25.9-241.4c157.1,0,284.5,127.4,284.5,284.5c0,157.1-127.4,284.5-284.5,284.5
				c-157.1,0-284.5-127.4-284.5-284.5C-310.3-114-183-241.4-25.9-241.4z"/>
		</g>
	</g>
	<g transform="translate(385,385) scale(0.07,0.07)">
		<g transform="">
			<path class="st0" d="M43.1-241.4c157.1,0,284.5,127.4,284.5,284.5c0,157.1-127.4,284.5-284.5,284.5
				c-157.1,0-284.5-127.4-284.5-284.5C-241.4-114-114-241.4,43.1-241.4z"/>
		</g>
	</g>
	<g transform="translate(420,385) scale(0.07,0.07)">
		<g transform="">
			<path class="st0" d="M112.1-241.4c157.1,0,284.5,127.4,284.5,284.5c0,157.1-127.4,284.5-284.5,284.5
				c-157.1,0-284.5-127.4-284.5-284.5C-172.4-114-45-241.4,112.1-241.4z"/>
		</g>
	</g>
	<g transform="translate(455,385) scale(0.07,0.07)">
		<g transform="">
			<path class="st0" d="M181-241.4c157.1,0,284.5,127.4,284.5,284.5c0,157.1-127.4,284.5-284.5,284.5
				c-157.1,0-284.5-127.4-284.5-284.5C-103.4-114,23.9-241.4,181-241.4z"/>
		</g>
	</g>
	<g transform="translate(490,385) scale(0.07,0.07)">
		<g transform="">
			<path class="st0" d="M250-241.4c157.1,0,284.5,127.4,284.5,284.5c0,157.1-127.4,284.5-284.5,284.5
				C92.9,327.6-34.5,200.2-34.5,43.1C-34.5-114,92.9-241.4,250-241.4z"/>
		</g>
	</g>
	<g transform="translate(525,385) scale(0.07,0.07)">
		<g transform="">
			<path class="st0" d="M319-241.4c157.1,0,284.5,127.4,284.5,284.5c0,157.1-127.4,284.5-284.5,284.5
				c-157.1,0-284.5-127.4-284.5-284.5C34.5-114,161.9-241.4,319-241.4z"/>
		</g>
	</g>
	<g transform="translate(560,385) scale(0.07,0.07)">
		<g transform="">
			<path class="st0" d="M387.9-241.4c157.1,0,284.5,127.4,284.5,284.5c0,157.1-127.4,284.5-284.5,284.5
				c-157.1,0-284.5-127.4-284.5-284.5C103.4-114,230.8-241.4,387.9-241.4z"/>
		</g>
	</g>
	<g transform="translate(630,385) scale(0.07,0.07)">
		<g transform="">
			<path class="st0" d="M525.9-241.4C683-241.4,810.3-114,810.3,43.1c0,157.1-127.4,284.5-284.5,284.5
				c-157.1,0-284.5-127.4-284.5-284.5C241.4-114,368.7-241.4,525.9-241.4z"/>
		</g>
	</g>
	<g transform="translate(665,385) scale(0.07,0.07)">
		<g transform="">
			<path class="st0" d="M594.8-241.4c157.1,0,284.5,127.4,284.5,284.5c0,157.1-127.4,284.5-284.5,284.5
				c-157.1,0-284.5-127.4-284.5-284.5C310.3-114,437.7-241.4,594.8-241.4z"/>
		</g>
	</g>
	<g transform="translate(770,385) scale(0.07,0.07)">
		<g transform="">
			<path class="st0" d="M801.7-241.4c157.1,0,284.5,127.4,284.5,284.5c0,157.1-127.4,284.5-284.5,284.5
				c-157.1,0-284.5-127.4-284.5-284.5C517.2-114,644.6-241.4,801.7-241.4z"/>
		</g>
	</g>
	<g transform="translate(840,385) scale(0.07,0.07)">
		<g transform="">
			<path class="st0" d="M939.7-241.4c157.1,0,284.5,127.4,284.5,284.5c0,157.1-127.4,284.5-284.5,284.5
				c-157.1,0-284.5-127.4-284.5-284.5C655.2-114,782.5-241.4,939.7-241.4z"/>
		</g>
	</g>
	<g transform="translate(910,385) scale(0.07,0.07)">
		<g transform="">
			<path class="st0" d="M1077.6-241.4c157.1,0,284.5,127.4,284.5,284.5c0,157.1-127.4,284.5-284.5,284.5
				c-157.1,0-284.5-127.4-284.5-284.5C793.1-114,920.5-241.4,1077.6-241.4z"/>
		</g>
	</g>
	<g transform="translate(945,385) scale(0.07,0.07)">
		<g transform="">
			<path class="st0" d="M1146.6-241.4c157.1,0,284.5,127.4,284.5,284.5c0,157.1-127.4,284.5-284.5,284.5
				c-157.1,0-284.5-127.4-284.5-284.5C862.1-114,989.4-241.4,1146.6-241.4z"/>
		</g>
	</g>
	<g transform="translate(0,420) scale(0.07,0.07)">
		<g transform="">
			<path class="st0" d="M-715.5-172.4C-558.4-172.4-431-45-431,112.1c0,157.1-127.4,284.5-284.5,284.5
				c-157.1,0-284.5-127.4-284.5-284.5C-1000-45-872.6-172.4-715.5-172.4z"/>
		</g>
	</g>
	<g transform="translate(35,420) scale(0.07,0.07)">
		<g transform="">
			<path class="st0" d="M-646.6-172.4c157.1,0,284.5,127.4,284.5,284.5c0,157.1-127.4,284.5-284.5,284.5
				c-157.1,0-284.5-127.4-284.5-284.5C-931-45-803.7-172.4-646.6-172.4z"/>
		</g>
	</g>
	<g transform="translate(70,420) scale(0.07,0.07)">
		<g transform="">
			<path class="st0" d="M-577.6-172.4c157.1,0,284.5,127.4,284.5,284.5c0,157.1-127.4,284.5-284.5,284.5
				c-157.1,0-284.5-127.4-284.5-284.5C-862.1-45-734.7-172.4-577.6-172.4z"/>
		</g>
	</g>
	<g transform="translate(140,420) scale(0.07,0.07)">
		<g transform="">
			<path class="st0" d="M-439.7-172.4c157.1,0,284.5,127.4,284.5,284.5c0,157.1-127.4,284.5-284.5,284.5
				c-157.1,0-284.5-127.4-284.5-284.5C-724.1-45-596.8-172.4-439.7-172.4z"/>
		</g>
	</g>
	<g transform="translate(210,420) scale(0.07,0.07)">
		<g transform="">
			<path class="st0" d="M-301.7-172.4c157.1,0,284.5,127.4,284.5,284.5c0,157.1-127.4,284.5-284.5,284.5
				c-157.1,0-284.5-127.4-284.5-284.5C-586.2-45-458.8-172.4-301.7-172.4z"/>
		</g>
	</g>
	<g transform="translate(245,420) scale(0.07,0.07)">
		<g transform="">
			<path class="st0" d="M-232.8-172.4C-75.6-172.4,51.7-45,51.7,112.1c0,157.1-127.4,284.5-284.5,284.5
				c-157.1,0-284.5-127.4-284.5-284.5C-517.2-45-389.9-172.4-232.8-172.4z"/>
		</g>
	</g>
	<g transform="translate(280,420) scale(0.07,0.07)">
		<g transform="">
			<path class="st0" d="M-163.8-172.4c157.1,0,284.5,127.4,284.5,284.5c0,157.1-127.4,284.5-284.5,284.5
				c-157.1,0-284.5-127.4-284.5-284.5C-448.3-45-320.9-172.4-163.8-172.4z"/>
		</g>
	</g>
	<g transform="translate(315,420) scale(0.07,0.07)">
		<g transform="">
			<path class="st0" d="M-94.8-172.4c157.1,0,284.5,127.4,284.5,284.5c0,157.1-127.4,284.5-284.5,284.5
				c-157.1,0-284.5-127.4-284.5-284.5C-379.3-45-251.9-172.4-94.8-172.4z"/>
		</g>
	</g>
	<g transform="translate(350,420) scale(0.07,0.07)">
		<g transform="">
			<path class="st0" d="M-25.9-172.4c157.1,0,284.5,127.4,284.5,284.5c0,157.1-127.4,284.5-284.5,284.5
				c-157.1,0-284.5-127.4-284.5-284.5C-310.3-45-183-172.4-25.9-172.4z"/>
		</g>
	</g>
	<g transform="translate(385,420) scale(0.07,0.07)">
		<g transform="">
			<path class="st0" d="M43.1-172.4c157.1,0,284.5,127.4,284.5,284.5c0,157.1-127.4,284.5-284.5,284.5
				c-157.1,0-284.5-127.4-284.5-284.5C-241.4-45-114-172.4,43.1-172.4z"/>
		</g>
	</g>
	<g transform="translate(455,420) scale(0.07,0.07)">
		<g transform="">
			<path class="st0" d="M181-172.4c157.1,0,284.5,127.4,284.5,284.5c0,157.1-127.4,284.5-284.5,284.5
				c-157.1,0-284.5-127.4-284.5-284.5C-103.4-45,23.9-172.4,181-172.4z"/>
		</g>
	</g>
	<g transform="translate(595,420) scale(0.07,0.07)">
		<g transform="">
			<path class="st0" d="M456.9-172.4C614-172.4,741.4-45,741.4,112.1c0,157.1-127.4,284.5-284.5,284.5
				c-157.1,0-284.5-127.4-284.5-284.5C172.4-45,299.8-172.4,456.9-172.4z"/>
		</g>
	</g>
	<g transform="translate(700,420) scale(0.07,0.07)">
		<g transform="">
			<path class="st0" d="M663.8-172.4c157.1,0,284.5,127.4,284.5,284.5c0,157.1-127.4,284.5-284.5,284.5
				c-157.1,0-284.5-127.4-284.5-284.5C379.3-45,506.7-172.4,663.8-172.4z"/>
		</g>
	</g>
	<g transform="translate(735,420) scale(0.07,0.07)">
		<g transform="">
			<path class="st0" d="M732.8-172.4c157.1,0,284.5,127.4,284.5,284.5c0,157.1-127.4,284.5-284.5,284.5
				c-157.1,0-284.5-127.4-284.5-284.5C448.3-45,575.6-172.4,732.8-172.4z"/>
		</g>
	</g>
	<g transform="translate(770,420) scale(0.07,0.07)">
		<g transform="">
			<path class="st0" d="M801.7-172.4c157.1,0,284.5,127.4,284.5,284.5c0,157.1-127.4,284.5-284.5,284.5
				c-157.1,0-284.5-127.4-284.5-284.5C517.2-45,644.6-172.4,801.7-172.4z"/>
		</g>
	</g>
	<g transform="translate(875,420) scale(0.07,0.07)">
		<g transform="">
			<path class="st0" d="M1008.6-172.4c157.1,0,284.5,127.4,284.5,284.5c0,157.1-127.4,284.5-284.5,284.5
				c-157.1,0-284.5-127.4-284.5-284.5C724.1-45,851.5-172.4,1008.6-172.4z"/>
		</g>
	</g>
	<g transform="translate(945,420) scale(0.07,0.07)">
		<g transform="">
			<path class="st0" d="M1146.6-172.4c157.1,0,284.5,127.4,284.5,284.5c0,157.1-127.4,284.5-284.5,284.5
				c-157.1,0-284.5-127.4-284.5-284.5C862.1-45,989.4-172.4,1146.6-172.4z"/>
		</g>
	</g>
	<g transform="translate(980,420) scale(0.07,0.07)">
		<g transform="">
			<path class="st0" d="M1215.5-172.4c157.1,0,284.5,127.4,284.5,284.5c0,157.1-127.4,284.5-284.5,284.5
				c-157.1,0-284.5-127.4-284.5-284.5C931-45,1058.4-172.4,1215.5-172.4z"/>
		</g>
	</g>
	<g transform="translate(70,455) scale(0.07,0.07)">
		<g transform="">
			<path class="st0" d="M-577.6-103.4c157.1,0,284.5,127.4,284.5,284.5c0,157.1-127.4,284.5-284.5,284.5
				c-157.1,0-284.5-127.4-284.5-284.5C-862.1,23.9-734.7-103.4-577.6-103.4z"/>
		</g>
	</g>
	<g transform="translate(140,455) scale(0.07,0.07)">
		<g transform="">
			<path class="st0" d="M-439.7-103.4c157.1,0,284.5,127.4,284.5,284.5c0,157.1-127.4,284.5-284.5,284.5
				c-157.1,0-284.5-127.4-284.5-284.5C-724.1,23.9-596.8-103.4-439.7-103.4z"/>
		</g>
	</g>
	<g transform="translate(385,455) scale(0.07,0.07)">
		<g transform="">
			<path class="st0" d="M43.1-103.4c157.1,0,284.5,127.4,284.5,284.5c0,157.1-127.4,284.5-284.5,284.5
				c-157.1,0-284.5-127.4-284.5-284.5C-241.4,23.9-114-103.4,43.1-103.4z"/>
		</g>
	</g>
	<g transform="translate(420,455) scale(0.07,0.07)">
		<g transform="">
			<path class="st0" d="M112.1-103.4c157.1,0,284.5,127.4,284.5,284.5c0,157.1-127.4,284.5-284.5,284.5
				C-45,465.5-172.4,338.2-172.4,181C-172.4,23.9-45-103.4,112.1-103.4z"/>
		</g>
	</g>
	<g transform="translate(595,455) scale(0.07,0.07)">
		<g transform="">
			<path class="st0" d="M456.9-103.4C614-103.4,741.4,23.9,741.4,181c0,157.1-127.4,284.5-284.5,284.5
				c-157.1,0-284.5-127.4-284.5-284.5C172.4,23.9,299.8-103.4,456.9-103.4z"/>
		</g>
	</g>
	<g transform="translate(665,455) scale(0.07,0.07)">
		<g transform="">
			<path class="st0" d="M594.8-103.4c157.1,0,284.5,127.4,284.5,284.5c0,157.1-127.4,284.5-284.5,284.5
				c-157.1,0-284.5-127.4-284.5-284.5C310.3,23.9,437.7-103.4,594.8-103.4z"/>
		</g>
	</g>
	<g transform="translate(700,455) scale(0.07,0.07)">
		<g transform="">
			<path class="st0" d="M663.8-103.4c157.1,0,284.5,127.4,284.5,284.5c0,157.1-127.4,284.5-284.5,284.5
				c-157.1,0-284.5-127.4-284.5-284.5C379.3,23.9,506.7-103.4,663.8-103.4z"/>
		</g>
	</g>
	<g transform="translate(735,455) scale(0.07,0.07)">
		<g transform="">
			<path class="st0" d="M732.8-103.4c157.1,0,284.5,127.4,284.5,284.5c0,157.1-127.4,284.5-284.5,284.5
				c-157.1,0-284.5-127.4-284.5-284.5C448.3,23.9,575.6-103.4,732.8-103.4z"/>
		</g>
	</g>
	<g transform="translate(0,490) scale(0.07,0.07)">
		<g transform="">
			<path class="st0" d="M-715.5-34.5C-558.4-34.5-431,92.9-431,250c0,157.1-127.4,284.5-284.5,284.5
				c-157.1,0-284.5-127.4-284.5-284.5C-1000,92.9-872.6-34.5-715.5-34.5z"/>
		</g>
	</g>
	<g transform="translate(35,490) scale(0.07,0.07)">
		<g transform="">
			<path class="st0" d="M-646.6-34.5c157.1,0,284.5,127.4,284.5,284.5c0,157.1-127.4,284.5-284.5,284.5
				C-803.7,534.5-931,407.1-931,250C-931,92.9-803.7-34.5-646.6-34.5z"/>
		</g>
	</g>
	<g transform="translate(105,490) scale(0.07,0.07)">
		<g transform="">
			<path class="st0" d="M-508.6-34.5c157.1,0,284.5,127.4,284.5,284.5c0,157.1-127.4,284.5-284.5,284.5
				c-157.1,0-284.5-127.4-284.5-284.5C-793.1,92.9-665.7-34.5-508.6-34.5z"/>
		</g>
	</g>
	<g transform="translate(210,490) scale(0.07,0.07)">
		<g transform="">
			<path class="st0" d="M-301.7-34.5C-144.6-34.5-17.2,92.9-17.2,250c0,157.1-127.4,284.5-284.5,284.5
				c-157.1,0-284.5-127.4-284.5-284.5C-586.2,92.9-458.8-34.5-301.7-34.5z"/>
		</g>
	</g>
	<g transform="translate(350,490) scale(0.07,0.07)">
		<g transform="">
			<path class="st0" d="M-25.9-34.5c157.1,0,284.5,127.4,284.5,284.5c0,157.1-127.4,284.5-284.5,284.5
				c-157.1,0-284.5-127.4-284.5-284.5C-310.3,92.9-183-34.5-25.9-34.5z"/>
		</g>
	</g>
	<g transform="translate(420,490) scale(0.07,0.07)">
		<g transform="">
			<path class="st0" d="M112.1-34.5c157.1,0,284.5,127.4,284.5,284.5c0,157.1-127.4,284.5-284.5,284.5
				C-45,534.5-172.4,407.1-172.4,250C-172.4,92.9-45-34.5,112.1-34.5z"/>
		</g>
	</g>
	<g transform="translate(490,490) scale(0.07,0.07)">
		<g transform="">
			<path class="st0" d="M250-34.5c157.1,0,284.5,127.4,284.5,284.5c0,157.1-127.4,284.5-284.5,284.5C92.9,534.5-34.5,407.1-34.5,250
				C-34.5,92.9,92.9-34.5,250-34.5z"/>
		</g>
	</g>
	<g transform="translate(595,490) scale(0.07,0.07)">
		<g transform="">
			<path class="st0" d="M456.9-34.5C614-34.5,741.4,92.9,741.4,250c0,157.1-127.4,284.5-284.5,284.5
				c-157.1,0-284.5-127.4-284.5-284.5C172.4,92.9,299.8-34.5,456.9-34.5z"/>
		</g>
	</g>
	<g transform="translate(735,490) scale(0.07,0.07)">
		<g transform="">
			<path class="st0" d="M732.8-34.5c157.1,0,284.5,127.4,284.5,284.5c0,157.1-127.4,284.5-284.5,284.5
				c-157.1,0-284.5-127.4-284.5-284.5C448.3,92.9,575.6-34.5,732.8-34.5z"/>
		</g>
	</g>
	<g transform="translate(805,490) scale(0.07,0.07)">
		<g transform="">
			<path class="st0" d="M870.7-34.5c157.1,0,284.5,127.4,284.5,284.5c0,157.1-127.4,284.5-284.5,284.5
				c-157.1,0-284.5-127.4-284.5-284.5C586.2,92.9,713.6-34.5,870.7-34.5z"/>
		</g>
	</g>
	<g transform="translate(840,490) scale(0.07,0.07)">
		<g transform="">
			<path class="st0" d="M939.7-34.5c157.1,0,284.5,127.4,284.5,284.5c0,157.1-127.4,284.5-284.5,284.5
				c-157.1,0-284.5-127.4-284.5-284.5C655.2,92.9,782.5-34.5,939.7-34.5z"/>
		</g>
	</g>
	<g transform="translate(875,490) scale(0.07,0.07)">
		<g transform="">
			<path class="st0" d="M1008.6-34.5c157.1,0,284.5,127.4,284.5,284.5c0,157.1-127.4,284.5-284.5,284.5
				c-157.1,0-284.5-127.4-284.5-284.5C724.1,92.9,851.5-34.5,1008.6-34.5z"/>
		</g>
	</g>
	<g transform="translate(910,490) scale(0.07,0.07)">
		<g transform="">
			<path class="st0" d="M1077.6-34.5c157.1,0,284.5,127.4,284.5,284.5c0,157.1-127.4,284.5-284.5,284.5
				c-157.1,0-284.5-127.4-284.5-284.5C793.1,92.9,920.5-34.5,1077.6-34.5z"/>
		</g>
	</g>
	<g transform="translate(945,490) scale(0.07,0.07)">
		<g transform="">
			<path class="st0" d="M1146.6-34.5C1303.7-34.5,1431,92.9,1431,250c0,157.1-127.4,284.5-284.5,284.5
				c-157.1,0-284.5-127.4-284.5-284.5C862.1,92.9,989.4-34.5,1146.6-34.5z"/>
		</g>
	</g>
	<g transform="translate(980,490) scale(0.07,0.07)">
		<g transform="">
			<path class="st0" d="M1215.5-34.5C1372.6-34.5,1500,92.9,1500,250c0,157.1-127.4,284.5-284.5,284.5
				C1058.4,534.5,931,407.1,931,250C931,92.9,1058.4-34.5,1215.5-34.5z"/>
		</g>
	</g>
	<g transform="translate(0,525) scale(0.07,0.07)">
		<g transform="">
			<path class="st0" d="M-715.5,34.5C-558.4,34.5-431,161.9-431,319c0,157.1-127.4,284.5-284.5,284.5
				c-157.1,0-284.5-127.4-284.5-284.5C-1000,161.9-872.6,34.5-715.5,34.5z"/>
		</g>
	</g>
	<g transform="translate(175,525) scale(0.07,0.07)">
		<g transform="">
			<path class="st0" d="M-370.7,34.5c157.1,0,284.5,127.4,284.5,284.5c0,157.1-127.4,284.5-284.5,284.5
				c-157.1,0-284.5-127.4-284.5-284.5C-655.2,161.9-527.8,34.5-370.7,34.5z"/>
		</g>
	</g>
	<g transform="translate(245,525) scale(0.07,0.07)">
		<g transform="">
			<path class="st0" d="M-232.8,34.5C-75.6,34.5,51.7,161.9,51.7,319c0,157.1-127.4,284.5-284.5,284.5
				c-157.1,0-284.5-127.4-284.5-284.5C-517.2,161.9-389.9,34.5-232.8,34.5z"/>
		</g>
	</g>
	<g transform="translate(280,525) scale(0.07,0.07)">
		<g transform="">
			<path class="st0" d="M-163.8,34.5c157.1,0,284.5,127.4,284.5,284.5c0,157.1-127.4,284.5-284.5,284.5
				c-157.1,0-284.5-127.4-284.5-284.5C-448.3,161.9-320.9,34.5-163.8,34.5z"/>
		</g>
	</g>
	<g transform="translate(385,525) scale(0.07,0.07)">
		<g transform="">
			<path class="st0" d="M43.1,34.5c157.1,0,284.5,127.4,284.5,284.5c0,157.1-127.4,284.5-284.5,284.5
				c-157.1,0-284.5-127.4-284.5-284.5C-241.4,161.9-114,34.5,43.1,34.5z"/>
		</g>
	</g>
	<g transform="translate(420,525) scale(0.07,0.07)">
		<g transform="">
			<path class="st0" d="M112.1,34.5c157.1,0,284.5,127.4,284.5,284.5c0,157.1-127.4,284.5-284.5,284.5
				C-45,603.4-172.4,476.1-172.4,319C-172.4,161.9-45,34.5,112.1,34.5z"/>
		</g>
	</g>
	<g transform="translate(455,525) scale(0.07,0.07)">
		<g transform="">
			<path class="st0" d="M181,34.5c157.1,0,284.5,127.4,284.5,284.5c0,157.1-127.4,284.5-284.5,284.5
				c-157.1,0-284.5-127.4-284.5-284.5C-103.4,161.9,23.9,34.5,181,34.5z"/>
		</g>
	</g>
	<g transform="translate(490,525) scale(0.07,0.07)">
		<g transform="">
			<path class="st0" d="M250,34.5c157.1,0,284.5,127.4,284.5,284.5c0,157.1-127.4,284.5-284.5,284.5C92.9,603.4-34.5,476.1-34.5,319
				C-34.5,161.9,92.9,34.5,250,34.5z"/>
		</g>
	</g>
	<g transform="translate(595,525) scale(0.07,0.07)">
		<g transform="">
			<path class="st0" d="M456.9,34.5C614,34.5,741.4,161.9,741.4,319c0,157.1-127.4,284.5-284.5,284.5
				c-157.1,0-284.5-127.4-284.5-284.5C172.4,161.9,299.8,34.5,456.9,34.5z"/>
		</g>
	</g>
	<g transform="translate(700,525) scale(0.07,0.07)">
		<g transform="">
			<path class="st0" d="M663.8,34.5c157.1,0,284.5,127.4,284.5,284.5c0,157.1-127.4,284.5-284.5,284.5
				c-157.1,0-284.5-127.4-284.5-284.5C379.3,161.9,506.7,34.5,663.8,34.5z"/>
		</g>
	</g>
	<g transform="translate(735,525) scale(0.07,0.07)">
		<g transform="">
			<path class="st0" d="M732.8,34.5c157.1,0,284.5,127.4,284.5,284.5c0,157.1-127.4,284.5-284.5,284.5
				c-157.1,0-284.5-127.4-284.5-284.5C448.3,161.9,575.6,34.5,732.8,34.5z"/>
		</g>
	</g>
	<g transform="translate(770,525) scale(0.07,0.07)">
		<g transform="">
			<path class="st0" d="M801.7,34.5c157.1,0,284.5,127.4,284.5,284.5c0,157.1-127.4,284.5-284.5,284.5
				c-157.1,0-284.5-127.4-284.5-284.5C517.2,161.9,644.6,34.5,801.7,34.5z"/>
		</g>
	</g>
	<g transform="translate(840,525) scale(0.07,0.07)">
		<g transform="">
			<path class="st0" d="M939.7,34.5c157.1,0,284.5,127.4,284.5,284.5c0,157.1-127.4,284.5-284.5,284.5
				c-157.1,0-284.5-127.4-284.5-284.5C655.2,161.9,782.5,34.5,939.7,34.5z"/>
		</g>
	</g>
	<g transform="translate(875,525) scale(0.07,0.07)">
		<g transform="">
			<path class="st0" d="M1008.6,34.5c157.1,0,284.5,127.4,284.5,284.5c0,157.1-127.4,284.5-284.5,284.5
				c-157.1,0-284.5-127.4-284.5-284.5C724.1,161.9,851.5,34.5,1008.6,34.5z"/>
		</g>
	</g>
	<g transform="translate(945,525) scale(0.07,0.07)">
		<g transform="">
			<path class="st0" d="M1146.6,34.5c157.1,0,284.5,127.4,284.5,284.5c0,157.1-127.4,284.5-284.5,284.5
				c-157.1,0-284.5-127.4-284.5-284.5C862.1,161.9,989.4,34.5,1146.6,34.5z"/>
		</g>
	</g>
	<g transform="translate(70,560) scale(0.07,0.07)">
		<g transform="">
			<path class="st0" d="M-577.6,103.4c157.1,0,284.5,127.4,284.5,284.5c0,157.1-127.4,284.5-284.5,284.5
				c-157.1,0-284.5-127.4-284.5-284.5C-862.1,230.8-734.7,103.4-577.6,103.4z"/>
		</g>
	</g>
	<g transform="translate(140,560) scale(0.07,0.07)">
		<g transform="">
			<path class="st0" d="M-439.7,103.4c157.1,0,284.5,127.4,284.5,284.5c0,157.1-127.4,284.5-284.5,284.5
				c-157.1,0-284.5-127.4-284.5-284.5C-724.1,230.8-596.8,103.4-439.7,103.4z"/>
		</g>
	</g>
	<g transform="translate(175,560) scale(0.07,0.07)">
		<g transform="">
			<path class="st0" d="M-370.7,103.4c157.1,0,284.5,127.4,284.5,284.5c0,157.1-127.4,284.5-284.5,284.5
				c-157.1,0-284.5-127.4-284.5-284.5C-655.2,230.8-527.8,103.4-370.7,103.4z"/>
		</g>
	</g>
	<g transform="translate(210,560) scale(0.07,0.07)">
		<g transform="">
			<path class="st0" d="M-301.7,103.4c157.1,0,284.5,127.4,284.5,284.5c0,157.1-127.4,284.5-284.5,284.5
				c-157.1,0-284.5-127.4-284.5-284.5C-586.2,230.8-458.8,103.4-301.7,103.4z"/>
		</g>
	</g>
	<g transform="translate(280,560) scale(0.07,0.07)">
		<g transform="">
			<path class="st0" d="M-163.8,103.4c157.1,0,284.5,127.4,284.5,284.5c0,157.1-127.4,284.5-284.5,284.5
				c-157.1,0-284.5-127.4-284.5-284.5C-448.3,230.8-320.9,103.4-163.8,103.4z"/>
		</g>
	</g>
	<g transform="translate(315,560) scale(0.07,0.07)">
		<g transform="">
			<path class="st0" d="M-94.8,103.4c157.1,0,284.5,127.4,284.5,284.5c0,157.1-127.4,284.5-284.5,284.5
				c-157.1,0-284.5-127.4-284.5-284.5C-379.3,230.8-251.9,103.4-94.8,103.4z"/>
		</g>
	</g>
	<g transform="translate(350,560) scale(0.07,0.07)">
		<g transform="">
			<path class="st0" d="M-25.9,103.4c157.1,0,284.5,127.4,284.5,284.5c0,157.1-127.4,284.5-284.5,284.5
				c-157.1,0-284.5-127.4-284.5-284.5C-310.3,230.8-183,103.4-25.9,103.4z"/>
		</g>
	</g>
	<g transform="translate(420,560) scale(0.07,0.07)">
		<g transform="">
			<path class="st0" d="M112.1,103.4c157.1,0,284.5,127.4,284.5,284.5c0,157.1-127.4,284.5-284.5,284.5
				c-157.1,0-284.5-127.4-284.5-284.5C-172.4,230.8-45,103.4,112.1,103.4z"/>
		</g>
	</g>
	<g transform="translate(560,560) scale(0.07,0.07)">
		<g transform="">
			<path class="st0" d="M387.9,103.4c157.1,0,284.5,127.4,284.5,284.5c0,157.1-127.4,284.5-284.5,284.5
				c-157.1,0-284.5-127.4-284.5-284.5C103.4,230.8,230.8,103.4,387.9,103.4z"/>
		</g>
	</g>
	<g transform="translate(595,560) scale(0.07,0.07)">
		<g transform="">
			<path class="st0" d="M456.9,103.4c157.1,0,284.5,127.4,284.5,284.5c0,157.1-127.4,284.5-284.5,284.5
				c-157.1,0-284.5-127.4-284.5-284.5C172.4,230.8,299.8,103.4,456.9,103.4z"/>
		</g>
	</g>
	<g transform="translate(665,560) scale(0.07,0.07)">
		<g transform="">
			<path class="st0" d="M594.8,103.4c157.1,0,284.5,127.4,284.5,284.5c0,157.1-127.4,284.5-284.5,284.5
				c-157.1,0-284.5-127.4-284.5-284.5C310.3,230.8,437.7,103.4,594.8,103.4z"/>
		</g>
	</g>
	<g transform="translate(735,560) scale(0.07,0.07)">
		<g transform="">
			<path class="st0" d="M732.8,103.4c157.1,0,284.5,127.4,284.5,284.5c0,157.1-127.4,284.5-284.5,284.5
				c-157.1,0-284.5-127.4-284.5-284.5C448.3,230.8,575.6,103.4,732.8,103.4z"/>
		</g>
	</g>
	<g transform="translate(945,560) scale(0.07,0.07)">
		<g transform="">
			<path class="st0" d="M1146.6,103.4c157.1,0,284.5,127.4,284.5,284.5c0,157.1-127.4,284.5-284.5,284.5
				c-157.1,0-284.5-127.4-284.5-284.5C862.1,230.8,989.4,103.4,1146.6,103.4z"/>
		</g>
	</g>
	<g transform="translate(70,595) scale(0.07,0.07)">
		<g transform="">
			<path class="st0" d="M-577.6,172.4c157.1,0,284.5,127.4,284.5,284.5c0,157.1-127.4,284.5-284.5,284.5
				c-157.1,0-284.5-127.4-284.5-284.5C-862.1,299.8-734.7,172.4-577.6,172.4z"/>
		</g>
	</g>
	<g transform="translate(105,595) scale(0.07,0.07)">
		<g transform="">
			<path class="st0" d="M-508.6,172.4c157.1,0,284.5,127.4,284.5,284.5c0,157.1-127.4,284.5-284.5,284.5
				c-157.1,0-284.5-127.4-284.5-284.5C-793.1,299.8-665.7,172.4-508.6,172.4z"/>
		</g>
	</g>
	<g transform="translate(175,595) scale(0.07,0.07)">
		<g transform="">
			<path class="st0" d="M-370.7,172.4c157.1,0,284.5,127.4,284.5,284.5c0,157.1-127.4,284.5-284.5,284.5
				c-157.1,0-284.5-127.4-284.5-284.5C-655.2,299.8-527.8,172.4-370.7,172.4z"/>
		</g>
	</g>
	<g transform="translate(245,595) scale(0.07,0.07)">
		<g transform="">
			<path class="st0" d="M-232.8,172.4c157.1,0,284.5,127.4,284.5,284.5c0,157.1-127.4,284.5-284.5,284.5
				c-157.1,0-284.5-127.4-284.5-284.5C-517.2,299.8-389.9,172.4-232.8,172.4z"/>
		</g>
	</g>
	<g transform="translate(280,595) scale(0.07,0.07)">
		<g transform="">
			<path class="st0" d="M-163.8,172.4c157.1,0,284.5,127.4,284.5,284.5c0,157.1-127.4,284.5-284.5,284.5
				c-157.1,0-284.5-127.4-284.5-284.5C-448.3,299.8-320.9,172.4-163.8,172.4z"/>
		</g>
	</g>
	<g transform="translate(315,595) scale(0.07,0.07)">
		<g transform="">
			<path class="st0" d="M-94.8,172.4c157.1,0,284.5,127.4,284.5,284.5c0,157.1-127.4,284.5-284.5,284.5
				c-157.1,0-284.5-127.4-284.5-284.5C-379.3,299.8-251.9,172.4-94.8,172.4z"/>
		</g>
	</g>
	<g transform="translate(385,595) scale(0.07,0.07)">
		<g transform="">
			<path class="st0" d="M43.1,172.4c157.1,0,284.5,127.4,284.5,284.5c0,157.1-127.4,284.5-284.5,284.5
				c-157.1,0-284.5-127.4-284.5-284.5C-241.4,299.8-114,172.4,43.1,172.4z"/>
		</g>
	</g>
	<g transform="translate(490,595) scale(0.07,0.07)">
		<g transform="">
			<path class="st0" d="M250,172.4c157.1,0,284.5,127.4,284.5,284.5c0,157.1-127.4,284.5-284.5,284.5
				C92.9,741.4-34.5,614-34.5,456.9C-34.5,299.8,92.9,172.4,250,172.4z"/>
		</g>
	</g>
	<g transform="translate(560,595) scale(0.07,0.07)">
		<g transform="">
			<path class="st0" d="M387.9,172.4c157.1,0,284.5,127.4,284.5,284.5c0,157.1-127.4,284.5-284.5,284.5
				c-157.1,0-284.5-127.4-284.5-284.5C103.4,299.8,230.8,172.4,387.9,172.4z"/>
		</g>
	</g>
	<g transform="translate(770,595) scale(0.07,0.07)">
		<g transform="">
			<path class="st0" d="M801.7,172.4c157.1,0,284.5,127.4,284.5,284.5c0,157.1-127.4,284.5-284.5,284.5
				c-157.1,0-284.5-127.4-284.5-284.5C517.2,299.8,644.6,172.4,801.7,172.4z"/>
		</g>
	</g>
	<g transform="translate(805,595) scale(0.07,0.07)">
		<g transform="">
			<path class="st0" d="M870.7,172.4c157.1,0,284.5,127.4,284.5,284.5c0,157.1-127.4,284.5-284.5,284.5
				c-157.1,0-284.5-127.4-284.5-284.5C586.2,299.8,713.6,172.4,870.7,172.4z"/>
		</g>
	</g>
	<g transform="translate(875,595) scale(0.07,0.07)">
		<g transform="">
			<path class="st0" d="M1008.6,172.4c157.1,0,284.5,127.4,284.5,284.5c0,157.1-127.4,284.5-284.5,284.5
				c-157.1,0-284.5-127.4-284.5-284.5C724.1,299.8,851.5,172.4,1008.6,172.4z"/>
		</g>
	</g>
	<g transform="translate(980,595) scale(0.07,0.07)">
		<g transform="">
			<path class="st0" d="M1215.5,172.4c157.1,0,284.5,127.4,284.5,284.5c0,157.1-127.4,284.5-284.5,284.5
				C1058.4,741.4,931,614,931,456.9C931,299.8,1058.4,172.4,1215.5,172.4z"/>
		</g>
	</g>
	<g transform="translate(0,630) scale(0.07,0.07)">
		<g transform="">
			<path class="st0" d="M-715.5,241.4c157.1,0,284.5,127.4,284.5,284.5c0,157.1-127.4,284.5-284.5,284.5
				c-157.1,0-284.5-127.4-284.5-284.5C-1000,368.7-872.6,241.4-715.5,241.4z"/>
		</g>
	</g>
	<g transform="translate(70,630) scale(0.07,0.07)">
		<g transform="">
			<path class="st0" d="M-577.6,241.4c157.1,0,284.5,127.4,284.5,284.5c0,157.1-127.4,284.5-284.5,284.5
				c-157.1,0-284.5-127.4-284.5-284.5C-862.1,368.7-734.7,241.4-577.6,241.4z"/>
		</g>
	</g>
	<g transform="translate(105,630) scale(0.07,0.07)">
		<g transform="">
			<path class="st0" d="M-508.6,241.4c157.1,0,284.5,127.4,284.5,284.5c0,157.1-127.4,284.5-284.5,284.5
				c-157.1,0-284.5-127.4-284.5-284.5C-793.1,368.7-665.7,241.4-508.6,241.4z"/>
		</g>
	</g>
	<g transform="translate(140,630) scale(0.07,0.07)">
		<g transform="">
			<path class="st0" d="M-439.7,241.4c157.1,0,284.5,127.4,284.5,284.5c0,157.1-127.4,284.5-284.5,284.5
				c-157.1,0-284.5-127.4-284.5-284.5C-724.1,368.7-596.8,241.4-439.7,241.4z"/>
		</g>
	</g>
	<g transform="translate(175,630) scale(0.07,0.07)">
		<g transform="">
			<path class="st0" d="M-370.7,241.4c157.1,0,284.5,127.4,284.5,284.5c0,157.1-127.4,284.5-284.5,284.5
				c-157.1,0-284.5-127.4-284.5-284.5C-655.2,368.7-527.8,241.4-370.7,241.4z"/>
		</g>
	</g>
	<g transform="translate(210,630) scale(0.07,0.07)">
		<g transform="">
			<path class="st0" d="M-301.7,241.4c157.1,0,284.5,127.4,284.5,284.5c0,157.1-127.4,284.5-284.5,284.5
				c-157.1,0-284.5-127.4-284.5-284.5C-586.2,368.7-458.8,241.4-301.7,241.4z"/>
		</g>
	</g>
	<g transform="translate(245,630) scale(0.07,0.07)">
		<g transform="">
			<path class="st0" d="M-232.8,241.4c157.1,0,284.5,127.4,284.5,284.5c0,157.1-127.4,284.5-284.5,284.5
				c-157.1,0-284.5-127.4-284.5-284.5C-517.2,368.7-389.9,241.4-232.8,241.4z"/>
		</g>
	</g>
	<g transform="translate(280,630) scale(0.07,0.07)">
		<g transform="">
			<path class="st0" d="M-163.8,241.4c157.1,0,284.5,127.4,284.5,284.5c0,157.1-127.4,284.5-284.5,284.5
				c-157.1,0-284.5-127.4-284.5-284.5C-448.3,368.7-320.9,241.4-163.8,241.4z"/>
		</g>
	</g>
	<g transform="translate(315,630) scale(0.07,0.07)">
		<g transform="">
			<path class="st0" d="M-94.8,241.4c157.1,0,284.5,127.4,284.5,284.5c0,157.1-127.4,284.5-284.5,284.5
				c-157.1,0-284.5-127.4-284.5-284.5C-379.3,368.7-251.9,241.4-94.8,241.4z"/>
		</g>
	</g>
	<g transform="translate(385,630) scale(0.07,0.07)">
		<g transform="">
			<path class="st0" d="M43.1,241.4c157.1,0,284.5,127.4,284.5,284.5c0,157.1-127.4,284.5-284.5,284.5
				c-157.1,0-284.5-127.4-284.5-284.5C-241.4,368.7-114,241.4,43.1,241.4z"/>
		</g>
	</g>
	<g transform="translate(420,630) scale(0.07,0.07)">
		<g transform="">
			<path class="st0" d="M112.1,241.4c157.1,0,284.5,127.4,284.5,284.5c0,157.1-127.4,284.5-284.5,284.5
				C-45,810.3-172.4,683-172.4,525.9C-172.4,368.7-45,241.4,112.1,241.4z"/>
		</g>
	</g>
	<g transform="translate(455,630) scale(0.07,0.07)">
		<g transform="">
			<path class="st0" d="M181,241.4c157.1,0,284.5,127.4,284.5,284.5c0,157.1-127.4,284.5-284.5,284.5
				c-157.1,0-284.5-127.4-284.5-284.5C-103.4,368.7,23.9,241.4,181,241.4z"/>
		</g>
	</g>
	<g transform="translate(630,630) scale(0.07,0.07)">
		<g transform="">
			<path class="st0" d="M525.9,241.4c157.1,0,284.5,127.4,284.5,284.5c0,157.1-127.4,284.5-284.5,284.5
				c-157.1,0-284.5-127.4-284.5-284.5C241.4,368.7,368.7,241.4,525.9,241.4z"/>
		</g>
	</g>
	<g transform="translate(700,630) scale(0.07,0.07)">
		<g transform="">
			<path class="st0" d="M663.8,241.4c157.1,0,284.5,127.4,284.5,284.5c0,157.1-127.4,284.5-284.5,284.5
				c-157.1,0-284.5-127.4-284.5-284.5C379.3,368.7,506.7,241.4,663.8,241.4z"/>
		</g>
	</g>
	<g transform="translate(770,630) scale(0.07,0.07)">
		<g transform="">
			<path class="st0" d="M801.7,241.4c157.1,0,284.5,127.4,284.5,284.5c0,157.1-127.4,284.5-284.5,284.5
				c-157.1,0-284.5-127.4-284.5-284.5C517.2,368.7,644.6,241.4,801.7,241.4z"/>
		</g>
	</g>
	<g transform="translate(840,630) scale(0.07,0.07)">
		<g transform="">
			<path class="st0" d="M939.7,241.4c157.1,0,284.5,127.4,284.5,284.5c0,157.1-127.4,284.5-284.5,284.5
				c-157.1,0-284.5-127.4-284.5-284.5C655.2,368.7,782.5,241.4,939.7,241.4z"/>
		</g>
	</g>
	<g transform="translate(945,630) scale(0.07,0.07)">
		<g transform="">
			<path class="st0" d="M1146.6,241.4c157.1,0,284.5,127.4,284.5,284.5c0,157.1-127.4,284.5-284.5,284.5
				c-157.1,0-284.5-127.4-284.5-284.5C862.1,368.7,989.4,241.4,1146.6,241.4z"/>
		</g>
	</g>
	<g transform="translate(980,630) scale(0.07,0.07)">
		<g transform="">
			<path class="st0" d="M1215.5,241.4c157.1,0,284.5,127.4,284.5,284.5c0,157.1-127.4,284.5-284.5,284.5
				C1058.4,810.3,931,683,931,525.9C931,368.7,1058.4,241.4,1215.5,241.4z"/>
		</g>
	</g>
	<g transform="translate(70,665) scale(0.07,0.07)">
		<g transform="">
			<path class="st0" d="M-577.6,310.3c157.1,0,284.5,127.4,284.5,284.5c0,157.1-127.4,284.5-284.5,284.5
				c-157.1,0-284.5-127.4-284.5-284.5C-862.1,437.7-734.7,310.3-577.6,310.3z"/>
		</g>
	</g>
	<g transform="translate(175,665) scale(0.07,0.07)">
		<g transform="">
			<path class="st0" d="M-370.7,310.3c157.1,0,284.5,127.4,284.5,284.5c0,157.1-127.4,284.5-284.5,284.5
				c-157.1,0-284.5-127.4-284.5-284.5C-655.2,437.7-527.8,310.3-370.7,310.3z"/>
		</g>
	</g>
	<g transform="translate(245,665) scale(0.07,0.07)">
		<g transform="">
			<path class="st0" d="M-232.8,310.3c157.1,0,284.5,127.4,284.5,284.5c0,157.1-127.4,284.5-284.5,284.5
				c-157.1,0-284.5-127.4-284.5-284.5C-517.2,437.7-389.9,310.3-232.8,310.3z"/>
		</g>
	</g>
	<g transform="translate(280,665) scale(0.07,0.07)">
		<g transform="">
			<path class="st0" d="M-163.8,310.3c157.1,0,284.5,127.4,284.5,284.5c0,157.1-127.4,284.5-284.5,284.5
				c-157.1,0-284.5-127.4-284.5-284.5C-448.3,437.7-320.9,310.3-163.8,310.3z"/>
		</g>
	</g>
	<g transform="translate(315,665) scale(0.07,0.07)">
		<g transform="">
			<path class="st0" d="M-94.8,310.3c157.1,0,284.5,127.4,284.5,284.5c0,157.1-127.4,284.5-284.5,284.5
				c-157.1,0-284.5-127.4-284.5-284.5C-379.3,437.7-251.9,310.3-94.8,310.3z"/>
		</g>
	</g>
	<g transform="translate(350,665) scale(0.07,0.07)">
		<g transform="">
			<path class="st0" d="M-25.9,310.3c157.1,0,284.5,127.4,284.5,284.5c0,157.1-127.4,284.5-284.5,284.5
				c-157.1,0-284.5-127.4-284.5-284.5C-310.3,437.7-183,310.3-25.9,310.3z"/>
		</g>
	</g>
	<g transform="translate(525,665) scale(0.07,0.07)">
		<g transform="">
			<path class="st0" d="M319,310.3c157.1,0,284.5,127.4,284.5,284.5c0,157.1-127.4,284.5-284.5,284.5
				c-157.1,0-284.5-127.4-284.5-284.5C34.5,437.7,161.9,310.3,319,310.3z"/>
		</g>
	</g>
	<g transform="translate(595,665) scale(0.07,0.07)">
		<g transform="">
			<path class="st0" d="M456.9,310.3c157.1,0,284.5,127.4,284.5,284.5c0,157.1-127.4,284.5-284.5,284.5
				c-157.1,0-284.5-127.4-284.5-284.5C172.4,437.7,299.8,310.3,456.9,310.3z"/>
		</g>
	</g>
	<g transform="translate(630,665) scale(0.07,0.07)">
		<g transform="">
			<path class="st0" d="M525.9,310.3c157.1,0,284.5,127.4,284.5,284.5c0,157.1-127.4,284.5-284.5,284.5
				c-157.1,0-284.5-127.4-284.5-284.5C241.4,437.7,368.7,310.3,525.9,310.3z"/>
		</g>
	</g>
	<g transform="translate(665,665) scale(0.07,0.07)">
		<g transform="">
			<path class="st0" d="M594.8,310.3c157.1,0,284.5,127.4,284.5,284.5c0,157.1-127.4,284.5-284.5,284.5
				c-157.1,0-284.5-127.4-284.5-284.5C310.3,437.7,437.7,310.3,594.8,310.3z"/>
		</g>
	</g>
	<g transform="translate(805,665) scale(0.07,0.07)">
		<g transform="">
			<path class="st0" d="M870.7,310.3c157.1,0,284.5,127.4,284.5,284.5c0,157.1-127.4,284.5-284.5,284.5
				c-157.1,0-284.5-127.4-284.5-284.5C586.2,437.7,713.6,310.3,870.7,310.3z"/>
		</g>
	</g>
	<g transform="translate(945,665) scale(0.07,0.07)">
		<g transform="">
			<path class="st0" d="M1146.6,310.3c157.1,0,284.5,127.4,284.5,284.5c0,157.1-127.4,284.5-284.5,284.5
				c-157.1,0-284.5-127.4-284.5-284.5C862.1,437.7,989.4,310.3,1146.6,310.3z"/>
		</g>
	</g>
	<g transform="translate(980,665) scale(0.07,0.07)">
		<g transform="">
			<path class="st0" d="M1215.5,310.3c157.1,0,284.5,127.4,284.5,284.5c0,157.1-127.4,284.5-284.5,284.5
				c-157.1,0-284.5-127.4-284.5-284.5C931,437.7,1058.4,310.3,1215.5,310.3z"/>
		</g>
	</g>
	<g transform="translate(0,700) scale(0.07,0.07)">
		<g transform="">
			<path class="st0" d="M-715.5,379.3c157.1,0,284.5,127.4,284.5,284.5c0,157.1-127.4,284.5-284.5,284.5
				c-157.1,0-284.5-127.4-284.5-284.5C-1000,506.7-872.6,379.3-715.5,379.3z"/>
		</g>
	</g>
	<g transform="translate(70,700) scale(0.07,0.07)">
		<g transform="">
			<path class="st0" d="M-577.6,379.3c157.1,0,284.5,127.4,284.5,284.5c0,157.1-127.4,284.5-284.5,284.5
				c-157.1,0-284.5-127.4-284.5-284.5C-862.1,506.7-734.7,379.3-577.6,379.3z"/>
		</g>
	</g>
	<g transform="translate(105,700) scale(0.07,0.07)">
		<g transform="">
			<path class="st0" d="M-508.6,379.3c157.1,0,284.5,127.4,284.5,284.5c0,157.1-127.4,284.5-284.5,284.5
				c-157.1,0-284.5-127.4-284.5-284.5C-793.1,506.7-665.7,379.3-508.6,379.3z"/>
		</g>
	</g>
	<g transform="translate(140,700) scale(0.07,0.07)">
		<g transform="">
			<path class="st0" d="M-439.7,379.3c157.1,0,284.5,127.4,284.5,284.5c0,157.1-127.4,284.5-284.5,284.5
				c-157.1,0-284.5-127.4-284.5-284.5C-724.1,506.7-596.8,379.3-439.7,379.3z"/>
		</g>
	</g>
	<g transform="translate(210,700) scale(0.07,0.07)">
		<g transform="">
			<path class="st0" d="M-301.7,379.3c157.1,0,284.5,127.4,284.5,284.5c0,157.1-127.4,284.5-284.5,284.5
				c-157.1,0-284.5-127.4-284.5-284.5C-586.2,506.7-458.8,379.3-301.7,379.3z"/>
		</g>
	</g>
	<g transform="translate(245,700) scale(0.07,0.07)">
		<g transform="">
			<path class="st0" d="M-232.8,379.3c157.1,0,284.5,127.4,284.5,284.5c0,157.1-127.4,284.5-284.5,284.5
				c-157.1,0-284.5-127.4-284.5-284.5C-517.2,506.7-389.9,379.3-232.8,379.3z"/>
		</g>
	</g>
	<g transform="translate(280,700) scale(0.07,0.07)">
		<g transform="">
			<path class="st0" d="M-163.8,379.3c157.1,0,284.5,127.4,284.5,284.5c0,157.1-127.4,284.5-284.5,284.5
				c-157.1,0-284.5-127.4-284.5-284.5C-448.3,506.7-320.9,379.3-163.8,379.3z"/>
		</g>
	</g>
	<g transform="translate(350,700) scale(0.07,0.07)">
		<g transform="">
			<path class="st0" d="M-25.9,379.3c157.1,0,284.5,127.4,284.5,284.5c0,157.1-127.4,284.5-284.5,284.5
				c-157.1,0-284.5-127.4-284.5-284.5C-310.3,506.7-183,379.3-25.9,379.3z"/>
		</g>
	</g>
	<g transform="translate(385,700) scale(0.07,0.07)">
		<g transform="">
			<path class="st0" d="M43.1,379.3c157.1,0,284.5,127.4,284.5,284.5c0,157.1-127.4,284.5-284.5,284.5
				c-157.1,0-284.5-127.4-284.5-284.5C-241.4,506.7-114,379.3,43.1,379.3z"/>
		</g>
	</g>
	<g transform="translate(420,700) scale(0.07,0.07)">
		<g transform="">
			<path class="st0" d="M112.1,379.3c157.1,0,284.5,127.4,284.5,284.5c0,157.1-127.4,284.5-284.5,284.5
				c-157.1,0-284.5-127.4-284.5-284.5C-172.4,506.7-45,379.3,112.1,379.3z"/>
		</g>
	</g>
	<g transform="translate(455,700) scale(0.07,0.07)">
		<g transform="">
			<path class="st0" d="M181,379.3c157.1,0,284.5,127.4,284.5,284.5c0,157.1-127.4,284.5-284.5,284.5
				c-157.1,0-284.5-127.4-284.5-284.5C-103.4,506.7,23.9,379.3,181,379.3z"/>
		</g>
	</g>
	<g transform="translate(490,700) scale(0.07,0.07)">
		<g transform="">
			<path class="st0" d="M250,379.3c157.1,0,284.5,127.4,284.5,284.5c0,157.1-127.4,284.5-284.5,284.5
				c-157.1,0-284.5-127.4-284.5-284.5C-34.5,506.7,92.9,379.3,250,379.3z"/>
		</g>
	</g>
	<g transform="translate(560,700) scale(0.07,0.07)">
		<g transform="">
			<path class="st0" d="M387.9,379.3c157.1,0,284.5,127.4,284.5,284.5c0,157.1-127.4,284.5-284.5,284.5
				c-157.1,0-284.5-127.4-284.5-284.5C103.4,506.7,230.8,379.3,387.9,379.3z"/>
		</g>
	</g>
	<g transform="translate(700,700) scale(0.07,0.07)">
		<g transform="">
			<path class="st0" d="M663.8,379.3c157.1,0,284.5,127.4,284.5,284.5c0,157.1-127.4,284.5-284.5,284.5
				c-157.1,0-284.5-127.4-284.5-284.5C379.3,506.7,506.7,379.3,663.8,379.3z"/>
		</g>
	</g>
	<g transform="translate(735,700) scale(0.07,0.07)">
		<g transform="">
			<path class="st0" d="M732.8,379.3c157.1,0,284.5,127.4,284.5,284.5c0,157.1-127.4,284.5-284.5,284.5
				c-157.1,0-284.5-127.4-284.5-284.5C448.3,506.7,575.6,379.3,732.8,379.3z"/>
		</g>
	</g>
	<g transform="translate(770,700) scale(0.07,0.07)">
		<g transform="">
			<path class="st0" d="M801.7,379.3c157.1,0,284.5,127.4,284.5,284.5c0,157.1-127.4,284.5-284.5,284.5
				c-157.1,0-284.5-127.4-284.5-284.5C517.2,506.7,644.6,379.3,801.7,379.3z"/>
		</g>
	</g>
	<g transform="translate(805,700) scale(0.07,0.07)">
		<g transform="">
			<path class="st0" d="M870.7,379.3c157.1,0,284.5,127.4,284.5,284.5c0,157.1-127.4,284.5-284.5,284.5
				c-157.1,0-284.5-127.4-284.5-284.5C586.2,506.7,713.6,379.3,870.7,379.3z"/>
		</g>
	</g>
	<g transform="translate(840,700) scale(0.07,0.07)">
		<g transform="">
			<path class="st0" d="M939.7,379.3c157.1,0,284.5,127.4,284.5,284.5c0,157.1-127.4,284.5-284.5,284.5
				c-157.1,0-284.5-127.4-284.5-284.5C655.2,506.7,782.5,379.3,939.7,379.3z"/>
		</g>
	</g>
	<g transform="translate(910,700) scale(0.07,0.07)">
		<g transform="">
			<path class="st0" d="M1077.6,379.3c157.1,0,284.5,127.4,284.5,284.5c0,157.1-127.4,284.5-284.5,284.5
				c-157.1,0-284.5-127.4-284.5-284.5C793.1,506.7,920.5,379.3,1077.6,379.3z"/>
		</g>
	</g>
	<g transform="translate(280,735) scale(0.07,0.07)">
		<g transform="">
			<path class="st0" d="M-163.8,448.3c157.1,0,284.5,127.4,284.5,284.5c0,157.1-127.4,284.5-284.5,284.5
				c-157.1,0-284.5-127.4-284.5-284.5C-448.3,575.6-320.9,448.3-163.8,448.3z"/>
		</g>
	</g>
	<g transform="translate(455,735) scale(0.07,0.07)">
		<g transform="">
			<path class="st0" d="M181,448.3c157.1,0,284.5,127.4,284.5,284.5c0,157.1-127.4,284.5-284.5,284.5
				c-157.1,0-284.5-127.4-284.5-284.5C-103.4,575.6,23.9,448.3,181,448.3z"/>
		</g>
	</g>
	<g transform="translate(490,735) scale(0.07,0.07)">
		<g transform="">
			<path class="st0" d="M250,448.3c157.1,0,284.5,127.4,284.5,284.5c0,157.1-127.4,284.5-284.5,284.5
				c-157.1,0-284.5-127.4-284.5-284.5C-34.5,575.6,92.9,448.3,250,448.3z"/>
		</g>
	</g>
	<g transform="translate(560,735) scale(0.07,0.07)">
		<g transform="">
			<path class="st0" d="M387.9,448.3c157.1,0,284.5,127.4,284.5,284.5c0,157.1-127.4,284.5-284.5,284.5
				c-157.1,0-284.5-127.4-284.5-284.5C103.4,575.6,230.8,448.3,387.9,448.3z"/>
		</g>
	</g>
	<g transform="translate(595,735) scale(0.07,0.07)">
		<g transform="">
			<path class="st0" d="M456.9,448.3c157.1,0,284.5,127.4,284.5,284.5c0,157.1-127.4,284.5-284.5,284.5
				c-157.1,0-284.5-127.4-284.5-284.5C172.4,575.6,299.8,448.3,456.9,448.3z"/>
		</g>
	</g>
	<g transform="translate(700,735) scale(0.07,0.07)">
		<g transform="">
			<path class="st0" d="M663.8,448.3c157.1,0,284.5,127.4,284.5,284.5c0,157.1-127.4,284.5-284.5,284.5
				c-157.1,0-284.5-127.4-284.5-284.5C379.3,575.6,506.7,448.3,663.8,448.3z"/>
		</g>
	</g>
	<g transform="translate(840,735) scale(0.07,0.07)">
		<g transform="">
			<path class="st0" d="M939.7,448.3c157.1,0,284.5,127.4,284.5,284.5c0,157.1-127.4,284.5-284.5,284.5
				c-157.1,0-284.5-127.4-284.5-284.5C655.2,575.6,782.5,448.3,939.7,448.3z"/>
		</g>
	</g>
	<g transform="translate(910,735) scale(0.07,0.07)">
		<g transform="">
			<path class="st0" d="M1077.6,448.3c157.1,0,284.5,127.4,284.5,284.5c0,157.1-127.4,284.5-284.5,284.5
				c-157.1,0-284.5-127.4-284.5-284.5C793.1,575.6,920.5,448.3,1077.6,448.3z"/>
		</g>
	</g>
	<g transform="translate(945,735) scale(0.07,0.07)">
		<g transform="">
			<path class="st0" d="M1146.6,448.3c157.1,0,284.5,127.4,284.5,284.5c0,157.1-127.4,284.5-284.5,284.5
				c-157.1,0-284.5-127.4-284.5-284.5C862.1,575.6,989.4,448.3,1146.6,448.3z"/>
		</g>
	</g>
	<g transform="translate(980,735) scale(0.07,0.07)">
		<g transform="">
			<path class="st0" d="M1215.5,448.3c157.1,0,284.5,127.4,284.5,284.5c0,157.1-127.4,284.5-284.5,284.5
				c-157.1,0-284.5-127.4-284.5-284.5C931,575.6,1058.4,448.3,1215.5,448.3z"/>
		</g>
	</g>
	<g transform="translate(315,770) scale(0.07,0.07)">
		<g transform="">
			<path class="st0" d="M-94.8,517.2c157.1,0,284.5,127.4,284.5,284.5c0,157.1-127.4,284.5-284.5,284.5
				c-157.1,0-284.5-127.4-284.5-284.5C-379.3,644.6-251.9,517.2-94.8,517.2z"/>
		</g>
	</g>
	<g transform="translate(420,770) scale(0.07,0.07)">
		<g transform="">
			<path class="st0" d="M112.1,517.2c157.1,0,284.5,127.4,284.5,284.5c0,157.1-127.4,284.5-284.5,284.5
				c-157.1,0-284.5-127.4-284.5-284.5C-172.4,644.6-45,517.2,112.1,517.2z"/>
		</g>
	</g>
	<g transform="translate(455,770) scale(0.07,0.07)">
		<g transform="">
			<path class="st0" d="M181,517.2c157.1,0,284.5,127.4,284.5,284.5c0,157.1-127.4,284.5-284.5,284.5
				c-157.1,0-284.5-127.4-284.5-284.5C-103.4,644.6,23.9,517.2,181,517.2z"/>
		</g>
	</g>
	<g transform="translate(700,770) scale(0.07,0.07)">
		<g transform="">
			<path class="st0" d="M663.8,517.2c157.1,0,284.5,127.4,284.5,284.5c0,157.1-127.4,284.5-284.5,284.5
				c-157.1,0-284.5-127.4-284.5-284.5C379.3,644.6,506.7,517.2,663.8,517.2z"/>
		</g>
	</g>
	<g transform="translate(770,770) scale(0.07,0.07)">
		<g transform="">
			<path class="st0" d="M801.7,517.2c157.1,0,284.5,127.4,284.5,284.5c0,157.1-127.4,284.5-284.5,284.5
				c-157.1,0-284.5-127.4-284.5-284.5C517.2,644.6,644.6,517.2,801.7,517.2z"/>
		</g>
	</g>
	<g transform="translate(840,770) scale(0.07,0.07)">
		<g transform="">
			<path class="st0" d="M939.7,517.2c157.1,0,284.5,127.4,284.5,284.5c0,157.1-127.4,284.5-284.5,284.5
				c-157.1,0-284.5-127.4-284.5-284.5C655.2,644.6,782.5,517.2,939.7,517.2z"/>
		</g>
	</g>
	<g transform="translate(945,770) scale(0.07,0.07)">
		<g transform="">
			<path class="st0" d="M1146.6,517.2c157.1,0,284.5,127.4,284.5,284.5c0,157.1-127.4,284.5-284.5,284.5
				c-157.1,0-284.5-127.4-284.5-284.5C862.1,644.6,989.4,517.2,1146.6,517.2z"/>
		</g>
	</g>
	<g transform="translate(280,805) scale(0.07,0.07)">
		<g transform="">
			<path class="st0" d="M-163.8,586.2c157.1,0,284.5,127.4,284.5,284.5c0,157.1-127.4,284.5-284.5,284.5
				c-157.1,0-284.5-127.4-284.5-284.5C-448.3,713.6-320.9,586.2-163.8,586.2z"/>
		</g>
	</g>
	<g transform="translate(315,805) scale(0.07,0.07)">
		<g transform="">
			<path class="st0" d="M-94.8,586.2c157.1,0,284.5,127.4,284.5,284.5c0,157.1-127.4,284.5-284.5,284.5
				c-157.1,0-284.5-127.4-284.5-284.5C-379.3,713.6-251.9,586.2-94.8,586.2z"/>
		</g>
	</g>
	<g transform="translate(350,805) scale(0.07,0.07)">
		<g transform="">
			<path class="st0" d="M-25.9,586.2c157.1,0,284.5,127.4,284.5,284.5c0,157.1-127.4,284.5-284.5,284.5
				c-157.1,0-284.5-127.4-284.5-284.5C-310.3,713.6-183,586.2-25.9,586.2z"/>
		</g>
	</g>
	<g transform="translate(455,805) scale(0.07,0.07)">
		<g transform="">
			<path class="st0" d="M181,586.2c157.1,0,284.5,127.4,284.5,284.5c0,157.1-127.4,284.5-284.5,284.5
				c-157.1,0-284.5-127.4-284.5-284.5C-103.4,713.6,23.9,586.2,181,586.2z"/>
		</g>
	</g>
	<g transform="translate(490,805) scale(0.07,0.07)">
		<g transform="">
			<path class="st0" d="M250,586.2c157.1,0,284.5,127.4,284.5,284.5c0,157.1-127.4,284.5-284.5,284.5
				c-157.1,0-284.5-127.4-284.5-284.5C-34.5,713.6,92.9,586.2,250,586.2z"/>
		</g>
	</g>
	<g transform="translate(525,805) scale(0.07,0.07)">
		<g transform="">
			<path class="st0" d="M319,586.2c157.1,0,284.5,127.4,284.5,284.5c0,157.1-127.4,284.5-284.5,284.5
				c-157.1,0-284.5-127.4-284.5-284.5C34.5,713.6,161.9,586.2,319,586.2z"/>
		</g>
	</g>
	<g transform="translate(560,805) scale(0.07,0.07)">
		<g transform="">
			<path class="st0" d="M387.9,586.2c157.1,0,284.5,127.4,284.5,284.5c0,157.1-127.4,284.5-284.5,284.5
				c-157.1,0-284.5-127.4-284.5-284.5C103.4,713.6,230.8,586.2,387.9,586.2z"/>
		</g>
	</g>
	<g transform="translate(700,805) scale(0.07,0.07)">
		<g transform="">
			<path class="st0" d="M663.8,586.2c157.1,0,284.5,127.4,284.5,284.5c0,157.1-127.4,284.5-284.5,284.5
				c-157.1,0-284.5-127.4-284.5-284.5C379.3,713.6,506.7,586.2,663.8,586.2z"/>
		</g>
	</g>
	<g transform="translate(840,805) scale(0.07,0.07)">
		<g transform="">
			<path class="st0" d="M939.7,586.2c157.1,0,284.5,127.4,284.5,284.5c0,157.1-127.4,284.5-284.5,284.5
				c-157.1,0-284.5-127.4-284.5-284.5C655.2,713.6,782.5,586.2,939.7,586.2z"/>
		</g>
	</g>
	<g transform="translate(875,805) scale(0.07,0.07)">
		<g transform="">
			<path class="st0" d="M1008.6,586.2c157.1,0,284.5,127.4,284.5,284.5c0,157.1-127.4,284.5-284.5,284.5
				c-157.1,0-284.5-127.4-284.5-284.5C724.1,713.6,851.5,586.2,1008.6,586.2z"/>
		</g>
	</g>
	<g transform="translate(910,805) scale(0.07,0.07)">
		<g transform="">
			<path class="st0" d="M1077.6,586.2c157.1,0,284.5,127.4,284.5,284.5c0,157.1-127.4,284.5-284.5,284.5
				c-157.1,0-284.5-127.4-284.5-284.5C793.1,713.6,920.5,586.2,1077.6,586.2z"/>
		</g>
	</g>
	<g transform="translate(945,805) scale(0.07,0.07)">
		<g transform="">
			<path class="st0" d="M1146.6,586.2c157.1,0,284.5,127.4,284.5,284.5c0,157.1-127.4,284.5-284.5,284.5
				c-157.1,0-284.5-127.4-284.5-284.5C862.1,713.6,989.4,586.2,1146.6,586.2z"/>
		</g>
	</g>
	<g transform="translate(980,805) scale(0.07,0.07)">
		<g transform="">
			<path class="st0" d="M1215.5,586.2c157.1,0,284.5,127.4,284.5,284.5c0,157.1-127.4,284.5-284.5,284.5
				c-157.1,0-284.5-127.4-284.5-284.5C931,713.6,1058.4,586.2,1215.5,586.2z"/>
		</g>
	</g>
	<g transform="translate(315,840) scale(0.07,0.07)">
		<g transform="">
			<path class="st0" d="M-94.8,655.2c157.1,0,284.5,127.4,284.5,284.5c0,157.1-127.4,284.5-284.5,284.5
				c-157.1,0-284.5-127.4-284.5-284.5C-379.3,782.5-251.9,655.2-94.8,655.2z"/>
		</g>
	</g>
	<g transform="translate(350,840) scale(0.07,0.07)">
		<g transform="">
			<path class="st0" d="M-25.9,655.2c157.1,0,284.5,127.4,284.5,284.5c0,157.1-127.4,284.5-284.5,284.5
				c-157.1,0-284.5-127.4-284.5-284.5C-310.3,782.5-183,655.2-25.9,655.2z"/>
		</g>
	</g>
	<g transform="translate(490,840) scale(0.07,0.07)">
		<g transform="">
			<path class="st0" d="M250,655.2c157.1,0,284.5,127.4,284.5,284.5c0,157.1-127.4,284.5-284.5,284.5
				c-157.1,0-284.5-127.4-284.5-284.5C-34.5,782.5,92.9,655.2,250,655.2z"/>
		</g>
	</g>
	<g transform="translate(595,840) scale(0.07,0.07)">
		<g transform="">
			<path class="st0" d="M456.9,655.2c157.1,0,284.5,127.4,284.5,284.5c0,157.1-127.4,284.5-284.5,284.5
				c-157.1,0-284.5-127.4-284.5-284.5C172.4,782.5,299.8,655.2,456.9,655.2z"/>
		</g>
	</g>
	<g transform="translate(630,840) scale(0.07,0.07)">
		<g transform="">
			<path class="st0" d="M525.9,655.2c157.1,0,284.5,127.4,284.5,284.5c0,157.1-127.4,284.5-284.5,284.5
				c-157.1,0-284.5-127.4-284.5-284.5C241.4,782.5,368.7,655.2,525.9,655.2z"/>
		</g>
	</g>
	<g transform="translate(700,840) scale(0.07,0.07)">
		<g transform="">
			<path class="st0" d="M663.8,655.2c157.1,0,284.5,127.4,284.5,284.5c0,157.1-127.4,284.5-284.5,284.5
				c-157.1,0-284.5-127.4-284.5-284.5C379.3,782.5,506.7,655.2,663.8,655.2z"/>
		</g>
	</g>
	<g transform="translate(735,840) scale(0.07,0.07)">
		<g transform="">
			<path class="st0" d="M732.8,655.2c157.1,0,284.5,127.4,284.5,284.5c0,157.1-127.4,284.5-284.5,284.5
				c-157.1,0-284.5-127.4-284.5-284.5C448.3,782.5,575.6,655.2,732.8,655.2z"/>
		</g>
	</g>
	<g transform="translate(770,840) scale(0.07,0.07)">
		<g transform="">
			<path class="st0" d="M801.7,655.2c157.1,0,284.5,127.4,284.5,284.5c0,157.1-127.4,284.5-284.5,284.5
				c-157.1,0-284.5-127.4-284.5-284.5C517.2,782.5,644.6,655.2,801.7,655.2z"/>
		</g>
	</g>
	<g transform="translate(805,840) scale(0.07,0.07)">
		<g transform="">
			<path class="st0" d="M870.7,655.2c157.1,0,284.5,127.4,284.5,284.5c0,157.1-127.4,284.5-284.5,284.5
				c-157.1,0-284.5-127.4-284.5-284.5C586.2,782.5,713.6,655.2,870.7,655.2z"/>
		</g>
	</g>
	<g transform="translate(840,840) scale(0.07,0.07)">
		<g transform="">
			<path class="st0" d="M939.7,655.2c157.1,0,284.5,127.4,284.5,284.5c0,157.1-127.4,284.5-284.5,284.5
				c-157.1,0-284.5-127.4-284.5-284.5C655.2,782.5,782.5,655.2,939.7,655.2z"/>
		</g>
	</g>
	<g transform="translate(280,875) scale(0.07,0.07)">
		<g transform="">
			<path class="st0" d="M-163.8,724.1c157.1,0,284.5,127.4,284.5,284.5c0,157.1-127.4,284.5-284.5,284.5
				c-157.1,0-284.5-127.4-284.5-284.5C-448.3,851.5-320.9,724.1-163.8,724.1z"/>
		</g>
	</g>
	<g transform="translate(315,875) scale(0.07,0.07)">
		<g transform="">
			<path class="st0" d="M-94.8,724.1c157.1,0,284.5,127.4,284.5,284.5c0,157.1-127.4,284.5-284.5,284.5
				c-157.1,0-284.5-127.4-284.5-284.5C-379.3,851.5-251.9,724.1-94.8,724.1z"/>
		</g>
	</g>
	<g transform="translate(350,875) scale(0.07,0.07)">
		<g transform="">
			<path class="st0" d="M-25.9,724.1c157.1,0,284.5,127.4,284.5,284.5c0,157.1-127.4,284.5-284.5,284.5
				c-157.1,0-284.5-127.4-284.5-284.5C-310.3,851.5-183,724.1-25.9,724.1z"/>
		</g>
	</g>
	<g transform="translate(525,875) scale(0.07,0.07)">
		<g transform="">
			<path class="st0" d="M319,724.1c157.1,0,284.5,127.4,284.5,284.5c0,157.1-127.4,284.5-284.5,284.5
				c-157.1,0-284.5-127.4-284.5-284.5C34.5,851.5,161.9,724.1,319,724.1z"/>
		</g>
	</g>
	<g transform="translate(665,875) scale(0.07,0.07)">
		<g transform="">
			<path class="st0" d="M594.8,724.1c157.1,0,284.5,127.4,284.5,284.5c0,157.1-127.4,284.5-284.5,284.5
				c-157.1,0-284.5-127.4-284.5-284.5C310.3,851.5,437.7,724.1,594.8,724.1z"/>
		</g>
	</g>
	<g transform="translate(770,875) scale(0.07,0.07)">
		<g transform="">
			<path class="st0" d="M801.7,724.1c157.1,0,284.5,127.4,284.5,284.5c0,157.1-127.4,284.5-284.5,284.5
				c-157.1,0-284.5-127.4-284.5-284.5C517.2,851.5,644.6,724.1,801.7,724.1z"/>
		</g>
	</g>
	<g transform="translate(840,875) scale(0.07,0.07)">
		<g transform="">
			<path class="st0" d="M939.7,724.1c157.1,0,284.5,127.4,284.5,284.5c0,157.1-127.4,284.5-284.5,284.5
				c-157.1,0-284.5-127.4-284.5-284.5C655.2,851.5,782.5,724.1,939.7,724.1z"/>
		</g>
	</g>
	<g transform="translate(875,875) scale(0.07,0.07)">
		<g transform="">
			<path class="st0" d="M1008.6,724.1c157.1,0,284.5,127.4,284.5,284.5c0,157.1-127.4,284.5-284.5,284.5
				c-157.1,0-284.5-127.4-284.5-284.5C724.1,851.5,851.5,724.1,1008.6,724.1z"/>
		</g>
	</g>
	<g transform="translate(910,875) scale(0.07,0.07)">
		<g transform="">
			<path class="st0" d="M1077.6,724.1c157.1,0,284.5,127.4,284.5,284.5c0,157.1-127.4,284.5-284.5,284.5
				c-157.1,0-284.5-127.4-284.5-284.5C793.1,851.5,920.5,724.1,1077.6,724.1z"/>
		</g>
	</g>
	<g transform="translate(945,875) scale(0.07,0.07)">
		<g transform="">
			<path class="st0" d="M1146.6,724.1c157.1,0,284.5,127.4,284.5,284.5c0,157.1-127.4,284.5-284.5,284.5
				c-157.1,0-284.5-127.4-284.5-284.5C862.1,851.5,989.4,724.1,1146.6,724.1z"/>
		</g>
	</g>
	<g transform="translate(455,910) scale(0.07,0.07)">
		<g transform="">
			<path class="st0" d="M181,793.1c157.1,0,284.5,127.4,284.5,284.5c0,157.1-127.4,284.5-284.5,284.5
				c-157.1,0-284.5-127.4-284.5-284.5C-103.4,920.5,23.9,793.1,181,793.1z"/>
		</g>
	</g>
	<g transform="translate(490,910) scale(0.07,0.07)">
		<g transform="">
			<path class="st0" d="M250,793.1c157.1,0,284.5,127.4,284.5,284.5c0,157.1-127.4,284.5-284.5,284.5
				c-157.1,0-284.5-127.4-284.5-284.5C-34.5,920.5,92.9,793.1,250,793.1z"/>
		</g>
	</g>
	<g transform="translate(665,910) scale(0.07,0.07)">
		<g transform="">
			<path class="st0" d="M594.8,793.1c157.1,0,284.5,127.4,284.5,284.5c0,157.1-127.4,284.5-284.5,284.5
				c-157.1,0-284.5-127.4-284.5-284.5C310.3,920.5,437.7,793.1,594.8,793.1z"/>
		</g>
	</g>
	<g transform="translate(735,910) scale(0.07,0.07)">
		<g transform="">
			<path class="st0" d="M732.8,793.1c157.1,0,284.5,127.4,284.5,284.5c0,157.1-127.4,284.5-284.5,284.5
				c-157.1,0-284.5-127.4-284.5-284.5C448.3,920.5,575.6,793.1,732.8,793.1z"/>
		</g>
	</g>
	<g transform="translate(840,910) scale(0.07,0.07)">
		<g transform="">
			<path class="st0" d="M939.7,793.1c157.1,0,284.5,127.4,284.5,284.5c0,157.1-127.4,284.5-284.5,284.5
				c-157.1,0-284.5-127.4-284.5-284.5C655.2,920.5,782.5,793.1,939.7,793.1z"/>
		</g>
	</g>
	<g transform="translate(875,910) scale(0.07,0.07)">
		<g transform="">
			<path class="st0" d="M1008.6,793.1c157.1,0,284.5,127.4,284.5,284.5c0,157.1-127.4,284.5-284.5,284.5
				c-157.1,0-284.5-127.4-284.5-284.5C724.1,920.5,851.5,793.1,1008.6,793.1z"/>
		</g>
	</g>
	<g transform="translate(910,910) scale(0.07,0.07)">
		<g transform="">
			<path class="st0" d="M1077.6,793.1c157.1,0,284.5,127.4,284.5,284.5c0,157.1-127.4,284.5-284.5,284.5
				c-157.1,0-284.5-127.4-284.5-284.5C793.1,920.5,920.5,793.1,1077.6,793.1z"/>
		</g>
	</g>
	<g transform="translate(980,910) scale(0.07,0.07)">
		<g transform="">
			<path class="st0" d="M1215.5,793.1c157.1,0,284.5,127.4,284.5,284.5c0,157.1-127.4,284.5-284.5,284.5
				c-157.1,0-284.5-127.4-284.5-284.5C931,920.5,1058.4,793.1,1215.5,793.1z"/>
		</g>
	</g>
	<g transform="translate(315,945) scale(0.07,0.07)">
		<g transform="">
			<path class="st0" d="M-94.8,862.1c157.1,0,284.5,127.4,284.5,284.5c0,157.1-127.4,284.5-284.5,284.5
				c-157.1,0-284.5-127.4-284.5-284.5C-379.3,989.4-251.9,862.1-94.8,862.1z"/>
		</g>
	</g>
	<g transform="translate(350,945) scale(0.07,0.07)">
		<g transform="">
			<path class="st0" d="M-25.9,862.1c157.1,0,284.5,127.4,284.5,284.5c0,157.1-127.4,284.5-284.5,284.5
				c-157.1,0-284.5-127.4-284.5-284.5C-310.3,989.4-183,862.1-25.9,862.1z"/>
		</g>
	</g>
	<g transform="translate(490,945) scale(0.07,0.07)">
		<g transform="">
			<path class="st0" d="M250,862.1c157.1,0,284.5,127.4,284.5,284.5c0,157.1-127.4,284.5-284.5,284.5
				c-157.1,0-284.5-127.4-284.5-284.5C-34.5,989.4,92.9,862.1,250,862.1z"/>
		</g>
	</g>
	<g transform="translate(595,945) scale(0.07,0.07)">
		<g transform="">
			<path class="st0" d="M456.9,862.1c157.1,0,284.5,127.4,284.5,284.5c0,157.1-127.4,284.5-284.5,284.5
				c-157.1,0-284.5-127.4-284.5-284.5C172.4,989.4,299.8,862.1,456.9,862.1z"/>
		</g>
	</g>
	<g transform="translate(630,945) scale(0.07,0.07)">
		<g transform="">
			<path class="st0" d="M525.9,862.1c157.1,0,284.5,127.4,284.5,284.5c0,157.1-127.4,284.5-284.5,284.5
				c-157.1,0-284.5-127.4-284.5-284.5C241.4,989.4,368.7,862.1,525.9,862.1z"/>
		</g>
	</g>
	<g transform="translate(665,945) scale(0.07,0.07)">
		<g transform="">
			<path class="st0" d="M594.8,862.1c157.1,0,284.5,127.4,284.5,284.5c0,157.1-127.4,284.5-284.5,284.5
				c-157.1,0-284.5-127.4-284.5-284.5C310.3,989.4,437.7,862.1,594.8,862.1z"/>
		</g>
	</g>
	<g transform="translate(700,945) scale(0.07,0.07)">
		<g transform="">
			<path class="st0" d="M663.8,862.1c157.1,0,284.5,127.4,284.5,284.5c0,157.1-127.4,284.5-284.5,284.5
				c-157.1,0-284.5-127.4-284.5-284.5C379.3,989.4,506.7,862.1,663.8,862.1z"/>
		</g>
	</g>
	<g transform="translate(735,945) scale(0.07,0.07)">
		<g transform="">
			<path class="st0" d="M732.8,862.1c157.1,0,284.5,127.4,284.5,284.5c0,157.1-127.4,284.5-284.5,284.5
				c-157.1,0-284.5-127.4-284.5-284.5C448.3,989.4,575.6,862.1,732.8,862.1z"/>
		</g>
	</g>
	<g transform="translate(945,945) scale(0.07,0.07)">
		<g transform="">
			<path class="st0" d="M1146.6,862.1c157.1,0,284.5,127.4,284.5,284.5c0,157.1-127.4,284.5-284.5,284.5
				c-157.1,0-284.5-127.4-284.5-284.5C862.1,989.4,989.4,862.1,1146.6,862.1z"/>
		</g>
	</g>
	<g transform="translate(280,980) scale(0.07,0.07)">
		<g transform="">
			<path class="st0" d="M-163.8,931c157.1,0,284.5,127.4,284.5,284.5c0,157.1-127.4,284.5-284.5,284.5
				c-157.1,0-284.5-127.4-284.5-284.5C-448.3,1058.4-320.9,931-163.8,931z"/>
		</g>
	</g>
	<g transform="translate(315,980) scale(0.07,0.07)">
		<g transform="">
			<path class="st0" d="M-94.8,931c157.1,0,284.5,127.4,284.5,284.5c0,157.1-127.4,284.5-284.5,284.5
				c-157.1,0-284.5-127.4-284.5-284.5C-379.3,1058.4-251.9,931-94.8,931z"/>
		</g>
	</g>
	<g transform="translate(385,980) scale(0.07,0.07)">
		<g transform="">
			<path class="st0" d="M43.1,931c157.1,0,284.5,127.4,284.5,284.5c0,157.1-127.4,284.5-284.5,284.5
				c-157.1,0-284.5-127.4-284.5-284.5C-241.4,1058.4-114,931,43.1,931z"/>
		</g>
	</g>
	<g transform="translate(595,980) scale(0.07,0.07)">
		<g transform="">
			<path class="st0" d="M456.9,931c157.1,0,284.5,127.4,284.5,284.5c0,157.1-127.4,284.5-284.5,284.5
				c-157.1,0-284.5-127.4-284.5-284.5C172.4,1058.4,299.8,931,456.9,931z"/>
		</g>
	</g>
	<g transform="translate(630,980) scale(0.07,0.07)">
		<g transform="">
			<path class="st0" d="M525.9,931c157.1,0,284.5,127.4,284.5,284.5c0,157.1-127.4,284.5-284.5,284.5
				c-157.1,0-284.5-127.4-284.5-284.5C241.4,1058.4,368.7,931,525.9,931z"/>
		</g>
	</g>
	<g transform="translate(700,980) scale(0.07,0.07)">
		<g transform="">
			<path class="st0" d="M663.8,931c157.1,0,284.5,127.4,284.5,284.5c0,157.1-127.4,284.5-284.5,284.5
				c-157.1,0-284.5-127.4-284.5-284.5C379.3,1058.4,506.7,931,663.8,931z"/>
		</g>
	</g>
	<g transform="translate(735,980) scale(0.07,0.07)">
		<g transform="">
			<path class="st0" d="M732.8,931c157.1,0,284.5,127.4,284.5,284.5c0,157.1-127.4,284.5-284.5,284.5
				c-157.1,0-284.5-127.4-284.5-284.5C448.3,1058.4,575.6,931,732.8,931z"/>
		</g>
	</g>
	<g transform="translate(770,980) scale(0.07,0.07)">
		<g transform="">
			<path class="st0" d="M801.7,931c157.1,0,284.5,127.4,284.5,284.5c0,157.1-127.4,284.5-284.5,284.5
				c-157.1,0-284.5-127.4-284.5-284.5C517.2,1058.4,644.6,931,801.7,931z"/>
		</g>
	</g>
	<g transform="translate(805,980) scale(0.07,0.07)">
		<g transform="">
			<path class="st0" d="M870.7,931c157.1,0,284.5,127.4,284.5,284.5c0,157.1-127.4,284.5-284.5,284.5
				c-157.1,0-284.5-127.4-284.5-284.5C586.2,1058.4,713.6,931,870.7,931z"/>
		</g>
	</g>
	<g transform="translate(840,980) scale(0.07,0.07)">
		<g transform="">
			<path class="st0" d="M939.7,931c157.1,0,284.5,127.4,284.5,284.5c0,157.1-127.4,284.5-284.5,284.5
				c-157.1,0-284.5-127.4-284.5-284.5C655.2,1058.4,782.5,931,939.7,931z"/>
		</g>
	</g>
	<g transform="translate(945,980) scale(0.07,0.07)">
		<g transform="">
			<path class="st0" d="M1146.6,931c157.1,0,284.5,127.4,284.5,284.5c0,157.1-127.4,284.5-284.5,284.5
				c-157.1,0-284.5-127.4-284.5-284.5C862.1,1058.4,989.4,931,1146.6,931z"/>
		</g>
	</g>
	<g transform="translate(0,0) scale(2.45, 2.45)">
		<g transform="">
			<g>
				<path class="st1" d="M46.4-11.5H10.3c-4.6,0-9,1.4-12.5,3.9c-2.8,1.9-5,4.4-6.7,7.3c-1.7,3-2.6,6.5-2.6,10.2v36.9
					c0,11.8,9.8,21.3,21.8,21.3l18,0l18,0c12,0,21.8-9.6,21.8-21.3V9.8C68.2-1.9,58.4-11.5,46.4-11.5z"/>
				<path class="st0" d="M46.4-28.6H10.3l0,0C-7.3-28.6-22.2-16.9-27-1.1c-0.5,1.6-0.9,3.3-1.1,5.1c-0.3,1.9-0.4,3.9-0.4,5.8v36.9
					c0,21.2,17.4,38.4,38.9,38.4l18,0l18,0c21.4,0,38.9-17.2,38.9-38.4V9.8C85.2-11.3,67.8-28.6,46.4-28.6z M68.2,46.8
					c0,11.8-9.8,21.3-21.8,21.3l-18,0l-18,0c-12,0-21.8-9.6-21.8-21.3V9.8c0-3.7,1-7.1,2.6-10.2C-7.3-3.2-5-5.7-2.2-7.6
					c3.5-2.4,7.8-3.9,12.5-3.9h36.1c12,0,21.8,9.6,21.8,21.3V46.8z"/>
			</g>
		</g>
	</g>
	<g transform="translate(770,0) scale(2.45, 2.45)">
		<g transform="">
			<g>
				<path class="st1" d="M89.7-11.5H53.6c-4.6,0-9,1.4-12.5,3.9c-2.8,1.9-5,4.4-6.7,7.3c-1.7,3-2.6,6.5-2.6,10.2v36.9
					c0,11.8,9.8,21.3,21.8,21.3l18,0l18,0c12,0,21.8-9.6,21.8-21.3V9.8C111.5-1.9,101.7-11.5,89.7-11.5z"/>
				<path class="st0" d="M89.7-28.6H53.6l0,0C36-28.6,21.1-16.9,16.4-1.1c-0.5,1.6-0.9,3.3-1.1,5.1c-0.3,1.9-0.4,3.9-0.4,5.8v36.9
					c0,21.2,17.4,38.4,38.9,38.4l18,0l18,0c21.4,0,38.9-17.2,38.9-38.4V9.8C128.6-11.3,111.1-28.6,89.7-28.6z M111.5,46.8
					c0,11.8-9.8,21.3-21.8,21.3l-18,0l-18,0c-12,0-21.8-9.6-21.8-21.3V9.8c0-3.7,1-7.1,2.6-10.2c1.6-2.9,3.9-5.4,6.7-7.3
					c3.5-2.4,7.8-3.9,12.5-3.9h36.1c12,0,21.8,9.6,21.8,21.3V46.8z"/>
			</g>
		</g>
	</g>
	<g transform="translate(0,770) scale(2.45, 2.45)">
		<g transform="">
			<g>
				<path class="st1" d="M46.4,31.9H10.3c-4.6,0-9,1.4-12.5,3.9c-2.8,1.9-5,4.4-6.7,7.3c-1.7,3-2.6,6.5-2.6,10.2v36.9
					c0,11.8,9.8,21.3,21.8,21.3l18,0l18,0c12,0,21.8-9.6,21.8-21.3V53.2C68.2,41.4,58.4,31.9,46.4,31.9z"/>
				<path class="st0" d="M46.4,14.8H10.3l0,0c-17.6,0-32.5,11.6-37.3,27.5c-0.5,1.6-0.9,3.3-1.1,5.1c-0.3,1.9-0.4,3.9-0.4,5.8v36.9
					c0,21.2,17.4,38.4,38.9,38.4l18,0l18,0c21.4,0,38.9-17.2,38.9-38.4V53.2C85.2,32,67.8,14.8,46.4,14.8z M68.2,90.1
					c0,11.8-9.8,21.3-21.8,21.3l-18,0l-18,0c-12,0-21.8-9.6-21.8-21.3V53.2c0-3.7,1-7.1,2.6-10.2c1.6-2.9,3.9-5.4,6.7-7.3
					c3.5-2.4,7.8-3.9,12.5-3.9h36.1c12,0,21.8,9.6,21.8,21.3V90.1z"/>
			</g>
		</g>
	</g>
	<g transform="translate(70,70) scale(1.05, 1.05)">
		<g transform="">
			<g>
				<g id="XMLID_1_">
					<g>
						<path class="st0" d="M-26.3,56.3c-17.2,0-31.1-13.7-31.1-30.5V-27c0-5.3,1.4-10.2,3.8-14.5c2.3-4.2,5.6-7.7,9.5-10.4
							c5.1-3.5,11.2-5.5,17.9-5.5h51.6c17.2,0,31.1,13.7,31.1,30.5v52.8c0,16.8-14,30.5-31.1,30.5H-0.6L-26.3,56.3L-26.3,56.3z"/>
					</g>
				</g>
			</g>
		</g>
	</g>
	<g transform="translate(840,70) scale(1.05, 1.05)">
		<g transform="">
			<g>
				<g id="XMLID_00000103254166083453787760000011848894473412444546_">
					<g>
						<path class="st0" d="M74.8,56.3c-17.2,0-31.1-13.7-31.1-30.5V-27c0-5.3,1.4-10.2,3.8-14.5c2.3-4.2,5.6-7.7,9.5-10.4
							c5.1-3.5,11.2-5.5,17.9-5.5h51.6c17.2,0,31.1,13.7,31.1,30.5v52.8c0,16.8-14,30.5-31.1,30.5h-25.8L74.8,56.3L74.8,56.3z"/>
					</g>
				</g>
			</g>
		</g>
	</g>
	<g transform="translate(70,840) scale(1.05, 1.05)">
		<g transform="">
			<g>
				<g id="XMLID_00000130626982507245817900000003838914748664750511_">
					<g>
						<path class="st0" d="M-26.3,157.5c-17.2,0-31.1-13.7-31.1-30.5V74.2c0-5.3,1.4-10.2,3.8-14.5c2.3-4.2,5.6-7.7,9.5-10.4
							c5.1-3.5,11.2-5.5,17.9-5.5h51.6c17.2,0,31.1,13.7,31.1,30.5V127c0,16.8-14,30.5-31.1,30.5H-0.6L-26.3,157.5L-26.3,157.5z"/>
					</g>
				</g>
			</g>
		</g>
	</g>
</g>
</svg>
