<svg xmlns="http://www.w3.org/2000/svg" viewBox="0 0 179.01 179.03"><defs><style>.cls-1{fill:#8cd5e8;}</style></defs><g id="Layer_2" data-name="Layer 2"><g id="awareness"><g id="QR"><circle class="cls-1" cx="68.04" cy="3.6" r="3.57"/><circle class="cls-1" cx="103.85" cy="3.6" r="3.57"/><circle class="cls-1" cx="60.88" cy="10.74" r="3.57"/><circle class="cls-1" cx="68.04" cy="10.74" r="3.57"/><circle class="cls-1" cx="89.52" cy="10.74" r="3.57"/><circle class="cls-1" cx="96.68" cy="10.74" r="3.57"/><circle class="cls-1" cx="103.85" cy="10.74" r="3.57"/><circle class="cls-1" cx="110.99" cy="10.74" r="3.57"/><circle class="cls-1" cx="118.16" cy="10.74" r="3.57"/><circle class="cls-1" cx="68.04" cy="17.9" r="3.57"/><circle class="cls-1" cx="82.35" cy="17.9" r="3.57"/><circle class="cls-1" cx="118.16" cy="17.9" r="3.57"/><circle class="cls-1" cx="60.88" cy="25.07" r="3.57"/><circle class="cls-1" cx="68.04" cy="25.07" r="3.57"/><circle class="cls-1" cx="103.85" cy="25.07" r="3.57"/><circle class="cls-1" cx="110.99" cy="25.07" r="3.57"/><circle class="cls-1" cx="118.16" cy="25.07" r="3.57"/><circle class="cls-1" cx="89.52" cy="32.24" r="3.57"/><circle class="cls-1" cx="103.85" cy="32.24" r="3.57"/><circle class="cls-1" cx="60.88" cy="39.4" r="3.57"/><circle class="cls-1" cx="75.18" cy="39.4" r="3.57"/><circle class="cls-1" cx="89.52" cy="39.4" r="3.57"/><circle class="cls-1" cx="96.68" cy="39.4" r="3.57"/><circle class="cls-1" cx="103.85" cy="39.4" r="3.57"/><circle class="cls-1" cx="110.99" cy="39.4" r="3.57"/><circle class="cls-1" cx="118.16" cy="39.4" r="3.57"/><circle class="cls-1" cx="60.88" cy="46.54" r="3.57"/><circle class="cls-1" cx="75.18" cy="46.54" r="3.57"/><circle class="cls-1" cx="89.52" cy="46.54" r="3.57"/><circle class="cls-1" cx="103.85" cy="46.54" r="3.57"/><circle class="cls-1" cx="118.16" cy="46.54" r="3.57"/><circle class="cls-1" cx="82.35" cy="53.71" r="3.57"/><circle class="cls-1" cx="103.85" cy="53.71" r="3.57"/><circle class="cls-1" cx="118.16" cy="53.71" r="3.57"/><circle class="cls-1" cx="3.6" cy="60.88" r="3.57"/><circle class="cls-1" cx="10.74" cy="60.88" r="3.57"/><circle class="cls-1" cx="17.9" cy="60.88" r="3.57"/><circle class="cls-1" cx="25.07" cy="60.88" r="3.57"/><circle class="cls-1" cx="32.24" cy="60.88" r="3.57"/><circle class="cls-1" cx="46.54" cy="60.88" r="3.57"/><circle class="cls-1" cx="53.71" cy="60.88" r="3.57"/><circle class="cls-1" cx="60.88" cy="60.88" r="3.57"/><circle class="cls-1" cx="68.04" cy="60.88" r="3.57"/><circle class="cls-1" cx="75.18" cy="60.88" r="3.57"/><circle class="cls-1" cx="89.52" cy="60.88" r="3.57"/><circle class="cls-1" cx="96.68" cy="60.88" r="3.57"/><circle class="cls-1" cx="110.99" cy="60.88" r="3.57"/><circle class="cls-1" cx="125.32" cy="60.88" r="3.57"/><circle class="cls-1" cx="139.63" cy="60.88" r="3.57"/><circle class="cls-1" cx="153.96" cy="60.88" r="3.57"/><circle class="cls-1" cx="168.3" cy="60.88" r="3.57"/><circle class="cls-1" cx="3.6" cy="68.04" r="3.57"/><circle class="cls-1" cx="10.74" cy="68.04" r="3.57"/><circle class="cls-1" cx="25.07" cy="68.04" r="3.57"/><circle class="cls-1" cx="53.71" cy="68.04" r="3.57"/><circle class="cls-1" cx="68.04" cy="68.04" r="3.57"/><circle class="cls-1" cx="118.16" cy="68.04" r="3.57"/><circle class="cls-1" cx="125.32" cy="68.04" r="3.57"/><circle class="cls-1" cx="139.63" cy="68.04" r="3.57"/><circle class="cls-1" cx="146.8" cy="68.04" r="3.57"/><circle class="cls-1" cx="175.44" cy="68.04" r="3.57"/><circle class="cls-1" cx="17.9" cy="75.18" r="3.57"/><circle class="cls-1" cx="46.54" cy="75.18" r="3.57"/><circle class="cls-1" cx="68.04" cy="75.18" r="3.57"/><circle class="cls-1" cx="89.52" cy="75.18" r="3.57"/><circle class="cls-1" cx="96.68" cy="75.18" r="3.57"/><circle class="cls-1" cx="103.85" cy="75.18" r="3.57"/><circle class="cls-1" cx="125.32" cy="75.18" r="3.57"/><circle class="cls-1" cx="132.49" cy="75.18" r="3.57"/><circle class="cls-1" cx="146.8" cy="75.18" r="3.57"/><circle class="cls-1" cx="161.13" cy="75.18" r="3.57"/><circle class="cls-1" cx="10.74" cy="82.35" r="3.57"/><circle class="cls-1" cx="17.9" cy="82.35" r="3.57"/><circle class="cls-1" cx="32.24" cy="82.35" r="3.57"/><circle class="cls-1" cx="53.71" cy="82.35" r="3.57"/><circle class="cls-1" cx="68.04" cy="82.35" r="3.57"/><circle class="cls-1" cx="75.18" cy="82.35" r="3.57"/><circle class="cls-1" cx="82.35" cy="82.35" r="3.57"/><circle class="cls-1" cx="103.85" cy="82.35" r="3.57"/><circle class="cls-1" cx="118.16" cy="82.35" r="3.57"/><circle class="cls-1" cx="125.32" cy="82.35" r="3.57"/><circle class="cls-1" cx="17.9" cy="89.52" r="3.57"/><circle class="cls-1" cx="25.07" cy="89.52" r="3.57"/><circle class="cls-1" cx="32.24" cy="89.52" r="3.57"/><circle class="cls-1" cx="39.4" cy="89.52" r="3.57"/><circle class="cls-1" cx="46.54" cy="89.52" r="3.57"/><circle class="cls-1" cx="53.71" cy="89.52" r="3.57"/><circle class="cls-1" cx="60.88" cy="89.52" r="3.57"/><circle class="cls-1" cx="68.04" cy="89.52" r="3.57"/><circle class="cls-1" cx="96.68" cy="89.52" r="3.57"/><circle class="cls-1" cx="103.85" cy="89.52" r="3.57"/><circle class="cls-1" cx="110.99" cy="89.52" r="3.57"/><circle class="cls-1" cx="118.16" cy="89.52" r="3.57"/><circle class="cls-1" cx="125.32" cy="89.52" r="3.57"/><circle class="cls-1" cx="132.49" cy="89.52" r="3.57"/><circle class="cls-1" cx="139.63" cy="89.52" r="3.57"/><circle class="cls-1" cx="146.8" cy="89.52" r="3.57"/><circle class="cls-1" cx="153.96" cy="89.52" r="3.57"/><circle class="cls-1" cx="168.3" cy="89.52" r="3.57"/><circle class="cls-1" cx="175.44" cy="89.52" r="3.57"/><circle class="cls-1" cx="3.6" cy="96.68" r="3.57"/><circle class="cls-1" cx="25.07" cy="96.68" r="3.57"/><circle class="cls-1" cx="32.24" cy="96.68" r="3.57"/><circle class="cls-1" cx="39.4" cy="96.68" r="3.57"/><circle class="cls-1" cx="60.88" cy="96.68" r="3.57"/><circle class="cls-1" cx="68.04" cy="96.68" r="3.57"/><circle class="cls-1" cx="75.18" cy="96.68" r="3.57"/><circle class="cls-1" cx="82.35" cy="96.68" r="3.57"/><circle class="cls-1" cx="118.16" cy="96.68" r="3.57"/><circle class="cls-1" cx="125.32" cy="96.68" r="3.57"/><circle class="cls-1" cx="132.49" cy="96.68" r="3.57"/><circle class="cls-1" cx="139.63" cy="96.68" r="3.57"/><circle class="cls-1" cx="146.8" cy="96.68" r="3.57"/><circle class="cls-1" cx="175.44" cy="96.68" r="3.57"/><circle class="cls-1" cx="3.6" cy="103.85" r="3.57"/><circle class="cls-1" cx="25.07" cy="103.85" r="3.57"/><circle class="cls-1" cx="32.24" cy="103.85" r="3.57"/><circle class="cls-1" cx="39.4" cy="103.85" r="3.57"/><circle class="cls-1" cx="46.54" cy="103.85" r="3.57"/><circle class="cls-1" cx="53.71" cy="103.85" r="3.57"/><circle class="cls-1" cx="60.88" cy="103.85" r="3.57"/><circle class="cls-1" cx="82.35" cy="103.85" r="3.57"/><circle class="cls-1" cx="89.52" cy="103.85" r="3.57"/><circle class="cls-1" cx="96.68" cy="103.85" r="3.57"/><circle class="cls-1" cx="103.85" cy="103.85" r="3.57"/><circle class="cls-1" cx="125.32" cy="103.85" r="3.57"/><circle class="cls-1" cx="132.49" cy="103.85" r="3.57"/><circle class="cls-1" cx="146.8" cy="103.85" r="3.57"/><circle class="cls-1" cx="161.13" cy="103.85" r="3.57"/><circle class="cls-1" cx="168.3" cy="103.85" r="3.57"/><circle class="cls-1" cx="3.6" cy="110.99" r="3.57"/><circle class="cls-1" cx="32.24" cy="110.99" r="3.57"/><circle class="cls-1" cx="39.4" cy="110.99" r="3.57"/><circle class="cls-1" cx="60.88" cy="110.99" r="3.57"/><circle class="cls-1" cx="75.18" cy="110.99" r="3.57"/><circle class="cls-1" cx="82.35" cy="110.99" r="3.57"/><circle class="cls-1" cx="89.52" cy="110.99" r="3.57"/><circle class="cls-1" cx="118.16" cy="110.99" r="3.57"/><circle class="cls-1" cx="125.32" cy="110.99" r="3.57"/><circle class="cls-1" cx="168.3" cy="110.99" r="3.57"/><circle class="cls-1" cx="175.44" cy="110.99" r="3.57"/><circle class="cls-1" cx="3.6" cy="118.16" r="3.57"/><circle class="cls-1" cx="17.9" cy="118.16" r="3.57"/><circle class="cls-1" cx="25.07" cy="118.16" r="3.57"/><circle class="cls-1" cx="39.4" cy="118.16" r="3.57"/><circle class="cls-1" cx="46.54" cy="118.16" r="3.57"/><circle class="cls-1" cx="53.71" cy="118.16" r="3.57"/><circle class="cls-1" cx="68.04" cy="118.16" r="3.57"/><circle class="cls-1" cx="75.18" cy="118.16" r="3.57"/><circle class="cls-1" cx="103.85" cy="118.16" r="3.57"/><circle class="cls-1" cx="110.99" cy="118.16" r="3.57"/><circle class="cls-1" cx="118.16" cy="118.16" r="3.57"/><circle class="cls-1" cx="125.32" cy="118.16" r="3.57"/><circle class="cls-1" cx="132.49" cy="118.16" r="3.57"/><circle class="cls-1" cx="139.63" cy="118.16" r="3.57"/><circle class="cls-1" cx="146.8" cy="118.16" r="3.57"/><circle class="cls-1" cx="153.96" cy="118.16" r="3.57"/><circle class="cls-1" cx="175.44" cy="118.16" r="3.57"/><circle class="cls-1" cx="60.88" cy="125.32" r="3.57"/><circle class="cls-1" cx="75.18" cy="125.32" r="3.57"/><circle class="cls-1" cx="82.35" cy="125.32" r="3.57"/><circle class="cls-1" cx="103.85" cy="125.32" r="3.57"/><circle class="cls-1" cx="118.16" cy="125.32" r="3.57"/><circle class="cls-1" cx="146.8" cy="125.32" r="3.57"/><circle class="cls-1" cx="175.44" cy="125.32" r="3.57"/><circle class="cls-1" cx="60.88" cy="132.49" r="3.57"/><circle class="cls-1" cx="68.04" cy="132.49" r="3.57"/><circle class="cls-1" cx="75.18" cy="132.49" r="3.57"/><circle class="cls-1" cx="89.52" cy="132.49" r="3.57"/><circle class="cls-1" cx="96.68" cy="132.49" r="3.57"/><circle class="cls-1" cx="110.99" cy="132.49" r="3.57"/><circle class="cls-1" cx="118.16" cy="132.49" r="3.57"/><circle class="cls-1" cx="132.49" cy="132.49" r="3.57"/><circle class="cls-1" cx="146.8" cy="132.49" r="3.57"/><circle class="cls-1" cx="161.13" cy="132.49" r="3.57"/><circle class="cls-1" cx="168.3" cy="132.49" r="3.57"/><circle class="cls-1" cx="175.44" cy="132.49" r="3.57"/><circle class="cls-1" cx="82.35" cy="139.63" r="3.57"/><circle class="cls-1" cx="96.68" cy="139.63" r="3.57"/><circle class="cls-1" cx="110.99" cy="139.63" r="3.57"/><circle class="cls-1" cx="118.16" cy="139.63" r="3.57"/><circle class="cls-1" cx="146.8" cy="139.63" r="3.57"/><circle class="cls-1" cx="153.96" cy="139.63" r="3.57"/><circle class="cls-1" cx="60.88" cy="146.8" r="3.57"/><circle class="cls-1" cx="68.04" cy="146.8" r="3.57"/><circle class="cls-1" cx="75.18" cy="146.8" r="3.57"/><circle class="cls-1" cx="89.52" cy="146.8" r="3.57"/><circle class="cls-1" cx="96.68" cy="146.8" r="3.57"/><circle class="cls-1" cx="103.85" cy="146.8" r="3.57"/><circle class="cls-1" cx="118.16" cy="146.8" r="3.57"/><circle class="cls-1" cx="125.32" cy="146.8" r="3.57"/><circle class="cls-1" cx="132.49" cy="146.8" r="3.57"/><circle class="cls-1" cx="139.63" cy="146.8" r="3.57"/><circle class="cls-1" cx="146.8" cy="146.8" r="3.57"/><circle class="cls-1" cx="153.96" cy="146.8" r="3.57"/><circle class="cls-1" cx="60.88" cy="153.96" r="3.57"/><circle class="cls-1" cx="68.04" cy="153.96" r="3.57"/><circle class="cls-1" cx="82.35" cy="153.96" r="3.57"/><circle class="cls-1" cx="89.52" cy="153.96" r="3.57"/><circle class="cls-1" cx="110.99" cy="153.96" r="3.57"/><circle class="cls-1" cx="118.16" cy="153.96" r="3.57"/><circle class="cls-1" cx="132.49" cy="153.96" r="3.57"/><circle class="cls-1" cx="146.8" cy="153.96" r="3.57"/><circle class="cls-1" cx="168.3" cy="153.96" r="3.57"/><circle class="cls-1" cx="175.44" cy="153.96" r="3.57"/><circle class="cls-1" cx="60.88" cy="161.13" r="3.57"/><circle class="cls-1" cx="68.04" cy="161.13" r="3.57"/><circle class="cls-1" cx="96.68" cy="161.13" r="3.57"/><circle class="cls-1" cx="103.85" cy="161.13" r="3.57"/><circle class="cls-1" cx="132.49" cy="161.13" r="3.57"/><circle class="cls-1" cx="146.8" cy="161.13" r="3.57"/><circle class="cls-1" cx="161.13" cy="161.13" r="3.57"/><circle class="cls-1" cx="175.44" cy="161.13" r="3.57"/><circle class="cls-1" cx="60.88" cy="168.3" r="3.57"/><circle class="cls-1" cx="68.04" cy="168.3" r="3.57"/><circle class="cls-1" cx="82.35" cy="168.3" r="3.57"/><circle class="cls-1" cx="96.68" cy="168.3" r="3.57"/><circle class="cls-1" cx="110.99" cy="168.3" r="3.57"/><circle class="cls-1" cx="125.32" cy="168.3" r="3.57"/><circle class="cls-1" cx="132.49" cy="168.3" r="3.57"/><circle class="cls-1" cx="139.63" cy="168.3" r="3.57"/><circle class="cls-1" cx="146.8" cy="168.3" r="3.57"/><circle class="cls-1" cx="153.96" cy="168.3" r="3.57"/><circle class="cls-1" cx="168.3" cy="168.3" r="3.57"/><circle class="cls-1" cx="60.88" cy="175.44" r="3.57"/><circle class="cls-1" cx="68.04" cy="175.44" r="3.57"/><circle class="cls-1" cx="75.18" cy="175.44" r="3.57"/><circle class="cls-1" cx="96.68" cy="175.44" r="3.57"/><circle class="cls-1" cx="103.85" cy="175.44" r="3.57"/><circle class="cls-1" cx="118.16" cy="175.44" r="3.57"/><circle class="cls-1" cx="161.13" cy="175.44" r="3.57"/><circle class="cls-1" cx="168.3" cy="175.44" r="3.57"/><circle class="cls-1" cx="175.44" cy="175.44" r="3.57"/><path class="cls-1" d="M35,0H15.15A15.17,15.17,0,0,0,0,15.15V35A15.18,15.18,0,0,0,15.15,50.14H35A15.13,15.13,0,0,0,50.11,35V15.15A15.13,15.13,0,0,0,35,0Zm8,32.16A10.81,10.81,0,0,1,32.16,43H18A10.81,10.81,0,0,1,7.17,32.16V18A10.81,10.81,0,0,1,18,7.17H32.13A10.81,10.81,0,0,1,43,18V32.16Z"/><path class="cls-1" d="M35.81,29.32a6.49,6.49,0,0,1-6.49,6.49h-8.5a6.49,6.49,0,0,1-6.49-6.49v-8.5a6.49,6.49,0,0,1,6.49-6.49h8.5a6.49,6.49,0,0,1,6.49,6.49v8.5Z"/><path class="cls-1" d="M163.89,0H144.07a15.18,15.18,0,0,0-15.18,15.15V35A15.14,15.14,0,0,0,144,50.11h19.82A15.13,15.13,0,0,0,179,35V15.15A15.13,15.13,0,0,0,163.89,0Zm8,32.16A10.82,10.82,0,0,1,161.05,43H146.9a10.81,10.81,0,0,1-10.81-10.81V18A10.81,10.81,0,0,1,146.9,7.17h14.15A10.81,10.81,0,0,1,171.87,18Z"/><path class="cls-1" d="M164.7,29.32a6.48,6.48,0,0,1-6.48,6.49h-8.51a6.49,6.49,0,0,1-6.48-6.49v-8.5a6.48,6.48,0,0,1,6.48-6.49h8.51a6.49,6.49,0,0,1,6.48,6.49v8.5Z"/><path class="cls-1" d="M35,128.89H15.15A15.18,15.18,0,0,0,0,144.07v19.82A15.16,15.16,0,0,0,15.15,179H35a15.13,15.13,0,0,0,15.14-15.14V144.07A15.14,15.14,0,0,0,35,128.89Zm8,32.16a10.81,10.81,0,0,1-10.81,10.82H18A10.82,10.82,0,0,1,7.17,161.05V146.9A10.81,10.81,0,0,1,18,136.09H32.13A10.81,10.81,0,0,1,43,146.9v14.15Z"/><path class="cls-1" d="M35.81,158.22a6.49,6.49,0,0,1-6.49,6.48h-8.5a6.48,6.48,0,0,1-6.49-6.48v-8.51a6.49,6.49,0,0,1,6.49-6.48h8.5a6.48,6.48,0,0,1,6.49,6.48v8.51Z"/></g></g></g></svg>