<svg xmlns="http://www.w3.org/2000/svg" viewBox="0 0 238.34 148.55"><defs><style>.cls-1{fill:#3d537b;}.cls-2{fill:#eb6194;}</style></defs><g id="Layer_2" data-name="Layer 2"><g id="awareness"><path class="cls-1" d="M21.69,2l-.93,8.17-2.57,2.56V7.31l-5.83-3.5V14.55L6.05,30.43l-2.8,4.9V41.4L1.62,46.07,0,48.64,1.62,53.3,0,57l2.32,6.54,2.1,2.8-.93,3.27L5.35,72l-.7,2,3.74,9.45-1.17,2.8,4.67,2.33,8.64,8.64,1.16,4.2L32.9,103l18,10.74,10,1.59h4.44v-2.29L74,114l7.7,7.7,1.4,4.91,6.77,4.67,2.8-3.74,1.87-2.1,5.14,1.63,4.43,5.37,7.47,12.61,10.27,3.5-2.5-7.94,3.54-5.83,6.9-3.27,5.14-4.2,6.3-1.87,6.07.7,2.57-1.87,3.73,2.8,3.27-.23,2.8-1.63,3,1.86,1.63-.7-3.58-2.18,1.95-2-2.41-1.4,4-1.71,4.75.31a54.41,54.41,0,0,1,5.52-2.1c.39.08,5.84.78,5.84.78l1.95,2.1,3.81-1.4,1.63-2.26,3.35,1,3.58,3.43h1.55l1.48,7.93,4.36,4.21,4.36,4.66,5.21,2.65,2.49-2.72-1.55-9.26L207.29,120l-6.07-9.18.15-7.31,4.52-5.92,7.78-10.5.93-3,4.67-3.27-1.09-3,2.88-2.64-2.18-2.8L211.8,57.19,213,53.93l.39,4.43,3,3.82s2-.71,2-.94.23-3.73.23-3.73l-3.19-2.88,3.89.31,1-5.92-.7-3-1.17.08,3.35-5.45,7.16-3.19-.47-2,3-.23,2.8-1.87-1.71-1.94-1,1.94-2.18-3,.15-1.4-1.32-2.11,1.09-5.52,3-1.95.39-3.42,2.49-1.09,3.12-3.42-1.17-1.95-3.58-2.72L230.16,0h-5.91l-1.4,6.15.23,6.38-2.1,4L210.4,20.78l-2.65,1.16L204,28.4l.7,3.19-2.34,2.65-6.07.54-2.56,2.1s1.55,2.11,1.63,2.34-4.43,5.21-4.59,5.45-2.88,2-2.88,2l-2.57,2.8-3.89,1.17L178,49.88l1.32-5.45,1-.62-1.48-6.07-2.25-2-1.71,2.88-1.85.15,2.23-5-.93-4.51-6.3-1.87.15-1.32,2.57-.24-3.19-2.49-2.18-1.4-4.51,1.87L159.12,25a17.63,17.63,0,0,1-2.88-.08l-2-2-2.73-.31-.7-.94-3.11,3.43-2.1.31-.78,1.09-1.63-.16-.08-1.87-4.67,1.79,8.48-8-6.15-.55-2.18.86-6.06-3.19-2.42,1.24-4-2.17-1.56-.32L99,14.4,72.28,13,46.13,8.64Z"/><polygon class="cls-2" points="20.76 10.12 18.19 12.68 18.19 7.32 12.36 3.81 12.36 14.55 6.05 30.43 3.25 35.33 3.25 41.4 1.62 46.07 0 48.63 1.62 53.3 0 57.04 2.32 63.58 4.42 66.38 3.49 69.65 5.35 71.98 4.65 73.97 8.39 83.42 7.22 86.22 11.89 88.56 20.53 97.19 21.7 101.39 32.9 103.03 50.88 113.77 60.91 115.36 65.35 115.36 65.35 113.07 70.45 113.62 21.46 3.98 20.76 10.12"/></g></g></svg>