<svg xmlns="http://www.w3.org/2000/svg" viewBox="0 0 265.16 141.96"><defs><style>.cls-1{fill:none;}.cls-2{fill:#0084c3;}.cls-3{fill:#eb6194;}.cls-4{fill:#e11964;}</style></defs><g id="Layer_2" data-name="Layer 2"><g id="awareness"><path class="cls-1" d="M87.64,37.3c1.17-1.56,2.6-3.7,4.89-4.54l-.59-1.44a11.85,11.85,0,0,1-3.37,2.2C86.51,34.31,86,39.43,87.64,37.3Z"/><path class="cls-1" d="M82.25,28.2l-1.79.13s-3.39,10.83-2.13,13,1.13-1.73,3.26-3.32-.33-2.39-.33-2.39l1.66-1.53s-.27,2.46.46,1.86,5.4-5.26,7.91-6.17l-3.94-9.61A6.84,6.84,0,0,0,85.91,22S84.12,23.28,82.25,28.2Z"/><path class="cls-2" d="M89.1,18.63c-1.73-1.13,1.79-3.59,3.45-4.38s3-3.33,4.46-3.79,5-3.12,5-3.12a1.43,1.43,0,0,1-1.06-1.73c.13-1.53,4.51-.6,4.51-.6,3.46.47,7.58-.2,3.59-3.32S95.81.69,93.42.89,89.1,2.55,86.91,3.28A17.61,17.61,0,0,0,81.7,6.36l5.65,13.77A19.24,19.24,0,0,1,89.1,18.63Z"/><path class="cls-2" d="M92.15,29.6a2.07,2.07,0,0,0-.86.14l.65,1.58C92.81,30.49,93.17,29.73,92.15,29.6Z"/><path class="cls-2" d="M264.25,86.74l-2.19-.4s-6.71-4.85-4.79-5.25,2-1.26.4-1.86-3.59-3-5.58-1.59-4.39-3.86-4.39-3.86c4.86,3.39,4.79-1.92,4.79-1.92,3.19,6.18,3.85.73,3.85.73,1.13.06-.79-6.12-2.32-7.84s-2.06-3.26-.27-4.92-.53-5-3.06-2.46-1.86.8-5.24,1.2-1.8,1.13-5,4-3.52,2.33-4.25-.73-3.12-1.92-5.32-.8-3.45,1.53-4.91.27S218.87,61,217.6,60s1.13-4.52.14-8,.4-4,3-7.51-4.45.8-5.45-.66-3.12-1.13-3.12-1.13c-.67,1.39-1.67,1.06-1.67,1.06-1.72-.2-4.31,1.93-4.31,1.93-4.85,4.32-19,2.33-19,2.33-2.92-1.53-3.19-.14-3.19-.14l-2.52.07c-2.86,2-7.58,1.46-7.58,1.46,0-2.19-4.25,1.26-4.25,1.26-3.39,4.32-9.3,5-9.3,5l-2.46,2.93-2.06.33-.33,2-1.93,1.6c-.26,3.52-1.86,1.19-1.86,1.19l.13-1.66L149.43,62,149,59.7h-2.73c0,.59-1,3-2.12,2.92s-1.86-2.06-1.86-2.06c-2.73-.2-1.87-1.2-3.06-3.19s-3.26-.6-3.26-.6a3.3,3.3,0,0,0-2.92,2l-1.86-.8-1.46.53a1.75,1.75,0,0,1-2.53.07c-1.39.86-1.73.13-1.73.13l-2.59-.27s.34-1.79-.6-2.52.14-1.93.14-1.93l.13-.93c-2.72.33-3.39-1.13-3.39-1.13l-.06-1.73-2.53-1.86.13-1.46-2.26-2.26V41.69s-3.32-3.85-3.85-3.39-1.73.07-1.73.07l.07-1.73-1.4-1.26a2,2,0,0,1-1.79,1.46c-1.59.26.4-2,.4-2-1.26.06-6.71-1.93-10.77-2.4a6.21,6.21,0,0,0-2.81.31l33.76,82.29a5.1,5.1,0,0,0,1.68-2.46,12.19,12.19,0,0,1,4.85-5.72c1.33-.73,3.26-2.66,2.33-5.18s2-4,2.65-6.31,3.92-2.26,1.33,1.39-1.06,4.12-1.06,4.12c-.47,4.45,1.39,6.85,1.39,6.85s.74-1.8,1.67-1.47,3.78-2.12,3.78-2.12l.07-2.06,1.59-1.4.27-4.12c1.73-1.72,6.11,4.65,6.51,1.2a2.87,2.87,0,0,1,3.59-2.72l-.33,3.12-1.73,3.25c-3.39-.59-2.26,2.46-2.26,2.46-1.33.67-1.79,2.93-1.79,2.93s-2.86.66,1.06,4.45-1.59-3.26,1.73-2.93-.33-3,1.79-2.92,2.79-.2,1.93-1.66.2-.73,2.26-.73a1.86,1.86,0,0,0,2.06-1.8l3.12-.13s.47-7.44,2.59-8.9,7-1.13,9.57-1.13,4.92,2.39,4.92,2.39c-.93-2.79,4.52-4.45,7.17-2.79s4.39.2,5-1.2a15.26,15.26,0,0,1,3.39-5.18c2.32-2.59,6.57-.73,6.57-.73,2.46-3.65,4.52,1.66,4.52,1.66l4.39.2,9.3,4.39a32,32,0,0,0,5.32,6.64c3.12,2.86,5,.73,5,.73-1.2-.2-1.66-1.86-1.66-1.86-1.2-5.58-.14-4.32,1.39-5.71s-.53-1.13-.2-2.86.93-1.53,3.66-.27,2.72.8,3.39,3,.4-1.19,1.26-.59a3.82,3.82,0,0,0,1.93.59c-.34-3.39.86-2.12.86-2.12,3.79,5.45,5.58,1,5.58,1,.33,1.53,2.73,3.86,2.73,3.86-.74-.73.39-2.66.39-2.66,1.73-2.33,7.51.86,11.3.66S264.25,86.74,264.25,86.74Z"/><path class="cls-3" d="M87.64,37.3c-1.6,2.13-1.13-3,.93-3.78a11.85,11.85,0,0,0,3.37-2.2l-.65-1.58c-2.51.91-7.26,5.64-7.91,6.17s-.46-1.86-.46-1.86l-1.66,1.53s2.46.79.33,2.39-2,5.45-3.26,3.32,2.13-13,2.13-13l1.79-.13C84.12,23.28,85.91,22,85.91,22a6.84,6.84,0,0,1,1.44-1.82L81.7,6.36c-.19.15-.36.31-.51.45-1.13,1.06-3.06,5.38-6.11,6.11a8.83,8.83,0,0,0-4.72,2.39,22.27,22.27,0,0,1-4.72,3.39,6.76,6.76,0,0,0-4.18,4.65c-1.07,3-5.91,3.6-8.19,3.6s-4.57,3.42-7.42,5.7a12.89,12.89,0,0,1-3.92,1.91L64.79,85.5c1.29-.25,3.51,1,3.51,1s.8,2.13,3.79.14,3.72,1.06,3.72,1.06l5.38.2,1.6,2,3-.2.46.87s5.91-.93,5.65,2.26,2.92-.4,1.33,2.32-4.79.6-1.73,3.92,1.79.07,4,.67,2.12,4.58,3.59,2.79,3.05,1.33,4.78,2.72-.73,2.46-.73,2.46l.07,1.26c5.84,4.45-.6,4.59-.6,4.59,4.25,5.18-1.07,7.9-1.07,7.9.07,2.93-.73,2.26-.73,3.46s.93,1.86,1.66,1.33a2.32,2.32,0,0,1,2.53.26c.46.47,1.39-.13,1.39-.13s1.53-3.45,3.19-1.39-2.26,6.57-3,9.76a3.29,3.29,0,0,0,2.32,4.06c.34,2.26,3.86,3.85,3.26,2.92s-.4-4.19,2.59-6.25,10.43-16.61,11-19a3.73,3.73,0,0,1,.58-1.39L92.53,32.76C90.24,33.6,88.81,35.74,87.64,37.3Z"/><path class="cls-4" d="M31,35.5c-4-1.14-6.84.57-12,5.14s-6.28,4.56-6.28,4.56l-4,.57c-4,2.28-4,.57-6.84,1.71a3,3,0,0,0-1.71,4l3.15-.94.14,2.06,1.59.13.07,1.33L7,54c1.66,1.13,3.12,7.44,3.12,7.44l.07,2.46S47.44,76.37,52.15,78.1s9.91,7.11,9.91,7.11,1.12,1.66,2.12.6a1.12,1.12,0,0,1,.61-.31L41.93,34.56C38.38,35.73,33.76,36.28,31,35.5Z"/></g></g></svg>