<svg id="Layer_1" data-name="Layer 1" xmlns="http://www.w3.org/2000/svg" viewBox="0 0 100 100"><defs><style>.cls-1{fill:#ea6194;}.cls-2{fill:#0484c3;}.cls-3{fill:#59b0d8;}</style></defs><path class="cls-1" d="M45.51,45.51l2.22,20.58a20.36,20.36,0,0,1-2.22.12,20.7,20.7,0,1,1,20.7-20.7Z"/><path class="cls-2" d="M45.51,77.57A32.06,32.06,0,1,1,77.57,45.51,32.09,32.09,0,0,1,45.51,77.57Zm0-54.6A22.55,22.55,0,1,0,68.06,45.51,22.56,22.56,0,0,0,45.51,23Z"/><path class="cls-3" d="M81.79,86.54a4.71,4.71,0,0,1-3.36-1.39L67.78,74.5a4.75,4.75,0,0,1,6.72-6.72L85.15,78.43a4.75,4.75,0,0,1-3.36,8.11Z"/></svg>