<svg xmlns="http://www.w3.org/2000/svg" viewBox="0 0 569.18 494.6"><defs><style>.cls-1{fill:#5ab0d9;}.cls-2{fill:#fff;stroke:#fff;stroke-miterlimit:10;stroke-width:0.5px;}</style></defs><g id="Layer_2" data-name="Layer 2"><g id="Layer_1-2" data-name="Layer 1"><path class="cls-1" d="M563,494.6H6.14A6.12,6.12,0,0,1,0,488.2C9.65,283.68,119.34,105.32,281.22,1a6.14,6.14,0,0,1,8.66,2.07L568.35,485.39A6.14,6.14,0,0,1,563,494.6Z"/><path class="cls-2" d="M155.37,347.23H136.25c-.31,0-.47-.15-.47-.43V345c0-.29.16-.43.47-.43H139V324.08h-2.74c-.31,0-.47-.14-.47-.43v-1.84c0-.29.16-.43.47-.43h19.12c.31,0,.46.14.46.43v5.8a.41.41,0,0,1-.46.47h-2c-.29,0-.43-.16-.43-.47v-3.53H142.12V333h9.11c.31,0,.46.14.46.43v1.84c0,.28-.15.43-.46.43h-9.11v8.82H153V341c0-.29.16-.43.47-.43h2c.31,0,.46.14.46.43v5.8C155.83,347.08,155.68,347.23,155.37,347.23Z"/><path class="cls-2" d="M188.49,347.23h-8.32a.38.38,0,0,1-.43-.43V345a.38.38,0,0,1,.43-.43h2.41V326.6h0l-6.84,17a1.7,1.7,0,0,1-3.17,0l-6.84-17h-.07v17.93H168c.31,0,.47.14.47.43v1.84c0,.28-.16.43-.47.43h-8.28c-.31,0-.47-.15-.47-.43V345c0-.29.16-.43.47-.43h2.73V324.08h-2.73c-.31,0-.47-.14-.47-.43v-1.84c0-.29.16-.43.47-.43h5.54A1.69,1.69,0,0,1,167,322.6l5.37,13,1.69,4.54h.14q1-2.81,1.66-4.46l5.4-13a1.73,1.73,0,0,1,1.73-1.22h5.51a.38.38,0,0,1,.43.43v1.84a.38.38,0,0,1-.43.43h-2.78v20.45h2.78a.38.38,0,0,1,.43.43v1.84A.39.39,0,0,1,188.49,347.23Z"/><path class="cls-2" d="M216.24,334.18a13.3,13.3,0,0,1-3.54,9.61,12.66,12.66,0,0,1-17.91,0,13.24,13.24,0,0,1-3.6-9.61,12.4,12.4,0,0,1,12.56-13,12.27,12.27,0,0,1,8.82,3.55A12.54,12.54,0,0,1,216.24,334.18Zm-18.92,7.63a8.87,8.87,0,0,0,12.84,0,10.28,10.28,0,0,0,2.73-7.56,10,10,0,0,0-2.79-7.52,8.8,8.8,0,0,0-12.72,0,10,10,0,0,0-2.81,7.52A10.25,10.25,0,0,0,197.32,341.81Z"/><path class="cls-2" d="M233.09,347.23H224.7a.42.42,0,0,1-.47-.47V345a.41.41,0,0,1,.47-.47h2.74V324.08h-6.81v3.82a.44.44,0,0,1-.5.5h-2a.44.44,0,0,1-.5-.5v-6c0-.31.17-.47.5-.47h21.71c.34,0,.51.16.51.47v6a.45.45,0,0,1-.51.5h-2c-.31,0-.47-.17-.47-.5v-3.82h-6.73v20.45h2.52c.34,0,.5.15.5.47v1.76C233.59,347.07,233.43,347.23,233.09,347.23Z"/><path class="cls-2" d="M252.64,347.23H244c-.31,0-.47-.15-.47-.43V345c0-.29.16-.43.47-.43h2.73V324.08H244c-.31,0-.47-.14-.47-.43v-1.84c0-.29.16-.43.47-.43h8.64c.31,0,.47.14.47.43v1.84c0,.29-.16.43-.47.43h-2.77v20.45h2.77c.31,0,.47.14.47.43v1.84C253.11,347.08,253,347.23,252.64,347.23Z"/><path class="cls-2" d="M280.43,334.18a13.26,13.26,0,0,1-3.55,9.61,11.85,11.85,0,0,1-8.92,3.69,12,12,0,0,1-9-3.73,13.24,13.24,0,0,1-3.6-9.61,12.42,12.42,0,0,1,12.57-13,12.27,12.27,0,0,1,8.82,3.55A12.54,12.54,0,0,1,280.43,334.18Zm-18.92,7.63a8.87,8.87,0,0,0,12.84,0,10.28,10.28,0,0,0,2.73-7.56,10,10,0,0,0-2.79-7.52,8.8,8.8,0,0,0-12.72,0,10,10,0,0,0-2.81,7.52A10.25,10.25,0,0,0,261.51,341.81Z"/><path class="cls-2" d="M304.62,347.23h-1.94a1.88,1.88,0,0,1-1.08-.27,2.8,2.8,0,0,1-.76-.85l-10.4-16.27-1.8-3h-.07v17.71h2.77c.31,0,.47.14.47.43v1.84c0,.28-.16.43-.47.43H282.7c-.31,0-.47-.15-.47-.43V345c0-.29.16-.43.47-.43h2.73V324.08H282.7c-.31,0-.47-.14-.47-.43v-1.84c0-.29.16-.43.47-.43h5a2.25,2.25,0,0,1,1.84,1.22l10.26,16.06,2.05,3.49H302V324.08h-2.77a.38.38,0,0,1-.43-.43v-1.84a.38.38,0,0,1,.43-.43h8.67a.38.38,0,0,1,.44.43v1.84a.38.38,0,0,1-.44.43h-2.77V346.8C305.09,347.08,304.93,347.23,304.62,347.23Z"/><path class="cls-2" d="M335.08,347.23h-8.14a.38.38,0,0,1-.43-.43V345a.38.38,0,0,1,.43-.43h2.52l-2.34-6.23h-10l-2.34,6.23h2.52a.38.38,0,0,1,.43.43v1.84a.38.38,0,0,1-.43.43h-8.1a.38.38,0,0,1-.43-.43V345a.38.38,0,0,1,.43-.43h2.41l7.74-20.45h-1.94c-.32,0-.47-.14-.47-.43v-1.84c0-.29.15-.43.47-.43h4.89a2.08,2.08,0,0,1,1.32.36,2.85,2.85,0,0,1,.77,1.19l8.28,21.6h2.45a.38.38,0,0,1,.43.43v1.84A.38.38,0,0,1,335.08,347.23Zm-8.93-11.41-4-10.7h-.1l-4,10.7Z"/><path class="cls-2" d="M356.93,347.23H337.24c-.31,0-.47-.15-.47-.43V345c0-.29.16-.43.47-.43H340V324.08h-2.73c-.31,0-.47-.14-.47-.43v-1.84c0-.29.16-.43.47-.43h8.6a.42.42,0,0,1,.47.47v1.76a.42.42,0,0,1-.47.47h-2.73v20.45h11.44V341c0-.29.16-.43.47-.43h2a.38.38,0,0,1,.43.43v5.76A.42.42,0,0,1,356.93,347.23Z"/></g></g></svg>