<svg xmlns="http://www.w3.org/2000/svg" viewBox="0 0 569.18 494.6"><defs><style>.cls-1{fill:#1c3664;}.cls-2{fill:#fff;stroke:#fff;stroke-miterlimit:10;stroke-width:0.5px;}</style></defs><g id="Layer_2" data-name="Layer 2"><g id="Layer_1-2" data-name="Layer 1"><path class="cls-1" d="M563,494.6H6.15a6.14,6.14,0,0,1-5.32-9.21L279.3,3.06A6.15,6.15,0,0,1,288,1C449.85,105.32,559.53,283.68,569.18,488.2A6.13,6.13,0,0,1,563,494.6Z"/><path class="cls-2" d="M244.45,347.23h-9.4c-.31,0-.47-.15-.47-.43V345c0-.29.16-.43.47-.43h2.74V324.08h-2.74c-.31,0-.47-.14-.47-.43v-1.84c0-.29.16-.43.47-.43h11.09a8.93,8.93,0,0,1,6.24,2.21,7.7,7.7,0,0,1,2.43,6,7.32,7.32,0,0,1-2.37,5.83,9.89,9.89,0,0,1-6.7,2.07h-4.82v7.06h3.53a.38.38,0,0,1,.43.43v1.84A.39.39,0,0,1,244.45,347.23Zm-3.53-12.31h4.68q6,0,6.05-5.33a5,5,0,0,0-1.71-4.14,6.7,6.7,0,0,0-4.31-1.37h-4.71Z"/><path class="cls-2" d="M282.35,347.23h-8.67a.38.38,0,0,1-.43-.43V345a.38.38,0,0,1,.43-.43h2.77v-8.82H263.06v8.82h2.77c.31,0,.47.14.47.43v1.84c0,.28-.16.43-.47.43h-8.64c-.31,0-.47-.15-.47-.43V345c0-.29.16-.43.47-.43h2.74V324.08h-2.74c-.31,0-.47-.14-.47-.43v-1.84c0-.29.16-.43.47-.43h8.64c.31,0,.47.14.47.43v1.84c0,.29-.16.43-.47.43h-2.77v9h13.39v-9h-2.77a.38.38,0,0,1-.43-.43v-1.84a.38.38,0,0,1,.43-.43h8.67a.38.38,0,0,1,.44.43v1.84a.38.38,0,0,1-.44.43h-2.77v20.45h2.77a.38.38,0,0,1,.44.43v1.84A.39.39,0,0,1,282.35,347.23Z"/><path class="cls-2" d="M301.51,347.23h-8.68a.38.38,0,0,1-.43-.43V345a.38.38,0,0,1,.43-.43h2.77v-7.71l-1.44-2.48q-4.68-8.31-6-10.26H285.7c-.31,0-.47-.14-.47-.43v-1.84c0-.29.16-.43.47-.43h8.1a.38.38,0,0,1,.43.43v1.84a.38.38,0,0,1-.43.43h-2.37l5.65,10h.21l5.62-10h-2.38a.38.38,0,0,1-.43-.43v-1.84a.38.38,0,0,1,.43-.43h8.14a.38.38,0,0,1,.43.43v1.84a.38.38,0,0,1-.43.43h-2.49q-1.76,2.6-4.59,7.63t-2.86,5.08v7.74h2.78a.38.38,0,0,1,.43.43v1.84A.39.39,0,0,1,301.51,347.23Z"/><path class="cls-2" d="M313.71,347.23h-2c-.31,0-.47-.15-.47-.43v-8.43a.42.42,0,0,1,.47-.47H314c.29,0,.43.16.43.47v.76a3.53,3.53,0,0,0,.83,1.82,11,11,0,0,0,1.66,1.85,7.28,7.28,0,0,0,2.21,1.24,8.42,8.42,0,0,0,3,.52,7.19,7.19,0,0,0,4.34-1.15,3.75,3.75,0,0,0,1.56-3.2,2.73,2.73,0,0,0-.88-2,6.46,6.46,0,0,0-2.29-1.35c-.93-.33-2-.64-3.11-.93s-2.28-.62-3.42-1a18.07,18.07,0,0,1-3.11-1.33,6.32,6.32,0,0,1-2.29-2.16,5.94,5.94,0,0,1-.88-3.26,6.35,6.35,0,0,1,2.28-5,9.06,9.06,0,0,1,6.14-2q4.86,0,7.13,2.85l-.07-2.23c0-.29.15-.44.47-.44h2a.38.38,0,0,1,.43.44v7.84a.38.38,0,0,1-.43.44h-2.27a.39.39,0,0,1-.43-.44v-1a4.2,4.2,0,0,0-1.65-3,7,7,0,0,0-4.87-1.51,6,6,0,0,0-3.83,1.13,3.53,3.53,0,0,0-1.46,2.9,3,3,0,0,0,.9,2.16,6.46,6.46,0,0,0,2.34,1.44,32.25,32.25,0,0,0,3.17,1c1.15.3,2.31.63,3.46,1a19.42,19.42,0,0,1,3.17,1.29,6.38,6.38,0,0,1,2.33,2.07,5.41,5.41,0,0,1,.91,3.12,6.74,6.74,0,0,1-2.27,5.22q-2.26,2.06-6.77,2.05a10.24,10.24,0,0,1-5.47-1.33,9.41,9.41,0,0,1-3.13-2.88l0,3.53A.38.38,0,0,1,313.71,347.23Z"/><path class="cls-2" d="M344.06,347.23h-8.64c-.32,0-.47-.15-.47-.43V345c0-.29.15-.43.47-.43h2.73V324.08h-2.73c-.32,0-.47-.14-.47-.43v-1.84c0-.29.15-.43.47-.43h8.64c.31,0,.46.14.46.43v1.84c0,.29-.15.43-.46.43h-2.77v20.45h2.77c.31,0,.46.14.46.43v1.84C344.52,347.08,344.37,347.23,344.06,347.23Z"/><path class="cls-2" d="M370.16,340.71a.43.43,0,0,1,.18.34,1.43,1.43,0,0,1-.16.54,7.51,7.51,0,0,1-.54.9,12,12,0,0,1-1.35,1.53,11.42,11.42,0,0,1-2.13,1.68,12.47,12.47,0,0,1-3,1.24,14.68,14.68,0,0,1-4.05.54,11.63,11.63,0,0,1-8.77-3.67,13.36,13.36,0,0,1-3.51-9.63,12.81,12.81,0,0,1,3.55-9.49,11.68,11.68,0,0,1,8.55-3.53q5.58,0,8.1,3.86l0-3.21c0-.29.1-.43.44-.43h2c.31,0,.47.14.47.43v7.85a.42.42,0,0,1-.47.47h-2.27c-.28,0-.43-.16-.43-.47v-.32c0-1.11-.75-2.25-2.25-3.44a8.71,8.71,0,0,0-5.6-1.78,8.4,8.4,0,0,0-6,2.64c-1.78,1.77-2.68,4.26-2.68,7.49s.9,5.74,2.7,7.52a8.7,8.7,0,0,0,6.34,2.69,9.82,9.82,0,0,0,6.19-1.77,10,10,0,0,0,2.59-2.77c.19-.36.42-.43.69-.22Z"/><path class="cls-2" d="M397.55,347.23h-8.13a.38.38,0,0,1-.43-.43V345a.38.38,0,0,1,.43-.43h2.52l-2.34-6.23H379.55l-2.34,6.23h2.52a.38.38,0,0,1,.44.43v1.84a.39.39,0,0,1-.44.43h-8.1a.39.39,0,0,1-.43-.43V345a.38.38,0,0,1,.43-.43h2.42l7.74-20.45h-2c-.31,0-.47-.14-.47-.43v-1.84c0-.29.16-.43.47-.43h4.9a2.06,2.06,0,0,1,1.31.36,2.86,2.86,0,0,1,.78,1.19l8.28,21.6h2.44a.38.38,0,0,1,.44.43v1.84A.39.39,0,0,1,397.55,347.23Zm-8.92-11.41-4-10.7h-.11l-4,10.7Z"/><path class="cls-2" d="M419.41,347.23h-19.7c-.31,0-.46-.15-.46-.43V345c0-.29.15-.43.46-.43h2.74V324.08h-2.74c-.31,0-.46-.14-.46-.43v-1.84c0-.29.15-.43.46-.43h8.61a.42.42,0,0,1,.47.47v1.76a.42.42,0,0,1-.47.47h-2.74v20.45H417V341c0-.29.16-.43.47-.43h1.94a.38.38,0,0,1,.43.43v5.76A.41.41,0,0,1,419.41,347.23Z"/></g></g></svg>