<svg xmlns="http://www.w3.org/2000/svg" viewBox="0 0 569.18 494.61"><defs><style>.cls-1{fill:#1c3664;}.cls-2{fill:#fff;stroke:#fff;stroke-miterlimit:10;stroke-width:0.5px;}</style></defs><g id="Layer_2" data-name="Layer 2"><g id="Layer_1-2" data-name="Layer 1"><path class="cls-1" d="M568.35,9.21,289.87,491.55a6.14,6.14,0,0,1-8.66,2.07C119.33,389.28,9.65,210.93,0,6.4A6.12,6.12,0,0,1,6.14,0H563A6.14,6.14,0,0,1,568.35,9.21Z"/><path class="cls-2" d="M152.36,197.05h-2c-.32,0-.47-.14-.47-.43v-8.43c0-.31.15-.46.47-.46h2.26c.29,0,.44.15.44.46V189a3.46,3.46,0,0,0,.82,1.82,11.9,11.9,0,0,0,1.66,1.85,7.08,7.08,0,0,0,2.21,1.24,8.46,8.46,0,0,0,3,.53,7.19,7.19,0,0,0,4.34-1.16,3.74,3.74,0,0,0,1.56-3.2,2.73,2.73,0,0,0-.88-2,6.35,6.35,0,0,0-2.28-1.34c-.94-.34-2-.65-3.12-.94s-2.28-.62-3.42-1a18.07,18.07,0,0,1-3.11-1.33,6.32,6.32,0,0,1-2.29-2.16,5.94,5.94,0,0,1-.88-3.26,6.31,6.31,0,0,1,2.29-5,9,9,0,0,1,6.13-2c3.24,0,5.62.94,7.13,2.84l-.07-2.23c0-.29.16-.43.47-.43h2a.38.38,0,0,1,.44.43v7.85a.39.39,0,0,1-.44.43h-2.26a.39.39,0,0,1-.44-.43v-1a4.2,4.2,0,0,0-1.65-3,7,7,0,0,0-4.86-1.51,6.13,6.13,0,0,0-3.84,1.13,3.52,3.52,0,0,0-1.45,2.9,3,3,0,0,0,.9,2.16,6.46,6.46,0,0,0,2.34,1.44,32,32,0,0,0,3.16,1c1.16.3,2.31.63,3.46,1a18.58,18.58,0,0,1,3.17,1.3,6.32,6.32,0,0,1,2.34,2.07,5.35,5.35,0,0,1,.9,3.11,6.74,6.74,0,0,1-2.27,5.22q-2.26,2.06-6.77,2.05a10.24,10.24,0,0,1-5.47-1.33,9.5,9.5,0,0,1-3.13-2.88l0,3.53A.38.38,0,0,1,152.36,197.05Z"/><path class="cls-2" d="M183.47,197.05h-9.4c-.31,0-.47-.14-.47-.43v-1.84c0-.29.16-.43.47-.43h2.74V173.9h-2.74c-.31,0-.47-.14-.47-.43v-1.84c0-.28.16-.43.47-.43h11.09a8.89,8.89,0,0,1,6.24,2.22,7.66,7.66,0,0,1,2.43,6,7.32,7.32,0,0,1-2.37,5.83,9.89,9.89,0,0,1-6.7,2.07h-4.82v7.06h3.53a.38.38,0,0,1,.43.43v1.84A.38.38,0,0,1,183.47,197.05Zm-3.53-12.31h4.68q6,0,6-5.33a5,5,0,0,0-1.71-4.14,6.7,6.7,0,0,0-4.31-1.37h-4.71Z"/><path class="cls-2" d="M204.85,197.05h-8.64c-.31,0-.47-.14-.47-.43v-1.84c0-.29.16-.43.47-.43H199V173.9h-2.74c-.31,0-.47-.14-.47-.43v-1.84c0-.28.16-.43.47-.43h8.64c.31,0,.47.15.47.43v1.84c0,.29-.16.43-.47.43h-2.77v20.45h2.77c.31,0,.47.14.47.43v1.84C205.32,196.91,205.16,197.05,204.85,197.05Z"/><path class="cls-2" d="M230.45,197.05h-3.14c-.86,0-1.58-.58-2.16-1.73l-3.38-6.87a4.22,4.22,0,0,0-.92-1.34,2.1,2.1,0,0,0-1.35-.46h-4.57v7.7h3.24a.38.38,0,0,1,.43.43v1.84a.38.38,0,0,1-.43.43h-9.11c-.31,0-.47-.14-.47-.43v-1.84c0-.29.16-.43.47-.43h2.74V173.9h-2.74c-.31,0-.47-.14-.47-.43v-1.84c0-.28.16-.43.47-.43h11.09a9.34,9.34,0,0,1,6.26,2,7.09,7.09,0,0,1,2.42,5.74q0,5.66-5.3,7.05a8.45,8.45,0,0,1,1.7,2.42l3,5.9h2.2a.38.38,0,0,1,.43.43v1.84A.38.38,0,0,1,230.45,197.05Zm-15.52-13h4.61q6.12,0,6.12-5,0-5.19-6.12-5.19h-4.61Z"/><path class="cls-2" d="M242.87,197.05h-8.64c-.32,0-.47-.14-.47-.43v-1.84c0-.29.15-.43.47-.43H237V173.9h-2.73c-.32,0-.47-.14-.47-.43v-1.84c0-.28.15-.43.47-.43h8.64c.31,0,.46.15.46.43v1.84c0,.29-.15.43-.46.43h-2.78v20.45h2.78c.31,0,.46.14.46.43v1.84C243.33,196.91,243.18,197.05,242.87,197.05Z"/><path class="cls-2" d="M262.27,197.05h-8.39a.42.42,0,0,1-.47-.47v-1.76a.42.42,0,0,1,.47-.47h2.74V173.9h-6.81v3.82a.44.44,0,0,1-.5.5h-2a.45.45,0,0,1-.51-.5v-6.05c0-.31.17-.47.51-.47H269c.34,0,.51.16.51.47v6.05a.45.45,0,0,1-.51.5H267c-.31,0-.47-.17-.47-.5V173.9h-6.73v20.45h2.52c.34,0,.5.16.5.47v1.76C262.77,196.89,262.61,197.05,262.27,197.05Z"/><path class="cls-2" d="M292.22,187.69V173.9h-2.77a.38.38,0,0,1-.43-.43v-1.84a.38.38,0,0,1,.43-.43h8.68a.39.39,0,0,1,.43.43v1.84a.38.38,0,0,1-.43.43h-2.78v13.47q0,4.86-2.53,7.39a11.4,11.4,0,0,1-14.35,0c-1.7-1.69-2.56-4.15-2.56-7.39V173.9h-2.73c-.31,0-.47-.14-.47-.43v-1.84c0-.28.16-.43.47-.43h8.64c.31,0,.47.15.47.43v1.84c0,.29-.16.43-.47.43h-2.77v13.57q0,6.92,6.62,6.92c2.26,0,3.91-.6,5-1.79A7.14,7.14,0,0,0,292.22,187.69Z"/><path class="cls-2" d="M323.94,197.05H315.8a.38.38,0,0,1-.43-.43v-1.84a.38.38,0,0,1,.43-.43h2.52L316,188.12h-10l-2.34,6.23h2.52a.38.38,0,0,1,.43.43v1.84a.38.38,0,0,1-.43.43H298a.38.38,0,0,1-.43-.43v-1.84a.38.38,0,0,1,.43-.43h2.41l7.74-20.45h-1.94c-.31,0-.47-.14-.47-.43v-1.84c0-.28.16-.43.47-.43h4.89a2.08,2.08,0,0,1,1.32.36,2.76,2.76,0,0,1,.77,1.19l8.28,21.6h2.45a.38.38,0,0,1,.43.43v1.84A.38.38,0,0,1,323.94,197.05ZM315,185.64,311,175h-.1l-4,10.69Z"/><path class="cls-2" d="M345.79,197.05H326.1c-.31,0-.47-.14-.47-.43v-1.84c0-.29.16-.43.47-.43h2.73V173.9H326.1c-.31,0-.47-.14-.47-.43v-1.84c0-.28.16-.43.47-.43h8.6a.42.42,0,0,1,.47.47v1.76a.41.41,0,0,1-.47.47H332v20.45h11.44v-3.53c0-.29.16-.43.47-.43h1.95a.38.38,0,0,1,.43.43v5.76A.42.42,0,0,1,345.79,197.05Z"/></g></g></svg>