<svg xmlns="http://www.w3.org/2000/svg" viewBox="0 0 300.45 379.18"><defs><style>.cls-1{fill:#1c3664;}.cls-2{fill:#0484c3;}.cls-3{fill:#8cd5e8;}.cls-4{fill:#c8ebf4;}.cls-5{fill:#1b3764;}</style></defs><g id="Layer_2" data-name="Layer 2"><g id="Lockups"><g id="dark"><g id="logo"><path class="cls-1" d="M74.16,58.35A29.6,29.6,0,0,1,54.28,78.71l-.13,0A127.12,127.12,0,0,1,7.71,84.07,7.2,7.2,0,0,0,0,91.56c.63,16,2.06,36.93,5.31,61.22C15.45,228.39,24.4,295.26,73.05,340.21c12.55,11.6,34.43,27.92,70,38a26.43,26.43,0,0,0,7.22,1V0A78.77,78.77,0,0,0,74.16,58.35Z"/><path class="cls-2" d="M292.74,84.07a127.07,127.07,0,0,1-46.43-5.32,29.86,29.86,0,0,1-20.05-20.53A78.77,78.77,0,0,0,150.23,0V379.18a26.31,26.31,0,0,0,7.21-1c35.53-10.05,57.41-26.37,70-38,48.65-44.95,57.61-111.82,67.73-187.43,3.25-24.29,4.68-45.25,5.32-61.22A7.22,7.22,0,0,0,292.74,84.07Z"/><path class="cls-3" d="M76.24,94.26l-4.79,2.66a52.42,52.42,0,0,1-9.86,4.26l-.39.12a147.17,147.17,0,0,1-32.65,6.24,4,4,0,0,0-3.73,4.27c.93,12.62,2.24,25.33,3.92,37.84,5.08,38,9.81,73.19,19.37,103.76a5.18,5.18,0,0,0,4.94,3.6h0a10.16,10.16,0,0,1,7.32,3.12l33.77,35.29A10.15,10.15,0,0,1,97,302.89l-1,22.49a6.18,6.18,0,0,0,2.39,5.2c14.38,11,31.53,19.31,51.15,24.87a3,3,0,0,0,.79.1V154.36A75.62,75.62,0,0,1,76.24,94.26Z"/><path class="cls-4" d="M224.2,94.26,229,96.92a52.7,52.7,0,0,0,9.86,4.26l.39.12a147.17,147.17,0,0,0,32.65,6.24,4,4,0,0,1,3.73,4.27c-.93,12.62-2.24,25.33-3.92,37.84-5.08,38-9.81,73.19-19.37,103.76a5.18,5.18,0,0,1-4.94,3.6h0a10.16,10.16,0,0,0-7.32,3.12L206.3,295.42a10.15,10.15,0,0,0-2.81,7.47l1,22.49a6.18,6.18,0,0,1-2.39,5.2c-14.38,11-31.53,19.31-51.15,24.87a3,3,0,0,1-.79.1V154.36A75.61,75.61,0,0,0,224.2,94.26Z"/><path class="cls-1" d="M112.32,340l4.58,2.47.08.05a8.32,8.32,0,0,0,9.74-1.73l15.8-16.12a10.81,10.81,0,0,1,7.7-3.23h0v34.16l-15.75,8.29Z"/><path class="cls-2" d="M188.12,340l-4.57,2.47-.07,0a8.29,8.29,0,0,1-9.77-1.77l-15.46-16a10.83,10.83,0,0,0-7.76-3.29h-.27v34.16L166,363.84Z"/><path class="cls-3" d="M150.21,77.18V22.61a54.57,54.57,0,0,0,0,109.13Z"/><path class="cls-4" d="M150.21,77.18v54.56a54.57,54.57,0,1,0,0-109.13Z"/><path class="cls-2" d="M150.21,116.68a39.51,39.51,0,1,1,39.51-39.5A39.55,39.55,0,0,1,150.21,116.68Zm0-69a29.51,29.51,0,1,0,29.51,29.51A29.54,29.54,0,0,0,150.21,47.67Z"/><path class="cls-5" d="M67.2,239.74v-62.4l24.11.06c15-.86,27.8,7.36,26.83,23.73L117.3,242c.67,17.6-15.35,21-28,12.82A107.11,107.11,0,0,1,67.2,239.74ZM100.48,204c.17-6.49-4.28-8-9.62-8.68-2.65-.33-4-.5-6.6-.86q-.45,19.67-.89,39.34c2.55,1.19,3.84,1.75,6.43,2.81,5.25,2.15,9.76,2.53,9.92-3.61Q100.11,218.51,100.48,204Z"/><path class="cls-5" d="M157.5,254.58a126.74,126.74,0,0,1-19.29-.3c-1.33,6-2,9.06-3.33,15a66.84,66.84,0,0,1-18.82-3.7c8.55-29.21,16.32-58.6,23.6-88.15a87.42,87.42,0,0,1,16.81,0c7.25,29.92,15,59.7,23.43,89.3a67.29,67.29,0,0,1-19.11,3C159.46,263.75,158.8,260.7,157.5,254.58Zm-9.58-47c-2.14,10.68-3.24,16-5.46,26.61,4.33.17,6.51.19,10.85.13C151.11,223.69,150,218.33,147.92,207.62Z"/><path class="cls-5" d="M183.64,265.82q-.9-44.17-1.82-88.37l24.12,0c11.1,0,27.27,2.48,27.31,16.65v28.87c-.19,14.58-12.8,27.73-25.33,33.62A106.14,106.14,0,0,1,183.64,265.82Zm32.71-64.54c-.13-5.84-4.57-6.19-9.93-5.57-2.65.31-4,.45-6.65.72q.58,21.9,1.15,43.8c2.66-.89,4-1.36,6.6-2.37,5.29-2,9.54-5,9.41-10.53C216.7,216.91,216.58,211.7,216.35,201.28Z"/></g></g></g></g></svg>