<?xml version="1.0" encoding="utf-8"?>
<!-- Generator: Adobe Illustrator 27.2.0, SVG Export Plug-In . SVG Version: 6.00 Build 0)  -->
<svg version="1.1" id="Layer_1" xmlns="http://www.w3.org/2000/svg" xmlns:xlink="http://www.w3.org/1999/xlink" x="0px" y="0px"
	 viewBox="0 0 91 34.8" style="enable-background:new 0 0 91 34.8;" xml:space="preserve">
<style type="text/css">
	.st0{enable-background:new    ;}
	.st1{fill:#4B6496;}
</style>
<g id="Layer_2_00000156577246510914237850000009891592228248991913_">
	<g id="_3">
		<g id="Header">
			<g id="logo_small">
				<g class="st0">
					<g>
						<path class="st1" d="M24.7,5.5v12.9c0,1.8-0.4,3.4-1.3,4.7c-0.9,1.3-2,2.3-3.5,3c-1.4,0.7-3,1.1-4.8,1.1
							c-1.7,0-3.3-0.4-4.8-1.1s-2.6-1.7-3.5-3s-1.3-2.9-1.3-4.7V5.5h5.9V18c0,1.1,0.3,2,0.9,2.7c0.6,0.7,1.5,1,2.8,1
							c1.3,0,2.2-0.4,2.8-1.1c0.6-0.7,0.9-1.6,0.9-2.7V5.5H24.7z"/>
					</g>
				</g>
				<g class="st0">
					<g>
						<path class="st1" d="M38.4,5.6c1.1,0,2.1,0.2,3.1,0.5c1,0.4,1.9,0.9,2.8,1.6c0.8,0.7,1.5,1.5,2,2.5c0.5,1,0.7,2.1,0.7,3.3
							c0,1.6-0.4,3-1.1,4.2c-0.8,1.2-1.7,2.1-3,2.7c-1.2,0.6-2.5,0.9-3.9,0.9c-0.8,0-1.5-0.1-2.1-0.2c-0.6-0.2-1.2-0.4-1.6-0.6v6.3
							h-5.9V5.6H38.4z M35.3,11.1V16c0.4,0.1,0.7,0.2,1.2,0.3c0.4,0.1,0.8,0.1,1.3,0.1c0.9,0,1.7-0.3,2.3-0.9c0.6-0.6,0.9-1.2,0.9-2
							c0-0.9-0.3-1.5-0.9-1.9c-0.6-0.4-1.4-0.6-2.3-0.6H35.3z"/>
					</g>
				</g>
				<g class="st0">
					<g>
						<path class="st1" d="M57.1,5.6v15.9h9.5v5.2H51.2V5.6H57.1z"/>
					</g>
				</g>
				<g class="st0">
					<g>
						<path class="st1" d="M77.7,5.1c1.2,0,2.5,0.2,3.7,0.5c1.2,0.3,2.2,0.7,2.9,1.2v5.7c-0.9-0.5-1.8-1-2.7-1.4
							c-0.9-0.4-1.9-0.6-3.1-0.6c-0.7,0-1.3,0.1-1.8,0.3c-0.5,0.2-0.8,0.6-0.8,1c0,0.5,0.3,0.9,0.9,1.2c0.6,0.3,1.4,0.6,2.2,0.9
							l2.3,0.9c1.5,0.6,2.6,1.4,3.3,2.4c0.6,1,1,2,1,3c0,1.3-0.4,2.5-1.2,3.6c-0.8,1-1.8,1.9-3.2,2.5c-1.3,0.6-2.8,0.9-4.5,0.9
							c-1.3,0-2.5-0.2-3.8-0.7s-2.3-1-3.3-1.6v-5.7c1,0.8,2.1,1.4,3.3,1.9c1.2,0.5,2.3,0.7,3.5,0.7c0.7,0,1.3-0.1,1.8-0.3
							c0.5-0.2,0.7-0.5,0.7-0.9c0-0.3-0.2-0.6-0.5-0.8c-0.3-0.2-0.8-0.4-1.4-0.6l-3-0.9c-1.2-0.4-2.1-0.9-2.7-1.5s-1.1-1.4-1.4-2.2
							c-0.3-0.8-0.4-1.6-0.4-2.5c0-1.5,0.4-2.8,1.1-3.8c0.8-1,1.7-1.8,3-2.3C75.1,5.4,76.4,5.1,77.7,5.1z"/>
					</g>
				</g>
				<g>
					<path class="st1" d="M91,32.3H0V0h91V32.3z M2,30.3h87V2H2V30.3z"/>
				</g>
			</g>
		</g>
	</g>
</g>
</svg>
