<?xml version="1.0" encoding="utf-8"?>
<!-- Generator: Adobe Illustrator 26.0.0, SVG Export Plug-In . SVG Version: 6.00 Build 0)  -->
<svg version="1.1" id="Layer_1" xmlns="http://www.w3.org/2000/svg" xmlns:xlink="http://www.w3.org/1999/xlink" x="0px" y="0px"
	 viewBox="0 0 399 207" style="enable-background:new 0 0 399 207;" xml:space="preserve">
<style type="text/css">
	.st0{fill:#FFB419;}
	.st1{opacity:0.35;fill:#4B6496;}
	.st2{fill:#4B6496;}
	.st3{fill:#4B6496;stroke:#4B6496;stroke-miterlimit:10;}
</style>
<g>
	<g>
		<path class="st0" d="M395.1,100.1L395.1,100.1c1.1,6.2-3,12.1-9.2,13.2l-52.1,9.4l-21.1-19.2L381.9,91
			C388.1,89.9,394,93.9,395.1,100.1z"/>
		<path class="st1" d="M395.1,100.1L395.1,100.1c1.1,6.2-3,12.1-9.2,13.2l-52.1,9.4l-21.1-19.2L381.9,91
			C388.1,89.9,394,93.9,395.1,100.1z"/>
	</g>
	<g>
		<path id="FullUP_00000083776018478451174150000009840784042372986544_" class="st2" d="M7.1,75.1c0,0-1.7-4.2,2.5-5.8
			s4.2,0.8,10-2.5l5.8-0.8c0,0,1.7,0,9.2-6.7s11.7-9.1,17.5-7.5c5.8,1.7,17.5-0.8,21.7-4.2c4.2-3.3,7.5-8.3,10.9-8.3
			s10.4-0.9,12-5.2c1.6-4.4,3.3-5.4,6.1-6.8s6.1-4.2,6.9-4.9s2.4-2.4,6.9-3.5s7.3-7.4,9-8.9s5.2-4.1,8.4-5.1s6-3.2,9.5-3.5
			c3.5-0.3,17-3.4,22.9,1.2s-0.2,5.5-5.3,4.8c0,0-6.4-1.4-6.6,0.9s1.6,2.5,1.6,2.5s-5.2,3.9-7.3,4.6c-2.1,0.7-4.1,4.4-6.5,5.5
			c-2.4,1.2-7.6,4.7-5.1,6.4c0,0-3.7,2.7-4.7,4.8c0,0-2.6,1.9-5.4,9.1l-2.6,0.2c0,0-5,15.8-3.1,18.9c1.8,3.1,1.7-2.5,4.8-4.8
			c3.1-2.3-0.5-3.5-0.5-3.5l2.4-2.2c0,0-0.4,3.6,0.7,2.7c1.1-0.9,9.8-9.6,12.8-9.2c3,0.4-2.2,4.6-5.3,5.7c-3,1.2-3.7,8.6-1.4,5.5
			c2.3-3.1,5.4-7.8,11.3-7.1c5.9,0.7,13.9,3.6,15.8,3.5c0,0-2.9,3.3-0.6,2.9c2.3-0.4,2.6-2.1,2.6-2.1l2,1.8l-0.1,2.5
			c0,0,1.8,0.6,2.5-0.1c0.8-0.7,5.6,4.9,5.6,4.9v4.3l3.3,3.3l-0.2,2.1l3.7,2.7l0.1,2.5c0,0,1,2.1,5,1.6l-0.2,1.4
			c0,0-1.6,1.7-0.2,2.8s0.9,3.7,0.9,3.7l3.8,0.4c0,0,0.5,1.1,2.5-0.2c0,0,2,1.8,3.7-0.1l2.1-0.8l2.7,1.2c0,0,1.2-2.9,4.3-2.9
			c0,0,3-2,4.8,0.9c1.8,2.9,0.5,4.4,4.5,4.7c0,0,1.1,2.9,2.7,3s3.1-3.4,3.1-4.3h4l0.7,3.3l3.5,0.1l-0.2,2.4c0,0,2.3,3.4,2.7-1.7
			l2.8-2.3l0.5-2.9l3-0.5l3.6-4.3c0,0,8.7-1.1,13.6-7.4c0,0,6.2-5,6.2-1.8c0,0,6.9,0.8,11.1-2.1l3.7-0.1c0,0,0.4-2,4.7,0.2
			c0,0,20.7,2.9,27.8-3.4c0,0,3.8-3.1,6.3-2.8c0,0,1.5,0.5,2.4-1.6c0,0,3.1-0.5,4.6,1.6c1.5,2.1,11.8-4.2,8,1
			c-3.8,5.1-5.8,5.8-4.4,10.9c1.5,5.1-2,10.3-0.2,11.7c1.8,1.5,10.1,0.1,12.3,1.9c2.1,1.8,4,1.3,7.2-0.4c3.2-1.6,6.7-3.3,7.8,1.2
			c1.1,4.5,1.6,5.2,6.2,1.1c4.7-4.2,2.3-5.2,7.3-5.8s4,1.9,7.7-1.7c3.7-3.7,7.1,1.2,4.5,3.6s-1.8,4.7,0.4,7.2
			c2.2,2.5,5.1,11.5,3.4,11.4c0,0-1,7.9-5.6-1.1c0,0,0.1,7.8-7,2.8c0,0,3.5,7.7,6.4,5.6s5.8,1.5,8.2,2.3s2.2,2.1-0.6,2.7
			s7,7.7,7,7.7l3.2,0.6c0,0,3.9,4.7-1.7,5s-14-4.4-16.5-1c0,0-1.7,2.8-0.6,3.9c0,0-3.5-3.4-4-5.6c0,0-2.6,6.5-8.2-1.5
			c0,0-1.8-1.8-1.3,3.1c0,0-1.6,0-2.8-0.9s-0.9,4.1-1.8,0.9c-1-3.2-1-2.5-5-4.4c-4-1.8-4.9-2.1-5.4,0.4c-0.5,2.5,2.5,2.1,0.3,4.2
			c-2.2,2-3.8,0.2-2,8.3c0,0,0.7,2.4,2.4,2.7c0,0-2.7,3.1-7.3-1.1c-4.6-4.2-7.8-9.7-7.8-9.7l-13.6-6.4l-6.4-0.3c0,0-3-7.8-6.6-2.4
			c0,0-6.2-2.7-9.6,1.1c-3.4,3.8-4.1,5.5-5,7.6c-0.9,2-3.4,4.2-7.3,1.7c-3.9-2.4-11.9,0-10.5,4.1c0,0-3.4-3.5-7.2-3.5
			c-3.8,0-10.9-0.5-14,1.6c-3.1,2.1-3.8,13-3.8,13l-4.6,0.2c0,0,0,2.6-3,2.6c-3,0-4.6-1.1-3.3,1.1c1.3,2.1,0.3,2.5-2.8,2.4
			c-3.1-0.1,2.2,4.7-2.6,4.3s3.2,9.8-2.5,4.3c-5.7-5.5-1.6-6.5-1.6-6.5s0.7-3.3,2.6-4.3c0,0-1.7-4.5,3.3-3.6l2.5-4.7l0.5-4.6
			c0,0-4.7-1.1-5.3,4s-7-4.3-9.5-1.7l-0.4,6l-2.3,2l-0.1,3c0,0-4.2,3.6-5.5,3.1c-1.4-0.5-2.4,2.1-2.4,2.1s-2.7-3.5-2-10
			c0,0-2.2-0.7,1.6-6c3.8-5.3-1-5.4-1.9-2c-1,3.4-5.3,5.5-3.9,9.2c1.4,3.7-1.5,6.5-3.4,7.6c-1.9,1.1-5.7,4.5-7.1,8.3
			s-2.4,2.1-3.3,5.6s-11.8,24.7-16.2,27.7c-4.4,3-4.7,7.8-3.8,9.1c0.9,1.4-4.3-1-4.8-4.3c0,0-4.6-1.3-3.4-5.9
			c1.2-4.7,6.9-11.2,4.5-14.2s-4.7,2-4.7,2s-1.4,0.9-2,0.2c-0.7-0.7-2.6-1.2-3.7-0.4s-2.4-0.2-2.4-1.9s1.2-0.8,1.1-5
			c0,0,7.8-4,1.6-11.5c0,0,9.4-0.2,0.9-6.7l-0.1-1.8c0,0,3.6-1.6,1.1-3.6c-2.5-2-4.9-6.6-7-4c-2.1,2.6-2-3.2-5.3-4.1s-1.4,3.9-5.8-1
			c-4.5-4.8,0.2-1.7,2.5-5.7c2.3-4-2.3,1.3-1.9-3.4c0.4-4.7-8.3-3.3-8.3-3.3l-0.7-1.3l-4.4,0.3l-2.3-2.9l-7.9-0.3
			c0,0-1.1-4.5-5.5-1.6c-4.4,2.9-5.5-0.2-5.5-0.2s-4.6-2.5-6-1c-1.5,1.6-3.1-0.9-3.1-0.9s-7.6-7.8-14.5-10.4
			c-6.9-2.5-61.4-20.7-61.4-20.7l-0.1-3.6c0,0-2.1-9.2-4.6-10.9l-2.7,0.1l-0.1-1.9l-2.3-0.2l-0.2-3L7.1,75.1z"/>
	</g>
	<path id="white_00000032633082244351224500000009524385637325899652_" class="st0" d="M395.1,100.1L395.1,100.1
		c-1.1-6.2-7.1-10.3-13.3-9.1l0,0L22.2,156.2c-6.2,1.1-12.2-3-13.3-9.2l-5.5-30l365-66c9.4-1.7,18.5,4.5,20.2,13.9L395.1,100.1z"/>
	<path class="st1" d="M11.5,145.5c0.1,0.8,0.4,3.5,2.6,5.6c3.2,3.1,7.6,2.3,8,2.2c21.9-4,43.8-7.9,65.8-11.9c1.7-0.3,2.3-2.4,1-3.6
		c-4-3.6-8-7.3-12-10.9c-0.6-0.6-0.9-1.5-0.6-2.3c1.9-5.2,3.8-10.5,5.7-15.7c0.6-1.5-0.8-3.1-2.4-2.8L4,120.1
		C6.5,128.6,9,137,11.5,145.5z"/>
	<path id="white_00000131365072772208996720000010614202607802440105_" class="st0" d="M73.2,117.6l-9.1-9.5c-1.2-1.2-1.5-3-0.8-4.6
		l6.4-15c1.3-3.1-1.3-6.4-4.7-5.8l-48.6,8.7c-9.4,1.7-15.7,10.7-14,20.1L8.9,147l0,0c-1.1-6.2,3-12.1,9.2-13.2l52.7-9.1
		C74.2,124.1,75.6,120,73.2,117.6z"/>
	<path class="st2" d="M398,99.6C398,99.6,398,99.6,398,99.6l-6.4-35.3c-1-5.3-4-9.9-8.4-13c-4.5-3.1-9.8-4.2-15.2-3.3L66.9,102.5
		l5.5-12.9c1-2.4,0.7-5.2-1-7.3c-1.6-2.1-4.3-3-6.9-2.6l-48.6,8.7c-5.3,1-10,3.9-13.1,8.4c-3.1,4.4-4.3,9.8-3.3,15.1l1,5.5
		c0,0,0,0,0,0l4.8,26.2l0.7,3.8c0,0,0,0,0,0h0c0.7,3.8,2.8,7,6,9.2c2.4,1.7,5.2,2.5,8.1,2.5c0.9,0,1.7-0.1,2.6-0.2l289.1-52.4
		l20,18.3c0.5,0.5,1.2,0.8,2,0.8c0.2,0,0.3,0,0.5,0l52.1-9.4C394.2,114.8,399.4,107.3,398,99.6z M7.7,100.2c2.2-3.2,5.5-5.3,9.3-6
		l48.6-8.7c0.1,0,0.2,0,0.3,0c0.5,0,0.9,0.3,1,0.5c0.2,0.2,0.5,0.7,0.2,1.3l-6.4,15c-1.1,2.6-0.6,5.7,1.4,7.7l9.1,9.5
		c0.5,0.5,0.4,1,0.3,1.3c-0.1,0.3-0.4,0.8-1,0.9l-52.8,9.1c-3.1,0.6-5.8,2.1-7.9,4.3l-4.4-24.2C4.6,107.2,5.5,103.3,7.7,100.2z
		 M21.7,153.3c-2.2,0.4-4.5-0.1-6.4-1.4c-1.9-1.3-3.1-3.2-3.5-5.4c0,0,0,0,0,0c-0.8-4.6,2.2-9,6.8-9.8l52.7-9.1
		c2.6-0.5,4.8-2.3,5.6-4.8c0.8-2.5,0.2-5.3-1.6-7.2l-7-7.3L369,53.8c3.8-0.7,7.6,0.1,10.8,2.3c3.2,2.2,5.3,5.5,6,9.3l4.4,23.9
		c-0.1-0.1-0.2-0.1-0.4-0.2c-0.1-0.1-0.3-0.1-0.4-0.2c-0.3-0.1-0.6-0.2-0.9-0.3c-0.1,0-0.2-0.1-0.3-0.1c-0.4-0.1-0.8-0.2-1.2-0.3
		c0,0-0.1,0-0.1,0c-0.4-0.1-0.7-0.1-1.1-0.2c-0.1,0-0.3,0-0.4,0c-0.3,0-0.6,0-0.9-0.1c-0.1,0-0.3,0-0.4,0c-0.3,0-0.6,0-0.9,0
		c-0.1,0-0.3,0-0.4,0c-0.4,0-0.9,0.1-1.3,0.2L21.7,153.3z M385.4,110.4l-50.7,9.2l-15.7-14.3l63.3-11.5c0.3-0.1,0.6-0.1,0.8-0.1
		c0.1,0,0.1,0,0.2,0c0.2,0,0.5,0,0.7,0c0,0,0,0,0.1,0c3.3,0.1,6.3,2.2,7.6,5.2c0,0,0,0,0,0.1c0.1,0.2,0.1,0.4,0.2,0.6
		c0,0.1,0,0.1,0.1,0.2c0.1,0.2,0.1,0.4,0.1,0.6c0,0.1,0,0.2,0.1,0.2v0C393.1,105.2,390,109.6,385.4,110.4z"/>
	<g id="ribbon_00000026123747296579230050000000508112396700182663_">
		<g>
			<path class="st2" d="M36.3,97.7c-1.5-0.9-3.1-0.5-3.7-0.4c-0.5,0.1-2.2,0.5-3.1,2c-0.8,1.4,0.4,2.8,1,3.4c0.2,0.2,0.4,0.2,0.6,0
				c0.8-0.7,1.7-1.1,2.5-1.3c0.8-0.2,1.8-0.3,2.8,0c0.2,0.1,0.4-0.1,0.5-0.3C37.3,100.3,37.7,98.5,36.3,97.7z"/>
		</g>
		<g>
			<path class="st2" d="M29,101c-0.1-0.2-0.3-0.2-0.4,0c-0.5,1-1.1,2.6-0.7,4.1c0,0.1,0.1,0.4,0.3,0.8c0.6,1.3,1.3,2.1,1.7,2.5
				c0.9,0.9,5.4,5.4,11.8,11.6c0.3,0.3,0.8,0.2,0.9-0.2c0.4-1.2,0.8-2.4,1.2-3.6c0.1-0.2,0-0.5-0.2-0.6c-0.7-0.6-1.2-1-1.5-1.3
				c0,0-7.7-6.5-12.1-11.5c-0.2-0.2-0.5-0.6-0.7-1.1C29.1,101.4,29,101.1,29,101L29,101z"/>
		</g>
		<g>
			<g>
				<path class="st2" d="M35.4,113.8c0.1,0.1,0.3,0.3,0.4,0.4C35.6,114.1,35.5,113.9,35.4,113.8z"/>
			</g>
			<g>
				<path class="st2" d="M35.8,114.2c0.1,0.1,0.3,0.3,0.4,0.4C36.1,114.5,35.9,114.4,35.8,114.2z"/>
			</g>
			<g>
				<path class="st2" d="M37.1,115.5c-0.3-0.3-0.6-0.6-0.9-0.9C36.5,114.9,36.8,115.2,37.1,115.5L37.1,115.5z"/>
			</g>
			<g>
				<path class="st2" d="M33.9,112c-0.9,2.4-1.8,4.7-1.8,4.7c-0.2,0.4-0.4,1-0.7,1.8c-0.1,0.2,0,0.5,0.1,0.6
					c0.9,0.9,1.8,1.7,2.7,2.6c0.3,0.3,0.8,0.2,0.9-0.2c0.7-2,1.5-4.6,2.1-6.3C36,114.1,34.9,113,33.9,112z"/>
			</g>
			<g>
				<path class="st2" d="M33.8,112.3c0.1,0.1,0.2,0.2,0.4,0.4C34.1,112.5,33.9,112.4,33.8,112.3z"/>
			</g>
			<g>
				<path class="st2" d="M34.2,112.6c0.2,0.2,0.5,0.5,0.8,0.8C34.7,113.1,34.4,112.9,34.2,112.6z"/>
			</g>
			<g>
				<path class="st2" d="M35,113.4c0.1,0.1,0.3,0.3,0.4,0.4C35.2,113.6,35.1,113.5,35,113.4z"/>
			</g>
		</g>
		<g>
			<g>
				<path class="st2" d="M35.8,108.5C35.8,108.5,35.7,108.5,35.8,108.5C35.7,108.5,35.8,108.5,35.8,108.5z"/>
			</g>
			<g>
				<path class="st2" d="M36.2,108.9C36.2,108.9,36.2,108.9,36.2,108.9C36.2,108.9,36.2,108.9,36.2,108.9z"/>
			</g>
			<g>
				<polygon class="st2" points="35.3,108.1 35.3,108.1 35.3,108.1 				"/>
			</g>
			<g>
				<path class="st2" d="M38.2,110.2c0.2,0.2,0.6,0.1,0.7-0.2c0.7-2.2,1.2-3.7,1.3-4.2c0.2-0.5,0.5-1.6,0.4-3c0-0.4-0.1-0.7-0.1-0.8
					c-0.3-1.5-1.6-2.7-2.5-3.3c-0.2-0.1-0.4,0-0.4,0.2l0,0c0,0.1,0.1,0.4,0.1,0.8c0,0.6-0.1,1.1-0.1,1.3c-0.5,2-1.2,4.3-2,6.4
					c-0.1,0.2,0,0.3,0.1,0.4C36.6,108.7,37.4,109.5,38.2,110.2z"/>
			</g>
			<g>
				<path class="st2" d="M37.4,110.1C37.4,110.1,37.4,110.1,37.4,110.1C37.4,110.1,37.4,110.1,37.4,110.1z"/>
			</g>
			<g>
				<path class="st2" d="M37,109.7C37,109.7,37,109.7,37,109.7C37,109.7,37,109.7,37,109.7z"/>
			</g>
		</g>
	</g>
	<g>
		<g>
			<path class="st3" d="M104.1,114.6c0,0-0.2,0-0.5-0.1c-0.3,0-0.7,0-1.1,0c-0.4,0-0.9,0-1.3,0.1c-1.6,0.3-2.8,1-3.5,2.2
				s-0.9,2.8-0.5,4.7c0.4,2,1.1,3.4,2.2,4.3c1.1,0.9,2.4,1.2,4,0.9c0.5-0.1,0.9-0.2,1.3-0.4c0.4-0.2,0.8-0.5,1.3-0.8l0.2-2.7
				l3.3,0.2l-0.1,4.6c-0.9,0.6-1.7,1.1-2.5,1.5c-0.8,0.4-1.8,0.7-2.9,0.9c-1.8,0.3-3.4,0.3-4.9-0.1s-2.7-1.2-3.7-2.5
				c-1-1.2-1.7-2.9-2.1-5.1c-0.3-1.9-0.3-3.7,0.2-5.2c0.5-1.5,1.4-2.7,2.6-3.7c1.2-1,2.7-1.6,4.5-1.9c1.2-0.2,2.3-0.3,3.2-0.2
				c0.9,0.1,1.9,0.3,2.9,0.7l1.7,4.2l-3.1,1.3L104.1,114.6z"/>
			<path class="st3" d="M109.1,110.6l7.7-1.4l0.6,3.2l-1.6,0.3l0.6,3.6l7-1.2l-0.6-3.6l-1.6,0.3l-0.6-3.3l7.7-1.4l0.6,3.3l-2.4,0.4
				l1.9,10.7l2.4-0.4l0.6,3.3l-7.7,1.4l-0.6-3.3l1.5-0.3l-0.7-3.8l-7,1.2l0.7,3.8l1.5-0.3l0.6,3.3l-7.7,1.4l-0.6-3.3l2.4-0.4
				l-1.9-10.7l-2.4,0.4L109.1,110.6z"/>
			<path class="st3" d="M130.2,106.9l9.3-1.7l0.6,3.3l-2.8,0.5l1.9,10.7l2.8-0.5l0.6,3.3l-9.3,1.7l-0.6-3.3l2.8-0.5l-1.9-10.7
				l-2.8,0.5L130.2,106.9z"/>
			<path class="st3" d="M141.2,104.9l9.2-1.6l0.6,3.3l-2.9,0.5l1.9,10.7l4.3-0.8l0.5-3l3.3,0.5l-0.8,5.4l-13,2.3l-0.6-3.3l2.6-0.5
				l-1.9-10.7l-2.6,0.5L141.2,104.9z"/>
			<path class="st3" d="M165.1,100.7c2.9-0.5,5.3-0.1,7.3,1.1c1.9,1.3,3.1,3.3,3.6,6.1c0.5,2.6,0,4.8-1.3,6.5
				c-1.3,1.7-3.4,2.9-6.3,3.4l-8.3,1.5l-0.6-3.3l2.4-0.4l-1.9-10.7l-2.4,0.4l-0.6-3.3L165.1,100.7z M167.3,114.6c1.8-0.3,3.2-1,4-2
				s1.1-2.3,0.8-4c-0.3-1.9-1-3.2-2.1-4c-1.1-0.8-2.5-1-4.3-0.7l-1.9,0.3l1.9,10.7L167.3,114.6z"/>
			<path class="st3" d="M176,98.7l7.7-1.4l0.6,3.2l-1.6,0.3l0.6,3.6l7-1.2l-0.6-3.6l-1.6,0.3l-0.6-3.3l7.7-1.4l0.6,3.3l-2.4,0.4
				l1.9,10.7l2.4-0.4l0.6,3.3l-7.7,1.4l-0.6-3.3l1.5-0.3l-0.7-3.8l-7,1.2l0.7,3.8l1.5-0.3l0.6,3.3l-7.7,1.4l-0.6-3.3l2.4-0.4
				l-1.9-10.7l-2.4,0.4L176,98.7z"/>
			<path class="st3" d="M205.6,92.7c1.7-0.3,3.3-0.2,4.7,0.3c1.4,0.5,2.7,1.3,3.6,2.6s1.7,2.8,2,4.9c0.4,2,0.3,3.7-0.2,5.3
				c-0.5,1.5-1.3,2.7-2.5,3.7s-2.6,1.6-4.3,1.9c-1.7,0.3-3.3,0.2-4.7-0.3c-1.4-0.5-2.7-1.3-3.6-2.6c-1-1.3-1.7-2.9-2-4.9
				c-0.4-2-0.3-3.8,0.2-5.2c0.5-1.5,1.3-2.7,2.5-3.7S203.9,93.1,205.6,92.7z M206.2,95.9c-1.6,0.3-2.7,1-3.3,2.2
				c-0.6,1.2-0.7,2.8-0.4,4.8c0.4,2,1,3.5,2,4.3c1,0.9,2.3,1.2,3.9,0.9c1.6-0.3,2.7-1,3.3-2.2c0.6-1.2,0.8-2.8,0.4-4.8
				c-0.4-2-1-3.4-2-4.3C209.1,95.9,207.8,95.6,206.2,95.9z"/>
			<path class="st3" d="M224.7,89.3c1.7-0.3,3.3-0.2,4.7,0.3s2.7,1.3,3.6,2.6c1,1.2,1.7,2.8,2,4.9c0.4,2,0.3,3.7-0.2,5.2
				c-0.5,1.5-1.3,2.7-2.5,3.7c-1.2,0.9-2.6,1.6-4.3,1.9c-1.7,0.3-3.3,0.2-4.7-0.3c-1.4-0.5-2.7-1.3-3.6-2.6c-1-1.3-1.7-2.9-2-4.9
				c-0.4-2-0.3-3.8,0.2-5.2s1.3-2.7,2.5-3.7C221.6,90.3,223,89.6,224.7,89.3z M225.3,92.5c-1.6,0.3-2.7,1-3.3,2.2
				c-0.6,1.2-0.7,2.8-0.4,4.8c0.4,2,1,3.5,2,4.3c1,0.9,2.3,1.2,3.9,0.9c1.6-0.3,2.7-1,3.3-2.2s0.8-2.8,0.4-4.8c-0.4-2-1-3.4-2-4.3
				C228.2,92.5,226.9,92.2,225.3,92.5z"/>
			<path class="st3" d="M243.4,86.7c2.9-0.5,5.3-0.1,7.3,1.1s3.1,3.3,3.6,6.1c0.5,2.6,0,4.8-1.3,6.5c-1.3,1.7-3.4,2.9-6.3,3.4
				l-8.3,1.5l-0.6-3.3l2.4-0.4l-1.9-10.7l-2.4,0.4l-0.6-3.3L243.4,86.7z M245.6,100.6c1.8-0.3,3.2-1,4-2c0.8-1,1.1-2.3,0.8-4
				c-0.3-1.9-1-3.2-2.1-4c-1.1-0.8-2.5-1-4.3-0.7l-1.9,0.3l1.9,10.7L245.6,100.6z"/>
			<path class="st3" d="M272.8,84.5c0,0-0.2,0-0.5-0.1c-0.3,0-0.7,0-1.1,0c-0.4,0-0.9,0-1.3,0.1c-1.6,0.3-2.8,1-3.5,2.2
				c-0.7,1.2-0.9,2.8-0.5,4.7c0.4,2,1.1,3.4,2.2,4.3c1.1,0.9,2.4,1.2,4,0.9c0.5-0.1,0.9-0.2,1.3-0.4c0.4-0.2,0.9-0.5,1.3-0.8
				l0.2-2.7l3.3,0.2l-0.1,4.6c-0.9,0.6-1.7,1.1-2.5,1.5c-0.8,0.4-1.8,0.7-2.9,0.9c-1.8,0.3-3.4,0.3-4.9-0.1
				c-1.5-0.4-2.7-1.2-3.7-2.5c-1-1.2-1.7-2.9-2.1-5.1c-0.3-1.9-0.3-3.7,0.2-5.2c0.5-1.5,1.4-2.7,2.6-3.7c1.2-1,2.7-1.6,4.5-1.9
				c1.2-0.2,2.3-0.3,3.2-0.2c0.9,0.1,1.9,0.3,2.9,0.7l1.7,4.2l-3.1,1.3L272.8,84.5z"/>
			<path class="st3" d="M279.8,97.9l-0.6-3.3l2.9-0.5l2.4-11.4l-2.3,0.4l-0.6-3.3l7-1.3l7.9,13l2.6-0.5l0.6,3.3l-7.7,1.4l-0.6-3.3
				l1.4-0.3l-1.3-2.3l-5.6,1l-0.4,2.6l1.6-0.3l0.6,3.3L279.8,97.9z M286.2,88.3l3.9-0.7l-3-5.2L286.2,88.3z"/>
			<path class="st3" d="M297.3,77l7.9-1.4l7.9,10.9l-1.5-8.6l-2.2,0.4l-0.6-3.3l8.1-1.5l0.6,3.3l-2.7,0.5l2.5,13.9L313,92l-9.5-12.7
				l1.9,10.7l2.5-0.4l0.6,3.3l-8.1,1.5l-0.6-3.3l2.4-0.4l-1.9-10.7l-2.4,0.4L297.3,77z"/>
			<path class="st3" d="M330.6,74.1c0,0-0.2,0-0.5-0.1c-0.3,0-0.7,0-1.1,0c-0.4,0-0.9,0-1.3,0.1c-1.6,0.3-2.8,1-3.5,2.2
				c-0.7,1.2-0.9,2.8-0.5,4.7c0.4,2,1.1,3.4,2.2,4.3c1.1,0.9,2.4,1.2,4,0.9c0.5-0.1,0.9-0.2,1.3-0.4c0.4-0.2,0.8-0.5,1.3-0.8
				l0.2-2.7l3.3,0.2l-0.1,4.6c-0.9,0.6-1.7,1.1-2.5,1.5c-0.8,0.4-1.8,0.7-2.9,0.9c-1.8,0.3-3.4,0.3-4.9-0.1
				c-1.5-0.4-2.7-1.2-3.7-2.5c-1-1.2-1.7-2.9-2.1-5.1c-0.3-1.9-0.3-3.7,0.2-5.2c0.5-1.5,1.4-2.7,2.6-3.7c1.2-1,2.7-1.6,4.5-1.9
				c1.2-0.2,2.3-0.3,3.2-0.2c0.9,0.1,1.9,0.3,2.9,0.7l1.7,4.2l-3.1,1.3L330.6,74.1z"/>
			<path class="st3" d="M335.7,70.2l13.3-2.4l2.8,5.1l-2.9,1.6l-1.6-3l-4.8,0.9l0.6,3.6l4.8-0.8l0.6,3.2l-4.8,0.9l0.7,3.8l5.6-1
				l0.5-3l3.3,0.5l-0.8,5.4l-14.1,2.5l-0.6-3.3l2.4-0.4L338.7,73l-2.4,0.4L335.7,70.2z"/>
			<path class="st3" d="M356,84.3l-0.6-3.3l2.3-0.4l-1.9-10.7l-2.3,0.4l-0.6-3.3l7.7-1.4c1.8-0.3,3.3-0.3,4.4-0.1
				c1.1,0.3,1.9,0.8,2.5,1.7c0.5,0.8,0.9,1.8,1.1,3c0.3,1.9,0.1,3.5-0.8,4.6c-0.9,1.1-2.3,1.9-4.3,2.2l-2.5,0.4l0.4,2.3l1.4-0.2
				l0.6,3.3L356,84.3z M360.6,74.3l1.4-0.3c0.8-0.1,1.5-0.3,1.9-0.6c0.4-0.2,0.7-0.6,0.9-1c0.1-0.4,0.2-0.9,0-1.6
				c-0.1-0.7-0.3-1.2-0.7-1.5c-0.3-0.3-0.7-0.5-1.2-0.6c-0.5-0.1-1.1,0-1.8,0.1l-1.4,0.3L360.6,74.3z M367.2,82.3l-4.3-5.4l3.3-1.2
				l2.7,3l3-0.5l0.6,3.3L367.2,82.3z"/>
		</g>
	</g>
</g>
</svg>
