<svg xmlns="http://www.w3.org/2000/svg" xmlns:xlink="http://www.w3.org/1999/xlink" viewBox="0 0 91 32.33"><defs><style>.cls-1{fill:#fff;}.cls-2{fill:url(#radial-gradient);}.cls-3{fill:none;stroke-miterlimit:10;stroke-width:2px;stroke:url(#linear-gradient);}</style><radialGradient id="radial-gradient" cx="151.52" cy="1.42" r="131.23" gradientUnits="userSpaceOnUse"><stop offset="0" stop-color="#ffcc4e"/><stop offset="1" stop-color="#f15d3f"/></radialGradient><linearGradient id="linear-gradient" y1="16.16" x2="91" y2="16.16" gradientUnits="userSpaceOnUse"><stop offset="0" stop-color="#f15d3f"/><stop offset="1" stop-color="#f79547"/></linearGradient></defs><g id="Layer_2" data-name="Layer 2"><g id="_3" data-name="3"><g id="Header"><g id="logo_small"><path class="cls-1" d="M24.73,5.53V18.38A8.29,8.29,0,0,1,20,26.17a10.89,10.89,0,0,1-4.82,1.06,10.9,10.9,0,0,1-4.8-1.06,8.31,8.31,0,0,1-4.77-7.79V5.53H11.5V18a4,4,0,0,0,.88,2.7,3.34,3.34,0,0,0,2.78,1,3.56,3.56,0,0,0,2.78-1.06A3.93,3.93,0,0,0,18.83,18V5.53Z" transform="translate(0 -0.01)"/><path class="cls-1" d="M38.43,5.59a9.38,9.38,0,0,1,3.14.54,8.78,8.78,0,0,1,2.77,1.58,7.89,7.89,0,0,1,2,2.52,7.46,7.46,0,0,1,.74,3.35,7.61,7.61,0,0,1-1.13,4.19,7.63,7.63,0,0,1-3,2.67,8.62,8.62,0,0,1-3.89.91,8.84,8.84,0,0,1-2.15-.24,6.68,6.68,0,0,1-1.64-.61v6.25H29.36V5.59Zm-3.16,5.53V16a7.72,7.72,0,0,0,1.15.32,6.84,6.84,0,0,0,1.31.13,3.3,3.3,0,0,0,2.33-.87,2.68,2.68,0,0,0,.93-2,2.06,2.06,0,0,0-.93-1.88,4.33,4.33,0,0,0-2.33-.58Z" transform="translate(0 -0.01)"/><path class="cls-1" d="M57.07,5.59v16h9.51v5.21H51.17V5.59Z" transform="translate(0 -0.01)"/><path class="cls-1" d="M77.73,5.12a15.26,15.26,0,0,1,3.68.45,9.36,9.36,0,0,1,2.92,1.22v5.72a26.41,26.41,0,0,0-2.69-1.38,7.65,7.65,0,0,0-3.12-.58,4.46,4.46,0,0,0-1.8.32,1.07,1.07,0,0,0-.76,1,1.26,1.26,0,0,0,.92,1.18c.61.27,1.35.57,2.24.9l2.27.85a6.37,6.37,0,0,1,3.27,2.41,5.62,5.62,0,0,1,1,3,5.88,5.88,0,0,1-1.16,3.58,8,8,0,0,1-3.16,2.47,10.7,10.7,0,0,1-4.46.9,11.16,11.16,0,0,1-3.75-.67,13.44,13.44,0,0,1-3.26-1.64V19.2a15.13,15.13,0,0,0,3.27,1.87,9.2,9.2,0,0,0,3.52.72,5,5,0,0,0,1.79-.27.94.94,0,0,0,.68-.93,1,1,0,0,0-.51-.82,5,5,0,0,0-1.36-.6l-3-1a6.7,6.7,0,0,1-2.75-1.54,5.37,5.37,0,0,1-1.35-2.2A8.07,8.07,0,0,1,69.74,12a6.2,6.2,0,0,1,1.13-3.77,7.12,7.12,0,0,1,3-2.32A9.66,9.66,0,0,1,77.73,5.12Z" transform="translate(0 -0.01)"/><path class="cls-2" d="M24.73,5.53V18.38A8.29,8.29,0,0,1,20,26.17a10.89,10.89,0,0,1-4.82,1.06,10.9,10.9,0,0,1-4.8-1.06,8.31,8.31,0,0,1-4.77-7.79V5.53H11.5V18a4,4,0,0,0,.88,2.7,3.34,3.34,0,0,0,2.78,1,3.56,3.56,0,0,0,2.78-1.06A3.93,3.93,0,0,0,18.83,18V5.53Z" transform="translate(0 -0.01)"/><path class="cls-2" d="M38.43,5.59a9.38,9.38,0,0,1,3.14.54,8.78,8.78,0,0,1,2.77,1.58,7.89,7.89,0,0,1,2,2.52,7.46,7.46,0,0,1,.74,3.35,7.61,7.61,0,0,1-1.13,4.19,7.63,7.63,0,0,1-3,2.67,8.62,8.62,0,0,1-3.89.91,8.84,8.84,0,0,1-2.15-.24,6.68,6.68,0,0,1-1.64-.61v6.25H29.36V5.59Zm-3.16,5.53V16a7.72,7.72,0,0,0,1.15.32,6.84,6.84,0,0,0,1.31.13,3.3,3.3,0,0,0,2.33-.87,2.68,2.68,0,0,0,.93-2,2.06,2.06,0,0,0-.93-1.88,4.33,4.33,0,0,0-2.33-.58Z" transform="translate(0 -0.01)"/><path class="cls-2" d="M57.07,5.59v16h9.51v5.21H51.17V5.59Z" transform="translate(0 -0.01)"/><path class="cls-2" d="M77.73,5.12a15.26,15.26,0,0,1,3.68.45,9.36,9.36,0,0,1,2.92,1.22v5.72a26.41,26.41,0,0,0-2.69-1.38,7.65,7.65,0,0,0-3.12-.58,4.46,4.46,0,0,0-1.8.32,1.07,1.07,0,0,0-.76,1,1.26,1.26,0,0,0,.92,1.18c.61.27,1.35.57,2.24.9l2.27.85a6.37,6.37,0,0,1,3.27,2.41,5.62,5.62,0,0,1,1,3,5.88,5.88,0,0,1-1.16,3.58,8,8,0,0,1-3.16,2.47,10.7,10.7,0,0,1-4.46.9,11.16,11.16,0,0,1-3.75-.67,13.44,13.44,0,0,1-3.26-1.64V19.2a15.13,15.13,0,0,0,3.27,1.87,9.2,9.2,0,0,0,3.52.72,5,5,0,0,0,1.79-.27.94.94,0,0,0,.68-.93,1,1,0,0,0-.51-.82,5,5,0,0,0-1.36-.6l-3-1a6.7,6.7,0,0,1-2.75-1.54,5.37,5.37,0,0,1-1.35-2.2A8.07,8.07,0,0,1,69.74,12a6.2,6.2,0,0,1,1.13-3.77,7.12,7.12,0,0,1,3-2.32A9.66,9.66,0,0,1,77.73,5.12Z" transform="translate(0 -0.01)"/><rect class="cls-3" x="1" y="1" width="89" height="30.33"/></g></g></g></g></svg>