<svg version="1.1" id="Layer_1" xmlns="http://www.w3.org/2000/svg" xmlns:xlink="http://www.w3.org/1999/xlink" x="0px" y="0px" viewBox="-908.8 -75 1359.3 293.8" style="enable-background:new -908.8 -75 1359.3 293.8;" xml:space="preserve">
 <style type="text/css">
  .st0{fill:#BE1D3D;}
	.st1{fill:#E30045;}
 </style>
 <title>
  logo-Thrivent-rgb
 </title>
 <desc>
  Created with Sketch.
 </desc>
 <g id="Symbols">
  <g id="Desktop-Header" transform="translate(-62.000000, -101.000000)">
   <g id="Group-10">
    <g id="logo-Thrivent-rgb---Registered" transform="translate(62.000000, 101.000000)">
     <g id="Group-21">
      <g id="Group-4" transform="translate(149.128370, 3.446727)">
       <path id="Fill-1" class="st0" d="M188.1,2.6v-29.7c0-13.1-12.2-23.7-25.2-23.7c-13.1,0-25.2,10.6-25.2,23.7v74.2h50.5V2.6">
       </path>
       <path id="Fill-3" class="st1" d="M182.1,47.1h29.7c13.1,0,23.7-12.2,23.7-25.2c0-13.1-10.6-25.2-23.7-25.2h-74.2v50.5H182.1">
       </path>
      </g>
      <g id="Group-8">
       <path id="Fill-5" d="M-908.8-47.4v185.7c0,26,5.3,45,15.8,56.8c10.5,11.8,29.8,17.7,58,17.7h21.7v-49.3h-17
							c-11.3,0-18.8-2.2-22.5-6.7c-3.7-4.5-5.5-12.2-5.5-23.3V47.2h52V3.9h-52.8v-51.3H-908.8">
       </path>
       <path id="Fill-7" d="M-674-2c-10.3,0-20.2,2.6-30,7.9c-9.7,5.3-16.7,11.3-20.9,18.1h-0.8v-99h-51.3v287.9h51.3V81.5
							c0-10.8,3.1-19.5,9.3-26.2c6.2-6.7,15.2-10.1,27-10.1c12.4,0,21.6,3.7,27.8,11.2c6.2,7.5,9.3,17,9.3,28.6v127.8h51.3V73.7
							c0-23.1-6.6-41.5-19.7-55.2C-633.9,4.8-651.6-2-674-2">
       </path>
      </g>
      <path id="Fill-9" d="M-498.7,7c-7.8,4.7-13.6,11-17.6,18.9h-0.8V3.9h-48.5v209h51.3V98.1c0-31.8,12-47.7,35.9-47.7
						c5,0,10.4,1.1,16.2,3.2l7.9-49.7c-6-2.6-12.4-3.9-18.9-3.9C-482.5-0.1-490.9,2.3-498.7,7">
      </path>
      <g id="Group-14" transform="translate(59.743261, 0.000000)">
       <polygon id="Fill-11" points="-488.6,212.9 -437.3,212.9 -437.3,3.9 -488.6,3.9 						">
       </polygon>
       <polygon id="Fill-13" points="-488.6,-26.5 -437.3,-26.5 -437.3,-75 -488.6,-75 						">
       </polygon>
      </g>
      <g id="Group-20" transform="translate(69.164313, 9.191271)">
       <polyline id="Fill-15" points="-317.1,129.1 -317.9,129.1 -369.9,-5.3 -423.2,-5.3 -339.6,203.7 -296.2,203.7 -212.6,-5.3 
							-265.1,-5.3 -317.1,129.1 						">
       </polyline>
       <path id="Fill-17" d="M-116.2-11.2c-27.9,0-50.9,10.1-69.2,30.2c-18.3,20.1-27.4,46.9-27.4,80.2c0,33.4,9.2,60.1,27.6,80.2
							c18.4,20.1,42.2,30.2,71.4,30.2c36.3,0,65.1-15.5,86.4-46.5l-35.9-31.5c-6.8,10-14.1,17.9-21.9,23.9
							c-7.8,5.9-17.5,8.9-29.4,8.9c-13.9,0-24.9-4.3-32.9-12.8c-8-8.5-12.4-20.8-13.2-36.9h140.4V99.2c0-33.4-9-60.1-27-80.2
							C-65.4-1.2-88.3-11.2-116.2-11.2 M-160.8,76.3c1.1-12.1,5.6-22.2,13.6-30.4c8-8.1,18.3-12.2,31-12.2
							c13.7,0,24.5,3.7,32.3,11.2c7.9,7.5,12.5,17.9,13.8,31.3H-160.8">
       </path>
       <path id="Fill-18" d="M110.5-11.2c-11,0-21.6,2.5-31.5,7.5c-10,5-17.9,11.2-23.7,18.5h-0.8V-5.3H5.2v209h51.3V75.9
							c0-12.1,3.5-21.7,10.6-29c7.1-7.2,17-10.8,29.6-10.8c13.4,0,22.9,3.6,28.4,10.8c5.5,7.2,8.3,18.1,8.3,32.5v124.2h51.3V66.8
							c0-24.4-6.6-43.6-19.7-57.4C151.8-4.3,133.7-11.2,110.5-11.2">
       </path>
       <path id="Fill-19" d="M268.1,41.3h-50.5v87.8c0,26,5.3,45,15.8,56.8c10.5,11.8,29.8,17.7,58,17.7H313v-49.3h-17
							c-11.3,0-18.8-2.2-22.5-6.7c-3.7-4.5-5.5-12.2-5.5-23.3V41.3">
       </path>
      </g>
      <path id="Fill-20" d="M425.9,20.4c3,0,4.9-1.3,4.9-4c0-3-1.9-4.2-4.9-4.2H422v8.2H425.9z M416,6.9h10.5
						c6.6,0,10.5,3.5,10.5,9.5c0,4.3-2.7,7.6-6.5,9.1l6.5,11.5h-6.5l-6-10.9H422v10.9h-6V6.9z M445.6,22c0-11.6-8.9-20.7-20.6-20.7
						c-11.5,0-20.3,9.1-20.3,20.7c0,11.5,8.8,20.6,20.3,20.6C436.7,42.5,445.6,33.5,445.6,22z M399.9,22c0-14.5,10.9-25.4,25.2-25.4
						c14.5,0,25.4,10.9,25.4,25.4c0,14.2-10.9,25.2-25.4,25.2C410.8,47.1,399.9,36.2,399.9,22L399.9,22z">
      </path>
     </g>
    </g>
   </g>
  </g>
 </g>
</svg>