<?xml version="1.0" encoding="UTF-8"?>
<svg id="Layer_2" data-name="Layer 2" xmlns="http://www.w3.org/2000/svg" viewBox="0 0 300.5 300.29">
  <defs>
    <style>
      .cls-1 {
        fill: #1b3764;
        stroke-width: 0px;
      }
    </style>
  </defs>
  <g id="Layer_1-2" data-name="Layer 1">
    <g>
      <path class="cls-1" d="M299.9,136.41c-.35-3.43-.76-6.87-1.29-10.3-.8-5.01-1.88-9.93-3.17-14.84-2.33-8.85-5.54-17.37-9.42-25.65-1.61-3.43-3.43-6.77-5.29-10.06-2.62-4.6-5.52-9.01-8.61-13.31-3.05-4.25-6.34-8.3-9.83-12.2s-7.2-7.6-11.04-11.14c-3.7-3.41-7.58-6.56-11.63-9.55-6.28-4.66-12.86-8.81-19.77-12.43-3.56-1.84-7.17-3.56-10.85-5.13-5.5-2.35-11.12-4.35-16.86-6.01-4.56-1.33-9.18-2.43-13.84-3.31-3.31-.61-6.62-1.14-9.95-1.51-1.21-.14-2.43-.27-3.66-.37-2.17-.2-4.35-.45-6.52-.53-2.56-.08-5.13-.02-7.69-.02-3.68-.04-7.38-.16-11.04.25-1.86.2-3.74.2-5.58.45-3.37.43-6.77.88-10.12,1.47-6.15,1.1-12.2,2.6-18.17,4.44-5.46,1.7-10.79,3.72-16.01,6.05-7.28,3.25-14.27,6.99-20.95,11.34-4.6,3-9.03,6.26-13.29,9.73-2.98,2.43-5.85,4.99-8.67,7.6-4.05,3.8-7.77,7.93-11.37,12.16-3.45,4.07-6.66,8.32-9.65,12.76-4.17,6.21-7.89,12.67-11.08,19.46-2.13,4.5-4.05,9.06-5.72,13.74-2.17,6.03-3.92,12.18-5.31,18.42-.94,4.27-1.68,8.59-2.25,12.92-.41,3.23-.72,6.46-.94,9.71-.2,2.86-.25,5.74-.33,8.63-.04,1.53.06,3.09.16,4.62.16,2.51.06,5.01.35,7.52.31,2.64.41,5.31.76,7.95.45,3.37.98,6.75,1.64,10.1,1.12,5.58,2.53,11.12,4.29,16.56,1.27,3.95,2.72,7.85,4.29,11.71,2,4.82,4.27,9.55,6.77,14.15,3.15,5.76,6.66,11.3,10.53,16.62,3.25,4.46,6.7,8.73,10.42,12.78,2.39,2.58,4.87,5.09,7.42,7.52,2.58,2.47,5.25,4.84,7.99,7.15,3.41,2.88,7.03,5.56,10.71,8.09,5.15,3.56,10.51,6.75,16.05,9.65,4.89,2.56,9.89,4.78,15.04,6.77,5.97,2.29,12.06,4.21,18.29,5.72,4.15,1,8.32,1.84,12.53,2.51,1.7.27,3.37.49,5.07.67,1.43.16,2.86.29,4.29.41,2.25.18,4.48.43,6.7.51,2.88.12,5.76.08,8.65.1,3.64.04,7.26-.14,10.87-.45,3.27-.29,6.56-.7,9.83-1.21,3.25-.49,6.52-1.04,9.75-1.76,6.56-1.43,13.02-3.27,19.34-5.62,6.19-2.29,12.26-4.95,18.13-8.01,6.01-3.17,11.77-6.7,17.31-10.65,5.44-3.86,10.61-8.07,15.49-12.63,3.11-2.9,6.17-5.91,8.95-9.14,2.23-2.58,4.52-5.13,6.64-7.81,3.62-4.56,6.93-9.34,10-14.29,3.43-5.54,6.44-11.32,9.14-17.25,3.03-6.66,5.52-13.53,7.48-20.58,2.19-7.81,3.82-15.74,4.64-23.81.12-1.27.25-2.56.35-3.82.18-2,.45-4.03.49-6.05.18-6.93.2-13.86-.49-20.79ZM269.93,155.44c-.12,3.03-.41,6.05-.78,9.08-.74,6.09-1.96,12.1-3.6,18.01-1.39,4.99-3.13,9.85-5.17,14.62-3.43,7.97-7.69,15.49-12.73,22.55-2.31,3.21-4.78,6.28-7.36,9.26-2.68,3.07-5.54,5.95-8.48,8.73-4.48,4.21-9.3,8.01-14.37,11.47-5.54,3.76-11.34,7.03-17.42,9.81-3.74,1.74-7.54,3.27-11.45,4.54-.29.1-.59.14-1.08.29.14-.43.2-.65.33-.88,1.45-2.92,3.31-5.58,5.42-8.07,3.03-3.58,6.44-6.7,10.1-9.57,3.92-3.05,7.89-6.03,11.84-9.03,2.76-2.11,5.5-4.23,8.03-6.6,2.49-2.35,4.29-5.15,5.66-8.26,2.23-5.17,3.9-10.51,4.86-16.05,1.47-8.4,3.54-16.68,5.72-24.92,1.55-5.93,3.21-11.84,4.7-17.78,1.25-4.91,2.7-9.75,4.25-14.57,1.31-4.07,2.64-8.12,4.01-12.16.78-2.37,1.64-4.74,2.43-7.11.2-.59.53-1.17.45-1.94-.35-.16-.7-.39-1.08-.49-1.94-.49-3.92-.61-5.89-.37-1.04.12-2.08.49-3.07.88-1.88.78-3.58,1.9-5.13,3.21-3.52,3-6.17,6.62-7.75,11-2.29,6.34-4.35,12.71-6.28,19.15-.06.2-.1.41-.14.59.14.16.22.31.37.39,1.94,1.17,2.56,3.05,2.7,5.15.16,2.43-.16,4.8-.74,7.13-1.53,6.17-3.99,11.94-7.22,17.37-1.06,1.76-2.39,3.27-3.86,4.68-2,1.92-4.03,3.82-6.01,5.76-2.23,2.19-4.13,4.6-5.68,7.32-1.06,1.86-1.94,3.8-2.49,5.87-.12.47-.25.94-.43,1.37-.35.78-1.14,1.19-1.82,1.02-.8-.2-1.31-.9-1.25-1.8.02-.37.12-.74.22-1.1,1.37-4.93,3.84-9.26,7.3-12.98,2.29-2.47,4.74-4.78,7.15-7.13,1.8-1.76,3.52-3.56,4.76-5.78,1.86-3.31,3.39-6.77,4.62-10.34.88-2.53,1.72-5.07,2.02-7.73.14-1.17.14-2.33.18-3.52.02-.1,0-.2-.02-.31-.37-2.02-1.29-2.72-3.23-2.19-2.88.78-5.44,2.19-7.69,4.13-2.41,2.11-4.48,4.56-6.38,7.15-1.9,2.58-3.84,5.13-5.81,7.64-3.84,4.95-8.56,8.89-13.98,12.04-6.6,3.86-12.88,8.2-18.76,13.06-2.68,2.21-5.29,4.5-7.67,7.03-2.53,2.68-4.91,5.48-6.68,8.75-1.04,1.9-1.61,3.92-1.9,6.07-.47,3.6-.65,7.22-.61,10.83.02,4.37.02,8.77.08,13.14.04,2.72.18,5.44.33,8.14.12,2.29.31,4.58.47,6.87.04.61-.16.9-.8.92-2.09.06-4.15.12-6.3-.06-.31-.88-.1-1.72-.06-2.56,0-.41.12-.84.14-1.25.14-3.58.22-7.15.43-10.71.31-4.97.22-9.93.25-14.88.02-3.54-.27-7.03-.65-10.53-.31-2.76-1.37-5.25-2.86-7.58-2.23-3.47-5.03-6.48-7.99-9.34-5.6-5.4-11.79-10-18.29-14.23-2.62-1.68-5.27-3.25-7.89-4.89-4.07-2.53-7.6-5.66-10.73-9.28-2.98-3.45-5.5-7.24-8.28-10.81-1.9-2.43-3.95-4.76-6.48-6.6-1.96-1.41-4.09-2.51-6.46-3.09-.04,0-.1-.02-.14-.04-1.76-.37-2.64.27-2.94,1.98-.29,1.51-.16,3,.12,4.46,1.25,6.5,3.68,12.57,6.99,18.29,1.33,2.29,3.19,4.11,5.13,5.89,3.15,2.88,6.23,5.83,8.77,9.3,2.35,3.23,4.03,6.77,5.13,10.61.2.74.16,1.37-.39,1.92-.8.8-2.06.61-2.58-.37-.14-.29-.22-.61-.31-.92-1.25-4.7-3.74-8.67-6.93-12.29-1.9-2.19-4.11-4.03-6.13-6.07-.49-.49-.98-.98-1.49-1.45-2.06-1.84-3.58-4.09-4.89-6.5-2.45-4.58-4.44-9.34-5.76-14.37-.55-2.13-.92-4.27-1.06-6.46-.1-1.43.12-2.86.63-4.23.45-1.21,1.35-2.02,2.45-2.76-.02-.25.02-.53-.06-.76-2.06-6.73-4.07-13.49-6.68-20.03-2.41-6.09-6.62-10.63-12.65-13.39-1.33-.59-2.72-.92-4.19-.92-1.43.02-2.86.06-4.29.41-.51.12-1,.29-1.53.53.14.53.27.98.41,1.43,1.61,4.74,3.29,9.46,4.84,14.23,1.8,5.64,3.58,11.28,5.21,16.99,1.43,5.01,2.6,10.12,3.97,15.15,1.82,6.68,3.6,13.39,5.15,20.13.7,3.13,1.27,6.28,1.88,9.4,1.19,6.09,2.78,12.06,5.38,17.72.88,1.9,1.82,3.74,3.17,5.36,1.37,1.64,2.92,3.11,4.56,4.5,3.97,3.39,8.26,6.4,12.43,9.55,4.05,3.07,8.03,6.19,11.63,9.77,2.86,2.84,5.5,5.85,7.58,9.28.51.88.96,1.78,1.43,2.68.1.16.12.37.2.74-.43-.1-.74-.12-1-.22-2.51-.92-5.03-1.8-7.5-2.82-3.29-1.35-6.54-2.84-9.71-4.52-6.95-3.7-13.51-7.97-19.62-12.94-2.11-1.72-4.11-3.54-6.15-5.36-1.14-1.04-2.27-2.11-3.35-3.19-4.29-4.27-8.2-8.85-11.79-13.72-4.95-6.66-9.12-13.8-12.57-21.34-3.33-7.3-5.89-14.86-7.69-22.69-.86-3.68-1.47-7.4-2-11.16-1.08-7.58-1.12-15.21-.84-22.83.1-2.72.55-5.4.82-8.12.33-3.29.96-6.52,1.64-9.75,1.1-5.23,2.56-10.36,4.37-15.39,1.59-4.42,3.41-8.73,5.52-12.94,3.95-7.79,8.63-15.09,14.12-21.87,3.48-4.27,7.2-8.32,11.22-12.08,7.01-6.54,14.66-12.22,23.04-16.93,7.28-4.09,14.86-7.46,22.83-9.95,5.31-1.66,10.69-2.98,16.17-3.88,3.68-.59,7.38-1,11.1-1.31,5.07-.43,10.14-.33,15.21-.16,2.9.1,5.83.45,8.75.82,5.13.63,10.2,1.61,15.21,2.94,6.13,1.64,12.12,3.72,17.95,6.3,7.38,3.27,14.35,7.3,20.95,11.98,3.09,2.19,6.09,4.5,8.91,7.03,1.74,1.57,3.54,3.11,5.19,4.76,2.86,2.8,5.62,5.7,8.18,8.77,3.39,4.07,6.52,8.32,9.38,12.78,4.6,7.22,8.38,14.86,11.34,22.89,1.72,4.66,3.15,9.4,4.27,14.25.74,3.27,1.39,6.56,1.84,9.89.47,3.37.76,6.77,1.02,10.18.31,4.11.29,8.22.12,12.31Z"/>
      <path class="cls-1" d="M224.29,115.34c0-3.41-.41-6.79-.96-10.16-1.02-5.99-2.78-11.73-5.19-17.27-3.37-7.71-8.03-14.55-13.78-20.67-4.11-4.39-8.73-8.14-13.8-11.39-4.97-3.17-10.26-5.68-15.82-7.62-3.82-1.33-7.77-2.29-11.77-2.96-3.41-.55-6.87-.88-10.32-.98-2.29-.06-4.58,0-6.87.18-3.31.27-6.56.67-9.81,1.33-6.91,1.37-13.45,3.76-19.68,6.99-3.17,1.64-6.19,3.54-9.1,5.62-3.19,2.27-6.13,4.82-8.89,7.58-2.06,2.06-4.01,4.27-5.83,6.58-4.95,6.32-8.75,13.25-11.47,20.79-1.88,5.23-3.11,10.63-3.76,16.15-.33,2.76-.55,5.52-.53,8.32.12,2.23.29,4.46.39,6.68.12,2.51.57,4.99,1.02,7.44.84,4.58,2.19,9.01,3.88,13.33,1.76,4.44,3.97,8.65,6.54,12.63,2.19,3.37,4.58,6.58,7.28,9.55,3.11,3.39,6.46,6.52,10.14,9.28,5.93,4.46,12.35,7.97,19.34,10.49,4.13,1.49,8.34,2.62,12.65,3.35,3.15.53,6.34.9,9.53.98,2.66.1,5.34.1,7.99-.16,2.6-.25,5.19-.53,7.77-1,6.48-1.17,12.71-3.17,18.66-5.99,4.21-1.98,8.2-4.39,11.94-7.13,3.07-2.25,5.95-4.68,8.63-7.38,2.92-2.96,5.62-6.13,8.05-9.53,3.88-5.4,6.99-11.2,9.28-17.46,1.68-4.52,2.86-9.16,3.68-13.88.67-3.86.72-7.75.98-11.63.06-.67-.16-1.37-.16-2.06ZM213.01,118.85c-1.78.29-4.64-.92-5.34.27,0,0-.45.96-.06,1.27,0,0-1.25-.98-1.47-1.68,0,0-.61,2.19-2.68-.16,0,0-.63-.53-.31,1.02,0,0-.49.06-.92-.16-.45-.25-.14,1.33-.57.33-.43-.98-.39-.78-1.74-1.23-1.35-.45-1.64-.51-1.72.33-.06.82.9.59.25,1.33-.65.72-1.21.18-.37,2.74,0,0,.31.76.88.78,0,0-.76,1.1-2.37-.08-1.61-1.17-2.84-2.84-2.84-2.84l-4.6-1.57-2.06.14s-1.25-2.39-2.21-.55c0,0-2.11-.65-3.07.67-.96,1.35-1.12,1.92-1.33,2.62-.2.67-.94,1.45-2.29.8-1.33-.63-3.8.43-3.23,1.68,0,0-1.21-1-2.43-.86-1.21.12-3.52.22-4.44,1.02-.92.8-.76,4.29-.76,4.29l-1.47.22s.1.84-.88.94c-.96.1-1.49-.18-1.02.47.49.63.18.8-.82.88-1,.06.88,1.43-.7,1.45-1.57.02,1.37,3.03-.65,1.45-2.04-1.57-.74-2.02-.74-2.02,0,0,.1-1.08.7-1.45,0,0-.67-1.39.94-1.27l.65-1.61-.02-1.49s-1.53-.16-1.53,1.47c-.02,1.64-2.41-1.12-3.13-.22l.08,1.94-.67.74.08.96s-1.23,1.29-1.68,1.19c-.45-.1-.72.78-.72.78,0,0-.98-1.02-1-3.13,0,0-.74-.14.29-1.98,1.04-1.86-.49-1.72-.69-.59-.18,1.12-1.49,1.96-.92,3.09.57,1.14-.25,2.15-.84,2.56-.57.41-1.68,1.64-1.98,2.92s-.7.76-.86,1.92c-.16,1.14-2.92,8.34-4.21,9.44-1.31,1.12-1.23,2.66-.9,3.07.33.41-1.41-.16-1.7-1.21,0,0-1.51-.25-1.29-1.78.2-1.53,1.82-3.84.94-4.72-.9-.88-1.43.82-1.43.82,0,0-.41.33-.65.12-.25-.18-.88-.27-1.21.02-.31.29-.78.02-.84-.55-.06-.55.35-.29.16-1.66,0,0,2.35-1.53.1-3.74,0,0,3.03-.39.04-2.19l-.1-.57s1.1-.63.22-1.21c-.88-.55-1.8-1.94-2.39-1.02-.59.92-.76-.96-1.82-1.12-1.06-.16-.31,1.29-1.92-.1-1.59-1.39,0-.57.61-1.92.61-1.35-.7.49-.74-1.02-.04-1.51-2.78-.76-2.78-.76l-.27-.39-1.39.25-.84-.86-2.56.18s-.49-1.39-1.8-.31c-1.31,1.08-1.78.14-1.78.14,0,0-1.57-.65-1.98-.1-.41.55-1.02-.16-1.02-.16,0,0-2.72-2.27-5.03-2.82-2.29-.57-20.42-4.52-20.42-4.52l-.16-1.14s-1-2.88-1.84-3.31l-.88.12-.1-.61-.76.02-.16-.96-1.43.59s-.69-1.27.59-1.94c1.29-.7,1.37.12,3.13-1.17l1.84-.47s.55-.06,2.72-2.45c2.19-2.39,3.43-3.35,5.38-3,1.94.33,5.6-.9,6.83-2.11,1.23-1.21,2.13-2.92,3.19-3.05s3.31-.65,3.66-2.11c.35-1.45.88-1.86,1.74-2.39s1.82-1.55,2.04-1.84c.22-.27.69-.86,2.11-1.35,1.39-.51,2.09-2.62,2.56-3.17.47-.57,1.51-1.49,2.49-1.94,1-.47,1.84-1.25,2.94-1.47,1.12-.2,5.36-1.68,7.38-.41,2.04,1.25.14,1.78-1.51,1.74,0,0-2.11-.22-2.09.51,0,.72.57.76.57.76,0,0-1.51,1.41-2.17,1.72-.67.29-1.17,1.53-1.9,1.98-.74.47-2.27,1.8-1.41,2.23,0,0-1.08,1-1.33,1.74,0,0-.78.7-1.39,3.11l-.84.14s-1.04,5.25-.35,6.17c.72.94.45-.86,1.37-1.72.92-.86-.29-1.1-.29-1.1l.72-.8s0,1.17.31.84c.31-.31,2.8-3.39,3.8-3.39.98.02-.55,1.53-1.49,2.02-.92.47-.88,2.88-.25,1.82.65-1.08,1.45-2.68,3.37-2.68,1.94.02,4.6.67,5.19.57,0,0-.82,1.17-.08.96.74-.22.76-.78.76-.78l.74.51.04.82s.59.12.82-.12,1.98,1.39,1.98,1.39l.14,1.37,1.19.94.02.67,1.27.76.12.8s.39.65,1.66.35l-.02.45s-.43.61.04.92c.47.29.41,1.14.41,1.14l1.23-.02s.2.33.82-.14c0,0,.72.51,1.19-.16l.65-.33.92.29s.27-.98,1.27-1.08c0,0,.9-.76,1.55.1.67.88.31,1.39,1.61,1.35,0,0,.43.9.96.86.55-.02.9-1.19.86-1.47l1.29-.14.33,1.04,1.12-.1.02.8s.88,1,.82-.65l.82-.86.06-.94.96-.27,1-1.49s2.74-.65,4.11-2.84c0,0,1.82-1.84,1.94-.82.16,0,2.29-.02,3.48-1.06l1.19-.16s.06-.67,1.51-.1c0,0,6.75.2,8.81-2.06,0,0,1.1-1.12,1.94-1.12,0,0,.47.1.72-.57,0,0,.98-.27,1.53.37.53.63,3.64-1.76,2.6.02s-1.68,2.06-1.02,3.66c.63,1.61-.31,3.37.35,3.78.63.41,3.25-.33,4.01.18.74.53,1.31.27,2.29-.37.98-.65,2.04-1.29,2.53.1.51,1.39.7,1.61,2.04.12,1.35-1.51.57-1.76,2.15-2.13,1.55-.37,1.35.49,2.39-.84,1.06-1.31,2.33.14,1.57,1-.76.88-.43,1.55.37,2.29.82.74,2.02,3.52,1.49,3.56,0,0-.02,2.58-1.84-.14,0,0,.31,2.47-2.15,1.14,0,0,1.39,2.33,2.25,1.57.86-.76,1.92.27,2.7.45.8.2.8.61-.08.9-.88.29,2.51,2.21,2.51,2.21l1.04.08s1.43,1.39-.35,1.68Z"/>
    </g>
  </g>
</svg>