<?xml version="1.0" encoding="UTF-8"?>
<svg id="Layer_2" data-name="Layer 2" xmlns="http://www.w3.org/2000/svg" viewBox="0 0 240.01 85.26">
  <defs>
    <style>
      .cls-1 {
        fill: #fff;
        stroke-width: 0px;
      }
    </style>
  </defs>
  <g id="Layer_1-2" data-name="Layer 1">
    <g>
      <g>
        <g>
          <path class="cls-1" d="M92.91,26.34V9.47c.18-.07.83-.15,1.96-.23,1.13-.08,2.09-.12,2.87-.12,3.1,0,5.48.9,7.13,2.7,1.37,1.5,2.06,3.47,2.06,5.91,0,3.05-.9,5.34-2.7,6.87-1.62,1.39-3.93,2.08-6.92,2.08-1.83,0-3.3-.12-4.41-.35ZM97.02,12.52v10.85c.32.07.63.11.94.11h.05c3.1-.05,4.65-1.93,4.65-5.64,0-1.85-.52-3.27-1.55-4.25-.84-.77-1.9-1.15-3.18-1.15-.27,0-.57.03-.91.08Z"/>
          <path class="cls-1" d="M114.02,9.45v16.92h-4.03V9.45h4.03Z"/>
          <path class="cls-1" d="M122.41,9.45h3.31l6.28,16.92h-4.17c-.41-1.39-.75-2.5-1.02-3.34h-5.56c-.52,1.53-.86,2.65-1.04,3.34h-4.09l6.28-16.92ZM124.12,14.95c-.52,1.39-1.07,2.95-1.66,4.68h3.21c-.37-1.14-.89-2.7-1.55-4.68Z"/>
          <path class="cls-1" d="M134.09,26.34V9.47c1.3-.23,3.01-.35,5.13-.35,2.3,0,4.02.54,5.16,1.63.89.86,1.34,1.99,1.34,3.39,0,.78-.36,1.51-1.07,2.18-.71.67-1.47,1-2.27,1h-.19v.03c1.21.13,2.17.57,2.89,1.32.71.76,1.07,1.73,1.07,2.93,0,1.71-.74,3.01-2.22,3.9-1.28.78-3.02,1.18-5.21,1.18-1.85,0-3.39-.12-4.62-.35ZM138.2,12.52v3.29h1.66c.68,0,1.15-.12,1.43-.37.28-.25.41-.68.41-1.28,0-1.18-.77-1.76-2.3-1.76-.41,0-.81.04-1.2.13ZM138.2,19.07v4.17c.44.2.93.29,1.44.29,1.5,0,2.24-.65,2.24-1.95,0-1.67-.76-2.51-2.27-2.51h-1.42Z"/>
          <path class="cls-1" d="M149.05,9.45h11.52v3.26h-7.4v3.34h6.15v3.26h-6.15v3.79h7.75v3.26h-11.86V9.45Z"/>
          <path class="cls-1" d="M167.12,12.71h-4.78v-3.26h14.06v3.26h-5.13v13.65h-4.14v-13.65Z"/>
          <path class="cls-1" d="M178.66,9.45h11.52v3.26h-7.4v3.34h6.15v3.26h-6.15v3.79h7.75v3.26h-11.86V9.45Z"/>
          <path class="cls-1" d="M192.61,24.52l1.84-2.54c.98.69,2.27,1.04,3.87,1.04s2.51-.63,2.51-1.9c0-.77-1.05-1.5-3.15-2.22-2.92-1.02-4.38-2.7-4.38-5.05,0-1.46.54-2.63,1.63-3.5,1.02-.82,2.38-1.23,4.09-1.23,1.94,0,3.8.61,5.58,1.84-.37.57-.96,1.42-1.76,2.54-1.62-.62-2.93-.94-3.93-.94-1.18,0-1.76.44-1.76,1.31,0,.66.95,1.38,2.86,2.16,1.76.73,3.04,1.51,3.83,2.35.79.84,1.19,1.83,1.19,2.97,0,1.82-.68,3.2-2.03,4.14-1.09.78-2.46,1.18-4.12,1.18-1.92,0-4.02-.72-6.28-2.16Z"/>
        </g>
        <g>
          <path class="cls-1" d="M97.18,34.58h3.31l6.28,16.92h-4.17c-.41-1.39-.75-2.5-1.02-3.34h-5.56c-.52,1.53-.86,2.65-1.04,3.34h-4.09l6.28-16.92ZM98.89,40.09c-.52,1.39-1.07,2.95-1.66,4.68h3.21c-.37-1.14-.89-2.7-1.55-4.68Z"/>
          <path class="cls-1" d="M118.27,34.58c.8,3.33,1.66,6.73,2.57,10.21l1.42-10.21h4.14l-3.74,16.92h-3.31c-.85-3.22-1.92-6.87-3.21-10.93-1.35,4.31-2.44,7.95-3.26,10.93h-3.37l-3.58-16.92h4.12l1.34,10.21c1.21-4.56,2.1-7.96,2.67-10.21h4.22Z"/>
          <path class="cls-1" d="M131.58,34.58h3.31l6.28,16.92h-4.17c-.41-1.39-.75-2.5-1.02-3.34h-5.56c-.52,1.53-.86,2.65-1.04,3.34h-4.09l6.28-16.92ZM133.29,40.09c-.52,1.39-1.07,2.95-1.66,4.68h3.21c-.37-1.14-.89-2.7-1.55-4.68Z"/>
          <path class="cls-1" d="M143.25,51.5v-16.89c.12-.05.82-.12,2.08-.21,1.26-.09,2.24-.13,2.94-.13,4.44,0,6.65,1.78,6.65,5.34,0,1.98-.69,3.63-2.06,4.94.73,1.76,1.81,4.08,3.23,6.95h-4.14c-.85-2-1.75-3.95-2.7-5.85-.29.05-.5.08-.64.08-.52,0-.94-.06-1.26-.19v5.96h-4.11ZM147.37,42.17c.45.18.97.27,1.58.27,1.1,0,1.66-.94,1.66-2.83,0-1.35-.59-2.03-1.76-2.03-.98,0-1.47.06-1.47.19v4.41Z"/>
          <path class="cls-1" d="M158.7,34.58h11.52v3.26h-7.4v3.34h6.15v3.26h-6.15v3.79h7.75v3.26h-11.86v-16.92Z"/>
          <path class="cls-1" d="M173.72,51.5v-16.92h3.37c4.06,5.13,6.88,8.74,8.44,10.82v-10.82h4.12v16.92h-3.47c-2.98-3.47-5.78-6.96-8.42-10.45v10.45h-4.04Z"/>
          <path class="cls-1" d="M193.62,34.58h11.52v3.26h-7.4v3.34h6.15v3.26h-6.15v3.79h7.75v3.26h-11.86v-16.92Z"/>
          <path class="cls-1" d="M207.57,49.65l1.84-2.54c.98.69,2.27,1.04,3.87,1.04s2.51-.63,2.51-1.9c0-.77-1.05-1.5-3.15-2.22-2.92-1.02-4.38-2.7-4.38-5.05,0-1.46.54-2.63,1.63-3.5,1.02-.82,2.38-1.23,4.09-1.23,1.94,0,3.8.61,5.58,1.84-.37.57-.96,1.42-1.76,2.54-1.62-.62-2.93-.94-3.93-.94-1.18,0-1.76.44-1.76,1.31,0,.66.95,1.38,2.86,2.16,1.76.73,3.04,1.51,3.83,2.35.79.84,1.19,1.83,1.19,2.97,0,1.82-.68,3.2-2.03,4.14-1.09.78-2.46,1.18-4.12,1.18-1.92,0-4.02-.72-6.28-2.16Z"/>
          <path class="cls-1" d="M220.96,49.65l1.84-2.54c.98.69,2.27,1.04,3.87,1.04s2.51-.63,2.51-1.9c0-.77-1.05-1.5-3.15-2.22-2.92-1.02-4.38-2.7-4.38-5.05,0-1.46.54-2.63,1.63-3.5,1.02-.82,2.38-1.23,4.09-1.23,1.94,0,3.8.61,5.58,1.84-.37.57-.96,1.42-1.76,2.54-1.62-.62-2.93-.94-3.93-.94-1.18,0-1.76.44-1.76,1.31,0,.66.95,1.38,2.86,2.16,1.76.73,3.04,1.51,3.83,2.35.79.84,1.19,1.83,1.19,2.97,0,1.82-.68,3.2-2.03,4.14-1.09.78-2.46,1.18-4.12,1.18-1.92,0-4.02-.72-6.28-2.16Z"/>
        </g>
        <g>
          <path class="cls-1" d="M97.18,59.72h3.31l6.28,16.92h-4.17c-.41-1.39-.75-2.5-1.02-3.34h-5.56c-.52,1.53-.86,2.65-1.04,3.34h-4.09l6.28-16.92ZM98.89,65.22c-.52,1.39-1.07,2.95-1.66,4.68h3.21c-.37-1.14-.89-2.7-1.55-4.68Z"/>
          <path class="cls-1" d="M108.86,76.63v-16.92h3.37c4.06,5.13,6.88,8.74,8.44,10.82v-10.82h4.12v16.92h-3.47c-2.98-3.47-5.78-6.96-8.42-10.45v10.45h-4.03Z"/>
          <path class="cls-1" d="M128.88,76.6v-16.86c.18-.07.83-.15,1.96-.23,1.13-.08,2.09-.12,2.87-.12,3.1,0,5.48.9,7.13,2.7,1.37,1.5,2.06,3.47,2.06,5.91,0,3.05-.9,5.34-2.7,6.87-1.62,1.39-3.93,2.08-6.92,2.08-1.84,0-3.3-.12-4.41-.35ZM132.99,62.79v10.85c.32.07.63.11.94.11h.05c3.1-.05,4.65-1.93,4.65-5.64,0-1.85-.52-3.27-1.55-4.25-.84-.77-1.9-1.15-3.18-1.15-.27,0-.57.03-.91.08Z"/>
          <path class="cls-1" d="M156.99,59.72h3.31l6.28,16.92h-4.17c-.41-1.39-.75-2.5-1.02-3.34h-5.56c-.52,1.53-.86,2.65-1.04,3.34h-4.09l6.28-16.92ZM158.7,65.22c-.52,1.39-1.07,2.95-1.66,4.68h3.21c-.37-1.14-.89-2.7-1.55-4.68Z"/>
          <path class="cls-1" d="M180.37,61.75l-1.58,2.65c-1.32-1-2.47-1.5-3.45-1.5-1.23,0-2.21.49-2.94,1.47-.73.98-1.1,2.31-1.1,3.98,0,1.23.34,2.33,1.02,3.31.8,1.12,1.92,1.68,3.37,1.68.86,0,1.96-.42,3.31-1.26l1.58,2.49c-1.46,1.59-3.26,2.38-5.4,2.38-3.05,0-5.28-1.11-6.71-3.34-.94-1.5-1.42-3.25-1.42-5.26,0-2.81.69-5.01,2.08-6.57,1.41-1.59,3.43-2.38,6.07-2.38,1.64,0,3.36.78,5.16,2.35Z"/>
          <path class="cls-1" d="M186.68,62.98h-4.78v-3.26h14.06v3.26h-5.13v13.65h-4.14v-13.65Z"/>
          <path class="cls-1" d="M202.36,59.72v16.92h-4.04v-16.92h4.04Z"/>
          <path class="cls-1" d="M213.24,59.39c2.65,0,4.7,1.04,6.15,3.13,1.12,1.64,1.68,3.61,1.68,5.91,0,2.65-.73,4.77-2.19,6.33-1.39,1.46-3.27,2.19-5.64,2.19-2.71,0-4.77-.94-6.17-2.83-1.11-1.5-1.66-3.39-1.66-5.69,0-2.69.73-4.88,2.19-6.57,1.41-1.64,3.29-2.46,5.64-2.46ZM213.24,73.53c2.37,0,3.55-1.7,3.55-5.1,0-1.82-.35-3.22-1.04-4.2-.62-.89-1.46-1.34-2.51-1.34-1.14,0-2.02.48-2.65,1.44-.62.96-.94,2.32-.94,4.09,0,3.4,1.19,5.1,3.58,5.1Z"/>
          <path class="cls-1" d="M224.09,76.63v-16.92h3.37c4.06,5.13,6.88,8.74,8.44,10.82v-10.82h4.12v16.92h-3.47c-2.98-3.47-5.78-6.96-8.42-10.45v10.45h-4.04Z"/>
        </g>
      </g>
      <g>
        <path class="cls-1" d="M85.15,38.73c-.1-.98-.21-1.95-.37-2.93-.23-1.42-.53-2.82-.9-4.21-.66-2.51-1.57-4.93-2.68-7.28-.46-.98-.98-1.92-1.5-2.86-.74-1.31-1.57-2.56-2.44-3.78-.86-1.21-1.8-2.36-2.79-3.46s-2.04-2.16-3.13-3.16c-1.05-.97-2.15-1.86-3.3-2.71-1.78-1.32-3.65-2.5-5.61-3.53-1.01-.52-2.04-1.01-3.08-1.46-1.56-.67-3.16-1.24-4.79-1.71-1.29-.38-2.61-.69-3.93-.94-.94-.17-1.88-.33-2.83-.43-.34-.04-.69-.08-1.04-.1-.62-.06-1.24-.13-1.85-.15-.73-.02-1.46,0-2.18,0-1.04-.01-2.1-.05-3.13.07-.53.06-1.06.06-1.58.13-.96.12-1.92.25-2.87.42-1.75.31-3.46.74-5.16,1.26-1.55.48-3.06,1.06-4.54,1.72-2.07.92-4.05,1.98-5.95,3.22-1.31.85-2.57,1.78-3.77,2.76-.85.69-1.66,1.42-2.46,2.16-1.15,1.08-2.21,2.25-3.23,3.45-.98,1.15-1.89,2.36-2.74,3.62-1.18,1.76-2.24,3.6-3.15,5.53-.6,1.28-1.15,2.57-1.63,3.9-.62,1.71-1.11,3.46-1.51,5.23-.27,1.21-.48,2.44-.64,3.67-.12.92-.2,1.83-.27,2.76-.06.81-.07,1.63-.09,2.45-.01.44.02.88.05,1.31.05.71.02,1.42.1,2.14.09.75.12,1.51.21,2.26.13.96.28,1.92.46,2.87.32,1.58.72,3.16,1.22,4.7.36,1.12.77,2.23,1.22,3.33.57,1.37,1.21,2.71,1.92,4.02.89,1.64,1.89,3.21,2.99,4.72.92,1.27,1.9,2.48,2.96,3.63.68.73,1.38,1.45,2.11,2.14.73.7,1.49,1.38,2.27,2.03.97.82,2,1.58,3.04,2.3,1.46,1.01,2.98,1.92,4.56,2.74,1.39.73,2.81,1.36,4.27,1.92,1.69.65,3.42,1.2,5.19,1.63,1.18.28,2.36.52,3.56.71.48.08.96.14,1.44.19.41.05.81.08,1.22.12.64.05,1.27.12,1.9.15.82.03,1.64.02,2.46.03,1.03.01,2.06-.04,3.09-.13.93-.08,1.86-.2,2.79-.34.92-.14,1.85-.3,2.77-.5,1.86-.41,3.7-.93,5.49-1.6,1.76-.65,3.48-1.4,5.15-2.28,1.71-.9,3.34-1.9,4.92-3.02,1.54-1.1,3.01-2.29,4.4-3.59.88-.82,1.75-1.68,2.54-2.59.63-.73,1.28-1.46,1.89-2.22,1.03-1.29,1.97-2.65,2.84-4.06.98-1.57,1.83-3.22,2.59-4.9.86-1.89,1.57-3.84,2.12-5.84.62-2.22,1.09-4.47,1.32-6.76.03-.36.07-.73.1-1.09.05-.57.13-1.14.14-1.72.05-1.97.06-3.94-.14-5.9ZM76.64,44.13c-.03.86-.12,1.72-.22,2.58-.21,1.73-.56,3.44-1.02,5.11-.39,1.42-.89,2.8-1.47,4.15-.98,2.26-2.18,4.4-3.62,6.4-.66.91-1.36,1.78-2.09,2.63-.76.87-1.57,1.69-2.41,2.48-1.27,1.2-2.64,2.28-4.08,3.26-1.57,1.07-3.22,2-4.94,2.79-1.06.49-2.14.93-3.25,1.29-.08.03-.17.04-.31.08.04-.12.06-.19.09-.25.41-.83.94-1.58,1.54-2.29.86-1.02,1.83-1.9,2.87-2.72,1.11-.86,2.24-1.71,3.36-2.57.78-.6,1.56-1.2,2.28-1.87.71-.67,1.22-1.46,1.61-2.34.63-1.47,1.11-2.98,1.38-4.56.42-2.39,1-4.74,1.63-7.07.44-1.68.91-3.36,1.33-5.05.35-1.39.77-2.77,1.21-4.14.37-1.15.75-2.3,1.14-3.45.22-.67.46-1.35.69-2.02.06-.17.15-.33.13-.55-.1-.05-.2-.11-.31-.14-.55-.14-1.11-.17-1.67-.1-.3.03-.59.14-.87.25-.53.22-1.02.54-1.46.91-1,.85-1.75,1.88-2.2,3.12-.65,1.8-1.24,3.61-1.78,5.44-.02.06-.03.12-.04.17.04.05.06.09.1.11.55.33.73.86.77,1.46.05.69-.05,1.36-.21,2.03-.44,1.75-1.13,3.39-2.05,4.93-.3.5-.68.93-1.1,1.33-.57.55-1.14,1.09-1.71,1.64-.63.62-1.17,1.31-1.61,2.08-.3.53-.55,1.08-.71,1.67-.03.13-.07.27-.12.39-.1.22-.33.34-.52.29-.23-.06-.37-.26-.35-.51,0-.1.03-.21.06-.31.39-1.4,1.09-2.63,2.07-3.69.65-.7,1.35-1.36,2.03-2.03.51-.5,1-1.01,1.35-1.64.53-.94.96-1.92,1.31-2.94.25-.72.49-1.44.57-2.19.04-.33.04-.66.05-1,0-.03,0-.06,0-.09-.1-.57-.37-.77-.92-.62-.82.22-1.54.62-2.18,1.17-.68.6-1.27,1.29-1.81,2.03-.54.73-1.09,1.46-1.65,2.17-1.09,1.4-2.43,2.52-3.97,3.42-1.87,1.1-3.66,2.33-5.33,3.71-.76.63-1.5,1.28-2.18,2-.72.76-1.39,1.56-1.9,2.48-.3.54-.46,1.11-.54,1.72-.13,1.02-.19,2.05-.17,3.08,0,1.24,0,2.49.02,3.73.01.77.05,1.54.09,2.31.03.65.09,1.3.13,1.95.01.17-.05.26-.23.26-.59.02-1.18.03-1.79-.02-.09-.25-.03-.49-.02-.73,0-.12.03-.24.04-.35.04-1.02.06-2.03.12-3.04.09-1.41.06-2.82.07-4.23,0-1-.08-2-.19-2.99-.09-.78-.39-1.49-.81-2.15-.63-.99-1.43-1.84-2.27-2.65-1.59-1.53-3.35-2.84-5.19-4.04-.74-.48-1.5-.92-2.24-1.39-1.15-.72-2.16-1.61-3.05-2.63-.85-.98-1.56-2.05-2.35-3.07-.54-.69-1.12-1.35-1.84-1.87-.56-.4-1.16-.71-1.83-.88-.01,0-.03,0-.04-.01-.5-.1-.75.08-.84.56-.08.43-.05.85.03,1.27.35,1.85,1.04,3.57,1.98,5.19.38.65.91,1.17,1.46,1.67.89.82,1.77,1.65,2.49,2.64.67.92,1.14,1.92,1.46,3.01.06.21.05.39-.11.55-.23.23-.59.17-.73-.1-.04-.08-.06-.17-.09-.26-.35-1.33-1.06-2.46-1.97-3.49-.54-.62-1.17-1.14-1.74-1.72-.14-.14-.28-.28-.42-.41-.59-.52-1.02-1.16-1.39-1.85-.7-1.3-1.26-2.65-1.64-4.08-.16-.6-.26-1.21-.3-1.83-.03-.41.03-.81.18-1.2.13-.34.38-.57.7-.78,0-.07,0-.15-.02-.21-.59-1.91-1.15-3.83-1.9-5.69-.68-1.73-1.88-3.02-3.59-3.8-.38-.17-.77-.26-1.19-.26-.41,0-.81.02-1.22.12-.15.03-.28.08-.44.15.04.15.08.28.12.41.46,1.35.93,2.69,1.38,4.04.51,1.6,1.02,3.2,1.48,4.82.41,1.42.74,2.87,1.13,4.3.52,1.9,1.02,3.8,1.46,5.72.2.89.36,1.78.53,2.67.34,1.73.79,3.42,1.53,5.03.25.54.52,1.06.9,1.52.39.46.83.88,1.29,1.28,1.13.96,2.34,1.82,3.53,2.71,1.15.87,2.28,1.76,3.3,2.77.81.81,1.56,1.66,2.15,2.63.15.25.27.5.41.76.03.05.03.1.06.21-.12-.03-.21-.03-.28-.06-.71-.26-1.43-.51-2.13-.8-.93-.38-1.86-.81-2.76-1.28-1.97-1.05-3.84-2.26-5.57-3.67-.6-.49-1.17-1-1.75-1.52-.33-.3-.64-.6-.95-.91-1.22-1.21-2.33-2.51-3.35-3.89-1.4-1.89-2.59-3.92-3.57-6.06-.95-2.07-1.67-4.22-2.18-6.44-.24-1.04-.42-2.1-.57-3.17-.31-2.15-.32-4.32-.24-6.48.03-.77.16-1.53.23-2.3.09-.93.27-1.85.46-2.77.31-1.49.73-2.94,1.24-4.37.45-1.25.97-2.48,1.57-3.67,1.12-2.21,2.45-4.28,4.01-6.21.99-1.21,2.04-2.36,3.19-3.43,1.99-1.86,4.16-3.47,6.54-4.81,2.07-1.16,4.22-2.12,6.48-2.83,1.51-.47,3.04-.85,4.59-1.1,1.04-.17,2.1-.28,3.15-.37,1.44-.12,2.88-.09,4.32-.05.82.03,1.65.13,2.48.23,1.46.18,2.9.46,4.32.84,1.74.46,3.44,1.06,5.1,1.79,2.1.93,4.07,2.07,5.95,3.4.88.62,1.73,1.28,2.53,2,.49.45,1,.88,1.47,1.35.81.8,1.6,1.62,2.32,2.49.96,1.15,1.85,2.36,2.66,3.63,1.31,2.05,2.38,4.22,3.22,6.5.49,1.32.89,2.67,1.21,4.05.21.93.39,1.86.52,2.81.13.96.21,1.92.29,2.89.09,1.17.08,2.33.03,3.49Z"/>
        <path class="cls-1" d="M63.68,32.75c0-.97-.12-1.93-.27-2.88-.29-1.7-.79-3.33-1.47-4.9-.96-2.19-2.28-4.13-3.91-5.87-1.17-1.25-2.48-2.31-3.92-3.23-1.41-.9-2.91-1.61-4.49-2.16-1.09-.38-2.21-.65-3.34-.84-.97-.16-1.95-.25-2.93-.28-.65-.02-1.3,0-1.95.05-.94.08-1.86.19-2.79.38-1.96.39-3.82,1.07-5.59,1.98-.9.46-1.76,1-2.58,1.6-.91.64-1.74,1.37-2.52,2.15-.59.59-1.14,1.21-1.65,1.87-1.4,1.79-2.48,3.76-3.26,5.9-.53,1.49-.88,3.02-1.07,4.59-.09.78-.16,1.57-.15,2.36.03.63.08,1.27.11,1.9.03.71.16,1.42.29,2.11.24,1.3.62,2.56,1.1,3.78.5,1.26,1.13,2.46,1.86,3.59.62.96,1.3,1.87,2.07,2.71.88.96,1.83,1.85,2.88,2.63,1.68,1.27,3.51,2.26,5.49,2.98,1.17.42,2.37.74,3.59.95.89.15,1.8.26,2.7.28.75.03,1.51.03,2.27-.05.74-.07,1.47-.15,2.21-.28,1.84-.33,3.61-.9,5.3-1.7,1.2-.56,2.33-1.25,3.39-2.03.87-.64,1.69-1.33,2.45-2.1.83-.84,1.6-1.74,2.29-2.7,1.1-1.53,1.98-3.18,2.63-4.96.48-1.28.81-2.6,1.04-3.94.19-1.1.2-2.2.28-3.3.02-.19-.05-.39-.05-.59ZM60.48,33.75c-.5.08-1.32-.26-1.51.08,0,0-.13.27-.02.36,0,0-.35-.28-.42-.48,0,0-.17.62-.76-.05,0,0-.18-.15-.09.29,0,0-.14.02-.26-.05-.13-.07-.04.38-.16.09-.12-.28-.11-.22-.49-.35-.38-.13-.46-.15-.49.09-.02.23.26.17.07.38-.19.2-.34.05-.1.78,0,0,.09.21.25.22,0,0-.21.31-.67-.02-.46-.33-.81-.81-.81-.81l-1.31-.45-.59.04s-.35-.68-.63-.16c0,0-.6-.19-.87.19-.27.38-.32.55-.38.74-.06.19-.27.41-.65.23-.38-.18-1.08.12-.92.48,0,0-.34-.28-.69-.24-.34.03-1,.06-1.26.29-.26.23-.21,1.22-.21,1.22l-.42.06s.03.24-.25.27c-.27.03-.42-.05-.29.13.14.18.05.23-.23.25-.28.02.25.41-.2.41-.45,0,.39.86-.19.41-.58-.45-.21-.57-.21-.57,0,0,.03-.31.2-.41,0,0-.19-.39.27-.36l.19-.46v-.42s-.44-.05-.44.42c0,.46-.68-.32-.89-.06l.02.55-.19.21.02.27s-.35.37-.48.34c-.13-.03-.2.22-.2.22,0,0-.28-.29-.28-.89,0,0-.21-.04.08-.56.3-.53-.14-.49-.2-.17-.05.32-.42.56-.26.88.16.33-.07.61-.24.73-.16.12-.48.46-.56.83s-.2.21-.24.55c-.05.33-.83,2.37-1.2,2.68-.37.32-.35.75-.26.87.09.12-.4-.05-.48-.34,0,0-.43-.07-.37-.5.06-.44.52-1.09.27-1.34-.26-.25-.41.23-.41.23,0,0-.12.09-.19.03-.07-.05-.25-.08-.34,0-.09.08-.22,0-.24-.16-.02-.16.1-.08.05-.47,0,0,.67-.44.03-1.06,0,0,.86-.11.01-.62l-.03-.16s.31-.18.06-.34c-.25-.16-.51-.55-.68-.29-.17.26-.21-.27-.52-.32-.3-.05-.09.37-.55-.03-.45-.39,0-.16.17-.55.17-.38-.2.14-.21-.29-.01-.43-.79-.21-.79-.21l-.08-.11-.39.07-.24-.24-.73.05s-.14-.39-.51-.09c-.37.31-.5.04-.5.04,0,0-.45-.19-.56-.03-.12.16-.29-.05-.29-.05,0,0-.77-.64-1.43-.8-.65-.16-5.8-1.28-5.8-1.28l-.05-.33s-.28-.82-.52-.94l-.25.03-.03-.17h-.21s-.05-.27-.05-.27l-.41.17s-.2-.36.17-.55c.37-.2.39.03.89-.33l.52-.13s.16-.02.77-.7c.62-.68.98-.95,1.53-.85.55.09,1.59-.26,1.94-.6.35-.34.6-.83.91-.86s.94-.19,1.04-.6c.1-.41.25-.53.49-.68s.52-.44.58-.52c.06-.08.2-.24.6-.38.39-.15.59-.74.73-.9.13-.16.43-.42.71-.55.28-.13.52-.35.84-.42.32-.06,1.52-.48,2.1-.12.58.35.04.5-.43.49,0,0-.6-.06-.59.15,0,.2.16.21.16.21,0,0-.43.4-.62.49-.19.08-.33.44-.54.56-.21.13-.64.51-.4.63,0,0-.31.28-.38.49,0,0-.22.2-.39.88l-.24.04s-.3,1.49-.1,1.75c.2.27.13-.24.39-.49.26-.24-.08-.31-.08-.31l.2-.23s0,.33.09.24c.09-.09.8-.96,1.08-.96.28,0-.16.44-.42.57-.26.13-.25.82-.07.52.19-.31.41-.76.96-.76.55,0,1.31.19,1.47.16,0,0-.23.33-.02.27.21-.06.21-.22.21-.22l.21.15v.23s.18.03.24-.03.56.39.56.39l.04.39.34.27v.19s.37.21.37.21l.03.23s.11.19.47.1v.13s-.13.17,0,.26c.13.08.12.33.12.33h.35s.06.09.23-.05c0,0,.2.15.34-.05l.19-.09.26.08s.08-.28.36-.31c0,0,.26-.21.44.03.19.25.09.39.46.38,0,0,.12.26.27.24.16,0,.26-.34.24-.42l.37-.04.09.3.32-.03v.23s.26.28.24-.19l.23-.24.02-.27.27-.08.28-.42s.78-.19,1.17-.81c0,0,.52-.52.55-.23.05,0,.65,0,.99-.3l.34-.05s.02-.19.43-.03c0,0,1.92.06,2.5-.59,0,0,.31-.32.55-.32,0,0,.13.03.2-.16,0,0,.28-.08.44.1.15.18,1.03-.5.74,0s-.48.59-.29,1.04c.18.46-.09.96.1,1.07.18.12.92-.09,1.14.05.21.15.37.08.65-.1.28-.19.58-.37.72.03.15.39.2.46.58.03.38-.43.16-.5.61-.6.44-.1.38.14.68-.24.3-.37.66.04.45.28-.21.25-.12.44.1.65.23.21.57,1,.42,1.01,0,0,0,.73-.52-.04,0,0,.09.7-.61.33,0,0,.39.66.64.45.24-.21.55.08.77.13.23.06.23.17-.02.26-.25.08.71.63.71.63l.3.02s.41.39-.1.48Z"/>
      </g>
    </g>
  </g>
</svg>