<?xml version="1.0" encoding="UTF-8"?><svg id="Layer_2" xmlns="http://www.w3.org/2000/svg" viewBox="0 0 1742.9 463.38"><defs><style>.cls-1{fill:#fbfbfb;}.cls-2{fill:#ffe3a6;}.cls-3{fill:#ffb419;}</style></defs><g id="Layer_1-2"><g><path class="cls-1" d="m0,224.15s88.33-126.48,431.55-32.93c138.59,37.77,882.17,173.11,942.21,157.62s273.19-58.23,273.19-58.23l95.8-105.43.16,278.2H0v-239.22Z"/><path class="cls-2" d="m1742.9,212.55c-79.8,70.6-209.8,118.1-323.7,125.8l-38.1-2,12.3,15.3,3.4-.1,10.3-.4c3.4-.1,6.9-.3,10.3-.5,6.9-.3,13.7-.8,20.6-1.2,27.5-2,54.9-5,82.4-9.8l5.1-.9,5.1-1c3.4-.7,6.9-1.3,10.3-2,6.8-1.5,13.7-2.9,20.5-4.6l5.1-1.2c1.7-.4,3.4-.9,5.1-1.3l10.2-2.7c6.8-2,13.6-3.9,20.3-6.1,3.4-1.1,6.8-2.1,10.1-3.3s6.8-2.3,10.1-3.5c6.7-2.5,13.4-5,20-7.7l5-2c1.7-.7,3.3-1.4,5-2.2,3.3-1.5,6.6-2.9,9.9-4.4l9.8-4.7c1.6-.8,3.3-1.6,4.9-2.4l4.8-2.5c12.9-6.7,48.8-30.9,61.2-38.8"/><path class="cls-2" d="m2.4,118.95c184.5-163.6,904.4,254.2,1416.7,219.4l55.6-1.4-24.8-14.5c-4.7.7-9.5,1.3-14.2,1.8-26.5,2.9-53.1,4.3-79.8,4-26.7-.1-53.5-1.8-80.1-4.6-53.3-5.5-106.1-15.7-158.1-28.9s-103.4-29.5-154.1-47.6c-25.4-9-50.6-18.5-75.8-28.3s-50.3-19.8-75.4-30c-50.2-20.4-100.3-41.2-151-61.5s-101.9-39.7-154.4-57.4c-26.2-8.8-52.7-17.2-79.7-24.9-26.9-7.7-54.3-14.8-82.1-21.1-6.9-1.6-14-3-21-4.5s-14.1-2.8-21.2-4.1c-14.2-2.7-28.6-5-43.1-7.1C230.2,3.95,200.3,1.35,170.2.35c-31.9-1.1-63.8.4-95.4,4.4C57.9,6.95,19.5,12.95,3,17.15"/><path class="cls-3" d="m0,224.15c5.8-4.7,12.1-8.9,18.8-12.5,7.2-3.8,14.6-7.1,22.4-9.7,8.6-2.9,17.4-5.3,26.3-7.1,9.9-2,19.8-3.4,29.8-4.4,22.1-2,44.4-2.6,66.6-1.6,11.7.5,23.5,1.1,35.5,2.2s24.2,2.2,36.5,3.6,24.7,2.9,37.1,4.7c6.2.8,12.5,1.8,18.8,2.6,6.3.9,12.6,1.8,18.9,2.9,25.3,3.9,50.8,8.2,76.6,12.7s51.7,9.2,77.9,13.9c52.3,9.5,105.2,19.1,158.6,28.5s107.2,18.4,161.3,27c108.1,17.2,216.8,33.5,325.4,46.7,54.3,6.5,108.7,12.1,163.2,15.4,27.3,1.6,54.6,2.7,82,2.9,12.5.1,25.1,0,37.7-.4h0c3.1-1.6,4.3-5.4,2.7-8.4-1.1-2.2-3.4-3.5-5.8-3.4C878.5,356.15,161.9-67.65,2.5,118.95"/><path class="cls-3" d="m1742.9,122.65c-11.2,22.3-24.5,43.6-39.6,63.5-1.9,2.5-3.9,4.9-5.8,7.4-1.9,2.5-4,4.8-6,7.2s-4.1,4.6-6.2,7c-1,1.1-2.1,2.3-3.1,3.5l-3.3,3.4-3.3,3.4c-1.1,1.1-2.2,2.3-3.3,3.3-2.3,2.2-4.5,4.4-6.8,6.5s-4.7,4.2-7.1,6.3c-1.2,1-2.4,2.1-3.6,3.1l-3.7,3c-9.8,8.1-20.1,15.6-30.9,22.4-10.8,7-22,13.4-33.5,19.1-11.6,5.8-23.6,11-35.8,15.6-12.2,4.7-24.7,8.7-37.4,12.2-20.9,5.8-42.2,10.1-63.7,13.1h0c-6.6,3.4-3.6,13.5,3.8,12.7,99.8-11.6,217.5-59.3,289.1-122.6"/></g></g></svg>