<?xml version="1.0" encoding="UTF-8"?>
<svg id="Layer_2" data-name="Layer 2" xmlns="http://www.w3.org/2000/svg" viewBox="0 0 2092.08 845.29">
  <defs>
    <style>
      .cls-1 {
        fill: #ffe3a6;
      }

      .cls-2 {
        fill: #ffb419;
      }
    </style>
  </defs>
  <g id="Layer_1-2" data-name="Layer 1">
    <g>
      <path class="cls-1" d="M2076.66,276.67c-52.38,49.96-30.65,40.09-394.48,264.98C1099.18,812.38,406.79,822.21,.37,801l-.37,5.67c13.53,.44,27,1.22,40.56,2,13.56,.78,27,1.62,40.53,2.5s27,1.77,40.53,2.71,27,1.84,40.55,2.83l162.53,11.44,20.37,1.44,20.38,1.31c13.59,.84,27.2,1.88,40.81,2.56s27.24,1.68,40.88,2.4l20.46,1,20.47,1.1c54.62,2.5,109.43,4.68,164.43,5.94,55,1.06,110.2,1.72,165.6,1.22,6.93,0,13.85-.15,20.78-.26l20.8-.36,20.82-.38c6.94-.15,13.88-.44,20.82-.66l41.73-1.31,41.77-2,10.46-.5c3.49-.17,7-.32,10.46-.57l20.91-1.37,20.94-1.38c7-.48,14-.85,21-1.49l41.91-3.56,10.49-.92c3.5-.29,7-.72,10.47-1.07l21-2.23,21-2.23,10.5-1.13,10.48-1.3,41.94-5.49,10.5-1.4,10.46-1.62,21-3.26,21-3.31,10.48-1.7,10.45-1.9,20.91-3.82,20.91-3.94,10.46-2,10.42-2.19c7-1.44,13.88-3,20.83-4.48l20.84-4.53,10.43-2.28,10.37-2.54,41.5-10.29,10.37-2.63,10.32-2.87,20.62-5.8,20.62-5.88,10.31-3c3.43-1,6.83-2.13,10.25-3.2l20.47-6.49,20.46-6.58,10.23-3.32c3.42-1.09,6.77-2.36,10.16-3.53l20.29-7.23,20.28-7.29c6.74-2.48,13.53-4.83,20.2-7.53,13.37-5.3,26.76-10.59,40.11-16l10-4,5-2,5-2.13,19.9-8.61c13.25-5.68,26.45-11.86,39.64-17.94,3.3-1.54,6.6-3,9.88-4.62l9.86-4.8,19.69-9.65c3.28-1.59,6.54-3.31,9.81-5l9.79-5.08c6.52-3.42,13.06-6.72,19.56-10.27l19.47-10.7c3.23-1.8,6.48-3.56,9.71-5.4l9.68-5.62,19.31-11.28,19.2-11.82,9.58-5.94,9.53-6.19c6.35-4.15,12.7-8.24,19-12.49l18.87-13,4.7-3.27,4.68-3.38,9.32-6.83c25.25-18.47,5.56-.96,28.77-21.94"/>
      <path class="cls-2" d="M2092.08,0c-1,2.46-2.05,4.92-3.19,7.33l-3.29,7.23-1.62,3.61c-.54,1.2-1.18,2.36-1.75,3.54l-3.53,7.05-1.74,3.51c-.59,1.17-1.25,2.29-1.84,3.44-1.22,2.28-2.36,4.61-3.62,6.83l-3.72,6.67c-1.26,2.2-2.58,4.34-3.86,6.51s-2.6,4.28-3.95,6.39-2.55,4.25-4,6.3l-4.08,6.19c-1.37,2.06-2.82,4.06-4.2,6.1l-2.09,3c-.69,1-1.46,2-2.18,3-1.47,2-2.92,4-4.33,6l-4.51,5.87-2.24,2.93c-.74,1-1.56,1.93-2.32,2.9l-4.64,5.79c-1.53,1.93-3.23,3.8-4.82,5.7l-2.39,2.86c-.79,1-1.57,1.92-2.43,2.85l-5,5.62-2.47,2.83-2.59,2.79c-13.7,14.89-28.44,29.48-44.21,43.75-15.76,14.31-32.49,28.39-50,42.26s-35.89,27.51-54.83,41l-7.11,5.06c-1.19,.85-2.35,1.71-3.55,2.54l-3.65,2.49-14.55,10c-4.89,3.32-9.92,6.55-14.86,9.85l-7.43,4.94-7.6,4.83-15.19,9.71-15.51,9.52-7.74,4.78c-2.6,1.59-5.26,3.12-7.88,4.69l-15.77,9.4c-2.6,1.59-5.32,3.09-8,4.63l-8,4.62c-5.37,3.06-10.63,6.22-16.07,9.24l-16.29,9.09-8.13,4.58c-2.72,1.52-5.5,3-8.25,4.47-11,5.94-21.91,12.1-33.15,17.88l-16.71,8.88-4.18,2.22-4.24,2.15-8.46,4.31c-11.3,5.73-22.56,11.57-33.84,17.39-5.59,3-11.35,5.7-17,8.51l-17.12,8.44c-91.22,45.27-185.37,87.11-282,126.36l-9,3.73-9.12,3.55-18.23,7.13-18.26,7.19-9.14,3.59-9.2,3.43-36.87,13.81-9.23,3.49-9.28,3.32-18.6,6.64c-24.76,9.08-49.85,17.22-74.92,25.81-6.26,2.18-12.58,4.1-18.89,6.14l-18.94,6-19,6.05c-3.16,1-6.34,2-9.52,2.92l-9.55,2.85c-50.82,15.73-102.37,29.46-154.28,42.59l-19.51,4.73-19.55,4.65c-3.26,.77-6.52,1.58-9.78,2.32l-9.81,2.18-19.65,4.32c-26.18,5.93-52.54,11-78.93,16.17-26.43,4.84-52.91,9.71-79.51,13.85l-19.95,3.2c-6.66,1-13.32,2-20,3l-20,2.84c-6.67,.94-13.35,1.93-20,2.76-53.46,7.12-107.15,12.75-161.07,16.9-53.88,4.11-107.91,6.5-162,6.85-13.51,.06-27,0-40.54-.13s-27-.54-40.52-.93-27-1.11-40.49-1.82-27-1.77-40.42-3l-.28,4.3c406.42,21.37,1098.84,11.54,1681.81-259.19,291.28-142.71,394.53-265,394.53-265"/>
    </g>
  </g>
</svg>