<?xml version="1.0" encoding="UTF-8"?>
<svg id="Layer_2" data-name="Layer 2" xmlns="http://www.w3.org/2000/svg" viewBox="0 0 1530.94 645.77">
  <defs>
    <style>
      .cls-1 {
        fill: #ffe3a6;
      }

      .cls-2 {
        fill: #ffb419;
      }
    </style>
  </defs>
  <g id="Layer_1-2" data-name="Layer 1">
    <g>
      <path class="cls-1" d="M0,231.84c3.77,1.33,7.53,2.5,11.29,3.69l5.63,1.78c1.87,.58,3.74,1.1,5.61,1.65s3.74,1.08,5.62,1.6,3.74,1,5.61,1.52l11.19,2.86c7.45,1.75,14.86,3.52,22.25,5s14.74,2.94,22.09,4.24c14.69,2.54,29.27,4.59,43.75,6.39,29,3.45,57.55,5.62,85.84,7.17,14.16,.69,28.21,1.38,42.23,1.85l10.48,.42,10.47,.34,20.87,.69c55.54,1.58,110.23,3,164.57,5.91,27.17,1.45,54.26,3.26,81.27,5.42,13.51,1.08,27,2.33,40.49,3.56l40.45,3.74c32.12,3,64.21,6.14,96.28,9.43l31.78-15-74.75-2.33C325.45,250.74,133.72,209.79,3.09,138.59"/>
      <path class="cls-1" d="M1530.94,408.4c-14.25-4.95-84.77-55.29-160.83-78.47-14.01-4.27-28.25-7.08-42.3-10.06s-28.06-5.5-42-7.83c-7-1.12-14-2.25-20.91-3.24s-13.9-2-20.84-2.95-13.87-1.8-20.79-2.58-13.83-1.61-20.74-2.36c-27.62-2.93-55.11-5.29-82.52-7.29-54.83-3.94-109.3-6.65-163.63-9.28s-108.46-5.12-162.52-8.17c-50.44-2.88-100.79-6.26-151-10.54l-49.28,13.67,89.52,2.57c389.2,33.78,786.81,56.6,847.84,244.85"/>
      <path class="cls-2" d="M3.09,138.59c62.93,67.26,294.51,108.65,636.7,139.41,7.4,.66,9.89-9.64,3-12.42h0l-10.8-.93c-13.45-1.18-26.9-2.43-40.33-3.76-13.44-1.34-26.87-2.7-40.26-4.35-26.8-3.25-53.49-7.28-80.06-12.11-26.57-4.83-52.94-10.59-79.09-17.28-26.15-6.67-52-14.28-77.55-22.84-25.48-8.57-50.62-18-75.07-28.44l-9.15-3.93-9.08-4c-6.06-2.64-12-5.42-18-8.21-11.86-5.65-23.55-11.44-35-17.44-22.86-12-44.68-24.83-64.92-38.19l-7.46-5.1c-2.5-1.67-4.85-3.49-7.29-5.16-1.21-.85-2.44-1.69-3.62-2.55l-3.51-2.61c-2.35-1.73-4.7-3.44-6.93-5.23s-4.57-3.45-6.74-5.25l-6.51-5.29c-2.09-1.8-4.14-3.62-6.24-5.35s-4-3.58-6-5.35c-7.43-6.77-14.48-13.95-21.1-21.52-5.86-6.59-11.2-13.61-16-21C8,13.44,4.46,6.85,1.5,0"/>
      <path class="cls-2" d="M1530.94,526.72c-58.62-180.78-427.74-209-801.76-240.93-8-.68-10.59,10.39-3.19,13.37h0c21.76,2.26,43.5,4.63,65.23,7.11,53.72,6.21,107.33,13.22,160.64,21.67s106.29,18.25,158.48,30.21c13,3,26,6.12,39,9.38s25.77,6.7,38.53,10.26c25.52,7.15,50.68,15,75.19,23.7,12.23,4.39,24.33,8.94,36.19,13.74s23.47,9.89,34.78,15.22c22.58,10.68,43.91,22.57,62.63,35.68s90.64,65.64,134.28,179.64"/>
    </g>
  </g>
</svg>