<svg id="Layer_1" data-name="Layer 1" xmlns="http://www.w3.org/2000/svg" viewBox="0 0 140.4 57.4"><defs><style>.cls-1{isolation:isolate;}.cls-2{fill:#75bd43;}.cls-3,.cls-4{fill:#76bc21;}.cls-4{fill-rule:evenodd;}.cls-5{fill:#f58237;}.cls-6{fill:#f58238;}.cls-7{fill:#f0c319;}.cls-8{fill:#5d266a;}.cls-9{fill:#5c256a;}.cls-10{fill:#67b1e2;}.cls-11{fill:#68b1e2;}</style></defs><g id="Layer_2" data-name="Layer 2"><g id="_1" data-name=" 1"><g class="cls-1"><path class="cls-2" d="M78.31,39.29V40h-2v1.08h2.24v.82H75.41V37.47h3.16v.8H76.33v1Z"/></g><g class="cls-1"><path class="cls-2" d="M80.09,38.57v.48a1.9,1.9,0,0,1,.41-.38,1.07,1.07,0,0,1,.61-.18,1.17,1.17,0,0,1,.86.34,1.42,1.42,0,0,1,.35,1v2.07h-.85V40a.69.69,0,0,0-.16-.51.61.61,0,0,0-.45-.17.72.72,0,0,0-.43.15,1.37,1.37,0,0,0-.33.35v2.13h-.85V38.57Z"/></g><g class="cls-1"><path class="cls-2" d="M86.36,38.57l-1.6,3.37h-.54l-1.57-3.37h1l.85,2.09.89-2.09Z"/></g><g class="cls-1"><path class="cls-2" d="M87.88,38.57v3.37H87V39.29h-.54v-.72Zm-.49-1.75a.58.58,0,0,1,.41.17.56.56,0,0,1,0,.8.54.54,0,0,1-.41.17.53.53,0,0,1-.41-.17.56.56,0,0,1,0-.8A.57.57,0,0,1,87.39,36.82Z"/></g><g class="cls-1"><path class="cls-2" d="M90.73,39.52a.89.89,0,0,0-.45-.12.65.65,0,0,0-.48.19,1.89,1.89,0,0,0-.34.47v1.88h-.85V38.57h.85v.64a1.69,1.69,0,0,1,.41-.5.76.76,0,0,1,.53-.2.88.88,0,0,1,.33.06Z"/></g><g class="cls-1"><path class="cls-2" d="M92.93,38.49a1.72,1.72,0,0,1,.9.23,1.92,1.92,0,0,1,.66.64,1.76,1.76,0,0,1,0,1.81,1.9,1.9,0,0,1-.66.63,1.81,1.81,0,0,1-1.8,0,1.9,1.9,0,0,1-.66-.63,1.83,1.83,0,0,1,0-1.81,1.92,1.92,0,0,1,.66-.64A1.72,1.72,0,0,1,92.93,38.49Zm0,.82a.88.88,0,0,0-.45.11.81.81,0,0,0-.33.33,1,1,0,0,0-.12.52,1.08,1.08,0,0,0,.12.52.78.78,0,0,0,.33.32,1,1,0,0,0,.9,0,.92.92,0,0,0,.33-.32,1.08,1.08,0,0,0,.12-.52,1,1,0,0,0-.12-.52,1,1,0,0,0-.33-.33A.88.88,0,0,0,92.93,39.31Z"/><path class="cls-2" d="M96.38,38.57v.48a2,2,0,0,1,.42-.38,1.06,1.06,0,0,1,.6-.18,1.15,1.15,0,0,1,.86.34,1.38,1.38,0,0,1,.35,1v2.07h-.85V40a.7.7,0,0,0-.17-.51.61.61,0,0,0-.45-.17.68.68,0,0,0-.42.15,1.62,1.62,0,0,0-.34.35v2.13h-.84V38.57Z"/><path class="cls-2" d="M100.43,38.57V39a1.76,1.76,0,0,1,.37-.35.91.91,0,0,1,.56-.16,1.27,1.27,0,0,1,.64.16,1.13,1.13,0,0,1,.45.49,1.83,1.83,0,0,1,.46-.46,1,1,0,0,1,.62-.19,1.26,1.26,0,0,1,.62.15,1.14,1.14,0,0,1,.45.47,1.47,1.47,0,0,1,.17.76v2.07h-.84V40a.66.66,0,0,0-.18-.51.65.65,0,0,0-.46-.17.57.57,0,0,0-.38.14,1.83,1.83,0,0,0-.3.32v2.17h-.85V40a.66.66,0,0,0-.18-.51.67.67,0,0,0-.84,0,1.77,1.77,0,0,0-.3.31v2.19h-.85V38.57Z"/><path class="cls-2" d="M107.21,38.49a1.69,1.69,0,0,1,.86.21,1.4,1.4,0,0,1,.54.59,1.86,1.86,0,0,1,.19.87v.36h-2.44a1,1,0,0,0,.33.55,1.1,1.1,0,0,0,.66.2,1.64,1.64,0,0,0,.67-.14,2.87,2.87,0,0,0,.48-.3v.78a2,2,0,0,1-.48.29,1.75,1.75,0,0,1-.7.14,1.89,1.89,0,0,1-.91-.23,1.69,1.69,0,0,1-.89-1.52,1.82,1.82,0,0,1,.22-.9,1.71,1.71,0,0,1,.6-.65A1.58,1.58,0,0,1,107.21,38.49Zm0,.74a.74.74,0,0,0-.52.19,1.07,1.07,0,0,0-.3.52H108a.71.71,0,0,0-.27-.54A.9.9,0,0,0,107.19,39.23Z"/><path class="cls-2" d="M110.42,38.57v.48a2,2,0,0,1,.42-.38,1.06,1.06,0,0,1,.6-.18,1.15,1.15,0,0,1,.86.34,1.38,1.38,0,0,1,.35,1v2.07h-.85V40a.7.7,0,0,0-.17-.51.61.61,0,0,0-.45-.17.68.68,0,0,0-.42.15,1.62,1.62,0,0,0-.34.35v2.13h-.84V38.57Z"/><path class="cls-2" d="M114.75,37.59v1h.93v.71h-.93v1.45a.57.57,0,0,0,.1.36.36.36,0,0,0,.31.13,1,1,0,0,0,.31,0,.88.88,0,0,0,.24-.11v.67a.85.85,0,0,1-.31.21,1.14,1.14,0,0,1-.48.09,1,1,0,0,1-.74-.29,1.08,1.08,0,0,1-.28-.8V39.28h-.61v-.43a1.47,1.47,0,0,0,.59-.43,2.24,2.24,0,0,0,.43-.83Z"/></g><path class="cls-3" d="M62.9,45.6a5.92,5.92,0,0,1-2.3-11,10.62,10.62,0,0,0,.4-1.9,7.39,7.39,0,0,0-4.3,9.6A7.47,7.47,0,0,0,62.3,47c.2-.5.4-1,.6-1.4Z"/><path class="cls-3" d="M63.6,32.3h-.8a11.26,11.26,0,0,1,3.5,2.1,6,6,0,0,1,2.6,8,5.82,5.82,0,0,1-3.7,3,17.72,17.72,0,0,1-.6,1.7A7.3,7.3,0,0,0,71,38.8a7.22,7.22,0,0,0-7.4-6.5Z"/><path class="cls-4" d="M61.5,32.2a20,20,0,0,1-.9,3.5,10.84,10.84,0,0,0-.9,5,5.25,5.25,0,0,0,2.1,3.8c.4.2.5.2.7,0a7.94,7.94,0,0,0,1-2.7,12.52,12.52,0,0,0,0-5.1l-.3-1.2c0-.2.1-.2.2,0a6.12,6.12,0,0,1,.5,1.2,11.83,11.83,0,0,1,.3,5.3,18.22,18.22,0,0,1-1.8,5.1c-.2.4,1.2.7,1.3.4a24.69,24.69,0,0,0,1-2.9A5.82,5.82,0,0,0,67,42a6.05,6.05,0,0,0-.1-6.1c-1-1.9-3.3-2.7-5.4-3.7Z"/><g class="cls-1"><g class="cls-1"><path class="cls-5" d="M20.33,5.6V7.42h2.08V5.6h.92v4.47h-.92V8.26H20.33v1.81h-.92V5.6Z"/></g><g class="cls-1"><path class="cls-5" d="M27.14,6.7v2A1.35,1.35,0,0,1,26.39,10a1.87,1.87,0,0,1-1.56,0,1.37,1.37,0,0,1-.54-.5,1.47,1.47,0,0,1-.2-.77v-2H25V8.56a.82.82,0,0,0,.18.58.68.68,0,0,0,1,0,.82.82,0,0,0,.18-.58V6.7Z"/></g></g><g class="cls-1"><g class="cls-1"><path class="cls-5" d="M28.59,6.7v.48A1.71,1.71,0,0,1,29,6.79a1.15,1.15,0,0,1,.61-.18,1.18,1.18,0,0,1,.86.35,1.42,1.42,0,0,1,.35,1v2.07H30v-2a.69.69,0,0,0-.16-.51.61.61,0,0,0-.45-.17.72.72,0,0,0-.43.15,1.37,1.37,0,0,0-.33.35v2.13h-.85V6.7Z"/></g><g class="cls-1"><path class="cls-5" d="M32.87,6.61a1.43,1.43,0,0,1,.56.13,1.45,1.45,0,0,1,.46.34V6.7h.85V10a1.73,1.73,0,0,1-.25,1,1.67,1.67,0,0,1-.68.61,2,2,0,0,1-.92.21,1.73,1.73,0,0,1-.73-.13,3.07,3.07,0,0,1-.53-.31v-.8l.32.2a1.76,1.76,0,0,0,.39.18,1.51,1.51,0,0,0,.5.07,1.19,1.19,0,0,0,.54-.11.92.92,0,0,0,.38-.32.8.8,0,0,0,.13-.46V9.5a1.26,1.26,0,0,1-.42.47,1.14,1.14,0,0,1-.66.2,1.42,1.42,0,0,1-.75-.21,1.4,1.4,0,0,1-.55-.6,2.12,2.12,0,0,1-.2-.95,2.06,2.06,0,0,1,.21-1,1.61,1.61,0,0,1,.56-.62A1.54,1.54,0,0,1,32.87,6.61Zm.18.84a.72.72,0,0,0-.46.14.93.93,0,0,0-.3.35,1,1,0,0,0-.1.47.9.9,0,0,0,.23.64.75.75,0,0,0,.61.27.79.79,0,0,0,.42-.12.92.92,0,0,0,.32-.33,1.09,1.09,0,0,0,.12-.53V7.86a1.36,1.36,0,0,0-.39-.3A.88.88,0,0,0,33.05,7.45Z"/></g></g><g class="cls-1"><path class="cls-5" d="M37,6.61a1.63,1.63,0,0,1,.85.22,1.42,1.42,0,0,1,.55.59,1.86,1.86,0,0,1,.19.87v.36H36.13a.9.9,0,0,0,.33.55,1.1,1.1,0,0,0,.66.2,1.67,1.67,0,0,0,.67-.14,2.74,2.74,0,0,0,.47-.3v.78a2,2,0,0,1-.48.29,1.75,1.75,0,0,1-.7.14,1.89,1.89,0,0,1-.91-.23,1.69,1.69,0,0,1-.89-1.52,1.84,1.84,0,0,1,.82-1.56A1.67,1.67,0,0,1,37,6.61Zm0,.74a.73.73,0,0,0-.52.2,1,1,0,0,0-.3.52h1.62a.71.71,0,0,0-.27-.54A.85.85,0,0,0,37,7.35Z"/><path class="cls-5" d="M41.47,7.65A1,1,0,0,0,41,7.53a.66.66,0,0,0-.49.19,1.89,1.89,0,0,0-.34.47v1.88h-.85V6.7h.85v.64a2.09,2.09,0,0,1,.41-.51.83.83,0,0,1,.54-.19.88.88,0,0,1,.33.05Z"/></g><path class="cls-6" d="M13.4,5.3c.6.4,1,1.1.3,2.4-.1.2-.2.3-.3.5a6,6,0,0,1-11.7.6,3.59,3.59,0,0,1-.7-1A2.75,2.75,0,0,1,.9,6,1.7,1.7,0,0,1,2.2,5,5.9,5.9,0,0,1,10,2a6.22,6.22,0,0,1,1.9,1.4,6.11,6.11,0,0,1,1.4-.7A7.42,7.42,0,1,0,1.9,12.2a7.36,7.36,0,0,0,10.5.9A7.65,7.65,0,0,0,15,7.4a10.05,10.05,0,0,0-.4-2.5c-.4.1-.8.3-1.2.4Z"/><path class="cls-6" d="M12.8,6.4c0,.5-1.4.9-3.2,1.1a2.13,2.13,0,0,0,0-.8c.6-.3,1.3-.7,2-1,.8.2,1.2.5,1.2.7ZM5.6,7.6a10.66,10.66,0,0,1-3-.6c-.1-.1-.3-.2-.4-.3a.37.37,0,0,1-.1-.3c0-.7,2.3-1.1,5.3-1.1a19.27,19.27,0,0,1,2.4.1,10,10,0,0,0-1.1,1A3.93,3.93,0,0,0,5.6,7.6Zm9.8-5.2a13.84,13.84,0,0,0-5,2.5h0L9.2,4.8H5.6a16.68,16.68,0,0,0-3.1.5c-1.3.4-1.6,1.1-1,2.3a21.72,21.72,0,0,0,2.4,2.9c.2,1,1.9,1.5,3.6,1.5s3.4-.5,3.6-1.5a21.72,21.72,0,0,0,2.4-2.9c.5-1,.3-1.6-.4-2a1.42,1.42,0,0,0-.6-.2A20.63,20.63,0,0,1,16,4.2c.5-.1.7-.2.7-.8-.1-.3-.5-1.2-1.3-1Z"/><g class="cls-1"><path class="cls-7" d="M77.4,15a2,2,0,0,1,.73.12,1.85,1.85,0,0,1,.53.31v.94a3.88,3.88,0,0,0-.33-.23,1.76,1.76,0,0,0-.39-.19,1.6,1.6,0,0,0-.51-.08,1.4,1.4,0,0,0-.73.2,1.47,1.47,0,0,0,0,2.53,1.4,1.4,0,0,0,.73.19,1.82,1.82,0,0,0,.75-.14,2.77,2.77,0,0,0,.55-.33v.9a1.94,1.94,0,0,1-.57.33,2.29,2.29,0,0,1-.76.12,2.53,2.53,0,0,1-.91-.17,2.29,2.29,0,0,1-.75-.48,2.13,2.13,0,0,1-.51-.74,2.45,2.45,0,0,1,0-1.89,2.13,2.13,0,0,1,.51-.74,2.29,2.29,0,0,1,.75-.48A2.53,2.53,0,0,1,77.4,15Z"/><path class="cls-7" d="M81.42,16.15a1.18,1.18,0,0,1,.86.35,1.42,1.42,0,0,1,.34,1v2.07h-.84V17.66a.69.69,0,0,0-.16-.51.61.61,0,0,0-.45-.17.68.68,0,0,0-.43.15,1.37,1.37,0,0,0-.33.35v2.13h-.85v-4.8h.85v1.91a1.71,1.71,0,0,1,.41-.39A1.15,1.15,0,0,1,81.42,16.15Z"/><path class="cls-7" d="M84.8,16.24v3.37H84V17h-.54v-.72Zm-.5-1.75a.57.57,0,1,1,0,1.14.54.54,0,0,1-.41-.17.56.56,0,0,1,0-.8A.54.54,0,0,1,84.3,14.49Z"/><path class="cls-7" d="M86.71,14.81v4.8h-.84v-4.8Z"/><path class="cls-7" d="M91,14.81v4.8H90.1V19a1.28,1.28,0,0,1-.43.47,1.09,1.09,0,0,1-.65.2,1.42,1.42,0,0,1-.75-.21,1.4,1.4,0,0,1-.55-.6,2,2,0,0,1-.21-.95,2.06,2.06,0,0,1,.21-1,1.56,1.56,0,0,1,.57-.62,1.54,1.54,0,0,1,.79-.22,1.46,1.46,0,0,1,1,.47V14.81ZM89.25,17a.69.69,0,0,0-.45.14.85.85,0,0,0-.3.35,1,1,0,0,0-.11.47,1,1,0,0,0,.23.65.8.8,0,0,0,.61.26.82.82,0,0,0,.43-.12,1,1,0,0,0,.32-.33,1.09,1.09,0,0,0,.12-.53V17.4a1.36,1.36,0,0,0-.39-.3A.9.9,0,0,0,89.25,17Z"/><path class="cls-7" d="M93.86,16.15a1.18,1.18,0,0,1,.86.35,1.42,1.42,0,0,1,.34,1v2.07h-.84V17.66a.69.69,0,0,0-.16-.51A.61.61,0,0,0,93.6,17a.68.68,0,0,0-.43.15,1.62,1.62,0,0,0-.34.35v2.13H92v-4.8h.84v1.91a2,2,0,0,1,.42-.39A1.15,1.15,0,0,1,93.86,16.15Z"/><path class="cls-7" d="M97.6,16.15a1.73,1.73,0,0,1,.9.24,1.76,1.76,0,0,1,.66.64,1.76,1.76,0,0,1,0,1.81,1.82,1.82,0,0,1-.66.63,1.79,1.79,0,0,1-1.79,0,1.82,1.82,0,0,1-.66-.63,1.76,1.76,0,0,1,0-1.81,1.76,1.76,0,0,1,.66-.64A1.72,1.72,0,0,1,97.6,16.15Zm0,.83a.85.85,0,0,0-.44.11.75.75,0,0,0-.33.33,1,1,0,0,0-.13.52,1.08,1.08,0,0,0,.13.52.78.78,0,0,0,.33.32,1,1,0,0,0,.44.11,1,1,0,0,0,.45-.11.78.78,0,0,0,.33-.32,1,1,0,0,0,.13-.52.93.93,0,0,0-.13-.52.75.75,0,0,0-.33-.33A.88.88,0,0,0,97.6,17Z"/><path class="cls-7" d="M101.78,16.15a1.73,1.73,0,0,1,.9.24,1.92,1.92,0,0,1,.66.64,1.76,1.76,0,0,1,0,1.81,2,2,0,0,1-.66.63,1.73,1.73,0,0,1-.9.24,1.78,1.78,0,0,1-.9-.24,1.87,1.87,0,0,1-.65-.63,1.76,1.76,0,0,1,0-1.81,1.81,1.81,0,0,1,.65-.64A1.78,1.78,0,0,1,101.78,16.15Zm0,.83a.88.88,0,0,0-.45.11.81.81,0,0,0-.33.33,1,1,0,0,0-.12.52,1.08,1.08,0,0,0,.12.52.84.84,0,0,0,.33.32,1,1,0,0,0,.9,0,.84.84,0,0,0,.33-.32,1.08,1.08,0,0,0,.13-.52,1,1,0,0,0-.13-.52.81.81,0,0,0-.33-.33A.88.88,0,0,0,101.78,17Z"/><path class="cls-7" d="M107.59,14.81v4.8h-.85V19a1.35,1.35,0,0,1-.42.47,1.14,1.14,0,0,1-.66.2,1.42,1.42,0,0,1-.75-.21,1.4,1.4,0,0,1-.55-.6,2,2,0,0,1-.21-.95,2.06,2.06,0,0,1,.21-1,1.56,1.56,0,0,1,.57-.62,1.54,1.54,0,0,1,.79-.22,1.47,1.47,0,0,1,.56.13,1.45,1.45,0,0,1,.46.34V14.81ZM105.9,17a.7.7,0,0,0-.46.14.85.85,0,0,0-.3.35A1,1,0,0,0,105,18a1,1,0,0,0,.23.65.81.81,0,0,0,.62.26.79.79,0,0,0,.42-.12.92.92,0,0,0,.32-.33,1.09,1.09,0,0,0,.12-.53V17.4a1.36,1.36,0,0,0-.39-.3A.88.88,0,0,0,105.9,17Z"/></g><g class="cls-1"><path class="cls-7" d="M112.33,15a2,2,0,0,1,.73.12,1.85,1.85,0,0,1,.53.31v.94a2.75,2.75,0,0,0-.33-.23,1.76,1.76,0,0,0-.39-.19,1.6,1.6,0,0,0-.51-.08,1.4,1.4,0,0,0-.73.2,1.47,1.47,0,0,0,0,2.53,1.4,1.4,0,0,0,.73.19,1.82,1.82,0,0,0,.75-.14,2.51,2.51,0,0,0,.55-.33v.9a1.94,1.94,0,0,1-.57.33,2.24,2.24,0,0,1-.76.12,2.44,2.44,0,0,1-.9-.17,2.23,2.23,0,0,1-.76-.48,2.13,2.13,0,0,1-.51-.74,2.45,2.45,0,0,1,0-1.89,2.13,2.13,0,0,1,.51-.74,2.23,2.23,0,0,1,.76-.48A2.44,2.44,0,0,1,112.33,15Z"/></g><g class="cls-1"><path class="cls-7" d="M115.88,16.15a1.43,1.43,0,0,1,.56.13,1.45,1.45,0,0,1,.46.34v-.38h.85v3.37h-.85V19a1.18,1.18,0,0,1-.42.47,1.14,1.14,0,0,1-.66.2,1.42,1.42,0,0,1-.75-.21,1.4,1.4,0,0,1-.55-.6,2.12,2.12,0,0,1-.2-.95,2.06,2.06,0,0,1,.21-1,1.61,1.61,0,0,1,.56-.62A1.54,1.54,0,0,1,115.88,16.15Zm.18.83a.78.78,0,0,0-.46.14,1,1,0,0,0-.3.36,1,1,0,0,0-.1.47.94.94,0,0,0,.23.65.77.77,0,0,0,.61.26.79.79,0,0,0,.42-.12.92.92,0,0,0,.32-.33,1.09,1.09,0,0,0,.12-.53V17.4a1.24,1.24,0,0,0-.39-.3A.89.89,0,0,0,116.06,17Z"/><path class="cls-7" d="M119.64,16.24v.48a1.59,1.59,0,0,1,.42-.39,1.09,1.09,0,0,1,.6-.18,1.18,1.18,0,0,1,.86.35,1.42,1.42,0,0,1,.35,1v2.07H121V17.66a.69.69,0,0,0-.16-.51.61.61,0,0,0-.45-.17.68.68,0,0,0-.42.15,1.26,1.26,0,0,0-.34.35v2.13h-.85V16.24Z"/></g><g class="cls-1"><path class="cls-7" d="M124.66,16.15a1.4,1.4,0,0,1,.62.12,2.09,2.09,0,0,1,.38.24v.78a1.47,1.47,0,0,0-.39-.21,1.4,1.4,0,0,0-.53-.09.85.85,0,0,0-.47.13.88.88,0,0,0-.35.34,1,1,0,0,0,.14,1.16.93.93,0,0,0,.68.27,1.64,1.64,0,0,0,.53-.08,2.42,2.42,0,0,0,.39-.21v.77a1.66,1.66,0,0,1-.38.23,1.56,1.56,0,0,1-.62.11,1.74,1.74,0,0,1-.91-.24,1.84,1.84,0,0,1-.62-.65,1.68,1.68,0,0,1-.23-.88,1.7,1.7,0,0,1,.13-.67,1.65,1.65,0,0,1,.37-.57,1.85,1.85,0,0,1,.56-.4A1.66,1.66,0,0,1,124.66,16.15Z"/></g><g class="cls-1"><path class="cls-7" d="M128,16.15a1.63,1.63,0,0,1,.85.22,1.36,1.36,0,0,1,.55.59,1.86,1.86,0,0,1,.19.87v.36h-2.44a1,1,0,0,0,.33.55,1.1,1.1,0,0,0,.66.2,1.59,1.59,0,0,0,.66-.14,3,3,0,0,0,.49-.3v.78a2,2,0,0,1-.48.29,1.75,1.75,0,0,1-.7.14,1.89,1.89,0,0,1-.91-.23,1.69,1.69,0,0,1-.89-1.52,1.84,1.84,0,0,1,.82-1.56A1.64,1.64,0,0,1,128,16.15Zm0,.75a.74.74,0,0,0-.52.19,1.07,1.07,0,0,0-.3.52h1.62a.71.71,0,0,0-.27-.54A.84.84,0,0,0,127.94,16.9Z"/><path class="cls-7" d="M132.45,17.19a.92.92,0,0,0-.45-.12.66.66,0,0,0-.49.19,1.89,1.89,0,0,0-.34.47v1.88h-.84V16.24h.84v.64a2.09,2.09,0,0,1,.41-.51.83.83,0,0,1,.54-.19.88.88,0,0,1,.33.05Z"/></g><path class="cls-7" d="M63.7,10A7.39,7.39,0,0,0,59,23.1c.1-.1.1-.3.2-.4h0l.6-.9a6,6,0,0,1-.5-8.4,4,4,0,0,1,1.2-1A3.58,3.58,0,0,1,65,10.2a4,4,0,0,1,2.2,2.2h0a5.93,5.93,0,0,1,1.6,8.2,9,9,0,0,1-.9,1l.4.6.1.1c.1.2.3.4.4.6a7.44,7.44,0,0,0,.8-10.5A8.24,8.24,0,0,0,63.7,10Z"/><path class="cls-7" d="M65.5,24.6h0l-.1-.2-.7-1.1a3.4,3.4,0,0,1-1,.1,2,2,0,0,1-.8-.1l-.3.6-.5.8a6.53,6.53,0,0,0,3.4,0v-.1Z"/><path class="cls-7" d="M62.9,15a2.46,2.46,0,0,1-.2-1.7,1,1,0,0,1,1-.8h0a1,1,0,0,1,1,.8,2,2,0,0,1-.2,1.7c-.2.4-.5.8-.8,1.4a3.69,3.69,0,0,0-.8-1.4Zm4.9,7.6c-.2-.2-1.4-2.1-2.7-4.1.5-1,1-1.8,1.3-2.5a4.27,4.27,0,0,0,.2-3.5,3.13,3.13,0,0,0-2.9-2.1h0a3.13,3.13,0,0,0-2.9,2.1A4.29,4.29,0,0,0,61,16c.3.6.8,1.5,1.4,2.5l-2.8,4.4a1.28,1.28,0,0,0,.3,1.8,1.11,1.11,0,0,0,1.5.2,1.38,1.38,0,0,0,.3-.4c.1-.1,1-1.8,2.1-3.6,1,1.7,2,3.2,2,3.4a1.22,1.22,0,0,0,1.9.7c1.2-.8.3-2,.1-2.4Z"/><g class="cls-1"><path class="cls-8" d="M23.43,26.66l-2.08,4.5h-.46l-2.08-4.5h1.08l1.22,3,1.23-3Z"/></g><g class="cls-1"><path class="cls-8" d="M24.81,27.76v3.37H24V28.48h-.54v-.72ZM24.32,26a.54.54,0,0,1,.41.17.56.56,0,0,1,0,.8.54.54,0,0,1-.41.17.53.53,0,0,1-.41-.17.56.56,0,0,1,0-.8A.53.53,0,0,1,24.32,26Z"/><path class="cls-8" d="M27,27.67a1.76,1.76,0,0,1,.58.1A1.37,1.37,0,0,1,28,28v.75a3.44,3.44,0,0,0-.39-.21,1.29,1.29,0,0,0-.48-.1.61.61,0,0,0-.38.11.31.31,0,0,0-.14.25.32.32,0,0,0,.08.2.73.73,0,0,0,.31.16l.38.12a.91.91,0,0,1,.77.89.94.94,0,0,1-.18.56,1.26,1.26,0,0,1-.47.38,1.59,1.59,0,0,1-.66.14,2.08,2.08,0,0,1-.66-.11,1.73,1.73,0,0,1-.49-.23v-.74a2.88,2.88,0,0,0,.31.17l.37.13a1.63,1.63,0,0,0,.35.05.7.7,0,0,0,.39-.09.28.28,0,0,0,.14-.26.24.24,0,0,0-.11-.2,1.61,1.61,0,0,0-.34-.15l-.41-.14a1,1,0,0,1-.53-.36,1,1,0,0,1-.15-.56,1,1,0,0,1,.16-.55,1.15,1.15,0,0,1,.46-.38A1.6,1.6,0,0,1,27,27.67Z"/><path class="cls-8" d="M30,27.76v3.37h-.85V28.48h-.54v-.72ZM29.53,26a.57.57,0,1,1,0,1.14.54.54,0,0,1-.41-.17.56.56,0,0,1,0-.8A.54.54,0,0,1,29.53,26Z"/><path class="cls-8" d="M32.66,27.67a1.73,1.73,0,0,1,.9.24,1.92,1.92,0,0,1,.66.64,1.76,1.76,0,0,1,0,1.81,2,2,0,0,1-.66.63,1.73,1.73,0,0,1-.9.24,1.78,1.78,0,0,1-.9-.24,1.87,1.87,0,0,1-.65-.63,1.76,1.76,0,0,1,0-1.81,1.81,1.81,0,0,1,.65-.64A1.78,1.78,0,0,1,32.66,27.67Zm0,.83a.88.88,0,0,0-.45.11.87.87,0,0,0-.33.33,1,1,0,0,0-.12.52,1.08,1.08,0,0,0,.12.52.92.92,0,0,0,.33.32,1,1,0,0,0,.9,0,.78.78,0,0,0,.33-.32,1,1,0,0,0,.13-.52.93.93,0,0,0-.13-.52.75.75,0,0,0-.33-.33A.88.88,0,0,0,32.66,28.5Z"/><path class="cls-8" d="M36.12,27.76v.48a1.71,1.71,0,0,1,.41-.39,1.15,1.15,0,0,1,.61-.18A1.18,1.18,0,0,1,38,28a1.42,1.42,0,0,1,.34,1v2.07H37.5V29.18a.69.69,0,0,0-.16-.51.61.61,0,0,0-.45-.17.7.7,0,0,0-.43.15,1.37,1.37,0,0,0-.33.35v2.13h-.85V27.76Z"/></g><path class="cls-9" d="M7.6,22.6a5.91,5.91,0,0,0-5.9,5.9,6,6,0,0,0,5.9,5.9,6,6,0,0,0,5.9-5.9h0A6,6,0,0,0,7.6,22.6ZM7.6,36a7.45,7.45,0,0,1,.1-14.9,7.34,7.34,0,0,1,7.4,7.5h0A7.53,7.53,0,0,1,7.6,36Z"/><path class="cls-9" d="M11.5,28.9A4.51,4.51,0,0,1,8.3,31a4.51,4.51,0,0,1-3.7-1,5.24,5.24,0,0,1-1-1.1.19.19,0,0,1,0-.3A5.48,5.48,0,0,1,5.4,27a2.66,2.66,0,0,0,.4,2.7h0a2.5,2.5,0,0,0,1.8.8A2.43,2.43,0,0,0,10,28.1,2,2,0,0,0,9.7,27c.1,0,.1,0,.2.1a5.17,5.17,0,0,1,1.7,1.6.31.31,0,0,1-.1.2Zm-4-2.4c.1,0,.3,0,.3.2s-.1.2-.3.2a1,1,0,0,0-1,1,.27.27,0,0,1-.3.3c-.2,0-.2-.1-.1-.2a1.52,1.52,0,0,1,1.4-1.5ZM8.3,28a.68.68,0,0,1-.7.7c-.4,0-.6-.3-.6-.7a.68.68,0,0,1,.7-.7h0A.86.86,0,0,1,8.3,28Zm.1-1.4a.27.27,0,0,1,.3.3c0,.2-.2.3-.4.3a.32.32,0,0,1-.3-.3C8.1,26.8,8.2,26.6,8.4,26.6Zm3.8,1.7a5.41,5.41,0,0,0-5.5-2.5A5.67,5.67,0,0,0,3,28.3a.6.6,0,0,0,0,.8,5.75,5.75,0,0,0,4.6,2.7,5.34,5.34,0,0,0,4.5-2.6A.65.65,0,0,0,12.2,28.3Z"/><g class="cls-1"><g class="cls-1"><path class="cls-10" d="M20.8,47.5a2.58,2.58,0,0,1,1.24.28,2.06,2.06,0,0,1,.83.8,2.36,2.36,0,0,1,.3,1.21,2.53,2.53,0,0,1-.28,1.2,2.18,2.18,0,0,1-.8.85,2.35,2.35,0,0,1-1.24.31c-.31,0-.61,0-.92,0s-.59-.07-.86-.12V47.67q.41-.08.84-.12A6.55,6.55,0,0,1,20.8,47.5Zm0,.86-.42,0c-.15,0-.28,0-.41.06v2.77l.42.06h.41a1.37,1.37,0,0,0,.75-.19,1.29,1.29,0,0,0,.49-.52,1.84,1.84,0,0,0,0-1.5,1.33,1.33,0,0,0-1.24-.71Z"/><path class="cls-10" d="M25.19,48.7v3.37h-.85V49.42H23.8V48.7ZM24.7,47a.54.54,0,0,1,.41.17.56.56,0,0,1,0,.8.54.54,0,0,1-.41.17.53.53,0,0,1-.41-.17.56.56,0,0,1,0-.8A.53.53,0,0,1,24.7,47Z"/></g><g class="cls-1"><path class="cls-10" d="M27.55,48.62a1.41,1.41,0,0,1,.56.12,1.45,1.45,0,0,1,.46.34V48.7h.85v3.37h-.85V51.5a1.26,1.26,0,0,1-.42.47,1.14,1.14,0,0,1-.66.2,1.42,1.42,0,0,1-.75-.21,1.46,1.46,0,0,1-.55-.6,2.12,2.12,0,0,1-.2-1,2.06,2.06,0,0,1,.21-1,1.61,1.61,0,0,1,.56-.62A1.56,1.56,0,0,1,27.55,48.62Zm.18.82a.78.78,0,0,0-.46.14,1,1,0,0,0-.3.36,1,1,0,0,0-.1.47.94.94,0,0,0,.23.65.77.77,0,0,0,.61.26.79.79,0,0,0,.42-.12.92.92,0,0,0,.32-.33,1.09,1.09,0,0,0,.12-.53v-.48a1.24,1.24,0,0,0-.39-.3A.89.89,0,0,0,27.73,49.44Z"/></g><g class="cls-1"><path class="cls-10" d="M31.89,48.62a1.53,1.53,0,0,1,.79.21,1.63,1.63,0,0,1,.57.62,2.06,2.06,0,0,1,.21,1,2,2,0,0,1-.21,1,1.48,1.48,0,0,1-.56.6,1.41,1.41,0,0,1-.74.21,1.14,1.14,0,0,1-.66-.2,1.35,1.35,0,0,1-.42-.47v.57H30v-4.8h.85v1.81a1.45,1.45,0,0,1,.46-.34A1.41,1.41,0,0,1,31.89,48.62Zm-.18.83a1,1,0,0,0-.45.11,1.36,1.36,0,0,0-.39.3v.48a1,1,0,0,0,.11.53,1,1,0,0,0,.33.33.79.79,0,0,0,.42.12.75.75,0,0,0,.61-.27.9.9,0,0,0,.23-.64,1,1,0,0,0-.1-.47.85.85,0,0,0-.3-.35A.78.78,0,0,0,31.71,49.45Z"/></g></g><g class="cls-1"><path class="cls-10" d="M35.61,48.62a1.67,1.67,0,0,1,.85.21,1.4,1.4,0,0,1,.54.59,1.86,1.86,0,0,1,.19.87v.36H34.75a1,1,0,0,0,.33.55,1.1,1.1,0,0,0,.66.2,1.64,1.64,0,0,0,.67-.14,2.51,2.51,0,0,0,.48-.3v.78a2,2,0,0,1-.48.29,1.74,1.74,0,0,1-.69.14,1.9,1.9,0,0,1-.92-.23,1.69,1.69,0,0,1-.89-1.52,1.82,1.82,0,0,1,.22-.9,1.71,1.71,0,0,1,.6-.65A1.59,1.59,0,0,1,35.61,48.62Zm0,.74a.74.74,0,0,0-.52.19,1.07,1.07,0,0,0-.3.52h1.62a.71.71,0,0,0-.27-.54A.9.9,0,0,0,35.58,49.36Z"/></g><g class="cls-1"><path class="cls-10" d="M39,47.72v1h.93v.71H39v1.45a.64.64,0,0,0,.1.36.37.37,0,0,0,.31.13.93.93,0,0,0,.31,0A1.12,1.12,0,0,0,40,51.2v.67a.89.89,0,0,1-.32.21,1.11,1.11,0,0,1-.48.09,1,1,0,0,1-.73-.29,1.09,1.09,0,0,1-.29-.8V49.41h-.6V49a1.47,1.47,0,0,0,.59-.43,2.4,2.4,0,0,0,.43-.83Z"/></g><g class="cls-1"><path class="cls-10" d="M41.7,48.62a1.62,1.62,0,0,1,.85.21,1.36,1.36,0,0,1,.55.59,1.86,1.86,0,0,1,.19.87v.36H40.85a1,1,0,0,0,.33.55,1.1,1.1,0,0,0,.66.2,1.59,1.59,0,0,0,.66-.14A2.51,2.51,0,0,0,43,51v.78a2,2,0,0,1-.48.29,1.75,1.75,0,0,1-.7.14,1.89,1.89,0,0,1-.91-.23A1.69,1.69,0,0,1,40,50.42a1.82,1.82,0,0,1,.22-.9,1.71,1.71,0,0,1,.6-.65A1.58,1.58,0,0,1,41.7,48.62Zm0,.74a.74.74,0,0,0-.52.19,1.07,1.07,0,0,0-.3.52h1.62a.71.71,0,0,0-.27-.54A.9.9,0,0,0,41.68,49.36Z"/></g><g class="cls-1"><path class="cls-10" d="M45.2,48.62a1.81,1.81,0,0,1,.58.09,1.3,1.3,0,0,1,.41.21v.75a3.44,3.44,0,0,0-.39-.21,1.29,1.29,0,0,0-.48-.1.63.63,0,0,0-.38.11.31.31,0,0,0-.14.25.32.32,0,0,0,.08.2.8.8,0,0,0,.31.16l.38.12a.91.91,0,0,1,.77.89.94.94,0,0,1-.18.56,1.18,1.18,0,0,1-.47.38,1.59,1.59,0,0,1-.66.14,2.08,2.08,0,0,1-.66-.11,1.6,1.6,0,0,1-.49-.23v-.74a2.88,2.88,0,0,0,.31.17l.37.13a1.63,1.63,0,0,0,.36,0,.7.7,0,0,0,.39-.09.29.29,0,0,0,.13-.26.22.22,0,0,0-.11-.2,1.75,1.75,0,0,0-.33-.15l-.42-.14a1,1,0,0,1-.53-.36,1,1,0,0,1-.15-.56.92.92,0,0,1,.17-.55,1.12,1.12,0,0,1,.45-.38A1.62,1.62,0,0,1,45.2,48.62Z"/></g><path class="cls-11" d="M9.3,55.6a3.45,3.45,0,0,1,1.2-1.2,5,5,0,0,0,.8-.7,1.93,1.93,0,0,0,.3-1,6.58,6.58,0,0,1,.4-1.5l.1-.5a16.69,16.69,0,0,0,.5-1.8h-.3a1.6,1.6,0,0,0-.9.7,9.25,9.25,0,0,0-.3,1,.1.1,0,0,1,.1.1c.2.3-.2,1.3-.4,1.5l-.2.2a1.46,1.46,0,0,0-.6.9l-.1.1-.1-.1a2.07,2.07,0,0,1,.6-1l.2-.2c.2-.2.6-1.1.4-1.3h0a1.21,1.21,0,0,0-.7.7,2.36,2.36,0,0,1-.9.8,5.48,5.48,0,0,0-1.8,1.6,8.09,8.09,0,0,0,0,2.2H7.3a8.09,8.09,0,0,0,0-2.2,4,4,0,0,0-1.8-1.6,6.47,6.47,0,0,1-.9-.8,2.34,2.34,0,0,0-.7-.7H3.8A2.13,2.13,0,0,0,4.2,52l.2.2a2.07,2.07,0,0,1,.6,1,.1.1,0,0,1-.2,0,1.46,1.46,0,0,0-.6-.9L4,52.1c-.1-.1-.5-1.1-.3-1.4l.1-.1c-.1-.2-.2-.7-.3-1a1,1,0,0,0-.8-.7H2.4A18.88,18.88,0,0,1,3,50.7v.4c.1.5.3,1.1.4,1.5s.2.7.3,1a2.7,2.7,0,0,0,.8.7,3.45,3.45,0,0,1,1.2,1.2A5.95,5.95,0,0,1,9.4,44.2a6,6,0,0,1,3.8,7.5,5.86,5.86,0,0,1-3.9,3.9ZM7.4,42.5A7.45,7.45,0,1,0,14.8,50h0A7.28,7.28,0,0,0,7.4,42.5Z"/><path class="cls-11" d="M8,50.7a1.42,1.42,0,0,0,.6-.2A1.42,1.42,0,0,0,8,50.7Z"/><path class="cls-11" d="M6.9,50.7ZM5.3,49.3a2.5,2.5,0,0,1,1.2-3.2c.1-.1.2-.1.4-.1h.7c.2,0,.5.1.7.1a2.43,2.43,0,0,1,1.5,3c-.1.2-.1.4-.2.5h0v.1l-.6.6H8.8a2.66,2.66,0,0,1-1.2.3,1.27,1.27,0,0,1-.6-.1,2,2,0,0,0,1.1,0,2.32,2.32,0,0,1-2.8-1.2Zm5.4-2.7a3.13,3.13,0,0,0-.9-1.1,5.39,5.39,0,0,0-1.3-.7,3.33,3.33,0,0,0-1.4-.1A2.28,2.28,0,0,0,6,45H5.9a3.67,3.67,0,0,0-1.8,4.8l.3.6a2.34,2.34,0,0,0,.7.7,7.46,7.46,0,0,0,1.2.7,3.89,3.89,0,0,0,1.5.2,1.27,1.27,0,0,0,.6-.1h.1a3.7,3.7,0,0,0,1.1-.5h0l.1-.1.1-.1h0a3.81,3.81,0,0,0,.9-4.5Z"/></g></g></svg>