<svg xmlns="http://www.w3.org/2000/svg" viewBox="0 0 519.63 218.58"><defs><style>.cls-1{fill:#75bd43;}.cls-2,.cls-3{fill:#76bc21;}.cls-3{fill-rule:evenodd;}.cls-4{fill:#f48137;}.cls-5{fill:#f58238;}.cls-6{fill:#f0c218;}.cls-7{fill:#f0c319;}.cls-8{fill:#5d266a;}.cls-9{fill:#5c256a;}.cls-10{fill:#67b0e1;}.cls-11{fill:#68b1e2;}</style></defs><g id="Layer_2" data-name="Layer 2"><g id="education"><path class="cls-1" d="M297.62,156.93h11.73v3.26h-7.77v4.31h6.58v3.26h-6.58v4.5h7.88v3.25H297.62Z" transform="translate(0 -15.79)"/><path class="cls-1" d="M312.4,162h2.84l.31,1a4.26,4.26,0,0,1,3.54-1.33c2.23,0,3.77.91,4.42,2.6a10,10,0,0,1,.39,3.49v7.7h-3.8v-7.26c0-2.39-.52-3.3-1.9-3.3s-2,.93-2,3.56v7h-3.8Z" transform="translate(0 -15.79)"/><path class="cls-1" d="M325.67,162h3.85l2.53,8.95L334.6,162h3.82l-4.53,13.48h-3.66Z" transform="translate(0 -15.79)"/><path class="cls-1" d="M340.76,156.72h3.8v3.57h-3.8Zm0,5.31h3.8v13.48h-3.8Z" transform="translate(0 -15.79)"/><path class="cls-1" d="M348.1,162H351l.49.86a3.22,3.22,0,0,1,2.58-1.17,5.68,5.68,0,0,1,3,.91l-1.64,3.1a2.73,2.73,0,0,0-1.77-.76c-1.25,0-1.77,1.2-1.77,4.06v6.48h-3.8Z" transform="translate(0 -15.79)"/><path class="cls-1" d="M358.2,167.76c0-4.27,1.74-6,6-6s5.93,1.77,5.93,6v2c0,4.27-1.72,6-6,6s-5.93-1.74-5.93-6Zm8.09.28c0-2.39-.6-3.3-2.13-3.3s-2.16.91-2.16,3.3v1.46c0,2.37.59,3.28,2.16,3.28s2.13-.91,2.13-3.28Z" transform="translate(0 -15.79)"/><path class="cls-1" d="M373.16,162H376l.31,1a4.26,4.26,0,0,1,3.54-1.33c2.23,0,3.77.91,4.42,2.6a10,10,0,0,1,.39,3.49v7.7h-3.8v-7.26c0-2.39-.52-3.3-1.9-3.3s-2,.93-2,3.56v7h-3.8Z" transform="translate(0 -15.79)"/><path class="cls-1" d="M388.07,162h2.86l.26.94a4.22,4.22,0,0,1,3.2-1.25,4.44,4.44,0,0,1,3.59,1.53,4,4,0,0,1,3.57-1.53c2.29,0,3.74.86,4.37,2.6a10.34,10.34,0,0,1,.39,3.49v7.7h-3.8V168.2c0-2.34-.47-3.25-1.69-3.25s-1.72,1-1.72,3.46v7.1h-3.8v-7.23c0-2.45-.44-3.33-1.69-3.33s-1.74,1-1.74,3.51v7h-3.8Z" transform="translate(0 -15.79)"/><path class="cls-1" d="M413.13,170.07c0,1.85.86,2.81,2.5,2.81a2.75,2.75,0,0,0,2.65-1.43l2.78,1.59c-1.14,2-2.81,2.75-5.85,2.75-4.22,0-5.88-1.84-5.88-6.5v-.86c0-2.39.31-3.77,1.12-4.81.93-1.28,2.5-1.9,4.78-1.9,4.22,0,5.91,1.93,5.91,6.71v1.3h-8Zm4.45-2.91v-.31a2.24,2.24,0,1,0-4.48,0v.31Z" transform="translate(0 -15.79)"/><path class="cls-1" d="M424.06,162h2.83l.32,1a4.25,4.25,0,0,1,3.53-1.33c2.24,0,3.78.91,4.43,2.6a10.23,10.23,0,0,1,.39,3.49v7.7h-3.8v-7.26c0-2.39-.52-3.3-1.9-3.3s-2,.93-2,3.56v7h-3.8Z" transform="translate(0 -15.79)"/><path class="cls-1" d="M437.82,165v-3h1.46l.23-3.8h3.57V162h2.68v3h-2.68v4.71c0,2.11.54,2.76,2.34,2.71h.31v3.07h-.44c-5,0-6-1-6-6.17V165Z" transform="translate(0 -15.79)"/><path class="cls-2" d="M250.3,189.49a22.6,22.6,0,0,1-8.92-41.8,55.51,55.51,0,0,0,1.64-7.16,28.36,28.36,0,0,0,4.84,54.4c.92-1.92,1.72-3.72,2.44-5.44Z" transform="translate(0 -15.79)"/><path class="cls-2" d="M253.05,138.7a28.12,28.12,0,0,0-2.92.15c4.75,2.13,9.47,4.49,13.32,8.13A22.6,22.6,0,0,1,259,188.87c-.61,2-1.36,4.25-2.1,6.28a28.35,28.35,0,0,0-3.81-56.45Z" transform="translate(0 -15.79)"/><path class="cls-3" d="M245,138.31a59.11,59.11,0,0,1-3.37,13.52c-2.39,6-4.16,12.54-3.42,18.95.63,5.48,3.18,11.6,8.13,14.5,1.46.85,2.07.95,2.68.18,1.27-1.46,2.79-5.75,3.73-10.12A50.31,50.31,0,0,0,253,156c-.3-1.54-.72-3-1.15-4.6-.1-.72.42-.83.9-.13a28.78,28.78,0,0,1,2.07,4.64A44.12,44.12,0,0,1,256,176.16a75.29,75.29,0,0,1-6.74,19.57c-.65,1.37,4.63,2.68,5.16,1.37a109.1,109.1,0,0,0,3.71-11,23.24,23.24,0,0,0,8.8-9.76c3.94-7.57,4-15.71-.48-23.14C261.56,145.1,253.15,142,245,138.31Z" transform="translate(0 -15.79)"/><path class="cls-4" d="M101.92,35.56h4v7.57h5.46V35.56h4V54.13h-4V46.38h-5.46v7.75h-4Z" transform="translate(0 -15.79)"/><path class="cls-4" d="M123,40.66v7.26c0,2.39.49,3.27,1.8,3.27s1.82-1,1.82-3.54v-7h3.79V54.13h-2.54l-.5-1.12c-.73,1-1.69,1.41-3.41,1.41-2.26,0-3.74-.89-4.37-2.6a10.68,10.68,0,0,1-.39-3.46v-7.7Z" transform="translate(0 -15.79)"/><path class="cls-4" d="M133.87,40.66h2.84l.31,1a4.29,4.29,0,0,1,3.54-1.33c2.24,0,3.77.92,4.42,2.61a9.91,9.91,0,0,1,.39,3.48v7.7h-3.8V46.87c0-2.39-.52-3.3-1.89-3.3s-2,.94-2,3.57v7h-3.8Z" transform="translate(0 -15.79)"/><path class="cls-4" d="M156.2,53.69a4.89,4.89,0,0,1-2.86.73c-3.52,0-5-1.8-5-6.06v-2c0-4.27,1.48-6.07,5-6.07a4.7,4.7,0,0,1,3.33,1.07l.36-.75H160v13c0,2.27-.39,3.72-1.28,4.79a6.14,6.14,0,0,1-4.89,1.87c-2.6,0-4.27-.88-5.25-2.78l2.81-1.56a2.35,2.35,0,0,0,2.31,1.43c1.72,0,2.45-1,2.5-3.3Zm-4.09-5.62c0,2.34.6,3.33,2.06,3.33s2-.8,2-2.57V45.94c0-1.77-.65-2.58-2.06-2.58s-2,1-2,3.33Z" transform="translate(0 -15.79)"/><path class="cls-4" d="M166.87,48.7c0,1.84.86,2.81,2.5,2.81A2.74,2.74,0,0,0,172,50.07l2.78,1.59c-1.14,2-2.81,2.76-5.85,2.76-4.22,0-5.88-1.85-5.88-6.5v-.86c0-2.4.31-3.78,1.12-4.82.94-1.27,2.5-1.9,4.79-1.9,4.21,0,5.9,1.93,5.9,6.72v1.3h-8Zm4.45-2.92v-.31a2.24,2.24,0,1,0-4.48,0v.31Z" transform="translate(0 -15.79)"/><path class="cls-4" d="M177.8,40.66h2.89l.49.86a3.23,3.23,0,0,1,2.58-1.18,5.67,5.67,0,0,1,3,.92l-1.64,3.09a2.72,2.72,0,0,0-1.76-.75c-1.25,0-1.77,1.19-1.77,4v6.48h-3.8Z" transform="translate(0 -15.79)"/><path class="cls-5" d="M79.64,36.13c2.12,1.54,3.7,4.34,1.3,9.28a16.53,16.53,0,0,1-1.18,1.92,22.61,22.61,0,0,1-44.38,2.05,24.89,24.89,0,0,1-2.72-4c-1.34-2.74-1.57-5-.72-6.88.77-1.72,2.38-3,4.9-3.84a22.58,22.58,0,0,1,37-6A49.66,49.66,0,0,1,79.16,26a28.33,28.33,0,1,0,4.89,8.53c-1.41.45-2.87,1-4.41,1.58Z" transform="translate(0 -15.79)"/><path class="cls-5" d="M77.13,40.24c0,1.93-5.18,3.63-12.37,4.37a8.08,8.08,0,0,0,.35-3.25c2.43-1.29,5-2.63,7.61-3.9,2.81.77,4.41,1.74,4.41,2.78ZM49.87,44.71C45,44.28,41,43.42,38.62,42.34A8.81,8.81,0,0,1,37,41.28a1.51,1.51,0,0,1-.51-1c0-2.5,8.74-4.38,20.33-4.38A90.27,90.27,0,0,1,66,36.3q-2,1.71-4.15,3.63s-7.94-.51-12,4.78ZM87.23,25a48.64,48.64,0,0,0-19,9.49l.06,0c-.56-.06-4-.47-4.53-.5-2.31-.15-4.63-.18-7-.17s-4.64,0-6.95.17a57.1,57.1,0,0,0-11.68,2c-5,1.39-6.34,4.11-4.08,8.76,1.55,3.19,9.11,11.16,9.11,11.16.59,3.84,7.09,5.85,13.6,5.85s13-2,13.59-5.85c0,0,7.56-8,9.11-11.16C81.31,41,80.78,38.52,78,37a6.38,6.38,0,0,0-2.39-.84,61.14,61.14,0,0,1,13.29-4.46c2.08-.4,2.81-.82,2.83-3,0-1.3-1.49-4.53-4.48-3.66Z" transform="translate(0 -15.79)"/><path class="cls-6" d="M326,85.44A5,5,0,0,1,324.7,89c-1.12,1.17-2.89,1.74-5.38,1.74-2.68,0-4.37-.68-5.54-2.24-.89-1.19-1.23-2.62-1.23-5.28V79.19c0-2.86.39-4.37,1.49-5.59s2.78-1.92,5.28-1.92c4.21,0,6.24,1.74,6.42,5.51l-3.67.26c-.2-1.77-1-2.55-2.7-2.55-2.13,0-2.81,1.12-2.81,4.61v3.43c0,3.51.68,4.61,2.83,4.61A2.56,2.56,0,0,0,322.28,85Z" transform="translate(0 -15.79)"/><path class="cls-6" d="M328.76,71.91h3.8V77.5a4.89,4.89,0,0,1,3-.8c2.16,0,3.72.93,4.34,2.6a9.91,9.91,0,0,1,.39,3.48v7.7h-3.79V83c0-2.18-.58-3.12-1.93-3.12s-2,1-2,3.31v7.25h-3.8Z" transform="translate(0 -15.79)"/><path class="cls-6" d="M343.7,71.7h3.8v3.57h-3.8Zm0,5.31h3.8V90.48h-3.8Z" transform="translate(0 -15.79)"/><path class="cls-6" d="M354.81,71.91v12.8c0,2.11.52,2.73,2.34,2.7h.39v3.07H357c-4.9,0-6-1.11-6-6.16V71.91Z" transform="translate(0 -15.79)"/><path class="cls-6" d="M367.35,89.65c-.1.08-.18.16-.21.16a4.43,4.43,0,0,1-3.22,1c-3.59,0-5.08-1.77-5.08-6.06V82.76c0-4.24,1.51-6.06,5-6.06a5.11,5.11,0,0,1,2.16.39l.47.26.23.13V71.91h3.8V90.48h-2.91Zm-4.73-5.23c0,2.34.6,3.33,2.05,3.33s2-.8,2-2.57V82.29c0-1.77-.65-2.58-2.05-2.58s-2,1-2,3.33Z" transform="translate(0 -15.79)"/><path class="cls-6" d="M374,71.91h3.79V77.5a4.89,4.89,0,0,1,3-.8c2.16,0,3.72.93,4.34,2.6a9.91,9.91,0,0,1,.39,3.48v7.7h-3.79V83c0-2.18-.58-3.12-1.93-3.12s-2,1-2,3.31v7.25H374Z" transform="translate(0 -15.79)"/><path class="cls-6" d="M388.53,82.73c0-4.26,1.75-6,6-6s5.93,1.77,5.93,6v2c0,4.27-1.71,6-5.95,6s-5.94-1.74-5.94-6Zm8.1.29c0-2.4-.6-3.31-2.14-3.31s-2.16.91-2.16,3.31v1.46c0,2.36.6,3.27,2.16,3.27s2.14-.91,2.14-3.27Z" transform="translate(0 -15.79)"/><path class="cls-6" d="M403.11,82.73c0-4.26,1.74-6,5.95-6s5.94,1.77,5.94,6v2c0,4.27-1.72,6-6,6s-5.93-1.74-5.93-6Zm8.09.29c0-2.4-.6-3.31-2.14-3.31s-2.16.91-2.16,3.31v1.46c0,2.36.6,3.27,2.16,3.27s2.14-.91,2.14-3.27Z" transform="translate(0 -15.79)"/><path class="cls-6" d="M426.19,89.65a2.26,2.26,0,0,1-.21.16,4.47,4.47,0,0,1-3.23,1c-3.59,0-5.07-1.77-5.07-6.06V82.76c0-4.24,1.51-6.06,5-6.06a5.08,5.08,0,0,1,2.16.39,4.2,4.2,0,0,1,.47.26l.24.13V71.91h3.79V90.48h-2.91Zm-4.74-5.23c0,2.34.6,3.33,2.06,3.33s2-.8,2-2.57V82.29c0-1.77-.65-2.58-2.06-2.58s-2,1-2,3.33Z" transform="translate(0 -15.79)"/><path class="cls-6" d="M451.45,85.44A5,5,0,0,1,450.12,89c-1.11,1.17-2.88,1.74-5.38,1.74-2.68,0-4.37-.68-5.54-2.24-.89-1.19-1.22-2.62-1.22-5.28V79.19c0-2.86.38-4.37,1.48-5.59s2.78-1.92,5.28-1.92c4.21,0,6.24,1.74,6.43,5.51l-3.67.26c-.21-1.77-1-2.55-2.71-2.55-2.13,0-2.81,1.12-2.81,4.61v3.43c0,3.51.68,4.61,2.84,4.61A2.54,2.54,0,0,0,447.7,85Z" transform="translate(0 -15.79)"/><path class="cls-6" d="M461.39,81.8c0-1.44-.62-2.09-2-2.09A3.06,3.06,0,0,0,456.89,81l-2.6-1.83a6.32,6.32,0,0,1,5.52-2.49c2.49,0,4.21.86,4.91,2.42a8.11,8.11,0,0,1,.47,3.38v8h-3l-.24-.7a5,5,0,0,1-3.56,1c-3.31,0-4.56-1.17-4.56-4.27,0-3.25,1.23-4.26,5.05-4.26h2.47Zm-2,2.93c-1.41,0-1.95.47-1.95,1.67s.52,1.54,2,1.54,2-.47,2-2.11v-1.1Z" transform="translate(0 -15.79)"/><path class="cls-6" d="M468.6,77h2.84l.31,1a4.28,4.28,0,0,1,3.54-1.32c2.23,0,3.77.91,4.42,2.6a9.91,9.91,0,0,1,.39,3.48v7.7h-3.8V83.23c0-2.4-.52-3.31-1.9-3.31s-2,.94-2,3.57v7h-3.8Z" transform="translate(0 -15.79)"/><path class="cls-6" d="M494.15,88a5.59,5.59,0,0,1-5.33,2.78,5.27,5.27,0,0,1-4.76-2.21,8.14,8.14,0,0,1-.94-4.45v-.68c0-2.31.37-3.77,1.17-4.83a5.25,5.25,0,0,1,4.4-1.9c2.52,0,4.21.88,5.23,2.78l-2.79,1.59A2.3,2.3,0,0,0,489,79.71c-1.41,0-2.06,1.07-2.06,3.36V84.5c0,2.19.7,3.25,2.18,3.25a2.39,2.39,0,0,0,2.24-1.32Z" transform="translate(0 -15.79)"/><path class="cls-6" d="M499.72,85.05c0,1.85.86,2.81,2.5,2.81a2.74,2.74,0,0,0,2.65-1.43L507.66,88c-1.15,2-2.81,2.76-5.86,2.76-4.21,0-5.88-1.85-5.88-6.5v-.86c0-2.39.32-3.77,1.12-4.81.94-1.28,2.5-1.9,4.79-1.9,4.21,0,5.9,1.92,5.9,6.71v1.3h-8Zm4.45-2.92v-.31a2.24,2.24,0,1,0-4.47,0v.31Z" transform="translate(0 -15.79)"/><path class="cls-6" d="M510.65,77h2.89l.49.86a3.22,3.22,0,0,1,2.58-1.17,5.68,5.68,0,0,1,3,.91L518,80.7a2.76,2.76,0,0,0-1.77-.75c-1.25,0-1.77,1.2-1.77,4.06v6.47h-3.8Z" transform="translate(0 -15.79)"/><path class="cls-7" d="M268.85,53.74a28.34,28.34,0,0,0-18,50.21,7.23,7.23,0,0,1,.77-1.56h0L253.81,99a22.59,22.59,0,0,1,2.47-35.66,13.35,13.35,0,0,1,25.28,0,.49.49,0,0,0,0,.11,22.58,22.58,0,0,1,2.51,35.33c.84,1.26,1.4,2.1,1.56,2.32l.19.27a15.67,15.67,0,0,1,1.43,2.26,28.34,28.34,0,0,0-18.44-49.87Z" transform="translate(0 -15.79)"/><path class="cls-7" d="M275.54,109.39c-.05-.1-.1-.18-.14-.25l-.3-.49-2.6-4.25a22,22,0,0,1-3.65.3,23.81,23.81,0,0,1-3.18-.22l-1.31,2.24-1.77,3a28.66,28.66,0,0,0,6.26.7,27.88,27.88,0,0,0,6.82-.84,2.14,2.14,0,0,0-.13-.22Z" transform="translate(0 -15.79)"/><path class="cls-7" d="M265.89,72.82a7.77,7.77,0,0,1-.6-6.36c.54-1.51,1.77-3.1,3.62-3.1h0c1.85,0,3.08,1.59,3.62,3.1a7.73,7.73,0,0,1-.6,6.36c-.76,1.37-1.8,3.15-3,5.16-1.2-2-2.25-3.75-3-5.16ZM284.37,102c-.55-.77-5.36-8-10.13-15.51,2.07-3.66,3.92-7,5.12-9.35a16.07,16.07,0,0,0,.72-13.23c-2-5-6.34-8.06-11.16-8.06h0c-4.81,0-9.15,3.1-11.13,8.06a16,16,0,0,0,.72,13.23c1.22,2.39,3.09,5.72,5.18,9.33-5.22,8.3-10.65,16.64-10.74,16.79,0,0-2.69,3.53,1.09,6.9s6.5.07,6.93-.74c.24-.46,3.94-6.71,8.09-13.85,3.94,6.58,7.41,12.22,7.73,12.74.64,1,2.72,5.57,7.36,2.72,5-3.08,1.16-7.73.25-9Z" transform="translate(0 -15.79)"/><path class="cls-8" d="M86,115.77h4L94,129l4-13.26h4l-6.27,18.57H92.22Z" transform="translate(0 -15.79)"/><path class="cls-8" d="M104.35,115.56h3.8v3.56h-3.8Zm0,5.31h3.8v13.47h-3.8Z" transform="translate(0 -15.79)"/><path class="cls-8" d="M113.19,130.28a2.68,2.68,0,0,0,2.76,1.41c1.64,0,2.4-.47,2.4-1.46,0-.73-.42-1-1.57-1.14a10.78,10.78,0,0,1-3.85-.78,3.34,3.34,0,0,1-1.84-3.33c0-2.84,1.82-4.43,5-4.43,2.66,0,4.38.89,5.49,2.79l-2.81,1.58a2.38,2.38,0,0,0-2.42-1.4c-1.11,0-1.74.47-1.74,1.3s.44,1,2.06,1.2c4.06.39,5.2,1.32,5.2,4.26s-1.82,4.35-5.8,4.35c-2.94,0-4.79-.91-5.7-2.76Z" transform="translate(0 -15.79)"/><path class="cls-8" d="M124.64,115.56h3.8v3.56h-3.8Zm0,5.31h3.8v13.47h-3.8Z" transform="translate(0 -15.79)"/><path class="cls-8" d="M131.59,126.59c0-4.27,1.74-6,6-6s5.93,1.77,5.93,6v2c0,4.27-1.72,6-6,6s-5.93-1.74-5.93-6Zm8.09.29c0-2.4-.6-3.31-2.13-3.31s-2.16.91-2.16,3.31v1.45c0,2.37.6,3.28,2.16,3.28s2.13-.91,2.13-3.28Z" transform="translate(0 -15.79)"/><path class="cls-8" d="M146.55,120.87h2.84l.31,1a4.29,4.29,0,0,1,3.54-1.33c2.24,0,3.77.91,4.42,2.61a9.91,9.91,0,0,1,.39,3.48v7.7h-3.8v-7.26c0-2.39-.52-3.3-1.89-3.3s-2,.94-2,3.56v7h-3.8Z" transform="translate(0 -15.79)"/><path class="cls-9" d="M43.54,102.07a22.62,22.62,0,1,0,22.61,22.62,22.64,22.64,0,0,0-22.61-22.62Zm0,51a28.36,28.36,0,1,1,28.35-28.35A28.39,28.39,0,0,1,43.54,153Z" transform="translate(0 -15.79)"/><path class="cls-9" d="M58.58,125.63c-3,4.25-6.92,7.32-12.21,8.21a16.69,16.69,0,0,1-14.06-4,22.66,22.66,0,0,1-3.67-4,.91.91,0,0,1,0-1.25c1.8-2.61,4.66-5.22,6.84-6.14-1.26,4.63-.84,7.9,1.35,10.25l0-.05a9,9,0,0,0,14.79-10.16c.3-.12.5.11.7.23a20.09,20.09,0,0,1,6.31,6,.73.73,0,0,1,0,1Zm-15.32-9c.58,0,1.18.06,1.21.87s-.48.91-1.12,1a4.08,4.08,0,0,0-3.93,4c-.06.65-.32,1.16-1,1.12s-.92-.54-.91-1.2a6.12,6.12,0,0,1,5.76-5.74Zm2.79,6a2.51,2.51,0,1,1-2.51-2.51,2.52,2.52,0,0,1,2.51,2.51Zm.55-5.41a1.27,1.27,0,1,1-1.27,1.26,1.26,1.26,0,0,1,1.27-1.26Zm14.31,6.28c-4.16-6.51-12.24-11.16-20.8-9.5a21,21,0,0,0-14,9.69,2.57,2.57,0,0,0-.06,3c4.11,6.35,9.88,9.83,17.51,10.18a21,21,0,0,0,17.39-9.91,2.87,2.87,0,0,0,0-3.42Z" transform="translate(0 -15.79)"/><path class="cls-10" d="M72.14,195.52h6.48c5-.08,7.31,2.24,7.18,7.26v4.06c.13,5-2.14,7.31-7.18,7.26H72.14Zm5.75,15.4c3,0,3.85-.88,3.9-4.39v-3.44c-.05-3.51-.89-4.42-3.9-4.4H76.14v12.23Z" transform="translate(0 -15.79)"/><path class="cls-10" d="M89.23,195.31H93v3.57h-3.8Zm0,5.31H93V214.1h-3.8Z" transform="translate(0 -15.79)"/><path class="cls-10" d="M103.31,205.41c0-1.43-.63-2.09-2-2.09a3.05,3.05,0,0,0-2.52,1.31l-2.6-1.83a6.31,6.31,0,0,1,5.51-2.49c2.5,0,4.22.86,4.92,2.42a8.11,8.11,0,0,1,.47,3.38v8h-3l-.23-.71a5,5,0,0,1-3.57,1c-3.3,0-4.55-1.17-4.55-4.27,0-3.25,1.22-4.26,5-4.26h2.47Zm-2,2.94c-1.41,0-2,.46-2,1.66s.53,1.54,2,1.54,2-.47,2-2.11v-1.09Z" transform="translate(0 -15.79)"/><path class="cls-10" d="M110.54,195.52h3.8v5.57a5.1,5.1,0,0,1,2.81-.78c3.57,0,5,1.79,5,6.06v1.95c0,4.29-1.48,6.06-5.07,6.06a4.41,4.41,0,0,1-3.44-1.12l-.23.84h-2.92Zm7.89,11.13c0-2.31-.63-3.33-2-3.33s-2.06.81-2.06,2.58v2.89c0,1.77.63,2.57,2.06,2.57s2-1,2-3.33Z" transform="translate(0 -15.79)"/><path class="cls-10" d="M128.71,208.66c0,1.85.85,2.81,2.49,2.81a2.76,2.76,0,0,0,2.66-1.43l2.78,1.58c-1.14,2-2.81,2.76-5.85,2.76-4.22,0-5.88-1.85-5.88-6.5V207c0-2.39.31-3.77,1.12-4.81.93-1.28,2.49-1.9,4.78-1.9,4.22,0,5.91,1.92,5.91,6.71v1.3h-8Zm4.45-2.92v-.31a2.24,2.24,0,1,0-4.48,0v.31Z" transform="translate(0 -15.79)"/><path class="cls-10" d="M138.7,203.61v-3h1.46l.23-3.8H144v3.8h2.68v3H144v4.71c0,2.11.55,2.76,2.35,2.71h.31v3.07h-.44c-5,0-6-1-6-6.17v-4.32Z" transform="translate(0 -15.79)"/><path class="cls-10" d="M152.57,208.66c0,1.85.86,2.81,2.5,2.81a2.75,2.75,0,0,0,2.65-1.43l2.78,1.58c-1.14,2-2.81,2.76-5.85,2.76-4.22,0-5.88-1.85-5.88-6.5V207c0-2.39.31-3.77,1.12-4.81.93-1.28,2.5-1.9,4.79-1.9,4.21,0,5.9,1.92,5.9,6.71v1.3h-8Zm4.45-2.92v-.31a2.24,2.24,0,1,0-4.48,0v.31Z" transform="translate(0 -15.79)"/><path class="cls-10" d="M165.45,210a2.67,2.67,0,0,0,2.76,1.4c1.64,0,2.39-.47,2.39-1.46,0-.72-.42-1-1.56-1.14-2.39-.26-3-.36-3.85-.78a3.34,3.34,0,0,1-1.85-3.33c0-2.84,1.82-4.42,5-4.42,2.65,0,4.37.88,5.49,2.78l-2.81,1.59a2.39,2.39,0,0,0-2.42-1.41c-1.12,0-1.74.47-1.74,1.3s.44,1,2.05,1.2c4.06.39,5.2,1.33,5.2,4.27s-1.82,4.34-5.8,4.34c-2.94,0-4.78-.91-5.69-2.76Z" transform="translate(0 -15.79)"/><path class="cls-11" d="M35.32,227.53c.9-2,2.92-3.51,4.65-4.79a10.71,10.71,0,0,0,2.89-2.65,13.57,13.57,0,0,0,1.29-4c.29-1.72,1-4.15,1.44-5.92.22-.82.41-1.53.5-1.92.34-1.54,1.75-5.61,2.12-6.68a3.37,3.37,0,0,0-1.1-.18,4.22,4.22,0,0,0-3.21,2.77c-.51,1.36-1,3.13-1.27,3.85a.92.92,0,0,1,.39.33c.82,1.22-.88,5-1.63,5.8-.25.28-.54.55-.84.83a6.79,6.79,0,0,0-2.3,3.38.32.32,0,1,1-.61-.16,7.44,7.44,0,0,1,2.47-3.69c.29-.27.57-.53.8-.79.76-.85,2.12-4.21,1.58-5a.3.3,0,0,0-.23-.13h-.09a1.29,1.29,0,0,0-.39.09,5.91,5.91,0,0,0-2.73,2.47,10.67,10.67,0,0,1-3.23,3.19c-3.46,2-6,4.33-6.66,6-.44,1.12-.3,5.21-.11,8.25l-.7,0-.69,0c.2-3.19.32-7.14-.11-8.25-.65-1.66-3.2-4-6.66-6a10.67,10.67,0,0,1-3.23-3.19,6,6,0,0,0-2.73-2.47,1.29,1.29,0,0,0-.39-.09h-.09c-.16,0-.21.09-.23.13-.54.8.82,4.16,1.58,5,.23.26.51.52.8.79a7.44,7.44,0,0,1,2.47,3.69.32.32,0,0,1-.23.39.33.33,0,0,1-.39-.23A6.78,6.78,0,0,0,16.16,215c-.3-.28-.59-.55-.84-.83-.75-.84-2.45-4.58-1.63-5.8a.92.92,0,0,1,.39-.33c-.22-.72-.76-2.49-1.27-3.85a4.22,4.22,0,0,0-3.22-2.77,3.36,3.36,0,0,0-1.09.18c.37,1.07,1.78,5.14,2.12,6.68.09.39.28,1.1.5,1.92.49,1.77,1.15,4.2,1.44,5.92a13.48,13.48,0,0,0,1.29,4,10.56,10.56,0,0,0,2.89,2.65c1.73,1.28,3.74,2.78,4.65,4.79a22.62,22.62,0,1,1,13.93,0Zm-7-49.86A28.35,28.35,0,1,0,56.71,206a28.38,28.38,0,0,0-28.36-28.35Z" transform="translate(0 -15.79)"/><path class="cls-11" d="M30.29,208.79a9.32,9.32,0,0,0,2.45-.88,9.83,9.83,0,0,1-2.45.88Z" transform="translate(0 -15.79)"/><path class="cls-11" d="M26.2,208.79l-.18,0,.18,0Zm-6.05-5.09A9.05,9.05,0,0,1,26,191.17h0c.16,0,.34-.08.51-.12l.39-.07H27a8.58,8.58,0,0,1,1.35-.1h.43a8.89,8.89,0,0,1,2.54.51A9.11,9.11,0,0,1,37,202.82a9,9,0,0,1-.91,2l-.07.11-.17.25a9.13,9.13,0,0,1-2.36,2.32l0,0-.29.19-.37.21.35-.2a9,9,0,0,1-4.74,1.34,9.23,9.23,0,0,1-2.11-.25,9.87,9.87,0,0,0,4.05,0,9,9,0,0,1-10.14-5.09Zm20.6-10.26a14.21,14.21,0,0,0-3.47-4.24,13.9,13.9,0,0,0-4.83-2.57,13.94,13.94,0,0,0-9.46.53l-.45.2-.13.06A13.87,13.87,0,0,0,17,207.93a13.73,13.73,0,0,0,2.56,2.77,13.77,13.77,0,0,0,10.12,3.08,15,15,0,0,0,2.09-.37l.41-.12.18,0a14,14,0,0,0,4.11-2l.12-.09.29-.22.28-.22.1-.09a14.06,14.06,0,0,0,4.4-6.49,13.74,13.74,0,0,0,.62-5.41,14.06,14.06,0,0,0-1.53-5.25Z" transform="translate(0 -15.79)"/></g></g></svg>