<?xml version="1.0" encoding="utf-8"?>
<!-- Generator: Adobe Illustrator 26.0.2, SVG Export Plug-In . SVG Version: 6.00 Build 0)  -->
<svg version="1.1" id="Layer_1" xmlns="http://www.w3.org/2000/svg" xmlns:xlink="http://www.w3.org/1999/xlink" x="0px" y="0px"
	 viewBox="0 0 175 17" style="enable-background:new 0 0 175 17;" xml:space="preserve">
<style type="text/css">
	.st0{fill:#FFFFFF;}
</style>
<g id="wmBlockAndText">
	<rect id="wmBlock" y="0.4" class="st0" width="15.8" height="15.8"/>
	<path id="wmTextS" class="st0" d="M27.8,7.1h-3c0-0.2-0.1-0.3-0.2-0.5c-0.1-0.1-0.3-0.2-0.4-0.3c-0.4-0.2-0.9-0.1-1.3,0
		c-0.2,0.1-0.3,0.2-0.3,0.4c0,0.1,0.1,0.3,0.2,0.4c0.1,0.1,0.4,0.2,0.7,0.3l1.9,0.3c0.9,0.2,1.6,0.5,2.1,0.9
		c0.5,0.4,0.7,0.9,0.7,1.6c0,0.6-0.2,1.2-0.6,1.7c-0.4,0.5-1,0.9-1.6,1.1c-0.7,0.3-1.5,0.4-2.3,0.4c-1.4,0-2.5-0.3-3.3-0.9
		c-0.8-0.5-1.2-1.3-1.3-2.3h3.3c0,0.3,0.2,0.5,0.4,0.7c0.3,0.2,0.6,0.2,0.9,0.2c0.3,0,0.5,0,0.7-0.1c0.2-0.1,0.3-0.2,0.3-0.4
		c0-0.2-0.1-0.3-0.3-0.4c-0.2-0.1-0.5-0.2-0.8-0.3l-1.6-0.3c-0.9-0.2-1.6-0.5-2.1-0.9c-0.5-0.5-0.7-1-0.7-1.8c0-0.6,0.1-1.2,0.5-1.6
		c0.4-0.5,0.9-0.8,1.5-1C22,4.1,22.7,4,23.5,4c1.3,0,2.4,0.3,3.1,0.8C27.4,5.4,27.8,6.1,27.8,7.1z"/>
	<path id="wmTextU" class="st0" d="M35.2,9.2V4.1h3.3v9.1h-3.1v-1.7h-0.1c-0.2,0.6-0.5,1-1,1.4c-1,0.6-2.4,0.7-3.4,0
		c-0.5-0.3-0.9-0.7-1.1-1.2c-0.3-0.6-0.4-1.2-0.4-1.8V4.1h3.3v5.1c0,0.4,0.1,0.8,0.3,1.1s0.6,0.4,1,0.4c0.3,0,0.5-0.1,0.7-0.2
		c0.2-0.1,0.4-0.3,0.5-0.5C35.2,9.8,35.2,9.5,35.2,9.2z"/>
	<path id="wmTextG" class="st0" d="M44.6,16.8c-0.9,0-1.7-0.1-2.4-0.4c-0.6-0.2-1.1-0.6-1.5-1.1c-0.4-0.4-0.6-1-0.6-1.6h3.2
		c0,0.2,0.1,0.3,0.2,0.5c0.1,0.1,0.3,0.2,0.5,0.3c0.2,0.1,0.4,0.1,0.7,0.1c0.4,0,0.7-0.1,1.1-0.3c0.3-0.2,0.4-0.6,0.4-1.1v-1.5h-0.1
		c-0.1,0.3-0.3,0.6-0.6,0.8c-0.3,0.2-0.6,0.4-0.9,0.5c-1,0.3-2,0.2-2.9-0.3c-0.5-0.3-1-0.8-1.3-1.4c-0.3-0.7-0.5-1.5-0.5-2.6
		c0-1.1,0.2-2,0.5-2.7c0.3-0.7,0.8-1.2,1.3-1.5C42.3,4.2,42.9,4,43.5,4c0.4,0,0.8,0.1,1.2,0.2c0.3,0.1,0.6,0.4,0.9,0.6
		c0.2,0.3,0.4,0.5,0.5,0.9h0.1V4.1h3.3v9.1c0,0.8-0.2,1.4-0.6,2c-0.4,0.6-1,1-1.7,1.2C46.3,16.7,45.5,16.9,44.6,16.8z M44.7,10.8
		c0.3,0,0.6-0.1,0.8-0.3c0.2-0.2,0.4-0.4,0.5-0.7c0.1-0.4,0.2-0.7,0.2-1.1c0-0.4,0-0.8-0.2-1.2c-0.1-0.3-0.3-0.5-0.5-0.7
		c-0.2-0.2-0.5-0.3-0.8-0.3c-0.3,0-0.6,0.1-0.8,0.3c-0.2,0.2-0.4,0.4-0.5,0.7c-0.1,0.4-0.2,0.8-0.2,1.2c0,0.4,0,0.8,0.2,1.2
		c0.1,0.3,0.3,0.5,0.5,0.7C44.2,10.7,44.4,10.8,44.7,10.8L44.7,10.8z"/>
	<path id="wmTextA" class="st0" d="M53.6,13.4c-0.5,0-1-0.1-1.5-0.3c-0.4-0.2-0.8-0.5-1-0.9c-0.3-0.4-0.4-0.9-0.4-1.5
		c0-0.4,0.1-0.9,0.3-1.3c0.2-0.3,0.4-0.6,0.7-0.9c0.3-0.2,0.7-0.4,1.1-0.5c0.4-0.1,0.9-0.2,1.3-0.2c0.4,0,0.8-0.1,1.2-0.1
		c0.2,0,0.5-0.1,0.7-0.2C56,7.3,56.1,7.2,56.1,7v0c0-0.2-0.1-0.4-0.3-0.6c-0.2-0.1-0.4-0.2-0.7-0.2c-0.3,0-0.5,0.1-0.8,0.2
		C54.2,6.6,54,6.8,54,7.1h-3c0-0.6,0.2-1.1,0.5-1.5c0.3-0.5,0.8-0.9,1.4-1.1C53.5,4.1,54.3,4,55.2,4c0.6,0,1.2,0.1,1.8,0.2
		c0.5,0.1,0.9,0.3,1.3,0.6c0.3,0.3,0.6,0.6,0.8,0.9c0.2,0.4,0.3,0.8,0.3,1.2v6.3h-3.1v-1.3h-0.1c-0.2,0.3-0.4,0.6-0.7,0.8
		c-0.3,0.2-0.6,0.4-0.9,0.5C54.3,13.3,54,13.4,53.6,13.4z M54.7,11.3c0.2,0,0.5,0,0.7-0.1c0.2-0.1,0.4-0.3,0.5-0.4
		c0.1-0.2,0.2-0.5,0.2-0.7V9.2c-0.1,0-0.2,0.1-0.3,0.1c-0.1,0-0.2,0.1-0.3,0.1c-0.1,0-0.2,0.1-0.3,0.1s-0.2,0-0.4,0.1
		c-0.2,0-0.4,0.1-0.6,0.2c-0.1,0.1-0.3,0.2-0.4,0.3c-0.1,0.1-0.1,0.3-0.1,0.4c0,0.2,0.1,0.4,0.3,0.6C54.2,11.2,54.4,11.3,54.7,11.3
		L54.7,11.3z"/>
	<path id="wmTextR" class="st0" d="M61,13.2V4.1h3.2v1.7h0.1c0.2-0.6,0.4-1.1,0.8-1.4C65.4,4.1,65.8,4,66.3,4c0.1,0,0.3,0,0.4,0
		c0.1,0,0.3,0,0.4,0.1v2.8c-0.2-0.1-0.4-0.1-0.6-0.1c-0.2,0-0.4,0-0.6,0c-0.3,0-0.6,0.1-0.9,0.2c-0.3,0.1-0.5,0.4-0.6,0.6
		c-0.1,0.3-0.2,0.6-0.2,0.9v4.8H61z"/>
	<path id="wmTextM" class="st0" d="M68.2,13.2V4.1h3.1v1.7h0.1c0.2-0.5,0.5-1,1-1.4c1-0.7,2.3-0.7,3.3,0c0.4,0.3,0.7,0.8,0.8,1.3
		h0.1c0.1-0.6,0.5-1,1-1.3C78.1,4.1,78.8,4,79.4,4c0.9,0,1.6,0.3,2.1,0.8c0.5,0.6,0.8,1.3,0.8,2.2v6.2h-3.3V7.9
		c0-0.4-0.1-0.7-0.3-0.9c-0.2-0.2-0.5-0.4-0.8-0.3c-0.3,0-0.6,0.1-0.8,0.3c-0.2,0.2-0.3,0.5-0.3,0.9v5.3h-3.1V7.9
		c0-0.4-0.1-0.7-0.3-0.9c-0.2-0.2-0.5-0.4-0.8-0.3c-0.2,0-0.4,0-0.6,0.1c-0.2,0.1-0.3,0.3-0.4,0.4c-0.1,0.2-0.1,0.4-0.1,0.7v5.3
		L68.2,13.2z"/>
	<path id="wmTextA2" class="st0" d="M86.5,13.4c-0.5,0-1-0.1-1.5-0.3c-0.4-0.2-0.8-0.5-1-0.9c-0.3-0.4-0.4-0.9-0.4-1.5
		c0-0.4,0.1-0.9,0.3-1.3c0.2-0.3,0.4-0.6,0.7-0.9c0.3-0.2,0.7-0.4,1.1-0.5c0.4-0.1,0.9-0.2,1.3-0.2c0.4,0,0.8-0.1,1.2-0.1
		c0.2,0,0.5-0.1,0.7-0.3C88.9,7.3,89,7.2,89,7v0c0-0.2-0.1-0.4-0.3-0.6c-0.2-0.1-0.4-0.2-0.7-0.2c-0.3,0-0.5,0.1-0.8,0.2
		c-0.2,0.1-0.3,0.4-0.4,0.6h-3c0-0.6,0.2-1.1,0.5-1.5c0.3-0.5,0.8-0.9,1.4-1.1C86.4,4.1,87.1,4,88.1,4c0.6,0,1.2,0.1,1.8,0.2
		c0.5,0.1,0.9,0.3,1.3,0.6c0.3,0.3,0.6,0.6,0.8,0.9c0.2,0.4,0.3,0.8,0.3,1.2v6.3h-3.1v-1.3h-0.1c-0.2,0.3-0.4,0.6-0.7,0.8
		c-0.3,0.2-0.6,0.4-0.9,0.5C87.2,13.3,86.9,13.4,86.5,13.4z M87.6,11.3c0.2,0,0.5,0,0.7-0.1c0.2-0.1,0.4-0.3,0.5-0.4
		c0.1-0.2,0.2-0.5,0.2-0.7V9.2c-0.1,0-0.2,0.1-0.3,0.1c-0.1,0-0.2,0.1-0.3,0.1c-0.1,0-0.2,0.1-0.3,0.1c-0.1,0-0.2,0-0.4,0.1
		c-0.2,0-0.4,0.1-0.6,0.2c-0.1,0.1-0.3,0.2-0.4,0.3c-0.1,0.1-0.1,0.3-0.1,0.4c0,0.2,0.1,0.4,0.3,0.6C87.1,11.2,87.3,11.3,87.6,11.3
		L87.6,11.3z"/>
	<path id="wmTextP" class="st0" d="M93.8,16.7V4.1h3.3v1.6h0.1c0.1-0.3,0.3-0.6,0.5-0.9c0.2-0.3,0.5-0.5,0.9-0.6
		C98.9,4.1,99.3,4,99.7,4c0.6,0,1.2,0.2,1.7,0.5c0.5,0.3,1,0.8,1.3,1.5s0.5,1.6,0.5,2.7c0,1.1-0.2,1.9-0.5,2.6
		c-0.3,0.7-0.8,1.2-1.3,1.5c-0.5,0.3-1.2,0.5-1.8,0.5c-0.4,0-0.8-0.1-1.1-0.2c-0.3-0.1-0.6-0.3-0.9-0.6c-0.2-0.2-0.4-0.5-0.5-0.8h0
		v4.9H93.8z M97.1,8.7c0,0.4,0,0.8,0.2,1.2c0.1,0.3,0.3,0.6,0.5,0.7c0.5,0.3,1.1,0.3,1.5,0c0.2-0.2,0.4-0.4,0.5-0.7
		c0.1-0.4,0.2-0.8,0.2-1.2c0-0.4,0-0.8-0.2-1.2c-0.1-0.3-0.3-0.5-0.5-0.7c-0.2-0.2-0.5-0.3-0.8-0.3c-0.3,0-0.6,0.1-0.8,0.3
		c-0.2,0.2-0.4,0.4-0.5,0.7C97.1,7.9,97,8.3,97.1,8.7z"/>
	<path id="wmTextL" class="st0" d="M108,1.1v12.2h-3.3V1.1H108z"/>
	<path id="wmTextE" class="st0" d="M114,13.4c-1,0-1.8-0.2-2.5-0.6c-0.7-0.4-1.3-0.9-1.6-1.6c-0.4-0.7-0.6-1.5-0.6-2.5
		c0-0.9,0.2-1.8,0.6-2.5c0.4-0.7,0.9-1.3,1.6-1.6C112.2,4.2,113,4,114,4c0.6,0,1.3,0.1,1.9,0.3c0.5,0.2,1,0.5,1.4,0.9
		c0.4,0.4,0.7,0.9,0.9,1.5c0.2,0.6,0.3,1.3,0.3,2v0.8h-8.2V7.6h5.1c0-0.2-0.1-0.5-0.2-0.7c-0.1-0.2-0.3-0.4-0.5-0.5
		c-0.2-0.1-0.5-0.2-0.7-0.2c-0.3,0-0.5,0.1-0.7,0.2c-0.2,0.1-0.4,0.3-0.5,0.5c-0.1,0.2-0.2,0.4-0.2,0.7v2c0,0.3,0.1,0.5,0.2,0.8
		c0.1,0.2,0.3,0.4,0.5,0.5c0.3,0.1,0.5,0.2,0.8,0.2c0.2,0,0.4,0,0.6-0.1c0.2-0.1,0.3-0.1,0.5-0.3c0.1-0.1,0.2-0.3,0.3-0.4h3
		c-0.1,0.6-0.3,1.2-0.7,1.6c-0.4,0.5-0.9,0.9-1.5,1.1C115.5,13.3,114.8,13.4,114,13.4z"/>
	<path id="wmTextDot" class="st0" d="M121.6,13.4c-0.4,0-0.9-0.2-1.2-0.5c-0.3-0.3-0.5-0.7-0.5-1.2c0-0.4,0.2-0.9,0.5-1.2
		c0.6-0.6,1.7-0.6,2.3,0c0.3,0.3,0.5,0.7,0.5,1.2c0,0.3-0.1,0.6-0.2,0.8c-0.1,0.2-0.4,0.4-0.6,0.6C122.2,13.4,121.9,13.4,121.6,13.4
		z"/>
	<path id="wmTextM2" class="st0" d="M125,13.2V4.1h3.1v1.7h0.1c0.2-0.5,0.5-1,1-1.4c1-0.7,2.3-0.7,3.3,0c0.4,0.3,0.7,0.8,0.8,1.3
		h0.1c0.1-0.6,0.5-1,1-1.3c0.5-0.3,1.1-0.5,1.8-0.5c0.9,0,1.6,0.3,2.1,0.8c0.5,0.6,0.8,1.3,0.8,2.2v6.2h-3.3V7.9
		c0-0.4-0.1-0.7-0.3-0.9c-0.2-0.2-0.5-0.4-0.8-0.3c-0.3,0-0.6,0.1-0.8,0.3c-0.2,0.2-0.3,0.5-0.3,0.9v5.3h-3.1V7.9
		c0-0.4-0.1-0.7-0.3-0.9c-0.2-0.2-0.5-0.4-0.8-0.3c-0.2,0-0.4,0-0.6,0.1c-0.2,0.1-0.3,0.3-0.4,0.4c-0.1,0.2-0.1,0.4-0.1,0.7v5.3
		L125,13.2z"/>
	<path id="wmTextE2" class="st0" d="M145.2,13.4c-1,0-1.8-0.2-2.5-0.6c-0.7-0.4-1.3-0.9-1.6-1.6c-0.4-0.7-0.6-1.5-0.6-2.5
		c0-0.9,0.2-1.8,0.6-2.5c0.4-0.7,0.9-1.3,1.6-1.6c0.7-0.4,1.5-0.6,2.5-0.6c0.6,0,1.3,0.1,1.9,0.3c0.5,0.2,1,0.5,1.4,0.9
		c0.4,0.4,0.7,0.9,0.9,1.5c0.2,0.6,0.3,1.3,0.3,2v0.8h-8.2V7.6h5.1c0-0.2-0.1-0.5-0.2-0.7c-0.1-0.2-0.3-0.4-0.5-0.5
		c-0.2-0.1-0.5-0.2-0.7-0.2c-0.3,0-0.5,0.1-0.7,0.2c-0.2,0.1-0.4,0.3-0.5,0.5c-0.1,0.2-0.2,0.4-0.2,0.7v2c0,0.3,0.1,0.5,0.2,0.8
		c0.1,0.2,0.3,0.4,0.5,0.5c0.3,0.1,0.5,0.2,0.8,0.2c0.2,0,0.4,0,0.6-0.1c0.2-0.1,0.3-0.1,0.5-0.3c0.1-0.1,0.2-0.3,0.3-0.4h3
		c-0.1,0.6-0.3,1.2-0.7,1.6c-0.4,0.5-0.9,0.9-1.5,1.1C146.7,13.3,145.9,13.4,145.2,13.4z"/>
	<path id="wmTextD" class="st0" d="M154.3,13.4c-0.6,0-1.3-0.2-1.8-0.5c-0.5-0.3-1-0.9-1.3-1.6s-0.5-1.6-0.5-2.6
		c0-1.1,0.2-2,0.5-2.7c0.3-0.7,0.8-1.2,1.3-1.5c0.5-0.3,1.1-0.5,1.7-0.5c0.4,0,0.8,0.1,1.2,0.2c0.3,0.1,0.6,0.4,0.9,0.6
		c0.2,0.3,0.4,0.5,0.5,0.9h0V1.1h3.3v12.2h-3.3v-1.5h-0.1c-0.1,0.3-0.3,0.6-0.5,0.8c-0.2,0.3-0.5,0.4-0.9,0.6
		C155,13.3,154.7,13.4,154.3,13.4z M155.5,10.8c0.3,0,0.6-0.1,0.8-0.3c0.2-0.2,0.4-0.5,0.5-0.7c0.1-0.4,0.2-0.8,0.2-1.2
		c0-0.4,0-0.8-0.2-1.2c-0.1-0.3-0.3-0.5-0.5-0.7c-0.2-0.2-0.5-0.3-0.8-0.3c-0.3,0-0.6,0.1-0.8,0.3c-0.2,0.2-0.4,0.4-0.5,0.7
		c-0.1,0.4-0.2,0.8-0.2,1.2c0,0.4,0,0.8,0.2,1.2c0.1,0.3,0.3,0.5,0.5,0.7C154.9,10.7,155.2,10.8,155.5,10.8z"/>
	<path id="wmTextI" class="st0" d="M161.8,13.2V4.1h3.3v9.1L161.8,13.2L161.8,13.2z M163.4,3.2c-0.4,0-0.8-0.1-1.1-0.4
		c-0.6-0.5-0.6-1.4-0.1-2c0,0,0.1-0.1,0.1-0.1c0.6-0.6,1.6-0.6,2.3,0c0.6,0.5,0.6,1.4,0.1,2c0,0-0.1,0.1-0.1,0.1
		C164.2,3,163.8,3.2,163.4,3.2z"/>
	<path id="wmTextA3" class="st0" d="M169.2,13.4c-0.5,0-1-0.1-1.5-0.3c-0.4-0.2-0.8-0.5-1-0.9s-0.4-0.9-0.4-1.5
		c0-0.4,0.1-0.9,0.3-1.3c0.2-0.3,0.4-0.6,0.7-0.9c0.3-0.2,0.7-0.4,1.1-0.5c0.4-0.1,0.9-0.2,1.3-0.2c0.4,0,0.8-0.1,1.2-0.1
		c0.2,0,0.5-0.1,0.7-0.3c0.1-0.1,0.2-0.3,0.2-0.4v0c0-0.2-0.1-0.4-0.3-0.6c-0.2-0.1-0.4-0.2-0.7-0.2c-0.3,0-0.5,0.1-0.8,0.2
		c-0.2,0.1-0.3,0.4-0.4,0.6h-3c0-0.6,0.2-1.1,0.5-1.5c0.3-0.5,0.8-0.9,1.4-1.1c0.6-0.3,1.4-0.4,2.3-0.4c0.6,0,1.2,0.1,1.8,0.2
		c0.5,0.1,0.9,0.3,1.3,0.6c0.3,0.3,0.6,0.6,0.8,0.9c0.2,0.4,0.3,0.8,0.3,1.2v6.3h-3.1v-1.3h-0.1c-0.2,0.3-0.4,0.6-0.7,0.8
		c-0.3,0.2-0.6,0.4-0.9,0.5C170,13.3,169.6,13.4,169.2,13.4z M170.3,11.3c0.2,0,0.5,0,0.7-0.1c0.2-0.1,0.4-0.3,0.5-0.4
		c0.1-0.2,0.2-0.5,0.2-0.7V9.2c-0.1,0-0.2,0.1-0.3,0.1c-0.1,0-0.2,0.1-0.3,0.1c-0.1,0-0.2,0.1-0.3,0.1s-0.3,0-0.4,0.1
		c-0.2,0-0.4,0.1-0.6,0.2c-0.1,0.1-0.3,0.2-0.4,0.3c-0.1,0.1-0.1,0.3-0.1,0.4c0,0.2,0.1,0.4,0.3,0.6
		C169.8,11.2,170.1,11.3,170.3,11.3L170.3,11.3z"/>
</g>
<path id="wmEmblemLeaf" d="M2.2,7C2.4,7.2,3,7.7,3,7.8s0,0.3,0.1,0.3S3.7,8.3,4,8.4c0.3,0,1.3,0.1,1.6,0.1c0.3,0-0.4,0.3-0.6,0.3
	C4.7,8.8,4.6,8.9,4.6,9c0,0.1-0.5,0.3-0.8,0.3S3.4,9.5,3.5,9.6c0.1,0.1,0,0.3,0.1,0.4c0,0.1-0.5,0.4-0.7,0.4c-0.2,0-0.1,0.2,0,0.2
	s0.4,0.3,0.7,0.4c0.2,0.1,0.7,0,1,0.1c0.3,0.1,0.1,0.2,0.2,0.3c0.1,0.1,1.2-0.6,1.4-0.7c0.1-0.1,0,0.1,0.1,0.2
	c0.1,0.1,0.4-0.3,0.8-0.5c0.4-0.2,0.3,0.2,0.2,0.4c-0.1,0.3-0.9,1.5-0.8,1.6C6.7,12.6,7,12.8,6.9,13s-0.1,0.3,0,0.3
	c0.4,0,0.9-0.1,1.3-0.2C8.5,13,8.9,12.2,9,12.7c0.1,0.5,0.8-0.9,0.9-1.1s0.1-0.3,0.2-0.4s0.3,0.1,0.3,0.2c0,0.1,0.1,0.2,0.2,0.2h0
	c0.2,0,0.3,0.1,0.5,0.4c0.2,0.2,0.3-0.2,0.3-0.4c0-0.2,0.2-0.2,0.4-0.4c0.2-0.2,0.2-0.6,0.2-0.7s0.3,0,0.5,0s-0.1-0.5-0.2-0.6
	c-0.1-0.1-0.3-0.8-0.3-1.1c0-0.3,0.5-0.3,0.7-0.3c0.2,0,0.2,0,0.3-0.2c0.1-0.1-0.1-0.1-0.3-0.2s-0.2-0.2-0.3-0.4
	c-0.1-0.2-2.1-0.7-2.2-0.8c0,0,0,0,0-0.1c0.3-0.2,0.7-0.5,1-0.7c0.1-0.1,1.9-1.2,2.1-1.3s0.5-0.7,0.5-1s-0.1-0.1-0.1-0.1
	s-0.3,0.5-0.5,0.8s-1.6,1.2-1.9,1.3c-0.3,0.1-0.8,0.5-1.1,0.6c0-0.2,0-0.4,0-0.5c0-0.2-0.4-1-0.6-1.2c-0.2-0.2-0.6-1-0.7-1.3
	C9,3.3,8.9,3.6,8.8,3.7c-0.1,0.2,0,0.9-0.4,1.1C8,4.9,6.9,3.5,6.7,3.5c-0.1-0.1,0,0.2-0.1,0.3c-0.1,0.2-0.7,0-1.1,0
	c-0.3,0-1-0.3-1.3-0.3c-0.2,0,0,0.3,0.1,0.4c0.1,0.2,0.1,0.4,0.1,0.6c0,0.2,0.3,0.3,0.5,0.5c0.2,0.1,0.3,0.4,0.1,0.7
	C5,5.9,4.3,6,4,6S3.4,6.3,3.3,6.4c0,0.1,0.2,0,0.4,0C4,6.4,4,6.4,4,6.6c0,0.1-2,0-2,0C1.5,6.6,2,6.8,2.2,7z"/>
</svg>
