<svg xmlns="http://www.w3.org/2000/svg" viewBox="0 0 399 207"><defs><style>.cls-1{fill:#fff;}.cls-2,.cls-3{fill:#ffb419;}.cls-2{opacity:0.35;}</style></defs><g id="Layer_2" data-name="Layer 2"><g id="Lockups"><g id="Editable"><path class="cls-1" d="M395.89,100.05h0a11.35,11.35,0,0,1-9.18,13.19l-52.1,9.43-21.1-19.23,69.12-12.53A11.4,11.4,0,0,1,395.89,100.05Z"/><path class="cls-2" d="M395.89,100.05h0a11.35,11.35,0,0,1-9.18,13.19l-52.1,9.43-21.1-19.23,69.12-12.53A11.4,11.4,0,0,1,395.89,100.05Z"/><path id="FullUP" class="cls-3" d="M7.83,75.05s-1.67-4.15,2.5-5.82,4.18.83,10-2.49l5.85-.83s1.67,0,9.19-6.66,11.69-9.15,17.54-7.48,17.54-.83,21.72-4.16,7.52-8.32,10.86-8.32,10.44-.88,12-5.24,3.31-5.43,6.13-6.78a32.71,32.71,0,0,0,6.91-4.95c.78-.77,2.43-2.42,6.91-3.48s7.3-7.37,9-8.92a26.23,26.23,0,0,1,8.37-5.13c3.22-1.07,6-3.2,9.54-3.49s17-3.39,22.87,1.16S167,8,162,7.31c0,0-6.42-1.36-6.62.87a2.1,2.1,0,0,0,1.56,2.52s-5.16,3.87-7.3,4.55-4.09,4.36-6.52,5.52-7.59,4.75-5.06,6.4c0,0-3.7,2.71-4.68,4.84,0,0-2.62,1.94-5.35,9.11l-2.63.19s-5,15.8-3.11,18.9,1.65-2.52,4.77-4.85-.49-3.48-.49-3.48L129,49.65s-.38,3.58.69,2.71,9.83-9.59,12.84-9.2-2.24,4.55-5.25,5.71-3.7,8.63-1.36,5.52,5.35-7.75,11.29-7.07,13.91,3.59,15.76,3.49c0,0-2.92,3.29-.58,2.91A2.93,2.93,0,0,0,165,51.58l2,1.85-.1,2.51s1.75.59,2.53-.09,5.65,4.94,5.65,4.94v4.26l3.31,3.3-.2,2.13,3.7,2.71.1,2.52s1,2.13,5,1.65l-.19,1.35s-1.56,1.75-.2,2.81.88,3.69.88,3.69l3.79.38s.49,1.07,2.54-.19c0,0,2,1.84,3.69-.1l2.14-.77,2.73,1.16a4.82,4.82,0,0,1,4.28-2.91s3-2,4.77.87.49,4.36,4.48,4.66c0,0,1.07,2.9,2.72,3s3.12-3.39,3.12-4.26h4l.68,3.29,3.5.1-.19,2.42s2.33,3.39,2.72-1.74l2.83-2.33.48-2.91,3-.48,3.6-4.26S251,80.07,256,73.77c0,0,6.23-5,6.23-1.84,0,0,6.91.78,11.09-2.13l3.7-.1s.39-2,4.67.2c0,0,20.73,2.9,27.84-3.39,0,0,3.79-3.1,6.32-2.81,0,0,1.46.48,2.44-1.55,0,0,3.11-.49,4.57,1.64s11.78-4.16,8,1-5.84,5.82-4.38,10.95-2,10.27-.19,11.72,10.12.1,12.26,1.94,4,1.26,7.2-.39,6.72-3.29,7.79,1.17,1.56,5.23,6.23,1.06S362.06,86,367,85.4s4,1.94,7.69-1.75,7.1,1.17,4.47,3.59-1.84,4.65.39,7.17,5.07,11.53,3.41,11.43c0,0-1,8-5.64-1.06,0,0,.09,7.75-7,2.81,0,0,3.5,7.65,6.42,5.62s5.84,1.45,8.18,2.32,2.24,2.13-.59,2.71,7,7.66,7,7.66l3.21.58s3.9,4.75-1.65,5-14-4.36-16.55-1c0,0-1.65,2.81-.58,3.87,0,0-3.51-3.39-4-5.62,0,0-2.63,6.5-8.18-1.45,0,0-1.75-1.84-1.26,3.1a5.6,5.6,0,0,1-2.83-.87c-1.26-.87-.87,4.07-1.84.87s-1-2.52-5-4.36-4.86-2.13-5.35.39,2.53,2.13.29,4.17-3.8.19-2,8.33c0,0,.68,2.42,2.43,2.71,0,0-2.73,3.1-7.3-1.06a47.15,47.15,0,0,1-7.79-9.69l-13.62-6.4-6.43-.29s-3-7.75-6.61-2.42c0,0-6.23-2.71-9.64,1.06a22.35,22.35,0,0,0-5,7.56c-.88,2-3.41,4.17-7.3,1.75s-11.88,0-10.51,4.07c0,0-3.41-3.49-7.21-3.49s-10.9-.49-14,1.64-3.8,13-3.8,13l-4.57.19a2.71,2.71,0,0,1-3,2.62c-3,0-4.57-1.07-3.31,1.06s.29,2.52-2.82,2.43,2.24,4.74-2.63,4.26,3.21,9.78-2.53,4.26-1.56-6.49-1.56-6.49.69-3.29,2.63-4.26c0,0-1.65-4.46,3.31-3.59l2.53-4.75.49-4.55a4.22,4.22,0,0,0-5.26,4c-.58,5-7-4.26-9.54-1.74l-.39,6-2.33,2-.1,3s-4.18,3.59-5.55,3.1-2.43,2.14-2.43,2.14-2.72-3.49-2-10c0,0-2.24-.68,1.55-6s-1-5.43-1.94-2-5.26,5.52-3.9,9.2-1.46,6.49-3.4,7.56a17.78,17.78,0,0,0-7.11,8.33c-1.36,3.87-2.43,2.13-3.31,5.62s-11.77,24.71-16.15,27.71-4.67,7.75-3.8,9.11-4.28-1-4.77-4.27c0,0-4.57-1.26-3.4-5.91s6.91-11.24,4.47-14.24-4.67,2-4.67,2-1.36.87-2,.19a3.38,3.38,0,0,0-3.7-.39c-1.07.78-2.43-.19-2.43-1.94s1.16-.77,1.07-5c0,0,7.78-4,1.55-11.53,0,0,9.44-.2.88-6.69l-.1-1.84s3.6-1.55,1.07-3.59-4.86-6.58-7-4-2.05-3.2-5.26-4.07-1.36,3.88-5.84-1,.19-1.74,2.53-5.71-2.34,1.26-1.95-3.39-8.27-3.3-8.27-3.3l-.68-1.26-4.38.29-2.34-2.9-7.88-.29s-1.07-4.46-5.45-1.55-5.55-.2-5.55-.2-4.57-2.52-6-1-3.12-.87-3.12-.87-7.59-7.85-14.5-10.37S22.48,93.15,22.48,93.15l-.1-3.58s-2.14-9.21-4.57-10.86l-2.73.1L15,76.87l-2.33-.19-.2-3Z"/><path id="white" class="cls-1" d="M395.89,100.05h0a11.4,11.4,0,0,0-13.26-9.14h0L23,156.11a11.44,11.44,0,0,1-13.3-9.17l-5.48-30,365-66a17.37,17.37,0,0,1,20.2,13.92Z"/><path class="cls-2" d="M12.24,145.45a8.9,8.9,0,0,0,2.63,5.62,9.48,9.48,0,0,0,8,2.23l65.77-11.92a2.09,2.09,0,0,0,1-3.61l-12-11a2.06,2.06,0,0,1-.55-2.26q2.86-7.86,5.74-15.71a2.1,2.1,0,0,0-2.36-2.78l-75.65,14Q8.51,132.74,12.24,145.45Z"/><path id="white-2" data-name="white" class="cls-1" d="M74,117.5,64.89,108a4.23,4.23,0,0,1-.84-4.58l6.42-15a4.23,4.23,0,0,0-4.66-5.82L17.2,91.29a17.29,17.29,0,0,0-14,20.1L9.7,146.94h0a11.38,11.38,0,0,1,9.21-13.23l52.74-9.12A4.23,4.23,0,0,0,74,117.5Z"/><path class="cls-3" d="M398.77,99.53h0l-6.44-35.26A20.29,20.29,0,0,0,368.73,48L67.63,102.48l5.53-12.94a7.15,7.15,0,0,0-7.87-9.83L16.67,88.42a20.16,20.16,0,0,0-13,8.38A20,20,0,0,0,.33,111.91l1,5.51h0l4.79,26.23.69,3.8h0a14.38,14.38,0,0,0,14.1,11.74,14.38,14.38,0,0,0,2.6-.24L312.6,106.56l20,18.26a3,3,0,0,0,2,.76,3.12,3.12,0,0,0,.52,0l52.11-9.43A14.29,14.29,0,0,0,398.77,99.53Zm-390.35.58a14.41,14.41,0,0,1,9.29-6l48.61-8.71a1.32,1.32,0,0,1,1.46,1.82l-6.42,15A7.11,7.11,0,0,0,62.77,110l9.11,9.51a1.26,1.26,0,0,1,.3,1.32,1.28,1.28,0,0,1-1,.89l-52.77,9.12a14.37,14.37,0,0,0-7.87,4.26L6.09,110.87A14.27,14.27,0,0,1,8.42,100.11Zm14.05,53.13a8.49,8.49,0,0,1-9.89-6.81h0a8.47,8.47,0,0,1,6.83-9.84l52.74-9.13a7.12,7.12,0,0,0,4-12l-7-7.35,300.71-54.4a14.43,14.43,0,0,1,16.8,11.57L391,89.25l-.37-.16-.41-.18-.87-.33-.34-.11c-.41-.13-.82-.24-1.24-.33l-.15,0a10.68,10.68,0,0,0-1.11-.18l-.41,0c-.29,0-.59,0-.89-.06h-.44c-.31,0-.61,0-.91,0-.14,0-.27,0-.4,0a11.57,11.57,0,0,0-1.3.17Zm363.72-42.86-50.68,9.17-15.68-14.3,63.33-11.48c.28,0,.57-.08.85-.11h.18a5,5,0,0,1,.67,0h.06a8.5,8.5,0,0,1,7.59,5.22l0,.06a6.45,6.45,0,0,1,.21.62c0,.07.05.13.07.19s.1.4.14.6a2,2,0,0,1,.05.24h0A8.44,8.44,0,0,1,386.19,110.38Z"/><g id="ribbon-2" data-name="ribbon"><path class="cls-3" d="M37.1,97.6a4.77,4.77,0,0,0-3.67-.38,4.81,4.81,0,0,0-3.08,2c-.82,1.35.38,2.82,1,3.43a.42.42,0,0,0,.59,0,5.95,5.95,0,0,1,5.37-1.3.42.42,0,0,0,.51-.3C38.07,100.28,38.45,98.42,37.1,97.6Z"/><path class="cls-3" d="M29.8,100.9a.23.23,0,0,0-.43-.05,6.17,6.17,0,0,0-.71,4.12,6.72,6.72,0,0,0,.28.78,7.64,7.64,0,0,0,1.72,2.52c.91.92,5.42,5.44,11.77,11.62a.58.58,0,0,0,1-.23l1.22-3.55a.56.56,0,0,0-.17-.62L43,114.22A164.54,164.54,0,0,1,30.8,102.75a4.61,4.61,0,0,1-.74-1.1,4.13,4.13,0,0,1-.26-.74Z"/><path class="cls-3" d="M36.16,113.74l.39.39Z"/><path class="cls-3" d="M36.59,114.16l.4.4C36.85,114.43,36.72,114.29,36.59,114.16Z"/><path class="cls-3" d="M37.91,115.46l-.89-.87.89.87Z"/><path class="cls-3" d="M34.7,111.92c-.9,2.38-1.84,4.75-1.84,4.75-.16.38-.41,1-.73,1.81a.56.56,0,0,0,.14.63L35,121.7a.58.58,0,0,0,.95-.23c.65-2,1.54-4.57,2.09-6.26Z"/><path class="cls-3" d="M34.6,112.2l.35.35Z"/><path class="cls-3" d="M35,112.57l.76.75Z"/><path class="cls-3" d="M35.74,113.33l.39.38Z"/><path class="cls-3" d="M36.54,108.48l-.06,0Z"/><path class="cls-3" d="M37,108.88l0,0Z"/><polygon class="cls-3" points="36.09 108.06 36.09 108.06 36.09 108.06 36.09 108.06"/><path class="cls-3" d="M39,110.16a.41.41,0,0,0,.66-.18c.7-2.2,1.17-3.68,1.33-4.22a7.59,7.59,0,0,0,.37-3,4.9,4.9,0,0,0-.12-.82,6.18,6.18,0,0,0-2.53-3.33.23.23,0,0,0-.36.24h0a4,4,0,0,1,.11.79,4.52,4.52,0,0,1-.14,1.31c-.52,2-1.25,4.25-2,6.44a.39.39,0,0,0,.11.42C37.33,108.62,38.2,109.42,39,110.16Z"/><path class="cls-3" d="M38.19,110l0,0Z"/><path class="cls-3" d="M37.78,109.63l0,0Z"/></g><path class="cls-3" d="M104.83,114.56a1.36,1.36,0,0,0-.46-.06l-1.12,0a8,8,0,0,0-1.3.11,4.72,4.72,0,0,0-3.49,2.22,6.84,6.84,0,0,0-.52,4.73,7,7,0,0,0,2.16,4.32,4.74,4.74,0,0,0,4,.91,4.8,4.8,0,0,0,1.34-.44,11.8,11.8,0,0,0,1.33-.79l.18-2.75,3.28.17-.15,4.58a16.84,16.84,0,0,1-2.53,1.51,11.74,11.74,0,0,1-2.89.87,10.79,10.79,0,0,1-4.86-.14,7.18,7.18,0,0,1-3.71-2.47A11,11,0,0,1,94,122.24a10.49,10.49,0,0,1,.22-5.16,7.8,7.8,0,0,1,2.58-3.7,10,10,0,0,1,4.52-1.94,11.51,11.51,0,0,1,3.18-.17,12.24,12.24,0,0,1,2.88.69l1.66,4.22L106,117.45Z"/><path class="cls-3" d="M102.46,130.63a10,10,0,0,1-2.77-.37,7.67,7.67,0,0,1-4-2.63,11.62,11.62,0,0,1-2.18-5.3,11,11,0,0,1,.24-5.41A8.26,8.26,0,0,1,96.52,113a10.42,10.42,0,0,1,4.75-2,12.06,12.06,0,0,1,3.31-.18,12.66,12.66,0,0,1,3,.72l.22.07,1.91,4.89-4,1.66-1.26-3.1h-.14l-1.09,0a7.09,7.09,0,0,0-1.22.1,4.25,4.25,0,0,0-3.14,2,6.44,6.44,0,0,0-.45,4.4,6.52,6.52,0,0,0,2,4,4.2,4.2,0,0,0,3.61.81,4.64,4.64,0,0,0,1.21-.39,10.11,10.11,0,0,0,1.07-.63l.19-3,4.27.22-.17,5.31-.21.15a17.77,17.77,0,0,1-2.6,1.55,11.94,11.94,0,0,1-3,.91A12.44,12.44,0,0,1,102.46,130.63Zm1.17-18.91a12.79,12.79,0,0,0-2.19.21,9.67,9.67,0,0,0-4.3,1.84,7.3,7.3,0,0,0-2.41,3.47,10,10,0,0,0-.21,4.92,10.61,10.61,0,0,0,2,4.84,6.77,6.77,0,0,0,3.46,2.3,10.4,10.4,0,0,0,4.64.13,10.82,10.82,0,0,0,2.76-.84,15.41,15.41,0,0,0,2.25-1.32l.13-3.83-2.3-.12-.16,2.49-.21.14a11.75,11.75,0,0,1-1.39.83,5,5,0,0,1-1.47.48,5.21,5.21,0,0,1-4.43-1A9,9,0,0,1,98,116.56a5.25,5.25,0,0,1,3.84-2.46,8,8,0,0,1,1.39-.12c.46,0,.84,0,1.15,0s.81,0,.91.4l1,2.39,2.14-.89-1.4-3.56a12.41,12.41,0,0,0-2.55-.59C104.21,111.74,103.93,111.72,103.63,111.72Z"/><path class="cls-3" d="M109.88,110.58l7.74-1.35.58,3.24-1.61.29.65,3.62,7-1.25-.65-3.62-1.6.29-.59-3.27,7.74-1.38.59,3.27-2.37.42,1.91,10.66,2.36-.43.58,3.28-7.68,1.37-.58-3.27,1.55-.28-.67-3.77-7,1.25.67,3.77,1.55-.28.58,3.27L113,127.78l-.58-3.27,2.36-.42-1.9-10.66-2.37.42Z"/><path class="cls-3" d="M112.55,128.36l-.76-4.25,2.36-.42L112.42,114l-2.36.42-.76-4.25,8.73-1.53.75,4.22-1.61.29.48,2.64,6-1.07-.47-2.64-1.61.29-.76-4.26,8.73-1.55.76,4.25-2.37.42,1.73,9.68,2.37-.43.75,4.26-8.66,1.55-.76-4.26,1.55-.27-.5-2.79-6,1.07.49,2.79,1.55-.28.76,4.26Zm.4-3.44.4,2.28,6.7-1.19-.41-2.29-1.55.28-.84-4.76,8-1.42.85,4.75-1.55.28.41,2.29,6.69-1.2-.4-2.28-2.37.42-2.08-11.65,2.37-.42-.41-2.28-6.76,1.2.41,2.29,1.61-.29.82,4.61-8,1.42-.83-4.61,1.61-.28-.4-2.26L110.46,111l.41,2.28,2.36-.42,2.08,11.64Z"/><path class="cls-3" d="M130.93,106.82l9.29-1.66.58,3.27-2.77.5,1.9,10.66,2.78-.5.58,3.27L134,124l-.59-3.27,2.8-.5-1.9-10.66-2.77.49Z"/><path class="cls-3" d="M133.57,124.61l-.76-4.26,2.8-.5-1.72-9.67-2.78.49-.76-4.25,10.27-1.84.76,4.26-2.77.49,1.73,9.68,2.77-.5.76,4.26Zm.4-3.45.41,2.29,8.33-1.49-.41-2.29-2.77.5-2.08-11.64,2.77-.5-.41-2.29-8.3,1.49.41,2.28,2.77-.49,2.08,11.64Z"/><path class="cls-3" d="M142,104.84l9.2-1.64.58,3.27-2.89.52,1.91,10.66,4.32-.77.51-3,3.29.53-.85,5.36-13,2.32-.58-3.27,2.6-.46-1.91-10.66-2.6.46Z"/><path class="cls-3" d="M144.67,122.62l-.76-4.25,2.6-.46-1.73-9.68-2.6.47-.76-4.26,10.18-1.82.76,4.26-2.89.51,1.73,9.68,3.48-.62.54-3.19,4.27.68-1,6.21Zm.4-3.44.41,2.28,12.15-2.17.72-4.52L156,114.4l-.49,2.91-5.16.92-2.08-11.65,2.89-.51-.41-2.29-8.21,1.47.41,2.28,2.6-.46,2.08,11.64Z"/><path class="cls-3" d="M165.83,100.59a9.6,9.6,0,0,1,7.25,1.14,8.84,8.84,0,0,1,3.63,6.14,7.94,7.94,0,0,1-1.31,6.5,9.66,9.66,0,0,1-6.26,3.38l-8.3,1.48-.58-3.27,2.36-.43-1.9-10.65-2.37.42-.58-3.27Zm2.19,14a6.35,6.35,0,0,0,4-2,4.71,4.71,0,0,0,.78-4,6.1,6.1,0,0,0-2.11-4,5.35,5.35,0,0,0-4.28-.73l-1.92.34,1.9,10.66Z"/><path class="cls-3" d="M160.44,119.81l-.76-4.26,2.36-.42-1.73-9.67-2.36.42-.76-4.26,8.55-1.52a10,10,0,0,1,7.62,1.22,9.31,9.31,0,0,1,3.84,6.46,8.42,8.42,0,0,1-1.4,6.89,10.18,10.18,0,0,1-6.58,3.57Zm.4-3.45.41,2.29,7.8-1.4a9.16,9.16,0,0,0,5.95-3.19,7.39,7.39,0,0,0,1.22-6.11,8.38,8.38,0,0,0-3.41-5.8,9.16,9.16,0,0,0-6.89-1.07l-7.57,1.35.41,2.29,2.36-.42,2.08,11.64Zm5.15-.92-2.08-11.64,2.41-.43a5.8,5.8,0,0,1,4.66.82,6.61,6.61,0,0,1,2.32,4.32,5.24,5.24,0,0,1-.89,4.36,6.81,6.81,0,0,1-4.3,2.19Zm-.92-10.83,1.72,9.67,1.15-.2a5.9,5.9,0,0,0,3.69-1.83,4.2,4.2,0,0,0,.68-3.57,5.62,5.62,0,0,0-1.92-3.69,4.9,4.9,0,0,0-3.89-.64Z"/><path class="cls-3" d="M176.81,98.63l7.74-1.36.58,3.25-1.61.28.65,3.62,7-1.24-.65-3.62-1.6.28-.59-3.27,7.74-1.38.59,3.27-2.37.42,1.91,10.66,2.36-.42.59,3.27-7.69,1.37-.58-3.27,1.55-.28-.68-3.76-7,1.24.67,3.77,1.55-.28.58,3.27-7.68,1.38-.58-3.27,2.36-.43-1.9-10.66-2.37.43Z"/><path class="cls-3" d="M179.48,116.41l-.76-4.26,2.36-.42-1.73-9.68-2.36.43-.76-4.26L185,96.7l.75,4.22-1.61.29.48,2.63,6-1.07-.47-2.63-1.61.28-.76-4.25,8.73-1.56.76,4.25-2.37.43,1.73,9.67,2.36-.42.77,4.25L191,114.34l-.76-4.25,1.55-.28-.5-2.78-6,1.07.49,2.78,1.55-.28.76,4.26Zm.4-3.45.4,2.29,6.7-1.2-.41-2.29L185,112l-.84-4.75,8-1.42.85,4.75-1.55.28.41,2.28,6.7-1.19-.41-2.29-2.37.42-2.08-11.64,2.37-.42-.41-2.29L188.89,97l.41,2.28,1.61-.28.82,4.6-8,1.42-.83-4.6,1.61-.29-.4-2.26L177.39,99l.41,2.29,2.36-.43,2.08,11.65Z"/><path class="cls-3" d="M206.36,92.68a9.55,9.55,0,0,1,4.73.26,7.68,7.68,0,0,1,3.64,2.56,12.28,12.28,0,0,1,1.81,10.1,7.64,7.64,0,0,1-2.51,3.69,10.34,10.34,0,0,1-9,1.62,7.65,7.65,0,0,1-3.64-2.59,12.26,12.26,0,0,1-1.8-10.11,7.67,7.67,0,0,1,2.51-3.66A9.47,9.47,0,0,1,206.36,92.68Zm.6,3.15A4.34,4.34,0,0,0,203.64,98a7.34,7.34,0,0,0-.39,4.75,7.51,7.51,0,0,0,2,4.35,5,5,0,0,0,7.2-1.29,9.33,9.33,0,0,0-1.61-9.1A4.37,4.37,0,0,0,207,95.83Z"/><path class="cls-3" d="M207.78,111.84a9.3,9.3,0,0,1-2.95-.46,8.11,8.11,0,0,1-3.87-2.75,12.78,12.78,0,0,1-1.89-10.57,8.2,8.2,0,0,1,2.67-3.9,10,10,0,0,1,4.53-2h0a10.09,10.09,0,0,1,5,.27,8.23,8.23,0,0,1,3.87,2.73A12.78,12.78,0,0,1,217,105.76a8.14,8.14,0,0,1-2.67,3.92,10,10,0,0,1-4.56,2A11.52,11.52,0,0,1,207.78,111.84Zm-1.33-18.66a9,9,0,0,0-4.08,1.76A7.16,7.16,0,0,0,200,98.37a10.18,10.18,0,0,0-.19,5,10.35,10.35,0,0,0,1.91,4.64,7.17,7.17,0,0,0,3.41,2.42,9.8,9.8,0,0,0,8.57-1.53,7.23,7.23,0,0,0,2.34-3.45,10.37,10.37,0,0,0,.19-5,10.16,10.16,0,0,0-1.91-4.63,7.24,7.24,0,0,0-3.4-2.4,9.2,9.2,0,0,0-4.49-.23ZM208,108.61a4.46,4.46,0,0,1-3.09-1.13,9.88,9.88,0,0,1-1.74-9.71,4.85,4.85,0,0,1,3.68-2.43h0a4.85,4.85,0,0,1,4.31,1,7.8,7.8,0,0,1,2.17,4.61,7.83,7.83,0,0,1-.45,5.09,4.82,4.82,0,0,1-3.68,2.45A6.38,6.38,0,0,1,208,108.61Zm.08-12.38a5.82,5.82,0,0,0-1.06.1h0a3.8,3.8,0,0,0-3,1.91,8.88,8.88,0,0,0,1.52,8.49,3.8,3.8,0,0,0,3.44.79,3.86,3.86,0,0,0,3-1.94,8.86,8.86,0,0,0-1.5-8.49A3.48,3.48,0,0,0,208.1,96.23Z"/><path class="cls-3" d="M225.49,89.27a9.57,9.57,0,0,1,4.73.25,7.73,7.73,0,0,1,3.64,2.56,10.7,10.7,0,0,1,2,4.86,10.85,10.85,0,0,1-.21,5.25,7.64,7.64,0,0,1-2.5,3.68,10.26,10.26,0,0,1-9,1.62,7.61,7.61,0,0,1-3.64-2.59,12.28,12.28,0,0,1-1.81-10.1,7.71,7.71,0,0,1,2.51-3.66A9.45,9.45,0,0,1,225.49,89.27Zm.59,3.15a4.36,4.36,0,0,0-3.32,2.17,7.45,7.45,0,0,0-.38,4.76,7.51,7.51,0,0,0,2,4.34,4.31,4.31,0,0,0,3.87.9,4.37,4.37,0,0,0,3.33-2.19,7.46,7.46,0,0,0,.4-4.77,7.41,7.41,0,0,0-2-4.33A4.38,4.38,0,0,0,226.08,92.42Z"/><path class="cls-3" d="M226.91,108.42A9.25,9.25,0,0,1,224,108a8.14,8.14,0,0,1-3.88-2.75,11.37,11.37,0,0,1-2.11-5.08,11.19,11.19,0,0,1,.23-5.49,8.15,8.15,0,0,1,2.67-3.89,9.78,9.78,0,0,1,4.53-2h0a10,10,0,0,1,5,.27,8.19,8.19,0,0,1,3.87,2.72,11.18,11.18,0,0,1,2.11,5.08,11.33,11.33,0,0,1-.22,5.49,8.1,8.1,0,0,1-2.67,3.92,9.92,9.92,0,0,1-4.56,2A11.61,11.61,0,0,1,226.91,108.42Zm-1.33-18.66a8.93,8.93,0,0,0-4.08,1.77A7.18,7.18,0,0,0,219.15,95a10.22,10.22,0,0,0-.19,5,10.36,10.36,0,0,0,1.91,4.63,7.13,7.13,0,0,0,3.4,2.42,9.09,9.09,0,0,0,4.46.25,8.91,8.91,0,0,0,4.11-1.78,7.08,7.08,0,0,0,2.35-3.45,11.77,11.77,0,0,0-1.72-9.64A7.25,7.25,0,0,0,230.06,90a9,9,0,0,0-4.48-.24Zm1.57,15.44a4.46,4.46,0,0,1-3.1-1.14,8,8,0,0,1-2.16-4.63,7.91,7.91,0,0,1,.43-5.07A4.88,4.88,0,0,1,226,91.92h0a4.91,4.91,0,0,1,4.32,1,9.79,9.79,0,0,1,1.72,9.71,4.9,4.9,0,0,1-3.68,2.45A7.33,7.33,0,0,1,227.15,105.2Zm-1-12.29h0a3.82,3.82,0,0,0-3,1.91,7,7,0,0,0-.34,4.44,7.1,7.1,0,0,0,1.85,4.06,3.85,3.85,0,0,0,3.45.78,3.89,3.89,0,0,0,3-1.93,8.93,8.93,0,0,0-1.51-8.5A3.89,3.89,0,0,0,226.17,92.91Z"/><path class="cls-3" d="M244.15,86.6a9.6,9.6,0,0,1,7.25,1.14A8.84,8.84,0,0,1,255,93.88a7.94,7.94,0,0,1-1.31,6.5,9.68,9.68,0,0,1-6.27,3.38l-8.29,1.48-.58-3.27,2.36-.43L239,90.89l-2.37.42L236.09,88Zm2.19,14a6.38,6.38,0,0,0,4-2,4.75,4.75,0,0,0,.78-4,6.1,6.1,0,0,0-2.11-4,5.35,5.35,0,0,0-4.28-.73l-1.93.34,1.91,10.66Z"/><path class="cls-3" d="M238.76,105.82l-.76-4.26,2.36-.42-1.73-9.67-2.36.42-.76-4.26,8.55-1.52a10,10,0,0,1,7.62,1.22,9.31,9.31,0,0,1,3.84,6.46,8.42,8.42,0,0,1-1.4,6.89,10.18,10.18,0,0,1-6.58,3.57Zm.4-3.45.4,2.29,7.81-1.4a9.16,9.16,0,0,0,5.95-3.19A7.39,7.39,0,0,0,254.54,94a8.39,8.39,0,0,0-3.42-5.8,9.12,9.12,0,0,0-6.88-1.07l-7.57,1.35.41,2.29,2.36-.42L241.52,102Zm5.14-.92-2.08-11.64,2.42-.43a5.81,5.81,0,0,1,4.66.82,6.54,6.54,0,0,1,2.31,4.32,5.21,5.21,0,0,1-.88,4.36,6.84,6.84,0,0,1-4.3,2.19Zm-.92-10.83,1.73,9.67,1.15-.2A6,6,0,0,0,250,98.26a4.2,4.2,0,0,0,.68-3.57A5.67,5.67,0,0,0,248.71,91a4.9,4.9,0,0,0-3.89-.64Z"/><path class="cls-3" d="M273.53,84.42a1.7,1.7,0,0,0-.46,0c-.3,0-.68,0-1.12,0a7.17,7.17,0,0,0-1.31.12,4.76,4.76,0,0,0-3.49,2.22,6.88,6.88,0,0,0-.51,4.73,7,7,0,0,0,2.16,4.31,4.67,4.67,0,0,0,4,.91,4.78,4.78,0,0,0,1.34-.43,11.41,11.41,0,0,0,1.33-.8l.18-2.74,3.28.17-.15,4.57a17.35,17.35,0,0,1-2.53,1.51,11.44,11.44,0,0,1-2.89.88,10.94,10.94,0,0,1-4.86-.14,7.2,7.2,0,0,1-3.71-2.47,11,11,0,0,1-2.08-5.07A10.48,10.48,0,0,1,263,87a7.76,7.76,0,0,1,2.58-3.7,9.84,9.84,0,0,1,4.52-1.94,11.17,11.17,0,0,1,3.18-.18,12.76,12.76,0,0,1,2.88.69l1.66,4.23-3.06,1.27Z"/><path class="cls-3" d="M271.16,100.49a10.36,10.36,0,0,1-2.77-.36,7.75,7.75,0,0,1-4-2.64,11.52,11.52,0,0,1-2.18-5.29,11,11,0,0,1,.24-5.41,8.29,8.29,0,0,1,2.74-3.94,10.42,10.42,0,0,1,4.74-2,11.78,11.78,0,0,1,3.32-.19,13.71,13.71,0,0,1,3,.72l.21.08,1.92,4.89-4,1.65-1.26-3.09H273a10.91,10.91,0,0,0-2.31.08,4.21,4.21,0,0,0-3.14,2,6.41,6.41,0,0,0-.45,4.39,6.47,6.47,0,0,0,2,4,4.2,4.2,0,0,0,3.61.8,4.64,4.64,0,0,0,1.21-.39,10.11,10.11,0,0,0,1.07-.63l.19-3,4.27.22-.17,5.32-.21.14a17.84,17.84,0,0,1-2.61,1.55,11.86,11.86,0,0,1-3,.92A13.4,13.4,0,0,1,271.16,100.49Zm1.17-18.9a12.79,12.79,0,0,0-2.19.21,9.4,9.4,0,0,0-4.3,1.84,7.23,7.23,0,0,0-2.41,3.46,10,10,0,0,0-.21,4.92,10.52,10.52,0,0,0,2,4.84,6.75,6.75,0,0,0,3.46,2.31,10.51,10.51,0,0,0,4.63.13,11.19,11.19,0,0,0,2.77-.84,16.37,16.37,0,0,0,2.25-1.32l.12-3.84-2.3-.12-.15,2.5-.21.14a12.34,12.34,0,0,1-1.39.83,5.76,5.76,0,0,1-1.47.48,5.22,5.22,0,0,1-4.43-1,7.44,7.44,0,0,1-2.33-4.61,7.38,7.38,0,0,1,.57-5.07A5.26,5.26,0,0,1,270.56,84a11.81,11.81,0,0,1,2.54-.09c.45,0,.81,0,.91.4l1,2.39,2.14-.89-1.39-3.55a11.79,11.79,0,0,0-2.55-.59A7.69,7.69,0,0,0,272.33,81.59Z"/><path class="cls-3" d="M280.54,97.85,280,94.58l2.9-.52,2.36-11.42-2.28.41-.59-3.27,7-1.26,7.89,13,2.57-.46.59,3.27-7.74,1.38-.59-3.27,1.43-.25-1.31-2.33-5.64,1-.43,2.64,1.6-.29.59,3.27ZM287,88.28l3.94-.7L288,82.35Z"/><path class="cls-3" d="M280.14,98.43l-.77-4.26,3.05-.54,2.15-10.37-2.05.37-.76-4.26L289.6,78l7.89,13,2.73-.49L301,94.7l-8.73,1.56L291.49,92l1.23-.22-.8-1.41-4.93.89-.27,1.59,1.41-.25.76,4.25Zm.39-3.45.41,2.29,6.79-1.22-.41-2.28-1.81.32.6-3.68,6.34-1.13,1.84,3.24-1.64.3.41,2.28,6.76-1.21-.41-2.28L297,92l-7.89-13-6.18,1.1.41,2.29,2.51-.45-2.57,12.47Zm5.86-6.08,1.34-8,4,7.07Zm1.86-5.07-.64,3.84,2.55-.46Z"/><path class="cls-3" d="M298,77l8-1.42,7.9,10.86-1.54-8.62-2.16.39-.58-3.27,8.15-1.46.58,3.27-2.69.48,2.49,13.93-4.32.78L304.27,79.2l1.91,10.69,2.45-.44.59,3.27-8.15,1.46-.59-3.27,2.43-.43L301,79.82l-2.39.42Z"/><path class="cls-3" d="M300.66,94.76l-.76-4.26,2.43-.43L300.6,80.4l-2.4.42-.76-4.25L306.19,75,313,84.36l-1.07-6-2.16.39L309,74.5l9.13-1.63.76,4.26-2.69.48,2.49,13.93-5.11.91-8.46-11.27,1.45,8.13,2.45-.44.77,4.26Zm.4-3.45.41,2.29,7.17-1.28L308.23,90l-2.46.44-2.36-13.25L314,91.36l3.52-.63L315.05,76.8l2.69-.48L317.33,74l-7.16,1.28.41,2.29,2.16-.39,2,11.25-9-12.36-7.15,1.28.41,2.28,2.4-.42,2.08,11.64Z"/><path class="cls-3" d="M331.41,74.08a2.61,2.61,0,0,0-.46,0l-1.12,0a7.17,7.17,0,0,0-1.31.12A4.74,4.74,0,0,0,325,76.34a6.89,6.89,0,0,0-.51,4.73,6.86,6.86,0,0,0,2.16,4.31,4.71,4.71,0,0,0,4,.92,5.27,5.27,0,0,0,1.34-.44,11.41,11.41,0,0,0,1.33-.8l.17-2.74,3.29.17-.15,4.57a16.5,16.5,0,0,1-2.53,1.51,11.44,11.44,0,0,1-2.89.88,10.79,10.79,0,0,1-4.86-.14,7.2,7.2,0,0,1-3.71-2.47,10.93,10.93,0,0,1-2.08-5.07,10.36,10.36,0,0,1,.22-5.16,7.76,7.76,0,0,1,2.58-3.7A9.84,9.84,0,0,1,327.93,71a11.55,11.55,0,0,1,3.18-.18,12.76,12.76,0,0,1,2.88.69l1.66,4.23L332.59,77Z"/><path class="cls-3" d="M329,90.15a10.41,10.41,0,0,1-2.77-.36,7.73,7.73,0,0,1-4-2.64,11.52,11.52,0,0,1-2.18-5.29,10.88,10.88,0,0,1,.24-5.41,8.15,8.15,0,0,1,2.74-3.93,10.43,10.43,0,0,1,4.74-2,11.39,11.39,0,0,1,3.32-.18,13.37,13.37,0,0,1,3,.71l.21.08L336.29,76l-4,1.65-1.27-3.09h-.13a10.93,10.93,0,0,0-2.31.08,4.26,4.26,0,0,0-3.15,2A6.47,6.47,0,0,0,325,81a6.52,6.52,0,0,0,2,4,4.77,4.77,0,0,0,4.82.41,10.7,10.7,0,0,0,1.08-.62l.18-3,4.27.21-.17,5.32-.2.14A17,17,0,0,1,334.36,89a11.47,11.47,0,0,1-3,.92A13.43,13.43,0,0,1,329,90.15Zm1.18-18.9a12.7,12.7,0,0,0-2.19.21,9.51,9.51,0,0,0-4.3,1.84,7.23,7.23,0,0,0-2.41,3.46,10,10,0,0,0-.21,4.92,10.52,10.52,0,0,0,2,4.84,6.7,6.7,0,0,0,3.45,2.31,10.4,10.4,0,0,0,4.64.13,10.7,10.7,0,0,0,2.76-.84,15.87,15.87,0,0,0,2.26-1.32l.12-3.84-2.3-.12-.16,2.5-.2.14a13.3,13.3,0,0,1-1.39.83,5.84,5.84,0,0,1-1.48.48,5.19,5.19,0,0,1-4.42-1A7.44,7.44,0,0,1,324,81.16a7.38,7.38,0,0,1,.57-5.07,5.22,5.22,0,0,1,3.83-2.46,11.89,11.89,0,0,1,2.54-.1c.47,0,.81,0,.91.4l1,2.39,2.14-.89-1.39-3.55a11.87,11.87,0,0,0-2.56-.59A7.39,7.39,0,0,0,330.21,71.25Z"/><path class="cls-3" d="M336.48,70.1l13.35-2.38,2.77,5.08-2.9,1.6-1.65-3-4.85.87.64,3.59L348.6,75l.58,3.24-4.76.85.68,3.83,5.64-1,.51-3,3.26.53-.85,5.36-14.13,2.53L338.94,84l2.37-.42L339.43,73l-2.36.42Z"/><path class="cls-3" d="M339.12,87.89l-.76-4.26,2.37-.42L339,73.53l-2.37.42-.76-4.25,14.2-2.54L353.28,73l-3.78,2.08L347.78,72l-4,.71.47,2.61,4.76-.85.75,4.23-4.76.85.51,2.84,4.8-.86.53-3.19,4.24.7-1,6.2Zm.4-3.45.41,2.29,13.29-2.38.72-4.52-2.28-.37-.49,2.9-6.47,1.16-.86-4.81,4.76-.85-.4-2.26-4.76.85-.82-4.58,5.69-1,1.58,2.86,2-1.12-2.37-4.32-12.5,2.23.41,2.28,2.37-.42L341.89,84Z"/><path class="cls-3" d="M356.81,84.22,356.23,81l2.34-.42-1.91-10.66-2.33.42L353.74,67l7.71-1.38a10.59,10.59,0,0,1,4.42,0,4.17,4.17,0,0,1,2.47,1.66,7.66,7.66,0,0,1,1.13,3,5.75,5.75,0,0,1-.76,4.62,6.56,6.56,0,0,1-4.31,2.25l-2.48.44.41,2.34,1.4-.25.59,3.27Zm4.56-9.94,1.4-.25a6.71,6.71,0,0,0,1.9-.58,1.76,1.76,0,0,0,.88-1,3.16,3.16,0,0,0,0-1.58,2.71,2.71,0,0,0-.65-1.48,2.05,2.05,0,0,0-1.25-.57,6.17,6.17,0,0,0-1.82.1l-1.4.25Zm6.6,8-4.35-5.43,3.28-1.22,2.68,3,3-.55.59,3.27Z"/><path class="cls-3" d="M356.41,84.8l-.76-4.25,2.34-.42-1.73-9.68-2.34.42-.76-4.25,8.2-1.47a11.11,11.11,0,0,1,4.64,0A4.65,4.65,0,0,1,368.75,67,8.17,8.17,0,0,1,370,70.12a6.23,6.23,0,0,1-.85,5,4.93,4.93,0,0,1-1,1L369.76,78l3.26-.59.76,4.26-6,1.07-4-5.06-1.22.22.24,1.35,1.4-.25.76,4.25Zm.4-3.44.41,2.28,6.52-1.16-.41-2.29-1.4.25-.59-3.32,1.66-.3-.2-.25L367.05,75l.36.41a3.73,3.73,0,0,0,.9-.87A5.31,5.31,0,0,0,369,70.3a7.07,7.07,0,0,0-1.06-2.77,3.65,3.65,0,0,0-2.18-1.46,10.11,10.11,0,0,0-4.2.07l-7.22,1.29.41,2.28,2.34-.42,2.08,11.65Zm8-3.85,3.34,4.17,4.45-.79-.41-2.29-2.82.51-2.17-2.42A9.44,9.44,0,0,1,364.83,77.51ZM361,74.86l-1.08-6.07,1.89-.34a7.19,7.19,0,0,1,2-.1,2.53,2.53,0,0,1,1.54.72,3.29,3.29,0,0,1,.8,1.74,3.66,3.66,0,0,1-.06,1.83,2.23,2.23,0,0,1-1.12,1.25,7,7,0,0,1-2,.63ZM361,69.6l.73,4.1.91-.17a6.12,6.12,0,0,0,1.75-.52,1.3,1.3,0,0,0,.65-.69,2.78,2.78,0,0,0,0-1.33,2.27,2.27,0,0,0-.52-1.22,1.56,1.56,0,0,0-.95-.43,5.88,5.88,0,0,0-1.67.1Z"/></g></g></g></svg>