<svg xmlns="http://www.w3.org/2000/svg" xmlns:xlink="http://www.w3.org/1999/xlink" viewBox="0 0 800 757.51"><defs><style>.cls-1{fill:url(#radial-gradient);}</style><radialGradient id="radial-gradient" cx="400" cy="378.75" fx="944.4373562870143" r="544.44" gradientUnits="userSpaceOnUse"><stop offset="0" stop-color="#ffcd4e"/><stop offset="0.84" stop-color="#f15e41"/></radialGradient></defs><g id="Layer_2" data-name="Layer 2"><g id="Layer_1-2" data-name="Layer 1"><path class="cls-1" d="M763.58,349.25s-1.43,5.84-17.46-4.72c0,0,9.69,12.48,16.8,14.46s3.21-7.6.66-9.74m-14.83-23.8s-.22,7.11-13.9,2.17c0,0,6.71,10.28,15.91,12.26,9.94,2.14,3.42-8.58-2-14.43M743,316.82c-10.36-14-15.54-19-19.53-45.08-3.54-23.47-54.2,0-54.2,0-24.91,6.2-34.53-.28-38.15-5.05,0-.14-1.06-.86-.49.49,13.77,30.33,43.85,14.67,43.85,14.67l5.51,5.5c-1.28-3.2-1.57-8-.66-14.71,1.15-.41,3.17-1.23,5.43-1.84,1.35,1.8,1.51,3,1.68,5.8S685,283,685,285.38a3.82,3.82,0,0,0,1.65,3.21c5.75-3.42,10.06-11.67,12.12-16.85,1.48.41,2.91.86,4.31,1.32-2.74,14.42-12.4,20.66-17.91,19.11l-.78-.26c-17.59,8-7.16,10.28-7.16,10.28,14.63,0,27.82-9.9,27.82-9.9,4.89,2.42,10,14.18,10,14.18,5.47.58,14.64,5.46,14.64,5.46,9.12,8.55,13.4,4.89,13.4,4.89M123.57,381.55c-.42-2.22-34.36,6.83-62.07,29.43,0,0-6.22,4.75-5.83,6.94.83,4.23,5.8,1.52,7.06.23,21.62-21.26,61.24-34.37,60.84-36.6M520.66,592.42l9.74,20.85,12.77,22.55-.08.25L508.69,598l-7.43,3.49L528.54,660l7.72-3.62-10-21.49-10.32-19.08-2.22-3.62.08-.19,34.7,38.71,7.18-3.38-27.23-58.51Zm-476-259.49c-3.09,5.18-5.77,9.57-8.45,14.6l0,0c-2.83,5.42-7.37,14.1-9.29,18.08,5.09.94,10.74,0,16.72-4.35.66-16.85,16.82-51.9,16.82-51.9-4.6,5.74-11.51,16.68-15.82,23.62m28,94.27s-5,4.12-4.74,6c.57,3.57,4.59,1.23,5.63.15,17.48-18.25,49.19-29.78,48.87-31.65s-27.45,6.14-49.76,25.53M289.93,147.71l23.66-10.25L278.17,55.24,254.46,65.47l.49,1.06ZM469.9,83l20.71,59.59,23.59,8,28.72-84.81L518.47,57.5l-16,47.05L481.81,45.08l-23.62-8L429.5,121.94,454,130.2ZM367.07,127.94h.08c1.75,0,3.54-.08,5.34-.25,26.51-2.43,44.71-22.08,44.68-48,0-1.72-.09-3.54-.25-5.34C414.57,49.11,392.19,33,368.55,33c-1.6,0-3.2.09-4.85.24-24.05,2.22-44.88,21.13-44.88,46,0,1.35,0,2.75.17,4.18,2.46,26.68,22.34,44.52,48.08,44.52M366,57.87a19.93,19.93,0,0,1,2.13-.13h.05c11.59,0,21.57,8.84,22.5,19.11h0c.08.86.12,1.73.12,2.59,0,12.78-8.92,22.52-20.6,23.59a16.07,16.07,0,0,1-2.09.12c-11.56,0-21.58-8.88-22.85-22.07,0-.58-.07-1.1-.07-1.64,0-10.36,8.95-20.51,20.83-21.57m164.47,93a55.07,55.07,0,0,0,20.1,26.54c6.57,4.57,14.54,7.68,22.82,7.68a26.15,26.15,0,0,0,3-.15c9.71-.94,16.77-7.48,21.79-14.71a23.55,23.55,0,0,0,4.55-13.45c0-7.23-3.74-13.85-8.71-20.05l-3.69-4.64a24.53,24.53,0,0,1-3.54-5.47,6.83,6.83,0,0,1-.62-2.72c0-2.54,1.93-3.94,4.93-4a9.52,9.52,0,0,1,5.4,1.82c4.43,3.06,7,7.6,8.46,12.8l.4,1.45,20.51-11-.49-1a60.45,60.45,0,0,0-18.91-22.33,33.33,33.33,0,0,0-18.86-6.23c-9.33,0-18.21,4.55-24.36,13.55-3.66,5.27-5.28,9.91-5.28,14.27,0,7.6,4.77,13.89,10.65,21,2.4,2.85,6.37,7.66,6.29,11.19a4.45,4.45,0,0,1-.78,2.58,6.07,6.07,0,0,1-5.22,2.77,11.6,11.6,0,0,1-6.29-2.23c-6.11-4.23-9-11.09-10.77-18.28l-.32-1.45-21.41,11.05ZM232.64,188.51l40.73-33.32-14.19-17.36-20.75,17-42.58-52-20,16.36.77.89ZM757.18,362c15.4,16.68,15.6,6,15.6,6-3.6,2.54-15.6-6-15.6-6M800,393.3c-.08-7.52-3.08-14.7-7.08-22.4-18.16-34.56-42.28-70.88-49.36-79.56-1.18-2-2.75-6.77-3.28-12.08-.7-5.75-.49-11.6-.83-15.17-.49-3.32-2.26-5.54-4.26-8.42s-4.57-5.95-7.17-9.54c-3.77-5.29-7.8-11-11-15.66s-5.68-8.26-5.83-8.63c-1.53-2.63-3.05-4.72-3.42-5.63-.09-.2-.17-.37-.24-.54a56.75,56.75,0,0,0,1.06-11.2v-.34c.09-13.68-5.37-35.59-30.41-49.81-5.87-3.41-11.14-6.53-15.86-9.49a26.31,26.31,0,0,0,7.77-18.62V126A26.62,26.62,0,0,0,662,106.86l-.86-.74A372.57,372.57,0,0,0,400.2,0h-.37A373.05,373.05,0,0,0,138.57,106.35l-.29.26a27,27,0,0,0-8.38,19.31v.25a26.6,26.6,0,0,0,4.17,14.14c-3,1.52-6.93,3.66-10.79,6.09-6.3,4-12.62,8.42-15.45,14.45-2.14,4.94-2,7.2-3.61,11.23a127.33,127.33,0,0,1-6.67,13.63c-2.55,4.69-4.86,8.65-5.83,10.85a23.82,23.82,0,0,0-1.57,9.51,68,68,0,0,0,.74,9.49c-7.94,5.71-25,21.53-25,50.27a80.07,80.07,0,0,0,.57,9.2c-9,11.31-47.88,60.24-60.1,91.27-.74,2.22-6.32,8-6.33,18.13v.21C-.14,391,1.93,398,9.19,404.72l2.46,2.18.49.37a40.9,40.9,0,0,0,4.3,2.91c8.81,5.4,27.38,18.79,36.26,39a7.19,7.19,0,0,0,.38,1A7.09,7.09,0,0,0,55,452.82a4.12,4.12,0,0,0,1.6.81,20.52,20.52,0,0,0,3,.54c3.41.4,8.55.77,8.6.77H69a6.91,6.91,0,0,0,1.72-.45c.32.37.62.71,1,1.08,4.73,4.68,13.19,9.28,27.53,9.62h0a2.15,2.15,0,0,0,.41-4.25c-.66-.2-5.8-2.71-11.63-17.59a158.26,158.26,0,0,1,36.79-14.46c4.08,2,7.85,4.28,9.86,6.71,0,0-7.77,19.76-3,41.28,0,0-9.39,6.71-13.2,16.54-.6.32-1.23.65-1.8,1-.78-1.68-1.48-3.37-2.11-5a109.47,109.47,0,0,1-4.62-15.25,2.08,2.08,0,0,0-1.78-1.67A2.1,2.1,0,0,0,106,473.6c-4.68,9.5-6.25,17.9-6.25,24.7,0,1.32.09,2.51.17,3.66a6.77,6.77,0,0,0-2.34-.45,6.43,6.43,0,0,0-1.32.16A6.62,6.62,0,0,0,91.75,505a9.76,9.76,0,0,0-.91,2.36v.1A116.35,116.35,0,0,0,89.07,527c.14,9.29,1,20.46,8.39,28.31,10.77,10.72,29.88,30.46,29.92,30.49l.22.2a23.6,23.6,0,0,0,7.43,4.4,26.2,26.2,0,0,0-4.65,14.9v.23a26.65,26.65,0,0,0,8.1,19.12l.86.77A372.64,372.64,0,0,0,359.06,729.23a43.79,43.79,0,0,0,81.87.08,373,373,0,0,0,221-104.18l.2-.2a42.36,42.36,0,0,0,4.15-5.83c2.06-3.47,4.28-8.07,4.31-13.33a2.08,2.08,0,0,0,0-.29,27.39,27.39,0,0,0-4.36-14.57A21.83,21.83,0,0,0,676.91,584a16.74,16.74,0,0,0,1.72-2.8c1.89-3.71,4.77-10.4,7.89-17s6.42-13.11,8.34-15.35c2-2.85,10.53-8.73,10.77-18.73a6.64,6.64,0,0,0,0-.94,29.18,29.18,0,0,0-3.11-10.31,30.91,30.91,0,0,0-1.86-3.49c-.12-.25-.25-.46-.37-.66a35.62,35.62,0,0,0,2.71-14,49.26,49.26,0,0,0-5.46-21.79,2.08,2.08,0,0,0-2.19-1.13,2.06,2.06,0,0,0-1.8,1.64,92.37,92.37,0,0,1-4,13.36,71.41,71.41,0,0,1-4.28,9.32c-28-20.43-23.83-58-23.83-58,14.38-5.76,29.68-4.85,41.85-2.31.94.74,1.92,1.43,2.91,2.14a16.46,16.46,0,0,0,1.52,1.06,63.21,63.21,0,0,1-7.89,13.08,27.81,27.81,0,0,1-4.61,4.45c-.53.35-.9.61-1.15.74a1,1,0,0,1-.29.1,2.12,2.12,0,0,0,.78,4.11h.17c14.59-1.23,24.5-5.08,31.16-9.47a13.64,13.64,0,0,0,2.83.39,13.93,13.93,0,0,0,1.94.09h.23a21.11,21.11,0,0,0,16.08-7.4c14.46-16.28,37-31.52,46.81-42A22.94,22.94,0,0,0,800,393.42v-.12ZM148.34,117.49l.57-.52A358.14,358.14,0,0,1,399.83,14.83h.37A358,358,0,0,1,651.09,117l.63.52a12.06,12.06,0,0,1,3.57,8.51,11.74,11.74,0,0,1-3.54,8.46l-6.69,6.63a7.2,7.2,0,0,0-2,5.22,7.36,7.36,0,0,0,.17,1.64l0,0a43,43,0,0,1,1.23,10.28,43.66,43.66,0,0,1-52.9,42.57h-.11l-.29-.08a6.25,6.25,0,0,0-1.77-.24,7.26,7.26,0,0,0-5.22,2.21l-.09,0-5.95,6a11.64,11.64,0,0,1-17.22,0A228.67,228.67,0,0,0,478,155.8a224.66,224.66,0,0,0-155.89,0,227.47,227.47,0,0,0-83,52.93,11.64,11.64,0,0,1-17.22,0l-6-6-.12-.14a7.15,7.15,0,0,0-5.18-2.12,6.15,6.15,0,0,0-1.77.24l-.33.08h-.09a43.58,43.58,0,0,1-51.67-52.85v0a7.36,7.36,0,0,0,.15-1.64,7.07,7.07,0,0,0-2-5.22l-6.7-6.63a11.73,11.73,0,0,1-3.53-8.46,11.89,11.89,0,0,1,3.61-8.51M599.93,228.26s.49,19.15,14,26.71c-5-.13-22.88,2.72-14-26.71m7.48,137.67a207.4,207.4,0,1,1-60.75-146.68,206.66,206.66,0,0,1,60.75,146.68M92.53,460.37c-9.29-1.28-14.67-4.65-17.92-7.8-.28-.34-.25-.34-.54-.66l1.2-.83c0-.05,2.14-1.55,6.17-4,.86-.52,1.82-1.11,2.88-1.69,2.91,7.42,5.78,12.09,8.21,15m14.79,20.68c2.06,7.34,6.37,19.85,13.69,28.85a20.73,20.73,0,0,1-9.61,2.63,14.74,14.74,0,0,1-5.05-.91A37,37,0,0,1,104,498.3a49,49,0,0,1,3.37-17.25m28,44.34a11.87,11.87,0,0,0-.62,6.57s-10.77-1.77-13.15-6a128.64,128.64,0,0,0,2.38,18s-14.36-15.56-16.15-20.34c0,0,1.18,19.73,7.17,30.5,0,0-14-10.25-12.93-38.31a21.23,21.23,0,0,0,4.79,1.86h0A20.5,20.5,0,0,0,109,518c.12,0,.24,0,.37,0a16.23,16.23,0,0,0,2.06.12,27.21,27.21,0,0,0,12.94-3.64,33.62,33.62,0,0,0,3.37.18c6.21.06,10.4-2.62,12.69-5.29a17.6,17.6,0,0,0,2-3,35.12,35.12,0,0,0,6.44.57,28.12,28.12,0,0,0,19.62-7.52,29,29,0,0,0,5.17-6.37c16-3.77,19.95-16.93,20-17.3l.12-.44v-.51c-2.45-36.11-18.46-51.77-18.83-52.1l-.57-.58-.77-.17a99.52,99.52,0,0,0-21.34-2.3c-1.65,0-3.29.06-4.94.13-.38,0-.77.05-1.19.05-1.6.12-3.21.19-4.76.35h-.05l-4.72.58c-.42.08-.8.13-1.19.17-1.52.25-3,.48-4.52.79h-.08c-1.52.28-3.05.62-4.52.94l-1.14.24c-1.45.37-2.89.71-4.29,1.08,0,0,0,0-.08,0-1.45.39-2.83.78-4.23,1.2-.37.11-.71.2-1.08.32-1.35.42-2.66.84-4,1.28-.06,0-.07,0-.09,0-1.36.46-2.68.91-3.94,1.42l-1,.35c-1.23.46-2.46,1-3.65,1.43h-.07c-1.21.51-2.39,1-3.59,1.54-.29.11-.57.23-.86.37-1.11.49-2.22,1-3.29,1.43,0,0,0,0-.06,0-1.1.54-2.16,1-3.19,1.54l-.76.37-2.78,1.4a.22.22,0,0,1-.15.08c-.91.49-1.8.94-2.65,1.43l-.72.37c-.74.41-1.48.83-2.14,1.18l-.25.14c-4.64,2.63-7.89,4.82-9.41,5.8l-11.71-1.45c-.62-1.32-1.28-2.55-1.94-3.83-.11-.24-.25-.44-.38-.69-.64-1.2-1.34-2.38-2-3.49-.12-.2-.26-.42-.37-.62-.7-1.11-1.42-2.23-2.14-3.27a1.4,1.4,0,0,1-.16-.22c-.77-1.11-1.56-2.17-2.37-3.24-.14-.18-.27-.38-.42-.54-.8-1.07-1.6-2.05-2.43-3.05-.12-.11-.2-.23-.29-.32-.82-1-1.68-1.93-2.51-2.88a.46.46,0,0,1-.17-.17c-.86-.92-1.77-1.85-2.63-2.74L43,419c-.86-.88-1.77-1.77-2.66-2.6l4.55-1.67c6-19.76,26.36-20.35,26.36-20.35a48.59,48.59,0,0,1,3.6-26.95L64.05,377c-26.61,2.23-41.8,11.14-50.22,19a20.34,20.34,0,0,1-3.59-7.13,5.44,5.44,0,0,1-.15-.54c-.06-.28-.12-.62-.17-.91s-.07-.52-.12-.81-.05-.42-.09-.65c0-.51-.08-1-.08-1.49a21.11,21.11,0,0,1,2.56-9.62A27.78,27.78,0,0,1,13.94,372c.46-.66.75-.91.71-.91l.37-.41.17-.48c6.09-15.91,21.27-39,34.89-57.79s25.68-33.59,25.73-33.62l.77-.94-.18-1.28a70.59,70.59,0,0,1-.88-10.72c0-15.88,6-26.88,12.09-34.08a50.94,50.94,0,0,1,8.25-7.88c1.15-.88,2.06-1.49,2.72-1.91l.89-.52,1.63-.86-1.28-17.14c9.39-16.41,16.84-36.33,18.56-41.15,1.65-.81,3.18-1.69,4.68-2.55.51-.23,1-.52,1.45-.77,1-.58,2-1.15,2.92-1.74.54-.32,1-.61,1.51-.94.86-.52,1.69-1.06,2.51-1.6.46-.29.92-.58,1.35-.9.83-.54,1.6-1,2.35-1.56.37-.26.79-.54,1.16-.78.77-.59,1.52-1.08,2.26-1.62.27-.2.55-.4.81-.57,1.83-1.35,3.45-2.54,4.82-3.57l1.66,1.68a54.31,54.31,0,0,0-1.07,10.82s0,.07,0,.12a179.06,179.06,0,0,1-20.29,8.88l-11.39,22.43s14.34-1.2,18.54,19.16c0,0,8.83-12.42,22.82-19.61.6.87,1.26,1.73,1.92,2.59-6.14,4.35-12.46,10.85-15.17,20l5.39,2.38a93.41,93.41,0,0,1,20.54-12,56,56,0,0,0,6.56,4.11c-6.81,3.74-14.24,8.51-16.9,12.66l3.57,3.62s16.16-9,19.14,8.38S164,251.27,158.62,251.27c0,0,.57,6.57,7.16,13.16,0,0-14.36,11.37-34.7,0s-27.33-10-44.69-5.85c0,0-6.35,9-2.58,19.7-3.89,3.81-6,3.41-10.24,15.08-1.75,7.55-9.54,13-9.54,13s21,1.77,38.32-17.37c0,0,13.16,14.37,32.93-10.17,0,0,15.52,13.77,40.68-1.8a44.93,44.93,0,0,1-32.91,12.57s10.18,9.57,13.77,19.16c0,0-7.77-7.19-26.36-9,0,0,2.39,13.77,10.77,22.15,0,0-10.77-9-30.52-5.38,0,0,17.37,25.15,43.71,27.54,0,0-10.19,3.6-15,9,0,0,10.16,6.57,25.73,1.18,0,0-16.14,9-23.34,12,0,0,10.77,3.57,34.11-3.57,0,1.11,0,2.22,0,3.32,0,.94,0,1.85,0,2.8a40,40,0,0,1-4.19,15.42s-10.77-9.59-21.54-12c0,0,12.59,17.34,5.39,37.11,0,0,4.48,6.94,22.14,6.15,1.4,0,2.6,0,3.66,0a222.87,222.87,0,0,0,26.19,65.47,64.58,64.58,0,0,1-9.5,2.63l10.76,6s-17.34,6-25.14,7.18a61.18,61.18,0,0,0,7.8,6.59s-20.94,9.57-29.34,9c0,0,4.79,4.77,7.2,5.38,0,0-13.77,3.59-18,1.19l-1.19,9.59s-12,1.18-14.95-3m18.12-88c1.83-1.94,6.45-2.22,8.39-.71,4.6,3.59,1.18,6.84-2.48,13.65-5.86,11.09,2,18.71-3.74,29.8s-12.86,14.22-15.42,12.25c-3.84-2.92,1.82-9.05,3.71-13.92,4.08-10.53-5-25.65,9.54-41.07M118.29,271.49l.69-.25c1.18.42,2.25.82,2.94,1.08,1.6,12.16-.66,18-5.83,19.51-5.51,1.57-15.17-4.68-17.88-19.11,1.23-.46,2.54-.81,3.91-1.23,1.75,5.59,5.72,14.48,11.17,17.54a2.13,2.13,0,0,0,1-2c-.31-4.23-1.5-13.28,4-15.54m535.4,340.94c-.46.57-1.48,1.82-1.85,2.31C592.78,675.89,512.18,709.63,429.34,716a29.4,29.4,0,0,1-58.65,0c-82.86-6.32-163.45-40.06-222.48-101.21-.36-.49-1.39-1.74-1.87-2.31-1.57-2-2-4.06-2-6.78,0-4.14,3.07-7.46,5.35-9.82s5.2-5.26,5.2-5.26a9.42,9.42,0,0,0,1.6-2.8,6.41,6.41,0,0,0,.05-3.25,42.52,42.52,0,0,1-1.43-10.72,43,43,0,0,1,43-43.11,40.65,40.65,0,0,1,10.7,1.32,6.48,6.48,0,0,0,3.2,0,4.93,4.93,0,0,0,3.4-2.06c.58-.57,3.66-4,6.42-6.54s5.43-4.56,9.29-4.56c4.31,0,7.4,2.42,10.23,5.64A206,206,0,0,0,312,572.07a224.89,224.89,0,0,0,175.87,0,206.07,206.07,0,0,0,70.8-47.63c2.85-3.22,5.93-5.64,10.25-5.64,3.85,0,5.94,1.65,9.28,4.56a68.21,68.21,0,0,1,6.4,6.54A4.76,4.76,0,0,0,588,532a7.91,7.91,0,0,0,3.23,0,40.06,40.06,0,0,1,10.65-1.32,43,43,0,0,1,43,43.11,41.62,41.62,0,0,1-1.4,10.72,6,6,0,0,0,0,3.25,9.66,9.66,0,0,0,1.6,2.8s3.21,3.12,5.23,5.26,5.34,5.68,5.34,9.82c0,2.72-.4,4.77-2,6.78m42.42-126a41.64,41.64,0,0,1,2.62,14.31,32.8,32.8,0,0,1-1.85,11.06c-.12.28-.2.52-.34.82l-1.92.57a31.14,31.14,0,0,1-7.36,1.07,22,22,0,0,1-5.09-.75c7.48-7.71,11.83-19.8,13.94-27.08m-9.34,33.47a43.31,43.31,0,0,0,7.36-.62,57.81,57.81,0,0,1,2.84,6.37c1.63,6.94-1.37,7.51-3.06,8.21-17.54,7.07-18.11,30-28.34,25.73-12.17-5.06,2.54-38.63,2.54-38.63S644.32,529.8,639.3,526s4.23-14.36,4.23-14.36-20.66,5.19-24.86,2.28,3.08-13.57,3.08-13.57-14.14,6.74-20.42,3.37,5.91-15.22,5.91-15.22-13.48,5.65-17.67,2.28c-1-.79-1.23-2.11-1.07-3.66a217.68,217.68,0,0,0,15.21-27.77v.15c-.16.86-.33,1.77-.44,2.66a62.08,62.08,0,0,0-.74,9.14c0,5.57.89,11,4.34,14.93,5,5.58,17.85,13.58,33.13,20.69s32.71,12.91,46.77,13m-22.4-16.24c-.45.42-15.74-3.58-24.33-19.32s4.31-17.83-5.66-25-11.8-16.58-3.59-19.33c4.28-1.4,7.85-.71,15,3.59s5.71,11.41,6.41,32.17,12.57,27.45,12.16,27.86m37.28-41.31a59,59,0,0,0,9.54-14.91,48.72,48.72,0,0,0,13.48,6.28c-5,3.49-12.25,6.83-23,8.63m88.64-67.61,0,0a13,13,0,0,1-.17,1.31l-6.86-5.54-3.66,3.66c-17.05-14.63-31.07-11-31.07-11l-17.06,11c23.11,1.4,28.37,17.71,28.77,31.06l-.08.08c-1.69,1.4-3.37,2.88-5.06,4.36-.17.16-.37.29-.52.44-1.57,1.4-3.14,2.82-4.65,4.25-.12.12-.29.24-.41.37-1.56,1.48-3,2.92-4.53,4.4-.32.32-.66.66-.94,1-1.49,1.48-2.95,3-4.32,4.56a11.63,11.63,0,0,1-9.08,4.2c-5,0-11.17-2.88-17.14-6.69-1.35-.93-2.75-1.85-4.06-2.81-7.23-5.13-13.2-10.6-17.76-12.54-4.92-1.92-17.38-5-32.43-5-.94,0-1.93,0-2.88,0-.44,0-.89.05-1.4.05s-1,0-1.46.07l-1.91.13c-.32,0-.65,0-1,.07-.74.05-1.48.14-2.22.22-.21.05-.46.05-.71.09-.81.08-1.64.2-2.46.32a3,3,0,0,0-.41.08c-.91.12-1.85.29-2.76.45h-.17a69.06,69.06,0,0,0-28.77,12.12c1-3.12,2-6.28,2.85-9.45,12.37-6.07,32.6-12.37,60.49-9.25,0,0-17.29-5.5-43.43-3.9l-4.49-5.34a64.84,64.84,0,0,0-9.57,6.32c.53-2.34,1-4.68,1.44-7.06A53.42,53.42,0,0,1,634,400.91L638.84,385c-1.46-.12-7.09-2.86-15.08-7.15.17-2.83.25-5.67.29-8.51,11.07,4.86,20.27,9,23.93,10.82,0,0-3.66-11.59,17-14,0,0-19.11-3.25-41-7.6-.05-1.6-.14-3.25-.22-4.85,27.5,3.37,54.84,2.22,71.76-10.11a126.21,126.21,0,0,1-31.11,1.85,67.58,67.58,0,0,0,28.65-20.14s-14.6,7.32-36.54,5.51c0,0,21.94-11,28.6-20.71,0,0-26.17,10.35-44.46,10.35,0,0,17.09-6.69,24.37-14l-22.36,1.84,6.05-9.12s-29.39-8.59-35.48-33l10.81,1.32s-8.95-32.8,10.39-42.22c-2.46-2.46-19.8-7.43-19.8-7.43s20.11-1.32,29.26,2.34a21.45,21.45,0,0,0-6.15-6.49,47.25,47.25,0,0,0-10.49-5.39s22.57-1.23,29.26,5.48c0,0-6.69-12.17-12.2-16.45,0,0,13.43,4.28,21.33,13.4l5.5-.61s-1.23-12.79-7.32-23.15c0,0,12.17,9.13,17.68,23.76,0,0,4.35,6.08,16.11,4.85l-.25.78.37.91a86.37,86.37,0,0,0,4.6,9.48c2.71,4.74,6.25,10.12,10.94,13.25a73.4,73.4,0,0,0,4.28,9.61c2.78,5.17,6.69,11.05,12.28,14.56v.32a137.59,137.59,0,0,0,.86,15.77c.83,6.45,2,12.88,5.31,17,5.75,6.89,30.57,44,48.37,78.07,3.77,7.2,6,13.25,6,17.95a12.92,12.92,0,0,1-.05,1.4M400,177.13c-104.27,0-188.81,84.53-188.81,188.8S295.76,554.69,400,554.69s188.76-84.5,188.76-188.76S504.26,177.13,400,177.13M509,477.46H322.73V452.74H331a16.5,16.5,0,0,0,16.36-16.65l-.17-159.92a16.51,16.51,0,0,0-16.51-16.51h-7.82V241H430.94v18.88h-8.63a16.69,16.69,0,0,0-16.58,16.68l-.09,170.92h54c7.31,0,14-7.12,13.36-14.6-.2-2.26-.45-5.63-.45-8a37.17,37.17,0,0,1,20.59-33L505.32,404a31.75,31.75,0,0,0,3.66,49.8ZM68.33,418.81S62.7,423.34,63,425.4c.71,4,5.15,1.35,6.33.15,19.57-20.17,55.16-32.91,54.79-35s-30.8,6.75-55.81,28.23M605.56,603.93,568.85,560.2l-6.57,5.5,41.51,49.46,17.56-14.77-4.77-5.71ZM396.41,621.34l-12.9,64.8,8.38-.19,2.17-12.62,12.83-.2,2.63,12.54,8.63-.15-15-64.3Zm9.08,45.15-10.26.15,4.55-32.84.18,0,3.66,23.44Zm35.84-48.38-28.11,3.48.9,7.37,10-1.23,7,56.67,8.5-1-7-56.67,9.59-1.2ZM400,695.24a18,18,0,1,0,18,18,18,18,0,0,0-18-18m0,32.19a14.19,14.19,0,1,1,14.19-14.18A14.21,14.21,0,0,1,400,727.43m78.63-118.9c-15.82,5.13-9.31,25.6-5.71,36.69s10.4,31.45,26.19,26.31,9.32-25.6,5.71-36.69-10.39-31.45-26.19-26.31m18,55.36c-6.4,2.09-10.8-8.47-15.05-21.5s-6.86-24.12-.44-26.22,10.84,8.48,15.08,21.5,6.86,24.13.41,26.22M106.09,322.16c-1.68,33.83,26.53,22.57,26.53,22.57-17.9-6-26.53-22.57-26.53-22.57M542.35,579.73l23.39,61.77,7-4.57-4.85-11.86,10.77-7,8.88,9.25,7.23-4.69L548,576ZM552,588.4l15.49,17.86,6.53,6.93-8.62,5.57-13.57-30.3ZM447.62,617l12.29,63.38,8.42-1.65L456,615.43Zm-43.73,96.54a5.4,5.4,0,0,0,3.47-5.34c0-3.74-2.85-6.28-7.62-6.32a13,13,0,0,0-5.71,1.23l-.34.12v19.89h4v-8.43h1.1a2.46,2.46,0,0,1,2.48,1.7l3.23,6.73h4.4l-3.74-7.69a9.32,9.32,0,0,0-1.23-1.89m-4.59-2.29h-1.65v-5.59a9.51,9.51,0,0,1,2.09-.2c2.8,0,3.63,1.07,3.66,2.83,0,2.19-1.15,2.84-4.1,3m275.76-337c-.29,1.4,7.43,3.12,17.25,9.17,9.51,5.86,20.93,15.89,33.71,27,1.14.82-.17,2.59-.49,2.32-33.82-26.27-67.07-30.16-66.7-25.82.15,1.77,7.68,1.81,17.14,5.31a217,217,0,0,1,46.43,24.86c.94.61-.16,1.63-.73,1.52-39.13-13.81-74.55-21.78-74.12-17,.17,2,11.28,2.2,24.91,6,18.88,5.31,43.57,14.76,59.93,21,.49-.15,2.71.61,7.48-3.43,3.78-3.56,3.24-5.35,3.24-5.35-36.83-40-67.14-50.27-68.05-45.58M223.77,554l-43.16,47.94,6.32,5.71,43.19-48Zm30.34,23.66-13.22,18.85-13.14,22.37-.24,0,15.81-48.82-6.74-4.74-37,52.9,7,4.91,13.6-19.42,11.34-18.48,2-3.74.21,0-16.17,49.41,6.5,4.56,37-52.9ZM142.71,392.35c-5-15.77-16.85-19.8-16.85-19.8,13.2,25.1,3.74,42.13,3.74,42.13s14,1.64,22.68-5.61c6.86-20.95-8.91-38.69-8.91-38.69,2.07,9.6-.66,22-.66,22M369.22,642.93l-1.58,25.88-.17.14-8.09-50.64-8.14-1.15-9,63.91,8.48,1.19L354,658.79l1.72-21.66.08-4.18.22-.18,8,51.33,7.89,1.11,9-63.9-8.51-1.2Zm-40.75-31.4-9.9-2.63-16.72,62.34,8.26,2.23,8.17-30.54.17,0,3.08,33.54,8.6,2.31-3.37-33.4c7.21.55,11.34-7.89,12.89-13.74,4.19-15.67-5.13-18.48-11.18-20.14m1.94,19.6c-1.68,6.29-4.88,9.68-11,7.6l5.5-20.59,1.31.34c6.34,1.51,5.76,6.69,4.16,12.65m-31,8.31,2.78-6.91-11.95-4.83,7.58-18.85,13.42,5.43,2.8-6.91-21.37-8.61L268.48,658.6l21.35,8.61,2.77-6.91-13.4-5.42,8.22-20.29Zm-14.11-35.56,3.49-6.57-25-13.28-3.48,6.57,8.91,4.74-26.79,50.42,7.56,4,26.8-50.42Z"/></g></g></svg>