<?xml version="1.0" encoding="UTF-8"?><svg id="Layer_2" xmlns="http://www.w3.org/2000/svg" viewBox="0 0 422.21 72"><defs><style>.cls-1{fill:#fff;}.cls-2{fill:#000;}</style></defs><g id="Layer_1-2"><g><rect class="cls-2" width="422.21" height="72"/><path class="cls-1" d="m17.79,33.53c.73.82,2.99,2.57,3.02,3.13s.06,1.26.59,1.24,2.15.6,3.09.73,4.85.44,5.94.29-1.49,1.2-2.37,1.2-1.06.64-1.21,1.07-1.88,1.04-2.91,1.21-1.46.67-1.06.91.13,1.07.32,1.62-1.75,1.53-2.59,1.66-.35.88.16.78,1.71,1,2.48,1.53c.77.53,2.86.14,3.9.4s.44.88.76,1.1,4.74-2.37,5.29-2.63.14.51.54.73,1.55-.95,2.95-1.82,1.31.66.8,1.68-3.3,5.79-2.88,6.05,1.35,1.02.95,1.75-.33.98,0,1.02c1.66-.12,3.3-.35,4.93-.67,1.31-.29,2.92-3.23,3.39-1.38s2.91-3.48,3.39-4.23.53-1.17.84-1.67,1.24.36,1.21.73c.02.48.43.86.91.84h.03c.62,0,1.15.51,2.01,1.42s.96-.91,1.02-1.71.73-.88,1.38-1.6.67-2.3.65-2.84,1.17-.09,1.82,0-.51-1.9-.84-2.22-1.21-3.16-1.06-4.27,2.06-1.28,2.84-1.31.88-.14,1.2-.66-.58-.58-.99-.62-.76-.66-1.17-1.42-8.13-2.6-8.53-2.88v-.24c1.22-.93,2.49-1.77,3.83-2.52.44-.24,7.4-4.38,8.06-4.97s1.92-2.7,1.92-3.73-.44-.52-.44-.2-1,2.02-1.96,3.12-6.04,4.42-7.27,4.93c-.98.44-3.04,1.78-4.09,2.4.04-.64.11-1.38.18-1.84.16-.94-1.52-3.67-2.13-4.55s-2.45-3.94-2.7-4.77-.72.03-1.18.66-.16,3.58-1.59,4.07-5.78-4.82-6.26-5.02-.04.69-.41,1.31-2.7.09-4.03-.05-3.85-1.05-4.77-1.24.11,1.27.35,1.65c.33.73.53,1.52.58,2.33.04.76.95,1.31,1.83,2.05.78.58.99,1.67.46,2.49-.44.85-3.36,1.02-4.5,1.06s-2.25,1.06-2.4,1.55.88.14,1.67.17,1,0,.98.49-7.45.14-7.45.14c-2.1-.04-.28.74.45,1.57l.07-.02Z"/><g><path class="cls-1" d="m103.65,35.21h-6.15c-.02-.36-.16-.7-.4-.98-.24-.28-.55-.5-.9-.64-.87-.33-1.84-.29-2.69.09-.37.14-.61.5-.6.89,0,.29.13.57.36.76.25.23.72.42,1.43.54l3.77.68c1.9.35,3.32.93,4.25,1.75s1.4,1.91,1.41,3.28c.02,1.25-.4,2.46-1.17,3.44-.84,1.02-1.94,1.8-3.18,2.25-1.47.55-3.02.82-4.59.79-2.84,0-5.06-.58-6.66-1.74-1.54-1.05-2.52-2.74-2.68-4.6h6.63c.07.56.39,1.06.87,1.36.57.33,1.22.5,1.88.47.52.02,1.04-.09,1.52-.31.36-.15.6-.5.61-.9,0-.36-.21-.68-.53-.85-.5-.26-1.04-.43-1.6-.51l-3.28-.58c-1.9-.33-3.32-.96-4.26-1.89s-1.41-2.12-1.41-3.58c-.04-1.18.32-2.34,1.02-3.28.77-.95,1.8-1.66,2.96-2.04,1.47-.5,3.02-.74,4.58-.7,2.69,0,4.81.56,6.36,1.67s2.37,2.65,2.45,4.61v.02Z"/><path class="cls-1" d="m118.74,39.62v-10.45h6.68v18.57h-6.33v-3.53h-.19c-.37,1.14-1.11,2.12-2.11,2.78-2.14,1.29-4.82,1.33-7,.1-.97-.6-1.75-1.45-2.26-2.47-.55-1.12-.83-2.36-.82-3.6v-11.85h6.68v10.45c0,.92.24,1.64.7,2.16.47.53,1.11.79,1.95.79.51,0,1.01-.11,1.45-.36.41-.24.73-.59.94-1.02.23-.49.34-1.03.32-1.58h0Z"/><path class="cls-1" d="m137.75,55.1c-1.86,0-3.46-.26-4.78-.79-1.2-.44-2.27-1.19-3.08-2.18-.73-.91-1.16-2.01-1.24-3.17h6.43c.05.36.22.7.48.95.28.26.63.44,1,.53.45.11.91.17,1.37.16.77.03,1.52-.19,2.15-.63.57-.42.85-1.18.85-2.27v-3.15h-.19c-.23.62-.62,1.17-1.11,1.6-.53.45-1.14.8-1.8,1-1.98.61-4.13.4-5.96-.57-1.11-.61-2-1.58-2.66-2.91-.66-1.33-1-3.07-1-5.21s.35-4.06,1.05-5.47c.7-1.4,1.6-2.43,2.72-3.08,1.06-.64,2.27-.98,3.5-.98.83-.02,1.66.14,2.42.47.66.3,1.26.73,1.74,1.27.46.51.82,1.1,1.06,1.74h.14v-3.23h6.68v18.52c0,1.56-.4,2.9-1.21,4.01-.87,1.15-2.06,2.02-3.42,2.52-1.64.61-3.39.91-5.14.87h0Zm.23-12.34c.57,0,1.13-.17,1.58-.51.47-.39.82-.9,1.02-1.47.26-.74.38-1.53.36-2.32.02-.8-.1-1.6-.36-2.37-.19-.59-.54-1.11-1.02-1.51-.45-.35-1.01-.54-1.58-.53-.57-.02-1.12.17-1.57.53-.46.4-.8.93-.97,1.51-.25.76-.36,1.56-.34,2.37-.02.8.1,1.59.34,2.34.18.57.53,1.08.99,1.46.45.34,1,.51,1.55.5h0Z"/><path class="cls-1" d="m156.08,48.03c-1.07.02-2.14-.18-3.14-.59-.88-.36-1.62-.99-2.14-1.78-.52-.8-.77-1.81-.77-3.05-.02-.9.15-1.79.52-2.6.33-.7.83-1.31,1.45-1.77.66-.48,1.39-.83,2.17-1.05.87-.25,1.77-.41,2.68-.47.84-.06,1.68-.16,2.51-.3.49-.06.96-.23,1.38-.5.27-.2.43-.52.42-.85v-.05c.02-.44-.19-.86-.56-1.11-.42-.27-.92-.41-1.43-.39-.55-.02-1.09.12-1.55.42-.41.3-.68.77-.72,1.28h-6.14c.08-1.12.45-2.2,1.08-3.13.71-1.01,1.68-1.81,2.81-2.3,1.23-.58,2.78-.87,4.62-.87,1.21-.01,2.42.14,3.58.47.97.27,1.88.71,2.7,1.29.7.51,1.29,1.17,1.7,1.93.39.74.59,1.56.59,2.4v12.72h-6.24v-2.61h-.15c-.33.65-.79,1.22-1.35,1.68-.53.43-1.14.75-1.8.94-.72.2-1.47.29-2.23.28h.01Zm2.18-4.21c.49,0,.98-.11,1.43-.31.44-.2.82-.51,1.09-.91.29-.42.44-.93.42-1.44v-1.55c-.18.07-.36.14-.56.21s-.41.12-.63.18-.45.11-.7.16-.5.09-.77.13c-.44.06-.87.19-1.26.39-.3.15-.55.38-.72.66-.16.27-.24.57-.23.88-.02.46.18.9.54,1.19.41.29.9.44,1.4.42h0Z"/><path class="cls-1" d="m171.04,47.74v-18.57h6.48v3.53h.19c.34-1.31.88-2.26,1.62-2.87.73-.6,1.65-.92,2.59-.91.29,0,.58.02.87.07.28.04.56.11.83.19v5.7c-.4-.13-.81-.21-1.22-.25-.41-.05-.83-.08-1.25-.08-.61-.01-1.22.14-1.76.44-.52.29-.94.72-1.23,1.23-.31.57-.46,1.21-.45,1.86v9.67h-6.68,0Z"/><path class="cls-1" d="m185.79,47.74v-18.57h6.33v3.53h.19c.35-1.11,1.05-2.08,1.99-2.76,2.03-1.36,4.69-1.36,6.71.02.91.65,1.53,1.63,1.7,2.74h.19c.31-1.13,1.02-2.11,2.01-2.74,1.07-.7,2.33-1.06,3.6-1.03,1.78,0,3.23.57,4.34,1.72s1.66,2.67,1.66,4.57v12.53h-6.68v-10.83c0-.82-.21-1.45-.62-1.92-.42-.47-1.03-.73-1.66-.7-.62-.03-1.22.23-1.63.7-.4.47-.6,1.1-.6,1.92v10.83h-6.38v-10.83c0-.82-.21-1.45-.62-1.92-.42-.47-1.03-.73-1.66-.7-.41,0-.82.1-1.17.32-.34.22-.61.53-.77.9-.19.44-.29.92-.27,1.41v10.83h-6.69l.03-.02Z"/><path class="cls-1" d="m222.99,48.03c-1.08.02-2.14-.18-3.14-.59-.88-.37-1.62-.99-2.13-1.78-.52-.8-.77-1.81-.77-3.05-.02-.9.15-1.79.52-2.6.33-.7.83-1.31,1.46-1.77.65-.48,1.39-.83,2.17-1.05.87-.25,1.77-.41,2.68-.47.84-.06,1.68-.15,2.51-.3.49-.07.96-.24,1.37-.5.27-.2.43-.52.42-.85v-.05c.02-.44-.19-.86-.56-1.11-.42-.27-.92-.41-1.43-.39-.55-.02-1.09.12-1.55.42-.41.3-.68.77-.72,1.28h-6.14c.08-1.12.45-2.2,1.08-3.13.71-1.01,1.68-1.81,2.81-2.3,1.23-.58,2.77-.87,4.62-.87,1.21-.01,2.42.14,3.58.47.97.27,1.88.71,2.7,1.29.71.51,1.29,1.17,1.7,1.93.39.74.59,1.56.59,2.4v12.72h-6.24v-2.61h-.15c-.33.65-.79,1.22-1.35,1.68-.53.43-1.14.75-1.8.94-.72.2-1.47.29-2.22.28h0Zm2.18-4.21c.49,0,.98-.1,1.43-.31.44-.2.82-.51,1.09-.91.29-.42.44-.93.42-1.44v-1.55c-.18.07-.37.14-.56.21s-.41.12-.63.18-.46.11-.7.16-.5.09-.77.13c-.44.06-.87.19-1.26.39-.3.15-.55.38-.73.66-.16.27-.24.57-.23.88-.02.46.18.9.54,1.19.4.29.89.44,1.39.42h.01Z"/><path class="cls-1" d="m237.94,54.71v-25.54h6.63v3.23h.15c.25-.64.61-1.23,1.06-1.74.49-.54,1.08-.97,1.75-1.26.76-.33,1.59-.49,2.42-.47,1.23,0,2.44.34,3.5.98,1.11.65,2.01,1.68,2.71,3.08.7,1.4,1.04,3.22,1.05,5.47,0,2.15-.33,3.92-1,5.33-.66,1.41-1.55,2.46-2.67,3.14-1.09.69-2.36,1.05-3.65,1.04-.8,0-1.59-.13-2.33-.43-.65-.27-1.25-.67-1.74-1.17-.47-.49-.85-1.06-1.11-1.69h-.1v10.01h-6.68v.02Zm6.55-16.24c-.02.8.1,1.59.36,2.34.19.59.55,1.12,1.02,1.52.93.71,2.22.71,3.14,0,.47-.4.81-.93.99-1.51.25-.76.36-1.56.34-2.36.02-.8-.1-1.6-.34-2.37-.18-.59-.53-1.11-.99-1.51-.44-.36-1-.54-1.57-.53-.57-.01-1.13.17-1.58.53-.47.4-.83.92-1.02,1.51-.25.76-.37,1.57-.36,2.37h.01Z"/><path class="cls-1" d="m266.67,22.98v24.77h-6.68v-24.77h6.68Z"/><path class="cls-1" d="m278.96,48.08c-1.98,0-3.69-.38-5.12-1.14-1.41-.74-2.56-1.88-3.3-3.28-.77-1.43-1.16-3.15-1.16-5.16s.39-3.59,1.16-5.03c.75-1.41,1.89-2.57,3.28-3.35,1.41-.8,3.07-1.2,5-1.2,1.3-.01,2.59.21,3.8.67,1.1.41,2.09,1.05,2.91,1.88.83.86,1.46,1.88,1.86,3.01.45,1.28.67,2.63.65,3.99v1.55h-16.59v-3.67h10.45c0-.5-.14-.99-.41-1.41-.26-.41-.62-.73-1.05-.95-.46-.24-.97-.35-1.49-.34-.52,0-1.03.11-1.49.34-.44.21-.81.54-1.08.94-.27.42-.42.91-.43,1.41v3.98c0,.56.12,1.1.38,1.6.25.46.62.84,1.08,1.1.52.28,1.1.42,1.69.4.43,0,.86-.06,1.26-.19.36-.12.7-.31.99-.56.27-.24.48-.55.6-.89h6.1c-.18,1.23-.7,2.39-1.49,3.36-.83.98-1.9,1.74-3.1,2.2-1.44.55-2.97.81-4.51.78v-.04Z"/><path class="cls-1" d="m294.39,48.13c-.9,0-1.77-.34-2.4-.98-.65-.63-1.01-1.5-.98-2.4-.02-.89.34-1.75.98-2.36,1.31-1.31,3.44-1.31,4.75,0,.66.61,1.04,1.46,1.03,2.36,0,.61-.17,1.2-.49,1.71-.31.5-.73.92-1.24,1.22-.5.3-1.07.46-1.66.45h0Z"/><path class="cls-1" d="m301.4,47.74v-18.57h6.33v3.53h.19c.35-1.11,1.04-2.08,1.98-2.76,2.03-1.36,4.69-1.36,6.71.02.92.64,1.54,1.63,1.71,2.74h.19c.31-1.13,1.02-2.11,2.01-2.74,1.07-.7,2.33-1.06,3.61-1.03,1.78,0,3.22.57,4.34,1.72,1.11,1.15,1.67,2.67,1.66,4.57v12.53h-6.68v-10.83c0-.82-.21-1.45-.62-1.92-.42-.47-1.03-.73-1.66-.7-.62-.03-1.22.23-1.63.7-.4.47-.6,1.1-.6,1.92v10.83h-6.39v-10.83c0-.82-.2-1.45-.62-1.92-.42-.47-1.03-.73-1.66-.7-.42-.01-.83.1-1.19.32-.34.22-.61.53-.77.9-.19.44-.29.92-.27,1.41v10.83h-6.68l.04-.02Z"/><path class="cls-1" d="m342.33,48.08c-1.98,0-3.69-.38-5.12-1.14-1.41-.74-2.56-1.88-3.3-3.28-.77-1.43-1.16-3.15-1.16-5.16s.39-3.59,1.17-5.03c.75-1.41,1.89-2.57,3.28-3.35,1.41-.8,3.07-1.2,4.99-1.2,1.3-.01,2.59.21,3.8.67,1.09.41,2.09,1.05,2.91,1.88.83.86,1.46,1.88,1.86,3.01.45,1.28.68,2.63.65,3.99v1.55h-16.59v-3.67h10.45c0-.5-.14-.99-.41-1.41-.26-.4-.62-.73-1.05-.95-.46-.24-.98-.35-1.49-.34-.52,0-1.03.11-1.49.34-.44.21-.81.54-1.08.94-.27.42-.42.91-.43,1.41v3.98c0,.56.12,1.1.38,1.6.24.46.62.85,1.08,1.1.52.28,1.1.42,1.69.4.43,0,.86-.06,1.26-.19.36-.12.7-.31.98-.56.27-.24.48-.55.6-.89h6.1c-.18,1.23-.7,2.39-1.49,3.36-.83.98-1.9,1.74-3.1,2.2-1.44.55-2.97.81-4.5.78v-.04Z"/><path class="cls-1" d="m360.86,47.99c-1.29,0-2.56-.35-3.65-1.04-1.11-.69-2-1.75-2.66-3.16s-1-3.19-1-5.33.35-4.06,1.05-5.47c.7-1.4,1.6-2.43,2.71-3.08,1.06-.64,2.27-.98,3.5-.98.83-.02,1.66.14,2.42.47.66.3,1.26.73,1.74,1.27.46.51.82,1.1,1.06,1.74h.1v-9.42h6.68v24.77h-6.63v-3.05h-.15c-.26.63-.63,1.2-1.1,1.69-.5.5-1.09.9-1.74,1.17-.74.3-1.53.44-2.33.43h0Zm2.47-5.14c.57,0,1.13-.18,1.58-.54.47-.41.82-.93,1.02-1.52.26-.75.38-1.55.36-2.34.02-.8-.1-1.6-.36-2.37-.19-.59-.54-1.11-1.02-1.51-.45-.35-1.01-.54-1.58-.53-.57-.02-1.12.17-1.57.53-.47.4-.81.92-.99,1.51-.25.76-.36,1.56-.34,2.37-.02.8.1,1.6.35,2.37.18.59.53,1.11.99,1.51.44.35.99.54,1.56.53h0Z"/><path class="cls-1" d="m376.1,47.74v-18.57h6.68v18.57h-6.68Zm3.34-20.5c-.86.02-1.7-.3-2.32-.89-1.19-1.06-1.29-2.88-.24-4.07.07-.08.15-.16.24-.24,1.32-1.19,3.33-1.19,4.65,0,1.19,1.07,1.29,2.9.22,4.09-.07.08-.14.15-.22.22-.63.59-1.47.91-2.33.89Z"/><path class="cls-1" d="m391.33,48.03c-1.08.02-2.14-.18-3.14-.59-.88-.37-1.62-.99-2.13-1.78-.52-.8-.77-1.81-.77-3.05-.02-.9.15-1.79.52-2.6.33-.7.83-1.31,1.46-1.77.65-.48,1.39-.83,2.17-1.05.87-.25,1.77-.41,2.68-.47.84-.06,1.68-.15,2.51-.3.49-.07.95-.24,1.36-.5.27-.2.43-.52.42-.85v-.05c.02-.44-.19-.86-.56-1.11-.42-.27-.92-.41-1.43-.39-.55-.02-1.09.12-1.55.42-.41.3-.67.77-.72,1.28h-6.15c.08-1.12.45-2.2,1.08-3.13.71-1.01,1.68-1.81,2.81-2.3,1.23-.58,2.77-.87,4.62-.87,1.21-.01,2.42.14,3.58.47.97.27,1.88.71,2.7,1.29.7.51,1.28,1.17,1.7,1.93.39.74.59,1.56.59,2.4v12.72h-6.24v-2.61h-.15c-.33.65-.79,1.22-1.35,1.68-.53.43-1.14.75-1.8.94-.72.2-1.47.29-2.22.28h0Zm2.18-4.21c.49,0,.98-.1,1.43-.31.44-.2.82-.51,1.09-.91.29-.42.44-.93.42-1.44v-1.55c-.18.07-.37.14-.56.21s-.41.12-.63.18-.47.11-.7.16-.5.09-.77.13c-.44.06-.87.19-1.26.39-.3.15-.55.38-.72.66-.16.26-.24.57-.23.88-.02.46.18.9.54,1.19.4.29.89.44,1.39.42h0Z"/></g></g></g></svg>