<svg xmlns="http://www.w3.org/2000/svg" viewBox="0 0 240 117.63"><defs><style>.cls-1{fill:#1b3764;}.cls-2{fill:#0683c2;}.cls-3{fill:#8cd4e7;}.cls-4{fill:#c7e8f2;}.cls-5{fill:#1b3864;}.cls-6{fill:#e3f4f7;}.cls-7{fill:#8cd5e9;}</style></defs><g id="Layer_2" data-name="Layer 2"><g id="Lockups"><g id="dad"><g id="Layer_2-2" data-name="Layer 2"><g id="Lockups-2" data-name="Lockups"><g id="dark"><g id="logo"><path class="cls-1" d="M23,18.1a9.22,9.22,0,0,1-6.17,6.32h0A39.47,39.47,0,0,1,2.39,26.08,2.22,2.22,0,0,0,0,28.15a2.09,2.09,0,0,0,0,.25c.2,5,.64,11.46,1.65,19,3.14,23.46,5.92,44.2,21,58.14a52.2,52.2,0,0,0,21.72,11.79,8.39,8.39,0,0,0,2.23.31V0A24.43,24.43,0,0,0,23,18.1Z"/><path class="cls-2" d="M90.81,26.08a39.62,39.62,0,0,1-14.4-1.65,9.26,9.26,0,0,1-6.22-6.37A24.43,24.43,0,0,0,46.6,0V117.62a8.08,8.08,0,0,0,2.24-.31,52.13,52.13,0,0,0,21.71-11.79c15.09-13.94,17.87-34.68,21-58.14,1-7.53,1.45-14,1.65-19a2.24,2.24,0,0,0-2.16-2.32Z"/><path class="cls-3" d="M23.65,29.24l-1.48.82a16.57,16.57,0,0,1-3.06,1.33l-.12,0A45.46,45.46,0,0,1,8.86,33.36,1.24,1.24,0,0,0,7.7,34.68h0c.29,3.92.7,7.86,1.22,11.74,1.57,11.79,3,22.7,6,32.19a1.6,1.6,0,0,0,1.53,1.11h0a3.16,3.16,0,0,1,2.27,1l10.47,11A3.16,3.16,0,0,1,30.09,94l-.31,7a1.92,1.92,0,0,0,.74,1.61,46.87,46.87,0,0,0,15.87,7.72,1,1,0,0,0,.24,0V47.88A23.46,23.46,0,0,1,23.65,29.24Z"/><path class="cls-4" d="M69.55,29.24l1.49.82a16.2,16.2,0,0,0,3,1.33l.13,0a45.37,45.37,0,0,0,10.12,1.94,1.23,1.23,0,0,1,1.16,1.32h0c-.29,3.92-.69,7.86-1.22,11.74-1.57,11.79-3,22.7-6,32.19a1.62,1.62,0,0,1-1.54,1.11h0a3.16,3.16,0,0,0-2.27,1L64,91.64A3.2,3.2,0,0,0,63.12,94l.31,7a1.87,1.87,0,0,1-.74,1.61,46.91,46.91,0,0,1-15.86,7.72,1.07,1.07,0,0,1-.25,0V47.88A23.45,23.45,0,0,0,69.55,29.24Z"/><path class="cls-1" d="M34.84,105.47l1.42.76,0,0a2.59,2.59,0,0,0,3-.54l4.9-5a3.35,3.35,0,0,1,2.39-1h0V110.3l-4.89,2.58Z"/><path class="cls-2" d="M58.36,105.47l-1.42.76h0a2.56,2.56,0,0,1-3-.55l-4.8-5a3.36,3.36,0,0,0-2.41-1H46.6v10.6l4.89,2.56Z"/><path class="cls-3" d="M46.6,23.94V7a16.93,16.93,0,0,0,0,33.85Z"/><path class="cls-4" d="M46.6,23.94V40.86A16.93,16.93,0,1,0,47.05,7H46.6Z"/><path class="cls-2" d="M46.6,36.19A12.26,12.26,0,1,1,58.85,23.94h0A12.26,12.26,0,0,1,46.6,36.19Zm0-21.4a9.16,9.16,0,1,0,9.15,9.15h0a9.15,9.15,0,0,0-9.15-9.15Z"/><path class="cls-5" d="M20.85,74.37V55l7.48,0c4.65-.27,8.62,2.28,8.32,7.36l-.26,12.68c.21,5.46-4.76,6.51-8.69,4A32.91,32.91,0,0,1,20.85,74.37ZM31.17,63.28c0-2-1.33-2.48-3-2.69l-2.05-.27q-.13,6.1-.28,12.2c.79.37,1.19.55,2,.87,1.63.67,3,.79,3.07-1.11C31,69.28,31.09,66.28,31.17,63.28Z"/><path class="cls-5" d="M48.86,79a39.92,39.92,0,0,1-6-.09c-.41,1.86-.62,2.81-1,4.65A20.8,20.8,0,0,1,36,82.38C38.66,73.32,41.07,64.2,43.32,55a26.78,26.78,0,0,1,5.22,0c2.25,9.28,4.65,18.52,7.27,27.7a20.92,20.92,0,0,1-5.93.93C49.47,81.81,49.26,80.87,48.86,79Zm-3-14.58c-.67,3.31-1,5-1.7,8.25,1.35.06,2,.06,3.37,0-.68-3.29-1-5-1.67-8.28Z"/><path class="cls-5" d="M57,82.46,56.4,55h7.48c3.45,0,8.46.77,8.47,5.17v8.95c0,4.53-4,8.61-7.85,10.43A33.51,33.51,0,0,1,57,82.46Zm10.14-20c0-1.82-1.42-1.92-3.08-1.73L62,60.93l.36,13.59c.82-.28,1.24-.42,2-.74,1.64-.62,3-1.55,2.92-3.26C67.22,67.28,67.18,65.67,67.11,62.44Z"/></g></g></g></g><path class="cls-6" d="M106.11,42V21a13.44,13.44,0,0,1,2.44-.29c1.4-.1,2.59-.14,3.57-.14,3.84,0,6.8,1.11,8.85,3.35a10.38,10.38,0,0,1,2.56,7.33c0,3.78-1.12,6.63-3.35,8.53-2,1.72-4.88,2.59-8.6,2.59A28.36,28.36,0,0,1,106.11,42Zm5.11-17.16V38.27a5.22,5.22,0,0,0,1.16.13h.07q5.77-.09,5.77-7a6.91,6.91,0,0,0-1.92-5.27,5.64,5.64,0,0,0-4-1.43A6.93,6.93,0,0,0,111.22,24.8Z"/><path class="cls-6" d="M127.18,21h14.3V25h-9.19v4.15h7.63v4h-7.63v4.71h9.62V42H127.18Z"/><path class="cls-6" d="M145.7,42V21H160V25h-9.19v4.18h7.63v4h-7.63V42Z"/><path class="cls-6" d="M163.78,21h14.3V25h-9.19v4.15h7.63v4h-7.63v4.71h9.62V42H163.78Z"/><path class="cls-6" d="M182.43,42V21h4.18q7.56,9.56,10.49,13.44V21h5.11V42h-4.32q-5.53-6.48-10.45-13V42Z"/><path class="cls-6" d="M206,39.7l2.29-3.15a8.2,8.2,0,0,0,4.82,1.29c2.08,0,3.12-.78,3.12-2.36,0-.95-1.31-1.86-3.92-2.75q-5.44-1.89-5.44-6.27a5.3,5.3,0,0,1,2-4.35,7.85,7.85,0,0,1,5.08-1.52,12,12,0,0,1,6.93,2.29q-.69,1.05-2.19,3.15a14.28,14.28,0,0,0-4.87-1.16q-2.19,0-2.19,1.62,0,1.23,3.55,2.69a14,14,0,0,1,4.76,2.92,5.19,5.19,0,0,1,1.47,3.68,5.89,5.89,0,0,1-2.52,5.15,8.53,8.53,0,0,1-5.11,1.46A14.77,14.77,0,0,1,206,39.7Z"/><path class="cls-6" d="M225.27,21h14.3V25h-9.19v4.15H238v4h-7.63v4.71H240V42H225.27Z"/><path class="cls-7" d="M112.82,49.87h4.26l8.07,21.74H119.8c-.53-1.78-1-3.22-1.31-4.29h-7.15c-.66,2-1.11,3.4-1.34,4.29h-5.25Zm2.2,7.07q-1,2.69-2.13,6H117C116.53,61.49,115.87,59.48,115,56.94Z"/><path class="cls-7" d="M142.88,52.48l-2,3.4A8.11,8.11,0,0,0,136,54a4.05,4.05,0,0,0-3.41,2,8.51,8.51,0,0,0-1.39,5A6.86,6.86,0,0,0,133.19,66a4.93,4.93,0,0,0,3.54,1.58,5.22,5.22,0,0,0,2-.28V63.64h-3.88V59.07h8.83V69.69a24.19,24.19,0,0,1-4.21,1.89,14.2,14.2,0,0,1-3.83.44,8.83,8.83,0,0,1-8-4,13,13,0,0,1-1.89-7.18,11.84,11.84,0,0,1,3-8.38,9.15,9.15,0,0,1,7-3,9.75,9.75,0,0,1,3.85.83A9.92,9.92,0,0,1,142.88,52.48Z"/><path class="cls-7" d="M154.08,49.87h4.26l8.07,21.74h-5.36c-.52-1.78-1-3.22-1.3-4.29H152.6c-.66,2-1.11,3.4-1.34,4.29H146Zm2.2,7.07q-1,2.69-2.13,6h4.12C157.79,61.49,157.13,59.48,156.28,56.94Z"/><path class="cls-7" d="M174.28,49.87V71.61h-5.19V49.87Z"/><path class="cls-7" d="M179.57,71.61V49.87h4.33q7.83,9.89,10.85,13.91V49.87H200V71.61h-4.46q-5.75-6.69-10.82-13.43V71.61Z"/><path class="cls-7" d="M203.93,69.24,206.3,66a8.46,8.46,0,0,0,5,1.34c2.15,0,3.23-.82,3.23-2.44q0-1.48-4.06-2.85-5.62-2-5.63-6.5a5.49,5.49,0,0,1,2.1-4.5,8.12,8.12,0,0,1,5.25-1.58,12.45,12.45,0,0,1,7.18,2.37c-.48.74-1.24,1.82-2.27,3.27A15,15,0,0,0,212,53.88c-1.51,0-2.26.57-2.26,1.69,0,.85,1.22,1.77,3.67,2.78a14.49,14.49,0,0,1,4.93,3,5.37,5.37,0,0,1,1.53,3.82,6.08,6.08,0,0,1-2.61,5.32A8.8,8.8,0,0,1,212,72,15.19,15.19,0,0,1,203.93,69.24Z"/><path class="cls-7" d="M227.46,54.06h-6.15V49.87h18.07v4.19h-6.6V71.61h-5.32Z"/><path class="cls-6" d="M106.11,99.64V79.51a12.86,12.86,0,0,1,2.34-.28c1.35-.09,2.5-.14,3.43-.14,3.71,0,6.55,1.08,8.52,3.22a10,10,0,0,1,2.46,7.06c0,3.63-1.07,6.37-3.22,8.2-1.94,1.66-4.69,2.49-8.27,2.49A26.33,26.33,0,0,1,106.11,99.64ZM111,83.14v13a5.59,5.59,0,0,0,1.12.13h.06q5.56-.11,5.56-6.74a6.67,6.67,0,0,0-1.85-5.07,5.44,5.44,0,0,0-3.8-1.37A7.59,7.59,0,0,0,111,83.14Z"/><path class="cls-6" d="M131.32,79.47v20.2H126.5V79.47Z"/><path class="cls-6" d="M141.34,79.47h3.95l7.5,20.2h-5c-.49-1.66-.89-3-1.21-4H140c-.61,1.83-1,3.16-1.24,4h-4.88Zm2,6.58q-.93,2.49-2,5.58h3.83C144.78,90.27,144.17,88.41,143.38,86.05Z"/><path class="cls-6" d="M155.28,99.64V79.51a35.91,35.91,0,0,1,6.13-.42q4.11,0,6.16,2a5.36,5.36,0,0,1,1.59,4,3.5,3.5,0,0,1-1.28,2.6,3.91,3.91,0,0,1-2.71,1.2H165v0a5.29,5.29,0,0,1,3.45,1.58A4.88,4.88,0,0,1,169.67,94,5.11,5.11,0,0,1,167,98.65a11.81,11.81,0,0,1-6.22,1.41A30.24,30.24,0,0,1,155.28,99.64Zm4.91-16.5v3.93h2a2.54,2.54,0,0,0,1.71-.45,2,2,0,0,0,.49-1.53c0-1.4-.91-2.11-2.74-2.11A6.91,6.91,0,0,0,160.19,83.14Zm0,7.82v5a4.35,4.35,0,0,0,1.73.35c1.78,0,2.68-.78,2.68-2.33,0-2-.91-3-2.71-3Z"/><path class="cls-6" d="M173.15,79.47H186.9v3.9h-8.84v4h7.34v3.89h-7.34v4.53h9.26v3.89H173.15Z"/><path class="cls-6" d="M194.72,83.37H189v-3.9h16.78v3.9h-6.12v16.3h-4.95Z"/><path class="cls-6" d="M208.51,79.47h13.75v3.9h-8.84v4h7.34v3.89h-7.34v4.53h9.25v3.89H208.51Z"/><path class="cls-6" d="M225.16,97.47l2.2-3A7.85,7.85,0,0,0,232,95.68c2,0,3-.75,3-2.26q0-1.38-3.77-2.65c-3.48-1.21-5.23-3.22-5.23-6a5.07,5.07,0,0,1,1.95-4.18,7.53,7.53,0,0,1,4.88-1.47,11.56,11.56,0,0,1,6.67,2.2c-.45.68-1.15,1.69-2.11,3a13.92,13.92,0,0,0-4.69-1.11q-2.1,0-2.1,1.56c0,.79,1.13,1.65,3.41,2.59a13.33,13.33,0,0,1,4.58,2.8A5,5,0,0,1,240,93.71a5.65,5.65,0,0,1-2.43,4.94,8.13,8.13,0,0,1-4.91,1.41A14.21,14.21,0,0,1,225.16,97.47Z"/></g></g></g></svg>