<?xml version="1.0" encoding="utf-8"?>
<!-- Generator: Adobe Illustrator 26.0.0, SVG Export Plug-In . SVG Version: 6.00 Build 0)  -->
<svg version="1.1" id="Layer_1" xmlns="http://www.w3.org/2000/svg" xmlns:xlink="http://www.w3.org/1999/xlink" x="0px" y="0px"
	 viewBox="0 0 399 209.7" style="enable-background:new 0 0 399 209.7;" xml:space="preserve">
<style type="text/css">
	.st0{fill:#FFFFFF;}
	.st1{fill:#FFFFFF;stroke:#FFFFFF;stroke-miterlimit:10;}
</style>
<g>
	<path class="st0" d="M187.5,84.7L63.8,107.1c-0.2-0.9-0.2-1.8,0.2-2.7l6.4-15c1.3-3.1-1.3-6.4-4.7-5.8l-43.4,7.8l0-0.8
		c0,0-2.2-9.2-4.6-10.8l-2.7,0.1L15,77.9l-2.3-0.2l-0.2-3L7.8,76c0,0-1.7-4.2,2.5-5.8c4.2-1.7,4.2,0.8,10-2.5l5.8-0.8
		c0,0,1.7,0,9.2-6.6c7.5-6.7,11.7-9.2,17.5-7.5c5.9,1.7,17.6-0.8,21.7-4.2c4.2-3.3,7.5-8.3,10.9-8.3c3.3,0,10.4-0.9,12-5.2
		c1.6-4.4,3.3-5.4,6.1-6.8c2.8-1.3,6.1-4.2,6.9-4.9c0.8-0.8,2.4-2.4,6.9-3.5c4.5-1.1,7.3-7.4,8.9-8.9c1.7-1.6,5.2-4.1,8.4-5.1
		c3.2-1.1,6-3.2,9.5-3.5c3.5-0.3,17-3.4,22.9,1.2C173,8,167,9,161.9,8.3c0,0-6.4-1.4-6.6,0.9c-0.2,2.2,1.5,2.5,1.5,2.5
		s-5.2,3.9-7.3,4.6c-2.1,0.7-4.1,4.4-6.5,5.5c-2.4,1.2-7.6,4.8-5.1,6.4c0,0-3.7,2.7-4.7,4.8c0,0-2.6,1.9-5.4,9.1l-2.6,0.2
		c0,0-5,15.8-3.1,18.9c1.9,3.1,1.7-2.5,4.8-4.9c3.1-2.3-0.5-3.5-0.5-3.5l2.4-2.2c0,0-0.4,3.6,0.7,2.7c1.1-0.9,9.8-9.6,12.9-9.2
		c3,0.4-2.2,4.6-5.3,5.7c-3,1.2-3.7,8.6-1.4,5.5c2.3-3.1,5.4-7.8,11.3-7.1c5.9,0.7,13.9,3.6,15.8,3.5c0,0-2.9,3.3-0.6,2.9
		c2.3-0.4,2.6-2.1,2.6-2.1l2.1,1.8l-0.1,2.5c0,0,1.8,0.6,2.5-0.1c0.8-0.7,5.6,4.9,5.6,4.9V66l3.3,3.3l-0.2,2.1l3.7,2.7l0.1,2.5
		c0,0,1,2.1,5,1.6l-0.2,1.4c0,0-1.6,1.8-0.2,2.8C187.3,83,187.5,84,187.5,84.7z"/>
	<path class="st0" d="M392.9,132.5c-5.5,0.3-14-4.4-16.5-1c0,0-1.6,2.8-0.6,3.8c-0.4-0.4-3.5-3.5-3.9-5.6c0,0-2.6,6.5-8.2-1.5
		c0,0-1.8-1.8-1.3,3.1c0,0-1.6,0-2.8-0.9c-1.3-0.9-0.9,4.1-1.9,0.9c-1-3.2-1-2.5-5-4.4c-4-1.8-4.9-2.1-5.4,0.4
		c-0.5,2.5,2.5,2.1,0.3,4.2c-2.2,2-3.8,0.2-2,8.3c0,0,0.7,2.4,2.4,2.7c0,0-2.7,3.1-7.3-1.1c-4.6-4.2-7.8-9.7-7.8-9.7l-13.6-6.4
		l-6.4-0.3c0,0-3-7.8-6.6-2.4c0,0-6.2-2.7-9.6,1.1c-3.4,3.8-4.1,5.5-5,7.6c-0.9,2-3.4,4.2-7.3,1.7c-3.9-2.4-11.9,0-10.5,4.1
		c0,0-3.4-3.5-7.2-3.5c-3.8,0-10.9-0.5-14,1.6c-3.1,2.1-3.8,13-3.8,13l-4.6,0.2c0,0,0,2.6-3,2.6c-3,0-4.6-1.1-3.3,1.1
		c1.3,2.1,0.3,2.5-2.8,2.4c-3.1-0.1,2.2,4.8-2.6,4.3c-4.9-0.5,3.2,9.8-2.5,4.3c-5.8-5.5-1.6-6.5-1.6-6.5s0.7-3.3,2.6-4.3
		c0,0-1.7-4.5,3.3-3.6l2.5-4.8l0.5-4.6c0,0-4.7-1.1-5.2,4c-0.6,5-7-4.3-9.5-1.7l-0.4,6l-2.3,2l-0.1,3c0,0-4.2,3.6-5.6,3.1
		c-1.4-0.5-2.4,2.1-2.4,2.1s-2.7-3.5-2.1-10c0,0-2.2-0.7,1.6-6c3.8-5.3-1-5.4-1.9-2c-1,3.4-5.2,5.5-3.9,9.2c1.4,3.7-1.5,6.5-3.4,7.6
		c-1.9,1.1-5.7,4.4-7.1,8.3c-1.4,3.9-2.4,2.1-3.3,5.6c-0.9,3.5-11.8,24.7-16.2,27.7c-4.4,3-4.7,7.8-3.8,9.1c0.9,1.4-4.3-1-4.8-4.3
		c0,0-4.6-1.3-3.4-5.9s6.9-11.2,4.5-14.2s-4.7,2-4.7,2s-1.4,0.9-2.1,0.2s-2.6-1.2-3.7-0.4c-1.1,0.8-2.4-0.2-2.4-1.9
		c0-1.7,1.2-0.8,1.1-5c0,0,7.8-4,1.6-11.5c0,0,9.4-0.2,0.9-6.7l-0.1-1.8c0,0,3.6-1.6,1.1-3.6c-2.5-2-4.9-6.6-7-4
		c-2.1,2.6-2-3.2-5.3-4.1c-3.2-0.9-1.4,3.9-5.8-1c-4.5-4.8,0.2-1.7,2.5-5.7c2.3-4-2.3,1.3-1.9-3.4c0-0.3,0-0.5,0-0.8l235.8-42.7
		c0.3,0.8,0.9,1.7,1.8,2.6c2.2,2.5,5.1,11.5,3.4,11.4c0,0-1,8-5.6-1.1c0,0,0.1,7.8-7,2.8c0,0,3.5,7.7,6.4,5.6c2.9-2,5.8,1.5,8.2,2.3
		c2.3,0.9,2.2,2.1-0.6,2.7c-2.8,0.6,7,7.7,7,7.7l3.2,0.6C394.6,127.5,398.5,132.2,392.9,132.5z"/>
	<path class="st0" d="M398.8,100.5C398.8,100.5,398.8,100.5,398.8,100.5l-6.4-35.3c-1-5.3-4-9.9-8.4-13c-4.5-3.1-9.8-4.2-15.2-3.3
		L67.6,103.5l5.5-12.9c1-2.4,0.7-5.2-1-7.3c-1.6-2.1-4.3-3-6.9-2.6l-48.6,8.7c-5.3,1-10,3.9-13.1,8.4c-3.1,4.4-4.3,9.8-3.3,15.1
		l1,5.5c0,0,0,0,0,0l4.8,26.2l0.7,3.8c0,0,0,0,0,0h0c0.7,3.8,2.8,7,6,9.2c2.4,1.7,5.2,2.5,8.1,2.5c0.9,0,1.7-0.1,2.6-0.2l289.1-52.4
		l20,18.3c0.5,0.5,1.2,0.8,2,0.8c0.2,0,0.3,0,0.5,0l52.1-9.4C395,115.7,400.2,108.3,398.8,100.5z M8.4,101.1c2.2-3.2,5.5-5.3,9.3-6
		l48.6-8.7c0.1,0,0.2,0,0.3,0c0.5,0,0.9,0.3,1,0.5c0.2,0.2,0.5,0.7,0.2,1.3l-6.4,15c-1.1,2.6-0.6,5.7,1.4,7.7l9.1,9.5
		c0.5,0.5,0.4,1,0.3,1.3c-0.1,0.3-0.4,0.8-1,0.9l-52.8,9.1c-3.1,0.6-5.8,2.1-7.9,4.3l-4.4-24.2C5.4,108.1,6.2,104.3,8.4,101.1z
		 M22.5,154.2c-2.2,0.4-4.5-0.1-6.4-1.4c-1.9-1.3-3.1-3.2-3.5-5.4c0,0,0,0,0,0c-0.8-4.6,2.2-9,6.8-9.8l52.7-9.1
		c2.6-0.5,4.8-2.3,5.6-4.8c0.8-2.5,0.2-5.3-1.6-7.2l-7-7.3l300.7-54.4c3.8-0.7,7.6,0.1,10.8,2.3c3.2,2.2,5.3,5.5,6,9.3l4.4,23.9
		c-0.1-0.1-0.2-0.1-0.4-0.2c-0.1-0.1-0.3-0.1-0.4-0.2c-0.3-0.1-0.6-0.2-0.9-0.3c-0.1,0-0.2-0.1-0.3-0.1c-0.4-0.1-0.8-0.2-1.2-0.3
		c0,0-0.1,0-0.1,0c-0.4-0.1-0.7-0.1-1.1-0.2c-0.1,0-0.3,0-0.4,0c-0.3,0-0.6,0-0.9-0.1c-0.1,0-0.3,0-0.4,0c-0.3,0-0.6,0-0.9,0
		c-0.1,0-0.3,0-0.4,0c-0.4,0-0.9,0.1-1.3,0.2L22.5,154.2z M386.2,111.4l-50.7,9.2l-15.7-14.3l63.3-11.5c0.3-0.1,0.6-0.1,0.8-0.1
		c0.1,0,0.1,0,0.2,0c0.2,0,0.5,0,0.7,0c0,0,0,0,0.1,0c3.3,0.1,6.3,2.2,7.6,5.2c0,0,0,0,0,0.1c0.1,0.2,0.1,0.4,0.2,0.6
		c0,0.1,0,0.1,0.1,0.2c0.1,0.2,0.1,0.4,0.1,0.6c0,0.1,0,0.2,0.1,0.2v0C393.9,106.1,390.8,110.5,386.2,111.4z"/>
	<g id="ribbon_00000129190395946729512510000001532299599257471922_">
		<g>
			<path class="st0" d="M37.1,98.6c-1.5-0.9-3.1-0.5-3.7-0.4s-2.2,0.5-3.1,2c-0.8,1.4,0.4,2.8,1,3.4c0.2,0.2,0.4,0.2,0.6,0
				c0.8-0.7,1.7-1.1,2.5-1.3c0.8-0.2,1.8-0.3,2.8,0c0.2,0.1,0.4-0.1,0.5-0.3C38.1,101.3,38.5,99.4,37.1,98.6z"/>
		</g>
		<g>
			<path class="st0" d="M29.8,101.9c-0.1-0.2-0.3-0.2-0.4,0c-0.5,1-1.1,2.6-0.7,4.1c0,0.1,0.1,0.4,0.3,0.8c0.6,1.3,1.3,2.1,1.7,2.5
				c0.9,0.9,5.4,5.4,11.8,11.6c0.3,0.3,0.8,0.2,0.9-0.2c0.4-1.2,0.8-2.4,1.2-3.6c0.1-0.2,0-0.5-0.2-0.6c-0.7-0.6-1.2-1-1.5-1.3
				c0,0-7.7-6.5-12.1-11.5c-0.2-0.2-0.5-0.6-0.7-1.1C29.9,102.3,29.8,102,29.8,101.9L29.8,101.9z"/>
		</g>
		<g>
			<g>
				<path class="st0" d="M36.2,114.7c0.1,0.1,0.3,0.3,0.4,0.4C36.4,115,36.3,114.9,36.2,114.7z"/>
			</g>
			<g>
				<path class="st0" d="M36.6,115.2c0.1,0.1,0.3,0.3,0.4,0.4C36.9,115.4,36.7,115.3,36.6,115.2z"/>
			</g>
			<g>
				<path class="st0" d="M37.9,116.5c-0.3-0.3-0.6-0.6-0.9-0.9C37.3,115.9,37.6,116.2,37.9,116.5L37.9,116.5z"/>
			</g>
			<g>
				<path class="st0" d="M34.7,112.9c-0.9,2.4-1.8,4.7-1.8,4.7c-0.2,0.4-0.4,1-0.7,1.8c-0.1,0.2,0,0.5,0.1,0.6
					c0.9,0.9,1.8,1.7,2.7,2.6c0.3,0.3,0.8,0.2,0.9-0.2c0.7-2,1.5-4.6,2.1-6.3C36.8,115,35.7,113.9,34.7,112.9z"/>
			</g>
			<g>
				<path class="st0" d="M34.6,113.2c0.1,0.1,0.2,0.2,0.4,0.4C34.8,113.4,34.7,113.3,34.6,113.2z"/>
			</g>
			<g>
				<path class="st0" d="M35,113.6c0.2,0.2,0.5,0.5,0.8,0.8C35.5,114.1,35.2,113.8,35,113.6z"/>
			</g>
			<g>
				<path class="st0" d="M35.7,114.3c0.1,0.1,0.3,0.3,0.4,0.4C36,114.6,35.9,114.5,35.7,114.3z"/>
			</g>
		</g>
		<g>
			<g>
				<path class="st0" d="M36.5,109.5C36.5,109.5,36.5,109.4,36.5,109.5C36.5,109.4,36.5,109.5,36.5,109.5z"/>
			</g>
			<g>
				<path class="st0" d="M37,109.9C37,109.9,36.9,109.8,37,109.9C36.9,109.8,37,109.9,37,109.9z"/>
			</g>
			<g>
				<polygon class="st0" points="36.1,109.1 36.1,109.1 36.1,109.1 				"/>
			</g>
			<g>
				<path class="st0" d="M39,111.2c0.2,0.2,0.6,0.1,0.7-0.2c0.7-2.2,1.2-3.7,1.3-4.2c0.2-0.5,0.5-1.6,0.4-3c0-0.4-0.1-0.7-0.1-0.8
					c-0.3-1.5-1.6-2.7-2.5-3.3c-0.2-0.1-0.4,0-0.4,0.2l0,0c0,0.1,0.1,0.4,0.1,0.8c0,0.6-0.1,1.1-0.1,1.3c-0.5,2-1.2,4.3-2,6.4
					c-0.1,0.2,0,0.3,0.1,0.4C37.3,109.6,38.2,110.4,39,111.2z"/>
			</g>
			<g>
				<path class="st0" d="M38.2,111C38.2,111,38.2,111,38.2,111C38.2,111,38.2,111,38.2,111z"/>
			</g>
			<g>
				<path class="st0" d="M37.8,110.6C37.8,110.6,37.8,110.6,37.8,110.6C37.8,110.6,37.8,110.6,37.8,110.6z"/>
			</g>
		</g>
	</g>
	<g>
		<g>
			<path class="st1" d="M104.8,115.6c0,0-0.2,0-0.5-0.1c-0.3,0-0.7,0-1.1,0c-0.4,0-0.9,0-1.3,0.1c-1.6,0.3-2.8,1-3.5,2.2
				s-0.9,2.8-0.5,4.7c0.4,2,1.1,3.4,2.2,4.3c1.1,0.9,2.4,1.2,4,0.9c0.5-0.1,0.9-0.2,1.3-0.4c0.4-0.2,0.8-0.5,1.3-0.8l0.2-2.7
				l3.3,0.2l-0.1,4.6c-0.9,0.6-1.7,1.1-2.5,1.5c-0.8,0.4-1.8,0.7-2.9,0.9c-1.8,0.3-3.4,0.3-4.9-0.1c-1.5-0.4-2.7-1.2-3.7-2.5
				c-1-1.2-1.7-2.9-2.1-5.1c-0.3-1.9-0.3-3.7,0.2-5.2s1.4-2.7,2.6-3.7c1.2-1,2.7-1.6,4.5-1.9c1.2-0.2,2.3-0.3,3.2-0.2
				c0.9,0.1,1.9,0.3,2.9,0.7l1.7,4.2l-3.1,1.3L104.8,115.6z"/>
			<path class="st1" d="M109.9,111.6l7.7-1.4l0.6,3.2l-1.6,0.3l0.6,3.6l7-1.2l-0.6-3.6l-1.6,0.3l-0.6-3.3l7.7-1.4l0.6,3.3l-2.4,0.4
				l1.9,10.7l2.4-0.4l0.6,3.3l-7.7,1.4l-0.6-3.3l1.5-0.3l-0.7-3.8l-7,1.2l0.7,3.8l1.5-0.3l0.6,3.3l-7.7,1.4l-0.6-3.3l2.4-0.4
				l-1.9-10.7l-2.4,0.4L109.9,111.6z"/>
			<path class="st1" d="M130.9,107.8l9.3-1.7l0.6,3.3l-2.8,0.5l1.9,10.7l2.8-0.5l0.6,3.3L134,125l-0.6-3.3l2.8-0.5l-1.9-10.7
				l-2.8,0.5L130.9,107.8z"/>
			<path class="st1" d="M142,105.8l9.2-1.6l0.6,3.3l-2.9,0.5l1.9,10.7l4.3-0.8l0.5-3l3.3,0.5l-0.8,5.4l-13,2.3l-0.6-3.3l2.6-0.5
				l-1.9-10.7l-2.6,0.5L142,105.8z"/>
			<path class="st1" d="M165.8,101.6c2.9-0.5,5.3-0.1,7.3,1.1c1.9,1.3,3.1,3.3,3.6,6.1c0.5,2.6,0,4.8-1.3,6.5
				c-1.3,1.7-3.4,2.9-6.3,3.4l-8.3,1.5l-0.6-3.3l2.4-0.4l-1.9-10.7l-2.4,0.4l-0.6-3.3L165.8,101.6z M168,115.6c1.8-0.3,3.2-1,4-2
				c0.8-1,1.1-2.3,0.8-4c-0.3-1.9-1-3.2-2.1-4c-1.1-0.8-2.5-1-4.3-0.7l-1.9,0.3l1.9,10.7L168,115.6z"/>
			<path class="st1" d="M176.8,99.6l7.7-1.4l0.6,3.2l-1.6,0.3l0.6,3.6l7-1.2l-0.6-3.6l-1.6,0.3l-0.6-3.3l7.7-1.4l0.6,3.3l-2.4,0.4
				l1.9,10.7l2.4-0.4l0.6,3.3l-7.7,1.4l-0.6-3.3l1.5-0.3l-0.7-3.8l-7,1.2l0.7,3.8l1.5-0.3l0.6,3.3l-7.7,1.4l-0.6-3.3l2.4-0.4
				l-1.9-10.7l-2.4,0.4L176.8,99.6z"/>
			<path class="st1" d="M206.4,93.7c1.7-0.3,3.3-0.2,4.7,0.3c1.4,0.5,2.7,1.3,3.6,2.6s1.7,2.8,2,4.9c0.4,2,0.3,3.7-0.2,5.3
				c-0.5,1.5-1.3,2.7-2.5,3.7s-2.6,1.6-4.3,1.9c-1.7,0.3-3.3,0.2-4.7-0.3c-1.4-0.5-2.7-1.3-3.6-2.6c-1-1.3-1.7-2.9-2-4.9
				c-0.4-2-0.3-3.8,0.2-5.2c0.5-1.5,1.3-2.7,2.5-3.7S204.7,94,206.4,93.7z M207,96.8c-1.6,0.3-2.7,1-3.3,2.2
				c-0.6,1.2-0.7,2.8-0.4,4.8c0.4,2,1,3.5,2,4.3c1,0.9,2.3,1.2,3.9,0.9c1.6-0.3,2.7-1,3.3-2.2c0.6-1.2,0.8-2.8,0.4-4.8
				c-0.4-2-1-3.4-2-4.3C209.9,96.8,208.6,96.5,207,96.8z"/>
			<path class="st1" d="M225.5,90.3c1.7-0.3,3.3-0.2,4.7,0.3s2.7,1.3,3.6,2.6c1,1.2,1.7,2.8,2,4.9c0.4,2,0.3,3.7-0.2,5.2
				c-0.5,1.5-1.3,2.7-2.5,3.7c-1.2,0.9-2.6,1.6-4.3,1.9c-1.7,0.3-3.3,0.2-4.7-0.3c-1.4-0.5-2.7-1.3-3.6-2.6c-1-1.3-1.7-2.9-2-4.9
				c-0.4-2-0.3-3.8,0.2-5.2s1.3-2.7,2.5-3.7C222.4,91.2,223.8,90.6,225.5,90.3z M226.1,93.4c-1.6,0.3-2.7,1-3.3,2.2
				c-0.6,1.2-0.7,2.8-0.4,4.8c0.4,2,1,3.5,2,4.3s2.3,1.2,3.9,0.9c1.6-0.3,2.7-1,3.3-2.2s0.8-2.8,0.4-4.8c-0.4-2-1-3.4-2-4.3
				C229,93.4,227.7,93.1,226.1,93.4z"/>
			<path class="st1" d="M244.1,87.6c2.9-0.5,5.3-0.1,7.3,1.1s3.1,3.3,3.6,6.1c0.5,2.6,0,4.8-1.3,6.5c-1.3,1.7-3.4,2.9-6.3,3.4
				l-8.3,1.5l-0.6-3.3l2.4-0.4L239,91.9l-2.4,0.4l-0.6-3.3L244.1,87.6z M246.3,101.6c1.8-0.3,3.2-1,4-2c0.8-1,1.1-2.3,0.8-4
				c-0.3-1.9-1-3.2-2.1-4c-1.1-0.8-2.5-1-4.3-0.7l-1.9,0.3l1.9,10.7L246.3,101.6z"/>
			<path class="st1" d="M273.5,85.4c0,0-0.2,0-0.5-0.1c-0.3,0-0.7,0-1.1,0c-0.4,0-0.9,0-1.3,0.1c-1.6,0.3-2.8,1-3.5,2.2
				c-0.7,1.2-0.9,2.8-0.5,4.7c0.4,2,1.1,3.4,2.2,4.3c1.1,0.9,2.4,1.2,4,0.9c0.5-0.1,0.9-0.2,1.3-0.4c0.4-0.2,0.9-0.5,1.3-0.8
				l0.2-2.7l3.3,0.2l-0.1,4.6c-0.9,0.6-1.7,1.1-2.5,1.5c-0.8,0.4-1.8,0.7-2.9,0.9c-1.8,0.3-3.4,0.3-4.9-0.1
				c-1.5-0.4-2.7-1.2-3.7-2.5c-1-1.2-1.7-2.9-2.1-5.1c-0.3-1.9-0.3-3.7,0.2-5.2c0.5-1.5,1.4-2.7,2.6-3.7c1.2-1,2.7-1.6,4.5-1.9
				c1.2-0.2,2.3-0.3,3.2-0.2c0.9,0.1,1.9,0.3,2.9,0.7l1.7,4.2l-3.1,1.3L273.5,85.4z"/>
			<path class="st1" d="M280.5,98.8l-0.6-3.3l2.9-0.5l2.4-11.4l-2.3,0.4l-0.6-3.3l7-1.3l7.9,13l2.6-0.5l0.6,3.3l-7.7,1.4l-0.6-3.3
				l1.4-0.3l-1.3-2.3l-5.6,1l-0.4,2.6l1.6-0.3l0.6,3.3L280.5,98.8z M287,89.3l3.9-0.7l-3-5.2L287,89.3z"/>
			<path class="st1" d="M298,78l7.9-1.4l7.9,10.9l-1.5-8.6l-2.2,0.4l-0.6-3.3l8.1-1.5l0.6,3.3l-2.7,0.5l2.5,13.9l-4.3,0.8l-9.5-12.7
				l1.9,10.7l2.5-0.4l0.6,3.3l-8.1,1.5l-0.6-3.3l2.4-0.4L301,80.8l-2.4,0.4L298,78z"/>
			<path class="st1" d="M331.4,75.1c0,0-0.2,0-0.5-0.1c-0.3,0-0.7,0-1.1,0c-0.4,0-0.9,0-1.3,0.1c-1.6,0.3-2.8,1-3.5,2.2
				c-0.7,1.2-0.9,2.8-0.5,4.7c0.4,2,1.1,3.4,2.2,4.3c1.1,0.9,2.4,1.2,4,0.9c0.5-0.1,0.9-0.2,1.3-0.4c0.4-0.2,0.8-0.5,1.3-0.8
				l0.2-2.7l3.3,0.2l-0.1,4.6c-0.9,0.6-1.7,1.1-2.5,1.5c-0.8,0.4-1.8,0.7-2.9,0.9c-1.8,0.3-3.4,0.3-4.9-0.1
				c-1.5-0.4-2.7-1.2-3.7-2.5c-1-1.2-1.7-2.9-2.1-5.1c-0.3-1.9-0.3-3.7,0.2-5.2c0.5-1.5,1.4-2.7,2.6-3.7c1.2-1,2.7-1.6,4.5-1.9
				c1.2-0.2,2.3-0.3,3.2-0.2c0.9,0.1,1.9,0.3,2.9,0.7l1.7,4.2l-3.1,1.3L331.4,75.1z"/>
			<path class="st1" d="M336.5,71.1l13.3-2.4l2.8,5.1l-2.9,1.6l-1.6-3l-4.8,0.9l0.6,3.6l4.8-0.8l0.6,3.2l-4.8,0.9l0.7,3.8l5.6-1
				l0.5-3l3.3,0.5l-0.8,5.4l-14.1,2.5l-0.6-3.3l2.4-0.4L339.4,74l-2.4,0.4L336.5,71.1z"/>
			<path class="st1" d="M356.8,85.2l-0.6-3.3l2.3-0.4l-1.9-10.7l-2.3,0.4l-0.6-3.3l7.7-1.4c1.8-0.3,3.3-0.3,4.4-0.1
				c1.1,0.3,1.9,0.8,2.5,1.7c0.5,0.8,0.9,1.8,1.1,3c0.3,1.9,0.1,3.5-0.8,4.6c-0.9,1.1-2.3,1.9-4.3,2.2l-2.5,0.4l0.4,2.3l1.4-0.2
				l0.6,3.3L356.8,85.2z M361.4,75.3l1.4-0.3c0.8-0.1,1.5-0.3,1.9-0.6c0.4-0.2,0.7-0.6,0.9-1c0.1-0.4,0.2-0.9,0-1.6
				c-0.1-0.7-0.3-1.2-0.7-1.5c-0.3-0.3-0.7-0.5-1.2-0.6c-0.5-0.1-1.1,0-1.8,0.1l-1.4,0.3L361.4,75.3z M368,83.2l-4.3-5.4l3.3-1.2
				l2.7,3l3-0.5l0.6,3.3L368,83.2z"/>
		</g>
	</g>
</g>
</svg>
