<?xml version="1.0" encoding="UTF-8"?>
<svg id="Layer_2" data-name="Layer 2" xmlns="http://www.w3.org/2000/svg" viewBox="0 0 357.82 101.61">
  <defs>
    <style>
      .cls-1 {
        fill: #fbfbfa;
      }

      .cls-2 {
        fill: #fff;
      }

      .cls-3 {
        fill: #060605;
      }

      .cls-4 {
        fill: #e8118a;
      }

      .cls-5 {
        fill: #545251;
      }

      .cls-6 {
        fill: #8dc342;
      }

      .cls-7 {
        fill: #2babe1;
      }

      .cls-8 {
        fill: #0b0a0b;
      }

      .cls-9 {
        fill: #d6de27;
      }

      .cls-10 {
        fill: #14a89e;
      }

      .cls-11 {
        fill: #ef6726;
      }

      .cls-12 {
        fill: #92298c;
      }

      .cls-13 {
        fill: #e92327;
      }
    </style>
  </defs>
  <g id="Layer_1-2" data-name="Layer 1">
    <g>
      <path class="cls-3" d="M148.19,37.34c1.35,1.25,2.97,1.89,4.79,2.07,.12,.53,.6,.39,.95,.5,.07,.26,.17,.46,.5,.33,.48,0,.96,0,1.44,.01,1.12,.47,2.24,.95,3.35,1.42,.32,0,.64,0,.96,0,.16,0,.33,0,.49,0,.32,.16,.63,.32,.95,.48,4.86,1.11,9.8,1.79,14.22,4.46,5.65,3.42,10.77,11.83,9.44,19.32-1.94,10.97-7.78,17.75-18.49,20.12-5.85,1.3-11.94,2.41-17.82,.2-9.03-3.4-14.46-9.98-16.08-19.52-.52-3.05,1.59-5.29,4.72-5.33,3.94-.06,7.89-.18,11.73,.98,.86,.26,1.83,.38,2.22,1.48,1.66,4.7,2.64,5.46,7.2,5.18,2.64-.16,5.13-1,7.23-2.67,2.65-2.1,2.4-4.17-.59-5.76-3.16-1.69-6.68-2.18-10.08-3.03-5.78-1.45-11.5-2.92-16.64-6.19-4.51-2.88-7.02-6.85-7.8-12.04,.03-2.38-.09-4.77,.12-7.13,.21-2.46-.07-5.25,1.71-7.15,2.31-2.45,3.36-5.91,6.4-7.73h-.02c4.67-1.68,9.38-3.19,14.4-3.44,3.39,.29,6.84,.54,10.17,.44,8.11-.23,16.71,5.69,19.01,14.79,1.12,4.46-.53,6.17-5.27,6.07-1.73-.04-3.56,.28-5.36,.37-3.49,.16-6.51-.56-8.38-3.91-.33-.59-1.02-.97-1.55-1.44-2.81-3.02-8.69-3.31-12.85-.64-.15,.24-.3,.47-.45,.71-2.39,2.66-2.67,4.52-1.01,6.69-.03,.29,.06,.46,.39,.38Zm22.09-19.04c-.31-.52-.79-.52-1.3-.41-.25-.52-.74-.45-1.2-.57-2.58-.64-5.26-.06-7.8-.53-5.19-.96-10.13,.02-15.17,.99-5.92,1.14-8.59,5.82-10.62,10.33-1.41,3.12-1.34,7.21-.59,10.94,.61,3,1.55,5.85,3.83,7.93,3.76,3.42,8.35,5.38,13.2,6.74,4.85,1.36,9.88,2.06,14.62,3.87,2.49,.95,4.84,2.09,5.13,5.22-.07,1.25-.27,2.41-.97,3.55-2.04,3.34-5.46,4.28-8.83,5.03-5.81,1.29-8.95-.44-11.36-5.83-.16-.36-.12-.73-.63-.82-3.72-.66-7.45-1.21-11.23-.89-1.1,.09-1.71,1-1.65,2.21,.11,2.2,.7,4.28,1.55,6.3,1.23,2.64,2.86,4.96,5.16,6.78,.14,.53,.56,.5,.97,.49l-.02-.02c.29,.69,.9,1.04,1.47,1.45,7.13,5.24,14.79,4,22.53,1.89,3.04-.59,5.97-1.54,8.28-3.68,4.03-3.73,6.36-8.25,7.17-13.82,.84-5.75-1.03-10.22-4.79-14.21-4.25-4.52-9.97-5.56-15.72-6.66-4.96-.95-9.9-2.08-14.35-4.67-2.85-1.66-3.88-4.18-3.22-6.99,1.52-6.44,8.7-8.42,14.62-7.14,3.38,.73,5.05,3.56,7.48,5.46,.07,.91,.5,1.29,1.48,1.44,3.04,.44,6.09,.53,9.15,.45,2.57-.07,3.38-1.22,2.72-3.68-.94-3.48-2.8-6.33-5.66-8.52l-.02-.18-.16-.06c-.44-.54-.94-.98-1.69-1l.02,.02c-.54-.93-1.43-1.28-2.43-1.45l.03,.03Z"/>
      <path class="cls-3" d="M283,71.17c-.63,1.77-.77,3.62-.57,5.45,.57,5.18,1.29,10.34,1.84,15.53,.09,.88,.36,1.69,.63,2.45,1.37,3.95-.01,6.13-4.1,6.05-1.75-.03-3.41,.27-5.07,.72-3.12,.85-5.23-.46-5.26-3.65-.04-3.16-.48-6.29-.5-9.44-.03-5.51-.95-10.92-1.55-16.36-.01-4.34-.59-8.63-1.16-12.91-.35-2.58-1.37-5.25-.99-7.72,.81-5.38-.63-10.45-1.37-15.61-.38-2.64,.37-4.7,2.78-5.92,1.99,.01,3.99,.04,5.98,.03,3.55,0,4.09,.48,4.45,3.93,.05,.44,.28,.87,.43,1.3-.36,2.75,.49,5.42,.52,8.14,.07,5.01,.58,9.97,1.51,14.89,2.08,1.45,4.18,.05,6.23-.09,3.71-.25,7.39-.98,11.11-1.28,1.56-.13,3.09-.33,4.62-.64,2.45,.42,4.85-.24,7.23-.56,1.13-.15,3.52,.29,3.24-2.31-.75-6.44-1.91-12.79-3.47-19.09-.32-1.31-.53-2.69-.71-4.03-.33-2.38,1.57-4.35,4.23-4.56,1.79-.14,3.57-.08,5.38-.44,2.2-.44,4.02,1.16,4.2,3.56,.18,2.42,.74,4.81,.55,7.28-.17,2.18,.5,4.24,1.09,6.35,.62,2.22,.58,4.63,.79,6.96,.39,4.4,1.08,8.75,1.89,13.09-.86,.58-.5,1.49-.41,2.18,.76,5.72,1.49,11.44,2.53,17.11,.17,.93-.43,2.53,1.15,3.06,.15,1.38,.33,2.76-.29,4.08-.16,1.58-.32,3.16-.47,4.74-.38,.88-1.09,.99-1.95,.97-2.19-.05-4.32,.39-6.45,.85-3.03,.65-5.05-.83-5.05-4.01,0-4.65-.36-9.29-.36-13.94,0-3.27-.94-6.83-1.64-10.23-.16-.78-.94-.5-1.4-.44-3.13,.43-6.26,.91-9.38,1.43-1.67,.28-3.32,.68-4.98,1.02-4.66-.61-9.19,.73-13.79,.95-.44,.02-1.52,0-1.43,1.08Zm30.08-43.21c-1.33-.4-1.72,.56-1.87,1.49-.16,1.01-.28,2.14,0,3.09,1.81,5.99,2.64,12.18,3.76,18.31,.67,3.62-.47,5.54-4.05,6.37-2.07,.48-4.2,.59-6.28,.91-7.39,1.13-14.88,1.3-22.23,2.74-1.93,.38-3.4-.48-3.95-2.75-.45-1.85-.58-3.73-.79-5.57-.67-6.03-1.06-12.09-1.5-18.15-.12-1.66-.78-2.39-2.52-2.23-1.34,.13-2.71,.03-4.07,.03-2.89-.01-3.03,.3-2.6,3.27,.74,5.05,1.74,10.06,1.61,15.24-.04,1.82,.04,3.76,.29,5.66,.43,3.26,1.05,6.5,1.16,9.83,.07,2.1,.17,4.26,.47,6.36,.58,4.12,1.36,8.21,1.39,12.4,0,1.4-.28,2.85,.42,4.18-.09,.28-.28,.56-.27,.84,.09,2.19,1.34,4.27,.41,6.62-.15,.39-.45,2.62,1.32,2.6,2.92-.03,5.88-.03,8.61-1.33,1.67-.38,.9-1.53,.72-2.42-.12-.6-.62-1.13-.68-1.73-.71-6.89-1.82-13.74-2.03-20.69-.09-2.81,1.58-4.57,4.26-4.88,5-.59,10.03-.86,15.01-1.55,2.42-.34,4.98-.19,7.25-1.37,2.85,.21,5.69-1.16,8.54-.06,.48,.29,.95,.59,.96,1.24,.03,6.13,1.66,12.14,1.44,18.3-.04,1.19,.09,2.34,.48,3.46-.07,.04-.18,.06-.2,.12-1.27,4.72-1.11,4.93,3.49,4.65,1.67,.67,2.92-1.31,4.5-.78,1.04,.35,1.06-.14,1.35-.9,1.53-4-.23-7.76-.8-11.58-.8-5.33-1.84-10.64-2.06-16.02-.22-5.46-1.38-10.78-2.04-16.17,.75-2.48-.44-4.79-.78-7.13-.51-3.47-1.11-6.89-.94-10.43,.08-1.64-.99-3.15-2.54-2.85-1.73,.33-3.62-.05-5.23,.91Z"/>
      <path class="cls-8" d="M43.71,30.83c1.15-.64,2.42-.56,3.67-.56,1.41,0,2.84-.23,3.56,1.55,.68,1.67,.15,3.06-.84,4.26-5.09,6.18-9.44,12.97-15.11,18.68-.25,.05-.46,.13-.37,.45,0,0,.02-.02,.02-.02-.23,0-.55-.08-.69,.04-2.05,1.84-3.47,4.19-5.16,6.33-.4,.51-.44,1.22,.09,1.45,1.94,.84,3.39,2.72,5.71,2.74,0,0-.02-.02-.02-.02-.16,1.28,.79,.92,1.46,.98,0,0-.02-.01-.02-.01-.08,.46,.18,.48,.51,.4,.87,.25,1.29,1.03,1.91,1.57,.24,.31,.37,.87,.95,.42,0,0-.02-.01-.02-.01-.34,1.08,.6,1.19,1.18,1.55,4.33,2.66,8.66,5.33,13.02,7.94,2.12,1.27,4.08,2.7,5.47,4.78-.31,2.31-2.12,2.72-3.96,3.32-4.19,1.35-8.51,1.57-12.83,1.76-.64,.03-1.43-.53-1.96-1.02-1.72-1.6-3.66-2.81-5.85-3.63,.17-.78-.41-1.18-.89-1.54-3.78-2.8-7.54-5.62-11.4-8.31-.88-.61-1.4-1.86-2.9-1.93,.55,2.02,1.04,3.85,1.53,5.68-.78,1.72-.86,3.51-.04,5.18,.88,1.79,.83,3.75,1.35,5.6,.44,1.56-1.04,3.95-2.56,3.99-2.6,.07-5.08,.84-7.64,1-2.46,.16-3.29-.69-3.66-3.16-1.11-7.48-2.15-14.93-2.51-22.52-.29-6.15-1.79-12.24-2.74-18.37-.1-.62-.07-1.27-.1-1.9,.02-.71,.29-1.54,0-2.09-.76-1.44,.49-3.41-1.26-4.54,.86-1.99,.08-4.05-.25-5.89-.6-3.27,.17-6.59-.77-9.81-.43-1.47-.35-3.08-.57-4.61-.24-1.64,.23-2.92,1.67-3.8,1.33,.23,2.53-.08,3.65-.79,2.01,.08,4-.33,6.05,.29,1.66,.49,2.2,1.53,2.58,2.94,.46,1.76,.95,3.51,1.42,5.26,0,1.65,.19,3.32-.05,4.93-.18,1.24-.57,2.47-.4,3.73,.88,6.43,1.07,12.94,2.4,19.31,.11,.52-.18,1.23,.44,1.49,.76,.33,1.07-.53,1.49-.89,1.93-1.66,3.6-3.59,5.01-5.69,.52-.77,1.61-1.46,1.12-2.7,1.78-3.66,4.65-6.58,6.89-9.93,1.07-1.59,2.97-1.5,4.54-2.04,.42-.14,.97,.07,1.2-.52,2.05,.27,3.88-.35,5.63-1.34Zm-25.32,59.3c1.25-.52,2.01-1.03,1.41-2.75-2.08-6.01-1.02-12.59-3.5-18.55,2.05-.61,3.58-.28,4.83,1.32,.73,.93,1.56,1.87,2.53,2.51,5.26,3.43,10.01,7.55,15.22,11.07,3.52,2.38,6.91,2.93,10.79,2.05,1.05-.24,1.91-.87,3.16-.82,1.03,.05,2.52-.68,2.73-1.9,.18-1.03-1.05-1.52-1.94-2.09-6.3-4.01-12.91-7.55-18.92-12.04-2.13-1.59-4.59-2.73-6.82-4.19-1.1-.72-2.64-1.94-1.64-3.18,2.25-2.79,3.95-6.01,6.95-8.26,3.67-2.75,6.02-6.74,8.6-10.48,2.55-2.51,4.35-5.64,6.7-8.32,.38-.44,.83-1,.38-1.68-.47-.72-1.21-.79-1.91-.58-2.05,.6-4.08,1.29-6.12,1.94-3.37,.45-6.47,1.03-8.6,4.37-2.19,3.44-4.34,6.91-6.53,10.35-2.64,4.17-6.99,7-9.42,11.55-.53-.85-.63-1.59-.92-2.15-1.15-2.23,.22-4.42-.16-6.71-.77-4.56-1.4-9.17-1.75-13.81-.32-4.37-.25-8.73-.49-13.09-.11-1.98-.51-4.09-1.62-5.81-1-1.55-2.46-.02-3.7-.17-.22-.03-.4-.28-.62-.34-2.9-.71-4.64,.57-4.52,3.44,.17,4.17,1.06,8.27,1.01,12.48-.03,3.12,.5,6.26,.94,9.37,.73,5.11,1.73,10.18,2.35,15.3,.64,5.3,.74,10.68,1.56,15.95,.31,2-.21,4.13,.83,6.02-.8,.38-.63,1.25-.43,1.66,1.17,2.42,1.19,5.09,1.84,7.61,.17,.68,.4,1.47,1.08,1.24,2.19-.71,4.59-.27,6.69-1.34Z"/>
      <path class="cls-8" d="M261.31,48.07c-.03,5.68,1.43,11.17,2.67,16.62,1.43,6.28,.49,12.23-1.93,17.82-1.74,4.02-4.94,7.16-8.99,9.48-6,3.43-12.23,5.59-19.2,5.33-3.61-.13-6.96-1.43-10.24-2.65-2.24-.83-4.76-1.42-6.5-3.41-1.77-2.01-1.86-4.07-.06-6,.54-.58,1.12-1.14,1.69-1.69,2.06-2.02,3.61-2.14,6-.53,.51,.34,1.06,.64,1.58,.95,.27,.27,.48,.64,.81,.8,3.11,1.47,6.3,1.61,9.72,1.11,3.85-.57,7.53-.5,10.81-3.6,2.52-2.37,4.08-5.06,5.67-7.9,.7-1.25-.41-2.18-1.01-2.79-.47-.48-1.07,.54-1.17,1.3-1.75,.9-2.81,2.61-4.57,3.59-2.63,1.46-5.46,1.99-8.29,2.58-3.33,.69-6.74,.64-10.13,.52-3.77-.14-7.21-1.42-10.43-3.35-.06-.24-.14-.45-.45-.4,0,0-.04-.1-.04-.1-.18-.15-.36-.29-.54-.44l.03,.03c-1.77-2.49-4.16-4.42-5.88-7-3.56-5.32-4.01-11.38-4.75-17.4,1.56-9.67,5-18.19,14.48-22.78,3.87-1.87,7.98-3.1,12.38-2.65,3.03,.31,6.19-.79,9.11,.93,.63,.37,1.53,.13,1.87-.61,1.62-3.51,5.06-3.43,8.08-4.09,1.07-.23,2.23-.06,3.34-.06,2.25,0,2.72,1.68,3.14,3.39,.35,5.53,1.22,11.01,1.6,16.54,.15,2.14-.22,4.52,1.2,6.48Zm1.34,24.82c.21-2.63,.32-5.26-.86-7.74-.59-3.52-1.24-7.03-1.77-10.56-.89-5.96-1.71-11.91-2.14-17.94-.31-4.25-.64-8.55-1.92-12.67-2.42-1.08-4.7-.03-7.03,.43-2.77,.58-3.7,2-3.12,4.75-2.04,.19-2.07,.25-3.17-.34-4.79-2.58-10-1.86-14.85-1.06-11.05,1.82-16.42,9.7-19.21,19.83-1.15,4.18-.63,8.4,.63,12.27,4.51,13.88,12.43,19.28,26.5,17.74,2.65-.29,5.44-.5,7.86-1.92,2.4-.75,4.33-2.14,5.74-4.24,.7-1.05,1.42-2.06,2.89-1.99,2.13,.23,3.99,4.02,2.85,5.94-1.22,2.06-2.35,4.21-3.85,6.06-1.85,2.28-3.95,4.64-6.92,5.24-4.06,.82-8.21,1.15-12.4,1.11-2.9-.03-5.31-.86-7.47-2.69-.84-.71-1.67-1.45-2.91-1.09-2.24,.51-3,2.33-3.73,4.19-.33,1.39,.56,1.89,1.6,2.49,2.77,1.59,5.77,2.52,8.78,3.52,4.72,1.57,9.44,1.68,14.07,.32,7.3-2.15,13.96-5.35,17.7-12.63,.95-1.85,1.65-3.69,1.93-5.73,.91-.94,0-2.32,.78-3.29Z"/>
      <path class="cls-3" d="M120.8,65.23c-2.32,.08-4.67,.25-5.21-2.9-.14-.83-.78-.52-.98-.13-1.34,2.61-4.07,3.25-6.33,4.54-1.08-.42-2.14,.11-2.93,.55-4.64,2.55-9.55,1.14-14.09,.44-5.22-.81-10.31-3-13.61-7.74-.3-.44-.77-.53-1.27-.5-.16-1.42-1.34-2.25-2.02-3.36-1.77-2.89-2.29-6.11-2.33-9.37-.03-2.9-.44-5.84,.39-8.73,.18-.62,.2-1.38-.22-2.07-.5-.83-.43-1.85,.5-2.23,1.64-.68,2.21-2.18,2.89-3.5,2.12-4.08,5.18-7.09,9.34-9.05,1.73-.81,3.38-1.82,5.07-2.69,2.54-1.31,5.43-.73,8.15-.43,.93,.1,1.87,.26,2.8,.24,2.23-.06,4.36,.04,6.3,1.39,.84,.58,1.59,.8,1.43-.97-.35-3.87-1.73-7.49-2.43-11.28-.19-1.04-.3-2.12-.65-3.17-.62-1.91,.51-3.28,2.36-3.61,3.47-.62,7-1.02,10.49-.04,1.22,.34,2.44,.49,3.71,.5,.89,0,1.92,0,2.07,1.34,.13,1.2-.35,2.24-1.43,2.39-1.54,.22-1.55,1.15-1.44,2.2,.34,3.25,.53,6.55,1.21,9.73,.38,1.79,.39,3.63,.5,5.34,.22,3.29,1.01,6.52,1.09,9.78,.13,5.42,1.35,10.68,1.86,16.03,.37,3.81,.97,7.57,1.51,11.34,.47,3.36-.35,4.12-4.77,5.59-.68,0-1.45-.41-1.97,.4Zm-17.2-44.61c-.6-.82-1.46-.36-2.19-.38-2.14-.07-4.4,.37-6.4-.15-2-.52-3.38-.24-4.74,1.1-.12,.1-.22,.26-.35,.3-7.56,2.09-11.59,7.99-15.33,14.19-.22,.37-.17,.91-.18,1.38-.12,3.68-.3,7.34-.18,11.05,.18,5.74,3.72,9.38,7.05,12.92,2.79,2.96,7.14,4.11,11.17,5,2.66,.59,5.75,.95,8.2,.4,4.73-1.07,9.79-2.06,13.23-6.26,.84-1.02,2.28-1.47,3.2,.29,1.22,2.33,3.05,2.92,5.81,1.89,2.32-.42,2.81-1.35,2.45-3.6-.43-2.67-.95-5.33-1.18-8.06-.17-2.02,.03-4.15-.84-6.1-.02-.96,.14-1.96-.09-2.86-1.34-5.21-.84-10.65-1.91-15.87-.68-3.29,.1-6.66-.9-9.88-1.21-3.85-2.06-7.73-.9-11.76,.39-1.36-.44-1.6-1.49-1.64-1.58-.45-3.16-1.05-4.78-.17-1.11,.03-2.22,.09-3.33,.08-.62,0-1.45,.44-1.27,.72,1.14,1.76-.51,3.43,.08,5.27,1.24,3.91,2.06,7.96,2.98,11.96,.37,1.62-.32,2.59-2.06,2.65-.55,.02-1.11,.04-1.66,.06-.28-.21-.57-.42-.85-.63-.71-1.47-2.38-1.19-3.5-1.91Z"/>
      <path class="cls-8" d="M347.02,65.15c1.15,.2,2.32,.36,3.46,.61,2.63,.59,3.54,2.43,2.99,5.43-.32,1.75-1.21,3.36-.7,5.34,.44,1.69-1.31,2.06-2.5,2.58-2.25,.98-4.41,.16-6.53-.49-3.2-.98-6.41-1.85-9.32-3.75-3.02-1.97-3.32-4.92-2.97-7.71,.26-2.14,.17-4.33,.72-6.5,.97-3.81,1.44-7.76,1.95-11.67,.46-3.57,.66-7.18,1.01-10.77,.13-1.31-.31-2.63,.39-3.96,.41-.77-.12-1.63-1.18-1.56-1.29,.09-2.4-.68-3.71-.59-1.04,.07-1.68-.68-1.74-1.82-.13-2.45,.25-4.83,.71-7.24,.46-2.4,2.01-2.46,3.95-2.38,3.82,.16,4.11-.35,3.53-4.29-.22-1.49-.14-3.04-.02-4.54,.17-1.94,1.72-2.39,3.3-2.61,3.19-.45,6.3,.63,9.49,.54,1.42-.04,2.66,2.5,2.35,4.05-.43,2.14-1.38,4.11-1.99,6.19-.51,1.77,.19,1.68,1.37,1.66,1.28-.03,2.56-.06,3.83,.01,2.11,.13,2.69,1.23,2.27,3.38-.48,2.44-.66,4.93-1.02,7.4-.36,2.51-1.29,3.14-3.69,2.42-.54-.16-1.07-.22-1.61-.31-2.17-.37-2.89,.3-2.93,2.7-.08,5.69-.63,11.38-.98,17.06-1.41,2.98-1.51,6.21-1.78,9.41-.08,.87,.24,1.56,1.34,1.42Zm2.55,11.57c1.96-.86,.4-2.55,.89-3.76,2.05-3.22,1.42-4.77-2.18-5.34-.85-.13-1.78-.14-2.5-.54-1.02-.56-2.79-.81-2.43-2.42,.34-1.5,.11-3.02,.45-4.44,1.73-7.16,2.22-14.43,2.44-21.77,.06-2.03-.03-4.25,.92-6.22,1.57,.02,3.11-.1,4.71,.36,2.19,.64,2.82-.01,2.83-2.3,.53-.65,.53-1.41,.59-2.22,.25-4.03,.28-4.04-3.84-4.02-1.54,0-3.1,.16-3.46-1.92-.21-2.72,.84-5.14,1.74-7.62,.79-2.16,.26-2.86-2.02-2.95-1.82-.07-3.63-.03-5.45-.04-.09-.12-.21-.19-.36-.2-.61-.27-1.19-.43-1.53,.38-.16,.54-.56,.91-.7,1.56-.4,1.76-.14,3.48-.2,5.2-.15,4.02-.71,4.62-4.67,4.64-.72,0-1.43,.05-2.15,.07-.4-.05-.67-.08-.87,.46-.61,1.68-.54,3.39-.4,5.11-.15,.87-.17,1.71,1.07,1.51,1.39-.23,2.61,.59,3.98,.53,1.45-.07,1.66,.91,1.51,2.1-.62,5.21-1.51,10.42-1.77,15.65-.26,5.2-1.88,10.15-2.3,15.31-.5,6.15-.11,9.15,6.29,11.42,2.27,.81,4.64,1.37,7,1.88,.75,.16,1.75,.47,2.43-.41Z"/>
      <path class="cls-3" d="M69.12,71.05c0,.8,.1,1.61-.02,2.39-.23,1.4-.75,2.56-2.57,2.33-2.78-.35-5.49,.49-8.26,.48-2.08-.01-2.93-.88-3.14-3.09-.29-3-.38-5.98-.4-8.97-.02-3.07,.5-6.07,.92-9.09,.46-3.32-.29-6.63-.59-9.91-.2-2.13-.16-4.24-.28-6.35-.25-4.25,.41-8.51-.38-12.77-.18-.95,.94-2.22,2.12-2.4,3.09-.48,6.21-.69,9.31-1.07,1.5-.19,1.97,.38,1.86,1.84-.34,4.68,0,9.38,.56,13.99,.64,5.29-.22,10.68,1.25,15.89-.65,2.97-.2,5.97-.25,8.95-.27,.46,.38,.59,.35,.97-.23,2.27-1.69,4.46-.49,6.83Zm-12.45-43.5c0,2.29,0,4.58,0,6.87,.18,3.94-.08,7.87,.34,11.84,.31,2.94,1.12,5.97,.56,8.94-.8,4.21-.96,8.43-.92,12.69,.04,5.27,1.06,6.3,6.12,5.97,3.65-.24,3.63-.24,3.97-3.73,.08-.85,.37-1.67,.56-2.51,.7-3.67,.6-7.34,.05-11.01-.02-5.59-.77-11.15-.67-16.75,.04-2.29-.15-4.62-.93-6.84,0-2.37-.06-4.75,.06-7.12,.07-1.45-.55-1.53-1.69-1.32-1.97,.37-3.95,.65-5.93,.96-1.65-.2-1.51,.94-1.5,1.99Z"/>
      <path class="cls-3" d="M193.7,28.28c1.89-.6,3.92-.27,5.83-1.22,1.17-.59,2.69,.05,3.06,1.79,.08,.38,.25,.77,.23,1.15-.47,7.3,1.25,14.5,.97,21.78-.21,5.32,.66,10.58,.56,15.9-.07,3.72-.83,7.4-.55,11.13,.16,2.09-1.85,1.5-2.72,1.64-2.22,.37-4.52,.2-6.81,.52-2.93,.41-4.11-.57-4.26-4.42-.22-5.58-.58-11.21,.72-16.76,.61-2.58-.47-5.12-.56-7.7-.04-1.19-.02-2.5-.34-3.72,.03-5.17,.05-10.34,.07-15.52,0-.46,.1-.98-.47-1.22,.02-.45,.04-.89,.06-1.34,1.1-1.32,2.47-2.07,4.22-2.01Zm7.14,4.79c.03-.77,.04-1.54,.08-2.31,.11-1.71-.68-1.73-1.87-1.01-1.11,.03-2.23-.01-3.34,.1-1.24,.13-2.61,.13-3.67,.67-1.8,.91-.1,2.39-.12,3.59-.09,4.3-.7,8.55-.22,12.93,.55,5.07,1.43,10.22,.68,15.39-.82,5.08-.86,10.15-.12,15.25,.17,1.17,.81,1.67,1.73,1.37,2.09-.68,4.23-.18,6.31-.49,1.57,.24,1.58-.8,1.58-1.89,0-1.77-.2-3.57,.53-5.27,.72-3.16,.52-6.32,.01-9.49-.21-2.27-.42-4.54-.63-6.81-.12-3.19,.63-6.42-.4-9.58-.19-4.15-.37-8.3-.56-12.45Z"/>
      <path class="cls-10" d="M267.67,29.76c-2.41,1.22-3.16,3.28-2.78,5.92,.74,5.16,2.19,10.22,1.37,15.61-.37,2.47,.65,5.13,.99,7.72,.57,4.29,1.15,8.57,1.16,12.91-1.45-1.07-1.1-2.81-1.53-4.24-1.51-5-2.02-10.21-3.1-15.31-.23-1.1,.45-2.16,.24-3.43-.97-5.74-.9-11.55-.83-17.35,.01-1.15,.71-2.1,1.36-3,.51-.7,1.83-.18,3.12,1.18Z"/>
      <path class="cls-3" d="M53.22,5.37c3.45-3.74,7.67-3.47,11.79-1.75,3.08,1.28,4.48,4.11,4.51,7.5-1.18,.86-.77,2.42-1.67,3.51-2.21,2.69-5.2,3.48-8.34,3.59-1.92,.06-3.85-.36-5.22-2.4-2.27-3.39-1.45-6.89-1.07-10.44Zm3.48-.15c-1.66,.61-2.21,1.8-1.98,3.52,.13,1.02-.03,2.07,.04,3.1,.19,2.82,1.87,4.42,4.69,4.54,1.61,.07,3.13-.38,4.52-1.1,2.8-1.43,3.58-2.91,3.22-5.68-.36-2.73-1.83-4.2-4.87-4.82-1.94-.64-3.83-.74-5.63,.43Z"/>
      <path class="cls-3" d="M187.9,10.69c3.9-4.7,10.91-4.72,15.03-.05,.15,.35,.31,.7,.46,1.04,.91,2.54,.75,5.07-.1,7.58l.02-.03c-.45,.16-.84,.36-.57,.95,0,0,.04-.05,.04-.05-2.85,.99-5.31,2.99-8.71,2.59-3.45-.41-5.75-2.62-6.18-6.1-.25-2.02-.09-3.96,0-5.94Zm4.36-.93c-2.03,.71-2.96,2.11-2.86,4.28,.06,1.43,.51,2.74,.86,4.09,.67,2.55,3.55,3.45,5.41,2.98,5-1.28,6.66-3.21,6.68-5.81,0-.08,0-.16-.01-.24-.63-4.15-1.22-4.74-5.73-5.78-1.47,0-2.99-.48-4.35,.48Z"/>
      <path class="cls-4" d="M251.16,72.89c.1-.75,.7-1.77,1.17-1.3,.6,.61,1.71,1.54,1.01,2.79-1.59,2.84-3.16,5.53-5.67,7.9-3.29,3.1-6.97,3.02-10.81,3.6-3.41,.51-6.61,.37-9.72-1.11-.32-.15-.54-.53-.81-.8,.79-.73,1.76-.55,2.7-.56,3.96-.06,7.92,.4,11.89,.01,5.94-.58,9.91-4.84,10.24-10.54Z"/>
      <path class="cls-13" d="M53.22,5.37c-.38,3.55-1.2,7.05,1.07,10.44,1.37,2.04,3.3,2.47,5.22,2.4,3.14-.1,6.13-.9,8.34-3.59,.9-1.09,.49-2.65,1.67-3.51,.82,2.54-.46,4.65-2.07,6.07-4.07,3.58-5.45,3.64-10.82,1.93-3.07-.98-5-2.53-5.91-5.54-.94-3.12,.11-6.65,2.5-8.21Z"/>
      <path class="cls-12" d="M76.39,59.49c.5-.03,.96,.06,1.27,.5,3.3,4.74,8.39,6.94,13.61,7.74,4.54,.7,9.45,2.11,14.09-.44,.79-.43,1.85-.96,2.93-.55-7.29,3.95-14.93,4.6-22.6,1.63-4.14-1.6-7.26-4.81-9.29-8.89Z"/>
      <path class="cls-6" d="M25.44,44.64c.49,1.24-.6,1.93-1.12,2.7-1.41,2.1-3.08,4.03-5.01,5.69-.42,.36-.73,1.22-1.49,.89-.62-.26-.33-.97-.44-1.49-1.34-6.37-1.52-12.89-2.4-19.31-.17-1.26,.22-2.49,.4-3.73,.23-1.61,.05-3.28,.05-4.93,.89,.92,.85,2.27,.86,3.26,.03,2.77,1.33,5.4,.65,8.25-.3,1.26-.23,2.68,.65,3.87,.36,.48,.07,.98-.01,1.53-.53,3.46,.48,6.82,.55,10.52,3.21-2.03,4.55-5.36,7.31-7.25Z"/>
      <path class="cls-6" d="M20.79,77.68c-.49-1.83-.99-3.66-1.53-5.68,1.5,.07,2.02,1.32,2.9,1.93,3.86,2.68,7.63,5.51,11.4,8.31,.48,.35,1.06,.76,.89,1.54-2.98-.3-5.55-1.86-8.33-2.75-1.76-.57-2.82-2.06-3.86-3.37-.79-.99-1-.04-1.47,.03Z"/>
      <path class="cls-7" d="M139.09,17.32c-3.04,1.82-4.09,5.28-6.4,7.73-1.78,1.89-1.5,4.69-1.71,7.15-.21,2.36-.09,4.76-.12,7.13-2.37-4.04-1.91-8.14-.96-12.57,.97-4.53,3.83-6.92,7.42-8.97,.53-.3,1.05-.76,1.76-.47Z"/>
      <path class="cls-6" d="M59.05,83.35c-1.39-2.08-3.34-3.51-5.47-4.78-4.36-2.61-8.69-5.28-13.02-7.94-.58-.36-1.52-.47-1.18-1.55,.22,0,.49-.1,.66-.01,6.28,3.24,12.44,6.69,18.29,10.68,2.03,1.39,2.23,2.47,.73,3.6Z"/>
      <path class="cls-9" d="M187.9,10.69c-.09,1.98-.25,3.92,0,5.94,.43,3.47,2.73,5.68,6.18,6.1,3.39,.4,5.85-1.59,8.71-2.59-3.45,4.54-8.49,5.78-13.05,2.07-4.12-3.36-4.9-7.94-1.84-11.51Z"/>
      <path class="cls-4" d="M206.11,50.91c.74,6.03,1.18,12.09,4.75,17.4,1.72,2.57,4.11,4.51,5.88,7-2,.07-3.2-1.5-4.18-2.67-3.78-4.51-6.72-9.46-6.91-15.65-.06-2.07-.94-4.14,.46-6.08Z"/>
      <path class="cls-4" d="M261.31,48.07c-1.42-1.96-1.06-4.35-1.2-6.48-.38-5.53-1.25-11.01-1.6-16.54,2.25,.66,2.1,2.68,1.98,4.24-.25,3.19,.48,6.19,.98,9.27,.52,3.15,.77,6.36-.16,9.51Z"/>
      <path class="cls-10" d="M330.21,84.67c-1.58-.53-.98-2.13-1.15-3.06-1.05-5.67-1.78-11.39-2.53-17.11-.09-.69-.45-1.59,.41-2.18,1.21,2.71,1.55,5.66,1.87,8.53,.39,3.52,.58,7.05,1.33,10.52,.23,1.05,.06,2.19,.07,3.29Z"/>
      <path class="cls-10" d="M280.56,58.05c-.93-4.92-1.44-9.88-1.51-14.89-.04-2.71-.88-5.39-.52-8.14,1.46,1.22,1.03,3.08,1.36,4.6,.51,2.35,.62,4.83,.54,7.25-.1,3.02,.65,5.96,.52,8.96-.03,.74,.36,1.59-.39,2.21Z"/>
      <path class="cls-6" d="M34.6,65.74c-2.32-.02-3.77-1.91-5.71-2.74-.54-.23-.5-.94-.09-1.45,1.69-2.13,3.11-4.49,5.16-6.33,.13-.12,.45-.03,.69-.04-.15,2.2-1.83,3.61-2.81,5.38-.63,1.14-1.2,1.85,.27,2.9,.87,.62,2.13,1.03,2.5,2.28Z"/>
      <path class="cls-10" d="M283,71.17c-.09-1.08,.99-1.06,1.43-1.08,4.6-.22,9.13-1.56,13.79-.95-1.71,1.84-4.13,1.31-6.23,1.75-2.95,.62-5.98,.72-8.99,.28Z"/>
      <path class="cls-7" d="M149.26,29.56c4.16-2.67,10.03-2.38,12.85,.64-3.25-.12-6.5-.24-9.75-.34-1.03-.03-2.07-.02-3.04,.43-.02-.24-.04-.48-.06-.72Z"/>
      <path class="cls-7" d="M153.47,13.88c-5.02,.25-9.73,1.77-14.4,3.46,.12-1.52,1.01-2.24,2.43-2.66,3.94-1.18,7.9-1.66,11.97-.8Z"/>
      <path class="cls-10" d="M312.98,53.18c.28,2.6-2.1,2.16-3.24,2.31-2.38,.32-4.78,.98-7.23,.56,3.28-1.73,6.92-2.12,10.47-2.87Z"/>
      <path class="cls-9" d="M189.41,31.63c.58,.24,.48,.77,.47,1.22-.02,5.17-.05,10.34-.07,15.52-1.24-2.58-.32-5.27-.5-7.9-.14-2.14-.39-4.28-.35-6.43,.01-.8-.43-1.75,.45-2.41Z"/>
      <path class="cls-11" d="M347.02,65.15c-1.1,.14-1.42-.55-1.34-1.42,.28-3.19,.37-6.43,1.78-9.41,.67,3.02-.32,5.92-.71,8.85-.1,.79,.43,1.3,.27,1.98Z"/>
      <path class="cls-9" d="M193.7,28.28c-1.76-.06-3.13,.69-4.22,2.01-.3-1.72,.34-3.1,1.53-4.29,.78-.78,.82-.08,.93,.46-.08,.31,.05,.41,.34,.36,.47,.49,.94,.97,1.42,1.46Z"/>
      <path class="cls-6" d="M43.71,30.83c-1.75,.98-3.58,1.61-5.63,1.34,1.63-1.48,3.32-2.72,5.63-1.34Z"/>
      <path class="cls-11" d="M69.26,63.26c.05-2.98-.41-5.98,.25-8.95,1.03,3.01,.48,5.98-.25,8.95Z"/>
      <path class="cls-12" d="M120.8,65.23c.52-.81,1.28-.4,1.97-.4-.15,.67-.46,1.35-.4,2,.09,1.16-.78,1.78-1.44,1.61-1.23-.33-.1-1.18-.05-1.82,.03-.46-.04-.93-.07-1.39Z"/>
      <path class="cls-9" d="M203.29,19.27c.85-2.52,1.01-5.04,.1-7.58,.15,0,.28-.04,.4-.12,1.59,2.55,1.38,5.75-.5,7.71Z"/>
      <path class="cls-6" d="M1.65,40.89c1.75,1.12,.5,3.09,1.26,4.54,.29,.55,.01,1.39,0,2.09-1.4-2.02-1.28-4.33-1.25-6.63Z"/>
      <path class="cls-13" d="M69.12,71.05c-1.2-2.37,.25-4.56,.49-6.83,.05,2.29,.3,4.6-.49,6.83Z"/>
      <path class="cls-10" d="M329.44,93.49c.16-1.58,.32-3.16,.47-4.74,1.42,1.41,1.22,3.51-.47,4.74Z"/>
      <path class="cls-6" d="M5.38,15.98c-1.12,.72-2.33,1.03-3.65,.79,.68-2.72,2.09-2.11,3.65-.79Z"/>
      <path class="cls-1" d="M155.87,40.25c-.48,0-.96,0-1.44-.01,.07-.37,.15-.74,.62-.79,.59-.07,.75,.33,.82,.81Z"/>
      <path class="cls-6" d="M36.03,66.71c-.67-.06-1.61,.3-1.46-.98,.74-.06,1.21,.29,1.46,.98Z"/>
      <path class="cls-1" d="M153.93,39.9c-.35-.11-.83,.03-.95-.5,.81-.77,.87-.12,.95,.5Z"/>
      <path class="cls-1" d="M160.18,41.67c-.32,0-.64,0-.96,0,.05-.31,.09-.67,.48-.67,.39,0,.43,.36,.48,.66Z"/>
      <path class="cls-1" d="M161.62,42.15c-.32-.16-.63-.32-.95-.48,.71-.62,.84-.09,.95,.48Z"/>
      <path class="cls-1" d="M149.26,29.56c.02,.24,.04,.48,.06,.72-.17,0-.34,0-.51-.01,.15-.24,.3-.47,.45-.71Z"/>
      <path class="cls-1" d="M203.79,11.56c-.12,.09-.25,.13-.4,.12-.15-.35-.31-.7-.46-1.04,.58,.03,.86,.35,.87,.92Z"/>
      <path class="cls-6" d="M39.39,69.09c-.58,.45-.71-.11-.95-.42,.39-.02,.95-.43,.95,.42Z"/>
      <path class="cls-9" d="M202.75,20.18c-.27-.59,.12-.79,.57-.95,.18,.54,0,.86-.57,.95Z"/>
      <path class="cls-1" d="M192.28,26.82c-.3,.05-.43-.06-.34-.36,.11,.12,.23,.24,.34,.36Z"/>
      <path class="cls-6" d="M34.62,55.2c-.09-.32,.12-.41,.37-.45,0,.25,.13,.61-.37,.45Z"/>
      <path class="cls-1" d="M148.19,37.34c-.33,.08-.42-.09-.39-.38,.13,.13,.26,.25,.39,.38Z"/>
      <path class="cls-6" d="M36.52,67.09c-.34,.08-.6,.05-.51-.4,.35-.1,.46,.12,.51,.4Z"/>
      <path class="cls-4" d="M216.71,75.28c.18,.15,.36,.29,.54,.44-.35,.07-.66,.07-.54-.44Z"/>
      <path class="cls-1" d="M217.29,75.82c.31-.05,.4,.16,.45,.4-.15-.13-.3-.27-.45-.4Z"/>
      <path class="cls-7" d="M166.83,31.25c-2.43-1.9-4.1-4.73-7.48-5.46-5.93-1.28-13.11,.7-14.62,7.14-.66,2.81,.37,5.33,3.22,6.99,4.45,2.59,9.4,3.72,14.35,4.67,5.75,1.1,11.47,2.14,15.72,6.66,3.76,3.99,5.63,8.47,4.79,14.21-.81,5.57-3.14,10.09-7.17,13.82-2.31,2.14-5.24,3.09-8.28,3.68-7.89,.19-15.61-.79-23.09-3.36-.27-.09-.6,0-.91,.02,0,0,.02,.02,.02,.02-.03-.75-.57-.48-.97-.49-2.3-1.82-3.93-4.15-5.16-6.78,1.39,.14,1.74,1.52,2.65,2.25,3.39,2.73,8.69,3.72,11.06,1.53,1.56-1.44,2.98-1.47,4.75-1.05,.72,.17,1.37,.15,2.2-.27,3.36-1.69,6.41-4.3,10.59-3.88,1.81,.18,3.35-.75,3.51-2.53,.18-1.95,1.06-4.39-1.65-5.61-.29-3.13-2.64-4.28-5.13-5.22-4.73-1.8-9.76-2.5-14.62-3.87-4.85-1.36-9.44-3.32-13.2-6.74-2.28-2.07-3.23-4.92-3.83-7.93-.75-3.74-.82-7.83,.59-10.94,2.04-4.5,4.7-9.19,10.62-10.33,5.05-.97,9.98-1.95,15.17-.99,2.53,.47,5.22-.11,7.8,.53,.46,.11,.96,.05,1.2,.57,.31,.52,.83,.38,1.3,.41,0,0-.03-.03-.03-.03,.41,1.15,1.28,1.53,2.43,1.45,0,0-.02-.02-.02-.02,.15,1.03,.72,1.34,1.69,1l.16,.06s.02,.18,.02,.18c-.31,1.74,1.25,2.58,1.9,3.86,.54,1.07,1.49,2.03,.7,3.53-1.03-.71-2.17-1.21-3.04-1.66-1.86-.96-3.31,.68-4.85-.08-.52-.26-1.05-1.01-1.66-.4-.55,.55-.39,1.35-.11,2.03,.49,1.17,.77,2.26-.61,3.03Z"/>
      <path class="cls-1" d="M177.11,28.33c.8-1.51-.16-2.46-.7-3.53-.64-1.28-2.2-2.12-1.9-3.86,2.87,2.19,4.73,5.04,5.66,8.52,.66,2.46-.15,3.61-2.72,3.68-3.06,.08-6.11,0-9.15-.45-.97-.14-1.4-.53-1.48-1.44,1.38-.77,1.1-1.86,.61-3.03-.28-.67-.44-1.48,.11-2.03,.61-.61,1.14,.14,1.66,.4"/>
      <path class="cls-1" d="M143.36,79.63c.3-.01,.64-.11,.91-.02,7.49,2.57,15.2,3.56,23.09,3.36-7.74,2.11-15.4,3.35-22.53-1.89-.57-.42-1.18-.77-1.47-1.45Z"/>
      <path class="cls-1" d="M172.67,19.72c-1.14,.08-2.02-.29-2.43-1.45,.99,.17,1.88,.52,2.43,1.45Z"/>
      <path class="cls-1" d="M174.34,20.7c-.96,.34-1.54,.03-1.69-1,.75,.02,1.25,.45,1.69,1Z"/>
      <path class="cls-1" d="M170.28,18.3c-.47-.02-.99,.11-1.3-.41,.51-.11,.99-.11,1.3,.41Z"/>
      <path class="cls-1" d="M142.41,79.15c.4,.02,.94-.25,.97,.49-.41,0-.83,.04-.97-.49Z"/>
      <path class="cls-10" d="M318.32,88.15c-.38-1.12-.52-2.27-.48-3.46,.22-6.15-1.4-12.16-1.44-18.3,0-.65-.47-.95-.96-1.24-.11-1.56,.41-3.26-.87-4.72-.67,.73-.58,1.91-1.76,1.91-2.44,0-4.16,1.45-5.91,2.87-2.27,1.19-4.83,1.04-7.25,1.37-4.98,.69-10.01,.96-15.01,1.55-2.68,.32-4.35,2.08-4.26,4.88,.21,6.95,1.32,13.8,2.03,20.69,.06,.59,.56,1.13,.68,1.73,.18,.89,.95,2.05-.72,2.42-1.16-1.4-2.24-2.89-4.32-2.98-.66-.03-.86-.61-1.08-1.13-.93-2.16-2.8-3.39-4.67-4.62-.7-1.34-.41-2.79-.42-4.18-.03-4.19-.8-8.28-1.39-12.4-.3-2.1-.4-4.26-.47-6.36-.11-3.33-.72-6.57-1.16-9.83-.25-1.89-.33-3.83-.29-5.66,.13-5.18-.88-10.19-1.61-15.24-.43-2.97-.29-3.28,2.6-3.27,1.36,0,2.73,.11,4.07-.03,1.73-.17,2.4,.56,2.52,2.23,.44,6.05,.83,12.12,1.5,18.15,.2,1.84,.34,3.72,.79,5.57,.55,2.27,2.03,3.13,3.95,2.75,7.35-1.44,14.85-1.61,22.23-2.74,2.09-.32,4.21-.42,6.28-.91,3.58-.83,4.71-2.75,4.05-6.37-1.13-6.13-1.95-12.32-3.76-18.31-.29-.95-.17-2.08,0-3.09,.15-.93,.54-1.89,1.87-1.49-.29,2.47,.28,4.51,2.67,5.76,.3,.16,.66,.66,.62,.94-.31,1.88,1.12,2.76,2.22,3.65,1.27,1.03,1.64,2.13,1.77,3.75,.15,1.92,.27,4.11,2.22,5.4,.66,5.39,1.82,10.71,2.04,16.17,.22,5.38,1.26,10.69,2.06,16.02,.57,3.82,2.32,7.58,.8,11.58-.29,.76-.31,1.25-1.35,.9-1.59-.53-2.83,1.45-4.5,.78-.91-1.72-1.61-3.58-3.29-4.77Z"/>
      <path class="cls-1" d="M322.57,47.46c-1.95-1.29-2.07-3.48-2.22-5.4-.13-1.62-.5-2.71-1.77-3.75-1.1-.89-2.53-1.77-2.22-3.65,.05-.28-.32-.78-.62-.94-2.38-1.25-2.96-3.3-2.67-5.76,1.61-.96,3.5-.58,5.23-.91,1.55-.3,2.62,1.21,2.54,2.85-.17,3.53,.43,6.95,.94,10.43,.34,2.35,1.53,4.66,.78,7.13Z"/>
      <path class="cls-1" d="M272.32,89.12c1.86,1.23,3.74,2.46,4.67,4.62,.22,.52,.42,1.1,1.08,1.13,2.08,.09,3.16,1.58,4.32,2.98-2.74,1.3-5.7,1.29-8.61,1.33-1.77,.02-1.47-2.21-1.32-2.6,.93-2.35-.32-4.43-.41-6.62-.01-.28,.17-.56,.27-.84Z"/>
      <path class="cls-1" d="M306.92,65.22c1.74-1.42,3.47-2.88,5.91-2.87,1.18,0,1.09-1.18,1.76-1.91,1.29,1.46,.77,3.16,.87,4.72-2.85-1.1-5.69,.27-8.54,.06Z"/>
      <path class="cls-1" d="M318.32,88.15c1.68,1.19,2.38,3.05,3.29,4.77-4.6,.29-4.76,.08-3.49-4.65,.01-.05,.13-.08,.2-.12Z"/>
      <path class="cls-6" d="M41.79,42.83c-2.57,3.74-4.92,7.73-8.6,10.48-3,2.25-4.7,5.47-6.95,8.26-1,1.24,.54,2.46,1.64,3.18,2.23,1.46,4.69,2.6,6.82,4.19,6.01,4.49,12.61,8.03,18.92,12.04,.89,.57,2.12,1.06,1.94,2.09-.21,1.22-1.69,1.94-2.73,1.9-1.25-.06-2.11,.58-3.16,.82-3.87,.88-7.27,.33-10.79-2.05-5.21-3.52-9.96-7.64-15.22-11.07-.98-.64-1.81-1.57-2.53-2.51-1.25-1.6-2.77-1.93-4.83-1.32,2.48,5.95,1.41,12.54,3.5,18.55,.6,1.72-.17,2.24-1.41,2.75-.39-1.21-1.59-1.68-2.39-2.5-.63-.64-2.15-.32-2.3-1.31-.44-2.76-2.95-3.62-4.49-5.37-1.05-1.88-.52-4.02-.83-6.02-.81-5.27-.91-10.65-1.56-15.95-.62-5.12-1.62-10.19-2.35-15.3-.44-3.11-.97-6.25-.94-9.37,.04-4.21-.84-8.31-1.01-12.48-.12-2.87,1.62-4.15,4.52-3.44,.22,.05,.4,.31,.62,.34,1.24,.15,2.7-1.39,3.7,.17,1.11,1.72,1.51,3.83,1.62,5.81,.24,4.36,.16,8.72,.49,13.09,.34,4.64,.98,9.25,1.75,13.81,.39,2.29-.99,4.48,.16,6.71,.29,.55,.38,1.3,.92,2.15,2.43-4.55,6.78-7.38,9.42-11.55,2.19-3.44,4.33-6.91,6.53-10.35,2.13-3.34,5.23-3.92,8.6-4.37-.24,1.29,1.24,2.45,.72,3.47-.95,1.89-.16,3.47,.22,5.18Z"/>
      <path class="cls-1" d="M41.79,42.83c-.38-1.7-1.18-3.29-.22-5.18,.52-1.02-.97-2.18-.72-3.47,2.04-.65,4.06-1.34,6.12-1.94,.69-.2,1.44-.14,1.91,.58,.45,.68,0,1.24-.38,1.68-2.34,2.68-4.14,5.81-6.7,8.32Z"/>
      <path class="cls-2" d="M9.21,80.95c1.54,1.74,4.05,2.61,4.49,5.37,.16,.99,1.67,.67,2.3,1.31,.81,.82,2,1.29,2.39,2.5-2.1,1.08-4.5,.63-6.69,1.34-.69,.22-.91-.56-1.08-1.24-.65-2.53-.67-5.2-1.84-7.61-.2-.42-.37-1.28,.43-1.66Z"/>
      <path class="cls-4" d="M243.57,75.68c-2.43,1.42-5.22,1.63-7.86,1.92-14.07,1.54-21.99-3.85-26.5-17.74-1.26-3.87-1.78-8.09-.63-12.27,2.79-10.13,8.16-18.01,19.21-19.83,4.85-.8,10.06-1.52,14.85,1.06,1.1,.59,1.13,.53,3.17,.34-.58-2.74,.35-4.16,3.12-4.75,1.74,.57,3.44,.84,5.17-.2,.49-.29,1.23-.17,1.86-.24,1.28,4.13,1.62,8.43,1.92,12.67,.43,6.02,1.25,11.98,2.14,17.94,.53,3.53,1.18,7.04,1.77,10.56-.06,2.58-.01,5.16,.39,7.73-.53,1.06-.3,2.2-.31,3.31-.28,2.03-.98,3.88-1.93,5.73-3.74,7.29-10.41,10.48-17.7,12.63-4.64,1.37-9.35,1.26-14.07-.32-3.01-1.01-6.01-1.94-8.78-3.52-1.04-.6-1.93-1.1-1.6-2.49,.16,0,.32,0,.47,0q4.72-.02,3.25-4.19c1.24-.36,2.08,.38,2.91,1.09,2.15,1.83,4.57,2.66,7.47,2.69,4.19,.04,8.34-.29,12.4-1.11,2.97-.6,5.08-2.96,6.92-5.24,1.5-1.85,2.63-4,3.85-6.06,1.14-1.92-.72-5.71-2.85-5.94-.81-1.83-.29-3.82-.59-5.99-1.9,1.64-2.87,3.57-3.18,5.72-.16,1.08-.51,1.9-1.41,2.22-2.08,.74-2.43,2.75-3.44,4.27Zm-24.88-14.76l-.03-.04c.34,3.8,3.41,6.92,7.58,7.7,2.34,.78,4.66,1.69,7.14,1.9,4.84,.42,8.56-2.09,12.19-4.78,1.75-.09,2.69-1.54,3.97-2.41,2.12-1.44,2.81-3.33,1.62-5.73,.37-3.58-.52-7.05-.96-10.56,.53-1.92-.13-3.97-.94-5.34-1.85-3.13-4.58-5.72-5.86-9.26-.08-.22-.5-.53-.65-.47-.37,.13-.59,.47-.61,.92-.02,.56,.38,.83,.67,1.2,.32,.4,1.03,.69,.7,1.35-.33,.67-1.04,.64-1.68,.61-1.27-.06-2.48,.09-3.53,.88-2.15,.03-4.3-.04-6.44,.12-5.07,.39-9.28,2.37-11.55,7.2-2.34,4.98-4.42,10.06-2.1,15.7-.02,.42-.2,.92,.48,1.01Z"/>
      <path class="cls-1" d="M243.57,75.68c1.01-1.53,1.36-3.54,3.44-4.27,.9-.32,1.25-1.14,1.41-2.22,.32-2.15,1.28-4.08,3.18-5.72,.3,2.17-.22,4.16,.59,5.99-1.47-.07-2.19,.94-2.89,1.99-1.4,2.1-3.33,3.49-5.74,4.24Z"/>
      <path class="cls-1" d="M221.5,84.02q1.47,4.18-3.25,4.19c-.16,0-.32,0-.47,0,.72-1.86,1.49-3.68,3.73-4.19Z"/>
      <path class="cls-2" d="M262.18,72.88c-.4-2.56-.45-5.14-.39-7.73,1.18,2.48,1.08,5.1,.86,7.74-.16,0-.31,0-.47-.01Z"/>
      <path class="cls-1" d="M255.95,23.98c-.63,.07-1.37-.06-1.86,.24-1.72,1.04-3.42,.77-5.17,.2,2.32-.46,4.61-1.52,7.03-.43Z"/>
      <path class="cls-1" d="M262.18,72.88c.16,0,.31,.01,.47,.01-.77,.98,.13,2.35-.78,3.29,0-1.11-.22-2.24,.31-3.31Z"/>
      <path class="cls-12" d="M107.95,23.16c.55-.02,1.11-.04,1.66-.06,1.75-.06,2.43-1.04,2.06-2.65-.92-4.01-1.74-8.05-2.98-11.96-.59-1.84,1.06-3.51-.08-5.27-.18-.28,.65-.72,1.27-.72,1.11,0,2.22-.05,3.33-.08,1.56,.98,3.08,3.16,4.78,.17,1.05,.04,1.88,.29,1.49,1.64-1.16,4.03-.3,7.91,.9,11.76,1.01,3.22,.23,6.59,.9,9.88,1.07,5.22,.57,10.65,1.91,15.87,.23,.9,.07,1.91,.09,2.86-.14,5.92-.28,11.84-.43,17.76-2.76,1.03-4.59,.44-5.81-1.89-.92-1.76-2.36-1.31-3.2-.29-3.44,4.19-8.5,5.19-13.23,6.26-2.46,.55-5.54,.19-8.2-.4-4.03-.89-8.38-2.04-11.17-5-3.33-3.54-6.88-7.18-7.05-12.92-.11-3.71,.06-7.37,.18-11.05,.02-.47-.04-1.02,.18-1.38,3.74-6.2,7.77-12.1,15.33-14.19,.14-.04,.24-.2,.35-.3,4.46,.07,8.87-.81,13.33-.57,1.12,.72,2.79,.43,3.5,1.91-1.15,1.32-2.2,3.19-3.9,3.31-2.08,.14-3.71,.83-5.3,1.97-4.94,.36-9.54,2.22-12.3,6.13-6.14,8.67-4.42,15.6,2.54,22.15,7.61,7.17,23.15,2.64,25.81-7.51,.84-3.23,.95-6.46,.6-9.63-.37-3.39-3.37-5.15-5.72-7.22,.28-2.91-.13-5.75-.87-8.55Z"/>
      <path class="cls-1" d="M107.95,23.16c.75,2.8,1.16,5.64,.87,8.55-3.3-2.27-6.73-4.16-10.93-3.91,1.59-1.14,3.22-1.83,5.3-1.97,1.7-.12,2.76-1.99,3.9-3.31,.28,.21,.57,.42,.85,.63Z"/>
      <path class="cls-2" d="M122.87,62.35c.14-5.92,.28-11.84,.43-17.76,.87,1.95,.67,4.08,.84,6.1,.22,2.72,.75,5.38,1.18,8.06,.36,2.25-.13,3.18-2.45,3.6Z"/>
      <path class="cls-2" d="M103.6,20.62c-4.46-.24-8.88,.64-13.33,.57,1.36-1.34,2.74-1.63,4.74-1.1,2.01,.53,4.26,.09,6.4,.15,.73,.02,1.59-.45,2.19,.38Z"/>
      <path class="cls-1" d="M118,2.58c-1.7,2.99-3.22,.81-4.78-.17,1.63-.88,3.2-.28,4.78,.17Z"/>
      <path class="cls-11" d="M347.15,32.23c-.95,1.97-.86,4.19-.92,6.22-.22,7.34-.7,14.61-2.44,21.77-.34,1.42-.11,2.94-.45,4.44-.36,1.61,1.41,1.86,2.43,2.42,.72,.39,1.65,.4,2.5,.54,3.6,.57,4.24,2.12,2.18,5.34-1.09-.25-1.78,.07-1.4,1.28,.26,.82,.58,1.6,.52,2.48-.68,.88-1.67,.57-2.43,.41-2.36-.51-4.73-1.07-7-1.88-6.4-2.27-6.79-5.26-6.29-11.42,.42-5.16,2.04-10.11,2.3-15.31,.26-5.23,1.15-10.43,1.77-15.65,.14-1.19-.06-2.17-1.51-2.1-1.37,.07-2.59-.75-3.98-.53-1.24,.2-1.23-.64-1.07-1.51,1.4-1.64,1.5-3.57,1.28-5.57,.72-.03,1.43-.07,2.15-.07,3.96-.01,4.53-.62,4.67-4.64,.06-1.72-.19-3.44,.2-5.2,.15-.65,.55-1.02,.7-1.56,.51-.13,1.02-.25,1.53-.38,.15,.02,.27,.08,.36,.2,.17,1.22-.33,2.66,.64,3.6,1.12,1.1,1.29,2.28,1.38,3.76,.17,2.6,1.74,3.79,3.71,3.24,.35,2.08,1.91,1.93,3.46,1.92,4.12-.03,4.09,0,3.84,4.02-.05,.81-.06,1.57-.59,2.22-2.49,.75-5.18,.7-7.54,1.94Zm-2.93,1.02c.06-.86-.03-1.63-1.16-1.58-.92,.04-1.7,.29-1.71,1.46-.01,1.03,.66,1.76,1.45,1.8,.82,.05,1.59-.58,1.42-1.68Zm.49-4.62c-.02-.83,.18-1.73-1.08-1.7-.93,.02-1.74,.16-1.8,1.36-.05,1.02,.55,1.41,1.41,1.54,.94,.14,1.56-.16,1.47-1.2Zm-5.72,18.2c-.73-.17-1.28-.6-1.84-.09-.12,.11-.03,.45-.04,.68,.5-.41,1.24,.31,1.87-.6Z"/>
      <path class="cls-1" d="M347.97,22.13c-1.97,.55-3.54-.64-3.71-3.24-.1-1.48-.26-2.66-1.38-3.76-.97-.94-.46-2.39-.64-3.6,1.82,.01,3.64-.03,5.45,.04,2.27,.09,2.8,.78,2.02,2.95-.9,2.48-1.95,4.9-1.74,7.62Z"/>
      <path class="cls-1" d="M347.15,32.23c2.36-1.24,5.05-1.19,7.54-1.94,0,2.29-.64,2.94-2.83,2.3-1.6-.47-3.13-.34-4.71-.36Z"/>
      <path class="cls-1" d="M332.63,23.17c.22,2.01,.12,3.94-1.28,5.57-.13-1.72-.21-3.43,.4-5.11,.2-.54,.48-.51,.87-.46Z"/>
      <path class="cls-1" d="M349.57,76.72c.06-.88-.26-1.66-.52-2.48-.38-1.21,.31-1.53,1.4-1.28-.49,1.21,1.07,2.9-.89,3.76Z"/>
      <path class="cls-5" d="M341.89,11.32c-.51,.13-1.02,.25-1.53,.38,.34-.81,.92-.65,1.53-.38Z"/>
      <path class="cls-13" d="M65.74,33.03c.78,2.22,.97,4.55,.93,6.84-.1,5.6,.65,11.16,.67,16.75-.02,3.67-.03,7.34-.05,11.01-.19,.83-.47,1.66-.56,2.51-.35,3.49-.33,3.49-3.97,3.73-5.05,.34-6.07-.69-6.12-5.97-.03-4.26,.13-8.48,.92-12.69,.56-2.97-.25-6-.56-8.94-.42-3.97-.16-7.9-.34-11.84,.49-2.29,.65-4.58,0-6.88,0-1.05-.15-2.19,1.5-1.99,.29,1.68,1.41,2.65,2.9,3.2,.45,.17,1.11,.29,1.13,.65,.16,2.25,2.47,2.32,3.54,3.62Z"/>
      <path class="cls-1" d="M65.74,33.03c-1.07-1.3-3.37-1.37-3.54-3.62-.03-.37-.68-.49-1.13-.65-1.49-.54-2.61-1.52-2.9-3.2,1.98-.32,3.96-.6,5.93-.96,1.14-.21,1.77-.13,1.69,1.32-.12,2.37-.05,4.74-.06,7.12Z"/>
      <path class="cls-5" d="M67.3,67.63c.02-3.67,.03-7.34,.05-11.01,.55,3.67,.65,7.34-.05,11.01Z"/>
      <path class="cls-5" d="M56.67,27.55c.65,2.29,.49,4.59,0,6.88,0-2.29,0-4.58,0-6.88Z"/>
      <path class="cls-9" d="M201.8,55.09c.21,2.27,.42,4.54,.63,6.81,0,3.16,0,6.33-.01,9.49-.74,1.7-.54,3.5-.53,5.27,0,1.09-.01,2.13-1.58,1.89,.02-.94-.73-1.19-1.38-1.32-.61-.13-1.25-.32-1.27-.87-.08-2.06-1.78-2.82-3.02-3.94-.35-.31-.99-.55-.81-1.02,1.26-3.29-.8-6.02-1.45-8.98,.75-5.17-.12-10.32-.68-15.39-.48-4.38,.13-8.63,.22-12.93,.02-1.2-1.67-2.68,.12-3.59,1.07-.54,2.43-.54,3.67-.67,1.1-.12,2.23-.08,3.34-.1,.6,1.1,1.19,2.21,1.79,3.31,.19,4.15,.37,8.3,.56,12.45-1.25,3.25-.05,6.4,.4,9.58Z"/>
      <path class="cls-1" d="M192.37,62.43c.65,2.96,2.71,5.69,1.45,8.98-.18,.46,.46,.7,.81,1.02,1.24,1.11,2.94,1.87,3.02,3.94,.02,.55,.66,.74,1.27,.87,.64,.13,1.4,.38,1.38,1.32-2.09,.31-4.23-.18-6.32,.49-.92,.3-1.56-.2-1.73-1.37-.74-5.1-.7-10.17,.12-15.25Z"/>
      <path class="cls-1" d="M201.8,55.09c-.44-3.18-1.65-6.33-.4-9.58,1.03,3.16,.28,6.38,.4,9.58Z"/>
      <path class="cls-5" d="M202.41,71.39c0-3.16,0-6.33,.01-9.49,.5,3.16,.7,6.33-.01,9.49Z"/>
      <path class="cls-1" d="M200.84,33.07c-.6-1.1-1.19-2.21-1.79-3.31,1.19-.72,1.98-.71,1.87,1.01-.05,.77-.06,1.54-.08,2.31Z"/>
      <path class="cls-13" d="M62.33,4.79c3.03,.62,4.51,2.08,4.87,4.82,.36,2.77-.43,4.24-3.22,5.68-1.4,.72-2.91,1.17-4.52,1.1-2.82-.12-4.51-1.72-4.69-4.54-.07-1.03,.09-2.08-.04-3.1-.22-1.72,.32-2.91,1.98-3.52,1.2,.3,.71,1.64,1.4,2.29,.75,.7,1.21,2.53,2.11,0,.34-.96,.99-2.14,2.11-2.71Z"/>
      <path class="cls-1" d="M62.33,4.79c-1.12,.58-1.77,1.75-2.11,2.71-.9,2.54-1.36,.71-2.11,0-.7-.65-.2-1.99-1.4-2.29,1.8-1.17,3.69-1.07,5.63-.43Z"/>
      <path class="cls-9" d="M196.6,9.28c4.52,1.04,5.11,1.63,5.73,5.78,.01,.08,.01,.16,.01,.24-.01,2.61-1.68,4.53-6.68,5.81-1.86,.48-4.74-.43-5.41-2.98-.36-1.35-.8-2.66-.86-4.09-.1-2.18,.83-3.57,2.86-4.28-.99,2.9,1.49,3.19,3.65,4.66-1.32-2.39,.24-3.62,.7-5.14Z"/>
      <path class="cls-1" d="M196.6,9.28c-.46,1.52-2.02,2.74-.7,5.14-2.16-1.47-4.64-1.75-3.65-4.66,1.36-.96,2.88-.47,4.35-.48Z"/>
      <path class="cls-8" d="M245.57,65.71c-3.63,2.69-7.35,5.2-12.19,4.78-2.48-.21-4.79-1.13-7.14-1.9-2.99-2.11-5.8-4.4-7.58-7.7,0,0,.03,.04,.03,.04,0-.42,.05-.85-.48-1.01-2.31-5.63-.24-10.71,2.1-15.7,2.27-4.83,6.47-6.8,11.55-7.2,2.14-.16,4.29-.09,6.44-.12,1.24,.4,2.53,.7,3.72,1.22,4.03,1.74,6.33,5.12,8.18,8.89,.44,3.51,1.33,6.98,.96,10.56-2.8,2.07-2.7,6.13-5.59,8.14Zm-11.16,2.94c6.35,.58,16.45-8.64,14.55-17.23-1.01-4.55-2.49-8.38-6.51-10.98-4.16-2.68-8.85-1.69-13.11-1.19-3.78,.44-6.97,3.25-8.1,7.42-.8,2.92-2.59,5.59-2.11,8.83,.11,.74,.11,1.78,.89,1.79,2.66,.03,2.2,1.96,1.85,3.28-.31,1.15,.04,1.8,.64,2.47,3.17,3.59,7.38,4.96,11.92,5.61Z"/>
      <path class="cls-1" d="M250.2,47.01c-1.85-3.77-4.15-7.15-8.18-8.89-1.19-.52-2.48-.82-3.72-1.22,1.05-.79,2.27-.94,3.53-.88,.64,.03,1.35,.06,1.68-.61,.33-.66-.38-.95-.7-1.35-.29-.37-.69-.64-.67-1.2,.02-.45,.24-.8,.61-.92,.15-.05,.57,.25,.65,.47,1.28,3.53,4.01,6.13,5.86,9.26,.81,1.37,1.47,3.42,.94,5.34Z"/>
      <path class="cls-1" d="M245.57,65.71c2.89-2.01,2.79-6.07,5.59-8.14,1.19,2.4,.49,4.29-1.62,5.73-1.28,.87-2.21,2.32-3.97,2.41Z"/>
      <path class="cls-1" d="M218.66,60.88c1.78,3.3,4.59,5.59,7.58,7.7-4.17-.79-7.24-3.91-7.58-7.7Z"/>
      <path class="cls-1" d="M218.21,59.91c.53,.16,.49,.6,.48,1.01-.68-.09-.5-.59-.48-1.01Z"/>
      <path class="cls-8" d="M97.89,27.8c4.2-.25,7.63,1.64,10.93,3.91,2.35,2.07,5.35,3.83,5.72,7.22,.35,3.18,.25,6.41-.6,9.63-2.66,10.15-18.2,14.68-25.81,7.51-6.96-6.55-8.67-13.48-2.54-22.15,2.76-3.9,7.35-5.76,12.3-6.13Zm12.07,8.27c-1.94-2.96-5.06-4.92-8.09-5.6-5.73-1.28-11.08,.33-14.95,5.24-2.87,3.63-3.47,8.13-2.2,12.05,2.46,7.63,10.9,11.37,18.56,8.7,4.93-1.72,8.48-5.1,8.99-10.81,.97-2.67,.56-5.33-.25-7.91-.24-.76-.89-1.71-2.05-1.67Z"/>
      <path class="cls-8" d="M344.21,33.25c.18,1.1-.6,1.73-1.42,1.68-.8-.05-1.47-.77-1.45-1.8,.01-1.17,.79-1.42,1.71-1.46,1.13-.05,1.22,.72,1.16,1.58Z"/>
      <path class="cls-8" d="M344.7,28.63c.09,1.04-.53,1.34-1.47,1.2-.86-.13-1.46-.52-1.41-1.54,.06-1.2,.87-1.34,1.8-1.36,1.25-.03,1.06,.87,1.08,1.7Z"/>
      <path class="cls-5" d="M338.98,46.83c-.63,.91-1.37,.19-1.87,.6,0-.23-.08-.57,.04-.68,.55-.52,1.1-.09,1.84,.09Z"/>
      <path class="cls-12" d="M112.26,45.66c-1.5-3.02-1.48-6.4-2.3-9.58,1.16-.04,1.81,.91,2.05,1.67,.81,2.58,1.22,5.24,.25,7.91Z"/>
    </g>
  </g>
</svg>