<?xml version="1.0" encoding="UTF-8"?><svg id="Layer_2" xmlns="http://www.w3.org/2000/svg" viewBox="0 0 59.39 80.91"><defs><style>.cls-1{fill:#fff;}</style></defs><g id="Layer_1-2"><g><path class="cls-1" d="m29.33,19.59c-11.25,0-20.4,9.15-20.4,20.4s9.15,20.4,20.4,20.4,20.4-9.15,20.4-20.4-9.15-20.4-20.4-20.4Zm-6.65,20.07v11.35c0,.24-.2.44-.45.44h-1.22c-.25,0-.45-.2-.45-.44v-11.35c-2.11-.9-2.11-4.13-2.11-4.13,0-4.75,3.17-4.75,3.17-4.75,0,0,3.17,0,3.17,4.75,0,0,.1,3.1-2.12,4.13Zm7.92,11.21c0,.32-.26.59-.59.59h-.93c-.33,0-.59-.26-.59-.59v-11.21h-1.51c-.33,0-.6-.27-.59-.6.15-5.06,2.19-10.53,4.22-10.53v22.33Zm9.6-12.7c0,.83-.66,1.49-1.49,1.49h-.62v11.25c0,.3-.24.54-.54.54h-1.03c-.3,0-.54-.24-.54-.54v-11.25h-.62c-.82,0-1.49-.67-1.49-1.49v-6.86c0-.29.24-.53.53-.53h0c.29,0,.53.23.53.53v4.59h.7v-4.59c0-.29.24-.53.53-.53h0c.29,0,.53.23.53.53v4.59h.71v-4.59c0-.29.24-.53.53-.53s.53.23.53.53v4.59h.71v-4.59c0-.29.24-.53.53-.53s.53.23.53.53v6.86Z"/><path class="cls-1" d="m29.33,12.18C13.96,12.18,1.51,24.63,1.51,40s12.46,27.82,27.82,27.82,27.82-12.45,27.82-27.82-12.46-27.82-27.82-27.82Zm0,50.23c-12.36,0-22.41-10.05-22.41-22.41s10.05-22.41,22.41-22.41,22.41,10.05,22.41,22.41-10.05,22.41-22.41,22.41Z"/><g><path class="cls-1" d="m0,68.56l6.22-7.52,1.89,1.57-2.43,2.94,2.51,2.07,2.43-2.94,1.89,1.57-6.22,7.52-1.89-1.57,2.43-2.94-2.51-2.07-2.43,2.94-1.89-1.57Z"/><path class="cls-1" d="m18.48,69.01l2.26.98-2.49,5.73c-.3.68-.7,1.21-1.22,1.57s-1.1.57-1.76.6c-.66.04-1.34-.1-2.05-.41-.72-.31-1.29-.72-1.71-1.22-.42-.5-.67-1.07-.76-1.69-.08-.63.02-1.28.32-1.96l2.49-5.73,2.25.98-2.4,5.52c-.12.28-.17.55-.15.81.02.27.1.5.25.71.15.21.35.37.61.48.26.11.52.15.77.12.25-.04.48-.14.69-.31.21-.17.37-.39.49-.67l2.4-5.52Z"/><path class="cls-1" d="m29.67,71.22l-1.13,9.69-2.04-.24-2.66-5.47h-.05s-.59,5.09-.59,5.09l-2.44-.28,1.13-9.69,2.07.24,2.61,5.44h.07s.59-5.06.59-5.06l2.44.28Z"/><path class="cls-1" d="m37.23,73.3c-.07-.16-.16-.29-.26-.4-.1-.11-.23-.2-.36-.27s-.29-.11-.45-.12c-.17-.02-.34,0-.53.03-.41.08-.73.25-.98.51s-.41.61-.48,1.03c-.07.42-.06.91.05,1.47.11.56.27,1.03.49,1.4s.49.64.81.8c.32.16.69.2,1.11.12.37-.07.66-.19.89-.35.22-.16.37-.36.46-.6s.09-.5.04-.78l.43-.03-2.03.38-.35-1.85,3.94-.75.25,1.33c.17.87.13,1.65-.09,2.34-.23.68-.61,1.25-1.15,1.69s-1.2.74-1.97.88c-.87.16-1.66.11-2.39-.16-.73-.27-1.35-.74-1.85-1.41-.51-.66-.85-1.5-1.04-2.51-.15-.79-.17-1.52-.06-2.17.11-.65.32-1.23.64-1.73.32-.5.72-.91,1.2-1.22s1.02-.53,1.62-.64c.53-.1,1.03-.11,1.52-.04s.93.23,1.33.46c.4.23.75.52,1.04.89.29.36.5.78.64,1.25l-2.44.46Z"/><path class="cls-1" d="m44.69,77.83l-4.41-8.7,5.82-2.95.96,1.9-3.63,1.84.76,1.5,3.33-1.69.96,1.9-3.33,1.69.76,1.5,3.61-1.83.96,1.9-5.8,2.94Z"/><path class="cls-1" d="m53.68,72.78l-6.41-7.36,2.95-2.57c.51-.44,1.04-.73,1.59-.86.55-.13,1.1-.1,1.63.09.54.19,1.03.55,1.49,1.07.46.53.74,1.07.84,1.62.1.55.03,1.09-.2,1.61-.23.52-.6,1.01-1.12,1.47l-1.76,1.53-1.35-1.55,1.39-1.21c.22-.19.38-.38.48-.57.1-.19.14-.39.11-.59-.03-.2-.13-.41-.32-.62-.18-.21-.37-.35-.57-.41s-.4-.05-.61.02c-.21.07-.42.2-.64.39l-.65.57,5.02,5.76-1.85,1.61Zm1.06-6.86l4.65,1.89-2.01,1.75-4.61-1.92,1.97-1.72Z"/></g><g><path class="cls-1" d="m10.16,14.46l-3.97-8.91,2.24-1,3.11,6.96,3.34-1.49.87,1.95-5.59,2.49Z"/><path class="cls-1" d="m17.2,1.45l2.6,9.4-2.37.65-2.6-9.4,2.37-.65Z"/><path class="cls-1" d="m29.87,4.65c.09,1.08-.03,2.01-.35,2.79-.33.78-.81,1.38-1.44,1.82-.63.44-1.36.69-2.17.76-.82.07-1.58-.06-2.28-.39-.69-.33-1.27-.85-1.72-1.56-.45-.71-.72-1.6-.82-2.68-.09-1.08.02-2.01.35-2.79.33-.78.8-1.38,1.43-1.82S24.24.1,25.06.03c.82-.07,1.57.06,2.27.38s1.27.84,1.72,1.55c.45.71.73,1.6.82,2.69Zm-2.52.21c-.05-.58-.16-1.07-.34-1.46s-.41-.67-.71-.86c-.29-.18-.65-.26-1.05-.22s-.74.17-1,.4c-.26.23-.44.55-.55.96-.11.41-.14.91-.09,1.49.05.58.16,1.07.34,1.46.18.39.41.67.71.86.3.18.65.26,1.05.22.41-.03.74-.17,1-.4.26-.23.44-.55.55-.96s.14-.91.09-1.49Z"/><path class="cls-1" d="m41.26,1.26l-1.57,9.63-2.02-.33-2.4-5.59h-.05s-.83,5.05-.83,5.05l-2.43-.4,1.57-9.63,2.06.34,2.35,5.56h.07s.82-5.03.82-5.03l2.43.4Z"/><path class="cls-1" d="m48.42,7.06c.1-.3.09-.57-.02-.81-.11-.24-.35-.43-.72-.59-.23-.1-.44-.14-.61-.15-.17,0-.32.04-.43.11s-.2.18-.26.31c-.05.11-.07.21-.06.32,0,.1.04.21.11.32.06.11.16.22.28.33.12.12.27.24.45.36l.62.44c.42.3.76.6,1.02.91.26.31.45.62.56.94.11.32.16.65.14.98-.02.33-.1.67-.24,1.02-.25.59-.59,1.04-1.03,1.34-.44.3-.96.45-1.55.46-.59,0-1.24-.14-1.95-.43-.73-.3-1.32-.68-1.76-1.13-.45-.45-.72-.98-.82-1.59-.1-.61,0-1.29.31-2.04l2.16.89c-.1.28-.13.54-.09.78s.14.44.31.63c.17.18.4.33.69.45.24.1.46.15.65.15.19,0,.35-.04.48-.12.13-.08.23-.19.29-.34.05-.14.06-.28.02-.41-.04-.14-.13-.29-.28-.44-.15-.16-.36-.34-.64-.54l-.75-.54c-.67-.48-1.14-1.01-1.4-1.59-.26-.58-.24-1.23.05-1.93.23-.57.58-1.02,1.05-1.33.46-.31,1-.48,1.61-.51.61-.03,1.25.09,1.91.36.68.28,1.21.64,1.6,1.09.39.45.63.95.72,1.5.09.55.01,1.12-.23,1.72l-2.18-.89Z"/></g></g></g></svg>