<?xml version="1.0" encoding="UTF-8"?>
<svg id="Layer_2" data-name="Layer 2" xmlns="http://www.w3.org/2000/svg" viewBox="0 0 359.86 102.6">
  <defs>
    <style>
      .cls-1 {
        fill: #fff;
      }
    </style>
  </defs>
  <g id="Layer_1-2" data-name="Layer 1">
    <g>
      <path class="cls-1" d="M251.15,73.64c-4.05,4.69-9.17,5.78-14.47,6.37-5.53,.62-10.97,.49-16.24-1.69-8.47-3.51-13.03-10.11-14.54-18.82-1.52-8.79,1.03-16.86,6.3-23.82,5.95-7.87,14.35-10.82,24.07-10.06,1.96,.15,4.01-.07,5.89,.81,.8,.37,1.22-.08,1.76-.7,3.02-3.48,7.23-3.71,11.38-3.89,1.5-.06,2.33,1.14,3.34,2.28,2.69,3.03,2.31,6.54,2.48,10.08,.11,2.3,.68,4.57,1,6.86,.38,2.69,.45,5.32-.27,8.05-.64,2.41,.51,4.86,.87,7.28,.56,3.7,1.61,7.32,2.09,11.03,.8,6.3-.41,12.15-3.66,17.79-3.45,5.98-9.17,8.48-14.92,10.88-5.96,2.49-12.19,2.55-18.5,.54-3.14-1-6.12-2.23-9.03-3.7-3.19-1.62-3.79-4.19-1.62-7.05,.81-1.07,1.8-2.04,2.84-2.89,1.42-1.15,2.96-1.5,4.57-.2,.74,.6,1.58,1.07,2.61,1.07,4.47-.02,8.95,.18,13.41-.06,6.09-.33,10.23-4.26,10.65-10.18Zm-28.86-13.12c0,.85-.35,1.72,.36,2.5,3.52,3.88,7.91,6.1,13.11,5.82,6.64-.36,15.12-9.19,13.24-17.18-1.09-4.61-2.63-8.47-6.94-10.82-4.25-2.33-8.83-1.52-13.01-.51-5.32,1.28-10.06,9.42-9.59,14.92,.07,.83-.02,2.03,.99,2.22,1.93,.36,1.87,1.66,1.84,3.06Zm16.98-23.27c2.49,.72,4.63,1.69,6.53,3.2,1.93,1.53,3.15,3.58,4.43,5.63-.08-.65-.39-1.24-.45-1.84-.35-3.41-3.29-5.27-4.77-7.99-.1-.18-.5-.4-.54-.36-1.44,1.33-3.47,.17-5.21,1.37Zm12.13,27.26c-1.26,1.81-2.25,3.23-2.38,5.05-.07,1.03-.36,1.92-1.33,2.36-1.56,.69-2.32,1.95-2.91,3.55,5.29-2.55,7.65-6.26,6.61-10.95Z"/>
      <path class="cls-1" d="M174.67,36.11c-1.28,0-2.56,.04-3.83,0-2.81-.09-5.32-.7-6.85-3.46-.79-1.42-2.19-1.95-3.87-1.89-2.71,.09-5.39-.59-8.12-.39-2.36,.17-3.94,1.12-4.43,3.54-.48,2.39,.69,3.94,2.75,4.68,5.18,1.86,10.42,3.6,15.86,4.48,5.75,.93,10.49,3.53,14.64,7.53,7.9,7.62,5.92,21.65-.55,28.81-4.22,4.67-9.52,6.82-15.46,7.85-7.13,1.24-14.12,1.45-20.57-2.74-6.33-4.12-10.1-9.84-11.28-17.28-.45-2.84,1.54-5.44,4.78-5.76,4.15-.41,8.28,.11,12.3,1.26,1.25,.36,1.96,1.24,2.24,2.55,.52,2.42,2.06,3.6,4.55,3.8,3.11,.25,6.08-.04,8.68-1.89,3.13-2.23,2.93-4.6-.52-6.21-4.16-1.94-8.72-2.52-13.1-3.69-5.58-1.49-11.02-3.29-15.51-7.16-1.16-1-2.39-2.02-3-3.38-2.75-6.21-5.2-12.38-3.27-19.55,1.04-3.85,3.38-5.95,6.19-8.34,6.71-5.69,14.41-5.54,22.37-4.72,2.46,.25,4.92,.51,7.38,.66,8.13,.48,15.97,7.44,17.32,15.44,.62,3.68-.89,5.66-4.62,5.93-1.35,.1-2.71,.02-4.07,.02,0-.03,0-.06,0-.09Zm-10.55,35.39c-.86,.16-1.72,.4-2.58,.47-6.14,.5-9.86,.58-12.24-5.47-.44-1.12-1.41-1.27-2.31-1.41-1.8-.29-3.63-.53-5.46-.58-5.82-.17-6.52,.85-4.51,6.35,2.24,6.12,9.63,8.61,15.01,5.03,.72-.48,1.52-.7,2.27-.49,3.51,.97,5.9-1.82,8.89-2.57,.54-.14,.82-.73,.96-1.3,1.27,0,2.54-.02,3.82-.03,1.77-.02,3.3-.43,4.13-2.23,.88-1.92,.6-3.64-.98-5.64-.85,4.23-3.7,6.26-6.99,7.87Zm13.55-42.23c-1.16-1.54-2.72-2.05-4.48-2.15-1.84-.1-3.9-.82-5.46-.22-1.25,.48,.42,2.42,.1,3.75-.02,.08-.03,.16-.06,.23-.66,1.46,.33,2.02,1.42,2.06,3.18,.13,6.37,.12,9.55,.09,1.17-.01,1.74-.78,1.55-1.93-.7-4.21-2.92-7.43-6.35-9.84,1.35,2.59,3.86,4.59,3.73,8Zm-12.23,54.44c-7.4-.21-14.65-1.34-22.29-3.94,7.06,6.13,14.56,5.71,22.29,3.94Z"/>
      <path class="cls-1" d="M329.19,75.87c.79,4.61,1.71,9.57,1.62,14.64-.01,.8,.07,1.63-.09,2.4-.36,1.76-.61,3.39-3.35,2.59-1.56-.45-3.5,.14-5.21,.54-5.15,1.21-6.63-1.2-6.64-5.96-.02-6.88-.26-13.73-1.44-20.53-.26-1.5-.66-2.19-2.48-1.84-5.25,1.02-10.57,1.45-15.78,3.06-3.24,1-6.85,1.62-10.4,1.32-1.89-.16-2.85,.4-2.75,2.51,.35,7.2,.76,14.39,2.8,21.37,.51,1.73-.51,5.1-1.9,6.18-.32,.25-.7,.64-1.05,.34-2.26-1.94-4.66-.37-6.91-.15-3.84,.38-5.57-.63-5.64-4.5-.23-12.07-1.59-23.95-4.8-35.62-1.16-4.22-1.1-8.69-1.54-13.04-.53-5.25-.81-10.47-.9-15.72-.02-1.05,0-2.08,.46-3.07,.77-1.63,1.38-3.12,3.54-1.2,1.7,1.52,4.02,.75,6.03,.73,4.14-.03,4.1,.18,5.45,3.99,2.56,7.15,1.99,14.57,2.46,21.9,.2,3.17,.29,3.25,3.38,2.83,4.69-.63,9.39-1.11,14.09-1.64,4.66-.53,8.97-2.47,13.55-3.28,1.12-.2,.92-1.01,.84-1.87-.64-6.24-1.93-12.36-3.55-18.4-1.34-5,0-7.13,5.2-7.95,.24-.04,.47-.1,.71-.15,7.25-1.5,7.92,1.34,8.44,6.71,1.13,11.62,2.56,23.22,4.74,34.7,.55,2.91,1.5,5.73,1.12,9.12Zm-6.98-28.39c.34-1.42,.44-2.53,.05-3.45-1.66-3.97-1.25-8.21-1.67-12.33-.41-3.9-.63-4.27-4.46-3.78-1.08,.14-2.49,.02-2.85,1.31-.35,1.27,.19,2.53,1.09,3.54,.58,.65,1.38,1.16,1.8,1.9,2.1,3.71,5.12,7.01,5.35,11.58,.01,.28,.3,.55,.69,1.22Zm-50.03,42.63c.29,2.76,.71,5,.48,7.32-.16,1.63,.5,2.81,2.6,2.21,1.29-.37,2.67-.41,4.01-.66,.66-.12,1.7,.25,1.88-.62,.21-.99-.78-1.44-1.5-1.95-.95-.68-2.53-.42-2.96-1.78-.7-2.2-2.81-2.79-4.51-4.53Z"/>
      <path class="cls-1" d="M18.64,52.73c2.86-3.31,5.55-5.9,7.69-8.99,1.95-2.82,3.99-5.58,5.98-8.37,.43-.59,.93-1.12,1.63-1.36,2.57-.86,4.95-2.26,7.46-3.09,2.34-.77,5.12-.66,7.63-.35,2.77,.34,3.5,3.4,1.54,6.03-3.44,4.6-6.82,9.27-10.59,13.6-3.12,3.58-5.6,7.53-8.17,11.46-.68,1.03-.36,1.5,.44,2.14,3.87,3.11,7.92,5.95,12.39,8.12,4.75,2.31,9.21,5.11,13.58,8.06,2.75,1.86,2.62,5.28-.49,6.6-4.99,2.12-10.33,2.58-15.72,2.38-.37-.01-.81-.22-1.07-.48-3.55-3.55-8.37-4.53-12.82-6.13-2.22-.8-3.84-2.2-5.52-3.64-1.07-.92-1.53-.62-1.64,.65-.11,1.28-.01,2.52,.33,3.79,.55,1.99,.95,4.03,1.37,6.05,.17,.82-2.03,4.98-2.72,5.25-.14,.05-.38,.14-.44,.09-2.34-2.53-4.92-.39-7.32-.22-2.32,.16-3.19-.68-3.67-2.66-1.62-6.59-2.25-13.32-2.67-20.06-.52-8.37-1.72-16.63-3.58-24.79-.7-3.07,0-6.23-.73-9.23-1.27-5.25-.5-10.64-1.47-15.9-.51-2.76,1.38-4.6,3.01-6.47,.21-.24,.68-.46,.83-.18,1.39,2.57,3.71,1.01,5.55,1.18,3.18,.29,4.01,1.01,5.11,3.99,2.88,7.8,2.59,16,3.35,24.06,.24,2.6,.43,5.21,.7,8.49Zm22.73-13.24c.07,1.14,.1,1.69,.15,2.25,.03,.4,.09,.87,.56,.92,.23,.02,.57-.25,.74-.48,1.91-2.43,3.84-4.84,5.67-7.32,.75-1.02,.4-2.07-.94-1.83-1.85,.33-3.62,1.09-5.41,1.72-.49,.17-.77,.72-.62,1.17,.49,1.43-.09,2.78-.15,3.58ZM9.7,81.23c-.64,2.68,.46,4.39,.88,6.21,.95,4.15,.98,4.15,5.23,3.55,.76-.11,1.84-.01,1.99-.91,.17-.96-.85-1.4-1.56-1.9-.82-.58-2.25-.51-2.49-1.64-.5-2.34-2.82-3.03-4.05-5.31Z"/>
      <path class="cls-1" d="M115.41,62.82c-8.66,8.21-22.4,9.83-30.3,5.7-2.74-1.43-5.05-3.3-6.94-5.75-5.42-7.01-7.1-14.84-5.98-23.6,.34-2.69,1.09-4.68,2.43-7.03,3.12-5.47,7.52-8.91,12.89-11.98,6.29-3.61,12.38-2.09,18.61-.96,2.36,.43,2.75,.44,2.27-2.1-.63-3.28-1.43-6.54-2.13-9.81-.22-1.01-.48-2.03-.54-3.06-.09-1.59,.54-2.86,2.2-3.26,3.35-.8,6.72-1.45,10.16-.53,1.32,.35,2.65,.49,4.01,.56,1.27,.07,2.4,.56,2.75,1.91,.35,1.33-.5,2.1-1.62,2.56-1.16,.48-1.51,1.29-1.23,2.49,1.39,5.85,1.24,11.87,1.95,17.79,.94,7.82,1.57,15.67,2.68,23.47,.51,3.54,.89,7.1,1.55,10.63,.44,2.37-.85,4.32-3.23,5.21-1.11,.42-2.02,.77-2.08,2.2-.04,.9-.62,1.91-1.57,1.79-1.01-.12-.38-1.18-.41-1.82-.04-.88-.42-1.43-1.3-1.33-2.23,.25-3.38-1.02-4.17-3.08Zm-16.52-31.97c-7.95-.05-14.13,5.91-14.17,13.67-.04,6.66,6.28,12.95,13.06,12.97,9.17,.04,14.05-5.63,14.22-10.14,.38-9.81-5.15-16.45-13.11-16.5Zm.32-2.67c1.75,.13,3.36-.11,4.78,.74,1.16,.69,2.34,1.32,3.5,2.01,1.04,.62,1.49,.28,1.4-.85-.12-1.41-.35-2.82-.47-4.23-.15-1.79-1.2-1.85-2.2-.93-1.32,1.22-2.71,1.75-4.47,1.73-.96-.01-1.68,.69-2.53,1.53Zm24.22,18.71c0,4.68,0,9.35,0,14.03,0,.52-.18,1.27,.5,1.43,.73,.17,1.08-.52,1.41-1.06,.3-.51,.28-1.06,.14-1.61-1.12-4.22-1.21-8.59-2.05-12.79Z"/>
      <path class="cls-1" d="M354.35,21.81c1.67-.41,3.24,.5,4.76,1.62,.69,.51,1.15,1.13,.26,1.69-1.41,.89-1.36,2.23-1.44,3.59-.04,.72-.11,1.44-.26,2.14-.91,3.98-1.03,5.58-5.76,4.33-2.05-.54-3.11,.57-3.05,2.53,.19,6.01-.99,11.97-.65,17.99,.11,2.01-.23,3.98-.81,5.93-.87,2.94-.37,3.73,2.56,4.41,3.81,.88,4.99,2.86,3.93,6.61-.41,1.46-.94,2.86-.63,4.46,.25,1.3-.62,2.11-1.81,2.48-1.76,.55-3.5,.95-5.41,.37-3.45-1.04-7.06-1.66-10.21-3.51-4.43-2.6-4.52-3.93-4.44-8.73,.1-5.85,1.87-11.52,2.4-17.33,.44-4.78,1.13-9.54,1.3-14.35,.08-2.21-.75-2.98-2.75-3.25-3.14-.42-3.57-.95-3.57-4.14,0-1.27,.21-2.55,.42-3.81,.63-3.77,1.25-4.26,4.99-4,2.61,.18,3.43-.82,3.02-3.97-.23-1.77-.38-3.5-.02-5.26,.2-1.01,.63-1.89,1.74-2.05,1.37-.2,2.63-.56,3.72-1.47,.26-.21,1.06-.27,1.08-.2,.85,2.28,2.81,1.29,4.3,1.39,3.73,.25,5.31,2.32,4.29,5.96-.26,.92-.65,1.81-.97,2.72-1.21,3.46-.94,3.86,3,3.86Zm-8.4-9.8v-.02c-.64,0-1.28,0-1.92,0-1.32,0-1.96,.86-1.29,1.82,1.52,2.17,1.65,4.8,2.72,7.1,.17,.36,.32,.79,.62,1.01,.77,.57,1.75,.58,1.79-.51,.1-2.47,1.2-4.61,1.86-6.9,.45-1.54-.12-2.5-1.86-2.5-.64,0-1.28,0-1.92,0Z"/>
      <path class="cls-1" d="M68.26,31.75c.89,7.95,1.2,16.7,2.02,25.43,.53,5.63,.22,11.42-.73,17.07-.37,2.21-1.67,2.77-3.87,2.32-2.23-.46-4.42,.45-6.66,.42-2.51-.03-3.53-.9-3.86-3.44-.79-5.98-.4-11.92,.42-17.86,.47-3.43-.17-6.86-.55-10.25-.69-6.22-.01-12.44-.35-18.65-.08-1.49,.84-2.53,2.4-2.82,2.56-.48,5.19-.41,7.73-1.32,1.4-.5,2.93-.06,3.21,2.12,.27,2.07,.41,4.12,.24,6.96Zm-2.83,.96c1.2-7.11,.7-7.73-5.1-6.59-.08,.02-.16,.01-.24,.02-1.55,.19-1.29,1.3-.46,1.68,2.35,1.07,3.36,3.63,5.8,4.89Z"/>
      <path class="cls-1" d="M189.87,70.25c-.09-2.96,.39-6.42,.81-9.91,.44-3.65-.51-7.29-.83-10.94-.57-6.58-1.15-13.17-.31-19.77,.36-2.86,1.48-3.42,3.87-2,1.58,.94,3.23,.74,4.86,.24,3.86-1.18,4.63-.81,4.86,3.02,.84,14.14,1.97,28.28,1.34,42.46-.13,2.92,.24,6.08-1.66,8.72-.48,.66-1.06,2.01-1.5-.04-.22-1.03-1.06-.84-1.73-.8-1.91,.12-3.81,.37-5.72,.46-2.07,.1-3.19-.91-3.56-3.02-.46-2.62-.41-5.24-.43-8.43Zm2.88-6.22s-.04-.02-.11-.04c-.02,.08-.05,.15-.06,.23-.18,4.29-.73,8.57-.04,12.86,.14,.87,.06,2.15,1.09,2.1,1.94-.09,4.05,.31,5.86-.84-1.71-2.01-3.3-3.84-4.84-5.72-.23-.28-.36-.75-.33-1.12,.22-2.63-.6-5.04-1.58-7.47Z"/>
      <path class="cls-1" d="M70.3,12.15c.05,4.23-4.43,8.7-8.83,8.8-6.31,.15-10.98-3.67-11.05-9.02-.06-5.07,3.88-9.01,9.09-9.08,6.8-.09,10.72,3.28,10.79,9.3Z"/>
      <path class="cls-1" d="M195.71,7.64c5.43,.01,9.69,3.66,9.57,8.2-.11,4.19-5.27,9.29-9.64,9.13-4.27-.16-9.77-3.41-9.54-8.72,.23-5.36,3.7-8.62,9.61-8.61Z"/>
    </g>
  </g>
</svg>