<svg xmlns="http://www.w3.org/2000/svg" viewBox="0 0 444.09 51.98"><defs><style>.cls-1{fill:#f9ed32;}.cls-2{fill:#d7df23;}.cls-3{fill:#8dc63f;}.cls-4{fill:#39b54a;}.cls-5{fill:#414036;}</style></defs><g id="Layer_2" data-name="Layer 2"><g id="bullets"><rect class="cls-1" x="84.91" y="0.47" width="35.94" height="41.34" rx="3.16"/><rect class="cls-2" x="47.72" y="11.84" width="29.97" height="29.97" rx="3.16"/><rect class="cls-3" x="15.78" y="22.99" width="25.66" height="19.02" rx="3.16"/><rect class="cls-4" y="31.79" width="10.03" height="10.03" rx="3.16"/><path class="cls-5" d="M249.27,41a5.05,5.05,0,0,1-3.82-1.38,5.38,5.38,0,0,1-1.33-3.88V6.15a5.38,5.38,0,0,1,1.33-3.88A5.05,5.05,0,0,1,249.27.89,4.93,4.93,0,0,1,253,2.27a5.42,5.42,0,0,1,1.33,3.88V16.56h16.11V6.15a5.42,5.42,0,0,1,1.33-3.88,5.8,5.8,0,0,1,7.51,0,5.45,5.45,0,0,1,1.3,3.88V35.78a5.45,5.45,0,0,1-1.3,3.88,5.8,5.8,0,0,1-7.51,0,5.42,5.42,0,0,1-1.33-3.88V24.87H254.31V35.78a5.5,5.5,0,0,1-1.3,3.88A4.91,4.91,0,0,1,249.27,41Z"/><path class="cls-5" d="M275.46,41.82a5.68,5.68,0,0,1-4.27-1.63,6.13,6.13,0,0,1-1.54-4.41V25.65H255.08V35.78a6.23,6.23,0,0,1-1.51,4.41,5.64,5.64,0,0,1-4.3,1.63,5.79,5.79,0,0,1-4.38-1.63,6.1,6.1,0,0,1-1.55-4.41V6.15a6.14,6.14,0,0,1,1.55-4.42A5.82,5.82,0,0,1,249.27.11a5.7,5.7,0,0,1,4.27,1.62,6.18,6.18,0,0,1,1.54,4.42v9.63h14.57V6.15a6.18,6.18,0,0,1,1.54-4.42,6.54,6.54,0,0,1,8.63,0,6.18,6.18,0,0,1,1.52,4.41V35.78a6.18,6.18,0,0,1-1.52,4.41A5.71,5.71,0,0,1,275.46,41.82ZM253.53,24.09H271.2V35.78a4.58,4.58,0,0,0,1.11,3.34,5,5,0,0,0,6.38,0,4.68,4.68,0,0,0,1.09-3.34V6.15a4.71,4.71,0,0,0-1.09-3.35,4.22,4.22,0,0,0-3.23-1.14,4.13,4.13,0,0,0-3.15,1.15,4.58,4.58,0,0,0-1.11,3.34V17.34H253.53V6.15a4.58,4.58,0,0,0-1.11-3.34,4.13,4.13,0,0,0-3.15-1.15A4.27,4.27,0,0,0,246,2.81a4.59,4.59,0,0,0-1.12,3.34V35.78A4.59,4.59,0,0,0,246,39.12a4.27,4.27,0,0,0,3.26,1.15,4.11,4.11,0,0,0,3.17-1.15,4.73,4.73,0,0,0,1.09-3.34Z"/><path class="cls-5" d="M296.7,41a11.88,11.88,0,0,1-6-1.34,8.21,8.21,0,0,1-3.49-4,17,17,0,0,1-1.17-6.74v-12a5.17,5.17,0,0,1,1.31-3.77,5.88,5.88,0,0,1,7.47,0,5.1,5.1,0,0,1,1.33,3.77V29.13A4.7,4.7,0,0,0,297,32.2a3.26,3.26,0,0,0,2.67,1,4.35,4.35,0,0,0,3.38-1.48,5.61,5.61,0,0,0,1.33-3.92V16.91a5.25,5.25,0,0,1,1.28-3.77,4.91,4.91,0,0,1,3.72-1.34,5.11,5.11,0,0,1,3.78,1.34,5.11,5.11,0,0,1,1.34,3.77V35.78q0,5.11-5,5.11a4.92,4.92,0,0,1-3.69-1.33,5.18,5.18,0,0,1-1.31-3.78V32.43l.91,2.78A9.85,9.85,0,0,1,302,39.5,9.35,9.35,0,0,1,296.7,41Z"/><path class="cls-5" d="M296.7,41.76a12.68,12.68,0,0,1-6.34-1.44,9,9,0,0,1-3.81-4.39,17.71,17.71,0,0,1-1.23-7v-12a5.91,5.91,0,0,1,1.52-4.3,5.79,5.79,0,0,1,4.29-1.56,5.73,5.73,0,0,1,4.25,1.56,5.84,5.84,0,0,1,1.55,4.3V29.13a4,4,0,0,0,.68,2.59,2.6,2.6,0,0,0,2.1.75,3.6,3.6,0,0,0,2.82-1.23,4.86,4.86,0,0,0,1.14-3.42V16.91a6,6,0,0,1,1.49-4.29,5.65,5.65,0,0,1,4.26-1.57,5.81,5.81,0,0,1,4.31,1.56,5.85,5.85,0,0,1,1.56,4.3V35.78c0,3.83-2,5.86-5.7,5.86a5.67,5.67,0,0,1-4.23-1.56,5.26,5.26,0,0,1-1.05-1.62,9.53,9.53,0,0,1-1.88,1.66A10.07,10.07,0,0,1,296.7,41.76Zm-5.57-29.21a4.27,4.27,0,0,0-3.22,1.11,4.45,4.45,0,0,0-1.09,3.25v12a16.44,16.44,0,0,0,1.1,6.44A7.56,7.56,0,0,0,291.1,39a11.25,11.25,0,0,0,5.6,1.24,8.64,8.64,0,0,0,4.89-1.38,8.75,8.75,0,0,0,2.29-2.29,7.09,7.09,0,0,1,0-.81V32l-.2.24A5.09,5.09,0,0,1,299.71,34a4,4,0,0,1-3.25-1.29,5.44,5.44,0,0,1-1-3.55V16.91a4.35,4.35,0,0,0-1.11-3.24A4.29,4.29,0,0,0,291.13,12.55Zm14.31,24.39a3.74,3.74,0,0,0,1,2.09,4.16,4.16,0,0,0,3.15,1.11c2.86,0,4.2-1.38,4.2-4.36V16.91a4.35,4.35,0,0,0-1.12-3.24,4.36,4.36,0,0,0-3.25-1.12,4.18,4.18,0,0,0-3.18,1.1,4.57,4.57,0,0,0-1.07,3.26V27.82a7.2,7.2,0,0,1-.44,2.62l1.58,4.81-.12.27A13.57,13.57,0,0,1,305.44,36.94Z"/><path class="cls-5" d="M325.45,40.89a5,5,0,0,1-3.78-1.33,5.21,5.21,0,0,1-1.28-3.78V16.91a5.21,5.21,0,0,1,1.28-3.77,4.83,4.83,0,0,1,3.66-1.34,4.77,4.77,0,0,1,3.61,1.34,5.25,5.25,0,0,1,1.28,3.77v2.68l-.63-2.33a9.74,9.74,0,0,1,3.89-4.12,11.37,11.37,0,0,1,5.77-1.45A10.31,10.31,0,0,1,344.76,13,8.13,8.13,0,0,1,348,17a18.11,18.11,0,0,1,1.08,6.79v12a5.18,5.18,0,0,1-1.31,3.78,6,6,0,0,1-7.5,0,5.18,5.18,0,0,1-1.3-3.78V24.19a5.89,5.89,0,0,0-.88-3.61,3.11,3.11,0,0,0-2.59-1.11,4.72,4.72,0,0,0-3.63,1.45,5.45,5.45,0,0,0-1.37,3.89v11Q330.5,40.89,325.45,40.89Z"/><path class="cls-5" d="M344,41.64a5.71,5.71,0,0,1-4.28-1.56,5.91,5.91,0,0,1-1.52-4.3V24.19a5.16,5.16,0,0,0-.72-3.14,2.36,2.36,0,0,0-2-.83,4,4,0,0,0-3.09,1.21,4.7,4.7,0,0,0-1.16,3.38v11c0,3.83-2,5.86-5.8,5.86a5.7,5.7,0,0,1-4.32-1.57,5.94,5.94,0,0,1-1.49-4.29V16.91a6,6,0,0,1,1.48-4.29,5.6,5.6,0,0,1,4.21-1.57,5.49,5.49,0,0,1,4.15,1.57,5,5,0,0,1,1.12,1.87,10.2,10.2,0,0,1,2.51-2,12.15,12.15,0,0,1,6.14-1.55,11.13,11.13,0,0,1,5.91,1.44,8.93,8.93,0,0,1,3.54,4.34,19,19,0,0,1,1.13,7.07v12a5.91,5.91,0,0,1-1.52,4.3A5.75,5.75,0,0,1,344,41.64ZM335.5,18.72a3.83,3.83,0,0,1,3.17,1.39,6.43,6.43,0,0,1,1.05,4.08V35.78A4.43,4.43,0,0,0,340.81,39a5.21,5.21,0,0,0,6.43,0,4.43,4.43,0,0,0,1.09-3.25v-12a17.56,17.56,0,0,0-1-6.51,7.47,7.47,0,0,0-2.94-3.62,9.68,9.68,0,0,0-5.12-1.22,10.63,10.63,0,0,0-5.39,1.35,8.67,8.67,0,0,0-2.9,2.65c0,.15,0,.31,0,.47v3.91a4.47,4.47,0,0,1,.35-.41A5.49,5.49,0,0,1,335.5,18.72Zm-10.17-6.17a4.09,4.09,0,0,0-3.12,1.1,4.57,4.57,0,0,0-1.07,3.26V35.78A4.56,4.56,0,0,0,322.21,39a4.32,4.32,0,0,0,3.24,1.1c2.93,0,4.3-1.38,4.3-4.36v-11a7.16,7.16,0,0,1,.42-2.52l-1.38-5.12.13-.26c.16-.3.32-.59.5-.87a4.07,4.07,0,0,0-1-2.39A4,4,0,0,0,325.33,12.55Z"/><path class="cls-5" d="M368.63,51.23a33.46,33.46,0,0,1-5.8-.48,24.05,24.05,0,0,1-4.72-1.28,4.16,4.16,0,0,1-2.3-1.59,3.87,3.87,0,0,1-.68-2.24,4.23,4.23,0,0,1,.65-2.16,3.48,3.48,0,0,1,1.65-1.42,2.9,2.9,0,0,1,2.22,0,18.67,18.67,0,0,0,4.57,1.31,26.25,26.25,0,0,0,3.44.29,8.24,8.24,0,0,0,5.26-1.42,5.58,5.58,0,0,0,1.73-4.55V34.19h.51a7.83,7.83,0,0,1-3.52,3.92A11.08,11.08,0,0,1,366,39.64a12.18,12.18,0,0,1-6.54-1.73A11.74,11.74,0,0,1,355.07,33a16.29,16.29,0,0,1-1.56-7.27,17.08,17.08,0,0,1,.91-5.79A13.44,13.44,0,0,1,357,15.52a11,11,0,0,1,3.89-2.84,12.71,12.71,0,0,1,5.12-1,11.09,11.09,0,0,1,5.73,1.5,7.17,7.17,0,0,1,3.36,3.9l-.52,2.32v-2.5a5.17,5.17,0,0,1,1.31-3.77,5.76,5.76,0,0,1,7.39,0,5.17,5.17,0,0,1,1.3,3.77V36.57q0,7.34-4.11,11T368.63,51.23Zm.45-19.09a5.26,5.26,0,0,0,2.93-.79,5.11,5.11,0,0,0,1.87-2.22,8,8,0,0,0,.65-3.41,7.09,7.09,0,0,0-1.5-4.83,5,5,0,0,0-3.95-1.7,5.13,5.13,0,0,0-2.84.76,5.32,5.32,0,0,0-1.88,2.19,8.34,8.34,0,0,0-.68,3.58,7,7,0,0,0,1.48,4.72A4.94,4.94,0,0,0,369.08,32.14Z"/><path class="cls-5" d="M368.63,52a34,34,0,0,1-5.93-.49,25.29,25.29,0,0,1-4.86-1.32,4.77,4.77,0,0,1-2.65-1.88,4.57,4.57,0,0,1-.81-2.67,4.88,4.88,0,0,1,.77-2.54,4.3,4.3,0,0,1,2-1.72,3.67,3.67,0,0,1,2.78,0,18.48,18.48,0,0,0,4.4,1.27,26.59,26.59,0,0,0,3.34.28,7.57,7.57,0,0,0,4.78-1.25,4.84,4.84,0,0,0,1.46-4v-.36a9.68,9.68,0,0,1-1.88,1.4A11.78,11.78,0,0,1,366,40.39,13,13,0,0,1,359,38.55a12.6,12.6,0,0,1-4.62-5.23,17,17,0,0,1-1.64-7.6,18,18,0,0,1,.95-6A14.28,14.28,0,0,1,356.39,15a11.72,11.72,0,0,1,4.15-3A13.51,13.51,0,0,1,366,10.94a11.84,11.84,0,0,1,6.11,1.61,9.25,9.25,0,0,1,2.17,1.72,5.12,5.12,0,0,1,1.06-1.66,6.51,6.51,0,0,1,8.46,0,5.91,5.91,0,0,1,1.52,4.3V36.57c0,5.09-1.47,9-4.37,11.56S373.9,52,368.63,52ZM358.47,42.6a1.93,1.93,0,0,0-.75.15,2.68,2.68,0,0,0-1.3,1.13,3.4,3.4,0,0,0-.54,1.77,3.16,3.16,0,0,0,.56,1.82,3.47,3.47,0,0,0,1.9,1.29A24,24,0,0,0,363,50a33,33,0,0,0,5.67.47c4.9,0,8.69-1.17,11.29-3.47s3.86-5.8,3.86-10.44V16.91a4.41,4.41,0,0,0-1.09-3.25,5,5,0,0,0-6.31,0,3.87,3.87,0,0,0-1,2.22,6.41,6.41,0,0,1,.41,1l.06.19-1.13,5.17a9.63,9.63,0,0,1,.59,3.51,8.85,8.85,0,0,1-.72,3.72A5.79,5.79,0,0,1,372.42,32a6,6,0,0,1-3.34.92,5.68,5.68,0,0,1-4.49-2,7.72,7.72,0,0,1-1.66-5.21,9,9,0,0,1,.76-3.9,5.65,5.65,0,0,1,5.39-3.38,5.75,5.75,0,0,1,4.51,2,2.11,2.11,0,0,1,.19.23V16.91q0-.36,0-.72a6.94,6.94,0,0,0-2.5-2.35,10.39,10.39,0,0,0-5.35-1.4,11.94,11.94,0,0,0-4.82.93A10.36,10.36,0,0,0,357.51,16a12.65,12.65,0,0,0-2.38,4.16,16.39,16.39,0,0,0-.87,5.54,15.53,15.53,0,0,0,1.49,6.94,10.91,10.91,0,0,0,4.07,4.61A11.36,11.36,0,0,0,366,38.89a10.33,10.33,0,0,0,5.3-1.43A7.79,7.79,0,0,0,373.9,35V33.44h2.35l-.39,1a6.86,6.86,0,0,1-.46,1v2.27a6.3,6.3,0,0,1-2,5.13,9,9,0,0,1-5.73,1.59,26.12,26.12,0,0,1-3.54-.3,19.7,19.7,0,0,1-4.76-1.35A2.48,2.48,0,0,0,358.47,42.6Zm10.61-22.66a4.21,4.21,0,0,0-4,2.53,7.6,7.6,0,0,0-.61,3.25,6.28,6.28,0,0,0,1.3,4.23,4.18,4.18,0,0,0,3.35,1.44,4.51,4.51,0,0,0,2.52-.67,4.4,4.4,0,0,0,1.6-1.9,7.43,7.43,0,0,0,.58-3.1,6.4,6.4,0,0,0-1.31-4.33A4.26,4.26,0,0,0,369.08,19.94Z"/><path class="cls-5" d="M405.61,41a19.93,19.93,0,0,1-8.83-1.82,13.31,13.31,0,0,1-5.71-5.12,14.6,14.6,0,0,1-2-7.72,15,15,0,0,1,1.9-7.62,13.74,13.74,0,0,1,5.23-5.17,16.33,16.33,0,0,1,13.27-.85,12,12,0,0,1,4.34,2.93,13.07,13.07,0,0,1,2.76,4.57,17.72,17.72,0,0,1,1,6,2.11,2.11,0,0,1-.62,1.65,2.8,2.8,0,0,1-1.93.57H397.54V23.62H410.1l-.85.74a8.85,8.85,0,0,0-.57-3.44,4.1,4.1,0,0,0-1.68-2,5.36,5.36,0,0,0-2.75-.65,5.61,5.61,0,0,0-3.07.82,5.05,5.05,0,0,0-2,2.42,10.6,10.6,0,0,0-.65,4V26c0,2.73.59,4.66,1.79,5.79s3,1.71,5.54,1.71a16.87,16.87,0,0,0,2.87-.29,16.36,16.36,0,0,0,3.09-.85,3.76,3.76,0,0,1,2.56-.2,3.31,3.31,0,0,1,1.68,1.23,4,4,0,0,1,.68,2,3.82,3.82,0,0,1-.51,2.19,4,4,0,0,1-2,1.59,19,19,0,0,1-4.18,1.39A21.57,21.57,0,0,1,405.61,41Z"/><path class="cls-5" d="M405.61,41.76a20.69,20.69,0,0,1-9.16-1.9,14.16,14.16,0,0,1-6-5.4,15.44,15.44,0,0,1-2.09-8.11,15.74,15.74,0,0,1,2-8,14.49,14.49,0,0,1,5.51-5.45,17.07,17.07,0,0,1,13.91-.9,12.82,12.82,0,0,1,4.62,3.11A13.79,13.79,0,0,1,417.28,20a18.17,18.17,0,0,1,1,6.27,2.81,2.81,0,0,1-.87,2.2,3.47,3.47,0,0,1-2.43.77H399.72a4.67,4.67,0,0,0,1.15,2c1.05,1,2.74,1.5,5,1.5a16.19,16.19,0,0,0,2.74-.27,15.86,15.86,0,0,0,2.95-.82,4.49,4.49,0,0,1,3.07-.21,4,4,0,0,1,2,1.51,4.75,4.75,0,0,1,.82,2.39,4.49,4.49,0,0,1-.62,2.62,4.64,4.64,0,0,1-2.32,1.9,20.11,20.11,0,0,1-4.3,1.44A22.49,22.49,0,0,1,405.61,41.76Zm-1.82-29.32a14.49,14.49,0,0,0-7.21,1.78,13,13,0,0,0-4.95,4.89,14.32,14.32,0,0,0-1.8,7.24,14,14,0,0,0,1.88,7.34,12.57,12.57,0,0,0,5.4,4.82,19.18,19.18,0,0,0,8.5,1.75,20.78,20.78,0,0,0,4.36-.47,18.61,18.61,0,0,0,4-1.34,3.17,3.17,0,0,0,1.63-1.29,2.93,2.93,0,0,0,.41-1.75,3.17,3.17,0,0,0-.55-1.64,2.55,2.55,0,0,0-1.3-1,3,3,0,0,0-2.05.19,16.38,16.38,0,0,1-3.23.89,17.26,17.26,0,0,1-3,.3c-2.69,0-4.73-.65-6.06-1.91a6.31,6.31,0,0,1-1.67-3.09h-1.38V22.87h1.26a8.52,8.52,0,0,1,.48-1.64,5.73,5.73,0,0,1,2.25-2.76,6.35,6.35,0,0,1,3.47-.94,6.06,6.06,0,0,1,3.14.76,4.79,4.79,0,0,1,2,2.34,7.74,7.74,0,0,1,.55,2.24h2.19L408.5,26V24.37h-9.14c0,.36,0,.73,0,1.12V26a13.65,13.65,0,0,0,.1,1.75H415a2.15,2.15,0,0,0,1.43-.38,1.4,1.4,0,0,0,.37-1.09,16.74,16.74,0,0,0-.92-5.76,12.39,12.39,0,0,0-2.59-4.32,11.34,11.34,0,0,0-4.08-2.74A14.4,14.4,0,0,0,403.79,12.44Zm-4.21,10.43h8.83a6.19,6.19,0,0,0-.42-1.66,3.28,3.28,0,0,0-1.37-1.63,4.54,4.54,0,0,0-2.37-.55,4.93,4.93,0,0,0-2.67.71,4.22,4.22,0,0,0-1.67,2.06A7.48,7.48,0,0,0,399.58,22.87Z"/><path class="cls-5" d="M427.09,40.89a5.2,5.2,0,0,1-3.84-1.33,5.11,5.11,0,0,1-1.33-3.78V16.91a5.25,5.25,0,0,1,1.28-3.77,4.83,4.83,0,0,1,3.66-1.34,4.75,4.75,0,0,1,3.61,1.34,5.25,5.25,0,0,1,1.28,3.77v2.33h-.57a8.72,8.72,0,0,1,2.93-5.42A9.14,9.14,0,0,1,440,11.69a3,3,0,0,1,2.47.85,5.18,5.18,0,0,1,.88,3.3,5.34,5.34,0,0,1-.85,3.21,4.45,4.45,0,0,1-3.18,1.44l-1.37.12a7.06,7.06,0,0,0-4.37,1.67,5.52,5.52,0,0,0-1.42,4.12v9.38a5.26,5.26,0,0,1-1.28,3.78A5,5,0,0,1,427.09,40.89Z"/><path class="cls-5" d="M427.09,41.64a6,6,0,0,1-4.37-1.55,5.87,5.87,0,0,1-1.55-4.31V16.91a6,6,0,0,1,1.49-4.29,5.56,5.56,0,0,1,4.2-1.57A5.49,5.49,0,0,1,431,12.62a5.14,5.14,0,0,1,1.21,2.14,8.34,8.34,0,0,1,1.4-1.51A10,10,0,0,1,440,10.94,3.72,3.72,0,0,1,443,12a5.73,5.73,0,0,1,1.08,3.78,6.1,6.1,0,0,1-1,3.67,5.15,5.15,0,0,1-3.69,1.75l-1.4.11a6.44,6.44,0,0,0-3.91,1.47,4.85,4.85,0,0,0-1.19,3.58v9.38a5.94,5.94,0,0,1-1.49,4.29A5.74,5.74,0,0,1,427.09,41.64Zm-.23-29.09a4.09,4.09,0,0,0-3.12,1.1,4.57,4.57,0,0,0-1.07,3.26V35.78A4.34,4.34,0,0,0,423.79,39a4.49,4.49,0,0,0,3.3,1.11,4.33,4.33,0,0,0,3.24-1.1,4.56,4.56,0,0,0,1.07-3.26V26.4A6.25,6.25,0,0,1,433,21.75a7.8,7.8,0,0,1,4.83-1.89l1.37-.11a3.73,3.73,0,0,0,2.64-1.15,4.63,4.63,0,0,0,.71-2.76,4.36,4.36,0,0,0-.69-2.8,2.33,2.33,0,0,0-1.89-.6,8.5,8.5,0,0,0-5.42,2,7.41,7.41,0,0,0-2.09,2.9V20h-2.2l.14-.87A11.44,11.44,0,0,1,431,17v-.1a4.57,4.57,0,0,0-1.07-3.26A4,4,0,0,0,426.86,12.55Z"/><path class="cls-5" d="M135.73,40.49a5.36,5.36,0,0,1-4-1.36,5.37,5.37,0,0,1-1.36-4V6.76a5.37,5.37,0,0,1,1.36-4,5.36,5.36,0,0,1,4-1.36h10.8q10.18,0,15.76,5.1t5.56,14.4a22.63,22.63,0,0,1-1.41,8.3,16.39,16.39,0,0,1-4.12,6.12,17.78,17.78,0,0,1-6.68,3.83,29.36,29.36,0,0,1-9.11,1.3Zm4.88-8.26h5.31a15.91,15.91,0,0,0,5.07-.71,9.18,9.18,0,0,0,3.54-2.11,8.42,8.42,0,0,0,2.11-3.49,16,16,0,0,0,.69-5c0-3.81-.94-6.63-2.82-8.48s-4.75-2.77-8.59-2.77h-5.31Z"/><path class="cls-5" d="M146.53,41.26h-10.8a6.13,6.13,0,0,1-4.51-1.58,6.13,6.13,0,0,1-1.58-4.51V6.76a6.13,6.13,0,0,1,1.58-4.51A6.14,6.14,0,0,1,135.73.66h10.8c7,0,12.44,1.79,16.28,5.3s5.82,8.58,5.82,15a23.36,23.36,0,0,1-1.47,8.59,17,17,0,0,1-4.32,6.4,18.48,18.48,0,0,1-7,4A30,30,0,0,1,146.53,41.26Zm-10.8-39a4.66,4.66,0,0,0-3.41,1.13,4.64,4.64,0,0,0-1.13,3.41V35.17a4.64,4.64,0,0,0,1.13,3.41,4.66,4.66,0,0,0,3.41,1.13h10.8a28.47,28.47,0,0,0,8.87-1.26,17.26,17.26,0,0,0,6.39-3.65A15.78,15.78,0,0,0,165.72,29a22,22,0,0,0,1.36-8c0-6-1.79-10.6-5.32-13.83s-8.67-4.89-15.23-4.89ZM145.92,33h-6.09V8.92h6.09c4,0,7.11,1,9.13,3s3.06,5,3.06,9a17,17,0,0,1-.73,5.22,9.34,9.34,0,0,1-2.3,3.8,9.84,9.84,0,0,1-3.84,2.29A16.65,16.65,0,0,1,145.92,33Zm-4.54-1.55h4.54a15.18,15.18,0,0,0,4.82-.68A8.51,8.51,0,0,0,154,28.86a7.75,7.75,0,0,0,1.91-3.18,15.47,15.47,0,0,0,.65-4.74c0-3.57-.87-6.24-2.59-7.92s-4.43-2.55-8-2.55h-4.54Z"/><path class="cls-5" d="M179.15,40.49A4.24,4.24,0,0,1,176,39.38a4.18,4.18,0,0,1-1.08-3.05,4,4,0,0,1,1.08-3,4.39,4.39,0,0,1,3.18-1.06H184V9.53h4.7l-8,5a4,4,0,0,1-2.71.69,3.53,3.53,0,0,1-2.13-1.08A4.56,4.56,0,0,1,174.69,12a4.31,4.31,0,0,1,.2-2.57,4.16,4.16,0,0,1,2-2.13l7.7-4.77a10.22,10.22,0,0,1,2.47-1.19,9.13,9.13,0,0,1,2.74-.41A4.67,4.67,0,0,1,193.08,2a4.1,4.1,0,0,1,1.19,3.16V32.23h4.38a4.33,4.33,0,0,1,3.13,1.06,4,4,0,0,1,1.08,3,4.17,4.17,0,0,1-1.08,3.08,4.25,4.25,0,0,1-3.13,1.08Z"/><path class="cls-5" d="M198.65,41.26h-19.5a5,5,0,0,1-3.74-1.34,4.94,4.94,0,0,1-1.3-3.59,4.79,4.79,0,0,1,1.32-3.6,5.14,5.14,0,0,1,3.72-1.27h4.1V13.84l-2.14,1.33a4.75,4.75,0,0,1-3.24.8,4.37,4.37,0,0,1-2.57-1.31,5.21,5.21,0,0,1-1.36-2.52,5.11,5.11,0,0,1,.22-3,5,5,0,0,1,2.34-2.53l7.67-4.75A10.71,10.71,0,0,1,186.81.56a9.77,9.77,0,0,1,3-.45,5.39,5.39,0,0,1,3.82,1.32,4.84,4.84,0,0,1,1.44,3.72V31.46h3.6a5.08,5.08,0,0,1,3.67,1.27,4.82,4.82,0,0,1,1.31,3.6,5,5,0,0,1-1.3,3.63A5,5,0,0,1,198.65,41.26ZM179.15,33a3.7,3.7,0,0,0-2.64.83,3.31,3.31,0,0,0-.85,2.49,3.46,3.46,0,0,0,.86,2.51,3.51,3.51,0,0,0,2.63.87h19.5a3.55,3.55,0,0,0,2.58-.85,3.42,3.42,0,0,0,.85-2.53,3.35,3.35,0,0,0-.84-2.49,3.61,3.61,0,0,0-2.59-.83H193.5V5.15a3.33,3.33,0,0,0-.95-2.59,3.89,3.89,0,0,0-2.76-.9,8.29,8.29,0,0,0-2.51.38A8.81,8.81,0,0,0,185,3.14l-7.72,4.78a3.44,3.44,0,0,0-1.68,1.75,3.49,3.49,0,0,0-.16,2.11,3.79,3.79,0,0,0,1,1.8,2.93,2.93,0,0,0,1.7.86,3.29,3.29,0,0,0,2.19-.59L183.25,12V8.75h8.21l-6.66,4.13V33ZM184.8,10.3v.75L186,10.3Z"/><path class="cls-5" d="M220.25,41.15q-7.2,0-11.05-5.31t-3.85-15.07a30.5,30.5,0,0,1,1.72-10.91,14.06,14.06,0,0,1,5-6.79A14,14,0,0,1,220.25.78q7.26,0,11.08,5.12t3.82,14.87a31.37,31.37,0,0,1-1.72,11,14.63,14.63,0,0,1-5,7A13.48,13.48,0,0,1,220.25,41.15Zm0-8.14q2.66,0,3.93-2.91t1.27-9.33c0-4.25-.42-7.28-1.27-9.11a4.19,4.19,0,0,0-7.86,0c-.85,1.83-1.28,4.86-1.28,9.11s.43,7.39,1.28,9.33S218.48,33,220.25,33Z"/><path class="cls-5" d="M220.25,41.93c-5,0-9-1.9-11.68-5.64s-4-8.88-4-15.52a31.62,31.62,0,0,1,1.77-11.19,14.92,14.92,0,0,1,5.32-7.14A14.79,14.79,0,0,1,220.25,0c5.07,0,9,1.83,11.7,5.44s4,8.69,4,15.33a32.31,32.31,0,0,1-1.76,11.3,15.63,15.63,0,0,1-5.31,7.3A14.31,14.31,0,0,1,220.25,41.93Zm0-40.38a13.28,13.28,0,0,0-7.7,2.16,13.36,13.36,0,0,0-4.76,6.43,30.07,30.07,0,0,0-1.66,10.63c0,6.3,1.24,11.22,3.7,14.61s5.84,5,10.42,5a12.73,12.73,0,0,0,7.68-2.27,14,14,0,0,0,4.77-6.59,30.57,30.57,0,0,0,1.67-10.75c0-6.3-1.23-11.14-3.67-14.41S224.87,1.55,220.25,1.55Zm0,32.24c-1.45,0-3.42-.59-4.65-3.38-.9-2.05-1.33-5.21-1.33-9.64s.44-7.49,1.34-9.44a5,5,0,0,1,9.27,0c.91,1.95,1.35,5,1.35,9.44s-.44,7.59-1.34,9.64C223.67,33.2,221.69,33.79,220.25,33.79Zm0-24.1A3.37,3.37,0,0,0,217,12c-.8,1.71-1.2,4.67-1.2,8.78s.4,7.19,1.21,9c.73,1.67,1.75,2.44,3.22,2.44s2.49-.77,3.22-2.44c.8-1.83,1.21-4.87,1.21-9s-.41-7.07-1.2-8.78A3.38,3.38,0,0,0,220.25,9.69Z"/></g></g></svg>