<svg xmlns="http://www.w3.org/2000/svg" viewBox="0 0 821.08 100.41"><defs><style>.cls-1{fill:#fff;}.cls-2{fill:none;stroke:#fff;stroke-miterlimit:10;stroke-width:5px;}</style></defs><g id="Layer_2" data-name="Layer 2"><g id="_3" data-name="3"><g id="page_1" data-name="page 1"><g id="logo"><path class="cls-1" d="M77.16,17.39V57.82a26.11,26.11,0,0,1-15,24.49,34,34,0,0,1-15.15,3.33A34.08,34.08,0,0,1,32,82.31,26,26,0,0,1,17,57.82V17.39H35.53V56.53A12.77,12.77,0,0,0,38.31,65q2.77,3.33,8.74,3.23t8.74-3.33a12.38,12.38,0,0,0,2.79-8.4V17.39Z" transform="translate(0 -0.67)"/><path class="cls-1" d="M120.25,17.59a29.81,29.81,0,0,1,9.88,1.68,27.52,27.52,0,0,1,8.69,5,24.74,24.74,0,0,1,6.21,8,23.16,23.16,0,0,1,2.34,10.53,23.16,23.16,0,0,1-12.92,21.56,27,27,0,0,1-12.22,2.88,28.18,28.18,0,0,1-6.75-.74,21.79,21.79,0,0,1-5.17-1.94V84.15H91.73V17.59ZM110.31,35v15.4a27.31,27.31,0,0,0,3.63,1,20.81,20.81,0,0,0,4.12.39,10.3,10.3,0,0,0,7.3-2.73,8.4,8.4,0,0,0,2.93-6.31,6.47,6.47,0,0,0-2.93-5.91,13.54,13.54,0,0,0-7.3-1.84Z" transform="translate(0 -0.67)"/><path class="cls-1" d="M175.51,17.59V75.71h36.66v8.44h-45.6V17.59Z" transform="translate(0 -0.67)"/><path class="cls-1" d="M258,75.71v8.44H226.6V75.71h11.23V26H226.6V17.59H258V26H246.77V75.71Z" transform="translate(0 -0.67)"/><path class="cls-1" d="M307.54,16.1a34.8,34.8,0,0,1,25,10.23A34.09,34.09,0,0,1,340,37.41a35.76,35.76,0,0,1,0,26.92,34.09,34.09,0,0,1-7.4,11.08,35.49,35.49,0,0,1-50.08,0,34.25,34.25,0,0,1-7.4-11.08,35.76,35.76,0,0,1,0-26.92,34.25,34.25,0,0,1,7.4-11.08,34.8,34.8,0,0,1,25-10.23Zm0,8.74a26.19,26.19,0,0,0-13.31,3.38A24.6,24.6,0,0,0,285,37.51a26.45,26.45,0,0,0-3.38,13.36A26.19,26.19,0,0,0,285,64.18a25,25,0,0,0,9.24,9.29,27.54,27.54,0,0,0,26.62,0,25,25,0,0,0,9.24-9.29,26.09,26.09,0,0,0,3.38-13.31,26.35,26.35,0,0,0-3.38-13.36,24.6,24.6,0,0,0-9.24-9.29A26.16,26.16,0,0,0,307.54,24.84Z" transform="translate(0 -0.67)"/><path class="cls-1" d="M413.44,17.59V84.15h-3.38L366.84,36.56V84.15H357.9V17.59h3.38L404.5,65.77V17.59Z" transform="translate(0 -0.67)"/><path class="cls-1" d="M450.78,16.59a24.19,24.19,0,0,1,9.69,1.69,46.7,46.7,0,0,1,6.7,3.58V31.1a37.58,37.58,0,0,0-6.75-3.93,20.42,20.42,0,0,0-8.65-1.83,20.1,20.1,0,0,0-6.21,1,12.69,12.69,0,0,0-5.41,3.33A8.11,8.11,0,0,0,438,35.57a7,7,0,0,0,2.89,6.06,41.15,41.15,0,0,0,6.95,4l9.14,4.18a31.49,31.49,0,0,1,10.33,6.85q3.48,3.78,3.48,10a15.22,15.22,0,0,1-3.18,9.58,21.92,21.92,0,0,1-8.34,6.51,26.72,26.72,0,0,1-11.33,2.39,27.94,27.94,0,0,1-10.63-2,44.5,44.5,0,0,1-8.45-4.47V69.45a50.39,50.39,0,0,0,8.9,4.82,28.81,28.81,0,0,0,11.37,2.13,15.49,15.49,0,0,0,8.74-2.48,7.79,7.79,0,0,0,3.78-6.86,6.32,6.32,0,0,0-1.54-4.27,14.86,14.86,0,0,0-3.73-3.08,36,36,0,0,0-4.27-2.18l-11-5q-7.14-3.18-9.73-7.45a18.58,18.58,0,0,1-2.59-9.84,15.9,15.9,0,0,1,3-9.49,21.24,21.24,0,0,1,8.1-6.7A24.45,24.45,0,0,1,450.78,16.59Z" transform="translate(0 -0.67)"/><path class="cls-1" d="M514.7,16.1a47.2,47.2,0,0,1,11.57,1.44,28.63,28.63,0,0,1,9.19,3.82v18A87.65,87.65,0,0,0,527,35a24.34,24.34,0,0,0-9.84-1.84,14.72,14.72,0,0,0-5.66,1,3.39,3.39,0,0,0-2.39,3.28q0,2.48,2.88,3.72c1.93.83,4.28,1.78,7.06,2.83l7.15,2.69c4.84,1.85,8.26,4.37,10.29,7.55a17.67,17.67,0,0,1,3,9.54,18.35,18.35,0,0,1-3.68,11.27,24.9,24.9,0,0,1-9.94,7.75,33.55,33.55,0,0,1-14,2.83,35.08,35.08,0,0,1-11.83-2.08,42.24,42.24,0,0,1-10.23-5.17v-18a47.34,47.34,0,0,0,10.28,5.86,28.81,28.81,0,0,0,11.08,2.28,15.56,15.56,0,0,0,5.61-.84A3,3,0,0,0,519,64.78a3.11,3.11,0,0,0-1.59-2.58,15.15,15.15,0,0,0-4.27-1.89l-9.44-3A21.25,21.25,0,0,1,495,52.46a16.75,16.75,0,0,1-4.28-6.91,26.22,26.22,0,0,1-1.19-7.8,19.34,19.34,0,0,1,3.58-11.87,22.42,22.42,0,0,1,9.34-7.3A30.45,30.45,0,0,1,514.7,16.1Z" transform="translate(0 -0.67)"/><path class="cls-1" d="M598.91,43.52V57.43H572.48V68.26h29.9V84.15H553.9V17.59h48.48V33h-29.9V43.52Z" transform="translate(0 -0.67)"/><path class="cls-1" d="M645.35,17.59A35.36,35.36,0,0,1,655.23,19a27,27,0,0,1,8.7,4.27,20.89,20.89,0,0,1,8.54,17.48,18.14,18.14,0,0,1-4.22,12.32,21.33,21.33,0,0,1-10.78,6.66l18.38,24.44H653.2L635.41,57.72V84.15H616.83V17.59ZM635.41,35V47.39a28.17,28.17,0,0,0,3.63,1,20.81,20.81,0,0,0,4.12.39,14.06,14.06,0,0,0,7.3-1.74,5.74,5.74,0,0,0,2.93-5.31c0-2.72-1-4.52-2.93-5.42a17.57,17.57,0,0,0-7.3-1.34Z" transform="translate(0 -0.67)"/><path class="cls-1" d="M747.64,17.59l-30.8,67.56H707.5L676.7,17.59h21.66l13.81,36.56L726,17.59Z" transform="translate(0 -0.67)"/><path class="cls-1" d="M800.65,43.52V57.43H774.22V68.26h29.91V84.15H755.64V17.59h48.49V33H774.22V43.52Z" transform="translate(0 -0.67)"/><polygon class="cls-2" points="802.72 97.91 2.5 97.91 2.5 2.5 818.58 2.5 818.58 97.91 802.72 97.91"/></g></g></g></g></svg>