<svg xmlns="http://www.w3.org/2000/svg" viewBox="0 0 240.02 117.64"><defs><style>.cls-1{fill:#fff;}</style></defs><g id="Layer_2" data-name="Layer 2"><g id="Lockups"><g id="emblems"><g id="white-transparent"><g id="white"><path id="text" class="cls-1" d="M90.82,26.08a39.34,39.34,0,0,1-14.4-1.65,9.24,9.24,0,0,1-6.22-6.37A24.44,24.44,0,0,0,23,18.1a9.18,9.18,0,0,1-6.17,6.32h0A39.39,39.39,0,0,1,2.39,26.08,2.24,2.24,0,0,0,0,28.41c.2,4.95.64,11.45,1.65,19,3.14,23.46,5.92,44.21,21,58.15a52.25,52.25,0,0,0,21.71,11.78,8.25,8.25,0,0,0,4.48,0,52.13,52.13,0,0,0,21.7-11.78c15.1-13.94,17.87-34.69,21-58.15,1-7.54,1.45-14,1.64-19A2.23,2.23,0,0,0,90.82,26.08ZM46.6,7h0a16.93,16.93,0,0,1,0,33.85h0A16.93,16.93,0,1,1,46.6,7ZM84.3,46.43c-1.58,11.78-3,22.71-6,32.19a1.59,1.59,0,0,1-1.53,1.12,3.13,3.13,0,0,0-2.27,1L64,91.66A3.08,3.08,0,0,0,63.14,94l.32,7a1.93,1.93,0,0,1-.74,1.62,42.38,42.38,0,0,1-4.42,2.94h0l-1.34.73h0a2.59,2.59,0,0,1-3-.55l-4.8-5a3.31,3.31,0,0,0-2.4-1H46.6a3.32,3.32,0,0,0-2.39,1l-4.9,5a2.58,2.58,0,0,1-3,.53h0l-1.35-.73h0l-.06,0a42.85,42.85,0,0,1-4.36-2.9,2,2,0,0,1-.74-1.62l.32-7a3.08,3.08,0,0,0-.86-2.31l-10.48-11a3.24,3.24,0,0,0-1-.72,3.18,3.18,0,0,0-1.23-.25,1.59,1.59,0,0,1-1.53-1.12c-3-9.48-4.44-20.41-6-32.19C8.39,42.55,8,38.61,7.7,34.69a1.25,1.25,0,0,1,1.16-1.33A45.27,45.27,0,0,0,19,31.43l.12,0a16.43,16.43,0,0,0,3.07-1.32l1.48-.83a23.46,23.46,0,0,0,23,18.65h0a23.46,23.46,0,0,0,23-18.65l1.49.83a16.06,16.06,0,0,0,3.06,1.32l.12,0a45.25,45.25,0,0,0,10.13,1.93,1.25,1.25,0,0,1,1.15,1.33C85.22,38.61,84.82,42.55,84.3,46.43Z"/><path id="circle" class="cls-1" d="M46.6,36.2A12.26,12.26,0,1,1,58.86,23.94,12.27,12.27,0,0,1,46.6,36.2Zm0-21.41a9.16,9.16,0,1,0,9.16,9.15A9.17,9.17,0,0,0,46.6,14.79Z"/><g id="text-2" data-name="text"><path class="cls-1" d="M20.85,74.38V55l7.48,0C33,54.77,37,57.32,36.65,62.4q-.12,6.34-.26,12.68c.21,5.47-4.76,6.51-8.7,4A33,33,0,0,1,20.85,74.38ZM31.17,63.29c.06-2-1.32-2.49-3-2.69l-2.05-.27-.27,12.21c.79.37,1.19.54,2,.87,1.63.67,3,.78,3.08-1.12Q31.06,67.79,31.17,63.29Z"/><path class="cls-1" d="M48.86,79a38.52,38.52,0,0,1-6-.09c-.41,1.88-.62,2.81-1,4.67A21.23,21.23,0,0,1,36,82.41c2.65-9.06,5.06-18.18,7.32-27.35a26.78,26.78,0,0,1,5.22,0c2.24,9.28,4.64,18.52,7.26,27.71a21.16,21.16,0,0,1-5.93.94C49.47,81.83,49.27,80.88,48.86,79Zm-3-14.57c-.66,3.32-1,5-1.69,8.26,1.34,0,2,.06,3.36,0C46.88,69.4,46.55,67.74,45.89,64.41Z"/><path class="cls-1" d="M57,82.47l-.57-27.42h7.48c3.45,0,8.46.77,8.48,5.17v8.95c-.06,4.53-4,8.61-7.86,10.43A32.85,32.85,0,0,1,57,82.47Zm10.14-20c0-1.81-1.41-1.92-3.08-1.72L62,60.94l.36,13.59c.82-.27,1.23-.42,2-.73,1.65-.63,3-1.56,2.92-3.27C67.23,67.29,67.2,65.68,67.12,62.44Z"/></g></g><g id="title"><path class="cls-1" d="M106.13,42V21.06a15.09,15.09,0,0,1,2.43-.28q2.11-.15,3.57-.15,5.78,0,8.86,3.35a10.47,10.47,0,0,1,2.56,7.34q0,5.67-3.35,8.52c-2,1.73-4.88,2.59-8.6,2.59A27.51,27.51,0,0,1,106.13,42Zm5.11-17.15V38.32a5.16,5.16,0,0,0,1.16.13h.06q5.78-.11,5.78-7a6.92,6.92,0,0,0-1.93-5.28,5.62,5.62,0,0,0-4-1.42A6.81,6.81,0,0,0,111.24,24.85Z"/><path class="cls-1" d="M127.2,21h14.3v4h-9.19v4.15h7.63v4h-7.63V38h9.62v4H127.2Z"/><path class="cls-1" d="M145.71,42V21H160v4h-9.19v4.18h7.63v4.05h-7.63V42Z"/><path class="cls-1" d="M163.8,21h14.3v4h-9.19v4.15h7.63v4h-7.63V38h9.62v4H163.8Z"/><path class="cls-1" d="M182.45,42V21h4.18q7.56,9.55,10.48,13.44V21h5.11V42h-4.31q-5.55-6.47-10.45-13V42Z"/><path class="cls-1" d="M206,39.74l2.29-3.15a8.1,8.1,0,0,0,4.81,1.3c2.08,0,3.12-.79,3.12-2.36q0-1.43-3.91-2.75-5.44-1.89-5.45-6.27a5.29,5.29,0,0,1,2-4.35,7.83,7.83,0,0,1,5.08-1.53,12,12,0,0,1,6.93,2.29q-.69,1.06-2.19,3.15a14.52,14.52,0,0,0-4.88-1.16c-1.46,0-2.19.54-2.19,1.63,0,.82,1.19,1.71,3.55,2.69a13.74,13.74,0,0,1,4.76,2.92,5.14,5.14,0,0,1,1.48,3.68A5.86,5.86,0,0,1,218.88,41a8.46,8.46,0,0,1-5.11,1.46A14.68,14.68,0,0,1,206,39.74Z"/><path class="cls-1" d="M225.28,21h14.3v4h-9.19v4.15H238v4h-7.64V38H240v4H225.28Z"/><path class="cls-1" d="M112.84,49.91h4.26l8.07,21.75h-5.36c-.52-1.79-1-3.22-1.3-4.3h-7.15c-.66,2-1.11,3.4-1.34,4.3h-5.25ZM115,57q-1,2.68-2.13,6H117C116.55,61.54,115.88,59.53,115,57Z"/><path class="cls-1" d="M142.9,52.52l-2,3.4A8.11,8.11,0,0,0,136.06,54a4.08,4.08,0,0,0-3.42,2A8.58,8.58,0,0,0,131.25,61a6.81,6.81,0,0,0,2,5,4.86,4.86,0,0,0,3.54,1.58,5.5,5.5,0,0,0,2-.27V63.69h-3.88V59.12h8.83V69.73a22.74,22.74,0,0,1-4.21,1.89,13.82,13.82,0,0,1-3.83.45,8.83,8.83,0,0,1-8-4,13,13,0,0,1-1.89-7.18,11.89,11.89,0,0,1,3-8.39,9.15,9.15,0,0,1,7-3,9.65,9.65,0,0,1,3.84.82A10.12,10.12,0,0,1,142.9,52.52Z"/><path class="cls-1" d="M154.1,49.91h4.26l8.07,21.75h-5.36c-.53-1.79-1-3.22-1.3-4.3h-7.15c-.66,2-1.11,3.4-1.34,4.3H146ZM156.3,57q-1,2.68-2.13,6h4.12C157.81,61.54,157.14,59.53,156.3,57Z"/><path class="cls-1" d="M174.3,49.91V71.66h-5.19V49.91Z"/><path class="cls-1" d="M179.59,71.66V49.91h4.32q7.84,9.9,10.86,13.91V49.91h5.29V71.66H195.6q-5.74-6.7-10.83-13.43V71.66Z"/><path class="cls-1" d="M203.94,69.29,206.31,66a8.39,8.39,0,0,0,5,1.34c2.16,0,3.23-.81,3.23-2.44q0-1.47-4.05-2.85-5.64-1.95-5.63-6.49a5.46,5.46,0,0,1,2.09-4.5,8.16,8.16,0,0,1,5.26-1.58,12.47,12.47,0,0,1,7.18,2.37c-.48.73-1.24,1.82-2.27,3.26a15,15,0,0,0-5-1.2c-1.51,0-2.27.56-2.27,1.68q0,1.28,3.68,2.79a14.34,14.34,0,0,1,4.93,3,5.37,5.37,0,0,1,1.53,3.81,6.09,6.09,0,0,1-2.61,5.33A8.8,8.8,0,0,1,212,72.07,15.31,15.31,0,0,1,203.94,69.29Z"/><path class="cls-1" d="M227.47,54.1h-6.14V49.91H239.4V54.1h-6.6V71.66h-5.33Z"/><path class="cls-1" d="M106.13,99.69V79.55a14.54,14.54,0,0,1,2.34-.27c1.35-.1,2.49-.14,3.43-.14q5.55,0,8.52,3.22a10,10,0,0,1,2.46,7c0,3.64-1.08,6.37-3.22,8.2q-2.91,2.49-8.27,2.49A27.14,27.14,0,0,1,106.13,99.69ZM111,83.19v13a4.82,4.82,0,0,0,1.12.13h.06q5.55-.09,5.55-6.73a6.63,6.63,0,0,0-1.85-5.07,5.38,5.38,0,0,0-3.8-1.38A7.6,7.6,0,0,0,111,83.19Z"/><path class="cls-1" d="M131.33,79.52v20.2h-4.81V79.52Z"/><path class="cls-1" d="M141.35,79.52h4l7.5,20.2h-5c-.49-1.66-.89-3-1.21-4H140c-.62,1.83-1,3.16-1.24,4h-4.89Zm2.05,6.57q-.93,2.49-2,5.59h3.83Z"/><path class="cls-1" d="M155.3,99.69V79.55a37,37,0,0,1,6.12-.41q4.13,0,6.16,1.94a5.35,5.35,0,0,1,1.6,4.06,3.55,3.55,0,0,1-1.28,2.6,3.94,3.94,0,0,1-2.71,1.19H165v0a5.31,5.31,0,0,1,3.44,1.58,4.92,4.92,0,0,1,1.28,3.5A5.13,5.13,0,0,1,167,98.7a11.94,11.94,0,0,1-6.22,1.4A31.12,31.12,0,0,1,155.3,99.69Zm4.91-16.5v3.92h2a2.55,2.55,0,0,0,1.71-.44,2,2,0,0,0,.49-1.53c0-1.41-.91-2.11-2.74-2.11A6.29,6.29,0,0,0,160.21,83.19Zm0,7.82v5a4.3,4.3,0,0,0,1.72.35c1.79,0,2.68-.78,2.68-2.33,0-2-.9-3-2.71-3Z"/><path class="cls-1" d="M173.17,79.52h13.75v3.89h-8.84v4h7.34v3.89h-7.34v4.54h9.25v3.89H173.17Z"/><path class="cls-1" d="M194.74,83.41H189V79.52h16.78v3.89h-6.13V99.72h-4.94Z"/><path class="cls-1" d="M208.52,79.52h13.75v3.89h-8.83v4h7.33v3.89h-7.33v4.54h9.25v3.89H208.52Z"/><path class="cls-1" d="M225.18,97.52l2.2-3A7.9,7.9,0,0,0,232,95.73c2,0,3-.75,3-2.27q0-1.36-3.77-2.64Q226,89,226,84.79A5.13,5.13,0,0,1,228,80.6a7.62,7.62,0,0,1,4.89-1.46,11.56,11.56,0,0,1,6.67,2.2c-.45.68-1.15,1.69-2.11,3a14,14,0,0,0-4.69-1.12c-1.4,0-2.11.52-2.11,1.57,0,.78,1.14,1.65,3.42,2.58a13.43,13.43,0,0,1,4.58,2.81A5,5,0,0,1,240,93.75a5.65,5.65,0,0,1-2.43,5,8.22,8.22,0,0,1-4.91,1.4A14.19,14.19,0,0,1,225.18,97.52Z"/></g></g></g></g></g></svg>