<svg xmlns="http://www.w3.org/2000/svg" viewBox="0 0 113.39 74.58"><defs><style>.cls-1{fill:#fff;}</style></defs><g id="Layer_2" data-name="Layer 2"><g id="Layer_1-2" data-name="Layer 1"><rect class="cls-1" x="79.87" width="33.51" height="38.54" rx="2.94"/><rect class="cls-1" x="45.2" y="10.6" width="27.94" height="27.94" rx="2.94"/><rect class="cls-1" x="15.41" y="20.99" width="23.93" height="17.74" rx="2.94"/><rect class="cls-1" x="0.7" y="29.2" width="9.35" height="9.35" rx="2.94"/><path class="cls-1" d="M89.16,73.91a3.8,3.8,0,0,1-2.88-1,4,4,0,0,1-1-2.93V47.55a4.07,4.07,0,0,1,1-2.93,3.83,3.83,0,0,1,2.88-1,3.74,3.74,0,0,1,2.81,1,4.07,4.07,0,0,1,1,2.93v7.87h12.18V47.55a4.07,4.07,0,0,1,1-2.93,3.72,3.72,0,0,1,2.8-1,3.78,3.78,0,0,1,2.87,1,4.15,4.15,0,0,1,1,2.93V69.93a4.12,4.12,0,0,1-1,2.93,3.75,3.75,0,0,1-2.87,1,3.69,3.69,0,0,1-2.8-1,4,4,0,0,1-1-2.93V61.69H93v8.24a4.12,4.12,0,0,1-1,2.93A3.7,3.7,0,0,1,89.16,73.91Z"/><path class="cls-1" d="M109,74.5a4.28,4.28,0,0,1-3.22-1.23,4.63,4.63,0,0,1-1.17-3.34V62.28h-11v7.65a4.7,4.7,0,0,1-1.14,3.33,4.28,4.28,0,0,1-3.26,1.24,4.43,4.43,0,0,1-3.31-1.23,4.66,4.66,0,0,1-1.16-3.34V47.55a4.65,4.65,0,0,1,1.16-3.33A4.39,4.39,0,0,1,89.16,43a4.26,4.26,0,0,1,3.23,1.23,4.66,4.66,0,0,1,1.17,3.33v7.28h11V47.55a4.62,4.62,0,0,1,1.17-3.33A4.24,4.24,0,0,1,109,43a4.36,4.36,0,0,1,3.3,1.23,4.73,4.73,0,0,1,1.14,3.33V69.93a4.7,4.7,0,0,1-1.14,3.33A4.33,4.33,0,0,1,109,74.5ZM92.38,61.11h13.35v8.82a3.51,3.51,0,0,0,.84,2.53,3.81,3.81,0,0,0,4.82,0,3.55,3.55,0,0,0,.82-2.53V47.55a3.54,3.54,0,0,0-.82-2.52,3.77,3.77,0,0,0-4.82,0,3.5,3.5,0,0,0-.84,2.52V56H92.38V47.55A3.46,3.46,0,0,0,91.54,45a3.12,3.12,0,0,0-2.38-.87A3.25,3.25,0,0,0,86.7,45a3.46,3.46,0,0,0-.84,2.52V69.93a3.47,3.47,0,0,0,.84,2.53,3.25,3.25,0,0,0,2.46.86,3.1,3.1,0,0,0,2.4-.86,3.55,3.55,0,0,0,.82-2.53Z"/><path class="cls-1" d="M4.6,73.49a4.06,4.06,0,0,1-3-1,4.08,4.08,0,0,1-1-3V48a4.07,4.07,0,0,1,1-3,4.06,4.06,0,0,1,3-1h8.16q7.7,0,11.9,3.85t4.21,10.87A17.14,17.14,0,0,1,27.8,65a12.36,12.36,0,0,1-3.12,4.62,13.42,13.42,0,0,1-5,2.89,22.18,22.18,0,0,1-6.88,1Zm3.68-6.23h4a11.82,11.82,0,0,0,3.83-.55,7,7,0,0,0,2.68-1.59,6.39,6.39,0,0,0,1.59-2.63,12.39,12.39,0,0,0,.52-3.77q0-4.3-2.14-6.4T12.3,50.23h-4Z"/><path class="cls-1" d="M12.76,74.08H4.6a4.63,4.63,0,0,1-3.4-1.2A4.6,4.6,0,0,1,0,69.47V48a4.59,4.59,0,0,1,1.2-3.4,4.59,4.59,0,0,1,3.4-1.2h8.16c5.26,0,9.4,1.35,12.3,4s4.39,6.48,4.39,11.31a17.83,17.83,0,0,1-1.1,6.49,12.93,12.93,0,0,1-3.27,4.84,14,14,0,0,1-5.25,3A22.54,22.54,0,0,1,12.76,74.08ZM4.6,44.58A3.48,3.48,0,0,0,2,45.44,3.48,3.48,0,0,0,1.17,48V69.47A3.49,3.49,0,0,0,2,72.05a3.48,3.48,0,0,0,2.57.85h8.16a21.67,21.67,0,0,0,6.7-1,12.88,12.88,0,0,0,4.83-2.76,11.76,11.76,0,0,0,3-4.41,16.37,16.37,0,0,0,1-6.06c0-4.49-1.35-8-4-10.44s-6.55-3.7-11.51-3.7Zm7.7,23.26H7.7V49.64h4.6c3,0,5.37.76,6.9,2.26s2.3,3.8,2.3,6.82a12.6,12.6,0,0,1-.55,4,7,7,0,0,1-1.73,2.87,7.51,7.51,0,0,1-2.9,1.73A12.7,12.7,0,0,1,12.3,67.84ZM8.87,66.67H12.3a11.5,11.5,0,0,0,3.64-.51A6.27,6.27,0,0,0,18.4,64.7a5.82,5.82,0,0,0,1.44-2.4,11.47,11.47,0,0,0,.49-3.58c0-2.69-.66-4.71-2-6S15,50.82,12.3,50.82H8.87Z"/><path class="cls-1" d="M37.4,73.49a3.19,3.19,0,0,1-2.4-.84,3.11,3.11,0,0,1-.82-2.3,3.05,3.05,0,0,1,.82-2.3,3.29,3.29,0,0,1,2.4-.79h3.68V50.1h3.56l-6.07,3.77a3,3,0,0,1-2,.52,2.74,2.74,0,0,1-1.61-.81A3.55,3.55,0,0,1,34,52a3.28,3.28,0,0,1,.15-2,3.16,3.16,0,0,1,1.51-1.61l5.81-3.6a7.6,7.6,0,0,1,1.86-.9,6.78,6.78,0,0,1,2.07-.31,3.55,3.55,0,0,1,2.49.83,3.11,3.11,0,0,1,.9,2.39V67.26h3.31a3.24,3.24,0,0,1,2.36.79,3.05,3.05,0,0,1,.82,2.3,3.1,3.1,0,0,1-.82,2.32,3.17,3.17,0,0,1-2.36.82Z"/><path class="cls-1" d="M52.13,74.08H37.4a3.73,3.73,0,0,1-2.82-1,3.69,3.69,0,0,1-1-2.71,3.64,3.64,0,0,1,1-2.72,3.86,3.86,0,0,1,2.81-1h3.1V53.37l-1.62,1a3.59,3.59,0,0,1-2.45.6,3.35,3.35,0,0,1-1.94-1,4.19,4.19,0,0,1-1-1.91,3.85,3.85,0,0,1,.17-2.29,3.74,3.74,0,0,1,1.77-1.91l5.79-3.59a8.19,8.19,0,0,1,2-1A7.5,7.5,0,0,1,45.43,43a4.09,4.09,0,0,1,2.89,1,3.66,3.66,0,0,1,1.09,2.81V66.67h2.72a3.81,3.81,0,0,1,2.77,1,3.63,3.63,0,0,1,1,2.72,3.42,3.42,0,0,1-3.76,3.73ZM37.4,67.84a2.79,2.79,0,0,0-2,.63,2.5,2.5,0,0,0-.64,1.88,2.54,2.54,0,0,0,.65,1.89,2.6,2.6,0,0,0,2,.66H52.13a2.67,2.67,0,0,0,1.95-.64,2.58,2.58,0,0,0,.64-1.91,2.5,2.5,0,0,0-.64-1.88,2.73,2.73,0,0,0-1.95-.63H48.24v-21a2.54,2.54,0,0,0-.72-2,3,3,0,0,0-2.09-.68,6.23,6.23,0,0,0-1.89.29,6.76,6.76,0,0,0-1.71.83L36,48.89a2.58,2.58,0,0,0-1.26,1.32,2.68,2.68,0,0,0-.13,1.6,2.86,2.86,0,0,0,.73,1.36,2.24,2.24,0,0,0,1.28.64,2.46,2.46,0,0,0,1.66-.44L40.5,52V49.52h6.2l-5,3.12v15.2Zm4.27-17.15v.57l.91-.57Z"/><path class="cls-1" d="M68.44,74a9.69,9.69,0,0,1-8.34-4q-2.91-4-2.91-11.38a22.94,22.94,0,0,1,1.3-8.24,9.89,9.89,0,0,1,9.95-6.87,9.79,9.79,0,0,1,8.37,3.87q2.88,3.87,2.89,11.24a23.67,23.67,0,0,1-1.3,8.32,11,11,0,0,1-3.81,5.25A10.14,10.14,0,0,1,68.44,74Zm0-6.15a3.14,3.14,0,0,0,3-2.19,18.9,18.9,0,0,0,1-7.05c0-3.21-.33-5.5-1-6.88a3.16,3.16,0,0,0-5.94,0q-1,2.07-1,6.88a18.94,18.94,0,0,0,1,7.05A3.14,3.14,0,0,0,68.44,67.84Z"/><path class="cls-1" d="M68.44,74.58a10.28,10.28,0,0,1-8.82-4.26c-2-2.77-3-6.71-3-11.72a23.66,23.66,0,0,1,1.34-8.45,10.48,10.48,0,0,1,10.5-7.24A10.41,10.41,0,0,1,77.28,47c2,2.68,3,6.57,3,11.59A24.41,24.41,0,0,1,79,67.13a11.74,11.74,0,0,1-4,5.52A10.85,10.85,0,0,1,68.44,74.58Zm0-30.5a10,10,0,0,0-5.81,1.63A10.14,10.14,0,0,0,59,50.57a22.76,22.76,0,0,0-1.25,8c0,4.76.94,8.47,2.79,11a9,9,0,0,0,7.87,3.78,9.7,9.7,0,0,0,5.81-1.71,10.65,10.65,0,0,0,3.6-5,23.13,23.13,0,0,0,1.26-8.12c0-4.76-.93-8.42-2.77-10.88S71.93,44.08,68.44,44.08Zm0,24.35a3.7,3.7,0,0,1-3.5-2.55,19.12,19.12,0,0,1-1-7.28c0-3.33.34-5.66,1-7.13a3.75,3.75,0,0,1,7,0c.68,1.47,1,3.8,1,7.13s-.33,5.73-1,7.28A3.71,3.71,0,0,1,68.44,68.43Zm0-18.2A2.55,2.55,0,0,0,66,52c-.6,1.3-.9,3.53-.9,6.64A18.33,18.33,0,0,0,66,65.41a2.53,2.53,0,0,0,4.87,0,18.55,18.55,0,0,0,.91-6.81c0-3.11-.31-5.34-.91-6.64A2.54,2.54,0,0,0,68.44,50.23Z"/></g></g></svg>