<?xml version="1.0" encoding="UTF-8"?>
<svg id="Layer_2" data-name="Layer 2" xmlns="http://www.w3.org/2000/svg" xmlns:xlink="http://www.w3.org/1999/xlink" viewBox="0 0 1920 982.71">
  <defs>
    <style>
      .cls-1 {
        clip-path: url(#clippath-11);
      }

      .cls-2 {
        fill: #815a2c;
      }

      .cls-3 {
        fill: #f9ad54;
      }

      .cls-4 {
        fill: #7d572a;
      }

      .cls-5 {
        fill: #805829;
      }

      .cls-6 {
        fill: #7d5b33;
      }

      .cls-7 {
        fill: #fab666;
      }

      .cls-8 {
        fill: #846036;
      }

      .cls-9 {
        clip-path: url(#clippath-2);
      }

      .cls-10 {
        isolation: isolate;
      }

      .cls-11 {
        fill: #835a29;
      }

      .cls-12 {
        fill: #f9b566;
      }

      .cls-13 {
        clip-path: url(#clippath-6);
      }

      .cls-14 {
        fill: #815829;
      }

      .cls-15 {
        fill: #875e2e;
      }

      .cls-16 {
        fill: #815929;
      }

      .cls-17 {
        fill: #faba6f;
      }

      .cls-18 {
        fill: #ffb419;
      }

      .cls-19 {
        clip-path: url(#clippath-7);
      }

      .cls-20 {
        clip-path: url(#clippath-1);
      }

      .cls-21 {
        fill: #865d2d;
      }

      .cls-22 {
        clip-path: url(#clippath-4);
      }

      .cls-23 {
        fill: #825f35;
      }

      .cls-24 {
        fill: #896438;
      }

      .cls-25 {
        fill: #855b2a;
      }

      .cls-26 {
        fill: #80592b;
      }

      .cls-27 {
        fill: #825929;
      }

      .cls-28 {
        fill: #8a6538;
      }

      .cls-29 {
        fill: #4b6496;
      }

      .cls-30 {
        fill: #835a2a;
      }

      .cls-31 {
        fill: #7b490f;
      }

      .cls-32 {
        fill: #815e35;
      }

      .cls-33 {
        fill: #7f5728;
      }

      .cls-34 {
        fill: #855c2d;
      }

      .cls-35 {
        clip-path: url(#clippath-9);
      }

      .cls-36 {
        fill: #835f35;
      }

      .cls-37 {
        clip-path: url(#clippath);
      }

      .cls-38 {
        fill: #f9ab4f;
      }

      .cls-39 {
        fill: none;
      }

      .cls-40 {
        clip-path: url(#clippath-3);
      }

      .cls-41 {
        fill: #85633b;
      }

      .cls-42 {
        clip-path: url(#clippath-8);
      }

      .cls-43 {
        fill: #f8aa4f;
      }

      .cls-44 {
        fill: #ffe7b3;
      }

      .cls-45 {
        clip-path: url(#clippath-5);
      }

      .cls-46 {
        clip-path: url(#clippath-10);
      }

      .cls-47 {
        fill: #7e5728;
      }

      .cls-48 {
        fill: #834e10;
      }

      .cls-49 {
        fill: #856136;
      }

      .cls-50 {
        fill: #7e582b;
      }

      .cls-51 {
        fill: #f6921e;
      }
    </style>
    <clipPath id="clippath">
      <rect class="cls-39" y="22.03" width="1920" height="960.68"/>
    </clipPath>
    <clipPath id="clippath-1">
      <path class="cls-39" d="M600.42,196.11v7.61c-.55,.05-11.02,.94-11.37,2.19-.34,1.25-.99,19.92-1.03,20.91v-7.61c.03-.98,.68-19.66,1.03-20.91,.35-1.25,10.82-2.14,11.37-2.19Z"/>
    </clipPath>
    <clipPath id="clippath-2">
      <path class="cls-39" d="M1854.02,515.43v3.38c-.4,.53-7.94,10.62-7.94,11.65v-3.38c0-1.03,7.54-11.12,7.94-11.65Z"/>
    </clipPath>
    <clipPath id="clippath-3">
      <path class="cls-39" d="M755.55,655.89v8.45c-1.4-.17-28.08-3.34-28.75-4.55-.67-1.22-6.39-11.3-6.7-11.84v-8.45c.3,.53,6.03,10.62,6.7,11.84,.67,1.22,27.34,4.38,28.75,4.55Z"/>
    </clipPath>
    <clipPath id="clippath-4">
      <rect class="cls-39" x="978.03" y="300.62" width="350.52" height="196.72"/>
    </clipPath>
    <clipPath id="clippath-5">
      <rect class="cls-39" x="1119.39" y="379.9" width="209.16" height="261.95"/>
    </clipPath>
    <clipPath id="clippath-6">
      <rect class="cls-39" x="1341.5" y="279.8" width="162.32" height="179.49"/>
    </clipPath>
    <clipPath id="clippath-7">
      <rect class="cls-39" x="22.35" y="302.03" width="402.11" height="244.39"/>
    </clipPath>
    <clipPath id="clippath-8">
      <rect class="cls-39" x="577.56" y="0" width="221.61" height="99.96"/>
    </clipPath>
    <clipPath id="clippath-9">
      <rect class="cls-39" x="755.95" y="593.4" width="169.05" height="323.15"/>
    </clipPath>
    <clipPath id="clippath-10">
      <rect class="cls-39" x="294.09" y="130.29" width="1402.57" height="638.05"/>
    </clipPath>
    <clipPath id="clippath-11">
      <rect class="cls-39" x="304.46" y="133.15" width="1384.26" height="623.06"/>
    </clipPath>
  </defs>
  <g id="data6">
    <g>
      <g class="cls-10">
        <g class="cls-37">
          <path class="cls-29" d="M780.78,22.03c-.65,0-1.3,.04-1.94,.09l-120.18,8.34c-4.03,.27-7.91,1.44-11.35,3.38l-63.99,36.53c-3.03,1.71-5.62,4.06-7.61,6.81l-15.48,21.65-7.31,7.44-100.52,63.14c-3.69,2.3-6.62,5.51-8.46,9.16l-14.34,28.36-2.93,2.35h-29.65c-14.04,0-20.16,6.94-40.46,32.15l-42.89,25.8-110.07,9.52c-5.33,.45-10.35,2.48-14.34,5.73l-23.44,19.17-11.69,9.74c-.5,.41-.9,.82-1.35,1.22l-33.43,32.34L15.48,383.32c-6.12,2.26-11.04,6.67-13.58,12.27-2.54,5.55-2.54,11.82,.04,17.37l3.74,7.98c3.88,8.43,12.99,13.85,22.89,13.85,.85,0,1.69-.05,2.49-.14l3.28-.27c3.13,3.03,7.26,5.28,11.99,6.36l2,.45c3.98,3.65,9.15,5.99,14.78,6.63l5.77,11.27,12.24,27.87,1.1,8.88c1.14,9.11,8.21,16.69,17.96,19.17l291.11,74.82,.3,.09,22.64,10.06,10.79,6.86c.35,.22,.65,.41,1,.59l48.17,27.6c3.99,2.29,8.61,3.52,13.29,3.52h.79c3.09,1.22,6.47,1.84,9.9,1.84,2.04,0,4.09-.22,6.12-.68l.21-.04c2.93,1.31,6.16,2.12,9.5,2.3l3.23,.18,8.51,6.49c4.53,3.43,10.2,5.28,16.02,5.28,1.24,0,2.48-.09,3.73-.27,5.52-.77,10.59-3.21,14.38-6.81,1.84-.41,3.68-.95,5.37-1.71,4.63,4.1,10.9,6.36,17.32,6.36,1.54,0,3.03-.14,4.58-.41l6.52,2.84c3.38,1.44,7.02,2.17,10.7,2.17,2.29,0,4.53-.28,6.77-.82l8.36,5.55c4.33,2.89,9.5,4.33,14.68,4.33,2.54,0,5.02-.32,7.46-.99l.69,.5c4.54,3.47,10.21,5.28,15.97,5.28,.8,0,1.59,0,2.39-.09,1.74,1.53,3.63,2.84,5.72,3.88l-2,2.43c-8.01,9.83-5.92,23.63,4.68,31.17l16.43,11.68c4.37,3.11,9.8,4.78,15.33,4.78,1.59,0,3.13-.14,4.73-.41l3.38-.59c5.67,7.63,15.27,10.24,35.08,12.68l1.14,1.44c1.25,1.57,2.74,3.02,4.38,4.28l1.49,1.09c-.5,1.04-.9,2.07-1.24,3.11-1.8,5.95-.8,12.32,2.68,17.59l2.89,4.37c-2.99,2.03-5.47,4.69-7.22,7.81-4.23,7.58-3.43,16.69,2.14,23.54l2.74,3.38c.3,2.25,.59,4.19,.85,5.91-2.84,3.25-6.37,7.44-10.95,12.86-3.53,4.19-5.32,9.42-5.02,14.7l.45,9.11-2.39,4.15c-4.13,7.08-3.78,15.64,.95,22.46l6.43,9.25c3.58,5.14,9.31,8.79,15.87,10.06,1.75,.32,3.44,.5,5.18,.5,3.33,0,6.61-.64,9.7-1.8l7.91,1.53c-.7,2.11-1.1,4.32-1.1,6.53v2.57l-1.74,4.11c-.7,1.71-1.2,3.52-1.45,5.32l-1.04,8.03-3.03,10.02c-2.59,8.79,.89,18.17,8.86,23.77l38.47,26.88c4.43,3.07,9.8,4.69,15.18,4.69,3.38,0,6.77-.63,10-1.89,8.31-3.3,13.99-10.47,14.78-18.67l1.55-15.2,69.17-95.21c1.1-1.48,1.99-3.11,2.64-4.78l15.68-39.69,3.93-7.08,30.9-43.61,56.19-6c6.57-.68,12.59-3.74,16.67-8.47l27.47-31.75,.85,.05-11.3,17.63c-2.54,3.96-3.68,8.52-3.28,13.12l1.2,13.98c.59,6.94,4.68,13.21,11.04,17.05l15.43,9.24c4.09,2.44,8.91,3.74,13.73,3.74,2.39,0,4.83-.32,7.22-.99,7.07-1.94,12.84-6.68,15.72-12.86l10.4-22.46,8.01-3.43c6.32-2.71,11-7.63,13.09-13.48l.7-.18c.99-.28,1.94-.59,2.88-1l12.89-5.28c3.24-1.31,6.13-3.25,8.46-5.69l20.85-21.51c2.64-2.71,4.48-5.95,5.47-9.47l6.47-23.82c1.75-1.62,3.48-3.2,5.03-4.55,7.16-.82,19.56-2.26,41.4-4.87l34.79,14.34c3.29,1.35,6.81,2.03,10.3,2.03,4.73,0,9.41-1.22,13.49-3.56,6.12-3.61,10.15-9.38,11.14-15.83l3.99-.27,47.22-.32c7.56-.04,14.68-3.2,19.36-8.56l34.98-40.05,23.59-.18,81.31,27.37,52.6,45.33c2.09,1.8,4.53,3.3,7.21,4.33l35.98,14.16c3.13,1.26,6.52,1.89,9.9,1.89,4.13,0,8.22-.95,11.9-2.75,6.77-3.34,11.39-9.29,12.64-16.19l8.31-46,19.36,13.98c4.48,3.21,9.95,4.87,15.48,4.87,1.99,0,3.93-.18,5.92-.63l36.42-8.03,23.24,1.17,10.5,.73c.59,.04,1.2,.04,1.84,.04h15.82c3.83,3.74,9.05,6.27,15.03,6.95l58.27,6.72c1.05,.13,2.1,.18,3.14,.18,6.02,0,11.89-1.98,16.42-5.64,5.38-4.24,8.46-10.42,8.46-16.92v-15.91c0-9.2-6.17-17.5-15.57-20.93l-19.36-7.08c-2.44-3.12-4.88-6.27-7.07-9.06,6.36-9.79,3.68-22.41-6.37-29.36l-23.09-15.96c-3.18-2.21-6.87-3.65-10.75-4.29,2.49-5.14,2.79-11.13,.49-16.73l-37.07-91.33c-3.63-8.92-12.99-14.75-23.34-14.75-.75,0-1.44,0-2.19,.1l-26.48,2.07c-4.08,.36-8.06,1.62-11.55,3.65l-24.93,14.97-4.63-7.48c-4.53-7.31-12.94-11.55-21.74-11.55-2.83,0-5.72,.45-8.56,1.39l-37.97,12.63-25.48-13.21c-3.78-1.99-8.06-2.98-12.34-2.98-1.1,0-2.14,.04-3.19,.18,.1-.99,.15-1.99,.1-2.94l-1.39-52.59,12.89-20.74c4.58-7.31,4.28-16.33-.79-23.36-4.58-6.45-12.49-10.24-20.85-10.24-.79,0-1.54,0-2.34,.09l-70.71,6c-.94,.05-1.84,.18-2.74,.36l-13.34,2.48c-1.99,.41-3.93,1-5.77,1.81l-58.82,25.79-88.97-6.76c-.69-.05-1.4-.09-2.09-.09h-12.99c-1.99,0-3.98,.23-5.92,.68l-56.03,12.45-5.72-2.94c-3.78-1.93-8.01-2.88-12.19-2.88s-8.41,.95-12.19,2.88l-90.52,45.96c-2.54,1.31-4.82,3.02-6.71,5l-34.49,36.49-15.17-10.73c-4.48-3.21-9.91-4.78-15.33-4.78-4.19,0-8.36,.95-12.2,2.88l-15.23,7.76-27.92-24.17c-4.73-4.1-10.94-6.22-17.22-6.22-3.23,0-6.47,.54-9.6,1.71l-19.26,7.31-7.11,.09-55.24,.27-77.38-117.58c-2.48-3.83-6.22-6.9-10.7-8.79l-66.23-28.5c-3.33-1.44-6.97-2.21-10.65-2.21h-42.44c-.6,0-1.25,.04-1.84,.09l-13.73,.9c-2.09-4.28-5.62-7.98-10.25-10.42-3.88-2.07-8.26-3.11-12.59-3.11-5.62,0-11.25,1.75-15.82,5.14l-36.93,27.6,.85-6c.1-.68,.15-1.39,.2-2.12,.05-1.66,.1-3.43,.15-5.18,3.78-2.03,6.91-4.92,9.11-8.48l43.49-71.12,6.07-7.04,79.57-56.78,46.48-12.86c3.93-1.08,7.46-3.02,10.35-5.64l8.66-7.85c9.46-8.61,9.7-22.46,.55-31.35l-20.95-20.25c-4.73-4.55-11.29-7.12-18.11-7.12"/>
        </g>
      </g>
      <g class="cls-10">
        <polygon class="cls-41" points="188.27 290.04 188.27 291.73 180.05 291.63 180.05 289.94 188.27 290.04"/>
        <rect class="cls-41" x="424.47" y="321.22" width="43.65" height="1.69"/>
        <rect class="cls-41" x="188.27" y="354" width="34.11" height="1.69"/>
        <rect class="cls-41" x="222.38" y="387.89" width="108.49" height="1.69"/>
        <rect class="cls-41" x="330.87" y="451.57" width="93.6" height="1.69"/>
        <path class="cls-17" d="M447.57,195.34v109.13h20.55v16.75h-43.65v130.35h-93.6v-63.68h-108.49v-33.89h-34.11v-63.96l-8.22-.11,23.43-18.62,116.29-9.68,51.78-30.16c1.05-1.27,20.96-25.33,23.01-25.33h39.04l13.97-10.8Z"/>
      </g>
      <g class="cls-10">
        <polygon class="cls-33" points="644.87 125.72 644.87 133.33 600.42 203.72 600.42 196.11 644.87 125.72"/>
        <g class="cls-10">
          <g class="cls-20">
            <g class="cls-10">
              <path class="cls-16" d="M600.42,196.11v7.61c-.55,.05-11.02,.94-11.37,2.19-.34,1.25-.99,19.92-1.03,20.91v-7.61c.03-.98,.68-19.66,1.03-20.91,.35-1.25,10.82-2.14,11.37-2.19"/>
            </g>
          </g>
        </g>
        <rect class="cls-25" x="556.34" y="219.2" width="31.69" height="7.61"/>
        <rect class="cls-25" x="520.53" y="246.67" width="35.81" height="7.61"/>
        <rect class="cls-25" x="458.46" y="274.43" width="21.19" height="7.61"/>
        <rect class="cls-25" x="436.86" y="413.02" width="83.67" height="7.61"/>
        <path class="cls-38" d="M624.55,91.7v34.02h20.31l-44.44,70.39c-.55,.05-11.02,.94-11.37,2.19-.34,1.25-.99,19.92-1.03,20.91h-31.69v27.46h-35.81v166.35h-83.67v-89.69h42.79v-48.9h-21.19v-96.1l5.6-24.03,102.99-62.59h57.51Z"/>
      </g>
      <polygon class="cls-44" points="703.07 297.43 717.6 297.43 717.6 325 681.92 325 681.92 422.99 532.32 423.34 532.32 266.59 568.37 266.59 568.37 240.31 586.49 240.31 579.14 259.15 587.31 284.08 664.61 228.17 661.64 242.99 703.07 240.31 703.07 297.43"/>
      <g class="cls-10">
        <rect class="cls-48" x="714.43" y="258.69" width="14.86" height="18.6"/>
        <polygon class="cls-31" points="714.43 258.69 714.43 277.29 713.49 229.87 713.49 211.27 714.43 258.69"/>
        <rect class="cls-48" x="694.41" y="458.48" width="137.66" height="18.6"/>
        <polygon class="cls-48" points="966.03 490.6 966.03 509.2 933.63 509.51 933.63 490.92 966.03 490.6"/>
        <rect class="cls-48" x="832.08" y="549.89" width="101.56" height="18.6"/>
        <polygon class="cls-51" points="745.5 211.27 811.76 238.88 896.4 363.36 966.03 363.05 966.03 490.6 933.63 490.92 933.63 549.89 832.08 549.89 832.08 458.48 694.41 458.48 694.41 306.2 728.97 306.2 729.29 258.69 714.43 258.69 713.49 211.27 745.5 211.27"/>
      </g>
      <g class="cls-10">
        <polygon class="cls-8" points="1586.29 274.85 1586.29 278.23 1570.04 303.59 1570.04 300.21 1586.29 274.85"/>
        <polygon class="cls-8" points="1571.55 357.1 1571.55 360.48 1562.09 375.56 1562.09 372.18 1571.55 357.1"/>
        <rect class="cls-28" x="1515.59" y="462.56" width="32.9" height="3.38"/>
        <polygon class="cls-24" points="1812.42 469.85 1812.42 473.24 1785.95 488.99 1785.95 485.61 1812.42 469.85"/>
        <rect class="cls-28" x="1548.48" y="495.87" width="215.91" height="3.38"/>
        <rect class="cls-28" x="1764.39" y="526.71" width="35.93" height="3.38"/>
        <g class="cls-10">
          <g class="cls-9">
            <g class="cls-10">
              <path class="cls-23" d="M1854.02,515.43v3.38c-.4,.53-7.94,10.62-7.94,11.65v-3.38c0-1.03,7.54-11.12,7.94-11.65"/>
            </g>
          </g>
        </g>
        <rect class="cls-28" x="1800.32" y="564.44" width="34.03" height="3.38"/>
        <polygon class="cls-24" points="1892.59 577.8 1892.59 581.18 1834.35 574.67 1834.35 571.29 1892.59 577.8"/>
        <path class="cls-12" d="M1586.29,274.85l-16.25,25.36,1.51,56.89-9.46,15.07,12.1,14.05,25.33-5.14,35.54,17.82,48.78-15.77,17.78,27.76,47.27-27.41,26.47-2.06,37.05,88.42-26.47,15.76,7.95,14.4h37.05l23.07,15.42c-.4,.53-7.94,10.62-7.94,11.65s19.4,24.79,20.42,26.04l26.09,9.26v15.42l-58.24-6.51v-6.85h-34.03v-37.73h-35.93v-30.84h-215.91v-33.3h-32.9v-181.89l70.7-5.82Z"/>
      </g>
      <g class="cls-10">
        <polygon class="cls-49" points="1472.1 533.97 1472.1 537.36 1432.02 537.7 1432.02 534.32 1472.1 533.97"/>
        <polygon class="cls-49" points="1689.52 556.59 1689.52 559.97 1667.22 560.67 1667.22 557.29 1689.52 556.59"/>
        <polygon class="cls-49" points="1562.47 563.45 1562.47 566.83 1472.1 537.36 1472.1 533.97 1562.47 563.45"/>
        <polygon class="cls-49" points="1789.63 572.31 1789.63 575.69 1762.5 574.37 1762.5 570.99 1789.63 572.31"/>
        <polygon class="cls-36" points="1722.43 579.55 1722.43 582.94 1689.52 559.97 1689.52 556.59 1722.43 579.55"/>
        <polygon class="cls-49" points="1762.5 570.99 1762.5 574.37 1722.43 582.94 1722.43 579.55 1762.5 570.99"/>
        <polygon class="cls-32" points="1432.02 534.32 1432.02 537.7 1389.67 584.66 1389.67 581.28 1432.02 534.32"/>
        <polygon class="cls-49" points="1389.67 581.28 1389.67 584.66 1341.5 584.94 1341.5 581.56 1389.67 581.28"/>
        <polygon class="cls-23" points="1618.82 610.4 1618.82 613.78 1562.47 566.83 1562.47 563.45 1618.82 610.4"/>
        <polygon class="cls-6" points="1667.22 557.29 1667.22 560.67 1654.74 627.49 1654.74 624.11 1667.22 557.29"/>
        <polygon class="cls-8" points="1654.74 624.11 1654.74 627.49 1618.82 613.78 1618.82 610.4 1654.74 624.11"/>
        <polygon class="cls-7" points="1537.04 482.57 1537.04 514.79 1752.96 514.79 1752.96 545.63 1789.63 545.63 1789.63 572.31 1762.5 570.99 1722.43 579.55 1689.52 556.59 1667.22 557.29 1654.74 624.11 1618.82 610.4 1562.47 563.45 1472.1 533.97 1432.02 534.32 1389.67 581.28 1341.5 581.56 1341.5 482.57 1537.04 482.57"/>
      </g>
      <g class="cls-10">
        <rect class="cls-25" x="798.27" y="594.29" width="22.03" height="8.45"/>
        <polygon class="cls-14" points="700.34 610.06 700.34 618.51 694.41 612.44 694.41 603.98 700.34 610.06"/>
        <polygon class="cls-25" points="720.11 639.51 720.11 647.96 698.34 651.6 698.34 643.14 720.11 639.51"/>
        <polygon class="cls-27" points="698.34 643.14 698.34 651.6 681.92 640.37 681.92 631.91 698.34 643.14"/>
        <g class="cls-10">
          <g class="cls-40">
            <g class="cls-10">
              <path class="cls-16" d="M755.55,655.89v8.45c-1.4-.17-28.08-3.34-28.75-4.55-.67-1.22-6.39-11.3-6.7-11.84v-8.45c.3,.53,6.03,10.62,6.7,11.84,.67,1.22,27.34,4.38,28.75,4.55"/>
            </g>
          </g>
        </g>
        <polygon class="cls-5" points="762.97 665 762.97 673.46 755.55 664.35 755.55 655.89 762.97 665"/>
        <rect class="cls-25" x="762.97" y="665" width="35.3" height="8.45"/>
        <path class="cls-38" d="M820.3,479.94v114.36h-22.03v70.71h-35.3l-7.42-9.11c-1.4-.17-28.08-3.34-28.75-4.55-.67-1.22-6.39-11.3-6.7-11.84l-21.77,3.64-16.42-11.23,18.42-21.85-5.93-6.08v-124.05h125.89Z"/>
      </g>
      <g class="cls-10">
        <polygon class="cls-30" points="492.68 581.29 492.68 589.74 484.97 591.56 484.97 583.11 492.68 581.29"/>
        <polygon class="cls-14" points="484.97 583.11 484.97 591.56 436.86 564.85 436.86 556.39 484.97 583.11"/>
        <polygon class="cls-30" points="509.09 581.89 509.09 590.34 495.69 593.38 495.69 584.93 509.09 581.89"/>
        <polygon class="cls-47" points="495.69 584.93 495.69 593.38 492.68 589.74 492.68 581.29 495.69 584.93"/>
        <polygon class="cls-47" points="513.11 586.44 513.11 594.9 509.09 590.34 509.09 581.89 513.11 586.44"/>
        <polygon class="cls-11" points="524.5 587.05 524.5 595.51 513.11 594.9 513.11 586.44 524.5 587.05"/>
        <polygon class="cls-30" points="573.06 586.44 573.06 594.9 556.32 595.51 556.32 587.05 573.06 586.44"/>
        <polygon class="cls-16" points="551.96 591.61 551.96 600.06 545.94 597.33 545.94 588.87 551.96 591.61"/>
        <polygon class="cls-14" points="556.32 587.05 556.32 595.51 551.96 600.06 551.96 591.61 556.32 587.05"/>
        <polygon class="cls-47" points="580.1 595.64 580.1 604.09 573.06 594.9 573.06 586.44 580.1 595.64"/>
        <polygon class="cls-30" points="587.46 594.04 587.46 602.49 580.1 604.09 580.1 595.64 587.46 594.04"/>
        <polygon class="cls-5" points="539.23 597.98 539.23 606.43 524.5 595.51 524.5 587.05 539.23 597.98"/>
        <polygon class="cls-5" points="545.94 588.87 545.94 597.33 539.23 606.43 539.23 597.98 545.94 588.87"/>
        <polygon class="cls-16" points="601.87 600.11 601.87 608.56 587.46 602.49 587.46 594.04 601.87 600.11"/>
        <polygon class="cls-30" points="613.26 597.07 613.26 605.52 601.87 608.56 601.87 600.11 613.26 597.07"/>
        <polygon class="cls-11" points="643.4 604.36 643.4 612.81 631.68 617.36 631.68 608.91 643.4 604.36"/>
        <polygon class="cls-5" points="631.68 608.91 631.68 617.36 613.26 605.52 613.26 597.07 631.68 608.91"/>
        <polygon class="cls-11" points="666.51 610.12 666.51 618.57 655.79 621.92 655.79 613.47 666.51 610.12"/>
        <polygon class="cls-5" points="655.79 613.47 655.79 621.92 643.4 612.81 643.4 604.36 655.79 613.47"/>
        <rect class="cls-11" x="675.89" y="619.84" width="6.03" height="8.45"/>
        <polygon class="cls-43" points="681.92 439.52 681.92 619.84 675.89 619.84 666.51 610.12 655.79 613.47 643.4 604.36 631.68 608.91 613.26 597.07 601.87 600.11 587.46 594.04 580.1 595.64 573.06 586.44 556.32 587.05 551.96 591.61 545.94 588.87 539.23 597.98 524.5 587.05 513.11 586.44 509.09 581.89 495.69 584.93 492.68 581.29 484.97 583.11 436.86 556.39 436.86 439.52 681.92 439.52"/>
        <polygon class="cls-33" points="675.89 619.84 675.89 628.29 666.51 618.57 666.51 610.12 675.89 619.84"/>
      </g>
      <g class="cls-10">
        <g class="cls-22">
          <polyline class="cls-44" points="1328.55 300.62 1262.9 314.77 1248.66 307.67 1158.11 352.22 1108.17 403.4 1074.19 380.1 1042.89 395.49 1001.64 360.95 978.03 369.64 978.03 497.29 1106.79 497.34 1106.79 431.7 1177.5 431.7 1177.5 367.19 1328.55 367.19 1328.55 300.62"/>
        </g>
      </g>
      <g class="cls-10">
        <rect class="cls-15" x="907.68" y="597.05" width="13.09" height="6.76"/>
        <polygon class="cls-15" points="1124.39 631.87 1124.39 638.64 1071.45 633.99 1071.45 627.23 1124.39 631.87"/>
        <polygon class="cls-21" points="1158.11 650.06 1158.11 656.82 1141.04 661.46 1141.04 654.7 1158.11 650.06"/>
        <polygon class="cls-2" points="1071.45 627.23 1071.45 633.99 1035.59 674.23 1035.59 667.47 1071.45 627.23"/>
        <polygon class="cls-21" points="1141.04 664.37 1141.04 671.13 1124.39 678.1 1124.39 671.34 1141.04 664.37"/>
        <polygon class="cls-15" points="1035.59 667.47 1035.59 674.23 967.71 681.19 967.71 674.43 1035.59 667.47"/>
        <polygon class="cls-4" points="1094.93 691.84 1094.93 698.61 1093.65 685.06 1093.65 678.3 1094.93 691.84"/>
        <polygon class="cls-50" points="1124.39 671.34 1124.39 678.1 1110.3 707.5 1110.3 700.74 1124.39 671.34"/>
        <polygon class="cls-34" points="1110.3 700.74 1110.3 707.5 1094.93 698.61 1094.93 691.84 1110.3 700.74"/>
        <rect class="cls-15" x="920.77" y="726.27" width="8.96" height="6.76"/>
        <polygon class="cls-3" points="1149.15 510.15 1149.15 608.55 1158.11 608.55 1158.11 650.06 1141.04 654.7 1141.04 664.37 1124.39 671.34 1110.3 700.74 1094.93 691.84 1093.65 678.3 1124.39 631.87 1071.45 627.23 1035.59 667.47 967.71 674.43 929.73 726.27 920.77 726.27 920.77 597.05 907.68 597.05 907.68 570.36 944.87 570.36 944.87 510.15 1149.15 510.15"/>
        <polygon class="cls-26" points="967.71 674.43 967.71 681.19 929.73 733.04 929.73 726.27 967.71 674.43"/>
      </g>
      <g class="cls-10">
        <g class="cls-45">
          <path class="cls-44" d="M1328.55,379.9h-137.93v63.71h-71.23v52.97h41.64v98.73h9.48l.44,46.53,20.83-20.8,8.15-28.9s15.83-14.14,16.52-14.14,56.33-6.33,56.33-6.33l41.2,16.45v-14.34l14.56-3.8v-190.09"/>
        </g>
      </g>
      <g class="cls-10">
        <g class="cls-13">
          <polyline class="cls-44" points="1502.25 279.8 1437.31 307.41 1341.5 300.35 1341.5 459.29 1503.82 459.29 1502.25 279.8"/>
        </g>
      </g>
      <g class="cls-10">
        <g class="cls-19">
          <polyline class="cls-44" points="173.99 302.03 168.41 302.03 131.25 336.82 22.35 375.8 26.07 383.54 49.48 381.52 49.86 389.94 59.15 391.96 63.61 396.34 77.35 397.69 89.25 420.25 103 450.57 104.49 462.02 398.08 535.11 424.47 546.42 424.47 466.74 317.07 466.74 317.07 400.72 210.03 400.72 210.03 366.7 173.99 366.7 173.99 302.03"/>
        </g>
      </g>
      <g class="cls-10">
        <g class="cls-42">
          <polyline class="cls-44" points="778.28 0 658.06 8.08 594.12 43.4 577.56 65.79 636.15 65.79 636.15 99.96 653.98 99.96 739.57 40.87 790.51 27.24 799.17 19.63 778.28 0"/>
        </g>
      </g>
      <g class="cls-10">
        <g class="cls-35">
          <path class="cls-17" d="M898.11,593.4h-67.02v33.28h-22.63v71.67l-30.74-.09s6.83,6.96,7.69,8.12c.85,1.16-13.66,8.12-13.66,8.12l10.67,15.47-.43,17.41h-13.66l6.41,7.73s2.99,19.35,3.37,20.85h0c-.93,0-17.46,19-17.46,19l.85,14.71-5.54,9.28,6.4,8.9,5.12-3.1,20.49,3.87,20.49-15.48,14.08,12.38-18.78,30.18v6.58l-3.41,7.73-1.29,9.29-3.41,11.22,38.42,26.01,2.13-20.2,72.58-96.73,16.22-39.61h-14.94v-128.83h-11.95v-37.78"/>
        </g>
      </g>
      <g class="cls-10">
        <g class="cls-46">
          <g>
            <polyline class="cls-29" points="1616.93 538.62 1616.42 538.62 1603.51 563.95 1616.93 538.62"/>
            <path class="cls-29" d="M1603.51,563.95l12.91-25.33h.51l-13.42,25.33m23.05-41.44h-12.93c-2.27,0-4.91,.19-7.33,1.57-1.47,.86-2.74,2.04-3.77,3.53l-19.25,37.59,2.58,13.05,.13,.51c.56,2.02,1.72,3.81,3.38,5.18,1.41,1.17,3.92,2.56,7.84,2.56h16.05c.32,3.08,2.29,5.76,5.41,7.27,1.87,.9,4.06,1.31,7.11,1.31h10.15c2.7,0,4.8-.36,6.65-1.14,3.33-1.44,5.51-4.23,5.87-7.43h3.15l3.24-17.36,.13-1.35c0-3.43-1.93-6.48-5.19-8.18-.42-.21-.85-.39-1.28-.55v-7.06c0-3.66-2.28-6.9-5.98-8.47-1.79-.76-3.89-1.11-6.59-1.11h-1.3l4.51-8.52v-1.84c0-3.57-2.19-6.78-5.72-8.39-1.85-.83-3.96-1.2-6.85-1.2"/>
            <polyline class="cls-29" points="1658.64 429.55 1658.12 429.55 1645.23 454.84 1658.64 429.55"/>
            <path class="cls-29" d="M1645.23,454.84l12.89-25.29h.51l-13.4,25.29m23.03-41.4h-12.93c-2.25,0-4.87,.19-7.37,1.61-1.46,.86-2.72,2.04-3.74,3.52l-19.22,37.57,2.58,13.05,.12,.52c.57,2.06,1.76,3.86,3.38,5.17,1.41,1.17,3.92,2.57,7.84,2.57h16.05c.32,3.1,2.3,5.78,5.37,7.24,2.4,1.17,5.08,1.32,7.15,1.32h10.15c2.72,0,4.82-.36,6.61-1.13,3.35-1.43,5.55-4.23,5.9-7.44h3.15l3.25-17.36,.12-1.35c0-3.41-1.92-6.46-5.19-8.18-.41-.21-.83-.39-1.27-.55v-7.05c0-3.64-2.27-6.88-5.98-8.47-1.8-.76-3.91-1.12-6.6-1.12h-1.3l4.51-8.51v-1.84c0-3.56-2.17-6.75-5.72-8.39-1.84-.82-3.96-1.2-6.85-1.2"/>
            <path class="cls-29" d="M768.29,345.95c-.38,0-.77,0-1.14,.02,3.23,.29,6,1.3,8.27,3.03,3.07,2.35,4.75,5.8,4.75,9.71,0,.16,0,.33,0,.49l.07-.12c.72-1.17,1.07-2.23,1.07-3.25,0-1.56-.23-3-.71-4.42-.33-.99-.87-1.84-1.66-2.6-.77-.75-1.92-1.4-3.44-1.94-1.2-.42-3.42-.93-7.21-.93"/>
            <path class="cls-29" d="M757.66,392.43v-.06s0,.06,0,.06m22.5-33.21c0-.16,0-.33,0-.49,0-3.92-1.68-7.37-4.75-9.71-2.27-1.74-5.04-2.75-8.27-3.03,.38-.02,.76-.02,1.14-.02,3.79,0,6.01,.51,7.21,.93,1.52,.54,2.67,1.19,3.44,1.94,.78,.76,1.32,1.62,1.66,2.6,.48,1.42,.71,2.86,.71,4.42,0,1.02-.35,2.08-1.07,3.25l-.07,.12m-11.87-29.38c-2.96,0-5.9,.29-8.73,.88-2.69,.55-5.28,1.31-7.72,2.26-2.55,.99-4.88,2.2-6.94,3.58-2.09,1.39-3.91,2.93-5.41,4.54l-2.61,2.82,3.4,19.28c.54,3.65,3.29,6.47,6.98,7.45-2.12,1.4-4.06,2.66-5.8,3.78l-4.54,2.91,3.18,17.64c.88,5.09,5.49,8.52,11.47,8.52h40.2c2.91,0,5.02-.38,6.86-1.21,.38-.17,.74-.36,1.09-.57-2.83-1.46-4.79-3.96-5.34-7.11l-3.17-17.64,4.54-2.9c1.74-1.12,3.67-2.37,5.8-3.78-2.32-.62-4.27-1.96-5.53-3.78,0,0,0,0,0,0,0,0,0,0,0,0-.74-1.07-1.25-2.31-1.45-3.67l-3.4-19.27,2.61-2.82c.13-.14,.26-.27,.39-.41-.66-.86-1.39-1.68-2.19-2.45-2.59-2.54-5.96-4.56-9.99-5.99-3.87-1.38-8.34-2.05-13.7-2.05"/>
            <path class="cls-29" d="M822.58,345.59c-.38,0-.77,0-1.15,.02,3.24,.29,6.01,1.31,8.28,3.03,3.07,2.35,4.75,5.8,4.75,9.72,0,.15,0,.32,0,.49l.07-.12c.72-1.17,1.07-2.23,1.07-3.25,0-1.56-.23-3-.71-4.41-.33-1-.87-1.84-1.66-2.61-.77-.74-1.92-1.39-3.44-1.94-1.2-.42-3.42-.93-7.21-.93"/>
            <path class="cls-29" d="M811.95,392.06v-.05s0,.05,0,.05m22.5-33.21c0-.17,0-.33,0-.49,0-3.92-1.68-7.37-4.75-9.72-2.27-1.73-5.04-2.75-8.28-3.03,.39-.02,.77-.02,1.15-.02,3.79,0,6.01,.51,7.21,.93,1.52,.55,2.67,1.2,3.44,1.94,.78,.77,1.32,1.61,1.66,2.61,.48,1.41,.71,2.85,.71,4.41,0,1.02-.35,2.08-1.07,3.25l-.07,.12m-11.87-29.38c-2.96,0-5.9,.29-8.73,.87-2.69,.55-5.28,1.31-7.72,2.26-2.55,1-4.88,2.2-6.94,3.58-1.91,1.28-3.6,2.68-5.02,4.14-.13,.14-.26,.27-.39,.41l-2.61,2.82,3.4,19.27c.2,1.35,.71,2.59,1.45,3.67,0,0,0,0,0,0,1.26,1.82,3.21,3.16,5.53,3.78-2.12,1.41-4.06,2.67-5.8,3.78l-4.54,2.9,3.17,17.64c.55,3.14,2.51,5.65,5.34,7.11,1.76,.91,3.85,1.41,6.14,1.41h40.2c2.9,0,5.02-.38,6.86-1.21,3.52-1.59,5.71-4.77,5.71-8.3v-16.59c0-2.54-.46-4.5-1.45-6.19-1.45-2.46-3.93-4.13-6.89-4.71,2.03-3.44,3.06-7.03,3.06-10.66,0-3.13-.49-6.2-1.48-9.13-1.12-3.32-3.01-6.29-5.62-8.84-2.59-2.55-5.96-4.56-9.99-6-3.87-1.37-8.34-2.04-13.7-2.04"/>
            <path class="cls-29" d="M325.51,304.62c-.39,0-.77,0-1.16,.02,3.24,.29,6.01,1.31,8.28,3.03,3.07,2.35,4.75,5.8,4.75,9.72,0,.16,0,.33,0,.48l.08-.12c.71-1.17,1.06-2.23,1.06-3.25,0-1.53-.24-3.02-.71-4.42-.33-.99-.87-1.84-1.65-2.59-.77-.75-1.93-1.41-3.45-1.95-1.2-.42-3.41-.93-7.2-.93"/>
            <path class="cls-29" d="M314.87,351.11v-.05s0,.05,0,.05m22.5-33.22c0-.16,0-.32,0-.48,0-3.92-1.68-7.37-4.75-9.72-2.27-1.73-5.04-2.75-8.28-3.03,.39-.02,.77-.02,1.16-.02,3.79,0,6,.51,7.2,.93,1.52,.54,2.68,1.2,3.45,1.95,.77,.75,1.31,1.61,1.65,2.59,.47,1.4,.71,2.89,.71,4.42,0,1.02-.35,2.08-1.06,3.25l-.08,.12m-11.86-29.38c-2.99,0-5.93,.3-8.74,.88-2.71,.55-5.31,1.31-7.72,2.26-2.54,.99-4.87,2.19-6.95,3.59-2.07,1.39-3.88,2.91-5.38,4.52l-2.63,2.82,3.4,19.29c.54,3.65,3.29,6.48,6.98,7.46-2.12,1.4-4.05,2.67-5.79,3.78l-4.54,2.9,3.18,17.67c.89,5.08,5.5,8.5,11.47,8.5h40.2c2.89,0,4.99-.37,6.89-1.22,3.5-1.61,5.68-4.77,5.68-8.27v-16.6c0-2.54-.46-4.5-1.43-6.17-1.45-2.47-3.94-4.14-6.89-4.72,2.02-3.45,3.05-7.03,3.05-10.66,0-3.13-.49-6.2-1.49-9.13-1.12-3.33-3.01-6.31-5.62-8.85-2.6-2.54-5.97-4.55-9.97-5.98-3.87-1.38-8.35-2.06-13.71-2.06"/>
            <path class="cls-29" d="M539.67,130.29c-4.55,0-8.85,.62-12.75,1.84-4.08,1.27-7.68,3.13-10.67,5.52-3.13,2.48-5.61,5.57-7.35,9.17-1.73,3.54-2.6,7.49-2.6,11.73,0,3.9,.75,7.5,2.23,10.69,1.16,2.52,2.73,4.78,4.67,6.75-1.04,1.19-1.76,2.64-2.03,4.26l-3.16,17.31,5.18,2.82c1.94,1.06,4.13,1.92,6.48,2.56,1.98,.54,4.04,.98,6.13,1.31,1.99,.31,3.97,.54,5.89,.68,1.92,.14,3.65,.21,5.18,.21,6.96,0,13.02-1.23,18.04-3.66,4.97-2.41,9.03-5.69,12.09-9.71,2.88-3.8,4.95-8.16,6.16-12.96,1.11-4.39,1.66-8.98,1.66-13.65,0-10.55-2.98-19.01-8.86-25.13-6.18-6.44-15.04-9.71-26.31-9.71"/>
            <path class="cls-29" d="M1041.82,531.63c-4.55,0-8.85,.62-12.75,1.84-4.08,1.26-7.68,3.13-10.67,5.52-3.12,2.48-5.6,5.57-7.35,9.16-1.72,3.55-2.59,7.5-2.59,11.74,0,3.89,.75,7.49,2.22,10.69,1.17,2.52,2.74,4.78,4.68,6.75-1.04,1.19-1.76,2.63-2.03,4.26l-3.16,17.31,5.18,2.82c1.94,1.05,4.13,1.92,6.48,2.56,1.97,.54,4.04,.98,6.13,1.31,1.99,.31,3.97,.54,5.89,.68,1.92,.14,3.64,.21,5.18,.21,6.96,0,13.02-1.23,18.04-3.66,4.97-2.41,9.03-5.69,12.09-9.71,2.88-3.8,4.95-8.16,6.17-12.96,1.1-4.4,1.67-8.99,1.67-13.65,0-10.55-2.98-19.01-8.86-25.13-6.19-6.44-15.04-9.71-26.31-9.71"/>
            <polyline class="cls-29" points="853.78 711.87 839.62 711.87 839.46 712.7 850.77 712.7 850.77 753 838.63 753 838.47 753.83 866.08 753.83 865.93 753 853.78 753 853.78 711.87"/>
            <path class="cls-29" d="M839.46,712.7l.15-.83h14.17v41.13h12.15l.14,.83h-27.6l.15-.83h12.14v-40.3h-11.3m18.64-15.33h-32.09l-3.69,20.46v.59c0,3.15,1.77,5.95,4.73,7.47,2.25,1.17,4.74,1.31,6.66,1.31h1.06v11.3h-9.75l-3.69,20.47v.59c0,3.16,1.77,5.95,4.71,7.46,2.26,1.17,4.75,1.33,6.68,1.33h39.11c1.92,0,4.4-.15,6.64-1.31,2.97-1.53,4.73-4.32,4.73-7.47v-.59l-3.69-20.47h-9.74v-32.35c0-3.34-2.09-6.3-5.45-7.73-1.68-.72-3.66-1.04-6.23-1.04"/>
            <polyline class="cls-29" points="529.29 486.12 513.5 486.12 513.2 487.81 525.21 487.81 525.21 529.56 512.45 529.56 512.14 531.26 542.36 531.26 542.05 529.56 529.29 529.56 529.29 486.12"/>
            <path class="cls-29" d="M513.2,487.81l.31-1.7h15.79v43.44h12.76l.31,1.7h-30.21l.31-1.7h12.76v-41.75h-12.02m20.2-16.2h-33.5l-3.83,21.24v.59c0,3.17,1.78,6,4.76,7.53,1.79,.93,3.89,1.34,6.81,1.34h1.57v12.75h-10.36l-3.83,21.24v.59c0,3.18,1.78,6,4.75,7.53,2.29,1.19,4.84,1.34,6.82,1.34h41.31c2.92,0,5.02-.41,6.79-1.33,2.09-1.08,3.59-2.78,4.31-4.8-2.11-1.82-3.93-3.86-5.44-6.09-2.65-3.9-4.5-8.22-5.52-12.84-.42-1.91-.75-3.8-.98-5.64h-1.78v-34.58c0-3.36-2.11-6.35-5.49-7.8-1.72-.73-3.74-1.07-6.4-1.07"/>
            <path class="cls-29" d="M570.01,492.13c-.15,.2-.3,.41-.44,.62-1.48,2.18-2.53,4.62-3.1,7.27-.68,3.08-1.04,5.99-1.04,8.67s.35,5.58,1.04,8.67c.58,2.68,1.6,5.05,3.1,7.26,.14,.21,.3,.42,.45,.62-.41-.6-.81-1.24-1.17-1.91-1.11-2.06-1.96-4.4-2.55-6.99-.54-2.42-.82-4.99-.82-7.65s.28-5.23,.82-7.65c.58-2.58,1.44-4.94,2.56-7,.36-.67,.75-1.31,1.16-1.91m27.76-.04c.42,.62,.82,1.27,1.19,1.95,1.12,2.07,1.98,4.42,2.56,6.99,.55,2.43,.82,5.01,.82,7.66s-.27,5.22-.82,7.65c-.58,2.58-1.44,4.93-2.55,6.99-.37,.68-.76,1.33-1.2,1.95,.17-.22,.32-.44,.48-.66,1.49-2.2,2.51-4.58,3.1-7.27,.67-3.08,1.03-6,1.03-8.66s-.35-5.58-1.03-8.67c-.58-2.65-1.63-5.09-3.1-7.27-.15-.22-.32-.44-.48-.66"/>
            <path class="cls-29" d="M570.01,525.24c-.15-.2-.31-.41-.45-.62-1.49-2.21-2.51-4.58-3.1-7.26-.68-3.09-1.04-6-1.04-8.67s.35-5.59,1.04-8.67c.58-2.65,1.62-5.09,3.1-7.27,.14-.21,.29-.42,.44-.62-.41,.6-.8,1.24-1.16,1.91-1.12,2.06-1.98,4.42-2.56,7-.54,2.42-.82,4.99-.82,7.65s.28,5.23,.82,7.65c.59,2.59,1.44,4.93,2.55,6.99,.36,.67,.76,1.31,1.17,1.91m27.76,.04c.43-.62,.83-1.27,1.2-1.95,1.11-2.06,1.97-4.41,2.55-6.99,.55-2.43,.82-5,.82-7.65s-.27-5.23-.82-7.66c-.58-2.57-1.43-4.92-2.56-6.99-.37-.68-.77-1.33-1.19-1.95,.16,.22,.32,.44,.48,.66,1.47,2.18,2.52,4.62,3.1,7.27,.68,3.09,1.03,6,1.03,8.67s-.35,5.58-1.03,8.66c-.59,2.68-1.61,5.07-3.1,7.27-.15,.22-.31,.44-.48,.66m-13.86-56.06c-7.34,0-13.64,1.43-18.73,4.24-4.87,2.7-8.78,6.19-11.61,10.38-2.65,3.89-4.5,8.21-5.52,12.84-.93,4.17-1.4,8.21-1.4,12.01,0,2.05,.14,4.18,.41,6.37,.23,1.84,.56,3.72,.98,5.64,1.02,4.62,2.87,8.94,5.52,12.84,1.52,2.23,3.34,4.27,5.44,6.09,1.84,1.59,3.9,3.02,6.17,4.28,5.09,2.82,11.38,4.25,18.73,4.25s13.63-1.43,18.72-4.25c4.86-2.7,8.77-6.19,11.62-10.38,2.64-3.9,4.49-8.21,5.51-12.84,.93-4.18,1.39-8.22,1.39-12s-.47-7.82-1.39-12.01c-1.02-4.63-2.87-8.95-5.52-12.84-2.83-4.19-6.74-7.68-11.62-10.38-5.09-2.81-11.39-4.24-18.71-4.24"/>
            <path class="cls-29" d="M738.98,504.16h-28.05l-3.29,18.26v.59c0,3.07,1.73,5.79,4.62,7.28,2,1.04,4.13,1.23,5.84,1.26v7.19h-8l-3.29,18.26v.59c0,3.08,1.73,5.8,4.59,7.27,2.16,1.13,4.47,1.27,6.26,1.27h32.89c1.77,0,4.09-.14,6.22-1.26,1.82-.94,3.17-2.35,3.93-4.04-2.24-1.71-4.13-3.69-5.64-5.91-2.11-3.11-3.58-6.54-4.39-10.22-.74-3.33-1.11-6.54-1.11-9.56,0-2.11,.18-4.31,.54-6.58v-15.88c0-3.25-2.03-6.14-5.32-7.55-1.58-.68-3.42-.99-5.78-.99"/>
            <path class="cls-29" d="M768.13,521.97c-.13,.16-.24,.33-.36,.5-1.18,1.73-2.01,3.67-2.47,5.78-.55,2.46-.82,4.77-.82,6.9s.27,4.45,.82,6.9c.47,2.14,1.28,4.03,2.47,5.78,.12,.17,.23,.33,.35,.5-.32-.48-.64-.99-.93-1.52-.88-1.63-1.57-3.51-2.03-5.56-.43-1.93-.66-3.97-.66-6.09s.22-4.16,.65-6.08c.47-2.06,1.15-3.93,2.04-5.58,.28-.53,.59-1.04,.93-1.52m22.09-.03c.34,.49,.66,1.01,.95,1.55,.89,1.66,1.57,3.52,2.03,5.57,.43,1.93,.66,3.98,.66,6.09s-.22,4.16-.66,6.09c-.46,2.05-1.14,3.92-2.03,5.56-.29,.55-.6,1.06-.95,1.55,.14-.17,.26-.35,.38-.52,1.19-1.75,2-3.65,2.47-5.78,.54-2.46,.82-4.78,.82-6.9s-.28-4.45-.82-6.9c-.46-2.11-1.3-4.05-2.47-5.78-.13-.18-.25-.36-.39-.53"/>
            <path class="cls-29" d="M768.12,548.33c-.12-.16-.23-.33-.35-.5-1.19-1.75-2-3.65-2.47-5.78-.55-2.46-.82-4.78-.82-6.9s.27-4.45,.82-6.9c.46-2.11,1.29-4.05,2.47-5.78,.12-.17,.23-.33,.36-.5-.33,.48-.65,.99-.93,1.52-.89,1.65-1.57,3.52-2.04,5.58-.42,1.93-.65,3.97-.65,6.08s.22,4.17,.66,6.09c.46,2.06,1.14,3.93,2.03,5.56,.29,.53,.6,1.04,.93,1.52m22.1,.02c.34-.49,.66-1,.95-1.55,.89-1.64,1.57-3.52,2.03-5.56,.43-1.93,.66-3.98,.66-6.09s-.22-4.16-.66-6.09c-.46-2.05-1.14-3.92-2.03-5.57-.3-.54-.61-1.06-.95-1.55,.14,.17,.26,.35,.39,.53,1.17,1.73,2.01,3.67,2.47,5.78,.54,2.46,.82,4.78,.82,6.9s-.28,4.44-.82,6.9c-.47,2.14-1.28,4.03-2.47,5.78-.12,.17-.24,.35-.38,.52m-11.04-44.63c-5.83,0-10.84,1.14-14.9,3.38-3.87,2.15-6.98,4.93-9.24,8.26-2.11,3.1-3.58,6.53-4.39,10.22-.22,1-.41,2-.57,2.98-.36,2.27-.54,4.47-.54,6.58,0,3.02,.37,6.23,1.11,9.56,.81,3.68,2.29,7.11,4.39,10.22,1.51,2.23,3.4,4.2,5.64,5.91,1.11,.85,2.32,1.63,3.6,2.35,4.05,2.24,9.06,3.38,14.9,3.38s10.85-1.13,14.9-3.38c3.87-2.15,6.98-4.93,9.25-8.27,2.11-3.1,3.58-6.53,4.39-10.21,.74-3.34,1.11-6.55,1.11-9.56s-.37-6.22-1.11-9.56c-.82-3.69-2.3-7.12-4.39-10.21-2.26-3.34-5.37-6.13-9.25-8.27-4.05-2.24-9.06-3.38-14.9-3.38"/>
          </g>
        </g>
      </g>
      <g class="cls-10">
        <g class="cls-1">
          <g>
            <path class="cls-18" d="M1627.51,525.36h-12.94c-1.33,0-2.18,.11-2.54,.31-.37,.21-.71,.56-1.04,1.04l-17.51,34.36,2.09,10.55c.13,.48,.38,.87,.75,1.17,.36,.3,.97,.46,1.84,.46h24.89v7.12c0,.49,.25,.85,.75,1.08,.49,.24,1.48,.36,2.93,.36h10.15c1.32,0,2.28-.11,2.83-.36,.57-.24,.85-.6,.85-1.08v-7.12h4.48l1.99-10.64c0-.55-.23-.93-.69-1.17-.47-.24-1.37-.36-2.69-.36h-3.09v-14.25c0-.55-.28-.94-.85-1.17-.56-.24-1.51-.36-2.83-.36h-10.15c-1.46,0-2.44,.12-2.93,.36-.5,.24-.75,.63-.75,1.17v14.25h-9.95l18.12-34.19c0-.55-.27-.93-.8-1.17-.53-.24-1.49-.36-2.88-.36"/>
            <path class="cls-18" d="M1669.22,416.28h-12.94c-1.32,0-2.17,.11-2.54,.32-.36,.21-.71,.55-1.04,1.04l-17.51,34.36,2.09,10.55c.14,.48,.38,.87,.75,1.17,.37,.3,.98,.45,1.84,.45h24.88v7.13c0,.48,.25,.84,.75,1.08,.5,.24,1.48,.37,2.93,.37h10.15c1.33,0,2.28-.12,2.84-.37,.56-.24,.85-.6,.85-1.08v-7.13h4.47l1.99-10.64c0-.54-.23-.93-.69-1.17-.47-.24-1.36-.36-2.69-.36h-3.08v-14.25c0-.54-.29-.93-.85-1.17-.57-.24-1.51-.36-2.84-.36h-10.15c-1.46,0-2.44,.12-2.93,.36-.49,.24-.75,.64-.75,1.17v14.25h-9.95l18.12-34.19c0-.54-.26-.93-.79-1.17-.54-.24-1.49-.36-2.89-.36"/>
            <path class="cls-18" d="M1043.2,560.78c-2.46,0-4.32-.61-5.58-1.85-1.26-1.23-1.89-2.72-1.89-4.46s.67-3.39,1.99-4.74c1.33-1.35,3.12-2.02,5.38-2.02,2.84,0,4.91,.75,6.17,2.25,1.26,1.5,2.09,3.43,2.49,5.78-.94,1.98-2.21,3.32-3.83,4.01-1.63,.69-3.2,1.04-4.72,1.04m-.41-26.07c-3.58,0-6.87,.47-9.85,1.4-2.99,.93-5.56,2.25-7.71,3.96-2.16,1.71-3.85,3.83-5.08,6.36-1.23,2.52-1.84,5.35-1.84,8.47,0,2.83,.51,5.36,1.54,7.58,1.04,2.23,2.49,4.1,4.38,5.64s4.17,2.71,6.82,3.52c2.65,.81,5.6,1.22,8.86,1.22,1.99,0,3.93-.25,5.82-.77,1.89-.51,3.69-1.37,5.42-2.57-.86,3.78-2.39,6.53-4.57,8.21-2.2,1.68-5.05,2.53-8.56,2.53-1.59,0-3.18-.17-4.73-.5-1.56-.33-2.97-.69-4.23-1.09s-2.34-.75-3.23-1.08c-.9-.33-1.51-.49-1.85-.49-.53,0-.83,.24-.89,.72l-2.2,12c1.33,.72,2.83,1.31,4.48,1.76,1.66,.45,3.35,.81,5.08,1.08,1.73,.27,3.42,.46,5.08,.59,1.66,.12,3.15,.18,4.48,.18,5.51,0,10.12-.9,13.83-2.71,3.72-1.8,6.7-4.19,8.96-7.17,2.26-2.98,3.86-6.37,4.82-10.19,.96-3.83,1.45-7.77,1.45-11.87,0-8.6-2.22-15.21-6.67-19.84-4.45-4.63-10.98-6.95-19.61-6.95"/>
            <path class="cls-18" d="M768.58,332.69c-2.32,0-4.58,.23-6.77,.68s-4.25,1.05-6.17,1.8c-1.93,.75-3.65,1.64-5.17,2.66-1.53,1.03-2.83,2.1-3.89,3.25l2.79,15.79c.06,.6,.43,.9,1.1,.9,.52,0,1.09-.33,1.68-.99,1.93-2.17,4.05-4.05,6.37-5.64,2.32-1.59,4.64-2.39,6.97-2.39,1.93,0,3.42,.41,4.48,1.22,1.06,.81,1.59,2,1.59,3.56s-.86,3.33-2.59,5.28c-1.72,1.96-3.82,3.96-6.32,6-2.48,2.04-5.17,4.03-8.05,5.95-2.89,1.93-5.46,3.61-7.72,5.05l2.3,12.72c.2,1.14,1.09,1.71,2.68,1.71h40.21c1.4,0,2.36-.11,2.89-.36,.52-.24,.79-.6,.79-1.09v-16.6c0-1.13-.14-1.93-.4-2.38-.27-.46-.73-.68-1.4-.68h-10.45l-2.29,6.67h-12.84c2.26-1.44,4.68-3.12,7.26-5.01,2.59-1.89,4.98-3.94,7.16-6.13,2.2-2.19,4.01-4.48,5.48-6.85,1.46-2.37,2.19-4.76,2.19-7.17s-.37-4.6-1.1-6.77c-.73-2.16-1.94-4.07-3.63-5.73s-3.93-2.98-6.72-3.97c-2.78-.99-6.26-1.48-10.45-1.48"/>
            <path class="cls-18" d="M823.22,332.69c-2.32,0-4.58,.23-6.77,.68-2.19,.45-4.25,1.05-6.16,1.8-1.93,.75-3.65,1.64-5.18,2.66-1.52,1.03-2.82,2.1-3.88,3.25l2.79,15.79c.06,.6,.43,.9,1.09,.9,.54,0,1.1-.33,1.7-.99,1.92-2.17,4.04-4.05,6.36-5.64,2.32-1.59,4.64-2.39,6.97-2.39,1.93,0,3.42,.41,4.48,1.22,1.06,.81,1.59,2,1.59,3.56s-.86,3.33-2.59,5.28c-1.72,1.96-3.82,3.96-6.32,6-2.48,2.04-5.18,4.03-8.06,5.95-2.88,1.93-5.45,3.61-7.71,5.05l2.29,12.72c.2,1.14,1.09,1.71,2.68,1.71h40.21c1.4,0,2.36-.11,2.89-.36,.53-.24,.79-.6,.79-1.09v-16.6c0-1.13-.14-1.93-.4-2.38-.27-.46-.73-.68-1.4-.68h-10.45l-2.29,6.67h-12.84c2.26-1.44,4.68-3.12,7.26-5.01,2.59-1.89,4.98-3.94,7.16-6.13,2.2-2.19,4.01-4.48,5.48-6.85,1.46-2.37,2.19-4.76,2.19-7.17s-.37-4.6-1.1-6.77c-.73-2.16-1.93-4.07-3.63-5.73s-3.93-2.98-6.72-3.97c-2.78-.99-6.26-1.48-10.45-1.48"/>
            <path class="cls-18" d="M740.27,507.47h-20.6l-2.03,11.25c0,.44,.19,.76,.57,.95,.38,.2,1.11,.29,2.2,.29h7.38v21.03h-8.93l-2.03,11.26c0,.44,.19,.76,.57,.95,.38,.2,1.11,.29,2.2,.29h31.88c1.09,0,1.82-.1,2.2-.29,.38-.2,.57-.51,.57-.95l-2.03-11.26h-8.92v-32.28c0-.44-.23-.76-.69-.95s-1.23-.29-2.31-.29"/>
            <path class="cls-18" d="M780.03,542.47c-1.08,0-2.05-.32-2.92-.95-.86-.64-1.59-1.51-2.19-2.61-.6-1.11-1.06-2.38-1.39-3.83-.32-1.44-.49-2.98-.49-4.6s.16-3.15,.49-4.59c.32-1.44,.78-2.72,1.39-3.83,.59-1.1,1.32-1.97,2.19-2.61s1.84-.95,2.92-.95,2.06,.32,2.93,.95,1.59,1.51,2.19,2.61c.59,1.1,1.06,2.38,1.39,3.83,.32,1.44,.49,2.98,.49,4.59s-.16,3.16-.49,4.6c-.32,1.44-.79,2.72-1.39,3.83-.59,1.1-1.32,1.97-2.19,2.61-.86,.64-1.84,.95-2.93,.95m0-35.88c-4.32,0-7.88,.77-10.66,2.31-2.79,1.55-4.98,3.5-6.57,5.85-1.6,2.36-2.71,4.94-3.33,7.76-.62,2.82-.93,5.48-.93,7.98s.31,5.16,.93,7.98c.62,2.82,1.73,5.41,3.33,7.76,1.59,2.36,3.78,4.31,6.57,5.85,2.78,1.55,6.34,2.32,10.66,2.32s7.88-.77,10.67-2.32c2.78-1.54,4.98-3.49,6.57-5.85,1.59-2.35,2.71-4.93,3.33-7.76,.62-2.81,.93-5.47,.93-7.98s-.31-5.16-.93-7.98c-.62-2.81-1.74-5.4-3.33-7.76-1.59-2.35-3.79-4.3-6.57-5.85-2.79-1.54-6.35-2.31-10.67-2.31"/>
            <path class="cls-18" d="M535.55,474.73h-25.28l-2.48,13.8c0,.54,.22,.93,.69,1.17,.46,.24,1.36,.36,2.69,.36h9.05v25.8h-10.95l-2.48,13.8c0,.54,.23,.93,.69,1.17,.47,.24,1.36,.37,2.69,.37h39.11c1.32,0,2.22-.12,2.69-.37,.46-.24,.69-.63,.69-1.17l-2.48-13.8h-10.95v-39.6c0-.55-.28-.93-.85-1.17-.57-.24-1.51-.36-2.83-.36"/>
            <path class="cls-18" d="M584.32,517.67c-1.33,0-2.52-.39-3.58-1.17-1.06-.78-1.96-1.85-2.69-3.21-.73-1.35-1.3-2.91-1.69-4.69-.4-1.77-.59-3.65-.59-5.64s.2-3.86,.59-5.64c.4-1.77,.96-3.34,1.69-4.69,.73-1.35,1.63-2.42,2.69-3.21,1.06-.77,2.25-1.17,3.58-1.17s2.52,.39,3.58,1.17c1.06,.78,1.95,1.85,2.69,3.21,.72,1.35,1.29,2.92,1.68,4.69,.41,1.78,.6,3.65,.6,5.64s-.2,3.87-.6,5.64c-.4,1.78-.96,3.34-1.68,4.69-.74,1.35-1.63,2.42-2.69,3.21-1.06,.78-2.26,1.17-3.58,1.17m0-44.02c-5.31,0-9.68,.95-13.09,2.84-3.41,1.9-6.1,4.29-8.06,7.18-1.96,2.88-3.32,6.05-4.09,9.51-.77,3.46-1.14,6.72-1.14,9.79s.38,6.33,1.14,9.79,2.12,6.63,4.09,9.52c1.95,2.89,4.64,5.28,8.06,7.17,3.42,1.89,7.78,2.84,13.09,2.84s9.67-.95,13.09-2.84c3.42-1.89,6.1-4.28,8.06-7.17,1.95-2.89,3.31-6.06,4.08-9.52,.76-3.46,1.14-6.72,1.14-9.79s-.38-6.33-1.14-9.79c-.77-3.46-2.12-6.63-4.08-9.51-1.96-2.89-4.64-5.28-8.06-7.18-3.42-1.89-7.78-2.84-13.09-2.84"/>
            <path class="cls-18" d="M326.45,291.35c-2.32,0-4.57,.23-6.77,.68-2.19,.46-4.25,1.05-6.17,1.81-1.93,.75-3.65,1.63-5.17,2.66-1.53,1.02-2.83,2.1-3.89,3.25l2.79,15.78c.06,.6,.43,.91,1.1,.91,.53,0,1.09-.33,1.69-1,1.92-2.16,4.04-4.05,6.36-5.64,2.32-1.59,4.64-2.39,6.97-2.39,1.93,0,3.42,.41,4.48,1.22,1.06,.82,1.59,2,1.59,3.56s-.86,3.32-2.58,5.28c-1.73,1.96-3.83,3.96-6.33,5.99-2.48,2.05-5.17,4.03-8.05,5.95-2.89,1.93-5.46,3.61-7.71,5.05l2.29,12.72c.2,1.14,1.1,1.71,2.68,1.71h40.21c1.4,0,2.36-.12,2.89-.36,.53-.24,.79-.6,.79-1.09v-16.6c0-1.14-.14-1.94-.4-2.39-.27-.45-.73-.68-1.4-.68h-10.45l-2.29,6.67h-12.84c2.26-1.44,4.68-3.11,7.26-5,2.59-1.9,4.98-3.94,7.17-6.13,2.19-2.19,4.01-4.48,5.47-6.86,1.46-2.37,2.19-4.76,2.19-7.17s-.37-4.6-1.09-6.76c-.74-2.17-1.94-4.08-3.64-5.73-1.69-1.66-3.93-2.98-6.72-3.97-2.78-1-6.26-1.49-10.45-1.49"/>
            <path class="cls-18" d="M858.1,699.74h-25.28l-2.49,13.8c0,.54,.23,.93,.7,1.17,.46,.24,1.36,.36,2.68,.36h9.06v25.8h-10.95l-2.48,13.79c0,.55,.23,.94,.69,1.17,.47,.24,1.36,.36,2.69,.36h39.11c1.32,0,2.22-.11,2.68-.36,.47-.24,.7-.63,.7-1.17l-2.49-13.79h-10.94v-39.6c0-.54-.29-.93-.85-1.17-.57-.24-1.51-.36-2.83-.36"/>
            <path class="cls-18" d="M541.02,159.21c-2.46,0-4.32-.62-5.58-1.85s-1.89-2.72-1.89-4.47,.67-3.38,2-4.73c1.32-1.35,3.11-2.03,5.37-2.03,2.85,0,4.9,.75,6.16,2.25,1.26,1.51,2.1,3.43,2.49,5.78-.94,1.98-2.2,3.33-3.83,4.01-1.63,.69-3.2,1.04-4.72,1.04m-.4-26.07c-3.59,0-6.87,.47-9.86,1.39-2.99,.93-5.56,2.25-7.71,3.97-2.16,1.71-3.85,3.83-5.08,6.35-1.23,2.53-1.84,5.36-1.84,8.48,0,2.82,.51,5.35,1.55,7.58,1.03,2.22,2.48,4.1,4.37,5.64,1.89,1.53,4.17,2.7,6.82,3.52,2.65,.82,5.6,1.22,8.86,1.22,1.99,0,3.93-.25,5.82-.77,1.89-.51,3.7-1.36,5.42-2.57-.86,3.79-2.39,6.53-4.57,8.21-2.2,1.69-5.05,2.53-8.56,2.53-1.59,0-3.17-.16-4.73-.5-1.56-.33-2.97-.69-4.23-1.08-1.26-.39-2.33-.76-3.23-1.08-.89-.33-1.51-.5-1.85-.5-.53,0-.83,.24-.89,.73l-2.19,11.99c1.32,.73,2.82,1.31,4.47,1.76,1.66,.45,3.35,.81,5.08,1.09,1.73,.27,3.42,.46,5.08,.58,1.66,.12,3.15,.19,4.48,.19,5.51,0,10.12-.91,13.83-2.71,3.72-1.8,6.7-4.19,8.95-7.17,2.26-2.98,3.87-6.38,4.83-10.2,.95-3.82,1.44-7.77,1.44-11.86,0-8.6-2.22-15.21-6.67-19.85s-10.98-6.94-19.6-6.94"/>
          </g>
        </g>
      </g>
    </g>
  </g>
</svg>