<svg xmlns="http://www.w3.org/2000/svg" viewBox="0 0 569.28 562.05"><defs><style>.cls-1{fill:#0084c3;}.cls-2{fill:#fff;stroke:#fff;stroke-miterlimit:10;stroke-width:0.5px;}</style></defs><g id="Layer_2" data-name="Layer 2"><g id="Layer_1-2" data-name="Layer 1"><path class="cls-1" d="M568.46,485.46a6.14,6.14,0,0,1-2.52,8.53,611.54,611.54,0,0,1-281.3,68.06A611.47,611.47,0,0,1,3.35,494a6.14,6.14,0,0,1-2.53-8.53L279.33,3.07a6.14,6.14,0,0,1,10.63,0Z"/><path class="cls-2" d="M152.53,417h-8.64c-.31,0-.47-.14-.47-.43v-1.84c0-.28.16-.43.47-.43h2.74V393.87h-2.74c-.31,0-.47-.14-.47-.43V391.6c0-.28.16-.43.47-.43h8.64c.31,0,.47.15.47.43v1.84c0,.29-.16.43-.47.43h-2.77v20.45h2.77c.31,0,.47.15.47.43v1.84C153,416.88,152.84,417,152.53,417Z"/><path class="cls-2" d="M178.67,417h-1.95a1.92,1.92,0,0,1-1.08-.27,2.79,2.79,0,0,1-.75-.85l-10.41-16.27-1.8-3h-.07v17.71h2.77c.32,0,.47.15.47.43v1.84c0,.29-.15.43-.47.43h-8.63c-.32,0-.47-.14-.47-.43v-1.84c0-.28.15-.43.47-.43h2.73V393.87h-2.73c-.32,0-.47-.14-.47-.43V391.6c0-.28.15-.43.47-.43h5a2.23,2.23,0,0,1,1.83,1.23l10.26,16.05,2.05,3.49H176V393.87h-2.78a.38.38,0,0,1-.43-.43V391.6a.39.39,0,0,1,.43-.43h8.68a.38.38,0,0,1,.43.43v1.84a.38.38,0,0,1-.43.43h-2.77v22.72C179.14,416.88,179,417,178.67,417Z"/><path class="cls-2" d="M200.63,417h-8.39a.42.42,0,0,1-.47-.47v-1.76a.42.42,0,0,1,.47-.47H195V393.87h-6.81v3.82a.44.44,0,0,1-.5.5h-2a.44.44,0,0,1-.5-.5v-6.05c0-.31.17-.47.5-.47h21.71c.34,0,.51.16.51.47v6.05a.45.45,0,0,1-.51.5h-2.05c-.31,0-.47-.17-.47-.5v-3.82h-6.73v20.45h2.52c.34,0,.5.16.5.47v1.76C201.13,416.86,201,417,200.63,417Z"/><path class="cls-2" d="M230.65,417H211.54c-.32,0-.47-.14-.47-.43v-1.84c0-.28.15-.43.47-.43h2.73V393.87h-2.73c-.32,0-.47-.14-.47-.43V391.6c0-.28.15-.43.47-.43h19.11c.32,0,.47.15.47.43v5.8a.41.41,0,0,1-.47.47h-1.94c-.29,0-.43-.16-.43-.47v-3.53H217.41v8.93h9.1c.31,0,.47.14.47.43v1.84c0,.29-.16.43-.47.43h-9.1v8.82h10.83v-3.53c0-.28.16-.43.47-.43h1.94c.32,0,.47.15.47.43v5.8C231.12,416.88,231,417,230.65,417Z"/><path class="cls-2" d="M254.74,417H235.05c-.32,0-.47-.14-.47-.43v-1.84c0-.28.15-.43.47-.43h2.73V393.87h-2.73c-.32,0-.47-.14-.47-.43V391.6c0-.28.15-.43.47-.43h8.6a.42.42,0,0,1,.47.47v1.76a.41.41,0,0,1-.47.47h-2.74v20.45h11.45v-3.53c0-.28.16-.43.47-.43h1.94a.39.39,0,0,1,.44.43v5.76A.42.42,0,0,1,254.74,417Z"/><path class="cls-2" d="M277.45,417H257.76c-.31,0-.47-.14-.47-.43v-1.84c0-.28.16-.43.47-.43h2.74V393.87h-2.74c-.31,0-.47-.14-.47-.43V391.6c0-.28.16-.43.47-.43h8.61a.41.41,0,0,1,.46.47v1.76c0,.32-.15.47-.46.47h-2.74v20.45h11.45v-3.53c0-.28.15-.43.47-.43h1.94a.38.38,0,0,1,.43.43v5.76A.42.42,0,0,1,277.45,417Z"/><path class="cls-2" d="M299.59,417H280.48c-.31,0-.47-.14-.47-.43v-1.84c0-.28.16-.43.47-.43h2.73V393.87h-2.73c-.31,0-.47-.14-.47-.43V391.6c0-.28.16-.43.47-.43h19.11c.32,0,.47.15.47.43v5.8a.41.41,0,0,1-.47.47h-1.94c-.29,0-.43-.16-.43-.47v-3.53H286.35v8.93h9.1c.31,0,.47.14.47.43v1.84c0,.29-.16.43-.47.43h-9.1v8.82h10.83v-3.53c0-.28.16-.43.47-.43h1.94c.32,0,.47.15.47.43v5.8C300.06,416.88,299.91,417,299.59,417Z"/><path class="cls-2" d="M326.41,410.51a.42.42,0,0,1,.18.34,1.35,1.35,0,0,1-.16.54,7.51,7.51,0,0,1-.54.9,11.76,11.76,0,0,1-1.35,1.53,11.3,11.3,0,0,1-2.12,1.67,12.47,12.47,0,0,1-3,1.24,14.68,14.68,0,0,1-4.05.54,11.62,11.62,0,0,1-8.77-3.67,13.36,13.36,0,0,1-3.51-9.63,12.79,12.79,0,0,1,3.55-9.49,11.67,11.67,0,0,1,8.55-3.52q5.58,0,8.1,3.85l0-3.21c0-.28.1-.43.43-.43h2c.31,0,.47.15.47.43v7.85a.41.41,0,0,1-.47.47h-2.27c-.29,0-.43-.15-.43-.47v-.32c0-1.11-.75-2.25-2.25-3.44a8.73,8.73,0,0,0-5.6-1.78,8.37,8.37,0,0,0-6,2.65q-2.68,2.64-2.68,7.48t2.7,7.53a8.73,8.73,0,0,0,6.33,2.68,9.85,9.85,0,0,0,6.2-1.77,10.15,10.15,0,0,0,2.59-2.77c.19-.36.42-.43.68-.21Z"/><path class="cls-2" d="M345.35,417H337a.42.42,0,0,1-.47-.47v-1.76a.42.42,0,0,1,.47-.47h2.74V393.87h-6.81v3.82a.44.44,0,0,1-.5.5h-2a.45.45,0,0,1-.51-.5v-6.05c0-.31.17-.47.51-.47h21.7c.34,0,.51.16.51.47v6.05a.45.45,0,0,1-.51.5H350c-.31,0-.47-.17-.47-.5v-3.82h-6.73v20.45h2.52c.34,0,.5.16.5.47v1.76C345.85,416.86,345.69,417,345.35,417Z"/><path class="cls-2" d="M375.3,407.66V393.87h-2.77a.38.38,0,0,1-.43-.43V391.6a.38.38,0,0,1,.43-.43h8.68a.39.39,0,0,1,.43.43v1.84a.38.38,0,0,1-.43.43h-2.78v13.47q0,4.86-2.53,7.39c-1.7,1.7-4.08,2.54-7.17,2.54s-5.48-.84-7.18-2.54-2.56-4.15-2.56-7.39V393.87h-2.73c-.31,0-.47-.14-.47-.43V391.6c0-.28.16-.43.47-.43h8.64c.31,0,.47.15.47.43v1.84c0,.29-.16.43-.47.43h-2.77v13.57q0,6.92,6.62,6.92c2.26,0,3.91-.6,5-1.79A7.14,7.14,0,0,0,375.3,407.66Z"/><path class="cls-2" d="M407,417h-8.14a.38.38,0,0,1-.43-.43v-1.84a.38.38,0,0,1,.43-.43h2.52l-2.34-6.23H389l-2.34,6.23h2.52a.38.38,0,0,1,.43.43v1.84a.38.38,0,0,1-.43.43h-8.1a.38.38,0,0,1-.43-.43v-1.84a.38.38,0,0,1,.43-.43h2.41l7.74-20.45h-1.94c-.31,0-.47-.14-.47-.43V391.6c0-.28.16-.43.47-.43h4.89a2.08,2.08,0,0,1,1.32.36,2.76,2.76,0,0,1,.77,1.19l8.28,21.6H407a.38.38,0,0,1,.43.43v1.84A.38.38,0,0,1,407,417Zm-8.93-11.41-4-10.69H394l-4,10.69Z"/><path class="cls-2" d="M428.87,417H409.18c-.31,0-.47-.14-.47-.43v-1.84c0-.28.16-.43.47-.43h2.73V393.87h-2.73c-.31,0-.47-.14-.47-.43V391.6c0-.28.16-.43.47-.43h8.6a.42.42,0,0,1,.47.47v1.76a.41.41,0,0,1-.47.47h-2.73v20.45h11.44v-3.53c0-.28.16-.43.47-.43h2a.39.39,0,0,1,.43.43v5.76A.42.42,0,0,1,428.87,417Z"/></g></g></svg>