<svg xmlns="http://www.w3.org/2000/svg" viewBox="0 0 569.26 562.04"><defs><style>.cls-1{fill:#0084c3;}.cls-2{fill:#fff;stroke:#fff;stroke-miterlimit:10;stroke-width:0.5px;}</style></defs><g id="Layer_2" data-name="Layer 2"><g id="Layer_1-2" data-name="Layer 1"><path class="cls-1" d="M568.44,76.59,290,559a6.14,6.14,0,0,1-10.63,0L.82,76.59a6.14,6.14,0,0,1,2.53-8.53,615.29,615.29,0,0,1,562.57,0A6.14,6.14,0,0,1,568.44,76.59Z"/><path class="cls-2" d="M162.2,154.92a13.32,13.32,0,0,1-3.54,9.62,12.66,12.66,0,0,1-17.91,0,13.25,13.25,0,0,1-3.6-9.61,12.4,12.4,0,0,1,12.56-13,12.23,12.23,0,0,1,8.82,3.55A12.53,12.53,0,0,1,162.2,154.92Zm-18.91,7.64a8.86,8.86,0,0,0,12.83,0,10.28,10.28,0,0,0,2.73-7.56,10.07,10.07,0,0,0-2.78-7.53,8.81,8.81,0,0,0-12.73,0,10,10,0,0,0-2.81,7.53A10.22,10.22,0,0,0,143.29,162.56Z"/><path class="cls-2" d="M189.13,161.46a.42.42,0,0,1,.18.34,1.35,1.35,0,0,1-.16.54,7.51,7.51,0,0,1-.54.9,11.76,11.76,0,0,1-1.35,1.53,11.42,11.42,0,0,1-2.13,1.68,12.7,12.7,0,0,1-3,1.24,14.68,14.68,0,0,1-4.05.54,11.62,11.62,0,0,1-8.76-3.68,13.33,13.33,0,0,1-3.51-9.63,12.78,12.78,0,0,1,3.54-9.48,11.71,11.71,0,0,1,8.55-3.53c3.72,0,6.42,1.29,8.1,3.85l0-3.2c-.05-.29.09-.43.43-.43h2c.32,0,.47.14.47.43v7.85c0,.31-.15.46-.47.46h-2.26c-.29,0-.44-.15-.44-.46v-.33c0-1.1-.75-2.25-2.25-3.44a8.76,8.76,0,0,0-5.59-1.78,8.34,8.34,0,0,0-6,2.65q-2.69,2.64-2.68,7.49c0,3.22.89,5.73,2.7,7.52a8.69,8.69,0,0,0,6.33,2.68,9.86,9.86,0,0,0,6.19-1.76,10.35,10.35,0,0,0,2.6-2.77c.19-.36.41-.44.68-.22Z"/><path class="cls-2" d="M215.52,161.46a.42.42,0,0,1,.18.34,1.54,1.54,0,0,1-.16.54,7.51,7.51,0,0,1-.54.9,12.59,12.59,0,0,1-1.35,1.53,11.42,11.42,0,0,1-2.13,1.68,12.88,12.88,0,0,1-3,1.24,14.68,14.68,0,0,1-4,.54,11.6,11.6,0,0,1-8.76-3.68,13.34,13.34,0,0,1-3.52-9.63,12.79,12.79,0,0,1,3.55-9.48,11.7,11.7,0,0,1,8.55-3.53c3.72,0,6.42,1.29,8.1,3.85l0-3.2c0-.29.1-.43.44-.43h2c.31,0,.47.14.47.43v7.85a.41.41,0,0,1-.47.46H212.5c-.29,0-.44-.15-.44-.46v-.33c0-1.1-.75-2.25-2.25-3.44a8.77,8.77,0,0,0-5.6-1.78,8.37,8.37,0,0,0-6,2.65c-1.78,1.76-2.68,4.26-2.68,7.49s.9,5.73,2.7,7.52a8.69,8.69,0,0,0,6.34,2.68,9.88,9.88,0,0,0,6.19-1.76,10.14,10.14,0,0,0,2.59-2.77c.19-.36.42-.44.69-.22Z"/><path class="cls-2" d="M238.59,158.61V144.83h-2.77a.38.38,0,0,1-.43-.44v-1.83a.38.38,0,0,1,.43-.43h8.68a.38.38,0,0,1,.43.43v1.83a.38.38,0,0,1-.43.44h-2.77v13.46q0,4.86-2.54,7.4T232,168.23a9.77,9.77,0,0,1-7.18-2.54q-2.55-2.53-2.55-7.4V144.83h-2.74c-.31,0-.47-.15-.47-.44v-1.83c0-.29.16-.43.47-.43h8.64c.31,0,.47.14.47.43v1.83c0,.29-.16.44-.47.44h-2.77V158.4q0,6.91,6.62,6.91c2.26,0,3.91-.59,5-1.78A7.13,7.13,0,0,0,238.59,158.61Z"/><path class="cls-2" d="M257.24,168h-9.39c-.32,0-.47-.14-.47-.43v-1.83c0-.29.15-.44.47-.44h2.73V144.83h-2.73c-.32,0-.47-.15-.47-.44v-1.83c0-.29.15-.43.47-.43h11.08a8.89,8.89,0,0,1,6.25,2.21,7.7,7.7,0,0,1,2.43,6,7.31,7.31,0,0,1-2.38,5.83,9.85,9.85,0,0,1-6.69,2.07h-4.83v7.05h3.53a.38.38,0,0,1,.43.44v1.83A.38.38,0,0,1,257.24,168Zm-3.53-12.31h4.68c4,0,6.05-1.77,6.05-5.33a5,5,0,0,0-1.71-4.13,6.62,6.62,0,0,0-4.3-1.37h-4.72Z"/><path class="cls-2" d="M291.77,168h-8.14a.38.38,0,0,1-.43-.43v-1.83a.38.38,0,0,1,.43-.44h2.52l-2.34-6.22h-10l-2.34,6.22H274a.38.38,0,0,1,.43.44v1.83a.38.38,0,0,1-.43.43h-8.1a.38.38,0,0,1-.43-.43v-1.83a.38.38,0,0,1,.43-.44h2.41L276,144.83h-1.95c-.31,0-.46-.15-.46-.44v-1.83c0-.29.15-.43.46-.43H279a2.1,2.1,0,0,1,1.32.36,2.81,2.81,0,0,1,.77,1.18l8.28,21.6h2.45a.39.39,0,0,1,.43.44v1.83A.38.38,0,0,1,291.77,168Zm-8.93-11.41-4-10.69h-.1l-4,10.69Z"/><path class="cls-2" d="M304.76,168h-8.39a.4.4,0,0,1-.46-.46v-1.77a.41.41,0,0,1,.46-.47h2.74V144.83h-6.8v3.81a.45.45,0,0,1-.51.51h-2a.45.45,0,0,1-.51-.51v-6c0-.31.17-.46.51-.46H311.5c.33,0,.5.15.5.46v6a.45.45,0,0,1-.5.51h-2.06c-.31,0-.47-.17-.47-.51v-3.81h-6.73v20.44h2.52c.34,0,.51.16.51.47v1.77C305.27,167.82,305.1,168,304.76,168Z"/><path class="cls-2" d="M324.31,168h-8.64c-.31,0-.47-.14-.47-.43v-1.83c0-.29.16-.44.47-.44h2.74V144.83h-2.74c-.31,0-.47-.15-.47-.44v-1.83c0-.29.16-.43.47-.43h8.64c.31,0,.47.14.47.43v1.83c0,.29-.16.44-.47.44h-2.77v20.44h2.77c.31,0,.47.15.47.44v1.83C324.78,167.83,324.62,168,324.31,168Z"/><path class="cls-2" d="M352.1,154.92a13.32,13.32,0,0,1-3.54,9.62,12.66,12.66,0,0,1-17.91,0,13.25,13.25,0,0,1-3.6-9.61,12.4,12.4,0,0,1,12.56-13,12.23,12.23,0,0,1,8.82,3.55A12.53,12.53,0,0,1,352.1,154.92Zm-18.91,7.64a8.86,8.86,0,0,0,12.83,0,10.28,10.28,0,0,0,2.73-7.56,10,10,0,0,0-2.78-7.53,8.81,8.81,0,0,0-12.73,0,10,10,0,0,0-2.81,7.53A10.22,10.22,0,0,0,333.19,162.56Z"/><path class="cls-2" d="M376.3,168h-1.95a1.92,1.92,0,0,1-1.08-.27,2.86,2.86,0,0,1-.75-.84l-10.41-16.27-1.8-3h-.07v17.71H363c.31,0,.47.15.47.44v1.83c0,.29-.16.43-.47.43h-8.64c-.31,0-.47-.14-.47-.43v-1.83c0-.29.16-.44.47-.44h2.74V144.83h-2.74c-.31,0-.47-.15-.47-.44v-1.83c0-.29.16-.43.47-.43h5a2.24,2.24,0,0,1,1.84,1.22l10.26,16.06,2.05,3.49h.07V144.83h-2.77a.38.38,0,0,1-.43-.44v-1.83a.38.38,0,0,1,.43-.43h8.68a.38.38,0,0,1,.43.43v1.83a.39.39,0,0,1-.43.44h-2.78v22.71C376.76,167.83,376.61,168,376.3,168Z"/><path class="cls-2" d="M406.75,168h-8.13a.38.38,0,0,1-.44-.43v-1.83a.39.39,0,0,1,.44-.44h2.52l-2.34-6.22H388.75l-2.34,6.22h2.52a.38.38,0,0,1,.43.44v1.83a.38.38,0,0,1-.43.43h-8.1a.38.38,0,0,1-.43-.43v-1.83a.38.38,0,0,1,.43-.44h2.41L391,144.83H389c-.31,0-.47-.15-.47-.44v-1.83c0-.29.16-.43.47-.43h4.9a2.06,2.06,0,0,1,1.31.36,2.72,2.72,0,0,1,.77,1.18l8.28,21.6h2.45a.38.38,0,0,1,.43.44v1.83A.38.38,0,0,1,406.75,168Zm-8.93-11.41-4-10.69h-.11l-4,10.69Z"/><path class="cls-2" d="M428.6,168H408.91c-.31,0-.47-.14-.47-.43v-1.83c0-.29.16-.44.47-.44h2.74V144.83h-2.74c-.31,0-.47-.15-.47-.44v-1.83c0-.29.16-.43.47-.43h8.61a.4.4,0,0,1,.46.46v1.77a.41.41,0,0,1-.46.47h-2.74v20.44h11.45v-3.52c0-.29.15-.44.47-.44h1.94a.38.38,0,0,1,.43.44v5.76C429.07,167.82,428.92,168,428.6,168Z"/></g></g></svg>