<svg xmlns="http://www.w3.org/2000/svg" viewBox="0 0 569.18 494.61"><defs><style>.cls-1{fill:#5ab0d9;}.cls-2{fill:#fff;stroke:#fff;stroke-miterlimit:10;stroke-width:0.5px;}</style></defs><g id="Layer_2" data-name="Layer 2"><g id="Layer_1-2" data-name="Layer 1"><path class="cls-1" d="M569.18,6.4C559.53,210.93,449.86,389.28,288,493.62a6.15,6.15,0,0,1-8.66-2.07L.83,9.21A6.14,6.14,0,0,1,6.15,0H563A6.13,6.13,0,0,1,569.18,6.4Z"/><path class="cls-2" d="M259.31,197.05h-2c-.31,0-.47-.14-.47-.43v-8.43a.41.41,0,0,1,.47-.46h2.27c.28,0,.43.15.43.46V189a3.42,3.42,0,0,0,.83,1.82,11.39,11.39,0,0,0,1.65,1.85,7,7,0,0,0,2.22,1.24,8.37,8.37,0,0,0,3,.53,7.17,7.17,0,0,0,4.34-1.16,3.75,3.75,0,0,0,1.57-3.2,2.74,2.74,0,0,0-.89-2,6.35,6.35,0,0,0-2.28-1.34c-.94-.34-2-.65-3.12-.94s-2.28-.62-3.42-1a18.42,18.42,0,0,1-3.11-1.33,6.32,6.32,0,0,1-2.29-2.16,6,6,0,0,1-.88-3.26,6.31,6.31,0,0,1,2.29-5,9,9,0,0,1,6.14-2c3.24,0,5.61.94,7.12,2.84l-.07-2.23c0-.29.16-.43.47-.43h2a.38.38,0,0,1,.43.43v7.85a.39.39,0,0,1-.43.43h-2.27a.38.38,0,0,1-.43-.43v-1a4.22,4.22,0,0,0-1.66-3,7,7,0,0,0-4.86-1.51,6.1,6.1,0,0,0-3.83,1.13,3.5,3.5,0,0,0-1.46,2.9,3,3,0,0,0,.9,2.16,6.46,6.46,0,0,0,2.34,1.44,31.42,31.42,0,0,0,3.17,1q1.72.45,3.45,1a18.58,18.58,0,0,1,3.17,1.3,6.32,6.32,0,0,1,2.34,2.07,5.35,5.35,0,0,1,.9,3.11,6.74,6.74,0,0,1-2.27,5.22q-2.26,2.06-6.77,2.05a10.26,10.26,0,0,1-5.47-1.33,9.5,9.5,0,0,1-3.13-2.88l0,3.53A.38.38,0,0,1,259.31,197.05Z"/><path class="cls-2" d="M305.43,184a13.26,13.26,0,0,1-3.55,9.61A11.85,11.85,0,0,1,293,197.3a12,12,0,0,1-9-3.72,13.28,13.28,0,0,1-3.6-9.62,12.4,12.4,0,0,1,12.57-13,12.26,12.26,0,0,1,8.82,3.54A12.56,12.56,0,0,1,305.43,184Zm-18.92,7.63a8.85,8.85,0,0,0,12.84,0,10.25,10.25,0,0,0,2.73-7.56,10,10,0,0,0-2.79-7.52,8.8,8.8,0,0,0-12.72,0,10,10,0,0,0-2.81,7.52A10.22,10.22,0,0,0,286.51,191.63Z"/><path class="cls-2" d="M332.36,190.53a.44.44,0,0,1,.18.35,1.54,1.54,0,0,1-.16.54,9.52,9.52,0,0,1-.54.9,13.54,13.54,0,0,1-1.35,1.53,11.79,11.79,0,0,1-2.13,1.67,12.47,12.47,0,0,1-3,1.24,14.68,14.68,0,0,1-4.05.54,11.63,11.63,0,0,1-8.77-3.67A13.36,13.36,0,0,1,309,184a12.83,12.83,0,0,1,3.55-9.49,11.67,11.67,0,0,1,8.55-3.52q5.58,0,8.1,3.85l0-3.21c0-.28.1-.43.44-.43h2c.31,0,.47.15.47.43v7.85a.42.42,0,0,1-.47.47h-2.27c-.28,0-.43-.16-.43-.47v-.32c0-1.11-.75-2.25-2.25-3.44a8.71,8.71,0,0,0-5.6-1.78,8.4,8.4,0,0,0-6,2.64c-1.78,1.77-2.68,4.26-2.68,7.49s.9,5.74,2.7,7.53a8.73,8.73,0,0,0,6.34,2.68,9.82,9.82,0,0,0,6.19-1.77,10,10,0,0,0,2.59-2.77q.29-.54.69-.21Z"/><path class="cls-2" d="M344.42,197.05h-8.64c-.32,0-.47-.14-.47-.43v-1.84c0-.29.15-.43.47-.43h2.73V173.9h-2.73c-.32,0-.47-.14-.47-.43v-1.84c0-.28.15-.43.47-.43h8.64c.31,0,.46.15.46.43v1.84c0,.29-.15.43-.46.43h-2.77v20.45h2.77c.31,0,.46.14.46.43v1.84C344.88,196.91,344.73,197.05,344.42,197.05Z"/><path class="cls-2" d="M373,197.05h-8.14a.38.38,0,0,1-.43-.43v-1.84a.38.38,0,0,1,.43-.43h2.52L365,188.12H355l-2.34,6.23h2.52a.38.38,0,0,1,.43.43v1.84a.38.38,0,0,1-.43.43h-8.1a.38.38,0,0,1-.44-.43v-1.84a.38.38,0,0,1,.44-.43h2.41l7.74-20.45h-1.95c-.31,0-.46-.14-.46-.43v-1.84c0-.28.15-.43.46-.43h4.9a2,2,0,0,1,1.31.36,2.86,2.86,0,0,1,.78,1.19l8.28,21.6H373a.38.38,0,0,1,.43.43v1.84A.38.38,0,0,1,373,197.05ZM364,185.64,360,175h-.11l-4,10.69Z"/><path class="cls-2" d="M394.82,197.05H375.13c-.32,0-.47-.14-.47-.43v-1.84c0-.29.15-.43.47-.43h2.73V173.9h-2.73c-.32,0-.47-.14-.47-.43v-1.84c0-.28.15-.43.47-.43h8.6a.42.42,0,0,1,.47.47v1.76a.41.41,0,0,1-.47.47H381v20.45h11.45v-3.53c0-.29.16-.43.47-.43h1.94a.38.38,0,0,1,.44.43v5.76A.42.42,0,0,1,394.82,197.05Z"/></g></g></svg>