<?xml version="1.0" encoding="utf-8"?>
<!-- Generator: Adobe Illustrator 25.4.1, SVG Export Plug-In . SVG Version: 6.00 Build 0)  -->
<svg version="1.1" id="Layer_1" xmlns="http://www.w3.org/2000/svg" xmlns:xlink="http://www.w3.org/1999/xlink" x="0px" y="0px"
	 viewBox="0 0 1224.4 1247.3" style="enable-background:new 0 0 1224.4 1247.3;" xml:space="preserve">
<style type="text/css">
	.st0{fill:#0084C3;}
	.st1{fill:none;stroke:#C8EBF4;stroke-width:10;stroke-linecap:round;stroke-linejoin:round;}
	.st2{fill:#3D537B;}
</style>
<image style="overflow:visible;enable-background:new    ;" width="448" height="293" xlink:href="19DB6F3C.png"  transform="matrix(0.9966 0 0 0.9966 449.7645 720.3579)">
</image>
<path class="st0" d="M486.9,947.1c1.3,2.6,16.9,33,41.8,34.5c21.4,1.3,34.5-19.6,67.9-54c30.4-31.2,48.2-49.5,71.6-63.8
	c57.3-34.9,96.6-13.9,167.2-57.2c29.7-18.2,31.7-27.4,30.8-32c-2.9-16-46.5-20.3-62.1-21.9c-91.5-9.2-272.7,11.8-314.8,116.2
	C485.2,879.3,470.9,914.8,486.9,947.1z"/>
<path class="st1" d="M755.5,790.9c6-12.2,39.3-77.1,115.5-100.5c49.3-15.2,91.7-5.3,109.5,0"/>
<path class="st0" d="M1025.4,686.3h-6.2v-30.4h6.2v12.2h13.1v-12.2h6.3v30.4h-6.3v-13.2h-13.1V686.3z"/>
<path class="st0" d="M1072,677.3h-15c0.1,1.4,0.7,2.7,1.8,3.7c1,1,2.4,1.5,3.8,1.5c2.3-0.1,4.6-0.7,6.5-1.9l1.5,3.2
	c-2.4,2.1-5.5,3.2-8.6,3.1c-3.7,0-6.6-1.1-8.7-3.2c-2-2-3-4.7-3-8.2c-0.1-3.2,1.1-6.2,3.4-8.5c2-2.1,4.8-3.2,7.7-3.1
	c3.1-0.2,6.1,1.1,8.1,3.5c1.7,2.2,2.6,4.9,2.5,7.7L1072,677.3z M1056.6,672.9h9.3c-0.2-3.1-1.7-4.7-4.6-4.7S1057,669.7,1056.6,672.9
	z"/>
<path class="st0" d="M1094.6,686.3h-4.8l-0.5-2.1c-1.8,1.6-4,2.6-6.4,2.6c-4.8,0-7.2-2.4-7.2-7.1c-0.1-2.2,1.1-4.3,3-5.5
	c2-1.3,5.1-2,9.1-2h1v-0.1c0.1-1-0.2-2.1-0.9-2.8c-0.9-0.6-2-0.9-3.1-0.8c-2.1,0-4.2,0.7-5.8,2c-0.6-1-1.1-2.1-1.6-3.1
	c1.4-1.2,3-2.1,4.8-2.8c1.6-0.5,3.2-0.8,4.9-0.8c5.1,0,7.7,3.2,7.7,9.6L1094.6,686.3z M1088.5,676h-0.7c-1.5-0.1-3.1,0.3-4.4,1
	c-1,0.5-1.7,1.4-1.7,2.5c0,2,0.9,3,2.6,3c1,0,2-0.3,2.8-0.9c0.8-0.6,1.3-1.4,1.4-2.3L1088.5,676z"/>
<path class="st0" d="M1106.3,664.5l0.6,1.9c0.4-0.8,1.1-1.4,1.8-1.8c0.9-0.5,1.8-0.7,2.8-0.8c2.8-0.1,5.3,1.5,6.4,4.1l-5.1,2.8
	c-0.8-1.1-2-1.8-3.4-1.8c-1.1,0-2,0.7-2.4,1.7v15.7h-6v-21.8H1106.3z"/>
<path class="st0" d="M1136,669.3h-6.2v10.8c0,1.6,0.5,2.4,1.6,2.4c1.3-0.1,2.5-0.5,3.6-1.2l2,3.1c-2.1,1.7-4.8,2.7-7.5,2.7
	c-3.8,0-5.8-2.1-5.8-6.3v-11.4h-3v-4.9h3.1v-3.9c1.6-0.9,3.6-1.9,6.1-3.2v7.1h6.2L1136,669.3z"/>
<path class="st0" d="M1002,705.9c2.7-0.5,5.5-0.7,8.3-0.6c5.5,0,9.6,1.6,12.5,4.8c2.5,2.7,3.7,6.3,3.7,10.7c0,5.5-1.6,9.6-4.7,12.3
	c-2.8,2.5-6.8,3.8-11.9,3.8c-2.7,0-5.3-0.2-7.9-0.6L1002,705.9L1002,705.9z M1008.3,731.7c0.8,0.2,1.6,0.3,2.4,0.2
	c6.2,0,9.3-3.6,9.3-10.9c0-3.6-1-6.4-3.1-8.3c-1.7-1.6-4-2.4-6.3-2.3c-0.8,0-1.5,0.1-2.3,0.2L1008.3,731.7z"/>
<path class="st0" d="M1030.8,708.9c0-1,0.4-2,1.1-2.7s1.6-1.1,2.6-1.1s2,0.4,2.7,1.1c0.7,0.7,1.1,1.7,1.1,2.7s-0.4,2-1.1,2.7
	s-1.7,1-2.8,1c-1,0-1.9-0.4-2.6-1.1C1031.1,710.8,1030.8,709.9,1030.8,708.9z M1037.6,714.5v21.8h-6.1v-21.8H1037.6z"/>
<path class="st0" d="M1056.6,719.8c-1.6-1-3.5-1.6-5.4-1.5c-1.5,0-2.3,0.7-2.3,2s1,2.1,3.1,2.6c1.9,0.3,3.7,1.1,5.3,2.2
	c1.4,1.3,2.1,3.2,2,5.2c0.1,1.9-0.7,3.7-2.2,4.9c-1.7,1.3-3.8,1.9-5.9,1.8c-3.2,0.1-6.3-1-8.8-3l2.2-3.4c1.7,1.3,3.8,2,6,2
	c0.8,0,1.6-0.2,2.2-0.7c0.6-0.4,0.9-1.1,0.9-1.8c0-1.3-1.1-2.2-3.4-2.6c-4.9-0.9-7.3-3.3-7.3-7.1c0-1.8,0.8-3.5,2.2-4.6
	c1.6-1.3,3.6-1.9,5.6-1.8c2.9-0.1,5.7,0.9,7.9,2.6L1056.6,719.8z"/>
<path class="st0" d="M1084.1,727.3h-15c0.2,2.9,2.7,5.2,5.6,5.1c2.3-0.1,4.6-0.7,6.5-1.9l1.5,3.2c-2.4,2.1-5.5,3.2-8.6,3.1
	c-3.7,0-6.6-1.1-8.7-3.2c-2-2-3-4.7-3-8.2c-0.1-3.2,1.1-6.2,3.4-8.5c2-2.1,4.8-3.2,7.7-3.1c3.1-0.2,6.1,1.1,8.1,3.5
	c1.7,2.2,2.6,4.9,2.5,7.7V727.3z M1068.7,722.9h9.3c-0.2-3.1-1.7-4.7-4.6-4.7S1069.1,719.7,1068.7,722.9L1068.7,722.9z"/>
<path class="st0" d="M1106.7,736.3h-4.8l-0.5-2.1c-1.8,1.6-4,2.6-6.4,2.6c-4.8,0-7.2-2.4-7.2-7.1c-0.1-2.2,1.1-4.3,3-5.5
	c2-1.3,5.1-2,9.1-2h1v-0.1c0.1-1-0.2-2.1-0.9-2.8c-0.9-0.6-2-0.9-3.1-0.8c-2.1,0-4.2,0.7-5.8,2c-0.6-1-1.1-2.1-1.6-3.1
	c1.4-1.2,3.1-2.1,4.8-2.8c1.6-0.5,3.2-0.8,4.9-0.8c5.1,0,7.7,3.2,7.7,9.6L1106.7,736.3z M1100.6,726h-0.7c-1.5-0.1-3.1,0.3-4.4,1
	c-1,0.5-1.7,1.4-1.7,2.5c0,2,0.9,3,2.6,3c1,0,2-0.3,2.8-0.9c0.8-0.6,1.3-1.4,1.4-2.3L1100.6,726z"/>
<path class="st0" d="M1126,719.8c-1.6-1-3.5-1.6-5.4-1.5c-1.5,0-2.3,0.7-2.3,2s1,2.1,3.1,2.6c1.9,0.3,3.7,1.1,5.3,2.2
	c1.4,1.3,2.1,3.2,2,5.2c0.1,1.9-0.7,3.7-2.2,4.9c-1.7,1.3-3.8,1.9-5.9,1.8c-3.2,0.1-6.3-1-8.8-3l2.2-3.4c1.7,1.3,3.8,2,6,2
	c0.8,0,1.6-0.2,2.2-0.7c0.6-0.4,0.9-1.1,0.9-1.8c0-1.3-1.1-2.2-3.4-2.6c-4.9-0.9-7.3-3.3-7.3-7.1c0-1.8,0.8-3.5,2.2-4.6
	c1.6-1.3,3.6-1.9,5.6-1.8c2.9-0.1,5.7,0.9,7.9,2.6L1126,719.8z"/>
<path class="st0" d="M1153.5,727.3h-15c0.1,1.4,0.7,2.7,1.8,3.7c1,1,2.4,1.5,3.8,1.5c2.3-0.1,4.6-0.7,6.5-1.9l1.5,3.2
	c-2.4,2.1-5.5,3.2-8.6,3.1c-3.7,0-6.6-1.1-8.7-3.2s-3-4.7-3-8.2c-0.1-3.2,1.1-6.2,3.4-8.5c2-2.1,4.8-3.2,7.7-3.1
	c3.1-0.2,6.1,1.1,8.1,3.5c1.7,2.2,2.6,4.9,2.5,7.7L1153.5,727.3z M1138.2,722.9h9.3c-0.2-3.1-1.7-4.7-4.6-4.7
	S1138.5,719.7,1138.2,722.9L1138.2,722.9z"/>
<path class="st0" d="M362,485.8c-0.6,0.9-1.5,2.2-2.7,3.9c-2.2-1-4.5-1.6-6.9-1.7c-2.7,0-4,1-4,3c0,0.8,0.3,1.6,0.9,2.1
	c1.2,0.8,2.4,1.4,3.8,1.9c2.8,0.9,5.3,2.4,7.5,4.4c1.5,1.5,2.3,3.5,2.3,5.7c0.1,2.8-1.2,5.6-3.5,7.2c-2.1,1.4-4.6,2.1-7.1,2.1
	c-3.3,0-6.9-1.2-10.8-3.7l2.8-3.9c2.1,1.3,4.6,2,7.1,1.9c3.3,0,5-1.3,5-4c0-1.7-1.8-3.2-5.3-4.4c-5.7-1.9-8.6-5-8.6-9.2
	c-0.1-2.4,1-4.6,2.9-6.1c2.1-1.5,4.6-2.3,7.1-2.2C355.9,482.7,359.3,483.8,362,485.8z"/>
<path class="st0" d="M382,496.7h-6.2v10.8c0,1.6,0.5,2.4,1.6,2.4c1.3-0.1,2.5-0.5,3.6-1.2l2,3.1c-2.1,1.7-4.8,2.7-7.5,2.7
	c-3.8,0-5.8-2.1-5.8-6.3v-11.4h-3V492h3.1v-3.9c1.6-0.9,3.6-1.9,6.1-3.2v7.1h6.2L382,496.7z"/>
<path class="st0" d="M392.6,491.9l0.6,1.9c0.4-0.8,1.1-1.4,1.9-1.8c0.9-0.5,1.8-0.7,2.8-0.7c2.8-0.1,5.3,1.5,6.4,4.1l-5.1,2.8
	c-0.8-1.1-2-1.7-3.4-1.8c-1.1,0-2,0.7-2.4,1.7v15.7h-6V492L392.6,491.9z"/>
<path class="st0" d="M415.6,491.3c3.2-0.2,6.3,1.2,8.4,3.8c1.7,2.2,2.6,4.9,2.5,7.7c0.1,3.3-1.2,6.5-3.7,8.6
	c-4.4,4-11.1,3.6-15.1-0.7c0,0,0,0-0.1-0.1c-1.9-2.2-3-5-2.9-7.9c-0.1-3.2,1-6.3,3.2-8.5C410,492.3,412.8,491.2,415.6,491.3z
	 M415.6,509.8c3.1,0,4.7-2.3,4.7-6.9c0-4.8-1.6-7.2-4.7-7.2s-4.7,2.4-4.7,7.2C411,507.4,412.5,509.7,415.6,509.8L415.6,509.8z"/>
<path class="st0" d="M451.9,491.9l-10.3,8.8c3.8,5.8,6.8,10.1,8.9,13h-6.9c-2.7-4.6-4.7-8.1-6.1-10.4v10.4h-6v-27.8l6-3.2v14.4
	c1.6-1.2,3.7-3,6.3-5.3L451.9,491.9z"/>
<path class="st0" d="M474.4,504.7h-15c0.2,2.9,2.7,5.2,5.6,5.1c2.3-0.1,4.6-0.7,6.5-1.9l1.5,3.2c-2.4,2.1-5.5,3.2-8.6,3.1
	c-3.7,0-6.6-1-8.7-3.2s-3.2-5.2-3-8.2c-0.1-3.2,1.1-6.3,3.4-8.5c2-2,4.8-3.2,7.7-3.1c3.1-0.2,6.1,1.1,8.1,3.5
	c1.7,2.2,2.6,4.9,2.5,7.7V504.7z M459,500.3h9.3c-0.2-3.1-1.7-4.7-4.6-4.7S459.4,497.1,459,500.3z"/>
<path class="st0" d="M220.2,542.1c-0.6,0.9-1.5,2.2-2.7,3.9c-2.1-1-4.5-1.6-6.9-1.7c-2.7,0-4,1-4,3c0,0.8,0.3,1.6,0.9,2.1
	c1.2,0.8,2.5,1.4,3.8,1.9c2.8,0.9,5.3,2.4,7.5,4.4c1.5,1.5,2.3,3.5,2.3,5.7c0.1,2.8-1.2,5.6-3.5,7.2c-2.1,1.4-4.6,2.2-7.1,2.1
	c-3.3,0-6.9-1.2-10.8-3.7l2.8-3.9c2.1,1.3,4.6,2,7.1,1.9c3.3,0,5-1.3,5-4c0-1.7-1.8-3.2-5.3-4.4c-5.7-1.9-8.6-5-8.6-9.2
	c-0.1-2.4,1-4.7,2.9-6.1c2.1-1.5,4.6-2.3,7.1-2.2C214.2,539.1,217.5,540.1,220.2,542.1z"/>
<path class="st0" d="M246.9,548.2l-10.3,8.8c3.8,5.8,6.8,10.1,8.9,13h-6.9c-2.7-4.6-4.7-8.1-6.1-10.4V570h-6v-27.8l6-3.2v14.5
	c1.6-1.2,3.7-3,6.3-5.3H246.9z"/>
<path class="st0" d="M249.4,542.6c0-1,0.4-2,1.1-2.7c0.7-0.7,1.6-1.1,2.6-1.1s2,0.4,2.7,1.1c0.7,0.7,1.1,1.7,1.1,2.7s-0.4,2-1.1,2.7
	c-0.7,0.7-1.7,1.1-2.8,1c-1,0-1.9-0.4-2.6-1.1C249.8,544.6,249.4,543.6,249.4,542.6z M256.2,548.2V570h-6.1v-21.8H256.2z"/>
<path class="st0" d="M268.4,550.3c0.8-0.8,1.8-1.5,2.9-1.9c1.2-0.5,2.4-0.8,3.6-0.8c2.8,0,4.8,0.8,6,2.3s1.9,3.9,1.9,7.3V570h-6.1
	v-12.6c0-3.1-1.4-4.7-4.2-4.7c-0.8,0-1.5,0.2-2.3,0.5c-0.6,0.2-1.2,0.5-1.6,1V570h-6v-21.8h5.1c0.2,0.8,0.3,1.5,0.5,2.1L268.4,550.3
	z"/>
<path class="st0" d="M146.5,627.6v-30.3c0.4-0.1,1.7-0.2,3.8-0.4s3.7-0.2,4.8-0.2c7.8,0,11.6,3.2,11.6,9.5c0,3.9-1.3,6.8-4,8.6
	c-1.9,1.3-4.1,1.9-6.3,1.9c-1.2,0.1-2.4,0-3.5-0.4v11.3L146.5,627.6L146.5,627.6z M152.8,602v9.2c1,0.3,2.1,0.5,3.1,0.5
	c1.2,0,2.3-0.5,3-1.4c0.8-1.1,1.2-2.4,1.1-3.8c0-3.2-1.4-4.9-4.3-4.8C154.8,601.6,153.8,601.7,152.8,602L152.8,602z"/>
<path class="st0" d="M177,605.8l0.6,1.9c0.4-0.8,1.1-1.4,1.8-1.8c0.9-0.5,1.8-0.7,2.8-0.8c2.8-0.1,5.3,1.5,6.4,4.1l-5.1,2.8
	c-0.8-1.1-2-1.8-3.4-1.8c-1.1,0-2,0.7-2.4,1.7v15.7h-6v-21.8L177,605.8L177,605.8z"/>
<path class="st0" d="M200.1,605.2c3.2-0.2,6.3,1.3,8.4,3.8c1.7,2.2,2.6,4.9,2.5,7.7c0.1,3.3-1.2,6.5-3.7,8.6c-4.3,4-11.1,3.7-15-0.7
	l-0.1-0.1c-1.9-2.2-3-5-2.9-7.9c-0.1-3.2,1-6.3,3.2-8.5C194.5,606.2,197.3,605.1,200.1,605.2z M200.1,623.7c3.1,0,4.6-2.3,4.6-6.9
	c0-4.8-1.6-7.2-4.6-7.2s-4.7,2.4-4.7,7.2C195.5,621.4,197,623.7,200.1,623.7z"/>
<path class="st0" d="M220.8,627.6H216V600l6-3.4v11.6c0.7-1.1,1.7-1.9,2.8-2.4c1-0.5,2.1-0.7,3.2-0.7c2.9-0.1,5.7,1.1,7.6,3.3
	c1.7,2.2,2.5,5,2.4,7.8c0,4.2-1.2,7.3-3.6,9.5c-1.9,1.6-4.4,2.5-6.9,2.5c-2.4,0.1-4.7-0.9-6.2-2.7L220.8,627.6z M222,614.6v5.2
	c0.1,1.2,0.6,2.2,1.5,3c0.8,0.8,1.9,1.2,3.1,1.2c1.5,0,2.9-0.7,3.6-1.9c1-1.6,1.5-3.4,1.4-5.3c0.1-1.8-0.3-3.6-1.2-5.2
	c-0.7-1.2-2-2-3.5-1.9c-1.3,0-2.5,0.5-3.4,1.4C222.5,612,222,613.3,222,614.6L222,614.6z"/>
<path class="st0" d="M249,596.6v31h-6v-27.8L249,596.6z"/>
<path class="st0" d="M275.7,618.7h-15c0.2,2.9,2.7,5.2,5.6,5.1c2.3-0.1,4.5-0.7,6.5-1.9l1.5,3.2c-2.4,2.1-5.5,3.2-8.6,3.1
	c-3.7,0-6.6-1.1-8.7-3.2c-2-2-3-4.7-3-8.2c-0.1-3.2,1.1-6.2,3.4-8.5c2-2.1,4.8-3.2,7.7-3.1c3.1-0.2,6.1,1.1,8.1,3.5
	c1.7,2.2,2.6,4.9,2.5,7.7V618.7z M260.4,614.2h9.3c-0.2-3.1-1.7-4.7-4.6-4.7S260.8,611.1,260.4,614.2z"/>
<path class="st0" d="M286.6,607.9c1.8-1.8,4.2-2.8,6.7-2.7c1.7,0,3.4,0.4,4.9,1.2c1.3,0.7,2.4,1.8,3,3.1c0.8-1.3,1.9-2.4,3.3-3.1
	c1.5-0.8,3.2-1.2,4.9-1.2c5.1,0,7.7,3.1,7.7,9.3v13H311v-11.4c0-2.2-0.3-3.7-0.9-4.5c-0.8-0.9-1.9-1.4-3.1-1.3c-2,0-3.9,0.9-5.1,2.5
	v14.8h-6v-12.1c0.1-1.4-0.2-2.8-1-4c-0.9-0.9-2.2-1.3-3.5-1.2c-0.9,0-1.8,0.1-2.7,0.4c-0.7,0.2-1.2,0.5-1.7,1.1v15.8h-6v-21.8h5.1
	l0.4,2.1L286.6,607.9z"/>
<path class="st0" d="M336,611.1c-1.6-1-3.5-1.6-5.4-1.5c-1.5,0-2.3,0.7-2.3,2s1,2.1,3.1,2.6c1.9,0.3,3.7,1.1,5.3,2.2
	c1.4,1.3,2.2,3.2,2,5.2c0.1,1.9-0.7,3.6-2.1,4.8c-1.7,1.3-3.8,1.9-5.9,1.8c-3.2,0.1-6.3-1-8.8-3l2.2-3.4c1.7,1.3,3.8,2,6,2
	c0.8,0,1.6-0.2,2.3-0.7c0.6-0.4,0.9-1.1,0.9-1.8c0-1.3-1.1-2.2-3.4-2.6c-4.9-0.9-7.3-3.3-7.3-7.1c0-1.8,0.8-3.5,2.2-4.6
	c1.6-1.3,3.6-1.9,5.6-1.8c2.9-0.1,5.7,0.9,7.9,2.6L336,611.1z"/>
<path class="st0" d="M80.6,718.6h19.9v5H86.9v7.2h11.3v5H86.9v8.1h14.2v5H80.6V718.6z"/>
<path class="st0" d="M125,727.2c-1.3,3.6-3,8.4-5.3,14.5c-1.6,4.5-2.9,8-3.8,10.5c-1.5,4-3.6,6-6.3,6c-2.4-0.1-4.7-1.1-6.5-2.7
	c0.6-1.1,1.2-2,1.6-2.9c0.9,0.7,2,1.1,3.1,1.2c1.3,0,2.5-1.6,3.5-4.7h-1.2l-7.6-21.8h6l1.6,5l0.3,0.8c1.4,4.2,2.4,7.2,3,9.2
	l5.6-14.9L125,727.2z"/>
<path class="st0" d="M148.7,740.1h-15c0.2,2.9,2.7,5.2,5.6,5.1c2.3-0.1,4.6-0.7,6.5-1.9l1.5,3.2c-2.4,2.1-5.5,3.2-8.6,3.1
	c-3.7,0-6.6-1-8.7-3.2c-2.1-2.1-3-4.7-3-8.2c-0.1-3.2,1.1-6.3,3.4-8.5c2-2,4.8-3.2,7.7-3.1c3.1-0.2,6.1,1.1,8.1,3.5
	c1.7,2.2,2.6,4.9,2.5,7.7V740.1z M133.4,735.6h9.3c-0.2-3.1-1.7-4.7-4.6-4.7S133.8,732.5,133.4,735.6z"/>
<path class="st0" d="M18.9,806.6v-30.3c0.5-0.1,1.7-0.2,3.8-0.4s3.7-0.2,4.8-0.2c7.7,0,11.6,3.2,11.6,9.5c0,3.9-1.3,6.8-4,8.6
	c-1.9,1.3-4.1,1.9-6.3,1.9c-1.2,0.1-2.4,0-3.5-0.4v11.3L18.9,806.6L18.9,806.6z M25.2,781v9.2c1,0.3,2.1,0.5,3.1,0.5
	c1.2,0,2.3-0.5,3-1.4c0.8-1.1,1.2-2.4,1.1-3.8c0-3.2-1.4-4.8-4.3-4.8C27.2,780.6,26.2,780.7,25.2,781z"/>
<path class="st0" d="M49.4,784.8l0.6,1.9c0.4-0.8,1.1-1.4,1.8-1.8c0.9-0.5,1.8-0.7,2.8-0.7c2.8-0.1,5.3,1.5,6.4,4.1l-5.1,2.8
	c-0.8-1.1-2-1.7-3.4-1.8c-1.1,0-2,0.7-2.4,1.7v15.6h-5.9v-21.8H49.4z"/>
<path class="st0" d="M72.5,784.2c3.2-0.2,6.3,1.2,8.3,3.8c1.7,2.2,2.6,4.9,2.5,7.7c0.1,3.3-1.2,6.5-3.7,8.6
	c-4.4,4-11.1,3.6-15.1-0.7c0,0,0,0-0.1-0.1c-1.9-2.2-3-5-2.9-7.9c-0.1-3.2,1-6.3,3.2-8.5C66.9,785.2,69.6,784.1,72.5,784.2z
	 M72.5,802.6c3.1,0,4.7-2.3,4.7-6.9c0-4.8-1.6-7.2-4.7-7.2s-4.7,2.4-4.7,7.2C67.8,800.3,69.4,802.6,72.5,802.6L72.5,802.6z"/>
<path class="st0" d="M93.2,806.6h-4.9v-27.5l6.1-3.4v11.6c0.7-1,1.7-1.9,2.8-2.4c1-0.5,2.1-0.7,3.2-0.7c2.9-0.1,5.7,1.1,7.6,3.3
	c1.7,2.2,2.5,5,2.4,7.8c0,4.2-1.2,7.3-3.6,9.4c-1.9,1.7-4.3,2.5-6.9,2.4c-2.4,0.1-4.7-0.9-6.2-2.7L93.2,806.6z M94.4,793.5v5.2
	c0.1,1.2,0.6,2.2,1.5,3c0.8,0.8,2,1.2,3.1,1.2c1.5,0,2.8-0.7,3.7-1.9c1-1.6,1.4-3.4,1.3-5.3c0.1-1.8-0.3-3.6-1.2-5.2
	c-0.7-1.2-2-2-3.4-1.9c-1.3,0-2.5,0.5-3.4,1.4C94.9,791,94.4,792.2,94.4,793.5z"/>
<path class="st0" d="M121.4,775.6v31h-6.1v-27.8L121.4,775.6z"/>
<path class="st0" d="M148.1,797.7h-15c0.2,2.9,2.7,5.2,5.6,5.1c2.3-0.1,4.6-0.7,6.5-1.9l1.5,3.2c-2.4,2.1-5.5,3.2-8.6,3.1
	c-3.7,0-6.6-1.1-8.7-3.2c-2-2-3-4.7-3-8.2c-0.1-3.2,1.1-6.3,3.4-8.5c2-2,4.8-3.2,7.7-3.1c3.1-0.2,6.1,1.1,8.1,3.5
	c1.7,2.2,2.6,4.9,2.5,7.7V797.7z M132.8,793.2h9.3c-0.2-3.1-1.7-4.7-4.6-4.7C134.6,788.5,133,790.1,132.8,793.2z"/>
<path class="st0" d="M159,786.9c1.8-1.8,4.2-2.8,6.7-2.7c1.7,0,3.4,0.4,4.9,1.2c1.3,0.7,2.4,1.8,3,3.2c0.8-1.3,1.9-2.4,3.3-3.1
	c1.5-0.8,3.2-1.2,4.9-1.2c5.1,0,7.7,3.1,7.7,9.3v13.1h-6.1v-11.4c0.1-1.6-0.2-3.1-0.9-4.5c-0.8-0.9-1.9-1.4-3.1-1.3
	c-2,0-3.9,0.9-5.1,2.5v14.8h-6v-12.3c0.1-1.4-0.2-2.8-1-4c-0.9-0.9-2.2-1.3-3.5-1.2c-0.9,0-1.8,0.1-2.7,0.4c-0.7,0.2-1.2,0.5-1.6,1
	v15.8h-6.1v-21.8h5.1l0.4,2.1L159,786.9z"/>
<path class="st0" d="M208.4,790.1c-1.6-1-3.5-1.6-5.4-1.5c-1.5,0-2.3,0.7-2.3,2s1,2.1,3.1,2.6c1.9,0.3,3.7,1.1,5.3,2.2
	c1.4,1.3,2.2,3.2,2,5.2c0.1,1.9-0.7,3.7-2.2,4.9c-1.7,1.3-3.8,1.9-5.9,1.8c-3.2,0.1-6.3-1-8.8-3l2.2-3.4c1.7,1.3,3.8,2,6,2
	c0.8,0,1.6-0.2,2.3-0.7c0.6-0.4,0.9-1.1,0.9-1.8c0-1.3-1.1-2.2-3.4-2.6c-4.9-0.9-7.3-3.3-7.3-7.1c0-1.8,0.8-3.5,2.2-4.6
	c1.6-1.2,3.6-1.9,5.6-1.8c2.9-0.1,5.7,0.9,7.9,2.6L208.4,790.1z"/>
<path class="st0" d="M386.1,1166.2c2.7-0.5,5.5-0.7,8.3-0.6c5.5,0,9.7,1.6,12.5,4.8c2.5,2.7,3.7,6.3,3.7,10.7
	c0,5.5-1.6,9.6-4.7,12.3c-2.9,2.5-6.8,3.7-11.9,3.7c-2.7,0-5.3-0.2-7.9-0.6V1166.2z M392.4,1192c0.8,0.2,1.6,0.3,2.4,0.2
	c6.2,0,9.3-3.7,9.3-11c0-3.6-1-6.4-3.1-8.3c-1.7-1.6-4-2.4-6.3-2.3c-0.8,0-1.5,0.1-2.3,0.2V1192z"/>
<path class="st0" d="M436,1187.7h-15c0.2,2.9,2.7,5.2,5.6,5.1c2.3-0.1,4.5-0.7,6.5-1.9l1.5,3.2c-2.4,2.1-5.5,3.2-8.6,3.1
	c-3.7,0-6.6-1.1-8.7-3.2c-2-2-3-4.7-3-8.2c-0.1-3.2,1.1-6.2,3.4-8.5c2-2.1,4.8-3.2,7.7-3.1c3.1-0.2,6.1,1.1,8.1,3.5
	c1.7,2.2,2.6,4.9,2.5,7.7V1187.7z M420.6,1183.2h9.3c-0.2-3.1-1.7-4.7-4.6-4.7S420.9,1180,420.6,1183.2z"/>
<path class="st0" d="M446.9,1176.9c0.8-0.8,1.8-1.5,2.9-1.9c1.2-0.5,2.4-0.8,3.6-0.8c2.8,0,4.8,0.8,6,2.2c1.2,1.5,1.9,3.9,1.9,7.3
	v12.8h-6.1v-12.6c0-3.1-1.4-4.7-4.2-4.7c-0.8,0-1.5,0.2-2.3,0.5c-0.6,0.2-1.2,0.5-1.6,1v15.8h-6v-21.8h5.1c0.2,0.8,0.3,1.5,0.5,2.1
	L446.9,1176.9z"/>
<path class="st0" d="M480.7,1179.6h-6.2v10.8c0,1.6,0.5,2.4,1.6,2.4c1.3-0.1,2.5-0.5,3.6-1.2l2,3.1c-2.1,1.7-4.8,2.7-7.5,2.7
	c-3.8,0-5.8-2.1-5.8-6.3v-11.4h-3v-4.8h3.1v-3.9c1.6-0.9,3.6-1.9,6.1-3.2v7.1h6.2L480.7,1179.6z"/>
<path class="st0" d="M503.7,1196.6h-4.8l-0.5-2.1c-1.8,1.6-4,2.6-6.4,2.6c-4.8,0-7.2-2.4-7.2-7.1c-0.1-2.2,1.1-4.3,3-5.5
	c2-1.3,5.1-2,9.1-2h1v-0.1c0.1-1-0.2-2-0.9-2.8c-0.9-0.6-2-0.9-3.1-0.8c-2.1,0-4.2,0.7-5.8,2c-0.6-1.1-1.1-2.1-1.6-3.1
	c1.4-1.2,3-2.1,4.8-2.9c1.6-0.5,3.2-0.8,4.9-0.7c5.1,0,7.7,3.2,7.7,9.6L503.7,1196.6z M497.6,1186.3h-0.7c-1.5-0.1-3.1,0.3-4.4,1
	c-1,0.5-1.7,1.4-1.7,2.6c0,2,0.9,3,2.6,3c1,0,2-0.3,2.8-0.9c0.8-0.5,1.3-1.4,1.4-2.3L497.6,1186.3L497.6,1186.3z"/>
<path class="st0" d="M516.3,1165.6v31h-6v-27.8L516.3,1165.6z"/>
<path class="st0" d="M376.2,1216.2c2.7-0.5,5.5-0.7,8.3-0.6c5.5,0,9.6,1.6,12.5,4.8c2.5,2.7,3.7,6.3,3.7,10.7
	c0,5.5-1.6,9.6-4.7,12.3c-2.8,2.5-6.8,3.7-11.9,3.7c-2.7,0-5.3-0.2-7.9-0.6V1216.2z M382.5,1242c0.8,0.2,1.6,0.3,2.4,0.2
	c6.2,0,9.3-3.7,9.3-11c0-3.6-1-6.4-3.1-8.3c-1.7-1.6-4-2.4-6.3-2.3c-0.8,0-1.5,0.1-2.3,0.2V1242z"/>
<path class="st0" d="M404.9,1219.2c0-1,0.4-2,1.1-2.7s1.6-1.1,2.6-1.1s2,0.4,2.7,1.1s1.2,1.7,1.1,2.7c0,1-0.4,2-1.1,2.7
	s-1.7,1.1-2.8,1.1c-1,0-1.9-0.4-2.6-1.1C405.3,1221.2,404.9,1220.2,404.9,1219.2z M411.8,1224.8v21.8h-6.1v-21.8H411.8z"/>
<path class="st0" d="M430.7,1230.1c-1.6-1-3.5-1.6-5.4-1.5c-1.5,0-2.3,0.7-2.3,2s1,2.1,3.1,2.6c1.9,0.3,3.7,1.1,5.3,2.2
	c1.4,1.3,2.1,3.2,2,5.2c0.1,1.9-0.7,3.7-2.2,4.9c-1.7,1.3-3.8,1.9-5.9,1.8c-3.2,0.1-6.3-1-8.8-3l2.2-3.4c1.7,1.3,3.8,2.1,6,2
	c0.8,0,1.6-0.2,2.2-0.7c0.6-0.4,0.9-1.1,0.9-1.8c0-1.3-1.1-2.2-3.4-2.6c-4.9-0.9-7.3-3.3-7.3-7.1c0-1.8,0.8-3.5,2.2-4.6
	c1.6-1.3,3.6-1.9,5.6-1.8c2.9-0.1,5.7,0.9,7.9,2.6L430.7,1230.1z"/>
<path class="st0" d="M458.2,1237.7h-15c0.2,2.9,2.7,5.2,5.6,5.1c2.3-0.1,4.6-0.7,6.5-1.9l1.5,3.2c-2.4,2.1-5.5,3.2-8.6,3.1
	c-3.7,0-6.6-1.1-8.7-3.2c-2-2-3-4.7-3-8.2c-0.1-3.2,1.1-6.2,3.4-8.5c2-2.1,4.8-3.2,7.7-3.1c3.1-0.2,6.1,1.1,8.1,3.5
	c1.7,2.2,2.6,4.9,2.5,7.7V1237.7z M442.9,1233.2h9.3c-0.2-3.1-1.7-4.7-4.6-4.7C444.7,1228.5,443.2,1230,442.9,1233.2z"/>
<path class="st0" d="M480.9,1246.6H476l-0.5-2.1c-1.8,1.6-4,2.6-6.4,2.6c-4.8,0-7.2-2.4-7.2-7.1c-0.1-2.2,1.1-4.3,3-5.5
	c2-1.3,5.1-2,9.1-2h1v-0.1c0.1-1-0.2-2.1-0.9-2.8c-0.9-0.6-2-0.9-3.1-0.8c-2.1,0-4.2,0.7-5.8,2c-0.6-1.1-1.1-2.1-1.6-3.1
	c1.4-1.2,3.1-2.1,4.8-2.9c1.6-0.5,3.2-0.8,4.9-0.7c5.1,0,7.7,3.2,7.7,9.6L480.9,1246.6z M474.8,1236.3H474c-1.5-0.1-3.1,0.3-4.4,1
	c-1,0.5-1.7,1.4-1.7,2.6c0,2,0.9,3,2.6,3c1,0,2-0.3,2.8-0.9c0.8-0.5,1.3-1.4,1.4-2.3v-3.4H474.8z"/>
<path class="st0" d="M500.1,1230.1c-1.6-1-3.5-1.6-5.4-1.5c-1.5,0-2.3,0.7-2.3,2s1,2.1,3.1,2.6c1.9,0.3,3.7,1.1,5.3,2.2
	c1.4,1.3,2.1,3.2,2,5.2c0.1,1.9-0.7,3.7-2.2,4.9c-1.7,1.3-3.8,1.9-5.9,1.8c-3.2,0.1-6.3-1-8.8-3l2.2-3.4c1.7,1.3,3.8,2.1,6,2
	c0.8,0,1.6-0.2,2.2-0.7c0.6-0.4,0.9-1.1,0.9-1.8c0-1.3-1.1-2.2-3.4-2.6c-4.9-0.9-7.3-3.3-7.3-7.1c0-1.8,0.8-3.5,2.2-4.6
	c1.6-1.3,3.6-1.9,5.6-1.8c2.9-0.1,5.7,0.9,7.9,2.6L500.1,1230.1z"/>
<path class="st0" d="M527.6,1237.7h-15c0.1,1.4,0.7,2.7,1.8,3.7c1,1,2.4,1.5,3.8,1.5c2.3-0.1,4.6-0.7,6.5-1.9l1.5,3.2
	c-2.4,2.1-5.5,3.2-8.6,3.1c-3.7,0-6.6-1.1-8.7-3.2s-3-4.7-3-8.2c-0.1-3.2,1.1-6.2,3.4-8.5c2-2,4.8-3.2,7.7-3.1
	c3.1-0.2,6.1,1.1,8.1,3.5c1.7,2.2,2.6,4.9,2.5,7.7L527.6,1237.7z M512.3,1233.2h9.3c-0.2-3.1-1.7-4.7-4.6-4.7
	C514.2,1228.5,512.6,1230,512.3,1233.2z"/>
<path class="st0" d="M11.2,923.8h5.3l11.2,30.4h-6.4c-0.5-1.6-1.2-3.7-2-6.3h-11c-0.5,1.4-1.1,3.6-2.1,6.3H0L11.2,923.8z M13.9,932
	c-0.9,2.5-2.1,6.1-3.7,10.7h7.3C16,938.3,14.8,934.7,13.9,932z"/>
<path class="st0" d="M37,934.5c1.8-1.8,4.2-2.8,6.7-2.7c1.7,0,3.4,0.4,4.9,1.2c1.3,0.7,2.4,1.8,3,3.2c0.8-1.3,1.9-2.4,3.3-3.1
	c1.5-0.8,3.2-1.2,4.9-1.2c5.1,0,7.7,3.1,7.7,9.3v13.1h-6.1v-11.4c0.1-1.6-0.2-3.1-0.9-4.5c-0.8-0.9-1.9-1.4-3.2-1.3
	c-2,0-3.9,0.9-5.1,2.5v14.8h-6v-12.1c0.1-1.4-0.2-2.8-1-4c-0.9-0.9-2.2-1.3-3.5-1.2c-0.9,0-1.8,0.1-2.7,0.4c-0.6,0.1-1.2,0.5-1.7,1
	v15.8h-6v-21.8h5.1L37,934.5L37,934.5z"/>
<path class="st0" d="M78.2,932.4l0.6,2.1c1.3-1.8,3.5-2.7,5.7-2.6c3.1-0.2,6,1.1,8,3.4c1.7,2.2,2.6,4.8,2.4,7.6c0,4-1.2,7.1-3.7,9.3
	c-1.9,1.7-4.5,2.7-7.1,2.6c-0.9,0-1.8-0.2-2.6-0.5c-0.8-0.2-1.4-0.6-2-1.2v9.7h-6v-30.3L78.2,932.4z M79.6,940.9v5.6
	c0,1.1,0.4,2.1,1.2,2.9c0.7,0.8,1.7,1.2,2.8,1.2c1.5,0,2.8-0.8,3.6-2.1c1-1.5,1.5-3.3,1.5-5.2c0.1-1.8-0.3-3.6-1.3-5.2
	c-0.7-1.2-2-2-3.4-1.9c-1.2,0-2.3,0.5-3,1.4C80.1,938.5,79.6,939.7,79.6,940.9L79.6,940.9z"/>
<path class="st0" d="M114.2,951.7c-1.6,2-4,3.2-6.6,3.1c-2.7,0-4.7-0.7-5.9-2.1c-1.2-1.4-1.8-3.8-1.8-7.2v-13.1h6v11.5
	c-0.1,1.6,0.2,3.2,0.9,4.6c0.7,0.9,1.8,1.4,3,1.3c0.7,0,1.4-0.2,2.1-0.5c0.6-0.2,1.1-0.5,1.4-1v-15.9h6v21.8h-4.5L114.2,951.7
	L114.2,951.7z"/>
<path class="st0" d="M139.5,937.3h-6.2v10.8c0,1.6,0.5,2.4,1.6,2.4c1.3-0.1,2.5-0.5,3.6-1.2l2,3.1c-2.1,1.7-4.8,2.7-7.5,2.7
	c-3.8,0-5.8-2.1-5.8-6.3v-11.4h-3v-4.8h3.1v-3.9c1.6-0.9,3.6-1.9,6.1-3.2v7.1h6.2L139.5,937.3z"/>
<path class="st0" d="M162.5,954.2h-4.9l-0.5-2.1c-1.8,1.6-4,2.6-6.4,2.6c-4.8,0-7.2-2.4-7.2-7.1c-0.1-2.2,1.1-4.3,3-5.5
	c2-1.3,5.1-2,9.1-2h1V940c0.1-1-0.2-2-0.9-2.8c-0.9-0.6-2-0.9-3.1-0.8c-2.1,0-4.1,0.7-5.8,2c-0.6-1.1-1.1-2.1-1.6-3.1
	c1.4-1.2,3.1-2.1,4.8-2.9c1.6-0.5,3.2-0.8,4.9-0.7c5.1,0,7.7,3.2,7.7,9.6L162.5,954.2z M156.4,943.9h-0.8c-1.5-0.1-3.1,0.3-4.4,1
	c-1,0.5-1.7,1.4-1.7,2.6c0,2,0.9,3,2.6,3c1,0,2-0.3,2.8-0.9c0.8-0.5,1.3-1.4,1.4-2.3L156.4,943.9z"/>
<path class="st0" d="M182.6,937.3h-6.2v10.8c0,1.6,0.5,2.4,1.6,2.4c1.3-0.1,2.5-0.5,3.6-1.2l2,3.1c-2.1,1.7-4.8,2.7-7.5,2.7
	c-3.8,0-5.8-2.1-5.8-6.3v-11.4h-3v-4.8h3.1v-3.9c1.6-0.9,3.6-1.9,6.1-3.2v7.1h6.2v4.7H182.6z"/>
<path class="st0" d="M187.1,926.8c0-1,0.4-2,1.1-2.7c0.7-0.7,1.6-1.1,2.6-1.1s2,0.4,2.7,1.1s1.1,1.7,1.1,2.7s-0.4,2-1.1,2.7
	c-0.7,0.7-1.7,1.1-2.8,1.1c-1,0-1.9-0.4-2.6-1.1S187.1,927.8,187.1,926.8z M193.9,932.4v21.8h-6.1v-21.8H193.9z"/>
<path class="st0" d="M209.6,931.8c3.2-0.2,6.3,1.2,8.4,3.8c1.7,2.2,2.6,4.9,2.5,7.7c0.1,3.3-1.2,6.5-3.7,8.6
	c-4.4,4-11.1,3.6-15.1-0.7c0,0,0,0-0.1-0.1c-1.9-2.2-3-5-2.9-7.9c-0.1-3.2,1-6.3,3.2-8.6C203.9,932.8,206.7,931.7,209.6,931.8z
	 M209.6,950.3c3.1,0,4.7-2.3,4.7-6.9c0-4.8-1.6-7.2-4.7-7.2s-4.7,2.4-4.7,7.2C204.9,948,206.5,950.3,209.6,950.3L209.6,950.3z"/>
<path class="st0" d="M231.3,934.5c0.8-0.8,1.8-1.5,2.9-1.9c1.2-0.5,2.4-0.8,3.6-0.8c2.8,0,4.8,0.8,6,2.2s1.9,3.9,1.8,7.3v12.8h-6.1
	v-12.6c0-3.1-1.4-4.7-4.2-4.7c-0.8,0-1.5,0.2-2.2,0.5c-0.6,0.2-1.2,0.5-1.6,1v15.8h-6v-21.8h5.1c0.2,0.8,0.3,1.5,0.5,2.1
	L231.3,934.5z"/>
<path class="st0" d="M166.6,1096.1v-30.3c0.4-0.1,1.7-0.2,3.8-0.4s3.7-0.2,4.8-0.2c7.8,0,11.6,3.2,11.6,9.5c0,3.4-1.5,6.6-4.2,8.7
	c1.1,2.7,3.1,6.9,5.9,12.7h-6.3c-1.6-3.4-3.3-7.1-5.1-11c-0.5,0.1-1,0.1-1.4,0.1c-0.9,0.1-1.9-0.1-2.7-0.4v11.3L166.6,1096.1z
	 M172.9,1070.5v9.2c1,0.3,2.1,0.4,3.1,0.4c2.8,0,4.1-1.8,4.1-5.5c0-3-1.4-4.5-4.3-4.5C174.9,1070.1,173.9,1070.2,172.9,1070.5
	L172.9,1070.5z"/>
<path class="st0" d="M190.3,1068.7c0-1,0.4-2,1.1-2.7c0.7-0.7,1.6-1.1,2.6-1.1s2,0.4,2.7,1.1c1.5,1.5,1.5,3.9,0.1,5.4
	c-0.7,0.7-1.7,1.1-2.8,1.1c-1,0-1.9-0.4-2.6-1.1C190.6,1070.7,190.3,1069.7,190.3,1068.7z M197.1,1074.3v21.8H191v-21.8H197.1z"/>
<path class="st0" d="M216.1,1079.6c-1.6-1-3.5-1.6-5.4-1.5c-1.5,0-2.3,0.7-2.3,2s1,2.1,3.1,2.6c1.9,0.3,3.7,1.1,5.3,2.2
	c1.4,1.3,2.1,3.2,2,5.2c0.1,1.9-0.7,3.7-2.2,4.9c-1.7,1.3-3.8,1.9-5.9,1.8c-3.2,0.1-6.3-1-8.8-3l2.2-3.4c1.7,1.3,3.8,2,6,2
	c0.8,0,1.6-0.2,2.2-0.7c0.6-0.4,0.9-1.1,0.9-1.8c0-1.3-1.1-2.2-3.4-2.6c-4.9-0.9-7.3-3.3-7.3-7.1c0-1.8,0.8-3.5,2.2-4.6
	c1.6-1.2,3.6-1.9,5.6-1.8c2.9-0.1,5.7,0.9,7.9,2.6L216.1,1079.6z"/>
<path class="st0" d="M244.2,1074.3l-10.3,8.8c3.8,5.8,6.8,10.1,8.9,13H236c-2.7-4.6-4.7-8.1-6.1-10.4v10.4h-6v-27.8l6-3.2v14.4
	c1.6-1.2,3.7-3,6.3-5.3L244.2,1074.3z"/>
<path class="st0" d="M268.6,1073.7c3.2-0.2,6.3,1.2,8.4,3.8c1.7,2.2,2.6,4.9,2.5,7.7c0.1,3.3-1.2,6.5-3.7,8.6
	c-4.4,4-11.1,3.6-15.1-0.7c0,0,0,0-0.1-0.1c-1.9-2.2-3-5-2.9-7.9c-0.1-3.2,1-6.3,3.2-8.6C263,1074.7,265.8,1073.6,268.6,1073.7z
	 M268.6,1092.1c3.1,0,4.6-2.3,4.6-6.9c0-4.8-1.5-7.2-4.6-7.2s-4.7,2.4-4.7,7.2C264,1089.8,265.5,1092.1,268.6,1092.1L268.6,1092.1z"
	/>
<path class="st0" d="M282.9,1079.2v-4.9h3.4v-2.9c0-4.2,2-6.3,5.9-6.3c2.6,0,5.1,0.9,7.1,2.6l-2.2,3.2c-0.9-0.7-2.1-1.1-3.3-1.2
	c-1,0-1.5,0.8-1.5,2.4v2.2h6v4.9h-6v16.9h-6v-16.9L282.9,1079.2z"/>
<path class="st0" d="M166.5,1146.1v-30.4h19.9v5h-13.6v7.2h11.3v5h-11.3v13.1L166.5,1146.1z"/>
<path class="st0" d="M205.7,1146.1h-4.9l-0.5-2.1c-1.8,1.6-4,2.6-6.4,2.6c-4.8,0-7.2-2.3-7.2-7c-0.1-2.2,1.1-4.3,3-5.5
	c2-1.3,5.1-2,9.1-2h1v-0.1c0.1-1-0.2-2-0.9-2.8c-0.9-0.6-2-0.9-3.1-0.8c-2.1,0-4.1,0.7-5.8,2c-0.6-1.1-1.1-2.1-1.6-3.1
	c1.4-1.2,3.1-2.1,4.8-2.9c1.6-0.5,3.2-0.8,4.9-0.7c5.1,0,7.7,3.2,7.7,9.6L205.7,1146.1z M199.6,1135.8h-0.7c-1.5-0.1-3.1,0.3-4.4,1
	c-1,0.5-1.7,1.4-1.7,2.6c0,2,0.9,3,2.6,3c1,0,2-0.3,2.8-0.9c0.8-0.5,1.3-1.4,1.4-2.3L199.6,1135.8L199.6,1135.8z"/>
<path class="st0" d="M218.3,1115.1v31h-6.1v-27.8L218.3,1115.1z"/>
<path class="st0" d="M230.9,1115.1v31h-6v-27.8L230.9,1115.1z"/>
<path class="st0" d="M236.4,1118.7c0-1,0.4-2,1.1-2.7c0.7-0.7,1.6-1.1,2.6-1.1s2,0.4,2.7,1.1c1.5,1.5,1.5,3.9,0,5.4
	c-0.7,0.7-1.7,1.1-2.8,1.1c-1,0-1.9-0.4-2.6-1.1C236.8,1120.7,236.4,1119.7,236.4,1118.7z M243.3,1124.3v21.8h-6.1v-21.8H243.3z"/>
<path class="st0" d="M255.4,1126.4c0.8-0.8,1.8-1.5,2.9-1.9c1.2-0.5,2.4-0.8,3.6-0.8c2.8,0,4.8,0.8,6,2.2s1.9,3.9,1.9,7.3v12.8h-6.1
	v-12.5c0-3.1-1.4-4.7-4.2-4.7c-0.8,0-1.5,0.2-2.2,0.4c-0.6,0.2-1.2,0.5-1.6,1v15.8h-6v-21.7h5.1c0.2,0.8,0.3,1.5,0.5,2.1
	L255.4,1126.4z"/>
<path class="st0" d="M289.8,1143.4c-1.3,2.1-3.6,3.3-6.1,3.2c-2.9,0.1-5.7-1.1-7.4-3.4c-1.6-2.1-2.4-4.7-2.3-7.3
	c0-4.2,1.2-7.4,3.6-9.7c1.8-1.7,4.1-2.6,6.6-2.5c1.8-0.1,3.6,0.5,5.1,1.5c0.9,0.6,1.4,1.1,1.4,1.4l0.5-2.4h4.6v19.5
	c0,3.7-0.9,6.5-2.7,8.5c-1.8,2-4.4,3-7.7,2.9c-3.3,0.1-6.6-1.2-9-3.4l1.5-3.1c1.9,1.3,4.2,1.9,6.6,1.9
	C288.1,1150.6,289.8,1148.2,289.8,1143.4z M289.8,1131.7c-0.1-1-0.7-1.9-1.5-2.6s-1.8-1.1-2.8-1.1c-1.5,0-3,0.7-3.8,1.9
	c-1,1.5-1.5,3.3-1.4,5.2c0,4.8,1.6,7.2,4.7,7.2c1.3,0,2.5-0.5,3.4-1.5s1.5-2.2,1.4-3.6L289.8,1131.7z"/>
<path class="st0" d="M898,1025.9v20.3h-6.2v-30.4h5.2c5.1,6.7,10.2,13.7,15.3,21v-21h6.3v30.4h-5.4
	C910.1,1042.7,905.1,1035.9,898,1025.9z"/>
<path class="st0" d="M945.8,1037.3h-15c0.1,1.4,0.7,2.7,1.8,3.7c1,1,2.4,1.5,3.8,1.5c2.3-0.1,4.6-0.7,6.5-1.9l1.5,3.2
	c-2.4,2.1-5.5,3.2-8.6,3.1c-3.7,0-6.6-1.1-8.7-3.2c-2-2-3-4.7-3-8.2c-0.1-3.2,1.1-6.3,3.4-8.5c2-2,4.8-3.2,7.7-3.1
	c3.1-0.2,6.1,1.1,8.1,3.5c1.7,2.2,2.6,4.9,2.5,7.7V1037.3z M930.5,1032.9h9.3c-0.2-3.1-1.7-4.7-4.6-4.7S930.8,1029.7,930.5,1032.9
	L930.5,1032.9z"/>
<path class="st0" d="M956,1024.5l0.6,1.9c0.4-0.8,1.1-1.4,1.8-1.8c0.9-0.5,1.8-0.7,2.8-0.8c2.8-0.1,5.3,1.5,6.4,4.1l-5.1,2.8
	c-0.8-1.1-2-1.8-3.4-1.8c-1.1,0-2,0.7-2.4,1.7v15.7h-6v-21.8H956z"/>
<path class="st0" d="M982.8,1046.3h-4.7l-8.4-21.8h6.1l4.7,14.4l4.9-14.4h6.3l-0.9,2.2l-1.1,2.6
	C986.7,1036.7,984.4,1042.3,982.8,1046.3z"/>
<path class="st0" d="M1015.3,1037.3h-15c0.2,2.9,2.7,5.2,5.6,5.1c2.3-0.1,4.6-0.7,6.5-1.9l1.5,3.2c-2.4,2.1-5.5,3.2-8.6,3.1
	c-3.7,0-6.6-1.1-8.7-3.2c-2.1-2.2-3.2-5.2-3-8.2c-0.1-3.2,1.1-6.3,3.4-8.5c2-2,4.8-3.2,7.7-3.1c3.1-0.2,6.1,1.1,8.1,3.5
	c1.7,2.2,2.6,4.9,2.5,7.7V1037.3z M1000,1032.9h9.3c-0.2-3.1-1.7-4.7-4.6-4.7S1000.2,1029.7,1000,1032.9L1000,1032.9z"/>
<path class="st0" d="M870,1065.9c2.7-0.5,5.5-0.7,8.3-0.6c5.5,0,9.6,1.6,12.5,4.8c2.5,2.7,3.7,6.3,3.7,10.7c0,5.5-1.6,9.6-4.7,12.3
	c-2.9,2.5-6.8,3.8-11.9,3.8c-2.7,0-5.3-0.2-7.9-0.6L870,1065.9z M876.3,1091.7c0.8,0.2,1.6,0.3,2.4,0.2c6.2,0,9.3-3.6,9.3-10.9
	c0-3.6-1-6.4-3.1-8.3c-1.7-1.6-4-2.4-6.3-2.3c-0.8,0-1.5,0.1-2.3,0.2L876.3,1091.7L876.3,1091.7z"/>
<path class="st0" d="M917.3,1096.3h-4.8l-0.5-2.1c-1.8,1.6-4,2.6-6.4,2.6c-4.8,0-7.2-2.4-7.2-7.1c-0.1-2.2,1.1-4.3,3-5.5
	c2.1-1.3,5.1-2,9.1-2h1v-0.1c0.1-1-0.2-2.1-0.9-2.8c-0.9-0.6-2-0.9-3.1-0.8c-2.1,0-4.2,0.7-5.8,2c-0.6-1-1.1-2.1-1.6-3.1
	c1.4-1.2,3-2.1,4.8-2.8c1.6-0.5,3.2-0.8,4.9-0.8c5.1,0,7.7,3.2,7.7,9.6L917.3,1096.3z M911.2,1086h-0.7c-1.5-0.1-3.1,0.3-4.4,1
	c-1,0.5-1.7,1.4-1.7,2.5c0,2,0.9,3,2.6,3c1,0,2-0.3,2.8-0.9s1.3-1.4,1.4-2.3L911.2,1086z"/>
<path class="st0" d="M929.6,1076.6c1.8-1.8,4.2-2.8,6.7-2.7c1.7,0,3.4,0.4,4.9,1.2c1.3,0.7,2.4,1.8,3,3.1c0.8-1.3,1.9-2.4,3.3-3.1
	c1.5-0.8,3.2-1.2,4.9-1.2c5.1,0,7.7,3.1,7.7,9.3v13.1H954v-11.4c0.1-1.6-0.2-3.1-0.9-4.5c-0.8-0.9-1.9-1.4-3.1-1.3
	c-2,0-3.9,0.9-5.1,2.5v14.8h-6v-12.1c0.1-1.4-0.2-2.8-1-4c-0.9-0.9-2.2-1.3-3.5-1.2c-0.9,0-1.8,0.1-2.7,0.4
	c-0.7,0.2-1.2,0.5-1.7,1.1v15.8h-6v-21.9h5.1L929.6,1076.6L929.6,1076.6z"/>
<path class="st0" d="M983.9,1096.3h-4.8l-0.5-2.1c-1.8,1.6-4,2.6-6.4,2.6c-4.8,0-7.3-2.4-7.2-7.1c-0.1-2.2,1.1-4.3,3-5.5
	c2-1.3,5.1-2,9.1-2h1v-0.1c0.1-1-0.2-2.1-0.9-2.8c-0.9-0.6-2-0.9-3.1-0.8c-2.1,0-4.2,0.7-5.8,2c-0.6-1-1.1-2.1-1.6-3.1
	c1.4-1.2,3-2.1,4.8-2.8c1.6-0.5,3.2-0.8,4.9-0.8c5.1,0,7.7,3.2,7.7,9.6L983.9,1096.3z M977.8,1086h-0.7c-1.5-0.1-3.1,0.3-4.4,1
	c-1,0.5-1.7,1.4-1.7,2.5c0,2,0.9,3,2.6,3c1,0,2-0.3,2.8-0.9s1.3-1.4,1.4-2.3L977.8,1086z"/>
<path class="st0" d="M1004.3,1093.6c-1.3,2.1-3.6,3.3-6.1,3.2c-2.9,0.1-5.7-1.1-7.4-3.4c-1.6-2.1-2.4-4.7-2.2-7.3
	c0-4.2,1.2-7.4,3.6-9.7c1.8-1.7,4.1-2.6,6.6-2.6c1.8-0.1,3.6,0.5,5.1,1.5c0.9,0.6,1.4,1.1,1.4,1.4l0.5-2.3h4.7v19.5
	c0,3.7-0.9,6.5-2.7,8.5s-4.3,2.9-7.7,2.9c-3.3,0.1-6.6-1.2-9-3.5l1.5-3.1c1.9,1.3,4.2,1.9,6.6,1.9
	C1002.5,1100.8,1004.3,1098.4,1004.3,1093.6z M1004.3,1081.9c-0.1-1-0.7-1.9-1.5-2.6s-1.8-1.1-2.8-1.1c-1.5,0-3,0.7-3.8,1.9
	c-1,1.5-1.5,3.3-1.4,5.2c0,4.8,1.6,7.2,4.7,7.2c1.3,0,2.5-0.5,3.4-1.5s1.5-2.2,1.4-3.6L1004.3,1081.9L1004.3,1081.9z"/>
<path class="st0" d="M1037,1087.3h-15c0.1,1.4,0.7,2.7,1.8,3.7c1,1,2.4,1.5,3.8,1.5c2.3-0.1,4.6-0.7,6.5-1.9l1.5,3.2
	c-2.4,2.1-5.5,3.2-8.6,3.1c-3.7,0-6.6-1.1-8.7-3.2s-3-4.7-3-8.2c-0.1-3.2,1.1-6.3,3.4-8.5c2-2,4.8-3.2,7.7-3.1
	c3.1-0.2,6.1,1.1,8.1,3.5c1.7,2.2,2.6,4.9,2.5,7.7V1087.3z M1021.7,1082.9h9.3c-0.2-3.1-1.7-4.7-4.6-4.7
	C1023.6,1078.2,1022.1,1079.7,1021.7,1082.9L1021.7,1082.9z"/>
<path class="st0" d="M656.1,1118.5H676v5h-13.6v7.2h11.3v5h-11.3v8.1h14.2v5h-20.5L656.1,1118.5z"/>
<path class="st0" d="M685.8,1127.1l0.6,1.9c0.4-0.8,1.1-1.4,1.8-1.8c0.9-0.5,1.8-0.7,2.8-0.7c2.8-0.1,5.3,1.5,6.4,4.1l-5.1,2.8
	c-0.8-1.1-2-1.7-3.4-1.8c-1.1,0-2,0.7-2.4,1.7v15.6h-6v-21.8L685.8,1127.1z"/>
<path class="st0" d="M719.6,1140h-15c0.2,2.9,2.7,5.2,5.6,5.1c2.3-0.1,4.5-0.7,6.5-1.9l1.5,3.2c-2.4,2.1-5.5,3.2-8.6,3.1
	c-3.7,0-6.6-1.1-8.7-3.2c-2-2-3-4.7-3-8.2c-0.1-3.2,1.1-6.2,3.4-8.5c2-2.1,4.8-3.2,7.7-3.1c3.1-0.2,6.1,1.1,8.1,3.5
	c1.7,2.2,2.6,4.9,2.5,7.7V1140z M704.3,1135.5h9.3c-0.2-3.1-1.7-4.7-4.6-4.7C706.2,1130.8,704.6,1132.4,704.3,1135.5L704.3,1135.5z"
	/>
<path class="st0" d="M743,1146.1c-2.1,2.2-5,3.4-8.1,3.4c-3.3,0.2-6.5-1.1-8.8-3.6c-4.1-4.9-3.7-12,0.8-16.5c2.1-1.9,4.9-3,7.7-2.9
	c3-0.1,6,1,8.1,3.2l-1.8,3.3c-1.4-1.4-3.3-2.1-5.3-2.2c-1.7,0-3.4,0.7-4.4,2.1c-1.2,1.5-1.8,3.4-1.7,5.3c-0.1,1.8,0.5,3.6,1.7,5
	c1.1,1.3,2.7,2,4.3,1.9c2.1,0,4-0.8,5.4-2.3L743,1146.1z"/>
<path class="st0" d="M761.2,1132H755v10.8c0,1.6,0.5,2.4,1.6,2.4c1.3-0.1,2.5-0.5,3.6-1.2l2,3.1c-2.1,1.7-4.8,2.7-7.5,2.7
	c-3.8,0-5.8-2.1-5.8-6.3v-11.4h-3v-4.8h3.1v-3.9c1.6-0.9,3.6-1.9,6.1-3.2v7.1h6.2L761.2,1132z"/>
<path class="st0" d="M765.7,1121.5c0-1,0.4-2,1.1-2.7c0.7-0.7,1.6-1.1,2.6-1.1s2,0.4,2.7,1.1s1.1,1.7,1.1,2.7s-0.4,2-1.1,2.7
	c-0.7,0.7-1.7,1.1-2.8,1.1c-1,0-1.9-0.4-2.6-1.1C766,1123.5,765.6,1122.5,765.7,1121.5z M772.5,1127.1v21.8h-6.1v-21.8H772.5z"/>
<path class="st0" d="M784.8,1117.9v31h-6v-27.8L784.8,1117.9z"/>
<path class="st0" d="M811.5,1140h-15c0.2,2.9,2.7,5.2,5.6,5.1c2.3-0.1,4.5-0.7,6.5-1.9l1.5,3.2c-2.4,2.1-5.5,3.2-8.6,3.1
	c-3.7,0-6.6-1.1-8.7-3.2c-2-2-3-4.7-3-8.2c-0.1-3.2,1.1-6.2,3.4-8.5c2-2.1,4.8-3.2,7.7-3.1c3.1-0.2,6.1,1.1,8.1,3.5
	c1.7,2.2,2.6,4.9,2.5,7.7V1140z M796.1,1135.5h9.3c-0.2-3.1-1.7-4.7-4.6-4.7S796.4,1132.4,796.1,1135.5L796.1,1135.5z"/>
<path class="st0" d="M611.3,1168.6c2.7-0.5,5.5-0.7,8.3-0.6c5.5,0,9.7,1.6,12.5,4.8c2.5,2.7,3.7,6.3,3.7,10.7
	c0,5.5-1.6,9.6-4.7,12.3c-2.9,2.5-6.8,3.7-11.9,3.7c-2.7,0-5.3-0.2-7.9-0.6L611.3,1168.6L611.3,1168.6z M617.6,1194.3
	c0.8,0.2,1.6,0.3,2.4,0.2c6.2,0,9.3-3.7,9.3-11c0-3.6-1-6.4-3.1-8.3c-1.7-1.6-4-2.4-6.3-2.3c-0.8,0-1.5,0.1-2.3,0.2L617.6,1194.3
	L617.6,1194.3z"/>
<path class="st0" d="M661,1177.1c-1.3,3.6-3,8.4-5.3,14.4c-1.6,4.5-2.9,8-3.8,10.5c-1.5,4-3.6,6-6.3,6c-2.4-0.1-4.7-1.1-6.5-2.7
	c0.6-1.1,1.2-2,1.6-2.9c0.9,0.7,2,1.1,3.1,1.2c1.3,0,2.5-1.6,3.5-4.7h-1.2l-7.6-21.8h6c0.4,1.1,0.9,2.7,1.6,5l0.3,0.8
	c1.4,4.2,2.4,7.2,3,9.2l5.6-14.9L661,1177.1z"/>
<path class="st0" d="M677.7,1182.4c-1.6-1-3.5-1.6-5.4-1.5c-1.5,0-2.3,0.7-2.3,2s1,2.1,3.1,2.6c1.9,0.3,3.7,1.1,5.3,2.2
	c1.4,1.3,2.1,3.2,2,5.2c0.1,1.9-0.7,3.7-2.2,4.9c-1.7,1.3-3.8,1.9-5.9,1.8c-3.2,0.1-6.3-1-8.8-3l2.2-3.4c1.7,1.3,3.8,2.1,6,2
	c0.8,0,1.6-0.2,2.2-0.7c0.6-0.4,0.9-1.1,0.9-1.8c0-1.3-1.1-2.2-3.4-2.6c-4.9-0.9-7.3-3.3-7.3-7.1c0-1.8,0.8-3.5,2.2-4.6
	c1.6-1.3,3.6-1.9,5.6-1.8c2.9-0.1,5.7,0.9,7.9,2.6L677.7,1182.4z"/>
<path class="st0" d="M683.8,1182v-4.9h3.4v-2.9c0-4.2,2-6.3,5.9-6.3c2.6,0,5.1,0.9,7.2,2.6l-2.2,3.2c-0.9-0.7-2.1-1.1-3.3-1.2
	c-1,0-1.5,0.8-1.5,2.4v2.2h6v4.9h-6v16.9h-6V1182L683.8,1182L683.8,1182z"/>
<path class="st0" d="M718.2,1196.4c-1.6,2-4,3.2-6.6,3.1c-2.7,0-4.7-0.7-5.9-2.1s-1.8-3.8-1.8-7.2v-13.1h6v11.5
	c-0.1,1.6,0.2,3.2,0.9,4.6c0.7,0.9,1.8,1.4,3,1.3c0.7,0,1.4-0.2,2.1-0.5c0.6-0.2,1.1-0.5,1.4-1v-15.9h6v21.8h-4.5L718.2,1196.4
	L718.2,1196.4z"/>
<path class="st0" d="M735.6,1179.2c0.8-0.8,1.8-1.5,2.9-1.9c1.2-0.5,2.4-0.8,3.7-0.8c2.8,0,4.8,0.8,6,2.2c1.2,1.5,1.9,3.9,1.8,7.3
	v12.8h-6.1v-12.6c0-3.1-1.4-4.7-4.2-4.7c-0.8,0-1.5,0.2-2.2,0.5c-0.6,0.2-1.2,0.5-1.6,1v15.8h-6V1177h5.1
	C735.2,1177.8,735.3,1178.5,735.6,1179.2L735.6,1179.2z"/>
<path class="st0" d="M774.6,1196.1c-2.1,2.2-5,3.4-8.1,3.4c-3.3,0.2-6.6-1.1-8.8-3.6c-4.1-4.9-3.7-12,0.8-16.5
	c2.1-1.9,4.9-3,7.7-2.9c3-0.1,6,1,8.1,3.2l-1.8,3.3c-1.4-1.4-3.3-2.1-5.3-2.2c-1.7,0-3.4,0.7-4.4,2.1c-1.2,1.5-1.8,3.4-1.7,5.3
	c-0.1,1.8,0.5,3.6,1.7,5c1.1,1.3,2.7,2,4.3,1.9c2.1,0,4-0.8,5.4-2.3L774.6,1196.1z"/>
<path class="st0" d="M792.8,1182h-6.2v10.8c0,1.6,0.5,2.4,1.6,2.4c1.3-0.1,2.5-0.5,3.6-1.2l2,3.1c-2.1,1.7-4.8,2.7-7.5,2.7
	c-3.8,0-5.8-2.1-5.8-6.3v-11.4h-3v-4.8h3.1v-3.9c1.6-0.9,3.6-1.9,6.1-3.2v7.1h6.2L792.8,1182z"/>
<path class="st0" d="M797.3,1171.5c0-1,0.4-2,1.1-2.7c0.7-0.7,1.6-1.1,2.6-1.1s2,0.4,2.7,1.1s1.1,1.7,1.1,2.7s-0.4,2-1.1,2.7
	c-0.7,0.7-1.7,1.1-2.8,1.1c-1,0-1.9-0.4-2.6-1.1C797.6,1173.5,797.2,1172.6,797.3,1171.5z M804.1,1177.1v21.8H798v-21.8H804.1z"/>
<path class="st0" d="M819.8,1176.5c3.2-0.2,6.3,1.2,8.3,3.8c1.7,2.2,2.6,4.9,2.5,7.7c0.1,3.3-1.2,6.5-3.7,8.6
	c-4.4,4-11.1,3.6-15.1-0.7c0,0,0,0-0.1-0.1c-1.9-2.2-3-5-2.9-7.9c-0.1-3.2,1-6.3,3.2-8.6C814.1,1177.5,816.9,1176.4,819.8,1176.5z
	 M819.8,1195c3.1,0,4.7-2.3,4.7-6.9c0-4.8-1.6-7.2-4.7-7.2c-3.1,0-4.7,2.4-4.7,7.2C815.1,1192.7,816.6,1195,819.8,1195z"/>
<path class="st0" d="M841.5,1179.2c0.8-0.8,1.8-1.5,2.9-1.9c1.2-0.5,2.4-0.8,3.7-0.8c2.8,0,4.8,0.8,6,2.2c1.2,1.5,1.9,3.9,1.8,7.3
	v12.8h-6.1v-12.6c0-3.1-1.4-4.7-4.2-4.7c-0.8,0-1.5,0.2-2.3,0.5c-0.6,0.2-1.2,0.5-1.6,1v15.8h-6V1177h5.1c0.2,0.8,0.3,1.5,0.5,2.1
	L841.5,1179.2z"/>
<path class="st0" d="M1059.6,905.9v-30.4h19.9v5h-13.6v7.2h11.3v5h-11.3v13.1L1059.6,905.9z"/>
<path class="st0" d="M1091,883.6c3.2-0.2,6.3,1.2,8.3,3.8c1.7,2.2,2.6,4.9,2.5,7.7c0.1,3.3-1.2,6.5-3.7,8.6
	c-4.4,4-11.1,3.6-15.1-0.7c0,0,0,0-0.1-0.1c-1.9-2.2-3-5-2.9-7.9c-0.1-3.2,1-6.3,3.2-8.6C1085.4,884.5,1088.1,883.4,1091,883.6z
	 M1091,902c3.1,0,4.7-2.3,4.7-6.9c0-4.8-1.6-7.2-4.7-7.2s-4.7,2.4-4.7,7.2C1086.3,899.7,1087.9,902,1091,902z"/>
<path class="st0" d="M1116.3,883.6c3.2-0.2,6.3,1.2,8.3,3.8c1.7,2.2,2.6,4.9,2.5,7.7c0.1,3.3-1.2,6.5-3.7,8.6
	c-4.4,4-11.1,3.6-15.1-0.7c0,0,0,0-0.1-0.1c-1.9-2.2-3-5-2.9-7.9c-0.1-3.2,1-6.3,3.2-8.6C1110.7,884.5,1113.5,883.4,1116.3,883.6z
	 M1116.3,902c3.1,0,4.7-2.3,4.7-6.9c0-4.8-1.6-7.2-4.7-7.2s-4.7,2.4-4.7,7.2C1111.6,899.7,1113.2,902,1116.3,902z"/>
<path class="st0" d="M1145.9,889h-6.3v10.8c0,1.6,0.5,2.4,1.6,2.4c1.3-0.1,2.5-0.5,3.6-1.2l2,3.1c-2.1,1.7-4.8,2.7-7.5,2.7
	c-3.8,0-5.8-2.1-5.8-6.3v-11.4h-3v-4.8h3.1v-3.9c1.6-0.9,3.6-1.9,6.1-3.2v7.1h6.2L1145.9,889z"/>
<path class="st0" d="M1007.2,963.5v-30.3c0.5-0.1,1.7-0.2,3.8-0.4s3.7-0.2,4.8-0.2c7.7,0,11.6,3.2,11.6,9.5c0,3.9-1.3,6.8-4,8.6
	c-1.9,1.3-4.1,1.9-6.3,1.9c-1.2,0.1-2.4,0-3.5-0.4v11.3H1007.2z M1013.5,937.9v9.2c1,0.3,2.1,0.5,3.1,0.5c1.2,0,2.3-0.5,3-1.4
	c0.8-1.1,1.2-2.4,1.1-3.8c0-3.2-1.4-4.8-4.3-4.8C1015.4,937.5,1014.4,937.6,1013.5,937.9z"/>
<path class="st0" d="M1037.7,941.7l0.6,1.9c0.4-0.8,1.1-1.4,1.8-1.8c0.9-0.5,1.8-0.7,2.8-0.7c2.8-0.1,5.3,1.5,6.4,4.1l-5.1,2.8
	c-0.8-1.1-2-1.7-3.4-1.8c-1.1,0-2,0.7-2.4,1.7v15.6h-5.9v-21.8L1037.7,941.7z"/>
<path class="st0" d="M1060.8,941.2c3.2-0.2,6.3,1.2,8.3,3.8c1.7,2.2,2.6,4.9,2.5,7.7c0.1,3.3-1.2,6.5-3.7,8.6
	c-4.4,4-11.1,3.6-15.1-0.7c0,0,0,0-0.1-0.1c-1.9-2.2-3-5-2.9-7.9c-0.1-3.2,1-6.3,3.2-8.6C1055.1,942.1,1057.9,941,1060.8,941.2z
	 M1060.8,959.6c3.1,0,4.7-2.3,4.7-6.9c0-4.8-1.6-7.2-4.7-7.2s-4.7,2.4-4.7,7.2C1056.1,957.3,1057.6,959.6,1060.8,959.6z"/>
<path class="st0" d="M1081.5,963.5h-4.9v-27.6l6-3.4v11.6c0.7-1,1.7-1.9,2.8-2.4c1-0.5,2.1-0.7,3.2-0.7c2.9-0.1,5.7,1.1,7.6,3.3
	c1.7,2.2,2.5,5,2.4,7.8c0,4.2-1.2,7.3-3.6,9.4c-1.9,1.7-4.3,2.5-6.9,2.4c-2.4,0.1-4.7-0.9-6.2-2.7L1081.5,963.5z M1082.7,950.5v5.2
	c0.1,1.2,0.6,2.2,1.5,3c0.8,0.8,2,1.2,3.1,1.2c1.5,0,2.8-0.7,3.7-1.9c1-1.6,1.4-3.4,1.3-5.3c0.1-1.8-0.3-3.6-1.2-5.2
	c-0.7-1.2-2-2-3.4-1.9c-1.3,0-2.5,0.5-3.4,1.4C1083.1,947.9,1082.6,949.2,1082.7,950.5L1082.7,950.5z"/>
<path class="st0" d="M1109.7,932.6v31h-6v-27.8L1109.7,932.6z"/>
<path class="st0" d="M1136.4,954.6h-15c0.1,1.4,0.7,2.7,1.8,3.7c1,1,2.4,1.5,3.8,1.5c2.3-0.1,4.6-0.7,6.5-1.9l1.5,3.2
	c-2.4,2.1-5.5,3.2-8.6,3.1c-3.7,0-6.6-1.1-8.7-3.2c-2-2-3-4.7-3-8.2c-0.1-3.2,1.1-6.2,3.4-8.5c2-2,4.8-3.2,7.7-3.1
	c3.1-0.2,6.1,1.1,8.1,3.5c1.7,2.2,2.6,4.9,2.5,7.7L1136.4,954.6z M1121,950.1h9.3c-0.2-3.1-1.7-4.7-4.6-4.7S1121.3,947,1121,950.1
	L1121,950.1z"/>
<path class="st0" d="M1147.3,943.8c1.8-1.8,4.2-2.8,6.7-2.7c1.7,0,3.4,0.4,4.9,1.2c1.3,0.7,2.4,1.8,3,3.2c0.8-1.3,1.9-2.4,3.3-3.1
	c1.5-0.8,3.2-1.2,4.9-1.2c5.1,0,7.7,3.1,7.7,9.3v13h-6.1v-11.4c0.1-1.6-0.2-3.1-0.9-4.5c-0.8-0.9-1.9-1.4-3.2-1.3
	c-2,0-3.9,0.9-5.1,2.5v14.8h-6v-12.1c0.1-1.4-0.2-2.8-1-4c-0.9-0.9-2.2-1.3-3.5-1.2c-0.9,0-1.8,0.1-2.7,0.4
	c-0.7,0.2-1.2,0.5-1.7,1.1v15.8h-6.1v-21.8h5.1l0.4,2.1L1147.3,943.8z"/>
<path class="st0" d="M1196.7,947c-1.6-1-3.5-1.6-5.4-1.5c-1.5,0-2.3,0.7-2.3,2s1,2.1,3.1,2.6c1.9,0.3,3.7,1.1,5.3,2.2
	c1.4,1.3,2.1,3.2,2,5.2c0.1,1.9-0.7,3.7-2.2,4.9c-1.7,1.3-3.8,1.9-5.9,1.8c-3.2,0.1-6.3-1-8.8-3l2.2-3.4c1.7,1.3,3.8,2,6,2
	c0.8,0,1.6-0.2,2.3-0.7c0.6-0.4,0.9-1.1,0.9-1.8c0-1.3-1.1-2.2-3.4-2.6c-4.9-0.9-7.3-3.3-7.3-7.1c0-1.8,0.8-3.5,2.2-4.6
	c1.6-1.3,3.6-1.9,5.6-1.8c2.9-0.1,5.7,0.9,7.9,2.6L1196.7,947z"/>
<path class="st1" d="M634.6,780.7c30-85,14.7-173.2-40.1-224.8c-32-30.1-69.5-40.4-92.4-44.2"/>
<path class="st1" d="M517.5,854c-80.1-46.7-170.3-73.2-262.9-77.3"/>
<path class="st1" d="M572,815.3c-40.6-48.2-88.4-89.8-141.7-123.4c-29.3-18.5-60.2-34.4-92.3-47.6"/>
<path class="st1" d="M568.4,911.6c12.7,30.8,18.6,64,17.3,97.3c-2.9,67.2-35,114.1-48.7,131.8"/>
<path class="st1" d="M653,841c54,76.5,127.8,136.8,213.6,174.4"/>
<path class="st1" d="M712.5,831c81.2,52.3,175.3,81.3,271.8,83.8"/>
<image style="overflow:visible;enable-background:new    ;" width="496" height="370" xlink:href="19DB6F33.png"  transform="matrix(0.9973 0 0 0.9973 411.6703 653.3579)">
</image>
<path class="st2" d="M492.5,841l-34.9-27.3l5.6-7.2l29.1,22.8l10.2-13.1l5.8,4.5L492.5,841z"/>
<path class="st2" d="M499.2,769.4c5.3-4.2,11.1-5.3,17.4-3.3c5.2,1.8,9.7,5.1,12.9,9.4c4.3,5.4,6.2,11,5.8,16.6
	c-0.4,5.3-3,9.8-7.7,13.5c-5.4,4.3-11.1,5.5-17.1,3.8c-4.7-1.3-8.9-4.4-12.6-9.1c-4.3-5.5-6.4-11.2-6.1-17
	C492,777.8,494.4,773.1,499.2,769.4z M522.8,799.6c2.5-1.8,3.9-4.7,3.8-7.8c-0.1-3.1-1.7-6.6-4.6-10.3c-3.1-4-6.4-6.5-9.7-7.5
	c-5-1.4-10.2,1.6-11.5,6.6c-0.3,1-0.4,2.1-0.3,3.1c0.2,3.3,1.9,6.9,4.9,10.8C511.5,802.2,517.3,803.9,522.8,799.6z"/>
<path class="st2" d="M547.1,756.9l12.8,26.8l-8.1,3.9l-19.1-40l6.9-3.3c10.9,5.5,22,11.5,33.3,18l-13.2-27.6l8.3-4l19.1,40l-7.1,3.4
	C573.8,771.3,562.8,765.6,547.1,756.9z"/>
<path class="st2" d="M630.3,753c-3.8,4.1-8.5,7.3-13.8,9.1c-6.7,2.1-12.5,1-17.5-3.2c-3.9-3.4-6.7-7.9-8.1-12.9
	c-2-6.5-1.8-12.4,0.6-17.8c2.1-5,6.4-8.7,11.6-10.2c5-1.6,10.4-1.1,15,1.3l-1.7,6.6c-3.9-1.3-7.4-1.5-10.4-0.6s-5.1,3.1-6.2,6.5
	c-1.1,3.8-1,7.8,0.3,11.6c1.4,4.5,3.8,7.8,7.2,9.6c2.6,1.6,5.8,1.9,8.7,1c1.8-0.5,3.4-1.4,4.9-2.5l-2.7-8.8l-7.5,2.3l-2.4-7.6
	l15.8-4.9L630.3,753z"/>
<path class="st2" d="M664,712.1l-12.7,2.1l-1.2-7.2l35.4-5.8l1.2,7.2l-13.6,2.2l5.9,36.5l-9.1,1.5L664,712.1z"/>
<path class="st2" d="M697.6,699.8l28.8-2.5l0.6,7.3l-19.7,1.7l0.9,10.4l16.5-1.4l0.6,7.3l-16.5,1.4l1,11.8l20.6-1.8l0.6,7.3
	l-29.8,2.6L697.6,699.8z"/>
<path class="st2" d="M741.3,741l-0.7-44.2c0.7-0.2,2.5-0.4,5.5-0.7s5.3-0.4,6.9-0.5c11.3-0.2,17,4.3,17.2,13.6
	c0.1,5-2.1,9.7-5.9,12.8c1.7,3.8,4.7,10,8.9,18.4l-9.2,0.1c-2.4-4.9-4.9-10.3-7.7-16c-0.7,0.1-1.4,0.2-2.1,0.2c-1.4,0.1-2.7,0-4-0.5
	l0.3,16.5L741.3,741z M749.9,703.5l0.2,13.4c1.5,0.4,3,0.6,4.6,0.6c4-0.1,6-2.8,5.9-8.1c-0.1-4.3-2.2-6.5-6.3-6.4
	C751.8,703,750.4,703.2,749.9,703.5z"/>
<path class="st2" d="M805.5,732.2c3.5-9.3,8.1-20.2,13.7-32.7l13.2,1.3l-4.2,44.1L819,744l3.4-35.8c-3.1,9.2-7.8,20.8-14.2,34.8
	l-7.6-0.7c-3.7-16.4-6.1-28.6-7.3-36.5l-3.4,35.5l-9-0.9l4.2-44.1l12.7,1.2C801.1,709.8,803.7,721.3,805.5,732.2z"/>
<path class="st1" d="M529.5,952c-4.9,18.4-12.7,36-23,52c-53.4,82.4-157.8,92.8-178.2,94.4"/>
<path class="st1" d="M506.5,908c-28.1,7.3-58.7,14-91.9,19.3c-45.7,7.4-91.8,11.6-138.1,12.6"/>
<path class="st1" d="M617.1,874c54,64.1,91.3,140.7,108.3,222.9"/>
<image style="overflow:visible;enable-background:new    ;" width="449" height="293" xlink:href="19DB6F34.png"  transform="matrix(0.9966 0 0 0.9966 447.7662 38.3179)">
</image>
<path class="st0" d="M485.4,265.3c1.3,2.6,16.9,33,41.8,34.5c21.4,1.3,34.5-19.6,67.9-53.9c30.4-31.2,48.2-49.5,71.6-63.8
	c57.3-34.9,96.6-13.9,167.2-57.2c29.7-18.2,31.7-27.4,30.8-32c-2.9-16-46.5-20.3-62.1-21.9c-91.5-9.2-272.7,11.8-314.8,116.2
	C483.6,197.5,469.3,233,485.4,265.3z"/>
<path class="st1" d="M753.9,109.1c40.5,12.6,122.1,31.1,214.9,3.5c26.9-8,52.7-19.3,76.9-33.5"/>
<path class="st0" d="M920.6,42.2h-6.2V11.8h6.2V24h13.1V11.8h6.3v30.4h-6.3V29h-13.1V42.2z"/>
<path class="st0" d="M967,20.4c-1.3,3.6-3,8.4-5.3,14.5c-1.6,4.5-2.9,8-3.8,10.5c-1.5,4-3.6,6-6.3,6c-2.4-0.1-4.7-1.1-6.5-2.7
	c0.6-1.1,1.2-2,1.6-2.9c0.9,0.7,2,1.1,3.1,1.2c1.3,0,2.5-1.6,3.5-4.7h-1.2l-7.6-21.8h6l1.6,4.9l0.3,0.8c1.4,4.2,2.4,7.2,3,9.2
	l5.6-14.9L967,20.4z"/>
<path class="st0" d="M975.5,20.4l0.6,2.1c1.3-1.8,3.5-2.7,5.7-2.6c3.1-0.1,6,1.1,8,3.5c1.7,2.2,2.6,4.8,2.5,7.6c0,4-1.2,7.1-3.7,9.3
	c-1.9,1.7-4.5,2.7-7.1,2.6c-0.9,0-1.8-0.2-2.6-0.5c-0.8-0.2-1.4-0.6-2-1.2v9.7h-6V20.6h4.6V20.4z M976.9,28.9v5.6
	c0,1.1,0.4,2.1,1.2,2.9c0.7,0.8,1.7,1.2,2.8,1.2c1.5,0,2.8-0.8,3.6-2.1c1-1.5,1.5-3.3,1.4-5.1c0.1-1.8-0.3-3.6-1.3-5.2
	c-1.1-1.9-3.5-2.5-5.4-1.4c-0.4,0.2-0.8,0.5-1.1,0.9C977.4,26.5,976.9,27.7,976.9,28.9L976.9,28.9z"/>
<path class="st0" d="M1017.5,33.3h-15c0.2,2.9,2.7,5.2,5.6,5.1c2.3-0.1,4.5-0.7,6.5-1.9l1.5,3.2c-2.4,2.1-5.5,3.2-8.6,3.1
	c-3.7,0-6.6-1.1-8.7-3.2c-2-2-3-4.7-3-8.2c-0.1-3.2,1.1-6.2,3.4-8.5c2-2.1,4.8-3.2,7.7-3.1c3.1-0.2,6.1,1.1,8.1,3.5
	c1.7,2.2,2.6,4.9,2.5,7.7V33.3z M1002.2,28.8h9.3c-0.2-3.1-1.7-4.7-4.6-4.7S1002.5,25.7,1002.2,28.8z"/>
<path class="st0" d="M1027.7,20.4l0.6,1.9c0.4-0.8,1.1-1.4,1.8-1.8c0.9-0.5,1.8-0.7,2.8-0.8c2.8-0.1,5.3,1.5,6.4,4.1l-5.1,2.8
	c-0.8-1.1-2-1.8-3.4-1.8c-1.1,0-2,0.7-2.4,1.7v15.7h-6V20.4L1027.7,20.4L1027.7,20.4z"/>
<path class="st0" d="M1055.4,39.6c-1.3,2.1-3.6,3.3-6.1,3.2c-2.9,0.1-5.7-1.1-7.4-3.4c-1.6-2.1-2.4-4.7-2.3-7.3
	c0-4.2,1.2-7.4,3.7-9.7c1.8-1.7,4.1-2.6,6.6-2.5c1.8-0.1,3.6,0.5,5.1,1.5c0.9,0.6,1.4,1.1,1.4,1.4l0.5-2.3h4.7V40
	c0,3.7-0.9,6.5-2.7,8.5c-1.8,2-4.4,3-7.7,2.9c-3.3,0.1-6.6-1.2-9-3.5l1.5-3.1c2,1.3,4.2,1.9,6.6,1.9
	C1053.7,46.8,1055.4,44.4,1055.4,39.6z M1055.4,27.8c-0.1-1-0.7-1.9-1.5-2.6c-0.8-0.7-1.8-1.1-2.8-1.1c-1.5,0-3,0.7-3.8,1.9
	c-1,1.5-1.5,3.3-1.4,5.2c0,4.8,1.6,7.2,4.7,7.1c1.3,0,2.5-0.5,3.4-1.5s1.5-2.2,1.4-3.6L1055.4,27.8L1055.4,27.8z"/>
<path class="st0" d="M1074.1,11.3v31h-6V14.4L1074.1,11.3z"/>
<path class="st0" d="M1100.6,20.4c-1.3,3.6-3,8.4-5.3,14.5c-1.6,4.5-2.9,8-3.8,10.5c-1.5,4-3.6,6-6.3,6c-2.4-0.1-4.7-1.1-6.5-2.7
	c0.6-1.1,1.2-2,1.6-2.9c0.9,0.7,2,1.1,3.1,1.2c1.3,0,2.5-1.6,3.5-4.7h-1.2l-7.6-21.8h6l1.6,4.9l0.3,0.8c1.4,4.2,2.4,7.2,3,9.2
	l5.6-14.9L1100.6,20.4z"/>
<path class="st0" d="M1122.4,39.4c-2.1,2.2-5,3.4-8.1,3.4c-3.3,0.2-6.5-1.1-8.8-3.6c-1.9-2.1-2.9-5-2.8-7.8
	c-0.1-3.3,1.2-6.4,3.7-8.6c2.1-1.9,4.9-3,7.7-2.9c3-0.1,6,1,8.1,3.2l-1.8,3.3c-1.4-1.4-3.3-2.1-5.3-2.2c-1.7,0-3.4,0.7-4.4,2.1
	c-1.2,1.5-1.8,3.4-1.7,5.4c-0.1,1.8,0.5,3.6,1.7,5c1.1,1.3,2.7,2,4.3,2c2.1,0,4-0.8,5.4-2.3L1122.4,39.4z"/>
<path class="st0" d="M1147.2,33.3h-15c0.1,1.4,0.7,2.7,1.8,3.7c1,1,2.4,1.5,3.8,1.5c2.3-0.1,4.6-0.7,6.5-1.9l1.5,3.2
	c-2.4,2.1-5.5,3.2-8.6,3.1c-3.7,0-6.6-1.1-8.7-3.2c-2-2-3-4.7-3-8.2c-0.1-3.2,1.1-6.2,3.4-8.5c2-2.1,4.8-3.2,7.7-3.1
	c3.1-0.2,6.1,1.1,8.1,3.5c1.7,2.2,2.6,4.9,2.5,7.7L1147.2,33.3z M1131.9,28.8h9.3c-0.2-3.1-1.7-4.7-4.6-4.7S1132.2,25.7,1131.9,28.8
	z"/>
<path class="st0" d="M1158.1,22.5c1.8-1.8,4.2-2.8,6.7-2.7c1.7,0,3.4,0.4,4.9,1.2c1.3,0.7,2.4,1.8,3,3.1c0.8-1.3,1.9-2.4,3.3-3.1
	c1.5-0.8,3.2-1.2,4.9-1.2c5.1,0,7.7,3.1,7.7,9.3v13.1h-6.1V30.8c0-2.2-0.3-3.7-0.9-4.5c-0.8-0.9-1.9-1.4-3.1-1.3
	c-2,0-3.9,0.9-5.1,2.5v14.8h-6V30.2c0.1-1.4-0.2-2.8-1-4c-0.9-0.9-2.2-1.3-3.5-1.2c-0.9,0-1.8,0.1-2.7,0.4c-0.7,0.2-1.2,0.5-1.7,1.1
	v15.8h-6V20.5h5.1l0.4,2.1h0.1V22.5z"/>
<path class="st0" d="M1193.8,14.9c0-1,0.4-2,1.1-2.7s1.6-1.1,2.6-1.1s2,0.4,2.7,1.1s1.1,1.7,1.1,2.7s-0.4,2-1.1,2.7s-1.7,1-2.8,1
	c-1,0-1.9-0.4-2.6-1.1C1194.2,16.8,1193.8,15.8,1193.8,14.9z M1200.6,20.4v21.8h-6.1V20.4H1200.6z"/>
<path class="st0" d="M1224.4,42.2h-4.8l-0.5-2.1c-1.8,1.6-4,2.6-6.4,2.6c-4.8,0-7.2-2.4-7.2-7.1c-0.1-2.2,1.1-4.3,3-5.5
	c2.1-1.3,5.1-2,9.1-2h1V28c0.1-1-0.2-2-0.9-2.8c-0.9-0.6-2-0.9-3.1-0.8c-2.1,0-4.2,0.7-5.8,2c-0.6-1.1-1.1-2.1-1.6-3.1
	c1.4-1.2,3.1-2.1,4.8-2.9c1.6-0.5,3.2-0.8,4.9-0.8c5.1,0,7.7,3.2,7.7,9.6v13H1224.4z M1218.3,31.9h-0.7c-1.5-0.1-3.1,0.3-4.4,1
	c-1,0.5-1.7,1.4-1.7,2.5c0,2,0.9,3,2.6,3c1,0,2-0.3,2.8-0.9c0.8-0.6,1.3-1.4,1.4-2.3L1218.3,31.9z"/>
<path class="st0" d="M56.8,147.4h-6.2V117h6.2v12.2h13V117h6.3v30.4h-6.3v-13.1h-13V147.4z"/>
<path class="st0" d="M103.2,125.6c-1.3,3.6-3,8.4-5.3,14.4c-1.6,4.5-2.9,8-3.8,10.5c-1.5,4-3.6,6-6.3,6c-2.4-0.1-4.7-1.1-6.5-2.7
	c0.6-1.1,1.2-2.1,1.6-2.9c0.9,0.7,2,1.1,3.1,1.1c1.3,0,2.5-1.6,3.5-4.7h-1.2l-7.6-21.8h6l1.6,5l0.3,0.8c1.4,4.2,2.4,7.2,3,9.2
	l5.6-14.9L103.2,125.6z"/>
<path class="st0" d="M111.7,125.6l0.6,2.1c1.3-1.8,3.5-2.7,5.7-2.6c3.1-0.2,6,1.1,8,3.4c1.7,2.2,2.6,4.8,2.4,7.6
	c0,4-1.2,7.1-3.6,9.3c-1.9,1.7-4.5,2.7-7.1,2.6c-0.9,0-1.8-0.2-2.6-0.5c-0.8-0.2-1.4-0.6-2-1.2v9.7h-6v-30.3L111.7,125.6
	L111.7,125.6z M113.1,134.1v5.6c0,1.1,0.4,2.1,1.2,2.9c0.7,0.8,1.7,1.2,2.8,1.2c1.5,0,2.8-0.8,3.6-2.1c1-1.5,1.5-3.3,1.4-5.1
	c0.1-1.8-0.3-3.6-1.3-5.2c-0.7-1.2-2-2-3.4-2c-1.2,0-2.3,0.5-3,1.4C113.6,131.7,113.1,132.9,113.1,134.1z"/>
<path class="st0" d="M142.9,125.1c3.2-0.2,6.3,1.2,8.4,3.8c1.7,2.2,2.6,4.9,2.5,7.7c0.1,3.3-1.2,6.5-3.7,8.6
	c-4.4,4-11.1,3.6-15.1-0.7c0,0,0,0-0.1-0.1c-1.9-2.2-3-5-2.9-7.9c-0.1-3.2,1-6.3,3.2-8.6C137.3,126,140.1,124.9,142.9,125.1z
	 M142.9,143.5c3.1,0,4.7-2.3,4.7-6.9c0-4.8-1.6-7.2-4.7-7.2s-4.7,2.4-4.6,7.2C138.3,141.2,139.8,143.5,142.9,143.5L142.9,143.5z"/>
<path class="st0" d="M172.7,144.8c-1.3,2.1-3.6,3.3-6.1,3.2c-2.9,0.1-5.7-1.1-7.4-3.4c-1.6-2.1-2.4-4.7-2.3-7.3
	c0-4.2,1.2-7.4,3.6-9.7c1.8-1.7,4.1-2.6,6.6-2.5c1.8-0.1,3.6,0.5,5.1,1.5c0.9,0.6,1.4,1.1,1.4,1.4l0.5-2.4h4.7v19.5
	c0,3.7-0.9,6.5-2.7,8.5s-4.4,2.9-7.7,2.9c-3.3,0.1-6.6-1.2-9-3.5l1.5-3.1c2,1.3,4.2,1.9,6.6,1.9C171,152,172.7,149.6,172.7,144.8z
	 M172.7,133c-0.1-1-0.7-1.9-1.5-2.6c-0.8-0.7-1.8-1.1-2.8-1.1c-1.5,0-2.9,0.7-3.8,1.9c-1,1.5-1.5,3.3-1.4,5.2c0,4.8,1.6,7.2,4.7,7.1
	c1.3,0,2.5-0.5,3.4-1.5s1.5-2.2,1.4-3.6L172.7,133z"/>
<path class="st0" d="M191.4,116.5v31h-6v-27.8L191.4,116.5z"/>
<path class="st0" d="M217.9,125.6c-1.3,3.6-3,8.4-5.3,14.4c-1.6,4.5-2.9,8-3.8,10.5c-1.5,4-3.6,6-6.3,6c-2.4-0.1-4.7-1.1-6.5-2.7
	c0.6-1.1,1.2-2.1,1.6-2.9c0.9,0.7,2,1.1,3.1,1.1c1.3,0,2.5-1.6,3.5-4.7H203l-7.6-21.8h6l1.6,5l0.3,0.8c1.4,4.2,2.4,7.2,3,9.2
	l5.6-14.9L217.9,125.6z"/>
<path class="st0" d="M239.6,144.6c-2.1,2.2-5,3.4-8.1,3.4c-3.3,0.2-6.5-1.1-8.8-3.5c-4.1-4.9-3.7-12,0.8-16.5c2.1-2,4.9-3,7.7-2.9
	c3-0.1,6,1,8.1,3.2l-1.8,3.3c-1.4-1.4-3.3-2.1-5.3-2.2c-1.7,0-3.4,0.7-4.4,2.1c-1.2,1.5-1.8,3.4-1.7,5.4c-0.1,1.8,0.5,3.6,1.7,5
	c1.1,1.3,2.7,2,4.3,1.9c2.1,0,4-0.8,5.4-2.4L239.6,144.6z"/>
<path class="st0" d="M264.4,138.5h-15c0.2,2.9,2.7,5.2,5.6,5.1c2.3-0.1,4.6-0.7,6.5-1.9l1.5,3.2c-2.4,2.1-5.5,3.2-8.6,3.1
	c-3.7,0-6.6-1.1-8.7-3.2c-2-2-3-4.7-3-8.2c-0.1-3.2,1.1-6.3,3.4-8.5c2-2.1,4.8-3.2,7.7-3.1c3.1-0.2,6.1,1.1,8.1,3.5
	c1.7,2.2,2.6,4.9,2.5,7.7V138.5z M249.1,134h9.3c-0.2-3.1-1.7-4.7-4.6-4.7C251,129.3,249.4,130.9,249.1,134z"/>
<path class="st0" d="M275.3,127.7c1.8-1.8,4.2-2.8,6.7-2.7c1.7,0,3.4,0.4,4.9,1.2c1.3,0.7,2.4,1.8,3,3.1c0.8-1.3,1.9-2.4,3.3-3.1
	c1.5-0.8,3.2-1.2,4.9-1.2c5.1,0,7.7,3.1,7.7,9.3v13h-6.2v-11.4c0.1-1.6-0.2-3.1-0.9-4.5c-0.8-0.9-1.9-1.4-3.1-1.3
	c-2,0-3.9,0.9-5.1,2.5v14.8h-6v-12.1c0.1-1.4-0.2-2.8-1-4c-0.9-0.9-2.2-1.3-3.5-1.2c-0.9,0-1.8,0.1-2.7,0.4c-0.6,0.1-1.2,0.5-1.6,1
	v15.8h-6v-21.8h5.1l0.4,2.1h0.1V127.7z"/>
<path class="st0" d="M311.1,120.1c0-1,0.4-2,1.1-2.7s1.6-1.1,2.6-1.1s2,0.4,2.7,1.1c0.7,0.7,1.2,1.7,1.1,2.7c0,1-0.4,2-1.1,2.7
	s-1.7,1.1-2.8,1.1c-1,0-1.9-0.4-2.6-1.1C311.4,122.1,311,121.1,311.1,120.1z M317.9,125.6v21.8h-6.1v-21.8L317.9,125.6z"/>
<path class="st0" d="M341.7,147.4h-4.9l-0.5-2.1c-1.8,1.6-4,2.6-6.4,2.6c-4.8,0-7.2-2.4-7.2-7.1c-0.1-2.2,1.1-4.3,3-5.5
	c2-1.3,5.1-2,9.1-2h1v-0.1c0.1-1-0.2-2-0.9-2.8c-0.9-0.6-2-0.9-3.1-0.8c-2.1,0-4.2,0.7-5.8,2c-0.6-1.1-1.1-2.1-1.6-3.1
	c1.4-1.2,3.1-2.1,4.8-2.9c1.6-0.5,3.2-0.8,4.9-0.7c5.1,0,7.7,3.2,7.7,9.6L341.7,147.4z M335.6,137.2h-0.7c-1.5-0.1-3.1,0.3-4.4,1
	c-1,0.5-1.7,1.4-1.7,2.6c0,2,0.9,3,2.6,3c1,0,2-0.3,2.8-0.9c0.8-0.5,1.3-1.4,1.4-2.3L335.6,137.2L335.6,137.2z"/>
<path class="st0" d="M831.5,211.7c2.7-0.5,5.5-0.7,8.3-0.6c5.5,0,9.6,1.6,12.5,4.8c2.5,2.7,3.7,6.3,3.7,10.7c0,5.5-1.6,9.6-4.7,12.3
	c-2.9,2.5-6.8,3.8-11.9,3.8c-2.7,0-5.3-0.2-7.9-0.6L831.5,211.7L831.5,211.7z M837.8,237.4c0.8,0.2,1.6,0.3,2.4,0.2
	c6.2,0,9.3-3.6,9.3-10.9c0-3.6-1-6.4-3.1-8.3c-1.7-1.6-4-2.4-6.3-2.3c-0.8,0-1.5,0.1-2.3,0.2L837.8,237.4L837.8,237.4z"/>
<path class="st0" d="M860.3,214.6c0-1,0.4-2,1.1-2.7c0.7-0.7,1.6-1.1,2.6-1.1s2,0.4,2.7,1.1s1.1,1.7,1.1,2.7s-0.4,2-1.1,2.7
	c-0.7,0.7-1.7,1.1-2.8,1.1c-1,0-1.9-0.4-2.6-1.1C860.6,216.6,860.2,215.6,860.3,214.6z M867.1,220.2V242H861v-21.8H867.1z"/>
<path class="st0" d="M890.9,242H886l-0.5-2.1c-1.8,1.6-4,2.6-6.4,2.6c-4.8,0-7.2-2.4-7.2-7.1c-0.1-2.2,1.1-4.3,3-5.5
	c2.1-1.3,5.1-2,9.1-2h1v-0.1c0.1-1-0.2-2.1-0.9-2.8c-0.9-0.6-2-0.9-3.1-0.8c-2.1,0-4.1,0.7-5.8,2c-0.6-1-1.1-2.1-1.6-3.1
	c1.4-1.2,3.1-2.1,4.8-2.9c1.6-0.5,3.2-0.8,4.9-0.8c5.1,0,7.7,3.2,7.7,9.6L890.9,242z M884.8,231.7h-0.7c-1.5-0.1-3.1,0.3-4.4,1
	c-1,0.5-1.7,1.4-1.7,2.5c0,2,0.9,3,2.6,3c1,0,2-0.3,2.8-0.9s1.3-1.4,1.4-2.3L884.8,231.7z"/>
<path class="st0" d="M902.2,242h-4.9v-27.5l6-3.4v11.6c0.7-1.1,1.7-1.9,2.8-2.4c1-0.5,2.1-0.7,3.2-0.7c2.9-0.1,5.7,1.1,7.6,3.3
	c1.7,2.2,2.5,5,2.4,7.8c0,4.2-1.2,7.3-3.6,9.5c-1.9,1.7-4.3,2.5-6.9,2.5c-2.4,0.1-4.7-0.9-6.2-2.7L902.2,242z M903.4,228.9v5.2
	c0.1,1.2,0.6,2.2,1.5,3c0.8,0.8,1.9,1.2,3.1,1.2c1.5,0,2.8-0.7,3.7-1.9c1-1.6,1.4-3.4,1.3-5.3c0.1-1.8-0.3-3.6-1.2-5.2
	c-0.7-1.2-2-1.9-3.5-1.9c-1.3,0-2.5,0.5-3.4,1.4C903.9,226.4,903.3,227.6,903.4,228.9L903.4,228.9z"/>
<path class="st0" d="M944.5,233.1h-15c0.2,2.9,2.7,5.2,5.6,5.1c2.3-0.1,4.6-0.7,6.5-1.9l1.5,3.2c-2.4,2.1-5.5,3.2-8.6,3.1
	c-3.7,0-6.6-1.1-8.7-3.2c-2-2-3-4.7-3-8.2c-0.1-3.2,1.1-6.3,3.4-8.5c2-2,4.8-3.2,7.7-3.1c3.1-0.2,6.1,1.1,8.1,3.5
	c1.7,2.2,2.6,4.9,2.5,7.7V233.1z M929.2,228.6h9.3c-0.2-3.1-1.7-4.7-4.6-4.7S929.4,225.5,929.2,228.6L929.2,228.6z"/>
<path class="st0" d="M963.2,225.1H957v10.8c0,1.6,0.5,2.4,1.6,2.4c1.3-0.1,2.5-0.5,3.6-1.2l2,3.1c-2.1,1.7-4.8,2.7-7.5,2.7
	c-3.8,0-5.8-2.1-5.8-6.3v-11.4h-3v-4.9h3.1v-3.9c1.6-0.9,3.6-1.9,6.1-3.2v7.1h6.2L963.2,225.1z"/>
<path class="st0" d="M967.7,214.6c0-1,0.4-2,1.1-2.7c0.7-0.7,1.6-1.1,2.6-1.1s2,0.4,2.7,1.1s1.1,1.7,1.1,2.7s-0.4,2-1.1,2.7
	c-0.7,0.7-1.7,1.1-2.8,1.1c-1,0-1.9-0.4-2.6-1.1C968,216.6,967.6,215.6,967.7,214.6z M974.5,220.2V242h-6.1v-21.8H974.5z"/>
<path class="st0" d="M999,239.2c-2.1,2.2-5,3.4-8.1,3.4c-3.3,0.2-6.5-1.1-8.8-3.6c-4.1-4.9-3.7-12,0.8-16.5c2.1-1.9,4.9-3,7.7-2.9
	c3-0.1,6,1,8.1,3.2l-1.8,3.3c-1.4-1.4-3.3-2.1-5.3-2.2c-1.7,0-3.3,0.7-4.4,2.1c-1.2,1.5-1.8,3.4-1.7,5.4c-0.1,1.8,0.5,3.6,1.7,5
	c1.1,1.3,2.7,2,4.3,2c2.1,0,4-0.8,5.4-2.4L999,239.2z"/>
<path class="st0" d="M793.4,261.6v12.5c4.2-5.7,7.3-9.9,9.2-12.5h7.7c-3.3,4.3-6.9,9.1-10.9,14.3c4.2,5,8.6,10.4,13.2,16.1h-8.3
	c-3-3.9-6.5-8.7-10.7-14.2h-0.1V292h-6v-30.4H793.4z"/>
<path class="st0" d="M834.2,283.1h-15c0.1,1.4,0.7,2.7,1.8,3.7c1,1,2.4,1.5,3.8,1.5c2.3-0.1,4.6-0.7,6.5-1.9l1.5,3.2
	c-2.4,2.1-5.5,3.2-8.6,3.1c-3.7,0-6.6-1.1-8.7-3.2c-2-2-3-4.7-3-8.2c-0.1-3.2,1.1-6.3,3.4-8.5c2-2,4.8-3.2,7.7-3.1
	c3.1-0.2,6.1,1.1,8.1,3.5c1.7,2.2,2.6,4.9,2.5,7.7V283.1z M818.9,278.6h9.3c-0.2-3.1-1.7-4.7-4.6-4.7S819.1,275.5,818.9,278.6
	L818.9,278.6z"/>
<path class="st0" d="M852.9,275.1h-6.3v10.8c0,1.6,0.5,2.4,1.6,2.4c1.3-0.1,2.5-0.5,3.6-1.2l2,3.1c-2.1,1.7-4.8,2.7-7.5,2.7
	c-3.8,0-5.8-2.1-5.8-6.3v-11.4h-3v-4.9h3.1v-3.9c1.6-0.9,3.6-1.9,6.1-3.2v7.1h6.2L852.9,275.1z"/>
<path class="st0" d="M867.2,269.6c3.2-0.2,6.3,1.2,8.3,3.8c1.7,2.2,2.6,4.9,2.5,7.7c0.1,3.3-1.2,6.5-3.7,8.6c-4.3,4-11.1,3.7-15-0.7
	l-0.1-0.1c-1.9-2.2-3-5-2.9-7.9c-0.1-3.2,1-6.3,3.2-8.5C861.6,270.6,864.4,269.5,867.2,269.6z M867.2,288.1c3.1,0,4.7-2.3,4.7-6.9
	c0-4.8-1.6-7.2-4.7-7.2s-4.7,2.4-4.7,7.2C862.6,285.8,864.2,288.1,867.2,288.1z"/>
<path class="st0" d="M900.8,292H896l-0.5-2.1c-1.8,1.6-4,2.6-6.4,2.6c-4.8,0-7.2-2.4-7.2-7.1c-0.1-2.2,1.1-4.3,3-5.5
	c2.1-1.3,5.1-2,9.1-2h1v-0.1c0.1-1-0.2-2.1-0.9-2.8c-0.9-0.6-2-0.9-3.1-0.8c-2.1,0-4.2,0.7-5.8,2c-0.6-1-1.1-2.1-1.6-3.1
	c1.4-1.2,3-2.1,4.8-2.9c1.6-0.5,3.2-0.8,4.9-0.8c5.1,0,7.7,3.2,7.7,9.6L900.8,292z M894.6,281.7h-0.7c-1.5-0.1-3.1,0.3-4.4,1
	c-1,0.5-1.7,1.4-1.7,2.5c0,2,0.9,3,2.6,3c1,0,2-0.3,2.8-0.9s1.3-1.4,1.4-2.3L894.6,281.7z"/>
<path class="st0" d="M925.6,289.2c-2.1,2.2-5,3.4-8.1,3.4c-3.3,0.2-6.6-1.1-8.8-3.6c-4.1-4.9-3.7-12,0.8-16.5c2.1-1.9,4.9-3,7.7-2.9
	c3-0.1,6,1,8.1,3.2l-1.8,3.3c-1.4-1.4-3.3-2.1-5.3-2.2c-1.7,0-3.4,0.7-4.4,2.1c-1.2,1.5-1.8,3.4-1.7,5.4c-0.1,1.8,0.5,3.6,1.7,5
	c1.1,1.3,2.7,2,4.3,2c2.1,0,4-0.8,5.4-2.4L925.6,289.2z"/>
<path class="st0" d="M929.2,264.6c0-1,0.4-2,1.1-2.7c0.7-0.7,1.6-1.1,2.6-1.1s2,0.4,2.7,1.1s1.1,1.7,1.1,2.7s-0.4,2-1.1,2.7
	c-0.7,0.7-1.7,1-2.8,1c-1,0-1.9-0.4-2.6-1.1C929.6,266.6,929.2,265.6,929.2,264.6z M936,270.2V292h-6.1v-21.8H936z"/>
<path class="st0" d="M957.8,292l-0.9-2.3c-0.6,0.9-1.5,1.6-2.5,2.1c-1.1,0.5-2.3,0.8-3.6,0.8c-3.4,0-6-1.1-7.8-3.4
	c-1.6-2.1-2.4-4.7-2.3-7.3c0-4.2,1.2-7.4,3.7-9.7c1.8-1.7,4.1-2.6,6.6-2.5c2-0.1,4,0.6,5.6,1.8v-7l6-3.4V292H957.8z M956.6,283.7
	v-6.1c-0.2-1-0.7-1.9-1.5-2.6s-1.7-1-2.8-1c-1.5,0-3,0.7-3.9,1.9c-1,1.5-1.5,3.3-1.4,5.2c0,4.8,1.5,7.1,4.7,7.1
	c1.2,0,2.4-0.5,3.2-1.4C955.8,286.1,956.4,284.9,956.6,283.7z"/>
<path class="st0" d="M978.6,269.6c3.2-0.2,6.3,1.2,8.3,3.8c1.7,2.2,2.6,4.9,2.5,7.7c0.1,3.3-1.2,6.5-3.7,8.6c-4.3,4-11.1,3.7-15-0.7
	l-0.1-0.1c-1.9-2.2-3-5-2.9-7.9c-0.1-3.2,1-6.3,3.2-8.5C973,270.6,975.8,269.5,978.6,269.6z M978.6,288.1c3.1,0,4.7-2.3,4.7-6.9
	c0-4.8-1.6-7.2-4.7-7.2s-4.7,2.4-4.7,7.2C973.9,285.8,975.5,288.1,978.6,288.1z"/>
<path class="st0" d="M1007.3,275.5c-1.6-1-3.5-1.6-5.4-1.5c-1.5,0-2.3,0.7-2.3,2s1,2.1,3.1,2.6c1.9,0.3,3.7,1.1,5.3,2.2
	c1.4,1.3,2.1,3.2,2,5.2c0.1,1.9-0.7,3.7-2.2,4.9c-1.7,1.3-3.8,1.9-5.9,1.8c-3.2,0.1-6.3-1-8.8-3l2.2-3.4c1.7,1.3,3.8,2,6,2
	c0.8,0,1.6-0.2,2.3-0.7c0.6-0.4,0.9-1.1,0.9-1.8c0-1.3-1.1-2.2-3.4-2.6c-4.9-0.9-7.3-3.3-7.3-7.1c0-1.8,0.8-3.5,2.2-4.6
	c1.6-1.3,3.6-1.9,5.6-1.8c2.9-0.1,5.7,0.9,7.9,2.6L1007.3,275.5z"/>
<path class="st0" d="M1014.1,264.6c0-1,0.4-2,1.1-2.7c0.7-0.7,1.6-1.1,2.6-1.1s2,0.4,2.7,1.1s1.1,1.7,1.1,2.7s-0.4,2-1.1,2.7
	c-0.7,0.7-1.7,1-2.8,1c-1,0-1.9-0.4-2.6-1.1C1014.5,266.6,1014.1,265.6,1014.1,264.6z M1020.9,270.2V292h-6.1v-21.8H1020.9z"/>
<path class="st0" d="M1039.9,275.5c-1.6-1-3.5-1.6-5.4-1.5c-1.5,0-2.3,0.7-2.3,2s1,2.1,3.1,2.6c1.9,0.3,3.7,1.1,5.3,2.2
	c1.4,1.3,2.1,3.2,2,5.2c0.1,1.9-0.7,3.7-2.2,4.9c-1.7,1.3-3.8,1.9-5.9,1.8c-3.2,0.1-6.3-1-8.8-3l2.2-3.4c1.7,1.3,3.8,2,6,2
	c0.8,0,1.6-0.2,2.3-0.7c0.6-0.4,0.9-1.1,0.9-1.8c0-1.3-1.1-2.2-3.4-2.6c-4.9-0.9-7.3-3.3-7.3-7.1c0-1.8,0.8-3.5,2.2-4.6
	c1.6-1.3,3.6-1.9,5.6-1.8c2.9-0.1,5.7,0.9,7.9,2.6L1039.9,275.5z"/>
<path class="st1" d="M536.8,243.8c-36.7,13.2-75.7,18.8-114.6,16.4c-98.6-6.4-164-63.3-184.8-83.1"/>
<path class="st1" d="M644.4,161.9c19,17,40,31.5,62.7,43.2c24.5,12.6,50.6,21.8,77.7,27.3"/>
<image style="overflow:visible;enable-background:new    ;" width="509" height="370" xlink:href="19DB6F37.png"  transform="matrix(0.9973 0 0 0.9973 397.6878 -28.6821)">
</image>
<path class="st2" d="M461.4,130.1c0.6,1.4,1.6,3.5,2.8,6.3c-2.9,1.9-5.4,4.3-7.3,7.2c-2,3.3-1.8,5.7,0.6,7.2c1,0.7,2.2,0.8,3.3,0.5
	c1.9-0.8,3.6-1.9,5.2-3.3c4.3-3.3,8-5.2,11.1-5.9c3-0.7,6.2-0.2,8.8,1.5c3.6,2,6,5.7,6.3,9.9c0.2,3.7-0.8,7.4-2.9,10.5
	c-2.6,4.2-6.8,7.7-12.8,10.6l-2.7-6.4c3.3-1.6,6-4.2,7.8-7.5c2.5-4.1,2.1-7.1-1.2-9.2c-2.1-1.3-5.3-0.3-9.6,3.2
	c-6.8,5.6-12.8,6.8-18,3.6c-3-1.7-5-4.8-5.4-8.2c-0.4-3.3,0.5-6.8,2.8-10.5C452.9,135.4,456.8,132,461.4,130.1z"/>
<path class="st2" d="M506.9,139.5l-6.6,6.2l-30.2-32.4l6.6-6.2l12.1,13l13.9-13l-12.1-13l6.7-6.3l30.2,32.4l-6.7,6.3l-13.1-14
	l-13.9,13L506.9,139.5z"/>
<path class="st2" d="M531.3,65.4c5.9-3.3,11.8-3.5,17.7-0.6c4.8,2.5,8.8,6.5,11.3,11.3c3.4,6,4.4,11.8,3.1,17.2
	c-1.2,5.2-4.5,9.2-9.7,12.2c-6,3.3-11.8,3.7-17.4,1.1c-4.5-2.1-8.1-5.7-11.1-10.9c-3.4-6.1-4.5-12-3.4-17.7
	C522.9,72.5,526,68.3,531.3,65.4z M550,98.8c2.8-1.4,4.6-4.1,4.9-7.1c0.3-3.1-0.6-6.7-3-10.9c-2.5-4.5-5.3-7.4-8.4-8.9
	c-4.7-2.1-10.3,0-12.4,4.7c-0.4,1-0.7,2-0.8,3.1c-0.3,3.3,0.8,7.1,3.2,11.4C538.3,99.7,543.8,102.3,550,98.8z"/>
<path class="st2" d="M581.1,91.1l-15.5-41.5c0.6-0.4,2.2-1.2,5-2.4s4.9-2.2,6.4-2.7c10.6-3.9,17.5-1.6,20.7,7.1
	c1.7,4.6,1.3,9.8-1.3,14.1c2.9,3.1,7.8,7.9,14.5,14.4l-8.7,3.2c-3.9-3.9-8.1-8-12.6-12.5c-0.6,0.3-1.3,0.6-1.9,0.9
	c-1.2,0.6-2.6,0.9-3.9,0.9l5.8,15.5L581.1,91.1z M576.7,53l4.7,12.5c1.5-0.1,3-0.4,4.5-1c3.8-1.4,4.7-4.6,2.9-9.6
	c-1.5-4.1-4.2-5.4-8.1-3.9C578.3,51.8,577,52.5,576.7,53L576.7,53z"/>
<path class="st2" d="M617.4,40.1L605,43.3l-1.8-7.1l34.7-8.9l1.8,7.1l-13.3,3.4l9.3,35.8l-9,2.3L617.4,40.1z"/>
<path class="st2" d="M682.5,27.2l-12.7,1.6l-0.9-7.3l35.6-4.5l0.9,7.3L691.7,26l4.6,36.7l-9.2,1.2L682.5,27.2z"/>
<path class="st2" d="M716.5,16.1l28.9-1.5l0.4,7.3L726,23l0.6,10.4l16.5-0.9l0.4,7.3L727,40.7l0.6,11.8l20.7-1.1l0.4,7.3l-29.9,1.6
	L716.5,16.1z"/>
<path class="st2" d="M758.7,58.7l1-44.2c0.7-0.1,2.5-0.3,5.5-0.4s5.3-0.2,6.9-0.2c11.3,0.3,16.8,5,16.6,14.2
	c-0.1,5-2.4,9.6-6.4,12.6c1.6,3.9,4.3,10.1,8.2,18.7l-9.2-0.2c-2.2-5-4.5-10.5-7.1-16.3c-0.7,0.1-1.4,0.1-2.1,0.1
	c-1.4,0.1-2.7-0.1-4-0.7l-0.4,16.5L758.7,58.7z M768.7,21.6L768.4,35c1.5,0.5,3,0.7,4.5,0.7c4,0.1,6.1-2.5,6.2-7.8
	c0.1-4.3-1.9-6.6-6.1-6.7C770.6,21.2,769.2,21.3,768.7,21.6z"/>
<path class="st2" d="M823.1,52.6c4-9.1,9.2-19.7,15.5-31.8l13.1,2L845,66.6l-9.1-1.4l5.5-35.6c-4.8,11.6-10.2,22.9-16.1,33.9
	l-7.5-1.2c-2.8-16.6-4.5-28.9-5.2-36.8l-5.4,35.2l-8.9-1.4l6.7-43.8l12.6,1.9C820.1,30,821.9,41.7,823.1,52.6z"/>
</svg>
