<svg xmlns="http://www.w3.org/2000/svg" viewBox="0 0 212.58 212.58"><defs><style>.cls-1{fill:#0084c3;}.cls-2{fill:#8cd5e8;}</style></defs><g id="Layer_2" data-name="Layer 2"><g id="education"><circle class="cls-1" cx="106.29" cy="106.29" r="106.29"/><path class="cls-2" d="M98.09,167.35H53.72c-1.48,0-2.21-.68-2.21-2v-8.67c0-1.36.73-2,2.21-2H66.64V58.05H53.72c-1.48,0-2.21-.69-2.21-2V47.34c0-1.37.73-2,2.21-2h52.36q18,0,29.49,10.45T147.05,84q0,17.76-11.22,27.54t-31.62,9.77H81.43V154.6H98.09a1.8,1.8,0,0,1,2,2v8.67A1.8,1.8,0,0,1,98.09,167.35ZM81.43,109.21h22.1q28.56,0,28.56-25.16,0-13.08-8.08-19.54T103.7,58.05H81.43Z"/><path class="cls-2" d="M121.15,167.35H107.78c-.61,0-.91-.28-.91-.84v-3c0-.57.3-.85.91-.85h3.85V137.6h-3.85c-.61,0-.91-.28-.91-.84v-3c0-.57.3-.85.91-.85H116c.6,0,.91.28.91.85v8.75h.21a9.73,9.73,0,0,1,1.47-3.09,15,15,0,0,1,2.76-3.25,14.33,14.33,0,0,1,4.34-2.35,18.38,18.38,0,0,1,6.41-1,.81.81,0,0,1,.91.91v3.71a.81.81,0,0,1-.91.91H130.6a12.68,12.68,0,0,0-13.16,12.6v11.76h3.71c.6,0,.91.28.91.85v3C122.06,167.07,121.75,167.35,121.15,167.35Z"/><path class="cls-2" d="M165.39,150.84h-25.2q.27,5.81,3.67,9a11,11,0,0,0,7.67,3.14,13.94,13.94,0,0,0,7.31-1.82,11.61,11.61,0,0,0,4.1-3.57.84.84,0,0,1,1.26-.21l1.89,1.89a1.16,1.16,0,0,1,.42.74,1.6,1.6,0,0,1-.32.8,12.91,12.91,0,0,1-1.29,1.54,21.08,21.08,0,0,1-2.77,2.38,15.54,15.54,0,0,1-4.62,2.24,19.6,19.6,0,0,1-6,.91A16.88,16.88,0,0,1,139.17,163q-4.93-4.81-4.93-13t4.9-12.88a16.62,16.62,0,0,1,12-4.73q7.11,0,11.17,4.59t4.06,12.35v.56C166.37,150.53,166,150.84,165.39,150.84Zm-7.56-11.21a9,9,0,0,0-6.72-2.58,11.29,11.29,0,0,0-7.21,2.37,10.14,10.14,0,0,0-3.57,7.14h20.23A10.28,10.28,0,0,0,157.83,139.63Z"/></g></g></svg>